<?xml version="1.0" encoding="utf-8"?>
<!-- Generator: Adobe Illustrator 24.3.0, SVG Export Plug-In . SVG Version: 6.00 Build 0)  -->
<svg version="1.1" id="Ebene_1" xmlns="http://www.w3.org/2000/svg" xmlns:xlink="http://www.w3.org/1999/xlink" x="0px" y="0px"
	 viewBox="0 0 16 16" enable-background="new 0 0 16 16" xml:space="preserve">
<g>
	<path fill="#33ACDF" d="M2,0v16h12V4l-4-4H2z"/>
	<path opacity="0.65" fill="#FFFFFF" enable-background="new    " d="M10,4V2V0l4,4H10z"/>
	<path opacity="0.15" fill="#212121" enable-background="new    " d="M14,4v2.5V9l-4-5H14z"/>
</g>
<g>
	<path fill="#FFFFFF" d="M7.4,13H6.5c-0.4,0-0.7-0.1-1-0.3c-0.2-0.2-0.4-0.5-0.4-0.9v-0.5c0-0.4-0.1-0.6-0.2-0.8
		c-0.2-0.1-0.4-0.2-0.8-0.2H4V9.6h0.2c0.4,0,0.6-0.1,0.8-0.2C5.2,9.3,5.2,9,5.2,8.7V8.2c0-0.4,0.1-0.7,0.4-0.9C5.8,7.1,6.1,7,6.5,7
		h0.8v0.7H7c-0.1,0-0.2,0-0.3,0c-0.1,0-0.2,0.1-0.2,0.1C6.4,7.9,6.3,8,6.3,8.1S6.2,8.3,6.2,8.5v0.3c0,0.3-0.1,0.5-0.2,0.7
		C5.8,9.7,5.6,9.9,5.3,10l0,0c0.3,0.1,0.5,0.3,0.7,0.5s0.2,0.4,0.2,0.7v0.3c0,0.2,0,0.3,0.1,0.4c0,0.1,0.1,0.2,0.2,0.2
		c0.1,0.1,0.1,0.1,0.2,0.1s0.2,0,0.3,0h0.3C7.4,12.3,7.4,13,7.4,13z"/>
	<path fill="#FFFFFF" d="M12,10.4h-0.2c-0.4,0-0.6,0.1-0.8,0.2c-0.2,0.1-0.2,0.4-0.2,0.8v0.5c0,0.4-0.1,0.7-0.4,0.9
		C10.2,12.9,9.9,13,9.5,13H8.6v-0.7H9c0.1,0,0.2,0,0.3,0s0.2-0.1,0.3-0.1c0.1-0.1,0.1-0.1,0.2-0.2c0-0.1,0.1-0.2,0.1-0.4v-0.3
		c0-0.3,0.1-0.5,0.2-0.7c0.2-0.2,0.4-0.3,0.7-0.5V10c-0.3-0.1-0.5-0.3-0.7-0.5C9.8,9.3,9.8,9.1,9.8,8.8V8.5c0-0.2,0-0.3-0.1-0.4
		c0-0.1-0.1-0.2-0.2-0.2c0-0.1-0.1-0.1-0.2-0.2c-0.1,0-0.2,0-0.3,0H8.6V7h0.8c0.4,0,0.7,0.1,0.9,0.3c0.2,0.2,0.4,0.5,0.4,0.9v0.5
		c0,0.4,0.1,0.6,0.2,0.8c0.2,0.1,0.4,0.2,0.8,0.2H12C12,9.6,12,10.4,12,10.4z"/>
</g>
</svg>
