<?xml version="1.0" encoding="utf-8"?>
<!-- Generator: Adobe Illustrator 19.1.1, SVG Export Plug-In . SVG Version: 6.00 Build 0)  -->
<svg version="1.1" xmlns="http://www.w3.org/2000/svg" xmlns:xlink="http://www.w3.org/1999/xlink" x="0px" y="0px"
	 viewBox="0 0 16 16" enable-background="new 0 0 16 16" xml:space="preserve">
<polygon fill="#666666" points="14.271,3.18 8.276,1.467 8,1.388 7.724,1.467 1.729,3.18 1,3.388 1,4.146 1,11.854 1,12.612 
	1.729,12.82 7.724,14.533 8,14.612 8.276,14.533 14.271,12.82 15,12.612 15,11.854 15,4.146 15,3.388 "/>
<polygon fill="#AAD400" points="8,2.433 13.035,3.871 8,5.336 2.945,3.877 "/>
<polygon fill="#FFC857" points="2.004,4.651 7.498,6.236 7.498,13.424 2.004,11.854 "/>
<polygon fill="#FF6777" points="8.502,13.424 8.502,6.235 13.996,4.638 13.996,11.854 "/>
</svg>
