<?xml version="1.0" encoding="utf-8"?>
<!-- Generator: Adobe Illustrator 24.3.0, SVG Export Plug-In . SVG Version: 6.00 Build 0)  -->
<svg version="1.1" id="Ebene_1" xmlns="http://www.w3.org/2000/svg" xmlns:xlink="http://www.w3.org/1999/xlink" x="0px" y="0px"
	 viewBox="0 0 16 16" enable-background="new 0 0 16 16" xml:space="preserve">
<g>
	<path fill="#999999" d="M1,1v2.8v2.8l8.5,8.5l5.7-5.7L6.7,1H3.8H1z M3.5,3.5c0.7-0.7,1.8-0.7,2.5,0s0.7,1.8,0,2.5s-1.8,0.7-2.5,0
		S2.8,4.2,3.5,3.5z"/>
	<path fill="#FFFFFF" d="M2,2v2.1v2.1l7.5,7.5l4.2-4.2L6.2,2H4.1H2z M3.5,3.5c0.7-0.7,1.8-0.7,2.5,0s0.7,1.8,0,2.5s-1.8,0.7-2.5,0
		S2.8,4.2,3.5,3.5z"/>
	<path fill="#999999" d="M3.5,3.5c-0.7,0.7-0.7,1.8,0,2.5s1.8,0.7,2.5,0s0.7-1.8,0-2.5S4.2,2.8,3.5,3.5z M4.2,4.2
		c0.3-0.3,0.8-0.3,1.1,0s0.3,0.8,0,1.1s-0.8,0.3-1.1,0C3.9,4.9,3.9,4.5,4.2,4.2z"/>
	<rect x="7.4" y="6.6" transform="matrix(0.7071 -0.7071 0.7071 0.7071 -3.7826 9.1315)" fill="#FF8700" width="3.5" height="5"/>
</g>
</svg>
