<?xml version="1.0" encoding="utf-8"?>
<!-- Generator: Adobe Illustrator 19.1.1, SVG Export Plug-In . SVG Version: 6.00 Build 0)  -->
<svg version="1.1" xmlns="http://www.w3.org/2000/svg" xmlns:xlink="http://www.w3.org/1999/xlink" x="0px" y="0px"
	 viewBox="0 0 16 16" enable-background="new 0 0 16 16" xml:space="preserve">
<g>
	<path fill="#EFEFEF" d="M2,0v16h12V4l-4-4H2z"/>
	<path opacity="0.65" fill="#FFFFFF" enable-background="new    " d="M10,4V0l4,4H10z"/>
	<path opacity="0.2" enable-background="new    " d="M13,5v5L9,5H13z"/>
	<path fill="#999999" d="M2,0v16h12V4l0,0l0,0l-4-4l0,0l0,0H2z M3,1h6v4h4v10H3V1z M10,1.4L12.6,4H10V1.4z"/>
</g>
<g>
	<circle fill="#5599FF" cx="10.5" cy="10.5" r="5.5"/>
	<path opacity="0.2" d="M10.5,6c2.481,0,4.5,2.019,4.5,4.5S12.981,15,10.5,15S6,12.981,6,10.5S8.019,6,10.5,6 M10.5,5
		C7.462,5,5,7.462,5,10.5S7.462,16,10.5,16s5.5-2.462,5.5-5.5S13.538,5,10.5,5L10.5,5z"/>
	<path fill="#AAD400" d="M14.982,10.1c-0.141-1.52-1.03-2.824-2.279-3.523c-0.059,0.062-0.075,0.026-0.075,0.088
		c-0.178,0.062-0.415-0.062-0.593-0.125c-0.474-0.186-0.949-0.186-1.364-0.062c-0.178,0.062-0.593,0.125-0.415,0.499
		c0.118,0.188,0.415,0.375,0.712,0.125c0.118-0.125,0.238-0.312,0.415-0.125c0.06,0.063,0.06,0.125,0.06,0.188
		c-0.06,0.186-0.238,0.249-0.415,0.249c-0.238,0.062-0.476,0-0.712,0.062C10.076,7.54,9.721,7.602,9.721,7.914
		c0,0.373-0.119,0.436-0.416,0.498c-0.238,0-0.355,0.125-0.238,0.374c0.06,0.186,0.238,0.186,0.357,0.125
		c0.474-0.249,0.89-0.873,1.423-0.125l0.118-0.062c0.119-0.499,0.238-0.186,0.356,0L11.5,8.911c0.712-0.685,0.534,0.312,0.771,0.499
		c-0.476-0.125-1.009,0.374-1.424,0.062c-0.712-0.561-1.186-0.311-1.838,0.249c-0.534,0.437-0.652,0.998-0.534,1.497
		c0.177,0.624,0.829,0.686,1.364,0.561c0.177-0.063,0.534-0.063,0.534,0.062c-0.119,0.561,0.534,0.935,0.296,1.558
		c-0.177,0.499,0.12,1.122,0.534,1.309c0.416,0.186,0.771-0.312,0.95-0.748c0.059-0.062,0-0.186,0.059-0.249
		c0.474-0.624,0.415-1.558,1.008-2.182c0.178-0.186,0.771-0.872,0.296-1.434c1.127-0.312,0.714,0.81,0.95,1.309
		c0.177-0.374,0.296-0.748,0.415-1.061C14.939,10.158,14.982,10.1,14.982,10.1z"/>
	<path fill="#AAD400" d="M8.538,6.778C8.725,6.581,8.733,6.549,8.92,6.286c-0.391,0.138-0.883,0.41-1.236,0.707l0.108,0.114h0.561
		c0,0,0.062,0,0.062-0.064l0.062-0.066c0,0,0.062,0,0.062-0.066l0.062-0.066l0.062-0.066c-0.186,0.132-0.186,0.066-0.125,0
		c0,0.066,0,0.066,0,0c0,0.066,0,0,0,0L8.538,6.778z"/>
	<path fill="#AAD400" d="M7.714,12.846C7.714,12.846,7.652,12.787,7.714,12.846C7.652,12.787,7.652,12.787,7.714,12.846v-0.059
		v-0.059v-0.059L7.652,12.61c-0.061,0-0.061-0.06-0.122-0.06s-0.122-0.06-0.184-0.06H7.285H7.224c0,0-0.061,0-0.061-0.059
		c-0.429-0.238-0.613-0.653-0.735-1.126c0-0.119-0.061-0.238-0.061-0.356c-0.06-0.06-0.06-0.119-0.122-0.179
		c-0.122-0.118-0.06-0.356,0.062-0.593v-0.118c0-0.06,0-0.06,0.061-0.119c0-0.058,0-0.058,0.062-0.118
		c0.122-0.238,0.368-0.415,0.49-0.593C6.979,9.17,6.979,9.17,6.979,9.111V9.052C7.04,8.993,7.04,8.874,7.101,8.814
		c0-0.058,0.062-0.177,0.062-0.237c0-0.119,0-0.178-0.062-0.296C7.04,8.103,7.002,7.949,6.88,7.83C6.329,8.601,6,9.466,6,10.474
		c0,1.365,0.58,2.575,1.552,3.423c0,0,0.039,0.017,0.039-0.041v-0.06c0-0.059,0.061-0.059,0.061-0.118
		C7.713,13.438,7.713,13.084,7.714,12.846L7.714,12.846z"/>
</g>
</svg>
