<?xml version="1.0" encoding="utf-8"?>
<!-- Generator: Adobe Illustrator 19.1.1, SVG Export Plug-In . SVG Version: 6.00 Build 0)  -->
<svg version="1.1" xmlns="http://www.w3.org/2000/svg" xmlns:xlink="http://www.w3.org/1999/xlink" x="0px" y="0px"
	 viewBox="0 0 16 16" enable-background="new 0 0 16 16" xml:space="preserve">
<path fill="#1E7145" fill-opacity="0.9412" d="M2,0v16h12V4l-4-4H2z"/>
<rect x="4" y="6" fill="#FFFFFF" width="2" height="1"/>
<rect x="7" y="6" fill="#FFFFFF" width="2" height="1"/>
<rect x="10" y="6" fill="#FFFFFF" width="2" height="1"/>
<rect x="4" y="8" fill="#FFFFFF" width="2" height="1"/>
<rect x="4" y="10" fill="#FFFFFF" width="2" height="1"/>
<rect x="4" y="12" fill="#FFFFFF" width="2" height="1"/>
<path fill="#FFFFFF" d="M12.6,13.2h-1.9l-1.1-1.5l-1.1,1.5H6.6l2-2.6l-2-2.6h1.9l1.1,1.5l1.1-1.5h1.9l-2,2.5L12.6,13.2z"/>
<path opacity="0.65" fill="#FFFFFF" enable-background="new    " d="M10,4V2V0l4,4L10,4z"/>
<path opacity="0.15" enable-background="new    " d="M14,4v2.5V9l-4-5L14,4z"/>
</svg>
