<?xml version="1.0" encoding="utf-8"?>
<!-- Generator: Adobe Illustrator 24.3.0, SVG Export Plug-In . SVG Version: 6.00 Build 0)  -->
<svg version="1.1" id="Ebene_1" xmlns="http://www.w3.org/2000/svg" xmlns:xlink="http://www.w3.org/1999/xlink" x="0px" y="0px"
	 viewBox="0 0 16 16" enable-background="new 0 0 16 16" xml:space="preserve">
<g>
	<path fill="#FF3322" d="M2,0v16h12V4l-4-4H2z"/>
	<path fill="#FFFFFF" opacity="0.65" enable-background="new    " d="M10,4V1.99V0l4,4H10z"/>
	<path fill="#212121" opacity="0.15" enable-background="new    " d="M14,4v2.512V9l-4-5H14z"/>
</g>
<g>
	<path fill-rule="evenodd" clip-rule="evenodd" fill="#FFFFFF" d="M10.5,6.7c0.2-0.1,0.4-0.1,0.7-0.1V5c-1.1,0-2.1,0.4-2.8,1.3
		C8.2,6.6,8,7,7.8,7.5L7.2,8.7C7.1,9.2,6.9,9.6,6.8,9.9c-0.2,0.4-0.3,0.6-0.5,0.8s-0.4,0.4-0.6,0.5c-0.3,0.1-0.5,0.2-0.9,0.2V13
		c1.1,0,2.1-0.4,2.8-1.3c0.2-0.3,0.4-0.6,0.6-0.9l0.4-1h1.8V8.2H9.2c0.1-0.3,0.2-0.5,0.4-0.7C9.7,7.3,9.8,7.1,10,7
		C10.1,6.9,10.3,6.8,10.5,6.7"/>
</g>
</svg>
