<?xml version="1.0" encoding="utf-8"?>
<!-- Generator: Adobe Illustrator 24.3.0, SVG Export Plug-In . SVG Version: 6.00 Build 0)  -->
<svg version="1.1" id="Ebene_1" xmlns="http://www.w3.org/2000/svg" xmlns:xlink="http://www.w3.org/1999/xlink" x="0px" y="0px"
	 viewBox="0 0 16 16" enable-background="new 0 0 16 16" xml:space="preserve">
<g>
	<path fill="#B9B9B9" d="M2,0v16h12V4l-4-4H2z"/>
	<path opacity="0.65" fill="#FFFFFF" enable-background="new    " d="M10,4V2V0l4,4H10z"/>
	<path opacity="0.15" fill="#212121" enable-background="new    " d="M14,4v2.5V9l-4-5H14z"/>
</g>
<g>
	<rect x="4" y="6" fill="#8C8C8C" width="8" height="1"/>
	<rect x="4" y="8" fill="#8C8C8C" width="8" height="1"/>
	<rect x="4" y="10" fill="#8C8C8C" width="8" height="1"/>
	<rect x="4" y="12" fill="#8C8C8C" width="8" height="1"/>
</g>
<g>
	<path fill="#FBB03B" d="M15.3,16H5.7c-0.6,0-0.9-0.6-0.7-1.1l4.8-9.1c0.3-0.5,1-0.5,1.3,0l4.8,9.1C16.2,15.4,15.8,16,15.3,16z"/>
	<path opacity="0.2" fill="#212121" enable-background="new    " d="M10.5,6.7l4.3,8.3H6.2L10.5,6.7 M10.5,5.4
		c-0.3,0-0.5,0.1-0.7,0.4L5,14.9C4.8,15.4,5.2,16,5.7,16h9.5c0.6,0,0.9-0.6,0.7-1.1l-4.8-9.1C11,5.5,10.8,5.4,10.5,5.4L10.5,5.4z"/>
	<path fill="#FFFFFF" d="M11,13v1h-1v-1H11z"/>
	<path fill="#FFFFFF" d="M11,9v3h-1V9H11z"/>
</g>
</svg>
