<?xml version="1.0" encoding="utf-8"?>
<!-- Generator: Adobe Illustrator 21.1.0, SVG Export Plug-In . SVG Version: 6.00 Build 0)  -->
<svg version="1.1" id="Ebene_1" xmlns="http://www.w3.org/2000/svg" xmlns:xlink="http://www.w3.org/1999/xlink" x="0px" y="0px"
	 viewBox="0 0 16 16" enable-background="new 0 0 16 16" xml:space="preserve">
<polygon fill="#FF8700" points="14,16 2,16 2,0 11,0 14,3 "/>
<polygon opacity="0.75" fill="#FFFFFF" points="14,3 11,3 11,0 "/>
<polygon opacity="0.15" points="14,3 14,6 11,3 "/>
<g>
	<path fill="#FFFFFF" d="M9.5,11.1c-0.1,0-0.2,0-0.3,0c-0.8,0-1.9-2.7-1.9-3.6c0-0.3,0.1-0.4,0.2-0.5C6.6,7.2,5.5,7.5,5.1,8
		C5,8.1,5,8.2,5,8.5C5,9.9,6.5,13,7.6,13C8,13,8.9,12.2,9.5,11.1"/>
	<path fill="#FFFFFF" d="M9,7c1,0,2,0.2,2,0.7c0,1.1-0.7,2.5-1.1,2.5c-0.6,0-1.4-1.8-1.4-2.7C8.5,7,8.6,7,9,7"/>
</g>
</svg>
