<?xml version="1.0" encoding="UTF-8" standalone="no"?>
<!-- Generator: Adobe Illustrator 19.1.0, SVG Export Plug-In . SVG Version: 6.00 Build 0)  -->

<svg
   xmlns:dc="http://purl.org/dc/elements/1.1/"
   xmlns:cc="http://creativecommons.org/ns#"
   xmlns:rdf="http://www.w3.org/1999/02/22-rdf-syntax-ns#"
   xmlns:svg="http://www.w3.org/2000/svg"
   xmlns="http://www.w3.org/2000/svg"
   xmlns:sodipodi="http://sodipodi.sourceforge.net/DTD/sodipodi-0.dtd"
   xmlns:inkscape="http://www.inkscape.org/namespaces/inkscape"
   version="1.1"
   x="0px"
   y="0px"
   viewBox="0 0 16 16"
   enable-background="new 0 0 16 16"
   xml:space="preserve"
   id="svg2"
   inkscape:version="0.91 r13725"
   sodipodi:docname="mimetypes-x-sys_category.svg"><metadata
     id="metadata29"><rdf:RDF><cc:Work
         rdf:about=""><dc:format>image/svg+xml</dc:format><dc:type
           rdf:resource="http://purl.org/dc/dcmitype/StillImage" /><dc:title /></cc:Work></rdf:RDF></metadata><defs
     id="defs27" /><sodipodi:namedview
     pagecolor="#ffffff"
     bordercolor="#666666"
     borderopacity="1"
     objecttolerance="10"
     gridtolerance="10"
     guidetolerance="10"
     inkscape:pageopacity="0"
     inkscape:pageshadow="2"
     inkscape:window-width="1920"
     inkscape:window-height="1027"
     id="namedview25"
     showgrid="false"
     inkscape:zoom="1"
     inkscape:cx="9.6128577"
     inkscape:cy="11.101299"
     inkscape:window-x="-8"
     inkscape:window-y="-8"
     inkscape:window-maximized="1"
     inkscape:current-layer="g4168" /><g
     id="apps-filetree-mount"><g
       id="g4163"
       transform="translate(-2,3)"><g
         id="g4168"
         transform="matrix(0.70710678,-0.70710678,0.70710678,0.70710678,-2.0208153,7.1213203)"><path
           id="rect4176"
           transform="translate(2,-3)"
           d="M 8,0 6,2 4,4 4,16 12,16 12,4 10,2 8,0 Z M 8,3.5 A 1.75,1.75 0 0 1 9.75,5.25 1.75,1.75 0 0 1 8,7 1.75,1.75 0 0 1 6.25,5.25 1.75,1.75 0 0 1 8,3.5 Z"
           style="opacity:1;fill:#b9b9b9;fill-opacity:1;stroke:none"
           inkscape:connector-curvature="0" /><path
           id="path4180"
           transform="translate(2,-3)"
           d="m 8,1.4003906 -1.5,1.5 -1.5,1.5 L 5,15 l 6,0 0,-10.5996094 -1.5,-1.5 -1.5,-1.5 z M 8,3.5 A 1.75,1.75 0 0 1 9.75,5.25 1.75,1.75 0 0 1 8,7 1.75,1.75 0 0 1 6.25,5.25 1.75,1.75 0 0 1 8,3.5 Z"
           style="opacity:1;fill:#ffffff;fill-opacity:1;stroke:none"
           inkscape:connector-curvature="0" /><path
           inkscape:connector-curvature="0"
           id="circle4155"
           d="M 10,0.5 A 1.75,1.75 0 0 0 8.25,2.25 1.75,1.75 0 0 0 10,4 1.75,1.75 0 0 0 11.75,2.25 1.75,1.75 0 0 0 10,0.5 Z m 0,1 A 0.75,0.75 0 0 1 10.75,2.25 0.75,0.75 0 0 1 10,3 0.75,0.75 0 0 1 9.25,2.25 0.75,0.75 0 0 1 10,1.5 Z"
           style="opacity:1;fill:#b9b9b9;fill-opacity:1;stroke:none" /><rect
           y="6"
           x="8.25"
           height="5"
           width="3.5"
           id="rect4166"
           style="opacity:1;fill:#ff8700;fill-opacity:1;stroke:none" /></g></g></g></svg>