<svg xmlns="http://www.w3.org/2000/svg" viewBox="0 0 16 16">
<polygon fill="#FFC857" points="9,12 0,12 0,0 16,0 16,12 13,12 9,16 "/>
<path opacity="0.2" fill="#212121" d="M15,1v10h-2h-0.4l-0.3,0.3L10,13.6V12v-1H9H1V1H15 M16,0H0v12h9
	v4l4-4h3V0L16,0z"/>
<path fill="#212121" d="M9.5,4.1c0,0.3,0,0.5-0.1,0.7c0,0.2-0.1,0.3-0.2,0.5C9.1,5.4,8.9,5.6,8.8,5.7C8.6,5.8,8.5,5.9,8.3,6v1H7V5.6
	c0.1-0.1,0.5-0.1,0.6-0.2c0.1,0,0.2-0.1,0.4-0.2C8.1,5.1,8.2,5,8.2,4.8c0.1-0.1,0.1-0.3,0.1-0.5c0-0.3-0.1-0.5-0.2-0.6
	C8,3.7,7.8,3.6,7.6,3.6c-0.1,0-0.3,0-0.5,0.1C6.9,3.8,6.8,3.9,6.6,4H6.5V2.8c0.1,0,0.3-0.1,0.6-0.2c0.3-0.1,0.5-0.1,0.8-0.1
	c0.5,0,0.9,0.1,1.2,0.4C9.4,3.2,9.5,3.6,9.5,4.1z M8.3,9H7V7.8h1.3V9z"/>
</svg>