<?xml version="1.0" encoding="utf-8"?>
<!-- Generator: Adobe Illustrator 24.3.0, SVG Export Plug-In . SVG Version: 6.00 Build 0)  -->
<svg version="1.1" id="Ebene_1" xmlns="http://www.w3.org/2000/svg" xmlns:xlink="http://www.w3.org/1999/xlink" x="0px" y="0px"
	 viewBox="0 0 16 16" enable-background="new 0 0 16 16" xml:space="preserve">
<g>
	<path fill="#ECA701" d="M2,0v16h12V4l-4-4H2z"/>
	<path opacity="0.65" fill="#FFFFFF" enable-background="new    " d="M10,4V2V0l4,4H10z"/>
	<path opacity="0.15" fill="#212121" enable-background="new    " d="M14,4v2.5V9l-4-5H14z"/>
</g>
<g>
	<path fill="#FFFFFF" d="M8.5,6.7l1.8,1.8l-4.4,4.4C5.8,13,5.8,13,5.7,13H4v-1.7c0-0.1,0-0.1,0.1-0.2L8.5,6.7z"/>
	<path fill="#FFFFFF" d="M10.5,5.1l1.4,1.4c0.1,0.1,0.1,0.3,0,0.4L10.8,8L9,6.2L10.2,5C10.2,5,10.4,5,10.5,5.1z"/>
</g>
</svg>
