<svg xmlns="http://www.w3.org/2000/svg" viewBox="0 0 16 16">
<g>
	<path fill="#515151" d="M2,0v16h12V4l-4-4H2z"/>
	<path fill="#FFF" opacity="0.65" d="M10,4V1.99V0l4,4H10z"/>
	<path fill="#212121" opacity="0.15" d="M14,4v2.512V9l-4-5H14z"/>
</g>
<g>
	<path fill="#FFF" d="M12,6c0,0-6.4,0-6.4,0C5.5,6,5.3,6.1,5.2,6.1c0,0,0,0,0,0c0,0,0,0,0,0C5.1,6.3,5,6.5,5,6.6c0,0,0,0,0,0
		c0,0,0,0,0,0v4.1c-0.2,0.1-0.5,0.2-0.7,0.4c-0.6,0.6-0.7,1.3-0.3,1.7c0.4,0.4,1.1,0.2,1.7-0.3c0.3-0.3,0.5-0.6,0.5-1
		c0,0,0-0.1,0-0.1V7.2h3.6v3.5c-0.2,0.1-0.5,0.2-0.7,0.4c-0.6,0.6-0.7,1.3-0.3,1.7c0.4,0.4,1.1,0.2,1.7-0.3c0.3-0.3,0.5-0.6,0.5-1
		c0,0,0-0.1,0-0.1V7.2C11.5,7.1,12.1,6.9,12,6z"/>
</g>
</svg>