<?xml version="1.0" encoding="utf-8"?>
<!-- Generator: Adobe Illustrator 24.3.0, SVG Export Plug-In . SVG Version: 6.00 Build 0)  -->
<svg version="1.1" xmlns="http://www.w3.org/2000/svg" xmlns:xlink="http://www.w3.org/1999/xlink" x="0px" y="0px"
	 viewBox="0 0 16 16" enable-background="new 0 0 16 16">
<g>
	<path fill="#45B058" d="M2,0v16h12V4l-4-4H2z"/>
	<path opacity="0.65" fill="#FFFFFF" enable-background="new    " d="M10,4V2V0l4,4H10z"/>
	<path opacity="0.15" fill="#212121" enable-background="new    " d="M14,4v2.5V9l-4-5H14z"/>
</g>
<g>
	<rect x="4" y="6" fill="#FFFFFF" width="2" height="1"/>
	<rect x="7" y="6" fill="#FFFFFF" width="2" height="1"/>
	<rect x="10" y="6" fill="#FFFFFF" width="2" height="1"/>
	<rect x="4" y="8" fill="#FFFFFF" width="2" height="1"/>
	<rect x="7" y="8" fill="#FFFFFF" width="2" height="1"/>
	<rect x="10" y="8" fill="#FFFFFF" width="2" height="1"/>
	<rect x="4" y="10" fill="#FFFFFF" width="2" height="1"/>
	<rect x="7" y="10" fill="#FFFFFF" width="2" height="1"/>
	<rect x="10" y="10" fill="#FFFFFF" width="2" height="1"/>
	<rect x="4" y="12" fill="#FFFFFF" width="2" height="1"/>
	<rect x="7" y="12" fill="#FFFFFF" width="2" height="1"/>
	<rect x="10" y="12" fill="#FFFFFF" width="2" height="1"/>
</g>
</svg>
