<?xml version="1.0" encoding="utf-8"?>
<!-- Generator: Adobe Illustrator 19.1.1, SVG Export Plug-In . SVG Version: 6.00 Build 0)  -->
<svg version="1.1" xmlns="http://www.w3.org/2000/svg" xmlns:xlink="http://www.w3.org/1999/xlink" x="0px" y="0px"
	 viewBox="0 0 16 16" enable-background="new 0 0 16 16" xml:space="preserve">
<path fill="#EFEFEF" d="M2,0v16h12V4l-4-4H2z"/>
<path opacity="0.65" fill="#FFFFFF" enable-background="new    " d="M10,4V0l4,4H10z"/>
<path opacity="0.2" enable-background="new    " d="M13,5v5L9,5H13z"/>
<path fill="#999999" d="M2,0v16h12V4l0,0l0,0l-4-4l0,0l0,0H2z M3,1h6v4h4v10H3V1z M10,1.4L12.6,4H10V1.4z"/>
<circle fill="#FFFFFF" cx="12" cy="12" r="2"/>
<path fill="#666666" d="M15.897,11.399l-1.213-0.346c-0.034-0.097-0.071-0.191-0.115-0.282l0.611-1.101
	c0.031-0.056,0.021-0.125-0.024-0.17l-0.656-0.656c-0.045-0.045-0.115-0.055-0.17-0.024L13.23,9.431
	c-0.091-0.044-0.186-0.081-0.282-0.115l-0.346-1.213C12.583,8.042,12.527,8,12.463,8h-0.927c-0.064,0-0.12,0.042-0.137,0.103
	l-0.347,1.213c-0.097,0.034-0.191,0.071-0.282,0.115L9.67,8.82c-0.055-0.031-0.125-0.021-0.17,0.024L8.844,9.499
	C8.799,9.545,8.789,9.614,8.82,9.67l0.611,1.101c-0.044,0.091-0.081,0.186-0.115,0.282l-1.213,0.346C8.042,11.417,8,11.473,8,11.537
	v0.927c0,0.064,0.042,0.12,0.103,0.137l1.213,0.346c0.034,0.097,0.071,0.191,0.115,0.282L8.819,14.33
	c-0.031,0.056-0.021,0.125,0.024,0.17l0.656,0.656c0.045,0.045,0.115,0.055,0.17,0.024l1.101-0.611
	c0.091,0.044,0.186,0.081,0.282,0.115l0.346,1.213C11.417,15.958,11.473,16,11.537,16h0.927c0.064,0,0.12-0.042,0.137-0.103
	l0.346-1.213c0.097-0.034,0.191-0.071,0.282-0.115l1.101,0.611c0.056,0.031,0.125,0.021,0.17-0.024l0.656-0.656
	c0.045-0.045,0.055-0.115,0.024-0.17l-0.611-1.101c0.044-0.091,0.081-0.186,0.115-0.282l1.213-0.346
	C15.958,12.583,16,12.527,16,12.463v-0.927C16,11.473,15.958,11.417,15.897,11.399z M12,13.714c-0.947,0-1.714-0.767-1.714-1.714
	s0.767-1.714,1.714-1.714s1.714,0.767,1.714,1.714S12.947,13.714,12,13.714z"/>
</svg>
