<?xml version="1.0" encoding="utf-8"?>
<!-- Generator: Adobe Illustrator 19.1.1, SVG Export Plug-In . SVG Version: 6.00 Build 0)  -->
<svg version="1.1" xmlns="http://www.w3.org/2000/svg" xmlns:xlink="http://www.w3.org/1999/xlink" x="0px" y="0px"
	 viewBox="0 0 16 16" enable-background="new 0 0 16 16" xml:space="preserve">
<g>
	<path fill="#FFC857" d="M2,0v16h12V4l-4-4H2z"/>
	<path opacity="0.65" fill="#FFFFFF" enable-background="new    " d="M10,4V1.99V0l4,4H10z"/>
	<path opacity="0.15" enable-background="new    " d="M14,4v2.512V9l-4-5H14z"/>
	<rect x="4" fill="#E8A33D" width="1" height="16"/>
	<rect x="5" y="14" fill="#8C8C8C" width="1" height="1"/>
	<rect x="5" y="12" fill="#8C8C8C" width="1" height="1"/>
	<rect x="5" y="10" fill="#8C8C8C" width="1" height="1"/>
	<rect x="5" y="8" fill="#8C8C8C" width="1" height="1"/>
	<rect x="5" y="6" fill="#8C8C8C" width="1" height="1"/>
	<rect x="5" y="4" fill="#8C8C8C" width="1" height="1"/>
	<rect x="5" y="2" fill="#8C8C8C" width="1" height="1"/>
	<rect x="5" fill="#8C8C8C" width="1" height="1"/>
	<rect x="4" y="10" fill="#8C8C8C" width="2" height="5"/>
</g>
</svg>
