<svg xmlns="http://www.w3.org/2000/svg" viewBox="0 0 16 16">
<g>
	<path fill="#F0DB4F" d="M2,0v16h12V4l-4-4H2z"/>
	<path opacity="0.65" fill="#FFF" d="M10,4V2V0l4,4H10z"/>
	<path opacity="0.15" fill="#212121" d="M14,4v2.5V9l-4-5H14z"/>
</g>
<g>
	<path fill="#212121" d="M7,10.5c0,0.2,0,0.4-0.1,0.6c-0.1,0.2-0.2,0.3-0.3,0.5c-0.2,0.1-0.3,0.2-0.6,0.3C5.7,12,5.5,12,5.1,12c-0.2,0-0.4,0-0.6,0
		S4.1,12,4,11.9v-1h0.1C4.2,11,4.3,11,4.4,11s0.3,0,0.4,0c0.2,0,0.4,0,0.5-0.1s0.2-0.1,0.3-0.3c0-0.1,0.1-0.2,0.1-0.3s0-0.3,0-0.5V8
		H4.6V7.1H7V10.5z"/>
	<path fill="#212121" d="M12,10.4c0,0.5-0.2,0.9-0.6,1.2C11,11.9,10.5,12,9.8,12c-0.4,0-0.7,0-1-0.1S8.2,11.7,8,11.6v-1.2l0,0
		c0.3,0.2,0.5,0.4,0.9,0.5c0.3,0.1,0.6,0.2,0.9,0.2c0.1,0,0.2,0,0.3,0s0.2,0,0.3-0.1c0.1,0,0.2-0.1,0.2-0.1c0.1-0.1,0.1-0.1,0.1-0.3
		c0-0.1,0-0.2-0.1-0.3s-0.2-0.1-0.4-0.2C10,10.1,9.8,10,9.6,10c-0.2,0-0.4,0-0.5-0.1C8.7,9.8,8.4,9.6,8.2,9.4C8,9.2,7.9,8.9,7.9,8.5
		s0.2-0.8,0.6-1.1C8.9,7.2,9.4,7,10.1,7c0.3,0,0.6,0,0.9,0.1c0.3,0.1,0.6,0.1,0.8,0.2v1.1h-0.1C11.5,8.2,11.3,8.1,11,8
		s-0.6-0.2-0.9-0.2c-0.1,0-0.2,0-0.3,0C9.7,7.9,9.6,8,9.5,8S9.3,8.1,9.3,8.1C9.2,8.2,9.2,8.3,9.2,8.4c0,0.1,0,0.2,0.1,0.3
		s0.3,0.1,0.5,0.2C10,8.9,10.1,9,10.3,9s0.3,0.1,0.5,0.1c0.4,0.1,0.6,0.3,0.8,0.5C11.9,9.8,12,10.1,12,10.4z"/>
</g>
</svg>