<?xml version="1.0" encoding="UTF-8" standalone="no"?>
<svg
   xmlns:dc="http://purl.org/dc/elements/1.1/"
   xmlns:cc="http://creativecommons.org/ns#"
   xmlns:rdf="http://www.w3.org/1999/02/22-rdf-syntax-ns#"
   xmlns:svg="http://www.w3.org/2000/svg"
   xmlns="http://www.w3.org/2000/svg"
   xmlns:sodipodi="http://sodipodi.sourceforge.net/DTD/sodipodi-0.dtd"
   xmlns:inkscape="http://www.inkscape.org/namespaces/inkscape"
   version="1.1"
   id="svg2"
   viewBox="0 0 16 16"
   height="16"
   width="16"
   inkscape:version="0.91 r13725"
   sodipodi:docname="mimetypes-x-tx_rtehtmlarea_acronym.svg">
  <sodipodi:namedview
     pagecolor="#ffffff"
     bordercolor="#666666"
     borderopacity="1"
     objecttolerance="10"
     gridtolerance="10"
     guidetolerance="10"
     inkscape:pageopacity="0"
     inkscape:pageshadow="2"
     inkscape:window-width="1920"
     inkscape:window-height="1027"
     id="namedview10"
     showgrid="false"
     inkscape:zoom="14.75"
     inkscape:cx="8"
     inkscape:cy="22.180946"
     inkscape:window-x="-8"
     inkscape:window-y="-8"
     inkscape:window-maximized="1"
     inkscape:current-layer="svg2" />
  <defs
     id="defs4">
    <clipPath
       clipPathUnits="userSpaceOnUse"
       id="clipPath3391">
      <path
         d="M 0,600 800,600 800,0 0,0 0,600 Z"
         id="path3393"
         inkscape:connector-curvature="0" />
    </clipPath>
    <clipPath
       clipPathUnits="userSpaceOnUse"
       id="clipPath3407">
      <path
         d="m 316,477.408 60.363,0 0,-60.408 -60.363,0 0,60.408 z"
         id="path3409"
         inkscape:connector-curvature="0" />
    </clipPath>
    <clipPath
       clipPathUnits="userSpaceOnUse"
       id="clipPath3427">
      <path
         d="m 622,477.971 60.121,0 0,-59.971 -60.121,0 0,59.971 z"
         id="path3429"
         inkscape:connector-curvature="0" />
    </clipPath>
    <clipPath
       id="clipPath3391-3"
       clipPathUnits="userSpaceOnUse">
      <path
         inkscape:connector-curvature="0"
         id="path3393-7"
         d="M 0,600 800,600 800,0 0,0 0,600 Z" />
    </clipPath>
    <clipPath
       id="clipPath3407-4"
       clipPathUnits="userSpaceOnUse">
      <path
         inkscape:connector-curvature="0"
         id="path3409-5"
         d="m 316,477.408 60.363,0 0,-60.408 -60.363,0 0,60.408 z" />
    </clipPath>
    <clipPath
       id="clipPath3427-7"
       clipPathUnits="userSpaceOnUse">
      <path
         inkscape:connector-curvature="0"
         id="path3429-5"
         d="m 622,477.971 60.121,0 0,-59.971 -60.121,0 0,59.971 z" />
    </clipPath>
  </defs>
  <metadata
     id="metadata7">
    <rdf:RDF>
      <cc:Work
         rdf:about="">
        <dc:format>image/svg+xml</dc:format>
        <dc:type
           rdf:resource="http://purl.org/dc/dcmitype/StillImage" />
        <dc:title />
      </cc:Work>
    </rdf:RDF>
  </metadata>
  <path
     id="path4134"
     d="m 9.000005,15.999996 5.5e-6,-4.499986 4.4999855,0 z"
     style="opacity:1;fill:#e8a33d;fill-opacity:1;stroke:#cd201f;stroke-width:0;stroke-linecap:round;stroke-linejoin:round;stroke-miterlimit:4;stroke-dasharray:none;stroke-dashoffset:0;stroke-opacity:1"
     inkscape:connector-curvature="0" />
  <path
     style="opacity:1;fill:#e8a33d;fill-opacity:1;stroke:#79a548;stroke-width:0;stroke-linecap:square;stroke-linejoin:miter;stroke-miterlimit:0;stroke-dasharray:none;stroke-dashoffset:0;stroke-opacity:1"
     d="m 4.166666e-6,5.4644642e-6 15.999989833334,0 0,11.9999895355358 -15.999989833334,0 z"
     id="rect4134"
     inkscape:connector-curvature="0" />
  <path
     id="path4141"
     d="m 1.0000042,1.2000052 13.9999898,0 0,9.5999908 -13.9999898,0 z"
     style="opacity:1;fill:#ffc857;fill-opacity:1;stroke:#79a548;stroke-width:0;stroke-linecap:square;stroke-linejoin:miter;stroke-miterlimit:0;stroke-dasharray:none;stroke-dashoffset:0;stroke-opacity:1"
     inkscape:connector-curvature="0" />
  <path
     style="opacity:1;fill:#ffc857;fill-opacity:1;stroke:#cd201f;stroke-width:0;stroke-linecap:round;stroke-linejoin:round;stroke-miterlimit:4;stroke-dasharray:none;stroke-dashoffset:0;stroke-opacity:1"
     d="m 10.000005,13.499996 5e-6,-2.999989 2.999994,0 z"
     id="path4143"
     inkscape:connector-curvature="0" />
  <g
     style="font-style:normal;font-weight:normal;font-size:13.75px;line-height:125%;font-family:sans-serif;letter-spacing:0px;word-spacing:0px;fill:#ffffff;fill-opacity:1;stroke:none;stroke-width:1px;stroke-linecap:butt;stroke-linejoin:miter;stroke-opacity:1"
     id="text4621"
     transform="matrix(0.78392345,0,0,0.78392345,-2.5317146,-9.0212448)" />
  <path
     sodipodi:nodetypes="sccccccccccscscccccsssccccc"
     inkscape:connector-curvature="0"
     id="path4157"
     style="font-style:normal;font-variant:normal;font-weight:bold;font-stretch:normal;font-size:10px;line-height:125%;font-family:Verdana;-inkscape-font-specification:'Verdana Bold';letter-spacing:0px;word-spacing:0px;fill:#000000;fill-opacity:1;stroke:none;stroke-width:1px;stroke-linecap:butt;stroke-linejoin:miter;stroke-opacity:1"
     d="m 9.4999995,4.2596762 c 0,0.2659645 -0.02988,0.5016458 -0.08964,0.707044 -0.05777,0.2027649 -0.140443,0.3791968 -0.248008,0.5292955 -0.10757,0.1500987 -0.237052,0.2843976 -0.388446,0.4028967 -0.149403,0.118499 -0.284662,0.2264647 -0.473905,0.3238972 l 0,0.9805797 -1.3,0 0,-1.411126 c 0.141433,-0.050033 0.483068,-0.1013823 0.596615,-0.1540488 0.115537,-0.052667 0.236054,-0.1382493 0.361553,-0.2567478 0.11753,-0.1053325 0.209163,-0.2277814 0.2749,-0.3673468 0.06773,-0.1395656 0.101593,-0.2975643 0.101593,-0.473996 0,-0.2633311 -0.06474,-0.4502963 -0.194222,-0.5608954 -0.127491,-0.1132323 -0.30777,-0.1698484 -0.540838,-0.1698484 -0.143425,0 -0.305775,0.040816 -0.48705,0.1224488 -0.179283,0.081633 -0.343626,0.1869651 -0.493028,0.3159974 l -0.119523,0 0,-1.2047398 c 0.12749,-0.071099 0.323705,-0.1448319 0.588646,-0.2211981 0.26494,-0.078999 0.533864,-0.1184991 0.806773,-0.1184991 0.492032,0 0.88247,0.1435155 1.171314,0.4305464 0.288845,0.2870309 0.433267,0.6622777 0.433266,1.1257405 z m -1.199999,4.9437131 -1.3,0 0,-1.25 1.3,0 z" />
</svg>
