<svg xmlns="http://www.w3.org/2000/svg" version="1.1" viewBox="0 0 16 16">
<g>
	<polygon fill="#FFFFFF" points="8,9.75 8,15 1,15 1,1 15,1 15,9.75 	"/>
	<path fill="#999999" d="M1,1v1v12v1h1h6v-1H2V2h12v7.75h1V1H2H1z"/>
	<rect x="3" y="3" fill="#666666" width="10" height="2"/>
	<rect x="3" y="6" fill="#FF8700" width="1" height="1"/>
	<rect x="3" y="8" fill="#FF8700" width="1" height="1"/>
	<rect x="3" y="10" fill="#FF8700" width="1" height="1"/>
	<rect x="3" y="12" fill="#FF8700" width="1" height="1"/>
	<rect x="5" y="6" fill="#B9B9B9" width="8" height="1"/>
	<rect x="5" y="8" fill="#B9B9B9" width="8" height="1"/>
	<rect x="5" y="10" fill="#B9B9B9" width="3" height="1"/>
	<rect x="5" y="12" fill="#B9B9B9" width="3" height="1"/>
</g>
<g>
	<path fill="#FFC857" d="M16,11.625V16H9v-3.938v-0.438V10.75h3.063l0.582,0.875H16z"/>
	<path fill="#E8A33D" d="M16,12.062h-3.356l-0.582,0.875H9v-0.875v-0.438h7V12.062z"/>
</g>
</svg>
