<?xml version="1.0" encoding="utf-8"?>
<!-- Generator: Adobe Illustrator 19.1.0, SVG Export Plug-In . SVG Version: 6.00 Build 0)  -->
<svg version="1.1" id="mimetypes-x-content-template-static"
	 xmlns="http://www.w3.org/2000/svg" xmlns:xlink="http://www.w3.org/1999/xlink" x="0px" y="0px" viewBox="0 0 16 16"
	 enable-background="new 0 0 16 16" xml:space="preserve">
<path fill="#FFFFFF" d="M1.5,1h13C14.78,1,15,1.22,15,1.5v13c0,0.28-0.22,0.5-0.5,0.5h-13C1.22,15,1,14.78,1,14.5v-13
	C1,1.22,1.22,1,1.5,1z"/>
<path fill="#8C8C8C" d="M14,2v12H2V2H14 M1,1.5v13C1,14.78,1.22,15,1.5,15h13c0.28,0,0.5-0.22,0.5-0.5v-13C15,1.22,14.78,1,14.5,1
	h-13C1.22,1,1,1.22,1,1.5z"/>
<path fill="#8C8C8C" d="M3,3h10v3H3V3z"/>
<path fill="#8C8C8C" d="M3,7h3v6H3V7z"/>
<path fill="#B9B9B9" d="M7,7h6v6H7V7z"/>
</svg>
