<svg xmlns="http://www.w3.org/2000/svg" version="1.1" viewBox="0 0 16 16">
<g>
	<path fill="#D14524" d="M2,0v16h12V4l-4-4H2z"/>
	<path opacity="0.65" fill="#FFFFFF" enable-background="new    " d="M10,4V2V0l4,4H10z"/>
	<path opacity="0.15" fill="#212121" enable-background="new    " d="M14,4v2.5V9l-4-5H14z"/>
</g>
<g>
	<path fill="#FFFFFF" d="M4,12h3v1H4V12z"/>
	<path fill="#FFFFFF" d="M4,6h8v1H4V6z"/>
	<path fill="#FFFFFF" d="M7,9.5C7,10.3,6.3,11,5.5,11S4,10.3,4,9.5S4.7,8,5.5,8S7,8.7,7,9.5z"/>
	<path fill="#FFFFFF" d="M10.5,8H8v5h1v-2h1.5c0.8,0,1.5-0.7,1.5-1.5S11.3,8,10.5,8z M10.5,10H9V9h1.5C10.8,9,11,9.2,11,9.5
		S10.8,10,10.5,10z"/>
</g>
</svg>
