<svg xmlns="http://www.w3.org/2000/svg" version="1.1" viewBox="0 0 16 16">
<g>
	<path fill="#FF0000" d="M2,0v16h12V4l-4-4H2z"/>
	<path opacity="0.65" fill="#FFFFFF" enable-background="new    " d="M10,4V2V0l4,4H10z"/>
	<path opacity="0.15" fill="#212121" enable-background="new    " d="M14,4v2.5V9l-4-5H14z"/>
</g>
<g>
	<path fill="#FFFFFF" d="M4.5,13c-0.2,0-0.4-0.3-0.4-0.6c-0.3-1.2,1.2-1.5,1.8-1.7c-0.4,0.7,0.5-1,0.6-1.1c0.2-0.5,0.5-1,0.7-1.5
		l0,0l0-0.1C7,7.1,6.7,5.8,6.9,5.4C7,5.3,7.3,5.1,7.6,5C7.8,5,8,5.1,8.1,5.3C8.3,6,8.2,7,7.9,7.6v0.1c0.2,0.6,0.6,1.2,1,1.6
		c0.2,0.1,0.4,0.3,0.6,0.4c0.5-0.1,0.9-0.1,1.3-0.1l0,0l0,0c0.3,0,0.5,0,0.7,0.1c0.2,0,0.3,0.1,0.4,0.2c0.1,0.1,0.1,0.2,0.2,0.3l0,0
		l0,0c-0.1,0.4-0.3,0.6-0.4,0.7l0,0c-0.3,0.1-0.6,0-1-0.1s-0.9-0.3-1.3-0.5c-0.9,0.1-2,0.4-2.8,0.7c-0.4,0.7-0.8,1.3-1.1,1.6
		C5.3,12.8,5.2,12.9,5,13C4.7,13,4.6,13,4.5,13L4.5,13z M4.6,12.4c0.1,0,0.3-0.1,0.5-0.4c0.1-0.1,0.4-0.6,0.5-0.7
		c-0.2,0.1-1.1,0.4-1.1,0.7C4.5,12.2,4.5,12.4,4.6,12.4z M11.6,10.5C11.6,10.5,11.6,10.4,11.6,10.5c-0.4-0.4-1.1-0.3-1.5-0.3
		C10.5,10.4,11.4,10.6,11.6,10.5z M6.8,10.4C7.4,10.1,8,10,8.6,9.9c0,0,0,0-0.1,0c-0.4-0.3-0.7-0.7-1-1.1C7.4,9.1,7,9.9,7,9.9
		C6.9,10.1,6.9,10.2,6.8,10.4z M7.6,7c0-0.1,0.1-0.2,0.1-0.4c0.1-0.3,0-0.9-0.1-1C7.5,5.7,7.4,6,7.4,6.1C7.4,6.3,7.5,6.7,7.6,7z"/>
</g>
</svg>
