<?xml version="1.0" encoding="utf-8"?>
<!-- Generator: Adobe Illustrator 19.1.0, SVG Export Plug-In . SVG Version: 6.00 Build 0)  -->
<svg version="1.1" id="Ebene_1" xmlns="http://www.w3.org/2000/svg" xmlns:xlink="http://www.w3.org/1999/xlink" x="0px" y="0px"
	 viewBox="0 0 16 16" enable-background="new 0 0 16 16" xml:space="preserve">
<path fill="#FFFFFF" d="M6.4,12.7l0.1-0.1l0.1,0c0.6-0.2,1.1-0.4,1.6-0.6c0.1-0.1,0.2-0.1,0.4-0.2l0,0c0-0.1,0-0.1,0-0.2l0,0l0,0
	l0-0.1c0,0,0-0.1,0-0.1c-0.5-0.7-0.9-1.5-0.9-2.2V7.8C7.9,6.3,9.2,5,10.8,5h0.5C12.9,5,14,6.2,14,7.8v1.4c0,0.7-0.2,1.5-0.7,2.1
	c0,0,0,0.1,0,0.1l0,0.1l0,0l0,0c0,0.1,0,0.2,0,0.2l0,0c0.1,0,0.2,0.1,0.3,0.1c0.4,0.2,0.8,0.4,1.3,0.5V1H1v14h4.1
	C5.4,13.4,6.2,12.8,6.4,12.7z"/>
<path fill="#B9B9B9" d="M5.4,14H2V2h12v10.1c0.3,0.1,0.6,0.3,1,0.4V1H1v14h4.1C5.2,14.6,5.3,14.3,5.4,14z"/>
<rect x="3" y="3" fill="#B9B9B9" width="8" height="1"/>
<path fill="#B9B9B9" d="M10.7,5H3v1h5.6C9.1,5.4,9.9,5,10.7,5z"/>
<path fill="#B9B9B9" d="M7.9,9.2V7.8C7.9,7.5,7.9,7.3,8,7H3v4h5.5C8.1,10.4,7.9,9.8,7.9,9.2z"/>
<path fill="#5599FF" d="M6.4,12.7l0.1-0.1l0.1,0c0.1,0,0.2-0.1,0.3-0.1V12H3v1h3.1C6.2,12.8,6.4,12.7,6.4,12.7z"/>
<g>
	<path fill="#79A548" d="M15.1,13.6c-1.1-0.3-1.8-0.7-2.5-1c0,0.1,0.1,0.2,0,0.3c-0.8,0.8-2.3,0.7-3,0c-0.1-0.1-0.1-0.2,0-0.3
		c-0.7,0.3-1.5,0.7-2.5,1c0,0-0.9,0.5-0.9,2.4h5h5C15.9,14,15.1,13.6,15.1,13.6z"/>
	<path opacity="0.15" enable-background="new    " d="M6.7,15.4c0.1-0.8,0.4-1.2,0.5-1.2c0.7-0.2,1.2-0.5,1.7-0.7
		c0.1,0,0.1-0.1,0.2-0.1c0.5,0.4,1.2,0.7,1.9,0.7c0.7,0,1.4-0.3,1.9-0.7c0.1,0,0.1,0,0.2,0.1c0.5,0.2,1.1,0.5,1.7,0.7
		c0.1,0.1,0.4,0.4,0.5,1.2l0.1,0.6H16c-0.1-2-0.9-2.4-0.9-2.4c-1.1-0.3-1.8-0.7-2.5-1c0,0.1,0.1,0.2,0,0.3c-0.4,0.4-0.9,0.6-1.5,0.6
		c-0.6,0-1.2-0.2-1.5-0.6c-0.1-0.1-0.1-0.2,0-0.3c-0.7,0.3-1.5,0.7-2.5,1c0,0-0.9,0.5-0.9,2.4h0.6L6.7,15.4z"/>
	<path fill="#FFC857" d="M11,11.6c-0.4,0-0.9-0.3-1.2-0.6l0,0l0,0c0,1.5-0.5,1.6-0.3,1.9c0.7,0.8,2.3,0.8,3,0
		c0.2-0.2-0.2-0.4-0.2-1.9C11.9,11.4,11.4,11.6,11,11.6z"/>
	<path opacity="0.15" enable-background="new    " d="M9.3,12.6c0.1,0,0.1-0.1,0.2-0.1c-0.1,0.1-0.1,0.2,0,0.3
		C9.6,13,9.7,13,9.8,13.1L10,13l0.1-0.3l0,0c0.1-0.2,0.2-0.6,0.3-1.3c-0.2-0.1-0.4-0.3-0.6-0.4l0,0c0,0.9-0.2,1.3-0.3,1.6
		C9.4,12.6,9.3,12.6,9.3,12.6z"/>
	<path opacity="0.15" enable-background="new    " d="M11.9,12.7L12,13l0.2,0.1c0.1-0.1,0.2-0.1,0.3-0.2c0.1-0.1,0.1-0.2,0-0.3
		c0,0,0,0,0,0c-0.1-0.2-0.2-0.6-0.3-1.6c-0.2,0.2-0.4,0.3-0.6,0.4C11.7,12.1,11.8,12.5,11.9,12.7L11.9,12.7z"/>
	<path fill="#FFC857" d="M11,11.6c-1.1,0-2.1-1.4-2.1-2.4V7.8c0-1,0.9-1.8,1.9-1.8h0.5c1.1,0,1.9,0.8,1.9,1.8v1.4
		C13.1,10.2,12.1,11.6,11,11.6L11,11.6z"/>
	<path opacity="0.15" enable-background="new    " d="M11.3,6.6c0.7,0,1.3,0.5,1.3,1.2v1.4c0,0.7-0.8,1.8-1.5,1.8S9.5,9.9,9.5,9.2
		V7.8c0-0.6,0.6-1.2,1.3-1.2H11.3 M11.3,6h-0.5c-1,0-1.9,0.8-1.9,1.8v1.4c0,1,1.1,2.4,2.1,2.4s2.1-1.4,2.1-2.4V7.8
		C13.1,6.8,12.3,6,11.3,6L11.3,6z"/>
</g>
</svg>
