<?xml version="1.0" encoding="utf-8"?>
<!-- Generator: Adobe Illustrator 19.1.1, SVG Export Plug-In . SVG Version: 6.00 Build 0)  -->
<svg version="1.1" xmlns="http://www.w3.org/2000/svg" xmlns:xlink="http://www.w3.org/1999/xlink" x="0px" y="0px"
	 viewBox="0 0 16 16" enable-background="new 0 0 16 16" xml:space="preserve">
<g>
	<path fill="#999999" d="M1,1v2.828v2.828l8.485,8.485l5.657-5.657L6.657,1H3.828H1z M3.475,3.475c0.683-0.683,1.792-0.683,2.475,0
		s0.683,1.792,0,2.475s-1.792,0.683-2.475,0S2.792,4.158,3.475,3.475z"/>
	<path fill="#FFFFFF" d="M1.99,1.99v2.121l0,2.121l7.495,7.495l4.243-4.243L6.233,1.99H4.111L1.99,1.99z M3.475,3.475
		c0.683-0.683,1.792-0.683,2.475,0s0.683,1.792,0,2.475s-1.792,0.683-2.475,0S2.792,4.158,3.475,3.475z"/>
	<path fill="#999999" d="M3.475,3.475c-0.683,0.683-0.683,1.792,0,2.475s1.792,0.683,2.475,0s0.683-1.792,0-2.475
		S4.159,2.791,3.475,3.475z M4.182,4.182c0.293-0.293,0.768-0.293,1.061,0s0.293,0.768,0,1.061s-0.768,0.293-1.061,0
		C3.889,4.949,3.889,4.475,4.182,4.182z"/>
	
		<rect x="7.382" y="6.632" transform="matrix(-0.7071 0.7071 -0.7071 -0.7071 22.0459 9.1317)" fill="#FF8700" width="3.5" height="5"/>
</g>
</svg>
