<?xml version="1.0" encoding="utf-8"?>
<!-- Generator: Adobe Illustrator 24.3.0, SVG Export Plug-In . SVG Version: 6.00 Build 0)  -->
<svg version="1.1" id="Ebene_1" xmlns="http://www.w3.org/2000/svg" xmlns:xlink="http://www.w3.org/1999/xlink" x="0px" y="0px"
	 viewBox="0 0 16 16" enable-background="new 0 0 16 16" xml:space="preserve">
<g>
	<path fill="#1E7145" d="M2,0v16h12V4l-4-4H2z"/>
	<path fill="#FFFFFF" opacity="0.65" enable-background="new    " d="M10,4V1.99V0l4,4H10z"/>
	<path fill="#212121" opacity="0.15" enable-background="new    " d="M14,4v2.512V9l-4-5H14z"/>
</g>
<g>
	<rect x="4" y="6" fill="#FFFFFF" width="2" height="1"/>
	<rect x="7" y="6" fill="#FFFFFF" width="2" height="1"/>
	<rect x="10" y="6" fill="#FFFFFF" width="2" height="1"/>
	<rect x="4" y="8" fill="#FFFFFF" width="2" height="1"/>
	<rect x="4" y="10" fill="#FFFFFF" width="2" height="1"/>
	<rect x="4" y="12" fill="#FFFFFF" width="2" height="1"/>
	<path fill="#FFFFFF" d="M12.6,13.2h-1.9l-1.1-1.5l-1.1,1.5H6.6l2-2.6L6.6,8h1.9l1.1,1.5L10.7,8h1.9l-2,2.5L12.6,13.2z"/>
</g>
</svg>
