<?xml version="1.0" encoding="utf-8"?>
<!-- Generator: Adobe Illustrator 19.2.0, SVG Export Plug-In . SVG Version: 6.00 Build 0)  -->
<svg version="1.1"
	 inkscape:version="0.91 r13725" sodipodi:docname="mimetypes-open-document-database.svg" xmlns:cc="http://creativecommons.org/ns#" xmlns:dc="http://purl.org/dc/elements/1.1/" xmlns:inkscape="http://www.inkscape.org/namespaces/inkscape" xmlns:rdf="http://www.w3.org/1999/02/22-rdf-syntax-ns#" xmlns:sodipodi="http://sodipodi.sourceforge.net/DTD/sodipodi-0.dtd" xmlns:svg="http://www.w3.org/2000/svg"
	 xmlns="http://www.w3.org/2000/svg" xmlns:xlink="http://www.w3.org/1999/xlink" x="0px" y="0px" viewBox="0 0 16 16"
	 enable-background="new 0 0 16 16" xml:space="preserve">
<path inkscape:connector-curvature="0" sodipodi:nodetypes="cccccccc" fill="#951A40" d="M2,0v16h12V4l-4-4H2z"/>
<path inkscape:connector-curvature="0" fill="#FFFFFF" d="M11.8,8H4.3C4.1,8,4,7.9,4,7.8V6.3C4,6.1,4.1,6,4.3,6h7.5
	C11.9,6,12,6.1,12,6.3v1.5C12,7.9,11.9,8,11.8,8z"/>
<path inkscape:connector-curvature="0" fill="#FFFFFF" d="M11.8,11H4.3C4.1,11,4,10.9,4,10.8V9.3C4,9.1,4.1,9,4.3,9h7.5
	C11.9,9,12,9.1,12,9.3v1.5C12,10.9,11.9,11,11.8,11z"/>
<path inkscape:connector-curvature="0" fill="#FFFFFF" d="M11.8,14H4.3C4.1,14,4,13.9,4,13.8v-1.5C4,12.1,4.1,12,4.3,12h7.5
	c0.1,0,0.3,0.1,0.3,0.3v1.5C12,13.9,11.9,14,11.8,14z"/>
<rect x="11" y="7" fill="#951A40" width="0.5" height="0.5"/>
<rect x="10" y="7" fill="#951A40" width="0.5" height="0.5"/>
<rect x="11" y="10" fill="#951A40" width="0.5" height="0.5"/>
<rect x="10" y="10" fill="#951A40" width="0.5" height="0.5"/>
<rect x="11" y="13" fill="#951A40" width="0.5" height="0.5"/>
<rect x="10" y="13" fill="#951A40" width="0.5" height="0.5"/>
<path inkscape:connector-curvature="0" opacity="0.15" enable-background="new    " d="M14,4v2.5V9l-4-5H14z"/>
<path opacity="0.65" fill="#FFFFFF" enable-background="new    " d="M10,4V0l4,4H10z"/>
</svg>
