<?xml version="1.0" encoding="utf-8"?>
<!-- Generator: Adobe Illustrator 19.1.0, SVG Export Plug-In . SVG Version: 6.00 Build 0)  -->
<svg version="1.1" id="mimetypes-x-content-text" xmlns="http://www.w3.org/2000/svg" xmlns:xlink="http://www.w3.org/1999/xlink"
	 x="0px" y="0px" viewBox="0 0 16 16" enable-background="new 0 0 16 16" xml:space="preserve">
<path fill="#FFFFFF" d="M1.5,1h13C14.78,1,15,1.22,15,1.5v13c0,0.28-0.22,0.5-0.5,0.5h-13C1.22,15,1,14.78,1,14.5v-13
	C1,1.22,1.22,1,1.5,1z"/>
<path fill="#8C8C8C" d="M14,2v12H2V2H14 M14.5,1h-13C1.22,1,1,1.22,1,1.5v13C1,14.78,1.22,15,1.5,15h13c0.28,0,0.5-0.22,0.5-0.5v-13
	C15,1.22,14.78,1,14.5,1L14.5,1z"/>
<rect x="3" y="3" fill="#8C8C8C" width="10" height="2"/>
<rect x="3" y="6" fill="#B9B9B9" width="10" height="1"/>
<rect x="3" y="8" fill="#B9B9B9" width="10" height="1"/>
<rect x="3" y="10" fill="#B9B9B9" width="10" height="1"/>
<rect x="3" y="12" fill="#B9B9B9" width="10" height="1"/>
</svg>
