<svg xmlns="http://www.w3.org/2000/svg" version="1.1" viewBox="0 0 16 16">
<g>
	<path fill="#5599FF" d="M15,6c0,3.3-2.7,6-6,6S3,9.3,3,6s2.7-6,6-6S15,2.7,15,6z"/>
	<path opacity="0.2" fill="#212121" d="M9,12c-3.3,0-6-2.7-6-6s2.7-6,6-6s6,2.7,6,6S12.3,12,9,12z M9,1C6.2,1,4,3.2,4,6s2.2,5,5,5
		s5-2.2,5-5S11.8,1,9,1z"/>
	<path fill="#AAD400" d="M11.6,1.8c-0.1,0.1-0.1,0.1-0.1,0.1C11.3,2,11,1.8,10.8,1.8c-0.5-0.2-1.1-0.2-1.5-0.1
		C9.1,1.8,8.6,1.8,8.8,2.2C9,2.5,9.3,2.7,9.6,2.4C9.8,2.2,9.9,2,10.1,2.2c0.1,0.1,0.1,0.1,0.1,0.2c-0.1,0.2-0.3,0.3-0.5,0.3
		c-0.3,0.1-0.5,0-0.8,0.1C8.6,2.9,8.2,2.9,8.2,3.3c0,0.4-0.1,0.5-0.5,0.6C7.5,3.9,7.4,4,7.5,4.3c0.1,0.2,0.3,0.2,0.4,0.1
		c0.5-0.3,1-1,1.6-0.1l0.1-0.1C9.8,3.7,9.9,4,10,4.2c0.1,0.1,0.2,0.2,0.2,0.2C11,3.7,10.8,4.8,11.1,5c-0.5-0.1-1.1,0.4-1.6,0.1
		c-0.8-0.6-1.3-0.4-2,0.3C6.9,5.8,6.7,6.5,6.9,7C7,7.7,7.8,7.8,8.4,7.7C8.6,7.6,9,7.6,9,7.7C8.8,8.4,9.6,8.8,9.3,9.5
		c-0.2,0.5,0.1,1.2,0.5,1.4c0.3,0,0.5-0.1,0.7-0.2c0.2-0.2,0.3-0.4,0.4-0.6c0.1-0.1,0-0.2,0.1-0.3c0.5-0.7,0.5-1.8,1.1-2.5
		c0.2-0.2,0.9-1,0.3-1.6c1.3-0.4,0.8,0.9,1.1,1.5C13.7,6.8,13.8,6.4,14,6c0,0,0,0,0-0.1c0-0.7-0.1-1.3-0.4-1.9c0,0,0,0,0-0.1
		c-0.1-0.1-0.1-0.2-0.2-0.4C12.9,2.9,12.3,2.2,11.6,1.8z"/>
	<path fill="#AAD400" d="M5.9,2.1C6,2.1,6,2.1,5.9,2.1l0.1,0h0.1c0,0,0,0,0.1,0c0,0,0,0,0.1,0c0,0,0,0,0.1,0h0.1c0,0,0,0,0.1,0h0.1
		c0,0,0,0,0.1,0c0,0,0.1,0,0.1-0.1c0,0,0,0,0.1-0.1c0,0,0.1,0,0.1-0.1c0,0,0,0,0.1-0.1L7,1.7c-0.2,0.1-0.2,0.1-0.1,0h0
		C6.9,1.6,7,1.5,7.1,1.4C6.7,1.5,6.3,1.8,5.9,2.1z"/>
	<path fill="#AAD400" d="M5.8,9.6c0-0.1,0.1-0.1,0.1-0.1c0.1-0.3,0.1-0.7,0.1-0.9v0c0-0.1,0-0.1,0-0.1s0,0,0-0.1c0,0,0,0,0-0.1
		L5.8,8.3c-0.1,0-0.1-0.1-0.1-0.1S5.6,8.2,5.5,8.2c0,0,0,0-0.1,0c0,0,0,0-0.1,0c0,0-0.1,0-0.1-0.1C4.8,7.8,4.6,7.4,4.5,6.8
		c0-0.1-0.1-0.3-0.1-0.4C4.3,6.4,4.3,6.3,4.3,6.2C4.1,6.1,4.2,5.8,4.3,5.6c0-0.1,0-0.1,0-0.1c0-0.1,0-0.1,0.1-0.1
		c0-0.1,0-0.1,0.1-0.1C4.6,4.9,4.9,4.7,5,4.5c0.1-0.1,0.1-0.1,0.1-0.1c0,0,0,0,0-0.1C5.2,4.2,5.2,4.1,5.2,4c0-0.1,0.1-0.2,0.1-0.3
		c0-0.1,0-0.2-0.1-0.3C5.2,3.3,5.1,3.1,5,3C4.4,3.8,4,4.9,4,6c0,0,0,0.1,0,0.1c0,0.2,0,0.4,0.1,0.6c0,0.2,0.1,0.5,0.2,0.7
		c0,0.1,0,0.1,0.1,0.2c0.1,0.2,0.2,0.5,0.3,0.7c0.1,0.1,0.1,0.2,0.2,0.3c0.1,0.1,0.1,0.2,0.2,0.3c0.2,0.3,0.5,0.6,0.8,0.9
		C5.8,9.7,5.8,9.7,5.8,9.6C5.8,9.7,5.8,9.7,5.8,9.6z"/>
</g>
<g>
	<path fill="#FFC857" d="M12.7,14.5
		c-0.1,0.2-0.3,0.4-0.5,0.6c-0.2,0.1-0.5,0.2-0.7,0.3L5.1,16c-0.9,0.1-1.7-0.1-2.4-0.5l-2-1.2c-0.3-0.2-0.5-0.4-0.6-0.8
		c-0.1-0.3,0-0.7,0.1-1l1.3-2.2c0.2-0.3,0.4-0.5,0.8-0.6c0.3-0.1,0.7,0,1,0.1l1,0.6l1.8-1.2l1.8-3.1c0.2-0.3,0.4-0.5,0.8-0.6
		c0.3-0.1,0.7,0,1,0.1l0.2,0.1c0.5,0.3,0.7,0.6,0.9,1.1c0.1,0.5,0.1,1-0.2,1.4l-1.4,2.4l0.6,0.7l2.3-3.9c0.2-0.4,0.5-0.6,1-0.8
		c0.4-0.1,0.8-0.1,1.2,0.1c0.4-0.1,0.9,0,1.2,0.2l0.2,0.1C15.7,7.5,15.9,7.7,16,8c0.1,0.3,0,0.7-0.1,1L12.7,14.5z"/>
	<path fill="#212121" opacity="0.2" d="M12.7,14.5c-0.1,0.2-0.3,0.4-0.5,0.6c-0.2,0.1-0.5,0.2-0.7,0.3L5.1,16
		c-0.9,0.1-1.7-0.1-2.4-0.5l-2-1.2c-0.3-0.2-0.5-0.4-0.6-0.8c-0.1-0.3,0-0.7,0.1-1l1.3-2.2c0.2-0.3,0.4-0.5,0.8-0.6s0.7,0,1,0.1
		l1,0.6l1.8-1.2l1.8-3.1c0.2-0.3,0.4-0.5,0.8-0.6c0.3-0.1,0.7,0,1,0.1l0.2,0.1c0.5,0.3,0.7,0.6,0.9,1.1c0.1,0.5,0.1,1-0.2,1.4
		l-1.4,2.4l0.6,0.7l2.3-3.9c0.2-0.4,0.5-0.6,1-0.8c0.4-0.1,0.8-0.1,1.2,0.1c0.4-0.1,0.9,0,1.2,0.2l0.2,0.1C15.7,7.5,15.9,7.7,16,8
		c0.1,0.3,0,0.7-0.1,1C15.8,9,12.7,14.5,12.7,14.5z M1.1,13.6l2,1.2c0.6,0.3,1.2,0.5,1.9,0.4l6.3-0.7c0.3,0,0.5-0.2,0.6-0.4l3.1-5.5
		c0.1-0.1,0.1-0.2,0-0.3c0-0.1-0.1-0.2-0.2-0.3c-0.1-0.1-0.2-0.1-0.3-0.2c-0.1,0-0.2-0.1-0.3-0.1c-0.1,0-0.2,0-0.3,0
		c0.1,0.1,0.2,0.2,0.2,0.4c0,0.1,0,0.3-0.1,0.4l-2.7,4.7l-0.2-0.1L14,8.4C14,8.3,14,8.2,14,8.1c0-0.1-0.1-0.2-0.2-0.3
		c-0.2-0.1-0.3-0.2-0.3-0.2c-0.2-0.1-0.4-0.1-0.6,0c-0.2,0.1-0.3,0.2-0.4,0.4l-2.1,3.6l-0.3,0.5c-0.1,0.2-0.2,0.2-0.4,0.3
		s-0.3,0-0.5-0.1c-0.1,0-0.1-0.1-0.2-0.1l-0.9-1C8.1,11.2,8.1,11.1,8,11c0-0.1,0-0.3,0.1-0.4l1.5-2.5c0.1-0.3,0.2-0.5,0.1-0.8
		S9.4,6.8,9.2,6.6L9,6.5c-0.1-0.1-0.2-0.1-0.3,0c-0.1,0-0.2,0.1-0.3,0.2L6.6,9.9c0,0.1-0.1,0.1-0.1,0.1l-1.9,1.3
		c-0.1,0.1-0.2,0.1-0.3,0.1c-0.1,0-0.2,0-0.3-0.1l-1.1-0.6c-0.1-0.1-0.2-0.1-0.3,0c-0.1,0-0.2,0.1-0.3,0.2L0.9,13
		c-0.1,0.1-0.1,0.2,0,0.3C0.9,13.4,1,13.5,1.1,13.6z"/>
</g>
</svg>
