<svg xmlns="http://www.w3.org/2000/svg" viewBox="0 0 16 16">
<g>
	<path fill="#2A569F" d="M2,0v16h12V4l-4-4H2z"/>
	<path opacity="0.65" fill="#FFF" d="M10,4V2V0l4,4H10z"/>
	<path opacity="0.15" fill="#212121" d="M14,4v2.5V9l-4-5H14z"/>
</g>
<g>
	<path fill="#FFF" d="M12,10l-0.9,3.5h-1l-0.6-2.4l-0.6,2.4h-1L7,10h1l0.5,2.4L9.1,10h0.8l0.6,2.4L11,10H12z"/>
	<rect x="4" y="6" fill="#FFF" width="8" height="1"/>
	<rect x="4" y="8" fill="#FFF" width="8" height="1"/>
	<rect x="4" y="10" fill="#FFF" width="2" height="1"/>
	<rect x="4" y="12" fill="#FFF" width="2" height="1"/>
</g>
</svg>