<svg xmlns="http://www.w3.org/2000/svg" viewBox="0 0 16 16">
<g>
	<path fill="#FFC857" d="M2,0v16h12V4l-4-4H2z"/>
	<path fill="#FFF" opacity="0.65" d="M10,4V1.99V0l4,4H10z"/>
	<path fill="#212121" opacity="0.15" d="M14,4v2.512V9l-4-5H14z"/>
</g>
<g>
	<rect x="4" fill="#E8A33D" width="1" height="16"/>
	<rect x="5" y="14" fill="#8C8C8C" width="1" height="1"/>
	<rect x="5" y="12" fill="#8C8C8C" width="1" height="1"/>
	<rect x="5" y="10" fill="#8C8C8C" width="1" height="1"/>
	<rect x="5" y="8" fill="#8C8C8C" width="1" height="1"/>
	<rect x="5" y="6" fill="#8C8C8C" width="1" height="1"/>
	<rect x="5" y="4" fill="#8C8C8C" width="1" height="1"/>
	<rect x="5" y="2" fill="#8C8C8C" width="1" height="1"/>
	<rect x="5" fill="#8C8C8C" width="1" height="1"/>
	<rect x="4" y="10" fill="#8C8C8C" width="2" height="5"/>
</g>
</svg>