<svg xmlns="http://www.w3.org/2000/svg" version="1.1" viewBox="0 0 16 16">
<g>
	<path fill="#1AB7EA" d="M2,0v16h12V4l-4-4H2z"/>
	<path fill="#FFFFFF" opacity="0.65" enable-background="new    " d="M10,4V1.99V0l4,4H10z"/>
	<path fill="#212121" opacity="0.15" enable-background="new    " d="M14,4v2.512V9l-4-5H14z"/>
</g>
<g>
	<path fill="#FFFFFF" d="M3.5,7.9C4.4,7.1,5.2,5.7,6.1,6
		c1.5,0.4,0.8,3.2,1.7,4.6c1.2-0.7,1.9-2,1.6-2.8c-0.1-0.2,0-0.7-0.9-0.3C8.2,7.7,8.2,7.2,8.2,7.2c0.9-1,1.4-1.4,2-1.4
		c0.5,0.1,1.4,0.7,1.2,2c-0.3,2-3.3,5.2-4.3,5.1C6,13.2,5.4,9.6,4.6,7.9L3.8,8.2C3.4,8.3,3.5,8.1,3.5,7.9L3.5,7.9z"/>
</g>
</svg>
