<?xml version="1.0" encoding="utf-8"?>
<!-- Generator: Adobe Illustrator 24.3.0, SVG Export Plug-In . SVG Version: 6.00 Build 0)  -->
<svg version="1.1" xmlns="http://www.w3.org/2000/svg" xmlns:xlink="http://www.w3.org/1999/xlink" x="0px" y="0px"
	 viewBox="0 0 16 16" enable-background="new 0 0 16 16">
<g>
	<path fill="#F17901" d="M2,0v16h12V4l-4-4H2z"/>
	<path opacity="0.65" fill="#FFFFFF" enable-background="new    " d="M10,4V2V0l4,4H10z"/>
	<path opacity="0.15" fill="#212121" enable-background="new    " d="M14,4v2.5V9l-4-5H14z"/>
</g>
<g>
	<path fill="#FFFFFF" d="M4,12h3v1H4V12z"/>
	<path fill="#FFFFFF" d="M4,6h8v1H4V6z"/>
	<path fill="#FFFFFF" d="M7,9.5C7,10.3,6.3,11,5.5,11l0,0C4.7,11,4,10.3,4,9.5S4.7,8,5.5,8
		S7,8.7,7,9.5z"/>
	<path fill="#FFFFFF" d="M8,8h4v1H8V8z"/>
	<path fill="#FFFFFF" d="M8,10h4v1H8V10z"/>
	<path fill="#FFFFFF" d="M8,12h4v1H8V12z"/>
</g>
</svg>
