<?xml version="1.0" encoding="utf-8"?>
<!-- Generator: Adobe Illustrator 19.1.1, SVG Export Plug-In . SVG Version: 6.00 Build 0)  -->
<svg version="1.1" xmlns="http://www.w3.org/2000/svg" xmlns:xlink="http://www.w3.org/1999/xlink" x="0px" y="0px"
	 viewBox="0 0 16 16" enable-background="new 0 0 16 16" xml:space="preserve">
<g>
	<path fill="#FFFFFF" d="M1,1v14h7V8h7V1H1z"/>
	<path fill="#999999" d="M1,1v1v12v1h1h6v-1H2V2h12v6h1V1H2H1z"/>
	<rect x="3" y="3" fill="#666666" width="10" height="2"/>
	<rect x="3" y="6" fill="#B9B9B9" width="10" height="1"/>
	<rect x="3" y="8" fill="#B9B9B9" width="5" height="1"/>
	<rect x="3" y="10" fill="#B9B9B9" width="5" height="1"/>
	<rect x="3" y="12" fill="#B9B9B9" width="5" height="1"/>
</g>
<g>
	<rect x="9" y="9" fill="#666666" width="7" height="7"/>
	<rect x="10" y="10" fill="#FFFFFF" width="5" height="5"/>
	<path d="M11,13.115c0,0.082,0.012,0.178,0.036,0.286c0.024,0.107,0.052,0.205,0.083,0.294c0.03,0.088,0.064,0.177,0.102,0.266
		c0.037,0.088,0.065,0.152,0.085,0.192s0.034,0.068,0.043,0.085c0.011,0.024,0.031,0.036,0.06,0.036
		c0.009,0,0.015-0.001,0.019-0.002c0.036-0.011,0.052-0.036,0.049-0.072c-0.061-0.568,0.014-0.969,0.226-1.204
		c0.091-0.101,0.212-0.179,0.364-0.234c0.151-0.057,0.34-0.094,0.569-0.113v0.535c0,0.06,0.028,0.102,0.083,0.126
		c0.018,0.007,0.036,0.011,0.053,0.011c0.038,0,0.07-0.013,0.096-0.04l1.091-1.091C13.987,12.161,14,12.129,14,12.092
		s-0.013-0.069-0.04-0.096l-1.091-1.091c-0.041-0.044-0.091-0.054-0.149-0.03c-0.055,0.024-0.083,0.066-0.083,0.126v0.558
		c-0.584,0.04-1.009,0.197-1.276,0.471C11.12,12.276,11,12.638,11,13.115L11,13.115z"/>
</g>
</svg>
