<?xml version="1.0" encoding="utf-8"?>
<!-- Generator: Adobe Illustrator 24.3.0, SVG Export Plug-In . SVG Version: 6.00 Build 0)  -->
<svg version="1.1" id="Ebene_1" xmlns="http://www.w3.org/2000/svg" xmlns:xlink="http://www.w3.org/1999/xlink" x="0px" y="0px"
	 viewBox="0 0 16 16" enable-background="new 0 0 16 16" xml:space="preserve">
<g>
	<path fill="#6B7EB9" d="M2,0v16h12V4l-4-4H2z"/>
	<path opacity="0.65" fill="#FFFFFF" enable-background="new    " d="M10,4V2V0l4,4H10z"/>
	<path opacity="0.15" fill="#212121" enable-background="new    " d="M14,4v2.5V9l-4-5H14z"/>
</g>
<g>
	<path fill="#FFFFFF" d="M12,8.1
		c0,0.3,0,0.5-0.1,0.7c-0.1,0.2-0.1,0.4-0.2,0.5c-0.1,0.2-0.2,0.3-0.4,0.4C11.1,9.8,11,9.9,10.8,10v1H9.5V9.6
		c0.1-0.1,0.5-0.1,0.6-0.2c0.1-0.1,0.2-0.1,0.4-0.3c0.1-0.1,0.2-0.2,0.3-0.4c0.1-0.1,0.1-0.3,0.1-0.5c0-0.3-0.1-0.5-0.2-0.6
		c-0.1-0.1-0.3-0.2-0.5-0.2c-0.1,0-0.3,0-0.5,0.1C9.4,7.8,9.3,7.9,9.1,8H9V6.8c0.1-0.1,0.3-0.1,0.6-0.2c0.3-0.1,0.5-0.1,0.8-0.1
		c0.5,0,0.9,0.1,1.2,0.4C11.9,7.2,12,7.6,12,8.1z M10.8,13H9.5v-1.2h1.3V13z"/>
	<path fill="#FFFFFF" d="M7.4,13L4,10.3V9.3l3.4-2.7V8L5,9.8l2.4,1.8V13z"/>
</g>
</svg>
