<?xml version="1.0" encoding="utf-8"?>
<!-- Generator: Adobe Illustrator 24.3.0, SVG Export Plug-In . SVG Version: 6.00 Build 0)  -->
<svg version="1.1" id="Ebene_1" xmlns="http://www.w3.org/2000/svg" xmlns:xlink="http://www.w3.org/1999/xlink" x="0px" y="0px"
	 viewBox="0 0 16 16" enable-background="new 0 0 16 16" xml:space="preserve">
<g>
	<path fill="#951A40" d="M2,0v16h12V4l-4-4H2z"/>
	<path fill="#FFFFFF" opacity="0.65" enable-background="new    " d="M10,4V1.99V0l4,4H10z"/>
	<path fill="#212121" opacity="0.15" enable-background="new    " d="M14,4v2.512V9l-4-5H14z"/>
</g>
<g>
	<path fill="#FFFFFF" d="M11.8,6H4.3C4.1,6,4,6.1,4,6.3v1.5C4,7.9,4.1,8,4.3,8h7.5C11.9,8,12,7.9,12,7.8V6.3C12,6.1,11.9,6,11.8,6z
		 M10.5,7.5H10V7h0.5V7.5z M11.5,7.5H11V7h0.5V7.5z"/>
	<path fill="#FFFFFF" d="M11.8,9H4.3C4.1,9,4,9.1,4,9.3v1.5C4,10.9,4.1,11,4.3,11h7.5c0.1,0,0.2-0.1,0.2-0.2V9.3
		C12,9.1,11.9,9,11.8,9z M10.5,10.5H10V10h0.5V10.5z M11.5,10.5H11V10h0.5V10.5z"/>
	<path fill="#FFFFFF" d="M11.8,12H4.3C4.1,12,4,12.1,4,12.3v1.5C4,13.9,4.1,14,4.3,14h7.5c0.1,0,0.2-0.1,0.2-0.2v-1.5
		C12,12.1,11.9,12,11.8,12z M10.5,13.5H10V13h0.5V13.5z M11.5,13.5H11V13h0.5V13.5z"/>
</g>
</svg>
