<?xml version="1.0" encoding="utf-8"?>
<!-- Generator: Adobe Illustrator 19.1.1, SVG Export Plug-In . SVG Version: 6.00 Build 0)  -->
<svg version="1.1" id="Ebene_1" xmlns="http://www.w3.org/2000/svg" xmlns:xlink="http://www.w3.org/1999/xlink" x="0px" y="0px"
	 viewBox="0 0 16 16" enable-background="new 0 0 16 16" xml:space="preserve">
<g>
	<path fill="#FFFFFF" d="M1,1v14h10.5C9.567,15,8,13.433,8,11.5S9.567,8,11.5,8S15,9.567,15,11.5V1H1z M15,11.5
		c-0.001,0.009-0.001,0.018-0.002,0.027H15V11.5z"/>
	<path fill="#B9B9B9" d="M3,7v4h5.039C8.287,9.279,9.761,8.002,11.5,8c0.519,0.001,1.032,0.118,1.5,0.342V7H3z"/>
	<rect x="3" y="12" fill="#5599FF" width="4" height="1"/>
	<path fill="#999999" d="M1,1v1v12v1h1h9.5c-0.916,0-1.795-0.359-2.449-1H2V2h12v7.055c0.64,0.653,0.999,1.531,1,2.445V1H2H1z
		 M15,11.5c-0.001,0.009-0.001,0.018-0.002,0.027H15V11.5z"/>
	<rect x="3" y="3" fill="#B9B9B8" width="8" height="1"/>
	<rect x="3" y="5" fill="#B9B9B9" width="8" height="1"/>
	<path fill="#E8A33D" d="M12.666,12.665L12.666,12.665c0.261-0.261,0.709-0.237,1,0.055l2.098,2.098
		c0.291,0.291,0.316,0.739,0.055,1.001l0,0c-0.261,0.261-0.709,0.237-1-0.055l-2.098-2.098
		C12.429,13.374,12.405,12.926,12.666,12.665z"/>
	<circle fill="#5599FF" cx="11.5" cy="11.5" r="2.5"/>
	<circle fill="#ABD7FF" cx="11.5" cy="11.5" r="1.5"/>
	<ellipse opacity="0.604" fill="#FFFFFF" enable-background="new    " cx="12" cy="11" rx="0.5" ry="0.5"/>
</g>
</svg>
