<?xml version="1.0" encoding="utf-8"?>
<!-- Generator: Adobe Illustrator 19.1.1, SVG Export Plug-In . SVG Version: 6.00 Build 0)  -->
<svg version="1.1" xmlns="http://www.w3.org/2000/svg" xmlns:xlink="http://www.w3.org/1999/xlink" x="0px" y="0px"
	 viewBox="0 0 16 16" enable-background="new 0 0 16 16">
<path fill="#E8A33D" d="M14.69,13.17l-2.758-2.758c-0.413,0.595-0.93,1.112-1.525,1.524l2.753,2.744c0.2,0.2,0.47,0.32,0.76,0.32
	c0.59,0,1.08-0.49,1.08-1.07C15,13.64,14.88,13.36,14.69,13.17z"/>
<circle fill="#ABD7FF" cx="7" cy="7" r="5"/>
<path fill="#5599FF" d="M7,2.5c2.481,0,4.5,2.019,4.5,4.5S9.481,11.5,7,11.5S2.5,9.481,2.5,7S4.519,2.5,7,2.5 M7,1
	C3.686,1,1,3.686,1,7s2.686,6,6,6s6-2.686,6-6S10.314,1,7,1L7,1z"/>
<circle opacity="0.6" fill="#FFFFFF" cx="8.5" cy="5.5" r="1.5"/>
</svg>
