<?xml version="1.0" encoding="utf-8"?>
<!-- Generator: Adobe Illustrator 19.1.1, SVG Export Plug-In . SVG Version: 6.00 Build 0)  -->
<svg version="1.1" xmlns="http://www.w3.org/2000/svg" xmlns:xlink="http://www.w3.org/1999/xlink" x="0px" y="0px"
	 viewBox="0 0 16 16" enable-background="new 0 0 16 16" xml:space="preserve">
<g>
	<path fill="#FFFFFF" d="M1,1v14h7V8h7V1H1z"/>
	<path fill="#5599FF" d="M1,1v14h7v-1H2V2h12v6h1V1H1z"/>
	<path fill="#5599FF" d="M3,3h10v3H3V3z"/>
	<path fill="#5599FF" d="M3,7h3v6H3V7z"/>
	<path fill="#ABD7FF" d="M7,7v6h1V8h5V7H7z"/>
</g>
<g>
	<rect x="9" y="9" fill="#FFFFFF" width="7" height="7"/>
	<path d="M14,12h-1v-1h-1v1h-1v1h1v1h1v-1h1"/>
	<path fill="#666666" d="M9,9v1v5v1h1h6v-1V9h-6H9z M10,10h5v5h-5V10z"/>
</g>
</svg>
