<svg xmlns="http://www.w3.org/2000/svg" viewBox="0 0 16 16">
<g>
	<path fill="#9EB238" d="M2,0v16h12V4l-4-4H2z"/>
	<path opacity="0.65" fill="#FFF" d="M10,4V2V0l4,4H10z"/>
	<path opacity="0.15" fill="#212121" d="M14,4v2.5V9l-4-5H14z"/>
</g>
<g>
	<rect x="4" y="6" fill="#FFF" width="2" height="1"/>
	<rect x="7" y="6" fill="#FFF" width="2" height="1"/>
	<rect x="10" y="6" fill="#FFF" width="2" height="1"/>
	<rect x="4" y="8" fill="#FFF" width="2" height="1"/>
	<rect x="7" y="8" fill="#FFF" width="2" height="1"/>
	<rect x="10" y="8" fill="#FFF" width="2" height="1"/>
	<rect x="4" y="10" fill="#FFF" width="2" height="1"/>
	<rect x="7" y="10" fill="#FFF" width="2" height="1"/>
	<rect x="10" y="10" fill="#FFF" width="2" height="1"/>
	<rect x="4" y="12" fill="#FFF" width="2" height="1"/>
	<rect x="7" y="12" fill="#FFF" width="2" height="1"/>
	<rect x="10" y="12" fill="#FFF" width="2" height="1"/>
</g>
</svg>