<?xml version="1.0" encoding="utf-8"?>
<!-- Generator: Adobe Illustrator 19.1.1, SVG Export Plug-In . SVG Version: 6.00 Build 0)  -->
<svg version="1.1" xmlns="http://www.w3.org/2000/svg" xmlns:xlink="http://www.w3.org/1999/xlink" x="0px" y="0px"
	 viewBox="2 -3 16 16" enable-background="new 2 -3 16 16" xml:space="preserve">
<path fill="#FFFFFF" d="M8.4,9.7l0.1-0.1h0.1C9.2,9.4,9.7,9.2,10.2,9c0.1-0.1,0.2-0.1,0.4-0.2l0,0c0-0.1,0-0.1,0-0.2l0,0l0,0V8.5
	V8.4c-0.5-0.7-0.9-1.5-0.9-2.2V4.8C9.9,3.3,11.2,2,12.8,2h0.5C14.9,2,16,3.2,16,4.8v1.4c0,0.7-0.2,1.5-0.7,2.1v0.1v0.1l0,0l0,0
	c0,0.1,0,0.2,0,0.2l0,0c0.1,0,0.2,0.1,0.3,0.1C16,9,16.4,9.2,16.9,9.3V-2H3v14h4.1C7.4,10.4,8.2,9.8,8.4,9.7z"/>
<path fill="#999999" d="M7.4,11H4V-1h12V9.1c0.3,0.1,0.6,0.3,1,0.4V-2H3v14h4.1C7.2,11.6,7.3,11.3,7.4,11z"/>
<rect x="5" fill="#B9B9B9" width="8" height="1"/>
<path fill="#B9B9B9" d="M12.7,2H5v1h5.6C11.1,2.4,11.9,2,12.7,2z"/>
<path fill="#B9B9B9" d="M9.9,6.2V4.8c0-0.3,0-0.5,0.1-0.8H5v4h5.5C10.1,7.4,9.9,6.8,9.9,6.2z"/>
<path fill="#5599FF" d="M8.4,9.7l0.1-0.1h0.1c0.1,0,0.2-0.1,0.3-0.1V9H5v1h3.1C8.2,9.8,8.4,9.7,8.4,9.7z"/>
<g>
	<path fill="#79A548" d="M17.1,10.6c-1.1-0.3-1.8-0.7-2.5-1c0,0.1,0.1,0.2,0,0.3c-0.8,0.8-2.3,0.7-3,0c-0.1-0.1-0.1-0.2,0-0.3
		c-0.7,0.3-1.5,0.7-2.5,1c0,0-0.9,0.5-0.9,2.4h5h5C17.9,11,17.1,10.6,17.1,10.6z"/>
	<path opacity="0.15" enable-background="new    " d="M8.7,12.4c0.1-0.8,0.4-1.2,0.5-1.2c0.7-0.2,1.2-0.5,1.7-0.7
		c0.1,0,0.1-0.1,0.2-0.1c0.5,0.4,1.2,0.7,1.9,0.7s1.4-0.3,1.9-0.7c0.1,0,0.1,0,0.2,0.1c0.5,0.2,1.1,0.5,1.7,0.7
		c0.1,0.1,0.4,0.4,0.5,1.2l0.1,0.6H18c-0.1-2-0.9-2.4-0.9-2.4c-1.1-0.3-1.8-0.7-2.5-1c0,0.1,0.1,0.2,0,0.3c-0.4,0.4-0.9,0.6-1.5,0.6
		s-1.2-0.2-1.5-0.6c-0.1-0.1-0.1-0.2,0-0.3c-0.7,0.3-1.5,0.7-2.5,1c0,0-0.9,0.5-0.9,2.4h0.6L8.7,12.4z"/>
	<path fill="#FFC857" d="M13,8.6c-0.4,0-0.9-0.3-1.2-0.6l0,0l0,0c0,1.5-0.5,1.6-0.3,1.9c0.7,0.8,2.3,0.8,3,0
		c0.2-0.2-0.2-0.4-0.2-1.9C13.9,8.4,13.4,8.6,13,8.6z"/>
	<path opacity="0.15" enable-background="new    " d="M11.3,9.6c0.1,0,0.1-0.1,0.2-0.1c-0.1,0.1-0.1,0.2,0,0.3
		c0.1,0.2,0.2,0.2,0.3,0.3L12,10l0.1-0.3l0,0c0.1-0.2,0.2-0.6,0.3-1.3C12.2,8.3,12,8.1,11.8,8l0,0c0,0.9-0.2,1.3-0.3,1.6
		C11.4,9.6,11.3,9.6,11.3,9.6z"/>
	<path opacity="0.15" enable-background="new    " d="M13.9,9.7L14,10l0.2,0.1c0.1-0.1,0.2-0.1,0.3-0.2c0.1-0.1,0.1-0.2,0-0.3l0,0
		C14.4,9.4,14.3,9,14.2,8c-0.2,0.2-0.4,0.3-0.6,0.4C13.7,9.1,13.8,9.5,13.9,9.7L13.9,9.7z"/>
	<path fill="#FFC857" d="M13,8.6c-1.1,0-2.1-1.4-2.1-2.4V4.8c0-1,0.9-1.8,1.9-1.8h0.5c1.1,0,1.9,0.8,1.9,1.8v1.4
		C15.1,7.2,14.1,8.6,13,8.6L13,8.6z"/>
	<path opacity="0.15" enable-background="new    " d="M13.3,3.6c0.7,0,1.3,0.5,1.3,1.2v1.4c0,0.7-0.8,1.8-1.5,1.8s-1.6-1.1-1.6-1.8
		V4.8c0-0.6,0.6-1.2,1.3-1.2L13.3,3.6 M13.3,3h-0.5c-1,0-1.9,0.8-1.9,1.8v1.4c0,1,1.1,2.4,2.1,2.4s2.1-1.4,2.1-2.4V4.8
		C15.1,3.8,14.3,3,13.3,3L13.3,3z"/>
</g>
</svg>
