<?xml version="1.0" encoding="utf-8"?>
<!-- Generator: Adobe Illustrator 19.1.0, SVG Export Plug-In . SVG Version: 6.00 Build 0)  -->
<svg version="1.1" id="mimetypes-x-content-template-static"
	 xmlns="http://www.w3.org/2000/svg" xmlns:xlink="http://www.w3.org/1999/xlink" x="0px" y="0px" viewBox="0 0 16 16"
	 enable-background="new 0 0 16 16" xml:space="preserve">
<path fill="#FFFFFF" d="M1.5,1h13C14.78,1,15,1.22,15,1.5v13c0,0.28-0.22,0.5-0.5,0.5h-13C1.22,15,1,14.78,1,14.5v-13
	C1,1.22,1.22,1,1.5,1z"/>
<path fill="#5599FF" d="M14,2v12H2V2H14 M14.5,1h-13C1.22,1,1,1.22,1,1.5v13C1,14.78,1.22,15,1.5,15h13c0.28,0,0.5-0.22,0.5-0.5v-13
	C15,1.22,14.78,1,14.5,1z"/>
<path fill="#5599FF" d="M3,3h10v3H3V3z"/>
<path fill="#5599FF" d="M3,7h3v6H3V7z"/>
<path fill="#ABD7FF" d="M7,7h6v6H7V7z"/>
<path fill="#FFFFFF" d="M6.5,16h-6C0.22,16,0,15.78,0,15.5v-6C0,9.22,0.22,9,0.5,9h6C6.78,9,7,9.22,7,9.5v6C7,15.78,6.78,16,6.5,16z
	"/>
<path fill="#8C8C8C" d="M6,10v5H1v-5H6 M6.5,9h-6C0.22,9,0,9.22,0,9.5v6C0,15.78,0.22,16,0.5,16h6C6.78,16,7,15.78,7,15.5v-6
	C7,9.22,6.78,9,6.5,9z"/>
<polygon points="5,12 4,12 4,11 3,11 3,12 2,12 2,13 3,13 3,14 4,14 4,13 5,13 "/>
</svg>
