<?xml version="1.0" encoding="utf-8"?>
<!-- Generator: Adobe Illustrator 24.3.0, SVG Export Plug-In . SVG Version: 6.00 Build 0)  -->
<svg version="1.1" id="Ebene_1" xmlns="http://www.w3.org/2000/svg" xmlns:xlink="http://www.w3.org/1999/xlink" x="0px" y="0px"
	 viewBox="0 0 16 16" enable-background="new 0 0 16 16" xml:space="preserve">
<g>
	<path fill="#CD201F" d="M2,0v16h12V4l-4-4H2z"/>
	<path opacity="0.65" fill="#FFFFFF" enable-background="new    " d="M10,4V2V0l4,4H10z"/>
	<path opacity="0.15" fill="#212121" enable-background="new    " d="M14,4v2.5V9l-4-5H14z"/>
</g>
<g>
	<path fill="#FFFFFF" d="M7.1,11V8.5l2.4,1.3L7.1,11z M12.4,8c0,0-0.1-0.6-0.4-0.9c-0.3-0.4-0.7-0.4-0.9-0.4C9.9,6.7,8,6.7,8,6.7h0
		c0,0-1.9,0-3.2,0.1c-0.2,0-0.6,0-0.9,0.4C3.7,7.4,3.6,8,3.6,8S3.5,8.8,3.5,9.5v0.7c0,0.7,0.1,1.5,0.1,1.5s0.1,0.6,0.4,0.9
		c0.3,0.4,0.8,0.3,1,0.4C5.7,13,8,13,8,13s1.9,0,3.2-0.1c0.2,0,0.6,0,0.9-0.4c0.3-0.3,0.4-0.9,0.4-0.9s0.1-0.7,0.1-1.5V9.5
		C12.5,8.8,12.4,8,12.4,8"/>
</g>
</svg>
