<svg xmlns="http://www.w3.org/2000/svg" width="16" height="16" viewBox="0 0 16 16"><path d="M8 10c-2.28 0-3.667 1.254-6.484 2.053 0 0-1.41.783-1.516 3.947h16c-.105-3.164-1.516-3.947-1.516-3.947C11.667 11.253 10.28 10 8 10z" fill="#59f" stroke-miterlimit="0"/><path d="M8 9C6.348 9 4.6 6.71 4.6 5.102v-2.18C4.6 1.317 5.952 0 7.604 0h.792C10.048 0 11.4 1.316 11.4 2.923v2.18C11.4 6.71 9.652 9 8 9" fill="#ffc857"/><path d="M5.996 7.33c-.025-.923 4.012-.924 4 0-.04 3.063.8 3.276.4 3.713-1.157 1.257-3.74 1.198-4.8 0-.39-.44.483-.66.4-3.712z" fill="#ffc857" stroke-miterlimit="0"/></svg>