<svg xmlns="http://www.w3.org/2000/svg" width="16" height="16" viewBox="0 0 16 16"><path d="M11 7.25c-1.424 0-2.292.784-4.053 1.283 0 0-.882.49-.947 2.467h10c-.065-1.978-.947-2.467-.947-2.467-1.76-.5-2.63-1.282-4.053-1.283z" fill="#79a548" stroke-miterlimit="0"/><path d="M11 6.625c-1.032 0-2.125-1.43-2.125-2.436V2.826C8.875 1.822 9.72 1 10.752 1h.496c1.032 0 1.877.822 1.877 1.827V4.19c0 1.004-1.093 2.435-2.125 2.435" fill="#e8a33d"/><path d="M11 7.25c-1.424 0-2.292.784-4.053 1.283 0 0-.882.49-.947 2.467h10c-.065-1.978-.947-2.467-.947-2.467-1.76-.5-2.63-1.282-4.053-1.283z" opacity=".3" stroke-miterlimit="0"/><path d="M9.747 5.582c-.015-.578 2.508-.578 2.5 0-.024 1.914.5 2.047.25 2.32-.722.786-2.337.748-3 0-.243-.275.303-.412.25-2.32z" fill="#e8a33d" stroke-miterlimit="0"/><g><path d="M5 11.25c-1.424 0-2.292.784-4.053 1.283 0 0-.882.49-.947 2.467h10c-.065-1.978-.947-2.467-.947-2.467-1.76-.5-2.63-1.282-4.053-1.283z" fill="#59f" stroke-miterlimit="0"/><path d="M5 10.625c-1.032 0-2.125-1.43-2.125-2.436V6.826C2.875 5.822 3.72 5 4.752 5h.496c1.032 0 1.877.822 1.877 1.827V8.19c0 1.004-1.093 2.435-2.125 2.435" fill="#ffc857"/><path d="M3.747 9.582c-.015-.578 2.508-.578 2.5 0-.024 1.914.5 2.047.25 2.32-.722.786-2.337.748-3 0-.243-.275.303-.412.25-2.32z" fill="#ffc857" stroke-miterlimit="0"/></g></svg>