<svg xmlns="http://www.w3.org/2000/svg" width="16" height="16" viewBox="0 0 16 16"><defs><mask maskUnits="userSpaceOnUse" id="a"><path fill="#fff" stroke-miterlimit="0" d="M-1.938-2.166h18.952v12.634H-1.938z"/></mask></defs><path d="M8 9c-2.28 0-3.667 1.464-6.484 2.396 0 0-1.41.912-1.516 4.604h8zM8 9c2.28 0 3.667 1.464 6.484 2.396 0 0 1.41.912 1.516 4.604H8z" fill="#ff8700" stroke-miterlimit="0"/><path d="M8 9C6.348 9 4.6 6.71 4.6 5.102v-2.18C4.6 1.317 5.952 0 7.604 0h.792C10.048 0 11.4 1.316 11.4 2.923v2.18C11.4 6.71 9.652 9 8 9" fill="#ffc857"/><path d="M6 6.65c-.026-.867 4.004-.867 3.992 0-.04 2.875.8 3.076.4 3.486-1.155 1.18-3.733 1.124-4.792 0-.388-.413.483-.62.4-3.485z" fill="#ffc857" stroke-miterlimit="0"/><g transform="matrix(.3166 0 0 .3166 5.614 12.686)" mask="url(#a)" fill="#fff"><path d="M12.053 11.026c-.238.07-.427.095-.674.095-2.033 0-5.017-7.1-5.017-9.462 0-.87.207-1.16.497-1.41C4.373.54 1.39 1.452.435 2.613c-.207.29-.332.746-.332 1.326C.103 7.628 4.04 16 6.82 16c1.283 0 3.45-2.114 5.233-4.974M10.756 0c2.57 0 5.14.415 5.14 1.865 0 2.943-1.865 6.508-2.818 6.508-1.7 0-3.814-4.725-3.814-7.088C9.264.207 9.68 0 10.756 0"/></g></svg>