<?xml version="1.0" encoding="utf-8"?>
<!-- Generator: Adobe Illustrator 23.0.6, SVG Export Plug-In . SVG Version: 6.00 Build 0)  -->
<svg version="1.1" xmlns="http://www.w3.org/2000/svg" xmlns:xlink="http://www.w3.org/1999/xlink" x="0px" y="0px"
	 viewBox="0 0 64 64" enable-background="new 0 0 64 64">
<g fill="currentColor">
	<path d="M43.4,22.4l-3.8-3.8c-0.4-0.4-0.8-0.6-1.4-0.6H21c-0.6,0-1,0.4-1,1v26c0,0.6,0.4,1,1,1h22c0.6,0,1-0.4,1-1V26v-2v-0.2
		C44,23.2,43.8,22.8,43.4,22.4z M42,44H22V20h14v5c0,0.6,0.4,1,1,1h5V44z M38,24v-4l4,4H38z"/>
</g>
</svg>
