<svg xmlns="http://www.w3.org/2000/svg" version="1.1" viewBox="0 0 64 64">
<g fill="currentColor">
	<path d="M46,18c-3.5-3.5-18,8-18,8h-8l-4,4l4,4l2,2l-4,4l6,6l4-4l2,2l4,4l4-4v-8C38,36,49.5,21.5,46,18z M21.4,32.6L18.8,30l2-2H26
		L21.4,32.6z M36,43.2l-2,2l-2.6-2.6L36,38V43.2z M36.5,34.7L30,41.2l-0.6-0.6L28,39.2l-1.4,1.4L24,43.2L20.8,40l2.6-2.6l1.4-1.4
		l-1.4-1.4L22.8,34l6.5-6.5c4-3.2,11.5-8.2,14.8-8.2c0.3,0,0.5,0.1,0.5,0.1C45.5,20.6,42.1,27.5,36.5,34.7z"/>
	<path d="M38,25c0.6,0,1,0.4,1,1s-0.4,1-1,1s-1-0.4-1-1S37.4,25,38,25 M38,24c-1.1,0-2,0.9-2,2s0.9,2,2,2s2-0.9,2-2S39.1,24,38,24
		L38,24z"/>
	<polygon points="18,46 16,46 16,48 18,48 18,46 		"/>
	<polygon points="20,44 18,44 18,46 20,46 20,44 		"/>
	<polygon points="18,42 16,42 16,44 18,44 18,42 		"/>
	<polygon points="22,46 20,46 20,48 22,48 22,46 		"/>
</g>
</svg>
