<?xml version="1.0" encoding="utf-8"?>
<!-- Generator: Adobe Illustrator 23.0.6, SVG Export Plug-In . SVG Version: 6.00 Build 0)  -->
<svg version="1.1" xmlns="http://www.w3.org/2000/svg" xmlns:xlink="http://www.w3.org/1999/xlink" x="0px" y="0px"
	 viewBox="0 0 64 64" enable-background="new 0 0 64 64">
<g fill="currentColor">
	<path d="M46.629,35.2l-1.943-1.143c0.114-0.686,0.229-1.371,0.229-2.057c0-0.686-0.114-1.371-0.229-2.057l1.943-1.143
		c1.143-0.686,1.486-2.057,0.8-3.086l-2.286-4c-0.686-1.143-2.057-1.486-3.086-0.8l-1.943,1.143c-1.029-0.914-2.286-1.6-3.543-2.057
		v-1.714c0-1.257-1.029-2.286-2.286-2.286h-4.571c-1.257,0-2.286,1.029-2.286,2.286V20c-1.257,0.457-2.514,1.143-3.543,2.057
		l-1.943-1.143c-1.143-0.686-2.514-0.229-3.086,0.8l-2.286,4c-0.686,1.143-0.229,2.514,0.8,3.086l1.943,1.143
		C19.2,30.629,19.086,31.314,19.086,32c0,0.686,0.114,1.371,0.229,2.057L17.371,35.2c-1.143,0.686-1.486,2.057-0.8,3.086l2.286,4
		c0.686,1.143,2.057,1.486,3.086,0.8l1.943-1.143c1.029,0.914,2.286,1.6,3.543,2.057v1.714c0,1.257,1.029,2.286,2.286,2.286h4.571
		c1.257,0,2.286-1.029,2.286-2.286V44c1.257-0.457,2.514-1.143,3.543-2.057l1.943,1.143c1.143,0.686,2.514,0.229,3.086-0.8l2.286-4
		C48.114,37.257,47.771,35.771,46.629,35.2z M43.2,41.143l-3.429-2.057c-1.486,1.6-3.314,2.743-5.486,3.2v3.429h-4.571v-3.429
		c-2.171-0.457-4-1.6-5.486-3.2L20.8,41.143l-2.286-4l3.429-2.057c-0.343-1.029-0.571-2.057-0.571-3.2s0.229-2.171,0.571-3.2
		l-3.429-2.057l2.286-4l3.429,2.057c1.486-1.6,3.314-2.743,5.486-3.2v-3.429h4.571v3.429c2.171,0.457,4,1.6,5.486,3.2l3.429-2.057
		l2.286,4l-3.429,2.057c0.343,1.029,0.571,2.057,0.571,3.2s-0.229,2.171-0.571,3.2l3.429,2.057L43.2,41.143z"/>
	<path d="M32,27.2c2.629,0,4.914,2.171,4.914,4.914S34.743,37.029,32,37.029s-4.914-2.171-4.914-4.914S29.371,27.2,32,27.2
		 M32,24.914c-4,0-7.2,3.2-7.2,7.2s3.2,7.2,7.2,7.2s7.2-3.2,7.2-7.2S36,24.914,32,24.914L32,24.914z"/>
</g>
</svg>
