<svg xmlns="http://www.w3.org/2000/svg" version="1.1" viewBox="0 0 64 64">
<g fill="currentColor">
	<path d="M33.49,38h-3c-0.276,0-0.5,0.224-0.5,0.5v3c0,0.276,0.224,0.5,0.5,0.5h3c0.276,0,0.5-0.224,0.5-0.5v-3
		C33.99,38.224,33.766,38,33.49,38z"/>
	<path d="M37.892,26.902c-0.426-2.402-2.394-4.374-4.798-4.802c-3.614-0.644-6.78,1.95-7.082,5.366
		C25.988,27.752,26.234,28,26.522,28h3.022c0.254,0,0.438-0.196,0.494-0.444C30.242,26.666,31.04,26,31.99,26c1.102,0,2,0.898,2,2
		c0,0.714-0.398,1.314-0.964,1.666c-1.812,1.028-3.036,2.966-3.036,5.2V35.5c0,0.276,0.224,0.5,0.5,0.5h3c0.276,0,0.5-0.224,0.5-0.5
		v-0.634c0-0.718,0.402-1.318,0.972-1.67C37.06,32,38.368,29.584,37.892,26.902z"/>
	<path d="M32,19c7.168,0,13,5.832,13,13s-5.832,13-13,13s-13-5.832-13-13S24.832,19,32,19 M32,16c-8.837,0-16,7.163-16,16
		s7.163,16,16,16s16-7.163,16-16S40.837,16,32,16L32,16z"/>
</g>
</svg>
