<svg xmlns="http://www.w3.org/2000/svg" viewBox="0 0 64 64">
<g fill="currentColor">
	<path d="M43.374,39.172c-2.952-0.842-5.014-1.996-7.066-2.788c-0.198-0.644-0.666-1.786-0.78-4.41
		c1.412-1.424,2.424-3.432,2.424-5.05v-3.852c0-2.8-2.276-5.074-5.252-5.074h-1.4c-2.8,0-5.252,2.274-5.252,5.074v3.852
		c0,1.632,1.024,3.662,2.456,5.088l0,0c-0.048,2.576-0.532,3.712-0.762,4.356c-2.07,0.788-4.142,1.958-7.116,2.806
		c0,0-2.452,1.4-2.626,6.826h14h14C45.826,40.398,43.374,39.172,43.374,39.172z"/>
</g>
</svg>