<?xml version="1.0" encoding="utf-8"?>
<!-- Generator: Adobe Illustrator 23.0.6, SVG Export Plug-In . SVG Version: 6.00 Build 0)  -->
<svg version="1.1" xmlns="http://www.w3.org/2000/svg" xmlns:xlink="http://www.w3.org/1999/xlink" x="0px" y="0px"
	 viewBox="0 0 64 64" enable-background="new 0 0 64 64" xml:space="preserve">
<g fill="currentColor">
	<path enable-background="new    " d="M32,16c-8.822,0-16,7.178-16,16s7.178,16,16,16s16-7.178,16-16S40.822,16,32,16z M32,46
		c-3.501,0-6.698-1.301-9.155-3.433c0.027,0.008,0.103,0.023,0.103-0.129V42.25c0-0.184,0.19-0.184,0.19-0.368
		c0.192-0.74,0.192-1.844,0.192-2.58l0.002-0.002v-0.184v-0.184v-0.184l-0.192-0.184c-0.19,0-0.19-0.186-0.38-0.186
		c-0.19,0-0.38-0.186-0.572-0.186h-0.19h-0.192c0,0-0.19,0-0.19-0.184c-1.336-0.74-1.906-2.03-2.288-3.504
		c0-0.37-0.19-0.74-0.19-1.108c-0.188-0.186-0.188-0.37-0.38-0.556c-0.38-0.368-0.188-1.106,0.192-1.844v-0.368
		c0-0.186,0-0.186,0.19-0.37c0-0.18,0-0.18,0.192-0.366c0.38-0.74,1.144-1.292,1.524-1.846c0.19-0.184,0.19-0.184,0.19-0.368v-0.184
		c0.19-0.184,0.19-0.554,0.38-0.74c0-0.18,0.192-0.552,0.192-0.736c0-0.37,0-0.554-0.192-0.92c-0.19-0.55-0.309-1.024-0.679-1.392
		c0.719-0.973,1.554-1.854,2.496-2.612l0.331,0.349h1.746c0,0,0.194,0,0.194-0.2l0.194-0.206c0,0,0.194,0,0.194-0.204l0.192-0.204
		l0.194-0.206c-0.58,0.41-0.58,0.206-0.388,0l-0.004-0.002c0.573-0.604,0.609-0.715,1.171-1.505C28.604,18.333,30.262,18,32,18
		c2.488,0,4.821,0.66,6.848,1.802c-0.177,0.181-0.226,0.077-0.226,0.267c-0.554,0.194-1.292-0.194-1.846-0.388
		c-1.476-0.58-2.952-0.58-4.244-0.194c-0.554,0.194-1.844,0.388-1.292,1.552c0.368,0.584,1.29,1.166,2.214,0.39
		c0.368-0.388,0.74-0.97,1.29-0.388c0.186,0.196,0.186,0.39,0.186,0.584c-0.186,0.58-0.74,0.776-1.292,0.776
		c-0.74,0.194-1.48,0-2.216,0.194c-0.74,0.194-1.846,0.388-1.846,1.36c0,1.16-0.37,1.356-1.294,1.55c-0.74,0-1.106,0.388-0.74,1.164
		c0.186,0.58,0.74,0.58,1.11,0.388c1.476-0.776,2.768-2.716,4.428-0.388l0.368-0.194c0.37-1.552,0.74-0.58,1.108,0l0.554,0.58
		c2.214-2.132,1.66,0.972,2.4,1.552c-1.48-0.388-3.14,1.164-4.43,0.194c-2.214-1.744-3.69-0.968-5.72,0.776
		c-1.66,1.36-2.03,3.104-1.66,4.656c0.552,1.94,2.58,2.134,4.244,1.746c0.552-0.196,1.66-0.196,1.66,0.192
		c-0.37,1.746,1.66,2.91,0.92,4.848c-0.552,1.552,0.372,3.492,1.66,4.074c1.294,0.58,2.4-0.97,2.956-2.328
		c0.184-0.194,0-0.58,0.184-0.776c1.476-1.94,1.292-4.848,3.136-6.788c0.554-0.58,2.4-2.714,0.92-4.46
		c3.508-0.97,2.22,2.52,2.956,4.074c0.552-1.164,0.92-2.328,1.29-3.3c0.168-0.53,0.291-0.717,0.312-0.747
		C45.973,31.175,46,31.584,46,32C46,39.718,39.718,46,32,46z M23.272,39.243C23.25,39.221,23.245,39.217,23.272,39.243
		L23.272,39.243z"/>
</g>
</svg>
