<svg xmlns="http://www.w3.org/2000/svg" viewBox="0 0 16 16"><g class="icon-color"><path d="M9.551 15.002c-.506 0-1.025-.321-1.551-.96-.636.771-1.261 1.083-1.866.918-.605-.162-.993-.743-1.157-1.731-.936.352-1.631.306-2.073-.133-.44-.44-.484-1.136-.133-2.073-.988-.164-1.569-.552-1.731-1.157-.162-.605.147-1.23.918-1.866-.771-.636-1.08-1.261-.918-1.865.162-.605.743-.993 1.732-1.157-.352-.938-.308-1.633.132-2.074.441-.44 1.136-.483 2.073-.133.165-.988.552-1.569 1.157-1.731.604-.162 1.229.147 1.866.918.635-.772 1.264-1.078 1.864-.918.605.162.993.743 1.157 1.732.938-.352 1.634-.307 2.073.132.44.44.484 1.136.133 2.074.988.164 1.569.551 1.732 1.156.163.604-.146 1.229-.917 1.866.772.636 1.08 1.262.917 1.867-.162.604-.743.992-1.731 1.156.352.938.308 1.633-.132 2.073-.442.438-1.137.484-2.074.133-.164.988-.552 1.569-1.156 1.731-.105.028-.21.042-.315.042zm-3.443-3.73l.033 1.002c.035 1.052.258 1.435.334 1.485.055-.016.438-.235.994-1.127L8 11.783l.53.85c.556.892.94 1.111 1.03 1.117.04-.041.263-.423.298-1.477l.034-1.001.885.471c.926.493 1.366.496 1.452.455.008-.052.007-.495-.486-1.422l-.471-.886 1.002-.033c1.053-.034 1.435-.258 1.485-.333-.016-.056-.235-.439-1.125-.994L11.783 8l.85-.531c.892-.556 1.111-.94 1.117-1.03-.041-.039-.423-.263-1.477-.298l-1.002-.033.471-.885c.494-.927.495-1.37.456-1.452-.046-.006-.49-.011-1.422.485l-.884.473-.035-1.002C9.822 2.673 9.6 2.291 9.524 2.24c-.054.016-.438.235-.994 1.127l-.53.85-.53-.851c-.556-.892-.94-1.11-1.03-1.117-.04.041-.263.424-.298 1.477l-.034 1.003-.885-.472c-.927-.494-1.369-.496-1.452-.456-.008.053-.007.496.486 1.422l.472.885-1.002.034c-1.054.035-1.436.258-1.487.333.016.055.236.438 1.127.995l.85.53-.85.53c-.891.557-1.111.94-1.117 1.031.041.039.423.262 1.476.296l1.003.033-.472.886c-.494.927-.495 1.37-.456 1.452.048.008.492.01 1.421-.485l.886-.471z"/></g></svg>