<?xml version="1.0" encoding="utf-8"?>
<!-- Generator: Adobe Illustrator 24.3.0, SVG Export Plug-In . SVG Version: 6.00 Build 0)  -->
<svg version="1.1" xmlns="http://www.w3.org/2000/svg" xmlns:xlink="http://www.w3.org/1999/xlink" x="0px" y="0px"
	 viewBox="0 0 16 16" enable-background="new 0 0 16 16">
<g fill="currentColor">
    <path d="M5,15 L1,15 C1,13.48 1.72,13.08 1.72,13.08 C2.52,12.84 3.16,12.52 3.72,12.28 C3.71112912,12.2888709 3.73373523,12.2967581 3.78094669,12.3036617 C3.84471389,12.1274138 4.02439069,11.8452009 4.03590819,11.0782644 C3.58980752,10.6796057 3.28,10.0578414 3.28,9.56 L3.28,8.44 C3.28,7.64 4,7 4.8,7 L5.2,7 C6.08,7 6.72,7.64 6.72,8.44 L6.72,9.56 C6.64061809,10.3538191 5.71648889,11.32 6.03648889,11 C6.03648889,11.8080558 6.18158983,12.1445336 6.22752158,12.3269845 C6.39888415,12.4031784 7.36000738,12.7187049 7.5421877,12.7920301 L7.97265625,15 L5,15 Z"></path>
    <path d="M9.78094669,12.3036617 C9.84471389,12.1274138 10.0243907,11.8452009 10.0359082,11.0782644 C9.58980752,10.6796057 9.28,10.0578414 9.28,9.56 L9.28,8.44 C9.28,7.64 10,7 10.8,7 L11.2,7 C12.08,7 12.72,7.64 12.72,8.44 L12.72,9.56 C12.6406181,10.3538191 11.7164889,11.32 12.0364889,11 C12.0364889,11.8080558 12.1815898,12.1445336 12.2275216,12.3269845 C12.752934,12.5606015 13.296277,12.8553483 14.12,13.08 C14.12,13.08 14.76,13.4 15,15 L11,15 L9.15625001,15 L8.66213866,12.7175293 C8.66213866,12.7175293 9.73373523,12.2967581 9.78094669,12.3036617 Z"></path>
    <path d="M5.82139351,4.05580508 L5.82139351,5.22551404 C5.82139351,5.3938496 5.63588085,5.49691219 5.49245208,5.40759128 L2.67712564,3.64779754 C2.54228541,3.56362976 2.54228541,3.36781083 2.67712564,3.28364305 L5.49245208,1.52384931 C5.63588085,1.4345284 5.82139351,1.53759099 5.82139351,1.70592656 L5.82139351,2.9513559 L10.2388006,2.94367104 L10.2388006,1.70592651 C10.2388006,1.53759094 10.4243132,1.43452835 10.567742,1.52384926 L13.3830684,3.283643 C13.5179087,3.36781079 13.5179087,3.56362971 13.3830684,3.64779749 L10.567742,5.40759123 C10.4243132,5.49691214 10.2388006,5.39384955 10.2388006,5.22551399 L10.2388006,4.04812022 L5.82139351,4.05580508 Z"></path>
</g>
</svg>
