<svg xmlns="http://www.w3.org/2000/svg" version="1.1" viewBox="0 0 16 16">
<g fill="currentColor">
  <path d="M9,4.0001278c.5514002,0,1,.4485998,1,1v8.3819165l-2.3290601-1.1646063c-.2072201-.1036301-.43922-.1584101-.6709399-.1584101-.2316899,0-.4636798.05477-.6708598.15837l-2.3291402,1.164654V5.0001278c0-.5514002.4485998-1,1-1h4M9,3.0001278h-4c-1.1045699,0-2,.8954306-2,2v9.1909602c0,.2898384.2378175.5006437.5002112.5006437.0741012,0,.1501982-.0168273.2234087-.0534337l3.0527601-1.52648c.070385-.0351951.1470022-.0527925.2236199-.0527925s.153235.0175974.2236199.0527925l3.0527596,1.52648c.0732307.0366164.1492882.0534337.2234097.0534337.2623692,0,.5002108-.2108281.5002108-.5006437V5.0001278c0-1.1045694-.8954296-2-2-2h0Z"/>
  <path d="M11.0001221,1h-4c-.7384033,0-1.3761597.4047241-1.7225952,1h5.7225952c.5513916,0,1,.4486084,1,1l-.000061,9.7226562c.5953369-.3464355,1.000061-.9842529,1.000061-1.7226562V3c0-1.1045532-.8954468-2-2-2Z"/>
</g>
</svg>
