<?xml version="1.0" encoding="utf-8"?>
<!-- Generator: Adobe Illustrator 27.9.0, SVG Export Plug-In . SVG Version: 6.00 Build 0)  -->
<svg version="1.1" xmlns="http://www.w3.org/2000/svg" xmlns:xlink="http://www.w3.org/1999/xlink" x="0px" y="0px"
	 viewBox="0 0 16 16" enable-background="new 0 0 16 16" xml:space="preserve">
<g fill="currentColor">
	<path d="M4.8518677,5.559021C5.0576782,5.2941284,5.2941284,5.0576782,5.559021,4.8518677L3.7573853,3.0502319
		c-0.2121582-0.2120972-0.4949951-0.2120972-0.7071533,0c-0.2120972,0.2121582-0.2120972,0.4949951,0,0.7071533L4.8518677,5.559021z
		"/>
	<path d="M8,4c0.1712646,0,0.3344116,0.029541,0.5,0.050415V1.5C8.5,1.2000122,8.2999878,1,8,1S7.5,1.2000122,7.5,1.5v2.550415
		C7.6655884,4.029541,7.8287354,4,8,4z"/>
	<path d="M4,8c0-0.1712646,0.029541-0.3344116,0.050415-0.5H1.5C1.2000122,7.5,1,7.7000122,1,8s0.2000122,0.5,0.5,0.5h2.550415
		C4.029541,8.3344116,4,8.1712646,4,8z"/>
	<path d="M11.1481323,5.559021l1.8016357-1.8016357c0.2120972-0.2121582,0.2120972-0.4949951,0-0.7071533
		c-0.2121582-0.2120972-0.4949951-0.2120972-0.7071533,0L10.440979,4.8518677
		C10.7058716,5.0576782,10.9423218,5.2941284,11.1481323,5.559021z"/>
	<path d="M11.1481323,10.440979c-0.2058105,0.2648926-0.4422607,0.5013428-0.7071533,0.7071533l1.8016357,1.8016357
		c0.2121582,0.2120972,0.4949951,0.2120972,0.7071533,0c0.2120972-0.2121582,0.2120972-0.4949951,0-0.7071533L11.1481323,10.440979z
		"/>
	<path d="M14.5,7.5h-2.550415C11.970459,7.6655884,12,7.8287354,12,8s-0.029541,0.3344116-0.050415,0.5H14.5
		C14.7999878,8.5,15,8.2999878,15,8S14.7999878,7.5,14.5,7.5z"/>
	<path d="M4.8518677,10.440979l-1.8016357,1.8016357c-0.2120972,0.2121582-0.2120972,0.4949951,0,0.7071533
		c0.2121582,0.2120972,0.4949951,0.2120972,0.7071533,0l1.8016357-1.8016357
		C5.2941284,10.9423218,5.0576782,10.7058716,4.8518677,10.440979z"/>
	<path d="M8,12c-0.1712646,0-0.3344116-0.029541-0.5-0.050415V14.5C7.5,14.7999878,7.7000122,15,8,15s0.5-0.2000122,0.5-0.5
		v-2.550415C8.3344116,11.970459,8.1712646,12,8,12z"/>
	<path d="M8,6c1.1000004,0,2,0.9000001,2,2s-0.8999996,2-2,2S6,9.1000004,6,8S6.9000001,6,8,6 M8,5C6.3000002,5,5,6.3000002,5,8
		s1.3000002,3,3,3s3-1.3000002,3-3S9.6999998,5,8,5L8,5z"/>
</g>
</svg>
