<?xml version="1.0" encoding="UTF-8" standalone="no"?><!DOCTYPE svg PUBLIC "-//W3C//DTD SVG 1.1//EN" "http://www.w3.org/Graphics/SVG/1.1/DTD/svg11.dtd"><svg width="100%" height="100%" viewBox="0 0 16 16" version="1.1" xmlns="http://www.w3.org/2000/svg" xmlns:xlink="http://www.w3.org/1999/xlink" xml:space="preserve" xmlns:serif="http://www.serif.com/" style="fill-rule:evenodd;clip-rule:evenodd;stroke-linejoin:round;stroke-miterlimit:2;"><g><path d="M14.61,5.89c0.076,0.11 0.128,0.349 0.273,0.83c0.077,0.415 0.117,0.843 0.117,1.28c0,3.863 -3.137,7 -7,7c-3.863,0 -7,-3.137 -7,-7c0,-3.863 3.137,-7 7,-7c0.814,-0 1.593,0.15 2.324,0.396c0.371,0.124 0.542,0.239 0.61,0.315c0.039,0.044 -0.256,0.15 -0.335,0.294c-0.141,0.259 -0.036,0.598 0.166,0.794c0.017,0.015 0.024,0.039 0.018,0.061c-0.006,0.023 -0.025,0.039 -0.048,0.043c-0.27,0.059 -0.534,0.277 -0.534,0.575c0,0.302 0.288,0.572 0.567,0.64c0.021,0.004 0.038,0.019 0.043,0.04c0.005,0.02 -0.002,0.042 -0.018,0.055c-0.21,0.187 -0.337,0.498 -0.194,0.76c0.137,0.251 0.516,0.311 0.796,0.23c0.025,-0.009 0.054,-0.003 0.073,0.016c0.019,0.02 0.025,0.048 0.015,0.073c-0.095,0.278 -0.096,0.622 0.141,0.767c0.247,0.151 0.6,0.026 0.794,-0.194c0.013,-0.017 0.035,-0.024 0.055,-0.018c0.02,0.006 0.034,0.023 0.037,0.044c0.054,0.327 0.276,0.749 0.602,0.749c0.336,0 0.522,-0.373 0.569,-0.688c0.002,-0.022 0.017,-0.039 0.038,-0.045c0.021,-0.006 0.043,0.001 0.056,0.018c0.165,0.2 0.41,0.282 0.651,0.134c0.074,-0.045 0.137,-0.238 0.184,-0.169Zm-4.648,-3.815c-0.004,0.213 0.071,0.419 0.214,0.564c0.02,0.019 0.028,0.047 0.02,0.073c-0.007,0.026 -0.029,0.045 -0.055,0.051c-0.311,0.082 -0.543,0.396 -0.543,0.77c0,0.382 0.241,0.7 0.56,0.776c0.024,0.004 0.042,0.021 0.049,0.044c0.006,0.023 -0.001,0.047 -0.019,0.063c-0.243,0.235 -0.301,0.64 -0.121,0.971c0.181,0.331 0.541,0.479 0.854,0.374c0.021,-0.009 0.045,-0.004 0.061,0.012c0.016,0.015 0.021,0.039 0.014,0.06c-0.103,0.333 0.037,0.718 0.352,0.91c0.315,0.193 0.701,0.128 0.921,-0.135c0.013,-0.016 0.035,-0.024 0.055,-0.019c0.02,0.006 0.035,0.022 0.039,0.043c0.068,0.337 0.379,0.564 0.743,0.564c0.356,-0 0.648,-0.217 0.721,-0.541c0.005,-0.023 0.023,-0.042 0.046,-0.049c0.023,-0.006 0.048,0.001 0.063,0.019c0.055,0.057 0.115,0.106 0.182,0.142c0.08,0.399 0.122,0.811 0.122,1.233c-0,3.444 -2.796,6.24 -6.24,6.24c-3.444,-0 -6.24,-2.796 -6.24,-6.24c0,-3.444 2.796,-6.24 6.24,-6.24c0.685,0 1.345,0.111 1.962,0.315Zm0.777,8.992c0.443,-0 0.803,0.36 0.803,0.803c0,0.444 -0.36,0.804 -0.803,0.804c-0.444,-0 -0.804,-0.36 -0.804,-0.804c0,-0.443 0.36,-0.803 0.804,-0.803Zm-3.733,-0.544c0.377,-0 0.683,0.302 0.683,0.674c-0,0.371 -0.306,0.673 -0.683,0.673c-0.376,0 -0.682,-0.302 -0.682,-0.673c-0,-0.372 0.306,-0.674 0.682,-0.674Zm4.977,-2.471c0.491,-0 0.89,0.41 0.89,0.916c-0,0.505 -0.399,0.915 -0.89,0.915c-0.491,0 -0.89,-0.41 -0.89,-0.915c-0,-0.506 0.399,-0.916 0.89,-0.916Zm-8.285,-0.778c0.496,0 0.898,0.403 0.898,0.899c0,0.496 -0.402,0.898 -0.898,0.898c-0.496,0 -0.899,-0.402 -0.899,-0.898c0,-0.496 0.403,-0.899 0.899,-0.899Zm4.544,-0.034c0.296,-0 0.536,0.247 0.536,0.553c-0,0.305 -0.24,0.553 -0.536,0.553c-0.296,-0 -0.536,-0.248 -0.536,-0.553c0,-0.306 0.24,-0.553 0.536,-0.553Zm0.294,-2.989c0.295,-0 0.535,0.247 0.535,0.552c0,0.306 -0.24,0.553 -0.535,0.553c-0.296,0 -0.536,-0.247 -0.536,-0.553c0,-0.305 0.24,-0.552 0.536,-0.552Zm-3.577,-0.26c0.391,0 0.708,0.306 0.708,0.683c0,0.377 -0.317,0.682 -0.708,0.682c-0.391,0 -0.708,-0.305 -0.708,-0.682c-0,-0.377 0.317,-0.683 0.708,-0.683Z"/></g></svg>