<?xml version="1.0" encoding="utf-8"?>
<!-- Generator: Adobe Illustrator 25.4.0, SVG Export Plug-In . SVG Version: 6.00 Build 0)  -->
<svg version="1.1" xmlns="http://www.w3.org/2000/svg" xmlns:xlink="http://www.w3.org/1999/xlink" x="0px" y="0px"
	 viewBox="0 0 16 16" enable-background="new 0 0 16 16" xml:space="preserve">
<g fill="currentColor">
	<path d="M12.95,7.843c-0.391-0.391-1.024-0.391-1.414,0L9,10.379V3c0-0.552-0.448-1-1-1H3C2.448,2,2,2.448,2,3l0,0
		c0,0.552,0.448,1,1,1h4v6.379L4.464,7.843c-0.391-0.391-1.024-0.391-1.414,0c-0.39,0.391-0.39,1.024,0,1.414l3.536,3.536
		L7.293,13.5c0.39,0.39,1.024,0.39,1.414,0l0.707-0.707l3.536-3.536C13.34,8.867,13.34,8.234,12.95,7.843z"/>
</g>
</svg>
