<?xml version="1.0" encoding="utf-8"?>
<!-- Generator: Adobe Illustrator 19.1.0, SVG Export Plug-In . SVG Version: 6.00 Build 0)  -->
<svg version="1.1" xmlns="http://www.w3.org/2000/svg" xmlns:xlink="http://www.w3.org/1999/xlink" x="0px" y="0px"
	 viewBox="0 0 16 16" enable-background="new 0 0 16 16" xml:space="preserve">
<g class="icon-color">
	<path d="M4.3,14H3V2h7v2.5C10,4.8,10.2,5,10.5,5H13v2.2c0.3,0.1,0.7,0.2,1,0.3V3.9c0-0.3-0.1-0.5-0.3-0.7l-1.9-1.9
		C11.6,1.1,11.4,1,11.1,1H2.5C2.2,1,2,1.2,2,1.5v13C2,14.8,2.2,15,2.5,15h2.2C4.5,14.7,4.4,14.3,4.3,14z M11,2l2,2h-2V2z"/>
	<path d="M11.2,9h-0.1C8.2,9,6,10.6,6,12.5S8.1,16,10.9,16c2.8,0,5.1-1.6,5.1-3.5S13.8,9.1,11.2,9z M11.1,9.8c0.1,0,0.3,0.1,0.3,0.2
		s-0.1,0.2-0.3,0.2c-0.6,0-1.2,0.5-1.2,1.1c0,0.1-0.1,0.2-0.3,0.2s-0.3-0.1-0.3-0.2C9.3,10.5,10.1,9.8,11.1,9.8z M10.9,15
		c-2.2,0-4-1.1-4-2.5c0-0.9,0.7-1.6,1.8-2.1c-0.2,0.3-0.2,0.7-0.2,1.1c0,1.4,1.1,2.5,2.5,2.5c1.4,0,2.5-1.1,2.5-2.5
		c0-0.4-0.1-0.7-0.2-1c1,0.5,1.7,1.2,1.7,2C15,13.9,13.2,15,10.9,15z"/>
</g>
</svg>
