<?xml version="1.0" encoding="utf-8"?>
<!-- Generator: Adobe Illustrator 27.0.1, SVG Export Plug-In . SVG Version: 6.00 Build 0)  -->
<svg version="1.1" id="Ebene_1" xmlns="http://www.w3.org/2000/svg" xmlns:xlink="http://www.w3.org/1999/xlink" x="0px" y="0px"
	 viewBox="0 0 16 16" enable-background="new 0 0 16 16" xml:space="preserve">
<g fill="currentColor">
	<path d="M14,6h-3v1h3v7H7v-3H6v3c0,0.5523071,0.4476929,1,1,1h7c0.5523071,0,1-0.4476929,1-1V7C15,6.4476929,14.5523071,6,14,6z"/>
	<path d="M12.5,12c-0.2761402,0-0.5,0.2238598-0.5,0.5s0.2238598,0.5,0.5,0.5s0.5-0.2238598,0.5-0.5S12.7761402,12,12.5,12L12.5,12z
		"/>
	<path d="M12.5,8C12.2238598,8,12,8.2238598,12,8.5S12.2238598,9,12.5,9S13,8.7761402,13,8.5S12.7761402,8,12.5,8L12.5,8z"/>
	<path d="M8.5,12C8.2238598,12,8,12.2238598,8,12.5S8.2238598,13,8.5,13S9,12.7761402,9,12.5S8.7761402,12,8.5,12L8.5,12z"/>
	<path d="M9,2v7H2V2H9 M9,1H2C1.4477201,1,1,1.44771,1,2v7c0,0.5522804,0.4477201,1,1,1h7c0.55229,0,1-0.4477196,1-1V2
		C10,1.44771,9.55229,1,9,1L9,1z"/>
	<path d="M7.5,3C7.2238598,3,7,3.2238598,7,3.5S7.2238598,4,7.5,4S8,3.7761402,8,3.5S7.7761402,3,7.5,3L7.5,3z"/>
	<path d="M5.5,5C5.2238598,5,5,5.2238598,5,5.5S5.2238598,6,5.5,6S6,5.7761402,6,5.5S5.7761402,5,5.5,5L5.5,5z"/>
	<path d="M3.5,7C3.22386,7,3,7.2238598,3,7.5S3.22386,8,3.5,8S4,7.7761402,4,7.5S3.77614,7,3.5,7L3.5,7z"/>
</g>
</svg>
