<?xml version="1.0" encoding="utf-8"?>
<!-- Generator: Adobe Illustrator 23.0.3, SVG Export Plug-In . SVG Version: 6.00 Build 0)  -->
<svg version="1.1" xmlns="http://www.w3.org/2000/svg" xmlns:xlink="http://www.w3.org/1999/xlink" x="0px" y="0px"
	 viewBox="0 0 16 16" enable-background="new 0 0 16 16" xml:space="preserve">
<g class="icon-color">
	<path d="M8,2.6c3.1,0,5.4,2.4,5.4,5.4s-2.4,5.4-5.4,5.4S2.5,11.1,2.5,8S4.9,2.6,8,2.6 M8,1C4.1,1,1,4.1,1,8s3.1,7,7,7s7-3.1,7-7
		S11.9,1,8,1L8,1z"/>
	<path d="M7,4.1V8l4.1,2.5c0.2-0.3,0.4-0.5,0.5-0.9L8,7.4V4C7.7,4,7.3,4.1,7,4.1z"/>
</g>
</svg>
