<?xml version="1.0" encoding="utf-8"?>
<!-- Generator: Adobe Illustrator 23.1.0, SVG Export Plug-In . SVG Version: 6.00 Build 0)  -->
<svg version="1.1" id="Ebene_1" xmlns="http://www.w3.org/2000/svg" xmlns:xlink="http://www.w3.org/1999/xlink" x="0px" y="0px"
	 viewBox="0 0 16 16" enable-background="new 0 0 16 16" xml:space="preserve">
<g class="icon-color">
	<path d="M5,2c0.6,0,1,0.4,1,1S5.6,4,5,4S4,3.6,4,3S4.4,2,5,2 M5,1C3.9,1,3,1.9,3,3s0.9,2,2,2s2-0.9,2-2S6.1,1,5,1L5,1z"/>
	<path d="M5,12c0.6,0,1,0.4,1,1s-0.4,1-1,1s-1-0.4-1-1S4.4,12,5,12 M5,11c-1.1,0-2,0.9-2,2s0.9,2,2,2s2-0.9,2-2S6.1,11,5,11L5,11z"/>
	<path d="M11,9c0.6,0,1,0.4,1,1s-0.4,1-1,1s-1-0.4-1-1S10.4,9,11,9 M11,8c-1.1,0-2,0.9-2,2s0.9,2,2,2s2-0.9,2-2S12.1,8,11,8L11,8z"/>
	<rect x="4" y="4" width="2" height="8"/>
	<path d="M6,6.5C6,7.9,7.1,9,8.5,9h1v2h-1C6,11,4,9,4,6.5H6z"/>
</g>
</svg>
