<svg xmlns="http://www.w3.org/2000/svg" version="1.1" viewBox="0 0 16 16">
<g fill="currentColor">
	<rect x="10" y="1" width="2" height="1"/>
	<rect x="7" y="1" width="2" height="1"/>
	<path d="M13,2h1v1h1V1.5C15,1.2,14.8,1,14.5,1H13V2z"/>
	<path d="M3,1H1.5C1.2,1,1,1.2,1,1.5V3h1V2h1V1z"/>
	<rect x="14" y="4" width="1" height="2"/>
	<rect x="4" y="1" width="2" height="1"/>
	<path d="M15.5,11H13V8.5C13,8.2,12.8,8,12.5,8h-1C11.2,8,11,8.2,11,8.5V11H8.5C8.2,11,8,11.2,8,11.5v1C8,12.8,8.2,13,8.5,13H11v2.5
		c0,0.3,0.2,0.5,0.5,0.5h1c0.3,0,0.5-0.2,0.5-0.5V13h2.5c0.3,0,0.5-0.2,0.5-0.5v-1C16,11.2,15.8,11,15.5,11z"/>
	<path d="M3,14H2v-1H1v1.5C1,14.8,1.2,15,1.5,15H3V14z"/>
	<rect x="4" y="14" width="2" height="1"/>
	<rect x="1" y="10" width="1" height="2"/>
	<rect x="1" y="7" width="1" height="2"/>
	<rect x="1" y="4" width="1" height="2"/>
</g>
</svg>
