<svg xmlns="http://www.w3.org/2000/svg" viewBox="0 0 16 16">
<g>
    <path d="M9.19897461,10 C8.86505127,10.3616333 8.39561111,10.6 7.99561111,10.6 C9.06539842,10.5783909 10.0507726,9.19227393 10.15,8.2 L10.15,6.8 C10.15,5.8 9.35,5 8.25,5 L7.75,5 C6.75,5 5.85,5.8 5.85,6.8 L5.85,8.2 C5.85,8.8223017 6.2372594,9.59950715 6.79488524,10.0978304 C6.78048836,11.0565011 6.55589236,11.4092672 6.47618336,11.6295771 C6.41716904,11.6209476 6.3889114,11.6110886 6.4,11.6 C5.7,11.9 4.9,12.3 3.9,12.6 C3.9,12.6 3,13.1 3,15 L8,15 L13,15 C12.7,13 11.9,12.6 11.9,12.6 C10.8703462,12.3191853 10.1911675,11.9507519 9.53440198,11.6587306 C9.47698729,11.430667 9.19897461,11.0100698 9.19897461,10 Z"/>
    <path d="M3.67994041,4.96525971 C5.10952068,2.68196032 8.13426698,1.97634822 10.42725,3.40916306 L9.67142688,4.61873292 C9.56702848,4.7858053 9.68723166,5.0031458 9.88497921,5.00344686 L13.7705688,5.0028687 C13.9565964,5.00295777 14.0780394,4.80860827 13.9964103,4.64144684 L12.2935995,1.14884859 C12.2066421,0.971246242 11.9586042,0.958484146 11.8542058,1.12555652 L11.0291388,2.44593969 C8.2076615,0.682885011 4.48186362,1.54305323 2.71880894,4.36453051 C2.13822597,5.29365747 1.91422996,5.95370291 1.88023156,6.97547267 L3.03198271,6.9721681 C3.06387013,6.1624231 3.21863122,5.70801602 3.67994041,4.96525971 L3.67994041,4.96525971 Z"/>
</g>
</svg>