<?xml version="1.0" encoding="utf-8"?>
<!-- Generator: Adobe Illustrator 27.7.0, SVG Export Plug-In . SVG Version: 6.00 Build 0)  -->
<svg version="1.1" xmlns="http://www.w3.org/2000/svg" xmlns:xlink="http://www.w3.org/1999/xlink" x="0px" y="0px"
	 viewBox="0 0 16 16" style="enable-background:new 0 0 16 16;" xml:space="preserve">
<g fill="currentColor">
	<path d="M14.5,4.2c-0.1,0-0.1,0-0.2,0L11,5.6V4c0-0.6-0.4-1-1-1H2C1.4,3,1,3.4,1,4v8c0,0.6,0.4,1,1,1h8c0.6,0,1-0.4,1-1v-1.6
		l3.3,1.3c0.1,0,0.1,0,0.2,0c0.3,0,0.5-0.2,0.5-0.5V4.7C15,4.5,14.8,4.2,14.5,4.2z M2,12V4h8v8H2z M14,10.5l-3-1.2V6.7l3-1.2V10.5z"
		/>
</g>
</svg>
