<?xml version="1.0" encoding="UTF-8" standalone="no"?>
<svg width="16px" height="16px" viewBox="0 0 16 16" version="1.1" xmlns="http://www.w3.org/2000/svg" xmlns:xlink="http://www.w3.org/1999/xlink" xmlns:sketch="http://www.bohemiancoding.com/sketch/ns">
    <!-- Generator: Sketch 3.3.3 (12072) - http://www.bohemiancoding.com/sketch -->
    <title>actions-system-cache-clear-alt</title>
    <desc>Created with Sketch.</desc>
    <defs></defs>
    <g>
        <path fill="#C83C3C" d="M6.01053266,14.7071025 L11.8210448,6.70770264 C11.9816607,6.48353986 11.9616698,6.03820801 11.5363158,6.03820801 L9.23426476,6.03820801 C8.96343083,6.03820801 8.84089368,5.83803123 8.9719901,5.59110066 L11.0183715,1.71636963 C11.1653441,1.47668943 11.1613158,1 10.7180175,1 L6.51383578,1 C6.24785709,1 5.96235193,1.21342112 5.89603393,1.47668942 L4.12007935,8.52685062 C4.05392616,8.78946468 4.2250331,9.00354004 4.5026255,9.00354004 L6.54119774,9.00354004 C6.82491898,9.00354004 6.96431611,9.21481862 6.86623909,9.47544396 C6.86623909,9.47544396 5,14.4039952 5,14.5 C5,14.7761424 5.22385763,15 5.5,15 C5.64440936,15 5.77451993,14.9387796 5.86579389,14.8408765 C5.91902794,14.8104999 5.96845524,14.7658276 6.01053266,14.7071025 Z"></path>
    </g>
</svg>