<svg xmlns="http://www.w3.org/2000/svg" version="1.1" viewBox="0 0 16 16">
<g fill="currentColor">
	<path d="M5,2v3H2V2H5 M6,1H1v5h5V1L6,1z"/>
	<path d="M14,2v3h-3V2H14 M15,1h-5v5h5V1L15,1z"/>
	<path d="M5,11v3H2v-3H5 M6,10H1v5h5V10L6,10z"/>
	<polygon points="13,12 10,12 10,13 13,13 13,12 	"/>
	<polygon points="3,7 1,7 1,9 2,9 2,8 3,8 3,7 	"/>
	<polygon points="5,7 4,7 4,9 5,9 5,7 	"/>
	<polygon points="8,14 7,14 7,15 8,15 8,14 	"/>
	<polygon points="11,14 9,14 9,15 11,15 11,14 	"/>
	<polygon points="13,14 12,14 12,15 13,15 13,14 	"/>
	<path d="M8,11h0.005H8 M8,9H7v4h1v-1h1v-1h1v-1H8V9L8,9z"/>
	<polygon points="15,12 14,12 14,15 15,15 15,12 	"/>
	<polygon points="15,7 14,7 14,9 11,9 11,11 15,11 15,7 	"/>
	<polygon points="12,7 10,7 9,7 9,8 9,9 10,9 10,8 12,8 12,7 	"/>
	<polygon points="9,5 7,5 7,7 6,7 6,8 8,8 8,6 9,6 9,5 	"/>
	<path d="M8,3h0.005H8 M8,1H7v3h2V2H8V1L8,1z"/>
</g>
</svg>
