<?xml version="1.0" encoding="utf-8"?>
<!-- Generator: Adobe Illustrator 19.1.0, SVG Export Plug-In . SVG Version: 6.00 Build 0)  -->
<svg version="1.1" xmlns="http://www.w3.org/2000/svg" xmlns:xlink="http://www.w3.org/1999/xlink" x="0px" y="0px"
	 viewBox="0 0 16 16" enable-background="new 0 0 16 16" xml:space="preserve">
<g class="icon-color">
	<path d="M7,14H2V2h12v5l1,1V1.5C15,1.224,14.776,1,14.5,1h-13C1.224,1,1,1.224,1,1.5v13C1,14.776,1.224,15,1.5,15H8L7,14z"/>
	<rect x="3" y="3" width="10" height="2"/>
	<polygon points="3,10 6,10 5,11 3,11 	"/>
	<polygon points="3,12 5,12 6,13 3,13 	"/>
	<polygon points="3,8 8,8 7,9 3,9 	"/>
	<polygon points="3,6 10,6 9,7 3,7 	"/>
	<polygon points="14,11 12,11 12,9 11,9 11,11 9,11 9,12 11,12 11,14 12,14 12,12 14,12 	"/>
	<path d="M15.823,11.677l-1.396,1.396C14.269,13.231,14,13.119,14,12.896v-2.793c0-0.223,0.269-0.334,0.427-0.177l1.396,1.396
		C15.921,11.421,15.921,11.579,15.823,11.677z"/>
	<path d="M7.177,11.323l1.396-1.396C8.731,9.769,9,9.881,9,10.104v2.793c0,0.223-0.269,0.334-0.427,0.177l-1.396-1.396
		C7.079,11.579,7.079,11.421,7.177,11.323z"/>
	<path d="M11.677,7.177l1.396,1.396C13.231,8.731,13.119,9,12.896,9h-2.793C9.881,9,9.769,8.731,9.927,8.573l1.396-1.396
		C11.421,7.079,11.579,7.079,11.677,7.177z"/>
	<path d="M11.327,15.827l-1.4-1.4C9.769,14.269,9.881,14,10.104,14h2.856c0.225,0,0.336,0.274,0.173,0.43l-1.456,1.4
		C11.579,15.924,11.423,15.923,11.327,15.827z"/>
</g>
</svg>
