<?xml version="1.0" encoding="utf-8"?>
<!-- Generator: Adobe Illustrator 25.0.0, SVG Export Plug-In . SVG Version: 6.00 Build 0)  -->
<svg version="1.1" xmlns="http://www.w3.org/2000/svg" xmlns:xlink="http://www.w3.org/1999/xlink" x="0px" y="0px"
	 viewBox="0 0 16 16" enable-background="new 0 0 16 16" xml:space="preserve">
<g fill="currentColor">
	<path d="M5,5C3.3,5,2,6.3,2,8s1.3,3,3,3s3-1.3,3-3S6.7,5,5,5L5,5z"/>
	<path d="M11,4c2.2,0,4,1.8,4,4s-1.8,4-4,4H5c-2.2,0-4-1.8-4-4s1.8-4,4-4H11 M11,3H5C2.2,3,0,5.2,0,8s2.2,5,5,5h6c2.8,0,5-2.2,5-5
		S13.8,3,11,3L11,3z"/>
</g>
</svg>
