<?xml version="1.0" encoding="utf-8"?>
<!-- Generator: Adobe Illustrator 24.3.0, SVG Export Plug-In . SVG Version: 6.00 Build 0)  -->
<svg version="1.1" id="Ebene_1" xmlns="http://www.w3.org/2000/svg" xmlns:xlink="http://www.w3.org/1999/xlink" x="0px" y="0px"
	 viewBox="0 0 16 16" enable-background="new 0 0 16 16" xml:space="preserve">
<g fill="currentColor">
	<path d="M8,2c1.8,0,3.4,0.8,4.5,2l1-1c0.1-0.1,0.4-0.1,0.4,0.1l0.9,3.8c0,0.2-0.1,0.3-0.3,0.3l-3.8-0.9c-0.2,0-0.3-0.3-0.1-0.4l1-1
		c-0.9-1-2.2-1.7-3.7-1.7C5.3,3.1,3.1,5.3,3.1,8s2.2,4.9,4.9,4.9c1.5,0,2.8-0.7,3.7-1.7l0.8,0.8c-1.1,1.2-2.7,2-4.5,2
		c-3.3,0-6-2.7-6-6S4.7,2,8,2z"/>
</g>
</svg>
