<svg xmlns="http://www.w3.org/2000/svg" version="1.1" viewBox="0 0 16 16">
<g fill="currentColor">
  <path d="M11,1.9999971c.5514002,0,1,.4485998,1,1v10.3442905l-3.1988096-2.0209606c-.2401199-.15171-.51717-.2319002-.8011904-.2319002-.2839899,0-.5610199.0801802-.8011799.2318902l-3.1988201,2.0209699V2.9999971c0-.5514002.4485998-1,1-1h6M11,.9999971h-6c-1.1045699,0-2,.8954296-2,2v11.2614897c0,.2870603.2353342.500488.499557.500488.0613661,0,.1242397-.0114959.1861429-.036258l4.0472403-2.55699c.0815649-.0515301.1743121-.0772951.2670598-.0772951s.1854954.0257649.2670603.0772951l4.0472393,2.55699c.0618839.024754.1247959.036258.1861429.036258.2642479,0,.4995575-.2134062.4995575-.500488V2.9999971c0-1.1045704-.8954296-2-2-2h0Z"/>
</g>
</svg>
