<svg xmlns="http://www.w3.org/2000/svg" viewBox="0 0 16 16">
<g>
    <path d="M6.58535285,2 L3.50964952,2 C3.22765279,2 3,2.22105539 3,2.49374104 L3,14.506259 C3,14.7743607 3.22817786,15 3.50964952,15 L7.08740199,15 C7.03082046,14.8422379 7,14.6726759 7,14.4965773 L7,14 L4,14 L4,3 L5,3 L5,3.49531555 C5,3.78596497 5.21983051,4 5.49100518,4 L10.5089948,4 C10.7721195,4 11,3.77404508 11,3.49531555 L11,3 L12,3 L12,6 L13,6 L13,2.49374104 C13,2.22563934 12.7718221,2 12.4903505,2 L9.41464715,2 C9.20872894,1.41740381 8.65310941,1 8,1 C7.34689059,1 6.79127106,1.41740381 6.58535285,2 L6.58535285,2 Z M8,3.25 C8.41421356,3.25 8.75,2.91421356 8.75,2.5 C8.75,2.08578644 8.41421356,1.75 8,1.75 C7.58578644,1.75 7.25,2.08578644 7.25,2.5 C7.25,2.91421356 7.58578644,3.25 8,3.25 Z M15.2,9.2 L13.4,11 L15.2,12.8 C15.4,13 15.4,13.3 15.2,13.5 L14.5,14.2 C14.3,14.4 14,14.4 13.8,14.2 L12,12.4 L10.2,14.2 C10,14.4 9.7,14.4 9.5,14.2 L8.8,13.5 C8.6,13.3 8.6,13 8.8,12.8 L10.6,11 L8.8,9.2 C8.6,9 8.6,8.7 8.8,8.5 L9.5,7.8 C9.7,7.6 10,7.6 10.2,7.8 L12,9.6 L13.8,7.8 C14,7.6 14.3,7.6 14.5,7.8 L15.2,8.5 C15.4,8.7 15.4,9 15.2,9.2 Z"/>
</g>
</svg>