<?xml version="1.0" encoding="utf-8"?>
<!-- Generator: Adobe Illustrator 25.0.1, SVG Export Plug-In . SVG Version: 6.00 Build 0)  -->
<svg version="1.1" xmlns="http://www.w3.org/2000/svg" xmlns:xlink="http://www.w3.org/1999/xlink" x="0px" y="0px"
	 viewBox="0 0 16 16" enable-background="new 0 0 16 16">
<g fill="currentColor">
<path d="M8,1L1,6v8.5C1,14.8,1.2,15,1.5,15h13c0.3,0,0.5-0.2,0.5-0.5V6L8,1z M2,6.5l6-4.3l6,4.3v0.2L8,11L2,6.7V6.5z M2,7.9l3.5,2.5
	L2,14V7.9z M3.4,14l2.9-2.9L8,12.2L9.6,11l3,3H3.4z M14,14l-3.5-3.5L14,7.9V14z"/>
</g>
</svg>
