<svg xmlns="http://www.w3.org/2000/svg" viewBox="0 0 16 16">
<g>
    <path d="M6,10 L6,8.04 C6,7.621 5.515,7.388 5.188,7.65 L1.488,10.609 C1.238,10.809 1.238,11.189 1.488,11.389 L5.188,14.349 C5.515,14.611 6,14.378 6,13.959 L6,12 L12,12 L12,10 L6,10 Z M9.983125,2.07765608 C9.983125,1.65865608 10.468125,1.42565608 10.795125,1.68765608 L14.495125,4.64665608 C14.745125,4.84665608 14.745125,5.22665608 14.495125,5.42665608 L10.795125,8.38665608 C10.468125,8.64865608 9.983125,8.41565608 9.983125,7.99665608 L9.983125,6.03765608 L3.983125,6.03765608 L3.983125,4.03765608 L9.983125,4.03765608 L9.983125,2.07765608 Z"/>
</g>
</svg>