<svg xmlns="http://www.w3.org/2000/svg" viewBox="0 0 16 16">
<g class="icon-color">
    <path d="M6,5 L5,5 L5,11 C5,9.774 5.369,8.636 6,7.686 L6,5 Z M9,5.349 L9,5 L8,5 L8,5.809 C8.316,5.626 8.651,5.472 9,5.349 Z M5.809,14 L3.25,14 C3.112,14 3,13.888 3,13.75 L3,4 L11,4 L11,5 C11.342,5 11.674,5.035 12,5.09 L12,4 L12.5,4 C12.776,4 13,3.776 13,3.5 C13,3.224 12.776,3 12.5,3 L10,3 L10,2.25 C10,1.56 9.44,1 8.75,1 L5.25,1 C4.56,1 4,1.56 4,2.25 L4,3 L1.5,3 C1.224,3 1,3.224 1,3.5 C1,3.776 1.224,4 1.5,4 L2,4 L2,13.75 C2,14.44 2.56,15 3.25,15 L6.537,15 C6.262,14.693 6.017,14.359 5.809,14 Z M5,2.25 C5,2.112 5.112,2 5.25,2 L8.75,2 C8.888,2 9,2.112 9,2.25 L9,3 L5,3 L5,2.25 Z M11.024,14 C11.669,14 12.242,13.797 12.731,13.451 L13.248,14.309 C12.607,14.745 11.833,15 11,15 C8.792,15 7.001,13.21 7,11.002 L6.183,11.002 C6.043,11.002 5.957,10.842 6.031,10.718 L7.331,8.285 C7.401,8.168 7.564,8.168 7.635,8.285 L8.951,10.718 C9.025,10.842 8.939,11.002 8.799,11.002 L8,11.002 C8.001,12.658 9.368,14 11.024,14 Z M9.285,8.549 L8.768,7.691 C9.409,7.255 10.182,7 11.016,7 C13.224,7 15.015,8.79 15.016,10.998 L15.841,10.998 C15.981,10.998 16.067,11.158 15.992,11.282 L14.685,13.715 C14.615,13.832 14.451,13.832 14.381,13.715 L13.024,11.282 C12.949,11.158 13.035,10.998 13.175,10.998 L14.016,10.998 C14.015,9.342 12.672,8 11.016,8 C10.371,8 9.774,8.203 9.285,8.549 L9.285,8.549 Z"/>
</g>
</svg>