<?xml version="1.0" encoding="utf-8"?>
<!-- Generator: Adobe Illustrator 24.3.0, SVG Export Plug-In . SVG Version: 6.00 Build 0)  -->
<svg version="1.1" id="Ebene_1" xmlns="http://www.w3.org/2000/svg" xmlns:xlink="http://www.w3.org/1999/xlink" x="0px" y="0px"
	 viewBox="0 0 16 16" enable-background="new 0 0 16 16" xml:space="preserve">
<g fill="currentColor">
	<rect x="4" y="2" width="1" height="12"/>
	<path d="M6,12l-1.5,2L3,12H2l2.3,3c0.1,0.1,0.3,0.1,0.4,0L7,12H6z"/>
	<polygon points="9,5 14,5 14,4 8,4 8,6 9,6 	"/>
	<polygon points="9,8 12,8 12,7 8,7 8,9 9,9 	"/>
	<polygon points="9,11 10,11 10,10 8,10 8,12 9,12 	"/>
</g>
</svg>
