<?xml version="1.0" encoding="utf-8"?>
<!-- Generator: Adobe Illustrator 25.4.1, SVG Export Plug-In . SVG Version: 6.00 Build 0)  -->
<svg version="1.1" id="Ebene_1" xmlns="http://www.w3.org/2000/svg" xmlns:xlink="http://www.w3.org/1999/xlink" x="0px" y="0px"
	 viewBox="0 0 16 16" enable-background="new 0 0 16 16" xml:space="preserve">
<g fill="currentColor">
	<path d="M12.5,11c0.828,0,1.5,0.672,1.5,1.5S13.328,14,12.5,14S11,13.328,11,12.5S11.672,11,12.5,11 M12.5,10
		c-1.378,0-2.5,1.122-2.5,2.5s1.122,2.5,2.5,2.5s2.5-1.122,2.5-2.5S13.878,10,12.5,10L12.5,10z"/>
	<path d="M3.5,2C4.328,2,5,2.672,5,3.5S4.328,5,3.5,5S2,4.328,2,3.5S2.672,2,3.5,2 M3.5,1C2.122,1,1,2.122,1,3.5S2.122,6,3.5,6
		S6,4.878,6,3.5S4.878,1,3.5,1L3.5,1z"/>
	<path d="M3.5,11C4.328,11,5,11.672,5,12.5S4.328,14,3.5,14S2,13.328,2,12.5S2.672,11,3.5,11 M3.5,10C2.122,10,1,11.122,1,12.5
		S2.122,15,3.5,15S6,13.878,6,12.5S4.878,10,3.5,10L3.5,10z"/>
	<rect x="3" y="5" width="1" height="6"/>
	<polygon points="8.914,3 10.536,1.379 9.828,0.672 7,3.5 9.828,6.328 10.536,5.621 8.914,4 12,4 12,11 13,11 13,3 	"/>
</g>
</svg>
