<?xml version="1.0" encoding="utf-8"?>
<!-- Generator: Adobe Illustrator 22.1.0, SVG Export Plug-In . SVG Version: 6.00 Build 0)  -->
<svg version="1.1" id="Ebene_1" xmlns="http://www.w3.org/2000/svg" xmlns:xlink="http://www.w3.org/1999/xlink" x="0px" y="0px"
	 viewBox="0 0 16 16" enable-background="new 0 0 16 16" xml:space="preserve">
<g class="icon-color">
	<path d="M10.5,5.5l4.1-4.1c0.1-0.1,0.4,0,0.4,0.2v4.2C15,5.9,14.9,6,14.7,6h-4.1C10.4,6,10.3,5.7,10.5,5.5z"/>
	<path d="M1,8c0,3.9,3.1,7,7,7c2.2,0,4.1-1,5.5-2.6l-1.1-1.1c-1.1,1.4-2.6,2.2-4.4,2.2C5,13.5,2.5,11,2.5,8S5,2.5,8,2.5
		c2,0,3.8,1.1,4.7,2.8h1.7C13.4,2.8,10.9,1,8,1C4.1,1,1,4.1,1,8z"/>
</g>
</svg>
