<?xml version="1.0" encoding="utf-8"?>
<!-- Generator: Adobe Illustrator 23.0.6, SVG Export Plug-In . SVG Version: 6.00 Build 0)  -->
<svg version="1.1" xmlns="http://www.w3.org/2000/svg" xmlns:xlink="http://www.w3.org/1999/xlink" x="0px" y="0px"
	 viewBox="0 0 16 16" enable-background="new 0 0 16 16">
<g fill="currentColor">
	<path d="M14.5,3h-11C3.2,3,3,3.2,3,3.5V5H1.5C1.2,5,1,5.2,1,5.5v7C1,12.8,1.2,13,1.5,13h2h0l0,0h11c0.3,0,0.5-0.2,0.5-0.5v-9
		C15,3.2,14.8,3,14.5,3z M3,12H2V6h1V12z M14,12H4V4h10V12z"/>
	<polygon points="13,5 9,5 9,7 13,7 	"/>
	<polygon points="13,8 9,8 9,9 13,9 	"/>
	<polygon points="13,10 9,10 9,11 13,11 	"/>
	<rect x="5" y="5" width="3" height="6"/>
</g>
</svg>
