<svg xmlns="http://www.w3.org/2000/svg" viewBox="0 0 16 16">
<g class="icon-color">
	<path d="M9,14H3V2h7v2.5C10,4.776,10.224,5,10.5,5H13v2l1,1V3.914c0-0.265-0.105-0.52-0.293-0.707l-1.914-1.914
		C11.605,1.105,11.351,1,11.086,1H2.5C2.224,1,2,1.224,2,1.5v13C2,14.776,2.224,15,2.5,15H9V14z M11,2l2,2h-2V2z"/>
	<rect x="4" y="3" width="4" height="2"/>
	<rect x="6" y="6" width="4" height="1"/>
	<rect x="4" y="6" width="1" height="7"/>
	<rect x="6" y="12" width="1" height="1"/>
	<rect x="6" y="8" width="3" height="1"/>
	<polygon points="8,10 6,10 6,11 7,11 	"/>
	<path d="M12.177,8.177l3.396,3.396C15.731,11.731,15.619,12,15.396,12H13v4h-2v-4H8.603c-0.223,0-0.334-0.269-0.177-0.427
		l3.397-3.396C11.921,8.079,12.079,8.079,12.177,8.177z"/>
</g>
</svg>