<svg xmlns="http://www.w3.org/2000/svg" viewBox="0 0 16 16">
<g class="icon-color">
	<path d="M6.657,1H3.828H1v2.828v2.828l8.485,8.485l5.657-5.657L6.657,1z M1.99,6.232V4.111V1.99h2.121h2.122l7.495,7.494
		l-4.243,4.243L1.99,6.232z"/>
	<path d="M3.475,3.475c-0.683,0.683-0.683,1.792,0,2.475s1.792,0.683,2.475,0s0.683-1.792,0-2.475S4.159,2.791,3.475,3.475z
		 M4.182,4.182c0.293-0.293,0.768-0.293,1.061,0s0.293,0.768,0,1.061s-0.768,0.293-1.061,0C3.889,4.949,3.889,4.475,4.182,4.182z"/>
	<rect x="7.381" y="6.632" transform="matrix(0.7071 -0.7071 0.7071 0.7071 -3.7826 9.1315)" width="3.5" height="5"/>
</g>
</svg>