<?xml version="1.0" encoding="utf-8"?>
<!-- Generator: Adobe Illustrator 25.1.0, SVG Export Plug-In . SVG Version: 6.00 Build 0)  -->
<svg version="1.1" id="Ebene_1" xmlns="http://www.w3.org/2000/svg" xmlns:xlink="http://www.w3.org/1999/xlink" x="0px" y="0px"
	 viewBox="0 0 16 16" enable-background="new 0 0 16 16" xml:space="preserve">
<g fill="currentColor">
	<polygon points="14,3 13,3 13,6 14,6 	"/>
	<polygon points="14,9 13,9 13,13 14,13 	"/>
	<polygon points="12,3 11.5,3 11.5,6 12,6 	"/>
	<polygon points="12,9 11.5,9 11.5,13 12,13 	"/>
	<polygon points="11,3 10.5,3 10.5,6 11,6 	"/>
	<polygon points="11,9 10.5,9 10.5,13 11,13 	"/>
	<polygon points="10,3 9,3 9,6 10,6 	"/>
	<polygon points="10,9 9,9 9,13 10,13 	"/>
	<polygon points="8.5,9 8,9 8,13 8.5,13 	"/>
	<polygon points="8.5,3 8,3 8,6 8.5,6 	"/>
	<polygon points="7.5,3 6.5,3 6.5,6 7.5,6 	"/>
	<polygon points="7.5,9 6.5,9 6.5,13 7.5,13 	"/>
	<polygon points="6,3 5,3 5,6 6,6 	"/>
	<polygon points="6,9 5,9 5,13 6,13 	"/>
	<polygon points="4.5,9 4,9 4,13 4.5,13 	"/>
	<polygon points="4.5,3 4,3 4,6 4.5,6 	"/>
	<polygon points="3,3 2,3 2,6 3,6 	"/>
	<polygon points="3,9 2,9 2,13 3,13 	"/>
	<rect x="1" y="7" width="14" height="1"/>
</g>
</svg>
