<?xml version="1.0" encoding="utf-8"?>
<!-- Generator: Adobe Illustrator 27.0.1, SVG Export Plug-In . SVG Version: 6.00 Build 0)  -->
<svg version="1.1" xmlns="http://www.w3.org/2000/svg" xmlns:xlink="http://www.w3.org/1999/xlink" x="0px" y="0px"
	 viewBox="0 0 16 16" enable-background="new 0 0 16 16" xml:space="preserve">
<g fill="currentColor">
	<path d="M12.3000002,14.1999998c0.5,0,0.8999996-0.1999998,1.3000002-0.3999996L14,14.4000006
		c-0.5,0.3000002-1.1000004,0.5-1.6999998,0.5c-1.6999998,0-3-1.3000002-3-3H8.6000004
		C8.5,11.9000006,8.4000006,11.8000002,8.5,11.7000008l1-1.8000002c0.1000004-0.1000004,0.1999998-0.1000004,0.1999998,0
		l1,1.8000002c0.1000004,0.1000004,0,0.1999998-0.1000004,0.1999998H10C10,13.1999998,11,14.1999998,12.3000002,14.1999998z"/>
	<path d="M11,10.1999998l-0.3999996-0.6000004c0.5-0.3999996,1-0.5999994,1.6999998-0.5999994c1.6999998,0,3,1.3000002,3,3
		h0.6000004C16,12,16.1000004,12.1000004,16,12.1999998L15,14c-0.1000004,0.1000004-0.1999998,0.1000004-0.1999998,0l-1-1.8000002
		C13.6999998,12.0999994,13.8000002,12,13.9000006,12h0.6000004c0-1.1999998-1-2.3000002-2.3000002-2.3000002
		C11.8000002,9.6999998,11.3000002,9.8999996,11,10.1999998z"/>
	<path d="M7.3907471,13.9390869C4.7347412,13.8261719,3,13.0170898,3,12.4616699v-1.5679321
		c0.9358521,0.5809937,2.4259033,0.9277344,4.0075684,1.03125c0.005188-0.3416748,0.0432739-0.6744995,0.1137085-0.9962158
		c-2.5039673-0.1539307-4.1194458-0.9303589-4.1209717-1.4666748H3V7.8934326c1.1303101,0.7017212,3.0668335,1.0675659,5,1.0675659
		c0.0186768,0,0.0372314-0.0012817,0.0559082-0.0013428C8.3631592,8.5617676,8.71875,8.204834,9.1303711,7.9150391
		C8.7716675,7.9436035,8.3960571,7.9609985,8,7.9609985c-3.0045776,0-4.9979858-0.9020386-4.9996948-1.4992065H3V4.8931274
		c1.1303101,0.7017212,3.0668335,1.0675659,5,1.0675659c1.9331055,0,3.8695679-0.3658447,5-1.0673828V6.461792h-0.0003052
		c-0.0004883,0.178894-0.1986694,0.3843384-0.5302734,0.5855103C13.0075073,7.0982056,13.5252075,7.2143555,14,7.4221191V3.4616699
		c0-3.2822266-12-3.2822266-12,0v9c0,1.6399536,3.0125122,2.4981079,5.9909058,2.4998169
		C7.7559814,14.644104,7.5460205,14.3078003,7.3907471,13.9390869z M8,1.9616699c3.0055542,0,4.9995728,0.90271,4.999939,1.4998169
		h-0.0002441C12.9979858,4.0586548,11.0045776,4.9606934,8,4.9606934S3.0020142,4.0586548,3.0003052,3.4614868H3.000061
		C3.0004272,2.8643799,4.9944458,1.9616699,8,1.9616699z"/>
</g>
</svg>
