<?xml version="1.0" encoding="utf-8"?>
<!-- Generator: Adobe Illustrator 25.4.0, SVG Export Plug-In . SVG Version: 6.00 Build 0)  -->
<svg version="1.1" xmlns="http://www.w3.org/2000/svg" xmlns:xlink="http://www.w3.org/1999/xlink" x="0px" y="0px"
	 viewBox="0 0 16 16" enable-background="new 0 0 16 16">
<g fill="currentColor">
	<path d="M13,2v6c0,3.067-3.749,5.246-5,5.888C6.747,13.246,3,11.066,3,8V2H13 M14,1H2c0,0,0,5.25,0,7c0,4.375,6,7,6,7s6-2.625,6-7
		C14,6.25,14,1,14,1L14,1z"/>
	<path d="M10.74,5.999H8.865L8.24,4.124c-0.096-0.192-0.336-0.192-0.433,0L7.135,5.999H5.26c-0.24,0-0.336,0.288-0.192,0.433
		L6.51,7.777L5.837,9.748c-0.096,0.192,0.144,0.433,0.336,0.288L8,8.883l1.827,1.154c0.192,0.096,0.433-0.096,0.336-0.288
		L9.49,7.777l1.442-1.346C11.076,6.287,10.98,5.999,10.74,5.999z"/>
</g>
</svg>
