<?xml version="1.0" encoding="utf-8"?>
<!-- Generator: Adobe Illustrator 25.1.0, SVG Export Plug-In . SVG Version: 6.00 Build 0)  -->
<svg version="1.1" xmlns="http://www.w3.org/2000/svg" xmlns:xlink="http://www.w3.org/1999/xlink" x="0px" y="0px"
	 viewBox="0 0 16 16" enable-background="new 0 0 16 16" xml:space="preserve">
<g fill="currentColor">
	<path d="M8,1C4.0999756,1,1,4.0999756,1,8s3.0999756,7,7,7s7-3.0999756,7-7S11.9000244,1,8,1z M7.5524902,4h0.8950195
		c0.2958374,0,0.5269775,0.2554321,0.4974976,0.5497437L8.5,9h-1L7.0549927,4.5497437C7.0255127,4.2554321,7.2566528,4,7.5524902,4z
		 M8,12c-0.5523071,0-1-0.4476929-1-1s0.4476929-1,1-1s1,0.4476929,1,1S8.5523071,12,8,12z"/>
</g>
</svg>
