<svg xmlns="http://www.w3.org/2000/svg" viewBox="0 0 16 16">
<g class="icon-color">
	<path d="M6,5C5.448,5,5,5.448,5,6s0.448,1,1,1s1-0.448,1-1S6.552,5,6,5L6,5z"/>
	<path d="M10,5C9.448,5,9,5.448,9,6s0.448,1,1,1s1-0.448,1-1S10.553,5,10,5L10,5z"/>
	<path d="M10,8C9.448,8,9,8.448,9,9s0.448,1,1,1s1-0.448,1-1S10.552,8,10,8L10,8z"/>
	<path d="M6,9c-0.552,0-1,0.448-1,1s0.448,1,1,1s1-0.448,1-1S6.552,9,6,9L6,9z"/>
	<path d="M7.301,15.074c-0.137,0-0.276-0.009-0.417-0.031c-0.566-0.09-1.042-0.369-1.502-0.639
		c-0.166-0.097-0.332-0.194-0.501-0.281c-0.163-0.083-0.334-0.156-0.507-0.231c-0.467-0.201-0.996-0.43-1.416-0.85
		c-0.421-0.421-0.65-0.951-0.852-1.419c-0.074-0.172-0.147-0.343-0.229-0.504c-0.085-0.168-0.183-0.333-0.28-0.498
		c-0.271-0.461-0.55-0.938-0.64-1.506C0.868,8.544,0.986,8.006,1.102,7.487c0.042-0.188,0.083-0.375,0.112-0.562
		c0.029-0.183,0.046-0.371,0.064-0.56C1.326,5.858,1.38,5.283,1.646,4.762C1.902,4.259,2.313,3.894,2.71,3.541
		c0.146-0.13,0.294-0.261,0.433-0.399C3.281,3.004,3.411,2.856,3.542,2.71C3.895,2.313,4.26,1.902,4.763,1.646
		c0.521-0.266,1.096-0.32,1.603-0.368c0.189-0.018,0.377-0.035,0.56-0.064c0.186-0.029,0.373-0.071,0.561-0.112
		c0.521-0.115,1.058-0.233,1.629-0.145c0.567,0.089,1.044,0.369,1.504,0.639c0.166,0.097,0.331,0.195,0.5,0.281
		c0.162,0.083,0.333,0.156,0.505,0.23c0.468,0.202,0.997,0.431,1.418,0.851l0,0c0.42,0.42,0.648,0.949,0.85,1.416
		c0.075,0.173,0.148,0.344,0.231,0.506c0.087,0.17,0.184,0.336,0.281,0.502c0.27,0.46,0.549,0.937,0.639,1.503
		c0.09,0.572-0.029,1.11-0.145,1.631c-0.042,0.187-0.083,0.374-0.112,0.56c-0.029,0.184-0.047,0.372-0.064,0.562
		c-0.048,0.506-0.102,1.08-0.367,1.601c-0.258,0.505-0.669,0.87-1.067,1.224c-0.146,0.13-0.292,0.26-0.43,0.396
		c-0.137,0.138-0.267,0.284-0.396,0.43c-0.354,0.398-0.719,0.811-1.224,1.067c-0.521,0.266-1.094,0.319-1.601,0.367
		c-0.189,0.018-0.379,0.035-0.562,0.064c-0.186,0.029-0.373,0.07-0.56,0.112C8.123,14.985,7.721,15.074,7.301,15.074z M8.702,1.926
		C8.389,1.926,8.053,2,7.703,2.078C7.495,2.124,7.287,2.169,7.081,2.202C6.878,2.234,6.669,2.254,6.459,2.273
		C6.001,2.316,5.568,2.357,5.217,2.536C4.882,2.707,4.594,3.031,4.289,3.374c-0.143,0.161-0.288,0.323-0.44,0.475
		s-0.314,0.297-0.476,0.44C3.031,4.594,2.707,4.881,2.536,5.216C2.357,5.567,2.316,6,2.273,6.458c-0.02,0.21-0.04,0.419-0.071,0.622
		C2.169,7.287,2.124,7.495,2.078,7.703C1.979,8.151,1.885,8.575,1.945,8.959c0.06,0.381,0.281,0.757,0.514,1.156
		c0.107,0.182,0.214,0.364,0.309,0.55c0.092,0.181,0.174,0.37,0.256,0.562c0.183,0.423,0.355,0.822,0.641,1.108
		c0.285,0.284,0.683,0.457,1.105,0.639c0.192,0.084,0.383,0.167,0.564,0.259c0.186,0.095,0.37,0.202,0.553,0.31
		c0.397,0.232,0.773,0.453,1.153,0.513c0.383,0.062,0.809-0.032,1.259-0.133c0.207-0.046,0.414-0.091,0.619-0.124
		c0.204-0.032,0.414-0.052,0.625-0.072c0.457-0.042,0.889-0.083,1.239-0.262c0.336-0.171,0.625-0.496,0.93-0.84
		c0.143-0.161,0.286-0.322,0.438-0.474s0.312-0.295,0.473-0.437c0.344-0.306,0.669-0.595,0.841-0.931
		c0.179-0.351,0.219-0.782,0.262-1.24c0.021-0.211,0.04-0.42,0.072-0.624c0.033-0.206,0.078-0.413,0.124-0.62
		c0.1-0.45,0.193-0.874,0.133-1.258c-0.06-0.38-0.28-0.756-0.513-1.153c-0.107-0.184-0.215-0.367-0.31-0.554
		c-0.092-0.18-0.175-0.371-0.259-0.563c-0.182-0.422-0.354-0.821-0.639-1.105l0,0c-0.285-0.285-0.685-0.458-1.106-0.64
		c-0.192-0.083-0.383-0.165-0.563-0.257c-0.186-0.095-0.369-0.202-0.552-0.309C9.716,2.226,9.34,2.005,8.959,1.945
		C8.875,1.932,8.79,1.926,8.702,1.926z"/>
</g>
</svg>