<svg xmlns="http://www.w3.org/2000/svg" viewBox="0 0 16 16">
<g>
	<path d="M8,1C5.515,1,3.5,3.015,3.5,5.5C3.5,7.263,5,9,5,11v2v0l0.862,1.724C5.947,14.893,6.12,15,6.309,15h3.382
		c0.189,0,0.363-0.107,0.447-0.276L11,13v0v-2c0-2,1.5-3.737,1.5-5.5C12.5,3.015,10.485,1,8,1z M4.5,5.5C4.5,3.57,6.07,2,8,2
		s3.5,1.57,3.5,3.5c0,0.654-0.31,1.401-0.638,2.192C10.571,8.394,10.251,9.164,10.096,10H5.904C5.749,9.164,5.429,8.394,5.138,7.692
		C4.81,6.901,4.5,6.154,4.5,5.5z M9.382,14H6.618l-0.5-1h3.764L9.382,14z M10,12H6v-1h4V12z"/>
	<path d="M8,3C6.619,3,5.5,4.119,5.5,5.5h1C6.5,4.673,7.173,4,8,4V3z"/>
</g>
</svg>