<?xml version="1.0" encoding="utf-8"?>
<!-- Generator: Adobe Illustrator 23.0.2, SVG Export Plug-In . SVG Version: 6.00 Build 0)  -->
<svg version="1.1" id="Ebene_1" xmlns="http://www.w3.org/2000/svg" xmlns:xlink="http://www.w3.org/1999/xlink" x="0px" y="0px"
	 viewBox="0 0 16 16" enable-background="new 0 0 16 16" xml:space="preserve">
<g class="icon-color">
<path d="M6,2v4H2V2H6 M6.5,1h-5C1.224,1,1,1.224,1,1.5v5C1,6.776,1.224,7,1.5,7h5C6.776,7,7,6.776,7,6.5v-5C7,1.224,6.776,1,6.5,1
	L6.5,1z"/>
<path d="M14,10v4h-4v-4H14 M14.5,9h-5C9.224,9,9,9.224,9,9.5v5C9,14.776,9.224,15,9.5,15h5c0.276,0,0.5-0.224,0.5-0.5v-5
	C15,9.224,14.776,9,14.5,9L14.5,9z"/>
<path d="M6,10v4H2v-4H6 M6.5,9h-5C1.224,9,1,9.224,1,9.5v5C1,14.776,1.224,15,1.5,15h5C6.776,15,7,14.776,7,14.5v-5
	C7,9.224,6.776,9,6.5,9L6.5,9z"/>
<path d="M14,2v4h-4V2H14 M14.5,1h-5C9.224,1,9,1.224,9,1.5v5C9,6.776,9.224,7,9.5,7h5C14.776,7,15,6.776,15,6.5v-5
	C15,1.224,14.776,1,14.5,1L14.5,1z"/>
</g>
</svg>
