<?xml version="1.0" encoding="utf-8"?>
<!-- Generator: Adobe Illustrator 25.4.0, SVG Export Plug-In . SVG Version: 6.00 Build 0)  -->
<svg version="1.1" xmlns="http://www.w3.org/2000/svg" xmlns:xlink="http://www.w3.org/1999/xlink" x="0px" y="0px"
	 viewBox="0 0 16 16" enable-background="new 0 0 16 16">
<g fill="currentColor">
	<path d="M8,1C5.515,1,3.5,3.015,3.5,5.5C3.5,7.263,5,9,5,11v2v0l0.862,1.724C5.947,14.893,6.12,15,6.309,15h3.382
		c0.189,0,0.363-0.107,0.447-0.276L11,13v0v-2c0-2,1.5-3.737,1.5-5.5C12.5,3.015,10.485,1,8,1z M4.5,5.5C4.5,3.57,6.07,2,8,2
		s3.5,1.57,3.5,3.5c0,0.654-0.31,1.401-0.638,2.192C10.571,8.394,10.251,9.164,10.096,10H5.904C5.749,9.164,5.429,8.394,5.138,7.692
		C4.81,6.901,4.5,6.154,4.5,5.5z M9.382,14H6.618l-0.5-1h3.764L9.382,14z M10,12H6v-1h4V12z"/>
	<path d="M8,3C6.619,3,5.5,4.119,5.5,5.5h1C6.5,4.673,7.173,4,8,4V3z"/>
	<path d="M12.988,3.197l1.757-1.014c0.239-0.138,0.321-0.444,0.183-0.683s-0.444-0.321-0.683-0.183l-1.757,1.015
		C12.68,2.603,12.847,2.893,12.988,3.197z"/>
	<path d="M1.255,2.183l1.757,1.014c0.141-0.305,0.308-0.594,0.5-0.866L1.755,1.317C1.516,1.179,1.21,1.261,1.072,1.5
		C0.934,1.739,1.016,2.045,1.255,2.183z"/>
	<path d="M15,5h-1.525C13.49,5.165,13.5,5.331,13.5,5.5c0,0.17-0.025,0.334-0.044,0.5H15c0.276,0,0.5-0.224,0.5-0.5
		C15.5,5.224,15.276,5,15,5z"/>
	<path d="M14.745,8.817l-1.768-1.021C12.891,8.019,12.8,8.24,12.709,8.459c-0.038,0.092-0.074,0.182-0.111,0.273l1.647,0.951
		c0.239,0.138,0.545,0.056,0.683-0.183C15.066,9.261,14.984,8.955,14.745,8.817z"/>
	<path d="M2.5,5.5c0-0.169,0.01-0.335,0.025-0.5H1C0.724,5,0.5,5.224,0.5,5.5C0.5,5.776,0.724,6,1,6h1.544
		C2.525,5.834,2.5,5.67,2.5,5.5z"/>
	<path d="M3.291,8.459C3.2,8.24,3.109,8.019,3.022,7.796L1.255,8.817C1.016,8.955,0.934,9.261,1.072,9.5s0.444,0.321,0.683,0.183
		l1.647-0.951C3.365,8.641,3.329,8.551,3.291,8.459z"/>
</g>
</svg>
