<svg xmlns="http://www.w3.org/2000/svg" viewBox="0 0 16 16">
<g>
	<path d="M12.5,5c-0.1975098,0-0.3850708,0.0404053-0.5577393,0.1097412C11.7696533,4.4718018,11.1925049,4,10.5,4
		c-0.3859253,0-0.7341919,0.1498413-1,0.3892822C9.2341919,4.1498413,8.8859253,4,8.5,4C8.3237305,4,8.1571045,4.0359497,8,4.0917969
		V1.999939C8,1.1715088,7.3284302,0.5,6.5,0.5S5,1.1715088,5,1.999939v6.6287231L3.8106079,7.43927
		C3.5177612,7.1464233,3.1338501,7,2.75,7C2.3660889,7,1.9822998,7.1464233,1.6893311,7.4393311
		c-0.5857544,0.5857544-0.5857544,1.5355225,0,2.1212769l4.5961914,4.5673218C7.0838013,14.9729614,8.2095337,15.5,9.5,15.5
		c2.4852905,0,4.5-2.0147095,4.5-4.5V9.5v-3C14,5.6715698,13.3284302,5,12.5,5z M13,11c0,1.9298706-1.5701294,3.5-3.5,3.5
		c-0.9940796,0-1.8875732-0.4211426-2.5253296-1.0889282L2.3964233,8.8535156
		c-0.1949463-0.1949463-0.1949463-0.512146,0.000061-0.7070923C2.5238647,8.0189819,2.6726685,8,2.75,8
		c0.0773926,0,0.2261353,0.0189819,0.3535156,0.1464233L6,11.0424194V1.999939C6,1.7242432,6.2243042,1.5,6.5,1.5
		S7,1.7242432,7,1.999939V8h1V5.5C8,5.2243042,8.2243042,5,8.5,5S9,5.2243042,9,5.5V8h1.000061L10,5.5
		C10,5.2243042,10.2243042,5,10.5,5S11,5.2243042,11,5.5V8h1V6.5C12,6.2243042,12.2243042,6,12.5,6S13,6.2243042,13,6.5
		l0.0002441,4.5H13z"/>
</g>
</svg>