<svg xmlns="http://www.w3.org/2000/svg" viewBox="0 0 16 16">
<g class="icon-color">
	<polygon points="7,9 7,9.7 10,6.7 9.3,6 6.3,9 	"/>
	<path d="M10.6,9.6L6.4,5.4C6.3,5.3,6.4,5,6.6,5h4.1C10.9,5,11,5.1,11,5.3v4.1C11,9.6,10.7,9.7,10.6,9.6z"/>
	<path d="M1,10.5v4C1,14.8,1.2,15,1.5,15h4C5.8,15,6,14.8,6,14.5v-4C6,10.2,5.8,10,5.5,10h-4C1.2,10,1,10.2,1,10.5z M2,14v-3h3v3H2z
		"/>
	<g opacity="0.5">
		<polygon points="2,7 1,7 1,8 1,8 1,9 2,9 2,7 		"/>
		<polygon points="2,4 1,4 1,5 1,5 1,6 2,6 2,4 		"/>
		<polygon points="15,7 14,7 14,8 14,8 14,9 15,9 15,7 		"/>
		<polygon points="15,10 14,10 14,11 14,11 14,12 15,12 15,10 		"/>
		<polygon points="15,4 14,4 14,5 14,5 14,6 15,6 15,4 		"/>
		<polygon points="3,1 2,1 1,1 1,2 1,2 1,3 2,3 2,2 2,2 2,2 3,2 3,1 		"/>
		<polygon points="15,1 14,1 13,1 13,2 14,2 14,2 14,2 14,3 15,3 15,2 15,1 		"/>
		<polygon points="15,13 14,13 14,14 14,14 14,14 13,14 13,15 14,15 14,15 14,15 14,14 14,14 14,15 15,15 15,14 15,13 		"/>
		<polygon points="6,1 4,1 4,2 5,2 5,2 6,2 6,1 		"/>
		<polygon points="9,1 7,1 7,2 8,2 8,2 9,2 9,1 		"/>
		<polygon points="12,1 10,1 10,2 11,2 11,2 12,2 12,1 		"/>
		<polygon points="9,14 7,14 7,15 8,15 8,15 9,15 9,14 		"/>
		<polygon points="12,14 10,14 10,15 11,15 11,15 12,15 12,14 		"/>
	</g>
</g>
</svg>