<svg xmlns="http://www.w3.org/2000/svg" version="1.1" viewBox="0 0 16 16">
<g fill="currentColor">
	<path d="M11.75,9h-7.5C4.1119289,9,4,8.8880711,4,8.75v-1.5C4,7.1119289,4.1119289,7,4.25,7h7.5C11.8880711,7,12,7.1119289,12,7.25
		v1.5C12,8.8880711,11.8880711,9,11.75,9z"/>
	<path d="M3.5,3C2.6245117,4.2024179,2,5.7974825,2,8.0184832C2,10.2025175,2.6489258,11.7731047,3.5,13h-1
		C1.7441406,11.9819164,1,10.4113302,1,8.0184832C1.012207,5.6011591,1.7441406,4.0305724,2.5,3H3.5z"/>
	<path d="M13.5,3c0.7558594,1.0305724,1.487793,2.6011591,1.5,5.0184832C15,10.4113302,14.2558594,11.9819164,13.5,13h-1
		c0.8510742-1.2268953,1.5-2.7974825,1.5-4.9815168C14,5.7974825,13.3754883,4.2024179,12.5,3H13.5z"/>
</g>
</svg>
