<?xml version="1.0" encoding="utf-8"?>
<!-- Generator: Adobe Illustrator 23.0.3, SVG Export Plug-In . SVG Version: 6.00 Build 0)  -->
<svg version="1.1" id="Ebene_1" xmlns="http://www.w3.org/2000/svg" xmlns:xlink="http://www.w3.org/1999/xlink" x="0px" y="0px"
	 viewBox="0 0 16 16" enable-background="new 0 0 16 16" xml:space="preserve">
<g fill="currentColor">
	<path d="M2,1.5v13C2,14.776,2.224,15,2.5,15h11c0.276,0,0.5-0.224,0.5-0.5v-13C14,1.224,13.776,1,13.5,1h-11C2.224,1,2,1.224,2,1.5
		z M13,14H3v-3h0.586l1.707,1.707L5.586,13H6h4h0.414l0.293-0.293L12.414,11H13V14z M12,10l-2,2H6l-2-2H3V2h10v8H12z"/>
	<polygon points="11,4 5,4 5,5 11,5 11,4 		"/>
	<polygon points="11,6 5,6 5,7 11,7 11,6 		"/>
	<polygon points="11,8 5,8 5,9 11,9 11,8 		"/>
</g>
</svg>
