<?xml version="1.0" encoding="utf-8"?>
<!-- Generator: Adobe Illustrator 22.1.0, SVG Export Plug-In . SVG Version: 6.00 Build 0)  -->
<svg version="1.1" id="Ebene_1" xmlns="http://www.w3.org/2000/svg" xmlns:xlink="http://www.w3.org/1999/xlink" x="0px" y="0px"
	 viewBox="0 0 16 16" enable-background="new 0 0 16 16" xml:space="preserve">
<g class="icon-color">
	<path d="M15,9V8h-3V6l1.9-1.9C13.9,4.1,14,3.9,14,3.8V1h-1v2.3c0,0.1-0.1,0.3-0.1,0.4L12,4.5V4h-2V3L9.1,2.1C9.1,2.1,8.9,2,8.8,2
		H7.2C7.1,2,6.9,2.1,6.9,2.1L6,3v1H4v1L3.1,4.1C3.1,4.1,3,3.9,3,3.8V1H2v3.3c0,0.1,0.1,0.3,0.1,0.4L4,6.5V8H1v1h3v1.5l-1.9,1.9
		C2.1,12.4,2,12.6,2,12.7V15h1v-1.8c0-0.1,0.1-0.3,0.1-0.4L4,12l1.9,1.9C5.9,13.9,6.1,14,6.2,14h3.6c0.1,0,0.3-0.1,0.4-0.1l1.6-1.6
		l1.1,1.1c0.1,0.1,0.1,0.2,0.1,0.4V15h1v-1.8c0-0.1-0.1-0.3-0.1-0.4L12,11V9H15z M7,3.4L7.4,3h1.2L9,3.4V4H7V3.4z M11,11.6L9.6,13
		H6.4L5,11.6V5h2.5v6h1V5H11V11.6z"/>
</g>
</svg>
