<?xml version="1.0" encoding="utf-8"?>
<!-- Generator: Adobe Illustrator 27.2.0, SVG Export Plug-In . SVG Version: 6.00 Build 0)  -->
<svg version="1.1" xmlns="http://www.w3.org/2000/svg" xmlns:xlink="http://www.w3.org/1999/xlink" x="0px" y="0px"
	 viewBox="0 0 16 16" enable-background="new 0 0 16 16">
<g fill="currentColor">
	<rect x="4" y="14" width="2" height="1"/>
	<rect x="10.001" y="7.999" width="2" height="1"/>
	<rect x="1" y="10" width="1" height="2"/>
	<rect x="4" y="7.001" width="2" height="1"/>
	<rect x="14" y="4" width="1" height="2"/>
	<rect x="6.999" y="4" width="1" height="2"/>
	<path d="M3,14c-0.551,0-1-0.449-1-1H1c0,1.105,0.895,2,2,2V14z"/>
	<path d="M3,8.001v-1c-1.105,0-2,0.895-2,2h1C2,8.45,2.449,8.001,3,8.001z"/>
	<path d="M13,2c0.551,0,1,0.449,1,1h1c0-1.105-0.895-2-2-2V2z"/>
	<rect x="10" y="1" width="2" height="1"/>
	<path d="M9.001,2V1c-1.105,0-2,0.895-2,2h1C8.001,2.449,8.45,2,9.001,2z"/>
	<path d="M6.999,14v1c1.105,0,2-0.895,2-2h-1C7.999,13.551,7.55,14,6.999,14z"/>
	<path d="M13,7.999v1c1.105,0,2-0.895,2-2h-1C14,7.55,13.551,7.999,13,7.999z"/>
	<rect x="7.999" y="10" width="1" height="2"/>
	<g opacity="0.5">
		<path d="M5,3v2H3V3H5 M5,2H3C2.448,2,2,2.448,2,3v2c0,0.552,0.448,1,1,1h2c0.552,0,1-0.448,1-1V3C6,2.448,5.552,2,5,2L5,2z"/>
	</g>
	<path d="M12,7h-2C9.448,7,9,6.552,9,6V4c0-0.552,0.448-1,1-1h2c0.552,0,1,0.448,1,1v2C13,6.552,12.552,7,12,7z"/>
	<g opacity="0.5">
		<path d="M13,11v2h-2v-2H13 M13,10h-2c-0.552,0-1,0.448-1,1v2c0,0.552,0.448,1,1,1h2c0.552,0,1-0.448,1-1v-2
			C14,10.448,13.552,10,13,10L13,10z"/>
	</g>
	<path d="M6,13H4c-0.552,0-1-0.448-1-1v-2c0-0.552,0.448-1,1-1h2c0.552,0,1,0.448,1,1v2C7,12.552,6.552,13,6,13z"/>
	<path d="M7,7L7,7v1c0.552,0,1-0.448,1-1v0H7z"/>
	<path d="M9,9L9,9V8C8.448,8,8,8.448,8,9v0H9z"/>
</g>
</svg>
