<?xml version="1.0" encoding="utf-8"?>
<!-- Generator: Adobe Illustrator 22.1.0, SVG Export Plug-In . SVG Version: 6.00 Build 0)  -->
<svg version="1.1" id="Ebene_1" xmlns="http://www.w3.org/2000/svg" xmlns:xlink="http://www.w3.org/1999/xlink" x="0px" y="0px"
	 viewBox="0 0 16 16" enable-background="new 0 0 16 16" xml:space="preserve">
<g class="icon-color">
	<path d="M8.5,9h-1C7.2,9,7,8.8,7,8.5v-1C7,7.2,7.2,7,7.5,7h1C8.8,7,9,7.2,9,7.5v1C9,8.8,8.8,9,8.5,9z"/>
	<path d="M8.5,4h-1C7.2,4,7,3.8,7,3.5v-1C7,2.2,7.2,2,7.5,2h1C8.8,2,9,2.2,9,2.5v1C9,3.8,8.8,4,8.5,4z"/>
	<path d="M8.5,14h-1C7.2,14,7,13.8,7,13.5v-1C7,12.2,7.2,12,7.5,12h1C8.8,12,9,12.2,9,12.5v1C9,13.8,8.8,14,8.5,14z"/>
</g>
</svg>
