<?xml version="1.0" encoding="utf-8"?>
<!-- Generator: Adobe Illustrator 24.3.0, SVG Export Plug-In . SVG Version: 6.00 Build 0)  -->
<svg version="1.1" id="Ebene_1" xmlns="http://www.w3.org/2000/svg" xmlns:xlink="http://www.w3.org/1999/xlink" x="0px" y="0px"
	 viewBox="0 0 16 16" enable-background="new 0 0 16 16" xml:space="preserve">
<g class="icon-color">
	<path d="M5,6c1.103,0,2,0.897,2,2s-0.897,2-2,2S3,9.103,3,8S3.897,6,5,6 M5,5C3.343,5,2,6.343,2,8s1.343,3,3,3s3-1.343,3-3
		S6.657,5,5,5L5,5z"/>
	<path d="M11,4c2.206,0,4,1.794,4,4s-1.794,4-4,4H5c-2.206,0-4-1.794-4-4s1.794-4,4-4H11 M11,3H5C2.239,3,0,5.239,0,8s2.239,5,5,5
		h6c2.761,0,5-2.239,5-5S13.761,3,11,3L11,3z"/>
</g>
</svg>
