<svg xmlns="http://www.w3.org/2000/svg" version="1.1" viewBox="0 0 16 16">
<g fill="currentColor">
	<path d="M6,5C5.448,5,5,5.448,5,6s0.448,1,1,1s1-0.448,1-1S6.552,5,6,5L6,5z"/>
	<path d="M10,8C9.448,8,9,8.448,9,9c0,0.552,0.448,1,1,1s1-0.448,1-1C11,8.448,10.552,8,10,8L10,8z"/>
	<path d="M6,9c-0.552,0-1,0.448-1,1c0,0.552,0.448,1,1,1s1-0.448,1-1C7,9.448,6.552,9,6,9L6,9z"/>
	<path d="M7.636,2.092c0.385,1.516,1.551,2.745,3.07,3.202c0.456,1.518,1.686,2.685,3.201,3.07
		c-0.041,0.186-0.08,0.371-0.109,0.554c-0.033,0.205-0.053,0.415-0.073,0.629c-0.041,0.436-0.084,0.887-0.262,1.236
		c-0.172,0.338-0.497,0.626-0.867,0.954c-0.151,0.135-0.302,0.27-0.449,0.417c-0.142,0.143-0.277,0.293-0.436,0.472
		c-0.305,0.343-0.592,0.667-0.929,0.839c-0.349,0.178-0.801,0.221-1.238,0.262c-0.212,0.02-0.423,0.04-0.625,0.072
		c-0.207,0.033-0.415,0.078-0.62,0.124C7.946,14,7.612,14.074,7.301,14.074c-0.085,0-0.172-0.005-0.26-0.019
		c-0.379-0.06-0.753-0.279-1.191-0.536c-0.17-0.099-0.34-0.197-0.516-0.288c-0.168-0.086-0.344-0.163-0.565-0.259
		C4.367,12.8,3.951,12.62,3.665,12.335c-0.286-0.286-0.466-0.703-0.65-1.13c-0.08-0.184-0.159-0.367-0.247-0.54
		c-0.095-0.186-0.202-0.369-0.309-0.551C2.226,9.716,2.005,9.34,1.945,8.961C1.884,8.574,1.978,8.151,2.08,7.692
		c0.045-0.205,0.09-0.409,0.121-0.612c0.032-0.204,0.052-0.413,0.072-0.625c0.041-0.437,0.084-0.889,0.263-1.239
		C2.707,4.882,3.03,4.595,3.373,4.29C3.534,4.146,3.696,4.002,3.848,3.85c0.146-0.146,0.284-0.3,0.441-0.476
		c0.305-0.343,0.592-0.667,0.928-0.838c0.35-0.179,0.802-0.221,1.241-0.263c0.21-0.02,0.419-0.04,0.623-0.072
		C7.264,2.173,7.448,2.134,7.636,2.092 M8.506,0.938c-0.349,0.022-0.689,0.09-1.02,0.163C7.299,1.143,7.112,1.184,6.926,1.214
		C6.743,1.242,6.555,1.26,6.366,1.278C5.859,1.326,5.284,1.379,4.763,1.645C4.259,1.902,3.894,2.312,3.541,2.71
		c-0.13,0.146-0.261,0.294-0.399,0.432c-0.139,0.139-0.286,0.27-0.433,0.399C2.312,3.894,1.902,4.259,1.645,4.762
		c-0.266,0.521-0.32,1.096-0.368,1.603C1.26,6.554,1.243,6.742,1.214,6.925C1.184,7.112,1.143,7.299,1.101,7.487
		c-0.115,0.52-0.234,1.057-0.145,1.628c0.09,0.568,0.37,1.045,0.64,1.506c0.097,0.165,0.194,0.33,0.28,0.498
		c0.082,0.161,0.155,0.332,0.229,0.504c0.202,0.468,0.431,0.998,0.852,1.419c0.42,0.42,0.949,0.648,1.416,0.85
		c0.173,0.075,0.344,0.148,0.507,0.231c0.169,0.087,0.335,0.185,0.501,0.281c0.46,0.27,0.936,0.549,1.502,0.639
		c0.141,0.022,0.28,0.031,0.417,0.031c0.419,0,0.822-0.089,1.214-0.176c0.187-0.042,0.374-0.083,0.56-0.112
		c0.183-0.029,0.372-0.047,0.562-0.064c0.507-0.048,1.08-0.102,1.601-0.367c0.505-0.257,0.87-0.669,1.224-1.067
		c0.13-0.145,0.26-0.292,0.396-0.43c0.138-0.137,0.284-0.267,0.43-0.396c0.398-0.354,0.81-0.719,1.067-1.224
		c0.266-0.521,0.319-1.095,0.367-1.601c0.018-0.189,0.035-0.378,0.064-0.562c0.029-0.186,0.07-0.373,0.112-0.56
		c0.073-0.332,0.142-0.672,0.164-1.022C15.041,7.494,15.021,7.5,15,7.5c-1.777,0-3.229-1.33-3.454-3.046
		C9.83,4.229,8.5,2.777,8.5,1C8.5,0.979,8.506,0.959,8.506,0.938L8.506,0.938z"/>
</g>
</svg>
