<?xml version="1.0" encoding="utf-8"?>
<!-- Generator: Adobe Illustrator 25.1.0, SVG Export Plug-In . SVG Version: 6.00 Build 0)  -->
<svg version="1.1" id="Ebene_1" xmlns="http://www.w3.org/2000/svg" xmlns:xlink="http://www.w3.org/1999/xlink" x="0px" y="0px"
	 viewBox="0 0 16 16" enable-background="new 0 0 16 16" xml:space="preserve">
<g fill="currentColor">
	<path d="M14.5,5h-13C1.2,5,1,5.2,1,5.5v9C1,14.8,1.2,15,1.5,15h13c0.3,0,0.5-0.2,0.5-0.5v-9C15,5.2,14.8,5,14.5,5z M14,14H2V6h12
		V14z"/>
	<path d="M2.5,5.5h10V5h-1C11.8,4.6,12,4.1,12,3.5C12,2.1,10.9,1,9.5,1C8.7,1,8,1.4,7.5,2C7,1.4,6.3,1,5.5,1C4.1,1,3,2.1,3,3.5
		C3,4.1,3.2,4.6,3.5,5h-1V5.5z M8,3.5C8,2.7,8.7,2,9.5,2S11,2.7,11,3.5S10.3,5,9.5,5H8V3.5z M5.5,2C6.3,2,7,2.7,7,3.5V5H5.5
		C4.7,5,4,4.3,4,3.5S4.7,2,5.5,2z"/>
	<rect x="8.6" y="4.8" transform="matrix(0.7099 -0.7044 0.7044 0.7099 -2.4129 8.6148)" width="1.3" height="5"/>
	<rect x="3.3" y="6.6" transform="matrix(0.7044 -0.7098 0.7098 0.7044 -3.4365 6.2208)" width="5" height="1.3"/>
	<polygon points="9,12 7,12 7,13 9,13 	"/>
	<polygon points="13,12 10,12 10,13 13,13 	"/>
</g>
</svg>
