<svg xmlns="http://www.w3.org/2000/svg" version="1.1" viewBox="0 0 16 16">
<g fill="currentColor">
	<path d="M13.7,3.2l-1.9-1.9C11.6,1.1,11.4,1,11.1,1H2.5C2.2,1,2,1.2,2,1.5v7c0.3-0.2,0.7-0.3,1-0.4V2h7v2.5C10,4.8,10.2,5,10.5,5
		H13c0,0,0.2,0,0.4,0c0.2,0,0.4,0.1,0.6,0.2V5V4V3.9C14,3.6,13.9,3.4,13.7,3.2z M11,4V2l2,2H11z"/>
	<path d="M14,8.7c-0.4,0-0.7,0.1-1,0.2v0.3c0.3,0.3,0.5,0.7,0.5,1.1c0,0.5-0.1,0.9-0.4,1.2c0,0,0,0-0.1,0V14H7.7
		c-0.3,0.3-0.7,0.5-1.1,0.5c-0.4,0-0.8-0.2-1.1-0.5H3v-1.3c-0.1,0-0.2,0-0.4,0c0,0-0.1,0-0.1,0c-0.2,0-0.3,0-0.5,0.1v1.8
		C2,14.8,2.2,15,2.5,15h11c0.3,0,0.5-0.2,0.5-0.5L14,8.7C14,8.7,14,8.7,14,8.7z"/>
	<path d="M15,7.1c0,0-0.8-1-1.7-1.1c-1-0.1-2,0.2-2.8,0.7C10,6.4,9.3,6.1,8.7,6.1c-0.9-0.1-2,0.5-2.6,1.1c0,0,0,0,0,0c0,0,0,0,0,0.1
		c0,0.1,0,0.1,0.1,0.1c0,0,0,0,0,0c0,0,0,0,0,0c0.4-0.1,0.8-0.1,1.3-0.1C8.6,7.5,9.7,7.9,10.5,9c0,0,0.1,0,0.1,0
		c1-1.3,2.4-1.9,4-1.7c0.1,0,0.2,0,0.3,0c0,0,0.1,0,0.1,0C15,7.3,15,7.3,15,7.1C15,7.2,15,7.2,15,7.1z"/>
	<path d="M11.9,10.3c0,0-1-1.1-2.1-1.3c-1.2-0.1-2.4,0.4-3.3,1.2C5.8,9.7,5,9.5,4.2,9.4C3,9.4,1.7,10.2,1.1,11.1c0,0,0,0,0,0
		c0,0,0,0.1,0,0.1c0,0.1,0,0.1,0.1,0.1c0,0,0,0,0,0c0,0,0,0,0,0c0.5-0.2,1-0.2,1.6-0.2c1.5,0.1,2.9,0.6,3.9,1.8
		c0.1,0.1,0.1,0.1,0.1,0c1.1-1.8,2.8-2.6,4.8-2.5c0.1,0,0.2,0,0.3,0c0,0,0.1,0,0.1,0c0.1,0,0.1-0.1,0.1-0.1
		C12,10.3,12,10.3,11.9,10.3z"/>
</g>
</svg>
