<svg xmlns="http://www.w3.org/2000/svg" viewBox="0 0 16 16">
<g>
	<path d="M9,12v2H7v-2H9 M9.5,11h-3C6.2,11,6,11.2,6,11.5v3C6,14.8,6.2,15,6.5,15h3c0.3,0,0.5-0.2,0.5-0.5v-3
		C10,11.2,9.8,11,9.5,11L9.5,11z"/>
	<path d="M9,7v2H7V7H9 M9.5,6h-3C6.2,6,6,6.2,6,6.5v3C6,9.8,6.2,10,6.5,10h3C9.8,10,10,9.8,10,9.5v-3C10,6.2,9.8,6,9.5,6L9.5,6z"/>
	<path d="M9,2v2H7V2H9 M9.5,1h-3C6.2,1,6,1.2,6,1.5v3C6,4.8,6.2,5,6.5,5h3C9.8,5,10,4.8,10,4.5v-3C10,1.2,9.8,1,9.5,1L9.5,1z"/>
	<path d="M4,7v2H2V7H4 M4.5,6h-3C1.2,6,1,6.2,1,6.5v3C1,9.8,1.2,10,1.5,10h3C4.8,10,5,9.8,5,9.5v-3C5,6.2,4.8,6,4.5,6L4.5,6z"/>
	<path d="M4,2v2H2V2H4 M4.5,1h-3C1.2,1,1,1.2,1,1.5v3C1,4.8,1.2,5,1.5,5h3C4.8,5,5,4.8,5,4.5v-3C5,1.2,4.8,1,4.5,1L4.5,1z"/>
	<path d="M4,12v2H2v-2H4 M4.5,11h-3C1.2,11,1,11.2,1,11.5v3C1,14.8,1.2,15,1.5,15h3C4.8,15,5,14.8,5,14.5v-3C5,11.2,4.8,11,4.5,11
		L4.5,11z"/>
	<path d="M14,7v2h-2V7H14 M14.5,6h-3C11.2,6,11,6.2,11,6.5v3c0,0.3,0.2,0.5,0.5,0.5h3c0.3,0,0.5-0.2,0.5-0.5v-3
		C15,6.2,14.8,6,14.5,6L14.5,6z"/>
	<path d="M14,2v2h-2V2H14 M14.5,1h-3C11.2,1,11,1.2,11,1.5v3C11,4.8,11.2,5,11.5,5h3C14.8,5,15,4.8,15,4.5v-3C15,1.2,14.8,1,14.5,1
		L14.5,1z"/>
	<path d="M14,12v2h-2v-2H14 M14.5,11h-3c-0.3,0-0.5,0.2-0.5,0.5v3c0,0.3,0.2,0.5,0.5,0.5h3c0.3,0,0.5-0.2,0.5-0.5v-3
		C15,11.2,14.8,11,14.5,11L14.5,11z"/>
</g>
</svg>