<?xml version="1.0" encoding="utf-8"?>
<!-- Generator: Adobe Illustrator 25.1.0, SVG Export Plug-In . SVG Version: 6.00 Build 0)  -->
<svg version="1.1" xmlns="http://www.w3.org/2000/svg" xmlns:xlink="http://www.w3.org/1999/xlink" x="0px" y="0px"
	 viewBox="0 0 16 16" enable-background="new 0 0 16 16">
<g fill="currentColor">
	<path d="M13,1H3C1.9,1,1,1.9,1,3v10c0,1.1,0.9,2,2,2h10c1.1,0,2-0.9,2-2V3C15,1.9,14.1,1,13,1z M12.1,5.7l-4.9,4.9L6.8,11
		c-0.1,0.1-0.3,0.1-0.4,0L6,10.7L3.9,8.6c-0.1-0.1-0.1-0.3,0-0.4l0.3-0.4c0.1-0.1,0.3-0.1,0.4,0l2,2L11.3,5c0.1-0.1,0.3-0.1,0.4,0
		l0.4,0.3C12.2,5.4,12.2,5.6,12.1,5.7z"/>
</g>
</svg>
