<?xml version="1.0" encoding="utf-8"?>
<!-- Generator: Adobe Illustrator 23.1.0, SVG Export Plug-In . SVG Version: 6.00 Build 0)  -->
<svg version="1.1" id="Ebene_1" xmlns="http://www.w3.org/2000/svg" xmlns:xlink="http://www.w3.org/1999/xlink" x="0px" y="0px"
	 viewBox="0 0 16 16" enable-background="new 0 0 16 16" xml:space="preserve">
<g class="icon-color">
<path d="M8,1C4.1,1,1,4.1,1,8s3.1,7,7,7s7-3.1,7-7S11.9,1,8,1z M6.731,13.598L8,11.059l1.278,2.556
	c-0.395,0.086-0.804,0.135-1.225,0.135C7.598,13.75,7.157,13.694,6.731,13.598z M10.602,13.144L9,9.941V8.567
	c1.202-0.342,2.767-1.05,2.853-1.09C11.943,7.437,12,7.348,12,7.25v-1c0-0.085-0.043-0.164-0.115-0.21
	C11.844,6.013,11.797,6,11.75,6c-0.035,0-0.07,0.007-0.103,0.022C10.892,6.364,8.766,7.25,8,7.25c-0.766,0-2.892-0.886-3.646-1.228
	C4.32,6.007,4.285,6,4.25,6C4.203,6,4.156,6.013,4.115,6.04C4.043,6.086,4,6.165,4,6.25v1c0,0.098,0.058,0.188,0.147,0.228
	C4.234,7.517,5.792,8.216,7,8.561v1.38l-1.594,3.188C3.545,12.201,2.25,10.311,2.25,8c0-3.301,2.532-5.75,5.803-5.75
	c3.271,0,5.697,2.556,5.697,5.75C13.75,10.266,12.473,12.206,10.602,13.144z"/>
<circle cx="8" cy="5" r="1.125"/>
</g>
</svg>
