<?xml version="1.0" encoding="UTF-8" standalone="no"?>
<svg width="16px" height="16px" viewBox="0 0 16 16" version="1.1" xmlns="http://www.w3.org/2000/svg" xmlns:xlink="http://www.w3.org/1999/xlink" xmlns:sketch="http://www.bohemiancoding.com/sketch/ns">
    <!-- Generator: Sketch 3.3.3 (12072) - http://www.bohemiancoding.com/sketch -->
    <title>actions-page-move</title>
    <desc>Created with Sketch.</desc>
    <defs></defs>
<g class="icon-color">
        <path d="M7,14 L3,14 L3,2 L10,2 L10,4.5 C10,4.776 10.224,5 10.5,5 L13,5 L13,6.21298361 L14,7.21298361 L14,3.914 C14,3.649 13.895,3.394 13.707,3.207 L11.793,1.293 C11.605,1.105 11.351,1 11.086,1 L2.5,1 C2.224,1 2,1.224 2,1.5 L2,14.5 C2,14.776 2.224,15 2.5,15 L8,15 L7,14 L7,14 Z M11.9999904,12.0392669 L14.0330184,12.0392669 L14.0406709,13.0203053 C14.0406709,13.243751 14.3100786,13.3547668 14.4677634,13.197082 L15.8912357,11.7007488 C15.9888165,11.6031681 15.9888165,11.4447762 15.8912357,11.3471954 L14.4440816,9.80755864 C14.2863968,9.64987383 14.0169891,9.76088959 14.0169891,9.98433534 L14.0252181,11.0392765 L11.9999904,11.0392765 L11.9999904,9.01404888 L13.0549316,9.02227782 C13.2783774,9.02227782 13.3893931,8.75287014 13.2317083,8.59518533 L11.6920713,7.11212158 C11.5944906,7.01454084 11.4360987,7.01454084 11.338518,7.11212158 L9.84218501,8.5715036 C9.6845002,8.72918841 9.79551596,8.9985961 10.0189617,8.9985961 L11,9.00624857 L11,11.0392765 L9.04867525,11.0392766 L9.05690419,9.98433534 C9.05690419,9.76088959 8.78749651,9.64987383 8.62981169,9.80755864 L7.09017469,11.3471956 C6.99259396,11.4447763 6.99259396,11.6031682 7.09017469,11.700749 L8.60612997,13.197082 C8.76381478,13.3547668 9.03322246,13.243751 9.03322246,13.0203053 L9.04087494,12.039267 L11,12.0392669 L11,13.998392 L10.0189617,14.0060445 C9.79551596,14.0060445 9.6845002,14.2754522 9.84218501,14.433137 L11.338518,15.8714603 C11.4360987,15.9690411 11.5944906,15.9690411 11.6920713,15.8714603 L13.2317083,14.4094553 C13.3893931,14.2517705 13.2783774,13.9823628 13.0549316,13.9823628 L11.9999904,13.9905917 L11.9999904,12.0392669 Z M11,2 L13,4 L11,4 L11,2 L11,2 Z"></path>
    </g>
</svg>