<?xml version="1.0" encoding="utf-8"?>
<!-- Generator: Adobe Illustrator 25.4.0, SVG Export Plug-In . SVG Version: 6.00 Build 0)  -->
<svg version="1.1" xmlns="http://www.w3.org/2000/svg" xmlns:xlink="http://www.w3.org/1999/xlink" x="0px" y="0px"
	 viewBox="0 0 16 16" enable-background="new 0 0 16 16" xml:space="preserve">
<g class="icon-color">
	<path d="M14.5,2h-13C1.2,2,1,2.2,1,2.5v9C1,11.8,1.2,12,1.5,12H6v1H4v1h2h4h2v-1h-2v-1h4.5c0.3,0,0.5-0.2,0.5-0.5v-9
		C15,2.2,14.8,2,14.5,2z M14,11H2V3h12V11z"/>
	<path d="M10,8.75c-0.5-0.188-0.875-0.375-1.25-0.5c0-0.062-0.125-0.312-0.125-0.75c0.25-0.25,0.438-0.625,0.438-0.875v-0.75
		C9.062,5.375,8.688,5,8.125,5h-0.25c-0.5,0-0.938,0.375-0.938,0.875v0.688c0,0.312,0.188,0.688,0.438,0.938l0,0
		c0,0.438-0.125,0.688-0.125,0.75C6.875,8.375,6.5,8.562,6,8.75C5.688,8.938,5.5,9,5.5,10H8h2.5C10.5,9,10.312,8.875,10,8.75z"/>
</g>
</svg>
