<?xml version="1.0" encoding="utf-8"?>
<!-- Generator: Adobe Illustrator 23.0.2, SVG Export Plug-In . SVG Version: 6.00 Build 0)  -->
<svg version="1.1" id="Ebene_1" xmlns="http://www.w3.org/2000/svg" xmlns:xlink="http://www.w3.org/1999/xlink" x="0px" y="0px"
	 viewBox="0 0 16 16" enable-background="new 0 0 16 16" xml:space="preserve">
<g class="icon-color">
<path d="M9,2v2H2V2H9 M9.5,1h-8C1.224,1,1,1.224,1,1.5v3C1,4.776,1.224,5,1.5,5h8C9.776,5,10,4.776,10,4.5v-3
	C10,1.224,9.776,1,9.5,1L9.5,1z"/>
<path d="M14,12v2H7v-2H14 M14.5,11h-8C6.224,11,6,11.224,6,11.5v3C6,14.776,6.224,15,6.5,15h8c0.276,0,0.5-0.224,0.5-0.5v-3
	C15,11.224,14.776,11,14.5,11L14.5,11z"/>
<path d="M9,7v2H2V7H9 M9.5,6h-8C1.224,6,1,6.224,1,6.5v3C1,9.776,1.224,10,1.5,10h8C9.776,10,10,9.776,10,9.5v-3
	C10,6.224,9.776,6,9.5,6L9.5,6z"/>
<path d="M14,2v7h-2V2H14 M14.5,1h-3C11.224,1,11,1.224,11,1.5v8c0,0.276,0.224,0.5,0.5,0.5h3c0.276,0,0.5-0.224,0.5-0.5v-8
	C15,1.224,14.776,1,14.5,1L14.5,1z"/>
<path d="M4,12v2H2v-2H4 M4.5,11h-3C1.224,11,1,11.224,1,11.5v3C1,14.776,1.224,15,1.5,15h3C4.776,15,5,14.776,5,14.5v-3
	C5,11.224,4.776,11,4.5,11L4.5,11z"/>
</g>
</svg>
