<svg xmlns="http://www.w3.org/2000/svg" viewBox="0 0 16 16">
<g>
	<path d="M14.5,9h-13C1.224,9,1,8.776,1,8.5v-1C1,7.224,1.224,7,1.5,7h13C14.776,7,15,7.224,15,7.5v1C15,8.776,14.776,9,14.5,9z"/>
	<path d="M7.865,5.93l-2.31-2.56c-0.06-0.07-0.07-0.15-0.04-0.23C5.555,3.07,5.625,3,5.715,3h1.29V0h2v3h1.29
		c0.08,0,0.16,0.07,0.19,0.14c0.03,0.08,0.02,0.17-0.03,0.23l-2.28,2.56C8.135,5.97,8.085,6,8.025,6C7.965,6,7.905,5.97,7.865,5.93z
		"/>
	<path d="M8.135,10.07l2.31,2.56c0.06,0.07,0.07,0.15,0.04,0.23c-0.04,0.07-0.11,0.14-0.2,0.14h-1.29v3h-2v-3h-1.29
		c-0.08,0-0.16-0.07-0.19-0.14c-0.03-0.08-0.02-0.17,0.03-0.23l2.28-2.56c0.04-0.04,0.09-0.07,0.15-0.07
		C8.035,10,8.095,10.03,8.135,10.07z"/>
</g>
</svg>