<?xml version="1.0" encoding="utf-8"?>
<!-- Generator: Adobe Illustrator 23.1.0, SVG Export Plug-In . SVG Version: 6.00 Build 0)  -->
<svg version="1.1" id="Ebene_1" xmlns="http://www.w3.org/2000/svg" xmlns:xlink="http://www.w3.org/1999/xlink" x="0px" y="0px"
	 viewBox="0 0 16 16" enable-background="new 0 0 16 16" xml:space="preserve">
<g class="icon-color">
	<path d="M5,14c-0.6,0-1-0.4-1-1s0.4-1,1-1s1,0.4,1,1S5.6,14,5,14 M5,15c1.1,0,2-0.9,2-2s-0.9-2-2-2s-2,0.9-2,2S3.9,15,5,15L5,15z"/>
	<path d="M5,4C4.4,4,4,3.6,4,3s0.4-1,1-1s1,0.4,1,1S5.6,4,5,4 M5,5c1.1,0,2-0.9,2-2S6.1,1,5,1S3,1.9,3,3S3.9,5,5,5L5,5z"/>
	<path d="M11,7c-0.6,0-1-0.4-1-1s0.4-1,1-1s1,0.4,1,1S11.6,7,11,7 M11,8c1.1,0,2-0.9,2-2s-0.9-2-2-2S9,4.9,9,6S9.9,8,11,8L11,8z"/>
	<rect x="4" y="4" width="2" height="8"/>
	<path d="M4,9.5C4,7,6,5,8.5,5h1v2h-1C7.1,7,6,8.1,6,9.5H4z"/>
</g>
</svg>
