<?xml version="1.0" encoding="utf-8"?>
<!-- Generator: Adobe Illustrator 27.0.1, SVG Export Plug-In . SVG Version: 6.00 Build 0)  -->
<svg version="1.1" xmlns="http://www.w3.org/2000/svg" xmlns:xlink="http://www.w3.org/1999/xlink" x="0px" y="0px"
	 viewBox="0 0 16 16" enable-background="new 0 0 16 16">
<g fill="currentColor">
	<rect x="7" y="9.0001259" width="2" height="4"/>
	<path d="M13.8289795,8.1799927c0,0-0.4349976-0.1790161-0.8789673-0.1790161c0.1170044-0.4559937,0-1.0009766,0-1.0009766
		C12.7189941,5.8590088,11.710022,5,10.5,5c-0.4550171,0-0.882019,0.1220093-1.25,0.335022C8.6090088,4.5219727,7.6149902,4,6.5,4
		C4.7210083,4,3.2529907,5.3270264,3.0289917,7.0440063C1.8740234,7.2639771,1,8.2800293,1,9.5C1,10.8809814,2.1190186,12,3.5,12H6
		v-1H3.5C2.6719971,11,2,10.3280029,2,9.5c0-0.7230225,0.5159912-1.3400269,1.21698-1.4730225l0.7109985-0.1359863
		l0.0930176-0.7180176C4.1820068,5.9370117,5.2410278,5,6.5,5c0.7769775,0,1.492981,0.3549805,1.9650269,0.9539795
		l0.5359497,0.6799927l0.75-0.43396C9.9760132,6.0700073,10.2319946,6,10.5,6C11.3280029,6,12,6.6719971,12,7.5
		c0,0.1030273-0.0100098,0.2030029-0.0300293,0.3010254l-0.25,1.2299805L12.973999,9C12.9869995,9,12.9869995,9,13,9
		c0.552002,0,1,0.447998,1,1s-0.447998,1-1,1h-3v1h3c1.1049805,0,2-0.8950195,2-2
		C15,9.190979,14.5200195,8.4940186,13.8289795,8.1799927z"/>
	<path d="M7.8234067,15.8232288l-2.3965974-2.3964462C5.2693105,13.2692938,5.3808503,13,5.6035805,13h4.7928934
		c0.2227221,0,0.3342657,0.2692776,0.1767817,0.4267712L8.17696,15.8232174
		C8.0793324,15.9208517,7.921041,15.9208565,7.8234067,15.8232288z"/>
</g>
</svg>
