<?xml version="1.0" encoding="utf-8"?>
<!-- Generator: Adobe Illustrator 24.3.0, SVG Export Plug-In . SVG Version: 6.00 Build 0)  -->
<svg version="1.1" id="Ebene_1" xmlns="http://www.w3.org/2000/svg" xmlns:xlink="http://www.w3.org/1999/xlink" x="0px" y="0px"
	 viewBox="0 0 16 16" enable-background="new 0 0 16 16" xml:space="preserve">
<g class="icon-color">
    <path d="M7.50098802,5.96942184 L10.8317433,4.77916065 C11.0917807,4.68623506 11.3779138,4.82170594 11.4708393,5.08174333 C11.5637649,5.34178072 11.4282941,5.62791375 11.1682567,5.72083935 L8,6.85303088 L8,10.5566406 C8,10.832783 7.77614237,11.0566406 7.5,11.0566406 C7.22385763,11.0566406 7,10.832783 7,10.5566406 L7,6.8523596 L3.8318318,5.72087096 C3.57177695,5.62799422 3.43625231,5.34188665 3.52912904,5.0818318 C3.62200578,4.82177695 3.90811335,4.68625231 4.1681682,4.77912904 L7.50098802,5.96942184 Z M8,13.9145259 L7.97148566,13.9264277 C7.70585863,14.037299 7.29490306,14.0341159 7.03655772,13.9264277 L1.46777561,11.6051451 C1.20179418,11.4942738 1,11.1861528 1,10.9098282 L1,4.1020699 C1,3.82700961 1.20943028,3.51444125 1.46777561,3.40675297 L7.03655772,1.08547031 C7.30253915,0.974599013 7.71348455,0.977782032 7.97148566,1.08547031 L13.5328477,3.40675297 C13.7984747,3.51762427 14,3.82574524 14,4.1020699 L14,8 L13,8 L13,4.25244125 L7.50433333,2 L2,4.25244125 L2,10.7594563 L7.50433333,13 L8,12.7979203 L8,13.9145259 L8,13.9145259 Z M13,12 L11,12 L9.5,12 C9.224,12 9,11.776 9,11.5 L9,10.5 C9,10.224 9.224,10 9.5,10 L11,10 L13,10 L14.5,10 C14.776,10 15,10.224 15,10.5 L15,11.5 C15,11.776 14.776,12 14.5,12 L13,12 Z"></path>
</g>
</svg>
