<svg xmlns="http://www.w3.org/2000/svg" version="1.1" viewBox="0 0 16 16">
<g fill="currentColor">
  <path d="M8.0316629,3.8572531l.8196573,2.458972.2279196.6837702h3.448019l-2.1095791,1.9689398-.4731894.4416499.2091599.6125503.9378843,2.7466609-2.5575447-1.6152909-.5339899-.3372602-.5339899.3372602-2.5575442,1.6152909.9378843-2.7466609.2091599-.6125503-.4731898-.4416499-2.1101964-1.9689398h3.4313862l.23768-.6621399.8904729-2.4806023M8.0500002,1.7999954c-.1750002,0-.3500004.0999994-.4500003.2999992l-1.4000001,3.9000006h-3.8999999c-.5,0-.6999999.5999994-.4.8999996l3.0000001,2.8000002-1.4000001,4.0999999c-.1573853.3147706.1187642.6915118.438488.6915118.0865707,0,.1762824-.0275896.2615118-.0915116l3.8000002-2.3999999,3.8000002,2.3999999c.0733881.0366943.1501827.0531971.2253628.0531971.3345842,0,.6379423-.3265859.474637-.6531973l-1.3999996-4.0999999,3-2.8000002c.2999992-.3000002.0999994-.8999996-.4000006-.8999996h-3.8999996l-1.3000002-3.9000006c-.1000004-.1999998-.2749996-.2999992-.4499998-.2999992h0Z"/>
</g>
</svg>
