<?xml version="1.0" encoding="utf-8"?>
<!-- Generator: Adobe Illustrator 26.1.0, SVG Export Plug-In . SVG Version: 6.00 Build 0)  -->
<svg version="1.1" id="Ebene_1" xmlns="http://www.w3.org/2000/svg" xmlns:xlink="http://www.w3.org/1999/xlink" x="0px" y="0px"
	 viewBox="0 0 16 16" enable-background="new 0 0 16 16" xml:space="preserve">
<g class="icon-color">
	<path d="M12,1H3v14h9c0.552,0,1-0.448,1-1V2C13,1.448,12.552,1,12,1z M12,13v1H4V2h8v9h-1v2H12z"/>
	<path d="M11,3.25C11,3.112,10.888,3,10.75,3h-5.5C5.112,3,5,3.112,5,3.25v2.5C5,5.888,5.112,6,5.25,6h5.5
		C10.888,6,11,5.888,11,5.75V3.25z"/>
	<rect x="5" y="12" width="2" height="1"/>
</g>
</svg>
