<?xml version="1.0" encoding="utf-8"?>
<!-- Generator: Adobe Illustrator 27.0.1, SVG Export Plug-In . SVG Version: 6.00 Build 0)  -->
<svg version="1.1" id="Ebene_1" xmlns="http://www.w3.org/2000/svg" xmlns:xlink="http://www.w3.org/1999/xlink" x="0px" y="0px"
	 viewBox="0 0 16 16" enable-background="new 0 0 16 16" xml:space="preserve">
<g fill="currentColor">
	<path d="M9,14H2.5C2.223877,14,2,13.776123,2,13.5v-11C2,2.223877,2.223877,2,2.5,2H9V1H2.5C1.6729126,1,1,1.6729126,1,2.5v11
		C1,14.3270874,1.6729126,15,2.5,15H9V14z"/>
	<path d="M14.9999809,13h-1v0.5l0,0l0,0c0,0.2761402-0.2238598,0.5-0.5,0.5H13v1h0.4999809
		c0.8132172,0,1.4773684-0.6505461,1.4994345-1.4585304h0.0005655V13z"/>
	<path d="M14.9999809,2.4585299h-0.0005655C14.9773493,1.6505458,14.3131981,1,13.4999809,1H13v1h0.4999809
		c0.2761402,0,0.5,0.22386,0.5,0.5l0,0l0,0V3h1V2.4585299z"/>
	<rect x="7" width="1" height="16"/>
	<rect x="10" y="1" width="2" height="1"/>
	<rect x="10" y="14" width="2" height="1"/>
	<rect x="14" y="4" width="1" height="2"/>
	<rect x="14" y="10" width="1" height="2"/>
	<rect x="14" y="7" width="1" height="2"/>
</g>
</svg>
