<?xml version="1.0" encoding="utf-8"?>
<!-- Generator: Adobe Illustrator 19.1.0, SVG Export Plug-In . SVG Version: 6.00 Build 0)  -->
<svg version="1.1" xmlns="http://www.w3.org/2000/svg" xmlns:xlink="http://www.w3.org/1999/xlink" x="0px" y="0px"
	 viewBox="0 0 16 16" enable-background="new 0 0 16 16" xml:space="preserve">
<g class="icon-color">
	<path d="M11.5,1h-7C4.2,1,4,1.2,4,1.5v13C4,14.8,4.2,15,4.5,15h7c0.3,0,0.5-0.2,0.5-0.5v-13C12,1.2,11.8,1,11.5,1z M9,13.8
		C9,13.9,8.9,14,8.8,14H7.3C7.1,14,7,13.9,7,13.8v-0.5C7,13.1,7.1,13,7.3,13h1.5C8.9,13,9,13.1,9,13.3V13.8z M11,12H5V3h6V12z"/>
</g>
</svg>
