<?xml version="1.0" encoding="utf-8"?>
<!-- Generator: Adobe Illustrator 24.3.0, SVG Export Plug-In . SVG Version: 6.00 Build 0)  -->
<svg version="1.1" id="Ebene_1" xmlns="http://www.w3.org/2000/svg" xmlns:xlink="http://www.w3.org/1999/xlink" x="0px" y="0px"
	 viewBox="0 0 16 16" enable-background="new 0 0 16 16" xml:space="preserve">
<g class="icon-color">
<path d="M14.502,1H1.498C1.22,1,1,1.223,1,1.498v13.003C1,14.78,1.223,15,1.498,15h13.003
	C14.78,15,15,14.777,15,14.502V1.498C15,1.22,14.777,1,14.502,1z M14,14H2V2h12V14z"/>
<path d="M6.635,11.325c0.194,0.194,0.515,0.189,0.706-0.002l4.949-4.949c0.195-0.195,0.203-0.505-0.003-0.711l-0.7-0.7
	c-0.197-0.197-0.518-0.196-0.704-0.01L7.334,8.502c-0.192,0.192-0.5,0.195-0.697-0.003L5.216,7.078
	C5.023,6.884,4.714,6.879,4.509,7.084l-0.7,0.7C3.611,7.982,3.603,8.294,3.803,8.494L6.635,11.325z"/>
</g>
</svg>
