<?xml version="1.0" encoding="utf-8"?>
<!-- Generator: Adobe Illustrator 24.3.0, SVG Export Plug-In . SVG Version: 6.00 Build 0)  -->
<svg version="1.1" id="Ebene_1" xmlns="http://www.w3.org/2000/svg" xmlns:xlink="http://www.w3.org/1999/xlink" x="0px" y="0px"
	 viewBox="0 0 16 16" style="enable-background:new 0 0 16 16;" xml:space="preserve">
<g class="icon-color">
	<path d="M14,3v8H9H8.7l-0.2,0.1L5,13.2V12v-1H4H2V3H14 M1.6,2C1.3,2,1,2.3,1,2.6v8.9C1,11.8,1.2,12,1.5,12H4v3l5-3h5.5
		c0.3,0,0.5-0.2,0.5-0.5v-9C15,2.2,14.8,2,14.5,2H1.6z"/>
	<rect x="3" y="6" width="8" height="1"/>
	<rect x="3" y="8" width="6" height="1"/>
	<rect x="3" y="4" width="10" height="1"/>
</g>
</svg>
