<svg xmlns="http://www.w3.org/2000/svg" viewBox="0 0 16 16">
<g class="icon-color">
	<path d="M7,12.5V12H2V4h5.382l1,2H14v2.5V10h1V5.5C15,5.224,14.776,5,14.5,5H9L8.138,3.276C8.053,3.107,7.88,3,7.691,3H1.5
		C1.224,3,1,3.224,1,3.5v9C1,12.776,1.224,13,1.5,13h5.592C7.036,12.843,7,12.676,7,12.5z"/>
	<path d="M15.5,13H13v2.5c0,0.28-0.22,0.5-0.5,0.5h-1c-0.28,0-0.5-0.22-0.5-0.5V13H8.5C8.22,13,8,12.78,8,12.5v-1
		C8,11.22,8.22,11,8.5,11H11V8.5C11,8.22,11.22,8,11.5,8h1C12.78,8,13,8.22,13,8.5V11h2.5c0.28,0,0.5,0.22,0.5,0.5v1
		C16,12.78,15.78,13,15.5,13z"/>
</g>
</svg>