<svg xmlns="http://www.w3.org/2000/svg" version="1.1" viewBox="0 0 16 16">
<g fill="currentColor">
  <path d="M15.071106,13.6568604l-1.2749023-1.2748413c.1086426-.2526855.1201782-.5491943-.0198364-.8292236l-.6707764-1.3414917c-.069458-.138916-.1055908-.2919922-.1055908-.4472656v-2.7641602c0-2.7614136-2.2385864-5-5-5-1.2758179,0-2.4277954.4888916-3.3075562,1.2783813L2.3431396.9289551c-.1952515-.1952515-.5118408-.1952515-.7070923,0s-.1952515.5118408,0,.7070923l2.3762817,2.3762817v.000061l.708313.708313v-.000061l7.2793579,7.2793579.9862671.9862671,1.3776855,1.3776855c.1952515.1952515.5118408.1952515.7071533,0,.1952515-.1952515.1952515-.5118408,0-.7070923ZM5.3925171,3.9783325c.7002563-.6072388,1.6097412-.9784546,2.6074829-.9784546,2.2056274,0,4,1.7944336,4,4.0001221v2.7640381c0,.3088989.072998.6182251.2111816.8944702l.1384277.2769165L5.3925171,3.9783325Z"/>
  <path d="M3.118042,12l.6707764-1.3414917c.1381836-.2762451.2111816-.5855713.2111816-.8944702v-2.7641602c0-.4716187.0966797-.9179077.2472534-1.3383789l-.7675781-.7675781c-.2998047.6419678-.4796753,1.350708-.4796753,2.105957v2.7641602c0,.1552734-.0361328.3083496-.1055908.4472656l-.6707764,1.3414917c-.3324585.664856.151062,1.4472046.8944092,1.4472046h2.881958c0,1.1045532.8954468,2,2,2s2-.8954468,2-2h1.5857544l-1-1H3.118042ZM8,14c-.5513916,0-1-.4486084-1-1h2c0,.5513916-.4486084,1-1,1Z"/>
</g>
</svg>
