<svg xmlns="http://www.w3.org/2000/svg" version="1.1" viewBox="0 0 16 16">
<g fill="currentColor">
  <path d="M8.0057917,1c-3.8740217,0-7.0057917,3.1548577-7.0057917,7.0578467,0,3.1198675,2.0066329,5.7607703,4.7903644,6.6954682.3480384.070267.4755234-.1518631.4755234-.3387169,0-.1636222-.0114725-.7244703-.0114725-1.3088356-1.9488417.420743-2.3546711-.8413427-2.3546711-.8413427-.3131913-.8179689-.7772422-1.0281965-.7772422-1.0281965-.6378549-.4323588.0464625-.4323588.0464625-.4323588.7075484.0467487,1.0788179.7244703,1.0788179.7244703.6262393,1.0749464,1.6353634.7712191,2.0413364.5842219.0579346-.4557337.2436412-.7712191.4408198-.9464571-1.5543411-.1636222-3.1897045-.7712191-3.1897045-3.482246,0-.7712191.2782012-1.4021908.7190207-1.8929147-.0695504-.175238-.3131913-.8998514.0696937-1.8696834,0,0,.5915358-.1869971,1.9253234.7244701.5710421-.154493,1.1599484-.2330848,1.7515197-.2337462.5915358,0,1.1945436.0818828,1.7513764.2337462,1.3339315-.9114669,1.9254673-.7244701,1.9254673-.7244701.3828847.969832.1391007,1.6944454.0695504,1.8696834.4524351.4907239.7191641,1.1216951.7191641,1.8929147,0,2.7110269-1.6353634,3.3068647-3.2013198,3.482246.2552565.2219868.4755234.6425876.4755234,1.3086922,0,.9464571-.0114725,1.7060614-.0114725,1.939664,0,.1869971.1276282.4091272.4755234.3390036,2.7837321-.9349846,4.7903644-3.575744,4.7903644-6.6956121.0114714-3.9029896-3.1317705-7.0578473-6.994177-7.0578473Z"/>
</g>
</svg>
