<?xml version="1.0" encoding="utf-8"?>
<!-- Generator: Adobe Illustrator 24.3.0, SVG Export Plug-In . SVG Version: 6.00 Build 0)  -->
<svg version="1.1" id="Ebene_1" xmlns="http://www.w3.org/2000/svg" xmlns:xlink="http://www.w3.org/1999/xlink" x="0px" y="0px"
	 viewBox="0 0 16 16" style="enable-background:new 0 0 16 16;" xml:space="preserve">
<g class="icon-color">
	<path d="M3,9c0-0.6-0.4-1-1-1c0.6,0,1-0.4,1-1V3h2V2H3C2.4,2,2,2.4,2,3v4C1.4,7,1,7.4,1,8l0,0c0,0.6,0.4,1,1,1v4c0,0.6,0.4,1,1,1h2
		v-1H3V9z"/>
	<path d="M13,13h-2v1h2c0.6,0,1-0.4,1-1V9c0.6,0,1-0.4,1-1l0,0c0-0.6-0.4-1-1-1V3c0-0.6-0.4-1-1-1h-2v1h2v4c0,0.6,0.4,1,1,1
		c-0.6,0-1,0.4-1,1V13z"/>
</g>
</svg>
