<svg xmlns="http://www.w3.org/2000/svg" version="1.1" viewBox="0 0 16 16">
<g fill="currentColor">
  <path d="M3,1.9999957c-1.1045504,0-2,.8954496-2,2v8c0,1.1045494.8954496,2,2,2h10c1.10455,0,2-.8954506,2-2V3.9999957c0-1.1045504-.89545-2-2-2H3ZM3,12.9999957c-.5513897,0-1-.4486103-1-1V3.9999957c0-.5513897.4486103-1,1-1h7v10H3ZM11,12.9999957V2.9999957h2c.5513899,0,1,.4486103,1,1v8c0,.5513897-.4486101,1-1,1h-2Z"/>
  <path d="M6.7605915,5.6596059l-2.3262281,1.7397847c-.4416809.3303328-.4416809.8708773,0,1.20121l2.3262281,1.7397842c.4782228.3576632,1.2394085.0751333,1.2394085-.4600315v-3.7607155c0-.5351648-.7611856-.8176947-1.2394085-.460032Z"/>
</g>
</svg>
