<svg xmlns="http://www.w3.org/2000/svg" viewBox="0 0 16 16"><g class="icon-color"><path d="M13.217,15.182H7.501c-1.084,0-1.965-0.881-1.965-1.965V7.501c0-1.084,0.881-1.965,1.965-1.965h5.716 c1.084,0,1.965,0.881,1.965,1.965v5.716C15.182,14.301,14.301,15.182,13.217,15.182z M7.501,6.608 c-0.492,0-0.893,0.401-0.893,0.893v5.716c0,0.492,0.401,0.893,0.893,0.893h5.716c0.492,0,0.893-0.401,0.893-0.893V7.501 c0-0.492-0.401-0.893-0.893-0.893H7.501z"/><path d="M8.93,10.895H3.215c-1.084,0-1.965-0.881-1.965-1.965V3.215c0-1.084,0.881-1.965,1.965-1.965H8.93	c1.084,0,1.965,0.881,1.965,1.965V8.93C10.895,10.014,10.014,10.895,8.93,10.895z M3.215,2.322c-0.492,0-0.893,0.401-0.893,0.893 V8.93c0,0.492,0.401,0.893,0.893,0.893H8.93c0.492,0,0.893-0.401,0.893-0.893V3.215c0-0.492-0.401-0.893-0.893-0.893H3.215z"/></g></svg>
