<svg xmlns="http://www.w3.org/2000/svg" viewBox="0 0 16 16">
<g>
	<g>
		<path d="M5,13v1.5C5,14.776,5.224,15,5.5,15S6,14.776,6,14.5V13H5z"/>
		<path d="M7,13v1.5C7,14.776,7.224,15,7.5,15h1C8.776,15,9,14.776,9,14.5V13H7z"/>
		<path d="M10,13v1.5c0,0.276,0.224,0.5,0.5,0.5s0.5-0.224,0.5-0.5V13H10z"/>
	</g>
	<g>
		<path d="M5,3V1.5C5,1.224,5.224,1,5.5,1S6,1.224,6,1.5V3H5z"/>
		<path d="M7,3V1.5C7,1.224,7.224,1,7.5,1h1C8.776,1,9,1.224,9,1.5V3H7z"/>
		<path d="M10,3V1.5C10,1.224,10.224,1,10.5,1S11,1.224,11,1.5V3H10z"/>
	</g>
	<g>
		<path d="M3,11H1.5C1.224,11,1,10.776,1,10.5S1.224,10,1.5,10H3V11z"/>
		<path d="M3,9H1.5C1.224,9,1,8.776,1,8.5v-1C1,7.224,1.224,7,1.5,7H3V9z"/>
		<path d="M3,6H1.5C1.224,6,1,5.776,1,5.5S1.224,5,1.5,5H3V6z"/>
	</g>
	<g>
		<path d="M13,11h1.5c0.276,0,0.5-0.224,0.5-0.5S14.776,10,14.5,10H13V11z"/>
		<path d="M13,9h1.5C14.776,9,15,8.776,15,8.5v-1C15,7.224,14.776,7,14.5,7H13V9z"/>
		<path d="M13,6h1.5C14.776,6,15,5.776,15,5.5S14.776,5,14.5,5H13V6z"/>
	</g>
	<path d="M12,4v8H4V4H12 M12.5,3h-9C3.224,3,3,3.224,3,3.5v9C3,12.776,3.224,13,3.5,13h9c0.276,0,0.5-0.224,0.5-0.5v-9
		C13,3.224,12.776,3,12.5,3L12.5,3z"/>
	<path d="M9,7v2H7V7H9 M9.5,6h-3C6.224,6,6,6.224,6,6.5v3C6,9.776,6.224,10,6.5,10h3C9.776,10,10,9.776,10,9.5v-3
		C10,6.224,9.776,6,9.5,6L9.5,6z"/>
</g>
</svg>