<?xml version="1.0" encoding="utf-8"?>
<!-- Generator: Adobe Illustrator 23.0.3, SVG Export Plug-In . SVG Version: 6.00 Build 0)  -->
<svg version="1.1" xmlns="http://www.w3.org/2000/svg" xmlns:xlink="http://www.w3.org/1999/xlink" x="0px" y="0px"
	 viewBox="0 0 16 16" enable-background="new 0 0 16 16">
<g fill="currentColor">
	<path d="M13.687,11.587c-1.476-0.421-2.507-0.998-3.533-1.394C10.055,9.871,9.821,9.3,9.764,7.988
		c0.706-0.712,1.212-1.716,1.212-2.525V3.537C10.976,2.137,9.838,1,8.35,1h-0.7c-1.4,0-2.626,1.137-2.626,2.537v1.926
		c0,0.816,0.512,1.831,1.228,2.544l0,0c-0.024,1.288-0.266,1.856-0.381,2.178c-1.035,0.394-2.071,0.979-3.558,1.403
		c0,0-1.226,0.7-1.313,3.413h7h7C14.913,12.2,13.687,11.587,13.687,11.587z"/>
</g>
</svg>
