<?xml version="1.0" encoding="utf-8"?>
<!-- Generator: Adobe Illustrator 19.1.0, SVG Export Plug-In . SVG Version: 6.00 Build 0)  -->
<svg version="1.1" xmlns="http://www.w3.org/2000/svg" xmlns:xlink="http://www.w3.org/1999/xlink" x="0px" y="0px"
	 viewBox="0 0 16 16" enable-background="new 0 0 16 16">
<g fill="currentColor">
	<path d="M13,7v7H3V7H13 M13.5,6h-11C2.224,6,2,6.224,2,6.5v8C2,14.776,2.224,15,2.5,15h11c0.276,0,0.5-0.224,0.5-0.5v-8
		C14,6.224,13.776,6,13.5,6L13.5,6z"/>
	<path d="M8,2c1.654,0,3,1.346,3,3v1h1V5c0-2.209-1.791-4-4-4S4,2.791,4,5v1h1V5C5,3.346,6.346,2,8,2z"/>
	<path d="M10,10c0-1.105-0.895-2-2-2s-2,0.895-2,2c0,0.738,0.405,1.376,1,1.723V13h2v-1.277C9.595,11.376,10,10.738,10,10z"/>
</g>
</svg>
