<svg xmlns="http://www.w3.org/2000/svg" version="1.1" viewBox="0 0 16 16">
<g fill="currentColor">
  <path d="M1.9897138.7828827c-.1279601,0-.2559201.0488119-.3535451.1464376-.19525.1952496-.19525.5118399,0,.7070894l12.7279098,12.7279103c.0976248.097625.225585.1464375.3535528.1464375s.2559423-.0488125.3535976-.1464375c.1952496-.1952499.1952496-.5118399,0-.7070899l-1.724-1.7240002c.3663301-.13727.65277-.4795599.65277-.93329V3.4142504c0-.6027164-.4930525-1.0019608-1.0070848-1.0019608h-.0001154c-.2457304,0-.4962196.0911903-.6998901.2948608l-.82831.82831c-.9376802.9377499-2.2094698,1.4645395-3.5355802,1.4645395h-1.51508L2.3432586.9293203c-.0976248-.0976257-.225585-.1464376-.3535448-.1464376h0ZM12.999999,10.9999399l-1.0665302-.79987c-.2586002-.1939697-.5368605-.3563199-.8229303-.50354l-3.6966-3.6965299h.51508c1.6027198,0,3.1094298-.6241503,4.2426705-1.7574501l.82831-.8274498v7.5848398h0Z"/>
  <path d="M3.596555,5h-.59655c-.55231,0-1,.44769-1,1v3c0,.55231.44769,1,1,1h.9999998v2.5c0,.2761199.2238703.5.5.5h2c.2761202,0,.5-.2238801.5-.5v-2.5h1.3334303c.0963697,0,.1904898.01758.2862501.0231299l-1.0231304-1.0231299h-.59655v-.59656l-1-.9999995v1.5965595h-2.9999998v-3h1.5965497l-.9999998-1h0ZM5.0000048,12v-2h1v2h-1Z"/>
</g>
</svg>
