<?xml version="1.0" encoding="utf-8"?>
<!-- Generator: Adobe Illustrator 20.0.0, SVG Export Plug-In . SVG Version: 6.00 Build 0)  -->
<svg version="1.1" id="Ebene_1" xmlns:sketch="http://www.bohemiancoding.com/sketch/ns"
	 xmlns="http://www.w3.org/2000/svg" xmlns:xlink="http://www.w3.org/1999/xlink" x="0px" y="0px" viewBox="0 0 16 16"
	 style="enable-background:new 0 0 16 16;" xml:space="preserve">
<g>
	<path d="M14.7,5.6V3.1c0-1.2-0.9-2.1-2.1-2.1h-0.5c-0.6,0-1.1,0.2-1.5,0.6l0,0C10.2,2,10,2.5,10,3.1l0,2.5c0,0.9,0.6,1.7,1.4,2v0.9
		c-0.3,0.1-0.6,0.3-0.8,0.5l0,0C10.2,9.3,10,9.9,10,10.4l0,2.5c0,1.2,0.9,2.1,2.1,2.1l0.5,0c1.2,0,2.1-0.9,2.1-2.1v-2.5
		c0-0.9-0.6-1.7-1.4-2V7.5C14.1,7.3,14.7,6.5,14.7,5.6z M10.9,5.6V3c0-0.2,0.1-0.4,0.2-0.6C11.4,2.1,11.9,2,12.4,2
		c0.8,0,1.4,0.5,1.4,1.1l0,2.6c0,0.3-0.2,0.6-0.5,0.8V5.2c0-0.3-0.4-0.6-0.9-0.6c-0.5,0-0.9,0.3-0.9,0.6v1.2
		C11.1,6.2,10.9,6,10.9,5.6z M13.8,10.4l0,2.6c0,0.6-0.6,1.1-1.4,1.1s-1.4-0.5-1.4-1.1v-2.6c0-0.2,0.1-0.4,0.2-0.6
		c0.1-0.1,0.1-0.1,0.2-0.2v1.2v0c0,0.3,0.4,0.6,0.9,0.6c0.5,0,0.9-0.3,0.9-0.6V9.6C13.6,9.8,13.8,10,13.8,10.4z" class="icon-color"/>
</g>
<g>
	<path d="M8,12.9L8,12c0,0,0,0,0,0c-3.4,0-6-2-6-4c0-1.3,1-2.6,2.6-3.3c-0.3,0.4-0.3,1-0.3,1.6c0,2,1.6,3.6,3.7,3.6
		c0.1-0.6,0.4-1.2,0.8-1.7L9.2,8C8.4,7.4,8,6.5,8,5.6l0-0.9c-0.8,0-1.6,0.7-1.6,1.5c0,0.1-0.1,0.3-0.4,0.3S5.5,6.4,5.5,6.2
		C5.6,5.1,6.8,4.2,8,4.1l0-1C8,3.1,8,3,8,3C4.1,3,1,5.3,1,8c0,2.7,3,5,7,5c0,0,0,0,0,0C8,13,8,12.9,8,12.9z" class="icon-color"/>
</g>
</svg>
