<?xml version="1.0" encoding="utf-8"?>
<!-- Generator: Adobe Illustrator 19.1.0, SVG Export Plug-In . SVG Version: 6.00 Build 0)  -->
<svg version="1.1" xmlns="http://www.w3.org/2000/svg" xmlns:xlink="http://www.w3.org/1999/xlink" x="0px" y="0px"
	 viewBox="0 0 16 16" enable-background="new 0 0 16 16" xml:space="preserve">
<g class="icon-color">
	<path d="M10,14H8.5H3V2h7v2.5C10,4.776,10.224,5,10.5,5H13v2.092c0.581,0.207,1,0.757,1,1.408V3.914
		c0-0.265-0.105-0.52-0.293-0.707l-1.914-1.914C11.605,1.105,11.351,1,11.086,1H2.5C2.224,1,2,1.224,2,1.5v13
		C2,14.776,2.224,15,2.5,15H10V14z M11,2l2,2h-2V2z"/>
	<path d="M15.5,13H13v2.5c0,0.28-0.22,0.5-0.5,0.5h-1c-0.28,0-0.5-0.22-0.5-0.5V13H8.5C8.22,13,8,12.78,8,12.5v-1
		C8,11.22,8.22,11,8.5,11H11V8.5C11,8.22,11.22,8,11.5,8h1C12.78,8,13,8.22,13,8.5V11h2.5c0.28,0,0.5,0.22,0.5,0.5v1
		C16,12.78,15.78,13,15.5,13z"/>
</g>
</svg>
