<?xml version="1.0" encoding="utf-8"?>
<!-- Generator: Adobe Illustrator 25.1.0, SVG Export Plug-In . SVG Version: 6.00 Build 0)  -->
<svg version="1.1" xmlns="http://www.w3.org/2000/svg" xmlns:xlink="http://www.w3.org/1999/xlink" x="0px" y="0px"
	 viewBox="0 0 16 16" enable-background="new 0 0 16 16" xml:space="preserve">
<g class="icon-color">
	<path d="M14,2H2C1.448,2,1,2.448,1,3v10c0,0.552,0.448,1,1,1h12c0.552,0,1-0.448,1-1V3C15,2.448,14.552,2,14,2z M14,3v3H2V3H14z
			M2,13V7h12v6H2z"/>
	<path d="M3.75,5h-0.5C3.112,5,3,4.888,3,4.75v-0.5C3,4.112,3.112,4,3.25,4h0.5C3.888,4,4,4.112,4,4.25v0.5C4,4.888,3.888,5,3.75,5z
		"/>
	<path d="M5.75,5h-0.5C5.112,5,5,4.888,5,4.75v-0.5C5,4.112,5.112,4,5.25,4h0.5C5.888,4,6,4.112,6,4.25v0.5C6,4.888,5.888,5,5.75,5z
		"/>
	<path d="M7.75,5h-0.5C7.112,5,7,4.888,7,4.75v-0.5C7,4.112,7.112,4,7.25,4h0.5C7.888,4,8,4.112,8,4.25v0.5C8,4.888,7.888,5,7.75,5z
		"/>
</g>
</svg>
