<?xml version="1.0" encoding="utf-8"?>
<!-- Generator: Adobe Illustrator 23.0.3, SVG Export Plug-In . SVG Version: 6.00 Build 0)  -->
<svg version="1.1" xmlns="http://www.w3.org/2000/svg" xmlns:xlink="http://www.w3.org/1999/xlink" x="0px" y="0px"
	 viewBox="0 0 16 16" enable-background="new 0 0 16 16">
<g fill="currentColor">
    <path d="M8.07070707,3 C4.11111111,3 1,5.28571429 1,8 C1,10.7142857 3.96969697,13 8,13 C11.8888889,13 15,10.7142857 15,8.06912442 C15,5.28571429 11.8888889,3.14285714 8.21212121,3 L8.07070707,3 Z M8.04545455,4.12727273 C8.18636364,4.12727273 8.46818182,4.26818182 8.46818182,4.40909091 C8.46818182,4.55 8.32727273,4.69090909 8.04545455,4.69090909 C7.2,4.69090909 6.35454545,5.39545455 6.35454545,6.24090909 C6.35454545,6.38181818 6.21363636,6.52272727 5.93181818,6.52272727 C5.65,6.52272727 5.50909091,6.38181818 5.50909091,6.24090909 C5.65,5.11363636 6.77727273,4.12727273 8.04545455,4.12727273 L8.04545455,4.12727273 Z M2,8.02943731 C2,6.73110704 3.01728651,5.43799759 4.64691614,4.71670299 C4.35061985,5.14947975 4.35061985,5.72651543 4.35061985,6.30355111 C4.35061985,8.32317599 5.98024948,9.91002411 8.05432355,9.91002411 C10.1283976,9.91002411 11.7580273,8.32317599 11.7580273,6.30355111 C11.7580273,5.72651543 11.6098791,5.29373867 11.461731,4.86096191 C12.9432124,5.58225651 14,6.87536596 14,8.02943731 C13.8518519,10.0490622 11.1589008,11.9534649 7.99999992,12 C4.64038224,11.9534649 2,10.0490622 2,8.02943731 Z"></path>
</g>
</svg>
