<?xml version="1.0" encoding="utf-8"?>
<!-- Generator: Adobe Illustrator 24.1.3, SVG Export Plug-In . SVG Version: 6.00 Build 0)  -->
<svg version="1.1" id="Ebene_1" xmlns="http://www.w3.org/2000/svg" xmlns:xlink="http://www.w3.org/1999/xlink" x="0px" y="0px"
	 viewBox="0 0 16 16" enable-background="new 0 0 16 16" xml:space="preserve">
<g class="icon-color">
	<path d="M5.5,12C5.7757001,12,6,12.2243004,6,12.5S5.7757001,13,5.5,13S5,12.7756996,5,12.5S5.2242999,12,5.5,12 M5.5,11
		C4.6715698,11,4,11.6715698,4,12.5S4.6715698,14,5.5,14S7,13.3284302,7,12.5S6.3284302,11,5.5,11L5.5,11z"/>
	<path d="M11.5,12c0.2756996,0,0.5,0.2243004,0.5,0.5S11.7756996,13,11.5,13S11,12.7756996,11,12.5S11.2243004,12,11.5,12 M11.5,11
		c-0.8284302,0-1.5,0.6715698-1.5,1.5s0.6715698,1.5,1.5,1.5s1.5-0.6715698,1.5-1.5S12.3284302,11,11.5,11L11.5,11z"/>
	<path d="M3.7499974,2h-2.5C1.1119374,2,0.9999974,2.1119399,0.9999974,2.25v0.5c0,0.1380601,0.11194,0.25,0.2500001,0.25h1.7499999
		l1,6v1.75c0,0.1380596,0.1119401,0.25,0.2500002,0.25h8.5c0.1380606,0,0.25-0.1119404,0.25-0.25v-0.5
		c0-0.1380596-0.1119394-0.25-0.25-0.25H4.9999976V9h7.8198295c0.1076002,0,0.2031202-0.0688496,0.2371807-0.1709604
		l1.8333101-5.4999995C14.9442778,3.1671801,14.8237877,3,14.6531372,3H3.9999974V2.25C3.9999974,2.1119399,3.8880575,2,3.7499974,2
		L3.7499974,2z M4.8471074,8L4.1804776,4h9.4321289l-1.3333693,4H4.9999976H4.8471074L4.8471074,8z"/>
</g>
</svg>
