<?xml version="1.0" encoding="utf-8"?>
<!-- Generator: Adobe Illustrator 24.0.2, SVG Export Plug-In . SVG Version: 6.00 Build 0)  -->
<svg version="1.1" id="Ebene_1" xmlns="http://www.w3.org/2000/svg" xmlns:xlink="http://www.w3.org/1999/xlink" x="0px" y="0px"
	 viewBox="0 0 16 16" enable-background="new 0 0 16 16" xml:space="preserve">
<g fill="currentColor">
	<rect x="3" y="12" width="5" height="1"/>
	<rect x="12" y="12" width="1" height="1"/>
	<rect x="3" y="8" width="5" height="1"/>
	<rect x="12" y="8" width="1" height="1"/>
	<path d="M1,2.25v12.5C1,14.888,1.112,15,1.25,15h13.5c0.138,0,0.25-0.112,0.25-0.25V2.25C15,2.112,14.888,2,14.75,2H1.25
		C1.112,2,1,2.112,1,2.25z M14,14H2v-3h12V14z M14,10H2V7h12V10z M2,6V3h12v3H2z"/>
	<rect x="3" y="4" width="5" height="1"/>
	<rect x="12" y="4" width="1" height="1"/>
</g>
</svg>
