<svg xmlns="http://www.w3.org/2000/svg" version="1.1" viewBox="0 0 16 16">
<g fill="currentColor">
	<path d="M15,2V14c0,0.6-0.5,1-1,1H2c-0.6,0-1-0.5-1-1V2c0-0.6,0.5-1,1-1H14C14.5,1,15,1.5,15,2z M5.1,6.4H3.1v6.6h2.1V6.4z
		 M5.3,4.1c0-0.7-0.5-1.2-1.2-1.2c0,0,0,0,0,0h0c-0.7,0-1.2,0.5-1.2,1.2c0,0.7,0.5,1.2,1.2,1.2l0,0C4.7,5.3,5.3,4.8,5.3,4.1
		C5.3,4.1,5.3,4.1,5.3,4.1L5.3,4.1z M12.9,8.9c0-2-1.3-2.8-2.5-2.8c-0.8,0-1.6,0.4-2.1,1.1H8.3V6.4H6.4v6.6h2.1V9.4
		C8.3,8.7,8.9,8,9.6,8h0.1c0.7,0,1.1,0.4,1.1,1.4v3.5h2.1L12.9,8.9z"/>
</g>
</svg>
