<?xml version="1.0" encoding="utf-8"?>
<!-- Generator: Adobe Illustrator 25.4.0, SVG Export Plug-In . SVG Version: 6.00 Build 0)  -->
<svg version="1.1" xmlns="http://www.w3.org/2000/svg" xmlns:xlink="http://www.w3.org/1999/xlink" x="0px" y="0px"
	 viewBox="0 0 16 16" enable-background="new 0 0 16 16" xml:space="preserve">
<g class="icon-color">
	<path d="M14.75,9H14V2.5C14,2.224,13.776,2,13.5,2H9.286L9.052,1.181C9.021,1.074,8.923,1,8.811,1H7.189
		c-0.112,0-0.21,0.074-0.24,0.181L6.714,2H2.5C2.224,2,2,2.224,2,2.5V9H1.25C1.112,9,1,9.112,1,9.25v2.5C1,11.888,1.112,12,1.25,12
		h2.607L3,15h2l0.9-3h4.2l0.9,3h2l-0.857-3h2.607c0.138,0,0.25-0.112,0.25-0.25v-2.5C15,9.112,14.888,9,14.75,9z M3,3h10v6H3V3z
		 M14,11H2v-1h0.5c0,0,0,0,0,0h11c0,0,0,0,0,0H14V11z"/>
	<rect x="4" y="4" width="1" height="1"/>
	<rect x="4" y="6" width="1" height="2"/>
</g>
</svg>
