<svg xmlns="http://www.w3.org/2000/svg" version="1.1" viewBox="0 0 16 16">
<g fill="currentColor">
    <path d="M3.25,14 C3.112,14 3,13.888 3,13.75 L3,4 L11,4 L11,5.256 C11.359,4.9 11.692,4.569 12,4.263 L12,4 L12.5,4 C12.776,4 13,3.776 13,3.5 C13,3.224 12.776,3 12.5,3 L10,3 L10,2.25 C10,1.56 9.44,1 8.75,1 L5.25,1 C4.56,1 4,1.56 4,2.25 L4,3 L1.5,3 C1.224,3 1,3.224 1,3.5 C1,3.776 1.224,4 1.5,4 L2,4 L2,13.75 C2,14.44 2.56,15 3.25,15 L4.017,15 L4.026,14 L3.25,14 L3.25,14 Z M5,2.25 C5,2.112 5.112,2 5.25,2 L8.75,2 C8.888,2 9,2.112 9,2.25 L9,3 L5,3 L5,2.25 Z M9,5 L8,5 L8,8.233 C8.33,7.905 8.665,7.573 9,7.241 L9,5 Z M6,5 L5,5 L5,11.21 C5.281,10.931 5.618,10.596 6,10.218 L6,5 Z M13.2,6.2 L14.8,7.8 C14.9,7.9 14.9,8.1 14.8,8.2 L13.5,9.5 L11.5,7.5 L12.8,6.2 C12.9,6.1 13.1,6.1 13.2,6.2 Z M6.1,12.9 L11,8 L13,10 L8.1,14.9 C8,15 8,15 7.9,15 L6,15 L6,13.1 C6,13 6,13 6.1,12.9 Z"></path>
</g>
</svg>
