<?xml version="1.0" encoding="utf-8"?>
<!-- Generator: Adobe Illustrator 19.1.0, SVG Export Plug-In . SVG Version: 6.00 Build 0)  -->
<svg version="1.1" xmlns="http://www.w3.org/2000/svg" xmlns:xlink="http://www.w3.org/1999/xlink" x="0px" y="0px"
	 viewBox="0 0 16 16" enable-background="new 0 0 16 16" xml:space="preserve">
<g class="icon-color">
	<path d="M10.8,2h-0.5C10.1,2,10,1.9,10,1.8V1.3C10,1.1,10.1,1,10.3,1h0.5C10.9,1,11,1.1,11,1.3v0.5C11,1.9,10.9,2,10.8,2z"/>
	<path d="M12.8,2h-0.5C12.1,2,12,1.9,12,1.8V1.3C12,1.1,12.1,1,12.3,1h0.5C12.9,1,13,1.1,13,1.3v0.5C13,1.9,12.9,2,12.8,2z"/>
	<path d="M14.8,2h-0.5C14.1,2,14,1.9,14,1.8V1.3C14,1.1,14.1,1,14.3,1h0.5C14.9,1,15,1.1,15,1.3v0.5C15,1.9,14.9,2,14.8,2z"/>
	<path d="M14.8,4h-0.5C14.1,4,14,3.9,14,3.8V3.3C14,3.1,14.1,3,14.3,3h0.5C14.9,3,15,3.1,15,3.3v0.5C15,3.9,14.9,4,14.8,4z"/>
	<path d="M14.8,6h-0.5C14.1,6,14,5.9,14,5.8V5.3C14,5.1,14.1,5,14.3,5h0.5C14.9,5,15,5.1,15,5.3v0.5C15,5.9,14.9,6,14.8,6z"/>
	<path d="M14.5,7H10v1h3v6h-3v0.5c0,0.2,0,0.3-0.1,0.5h4.6c0.3,0,0.5-0.2,0.5-0.5v-7C15,7.2,14.8,7,14.5,7z"/>
	<path d="M8.5,1h-7C1.2,1,1,1.2,1,1.5v13C1,14.8,1.2,15,1.5,15h7C8.8,15,9,14.8,9,14.5v-13C9,1.2,8.8,1,8.5,1z M6,13.8
		C6,13.9,5.9,14,5.8,14H4.3C4.1,14,4,13.9,4,13.8v-0.5C4,13.1,4.1,13,4.3,13h1.5C5.9,13,6,13.1,6,13.3V13.8z M8,12H2V3h6V12z"/>
</g>
</svg>
