<?xml version="1.0" encoding="utf-8"?>
<!-- Generator: Adobe Illustrator 27.2.0, SVG Export Plug-In . SVG Version: 6.00 Build 0)  -->
<svg version="1.1" id="Ebene_1" xmlns="http://www.w3.org/2000/svg" xmlns:xlink="http://www.w3.org/1999/xlink" x="0px" y="0px"
	 viewBox="0 0 16 16" enable-background="new 0 0 16 16" xml:space="preserve">
<g fill="currentColor">
	<path d="M13,1H3C1.9,1,1,1.9,1,3v10c0,1.1,0.9,2,2,2h10c1.1,0,2-0.9,2-2V3C15,1.9,14.1,1,13,1z M12,8.5C12,8.8,11.8,9,11.5,9H9v2.5
		C9,11.8,8.8,12,8.5,12h-1C7.2,12,7,11.8,7,11.5V9H4.5C4.2,9,4,8.8,4,8.5v-1C4,7.2,4.2,7,4.5,7H7V4.5C7,4.2,7.2,4,7.5,4h1
		C8.8,4,9,4.2,9,4.5V7h2.5C11.8,7,12,7.2,12,7.5V8.5z"/>
</g>
</svg>
