<?xml version="1.0" encoding="utf-8"?>
<!-- Generator: Adobe Illustrator 27.9.0, SVG Export Plug-In . SVG Version: 6.00 Build 0)  -->
<svg version="1.1" xmlns="http://www.w3.org/2000/svg" xmlns:xlink="http://www.w3.org/1999/xlink" x="0px" y="0px"
	 viewBox="0 0 16 16" enable-background="new 0 0 16 16" xml:space="preserve">
<g fill="currentColor">
	<path d="M8,5C6.3431396,5,5,6.3431396,5,8s1.3431396,3,3,3s3-1.3431396,3-3S9.6568604,5,8,5z M8,10c-1.1027832,0-2-0.8972168-2-2
		c0-1.1028442,0.8972168-2,2-2s2,0.8971558,2,2C10,9.1027832,9.1027832,10,8,10z"/>
	<path d="M4.8518677,5.55896C5.0576782,5.2940063,5.2940063,5.0576782,5.55896,4.8518677L4.8179932,4.1109009
		C4.7203979,4.0132446,4.5924072,3.9644165,4.4644775,3.9644165c-0.1279907,0-0.2559204,0.0488281-0.3535767,0.1464844
		c-0.1952515,0.1952515-0.1952515,0.5118408,0,0.7070923L4.8518677,5.55896z"/>
	<path d="M8.5,4.050415V3c0-0.2761841-0.223877-0.5-0.5-0.5S7.5,2.7238159,7.5,3v1.050415C7.6655884,4.029541,7.8287354,4,8,4
		S8.3344116,4.029541,8.5,4.050415z"/>
	<path d="M11.8890991,4.8179932c0.1952515-0.1952515,0.1952515-0.5118408,0-0.7070923
		c-0.0976562-0.0976562-0.2255859-0.1464844-0.3535767-0.1464844c-0.1279297,0-0.2559204,0.0488281-0.3535156,0.1464844
		L10.44104,4.8518677c0.2649536,0.2058105,0.5012817,0.4421387,0.7070923,0.7070923L11.8890991,4.8179932z"/>
	<path d="M4,8c0-0.1712646,0.029541-0.3344116,0.050415-0.5H3C2.723877,7.5,2.5,7.7238159,2.5,8c0,0.276123,0.223877,0.5,0.5,0.5
		h1.050415C4.029541,8.3344116,4,8.1712646,4,8z"/>
	<path d="M4.1109009,11.1819458c-0.1952515,0.1953125-0.1952515,0.5118408,0,0.7071533
		c0.0976562,0.0975952,0.2255859,0.1464233,0.3535767,0.1464233c0.1279297,0,0.2559204-0.0488281,0.3535156-0.1464233
		l0.7410278-0.7410278c-0.2648926-0.2058105-0.5013428-0.4421997-0.7071533-0.7070923L4.1109009,11.1819458z"/>
	<path d="M13,7.5h-1.050415C11.970459,7.6655884,12,7.8287354,12,8s-0.029541,0.3344116-0.050415,0.5H13
		c0.276123,0,0.5-0.223877,0.5-0.5C13.5,7.7238159,13.276123,7.5,13,7.5z"/>
	<path d="M7.5,11.949585V13c0,0.276123,0.223877,0.5,0.5,0.5s0.5-0.223877,0.5-0.5v-1.050415C8.3344116,11.970459,8.1712646,12,8,12
		S7.6655884,11.970459,7.5,11.949585z"/>
	<path d="M11.1481323,10.440979c-0.2058105,0.2648926-0.4422607,0.5012817-0.7071533,0.7070923l0.7410278,0.7410278
		c0.0975952,0.0975952,0.2255859,0.1464233,0.3535156,0.1464233c0.1279907,0,0.2559204-0.0488281,0.3535767-0.1464233
		c0.1952515-0.1953125,0.1952515-0.5119019,0-0.7071533L11.1481323,10.440979z"/>
</g>
</svg>
