<svg xmlns="http://www.w3.org/2000/svg" viewBox="0 0 16 16"><g class="icon-color"><path d="M8.1,5.5h-3L4.3,6L2.9,6.8V5.5H1.1V1.1h7.1 M0.4,0C0.2,0,0,0.2,0,0.4v5.8c0,0.2,0.1,0.3,0.3,0.3H2v2l3.3-2h3.6 c0.2,0,0.3-0.1,0.3-0.3V0.4C9.1,0.2,9,0,8.8,0H0.4z"/><path d="M7.9,13h3l0.7,0.5l1.4,0.8V13h1.8V8.6L7.9,8.5 M15.6,7.6C15.8,7.6,16,7.8,16,8v5.8c0,0.2-0.1,0.3-0.3,0.3h-1.6v2l-3.2-2H7.2 c-0.2,0-0.3-0.1-0.3-0.3V7.9c0-0.2,0.1-0.3,0.3-0.3H15.6z"/><path d="M13.39,10.477l-0.873,0.892l0.207,1.26c0.002,0.018,0.002,0.033,0.002,0.05c0,0.067-0.029,0.127-0.099,0.127 c-0.034-0.001-0.067-0.011-0.096-0.03l-1.079-0.595l-1.079,0.595c-0.029,0.018-0.062,0.029-0.096,0.03 c-0.07,0-0.101-0.06-0.101-0.126c0-0.018,0.002-0.033,0.005-0.05l0.207-1.26l-0.876-0.893c-0.029-0.033-0.06-0.075-0.06-0.121 c0-0.076,0.075-0.106,0.135-0.116l1.207-0.184l0.541-1.147c0.021-0.048,0.062-0.103,0.117-0.103s0.096,0.055,0.118,0.103 l0.541,1.147l1.207,0.184c0.057,0.01,0.134,0.04,0.134,0.116C13.452,10.402,13.421,10.444,13.39,10.477z"/><path d="M2.145,1.806h5v1h-5V1.806z"/><path d="M2.145,3.806h5v1h-5V3.806z"/></g></svg>