<svg xmlns="http://www.w3.org/2000/svg" version="1.1" viewBox="0 0 16 16">
<g fill="currentColor">
	<path d="M8.5,2C8.7761402,2,9,2.2238598,9,2.5v1C9,3.7761402,8.7761402,4,8.5,4h-6C2.22386,4,2,3.7761402,2,3.5v-1
		C2,2.2238598,2.22386,2,2.5,2H8.5 M8.5,1h-6C1.6729,1,1,1.6729002,1,2.5v1C1,4.3270998,1.6729,5,2.5,5h6
		C9.3270998,5,10,4.3270998,10,3.5v-1C10,1.6729002,9.3270998,1,8.5,1L8.5,1z"/>
	<path d="M13.5,12c0.2761402,0,0.5,0.2238598,0.5,0.5v1c0,0.2761402-0.2238598,0.5-0.5,0.5h-6C7.2238598,14,7,13.7761402,7,13.5v-1
		C7,12.2238598,7.2238598,12,7.5,12H13.5 M13.5,11h-6C6.6729002,11,6,11.6729002,6,12.5v1C6,14.3270998,6.6729002,15,7.5,15h6
		c0.8270998,0,1.5-0.6729002,1.5-1.5v-1C15,11.6729002,14.3270998,11,13.5,11L13.5,11z"/>
	<path d="M3.5,12C3.77614,12,4,12.2238598,4,12.5v1C4,13.7761402,3.77614,14,3.5,14h-1C2.22386,14,2,13.7761402,2,13.5v-1
		C2,12.2238598,2.22386,12,2.5,12H3.5 M3.5,11h-1C1.6729,11,1,11.6729002,1,12.5v1C1,14.3270998,1.6729,15,2.5,15h1
		C4.3270998,15,5,14.3270998,5,13.5v-1C5,11.6729002,4.3270998,11,3.5,11L3.5,11z"/>
	<path d="M13.5,2C13.7761402,2,14,2.2238598,14,2.5v6C14,8.7761402,13.7761402,9,13.5,9h-1C12.2238598,9,12,8.7761402,12,8.5v-6
		C12,2.2238598,12.2238598,2,12.5,2H13.5 M13.5,1h-1C11.6729002,1,11,1.6729002,11,2.5v6c0,0.8270998,0.6729002,1.5,1.5,1.5h1
		c0.8270998,0,1.5-0.6729002,1.5-1.5v-6C15,1.6729002,14.3270998,1,13.5,1L13.5,1z"/>
	<path d="M8.5,7C8.7761402,7,9,7.2238598,9,7.5v1C9,8.7761402,8.7761402,9,8.5,9h-6C2.22386,9,2,8.7761402,2,8.5v-1
		C2,7.2238598,2.22386,7,2.5,7H8.5 M8.5,6h-6C1.6729,6,1,6.6729002,1,7.5v1C1,9.3270998,1.6729,10,2.5,10h6
		C9.3270998,10,10,9.3270998,10,8.5v-1C10,6.6729002,9.3270998,6,8.5,6L8.5,6z"/>
</g>
</svg>
