<?xml version="1.0" encoding="utf-8"?>
<!-- Generator: Adobe Illustrator 25.4.1, SVG Export Plug-In . SVG Version: 6.00 Build 0)  -->
<svg version="1.1" id="Ebene_1" xmlns="http://www.w3.org/2000/svg" xmlns:xlink="http://www.w3.org/1999/xlink" x="0px" y="0px"
	 viewBox="0 0 16 16" enable-background="new 0 0 16 16" xml:space="preserve">
<g class="icon-color">
	<path d="M10.757,9.343l3.182-3.182l-2.506-1.253c-0.192-0.096-0.425-0.059-0.577,0.094l-0.664,0.664L7.434,4.181l0.849-0.849
		L6.515,1.565c-0.195-0.195-0.512-0.195-0.707,0L1.565,5.808c-0.195,0.195-0.195,0.512,0,0.707l1.768,1.768l0.849-0.849l1.485,2.758
		l-0.664,0.664c-0.152,0.152-0.19,0.385-0.094,0.577l1.253,2.506l3.182-3.182L13.586,15H15v-1.414L10.757,9.343z M3.333,6.868
		L2.626,6.161l3.535-3.536l0.707,0.707L3.333,6.868z M4.919,6.696l1.776-1.776l2.758,1.485L6.404,9.453L4.919,6.696z M5.964,11.308
		l5.345-5.345l0.943,0.471l-5.816,5.816L5.964,11.308z"/>
</g>
</svg>
