<?xml version="1.0" encoding="utf-8"?>
<!-- Generator: Adobe Illustrator 25.1.0, SVG Export Plug-In . SVG Version: 6.00 Build 0)  -->
<svg version="1.1" xmlns="http://www.w3.org/2000/svg" xmlns:xlink="http://www.w3.org/1999/xlink" x="0px" y="0px"
	 viewBox="0 0 16 16" enable-background="new 0 0 16 16">
<g fill="currentColor">
	<path d="M14.5771484,1.4233398c-0.2128906-0.2124023-0.5302734-0.2773438-0.8125-0.1650391L0.7963867,6.5141602
		C0.4892578,6.6381836,0.3022461,6.9433594,0.3305664,7.2729492c0.0283203,0.3300781,0.2646484,0.5991211,0.5883789,0.6694336
		l5.8662109,1.2724609l1.2724609,5.8671875c0.0703125,0.3232422,0.3393555,0.5595703,0.6689453,0.5878906
		c0.0219727,0.0019531,0.0439453,0.0029297,0.065918,0.0029297c0.3041992,0,0.5776367-0.1826172,0.6938477-0.46875
		l5.2548828-12.96875C14.8554688,1.9555664,14.7900391,1.637207,14.5771484,1.4233398z M1.9223633,7.1367188l10.4816895-4.24823
		L7.045166,8.2478027L1.9223633,7.1367188z M8.8632812,14.078125L7.7520752,8.9553833l5.3588867-5.3595581L8.8632812,14.078125z"/>
</g>
</svg>
