<svg xmlns="http://www.w3.org/2000/svg" version="1.1" viewBox="0 0 16 16">
<g fill="currentColor">
  <path d="M13,2H3c-1.10455,0-2,.8954496-2,2v8c0,1.1045499.89545,2,2,2h10c1.1045504,0,2-.8954501,2-2V4c0-1.1045504-.8954496-2-2-2h0ZM11,13V3h2c.5513897,0,1,.4486103,1,1v8c0,.5513899-.4486103,1-1,1h-2ZM3,13c-.5513899,0-1-.4486101-1-1V4c0-.5513897.4486101-1,1-1h7v10H3Z"/>
  <path d="M4.0515512,6.1196422v3.7607155c0,.5351648.7611858.8176945,1.2394087.4600319l2.3262283-1.7397846c.4416808-.3303328.4416808-.8708773,0-1.2012101l-2.3262283-1.7397846c-.4782229-.3576626-1.2394087-.0751329-1.2394087.4600319Z"/>
</g>
</svg>
