<svg xmlns="http://www.w3.org/2000/svg" version="1.1" viewBox="0 0 16 16">
<g fill="currentColor">
	<path d="M7.0855103,14.0738525l0.0059814-0.0293579l-0.0305176-0.0103149C7.0357666,14.0256348,7.0148315,14.0097656,6.9902954,14
		H3V2h7v2.5C10,4.7999878,10.2000122,5,10.5,5H13v1.0692749c0.4589844,0.1376953,0.822876,0.4760132,1,0.9209595V5V4V3.9000244
		c0-0.3000488-0.0999756-0.5-0.2999878-0.7000122l-1.9000244-1.9000244C11.5999756,1.0999756,11.4000244,1,11.0999756,1H2.5
		C2.2000122,1,2,1.2000122,2,1.5v13C2,14.7999878,2.2000122,15,2.5,15h4.6941528
		C7.0686646,14.7113647,7.0211792,14.3918457,7.0855103,14.0738525z M11,2l2,2h-2V2z"/>
	<path d="M10.6496782,8.3256874l0.1886616,0.1664963L11.5,9.0761089l0.6616602-0.5839252l0.1886616-0.1664953l0.0806885,0.2393408
		l0.2815294,0.8350849l0.8638-0.174264l0.2473469-0.0499029L13.7737913,9.423316l-0.1742516,0.8638659l0.8350115,0.2815523
		l0.2393112,0.0806904l-0.1664715,0.1886597l-0.58389,0.6617212l0.58389,0.6617117l0.1664839,0.1886749l-0.2393236,0.0806952
		l-0.8350115,0.2815523l0.1742516,0.8638659l0.0498934,0.247365l-0.247345-0.0498991l-0.8638-0.174264l-0.2815294,0.8350849
		l-0.0806885,0.2393417l-0.1886616-0.1664963L11.5,13.9235125l-0.6616602,0.5839252l-0.1886616,0.1664963l-0.0806885-0.2393417
		l-0.2815294-0.8350849l-0.8638,0.174264L9.1763124,13.823679l0.0498962-0.2473736l0.1742516-0.8638659l-0.8350115-0.2815523
		L8.3261261,12.350193l0.1664829-0.1886759l0.58389-0.6617117l-0.58389-0.6617212l-0.1664743-0.1886578l0.2393141-0.0806923
		l0.8350115-0.2815523L9.2262087,9.423316L9.1763153,9.175951l0.247345,0.0498991l0.8638,0.174264l0.2815294-0.8350849
		L10.6496782,8.3256874 M12.5559683,7.0000029c-0.1353455,0-0.2691956,0.0478535-0.3737383,0.1402469L11.5,7.7423258
		l-0.68223-0.6020761c-0.1053553-0.092401-0.239995-0.1402469-0.3748417-0.1402469
		c-0.0479393,0-0.0959196,0.0060506-0.1425982,0.0182977C10.1179705,7.0677342,9.97295,7.2039742,9.9125299,7.381958
		L9.6213999,8.2455244L8.7282486,8.065341C8.6926947,8.0578794,8.6563988,8.0542316,8.6200027,8.0542316
		c-0.1457968,0-0.293149,0.0585384-0.400404,0.1649208C8.086669,8.3520927,8.0284395,8.5432673,8.0657892,8.7278423
		l0.1801701,0.8932285l-0.8634901,0.291153c-0.1779699,0.0604239-0.3141999,0.2054453-0.3636403,0.3878288
		c-0.0483298,0.1812849-0.0021896,0.3757496,0.1219501,0.5174809l0.6020298,0.682272L7.140779,12.1820879
		c-0.1241398,0.1417313-0.17028,0.3361969-0.1219501,0.5174809c0.0494404,0.1823835,0.1856704,0.327405,0.3636403,0.3878298
		l0.8634901,0.291152L8.0657892,14.27178c-0.0373497,0.1845741,0.0208797,0.3757486,0.1538095,0.5086889
		c0.1072636,0.106391,0.2545967,0.1649208,0.400404,0.1649208c0.0363846,0,0.0727024-0.0036497,0.1082458-0.0111094
		l0.8931513-0.1801834l0.2911301,0.8635664c0.06042,0.1779833,0.2054405,0.3142147,0.3878002,0.363658
		c0.0464172,0.0117474,0.094099,0.0175915,0.1417704,0.0175915c0.1351156,0,0.2701044-0.046957,0.3756695-0.1395407L11.5,15.2572956
		l0.68223,0.6020765c0.1043596,0.0922871,0.2372904,0.1406317,0.3724203,0.1406317
		c0.0483398,0,0.0977793-0.0066013,0.1450195-0.0186825c0.1823597-0.0494432,0.3273802-0.1856747,0.3878002-0.363658
		l0.2911301-0.8635664l0.8931513,0.1801834c0.0357723,0.0074625,0.0721989,0.0111094,0.1086645,0.0111094
		c0.1460752,0,0.2927303-0.0585375,0.3999853-0.1649208c0.1329298-0.1329403,0.1911592-0.3241148,0.1538095-0.5086889
		l-0.1801701-0.8932295l0.8634901-0.291152c0.1779699-0.0604248,0.3142004-0.2054462,0.3636398-0.3878298
		c0.0483303-0.181284,0.0021906-0.3757496-0.1219501-0.5174809l-0.6020298-0.6822824l0.6020298-0.682272
		c0.1241407-0.1417313,0.1702805-0.3361959,0.1219501-0.5174809c-0.0494394-0.1823835-0.1856699-0.327405-0.3636398-0.3878288
		l-0.8634901-0.291153l0.1801701-0.8932285c0.0373497-0.1845751-0.0208797-0.3757496-0.1538095-0.5086899
		c-0.1072636-0.106391-0.2538986-0.1649208-0.3999853-0.1649208c-0.0364552,0-0.0729036,0.0036497-0.1086645,0.0111094
		l-0.8931513,0.1801834L13.0874701,7.381958c-0.06042-0.1779838-0.2054405-0.3142238-0.3878002-0.3636575
		C12.6524057,7.0060506,12.6040993,7.0000029,12.5559683,7.0000029L12.5559683,7.0000029z"/>
</g>
</svg>
