<?xml version="1.0" encoding="UTF-8" standalone="no"?>
<svg width="16px" height="16px" viewBox="0 0 16 16" version="1.1" xmlns="http://www.w3.org/2000/svg" xmlns:xlink="http://www.w3.org/1999/xlink" xmlns:sketch="http://www.bohemiancoding.com/sketch/ns">
    <!-- Generator: Sketch 3.3.3 (12072) - http://www.bohemiancoding.com/sketch -->
    <title>actions-document-open-read-only</title>
    <desc>Created with Sketch.</desc>
    <defs></defs>
    <g class="icon-color" fill-rule="evenodd">
        <path d="M2,14 L2,2 L14,2 L14,5.289 C14.369,5.436 14.699,5.647 15,5.892 L15,1.5 C15,1.224 14.776,1 14.5,1 L1.5,1 C1.224,1 1,1.224 1,1.5 L1,14.5 C1,14.776 1.224,15 1.5,15 L7,15 L7,14 L2,14 Z M3,8 L3,9 L7.89936182,9 L7.89936182,8.889 C7.89936182,8.581 7.94236182,8.286 8.00836182,8 L3,8 Z M3,6 L3,7 L8.58850098,7 C8.79850098,6.622 9.06350098,6.285 9.38450098,6 L3,6 Z M3,5 L13,5 L13,3 L3,3 L3,5 Z M15,10 L15,9.5 C15,8.1 13.9,7 12.5,7 C11.1,7 10,8.1 10,9.5 L10,10 L9,10 L9,16 L16,16 L16,10 L15,10 Z M13,13.9 L13,15 L12,15 L12,13.9 C11.4,13.7 11,13.1 11,12.5 C11,11.7 11.7,11 12.5,11 C13.3,11 14,11.7 14,12.5 C14,13.2 13.6,13.7 13,13.9 Z M11,10 L11,9.5 C11,8.7 11.7,8 12.5,8 C13.3,8 14,8.7 14,9.5 L14,10 L11,10 Z M3.06,12 L7,12 L7,13 L3.06,13 L3.06,12 Z M3.06,10 L7,10 L7,11 L3.06,11 L3.06,10 Z"></path>
    </g>
</svg>