<?xml version="1.0" encoding="utf-8"?>
<!-- Generator: Adobe Illustrator 19.1.0, SVG Export Plug-In . SVG Version: 6.00 Build 0)  -->
<svg version="1.1" xmlns="http://www.w3.org/2000/svg" xmlns:xlink="http://www.w3.org/1999/xlink" x="0px" y="0px"
	 viewBox="0 0 16 16" style="enable-background:new 0 0 16 16;" xml:space="preserve">
<g class="icon-color">
	<path d="M7,3c0.6,0,1,0.4,1,1v8c0,0.6-0.4,1-1,1H2c-0.6,0-1-0.4-1-1V4c0-0.6,0.4-1,1-1H7 M7,2H2C0.9,2,0,2.9,0,4v8c0,1.1,0.9,2,2,2
		h5c1.1,0,2-0.9,2-2V4C9,2.9,8.1,2,7,2L7,2z"/>
	<path d="M14,4c0.6,0,1,0.4,1,1v6c0,0.6-0.4,1-1,1H9V4H14 M14,3H8v10h6c1.1,0,2-0.9,2-2V5C16,3.9,15.1,3,14,3L14,3z"/>
	<rect x="3" y="5" width="1" height="6"/>
	<rect x="5" y="5" width="1" height="6"/>
</g>
</svg>
