<?xml version="1.0" encoding="utf-8"?>
<!-- Generator: Adobe Illustrator 25.1.0, SVG Export Plug-In . SVG Version: 6.00 Build 0)  -->
<svg version="1.1" xmlns="http://www.w3.org/2000/svg" xmlns:xlink="http://www.w3.org/1999/xlink" x="0px" y="0px"
	 viewBox="0 0 16 16" enable-background="new 0 0 16 16" xml:space="preserve">
<g fill="currentColor">
	<path d="M10.25,1.75c2.3536396,0,4.2390079,2.0433323,3.9752245,4.4492865
		c-0.1920938,1.7520742-1.6094885,3.1744738-3.343154,3.4923878c-0.644742,0.1182308-1.277297,0.0583935-1.9804802-0.1950045
		L8.3043499,9.2814293L7.5857801,10H6v1.75C6,11.8880711,5.8880711,12,5.75,12H4v1.75C4,13.8880711,3.8880713,14,3.75,14h-1.5
		C2.1119287,14,2,13.8880711,2,13.75v-1.6522856c0-0.1279335,0.0490389-0.2510004,0.1370249-0.343874L6.48106,7.1684999
		L6.3610201,6.6460104C6.2863102,6.3208599,6.25,6.02777,6.25,5.75C6.25,3.5443897,8.0443897,1.75,10.25,1.75 M10.25,0.75
		c-2.7614102,0-5,2.2385902-5,5c0,0.3864698,0.0534101,0.7586699,0.1364102,1.1199303l-4.112361,4.3407974
		C1.0980779,11.3964739,1,11.6426077,1,11.8984747V14.25C1,14.6642132,1.3357865,15,1.75,15h2.5C4.6642137,15,5,14.6642132,5,14.25
		V13h1.25C6.6642137,13,7,12.6642132,7,12.25V11h1l0.5625601-0.5625601c1.2203922,0.4398003,2.6185284,0.512846,4.1800985-0.4270239
		c1.3286457-0.7996778,2.3074436-2.1542563,2.4763193-3.6957703C15.549201,3.3003204,13.1974125,0.75,10.25,0.75L10.25,0.75z"/>
	<circle cx="11.5" cy="4.5" r="0.875"/>
</g>
</svg>
