<svg xmlns="http://www.w3.org/2000/svg" viewBox="0 0 16 16"><g class="icon-color"><path d="M2.946,15.18H2.109c-0.649,0-1.177-0.528-1.177-1.177v-0.837c0-0.303,0.246-0.549,0.549-0.549s0.549,0.246,0.549,0.549 v0.837c0,0.044,0.035,0.078,0.078,0.078h0.837c0.303,0,0.549,0.246,0.549,0.549C3.495,14.934,3.249,15.18,2.946,15.18z"/><path d="M10.268,7.858c-0.303,0-0.549-0.246-0.549-0.549V6.472c0-0.043-0.035-0.078-0.078-0.078H8.804 c-0.303,0-0.549-0.246-0.549-0.549s0.246-0.549,0.549-0.549h0.837c0.649,0,1.177,0.528,1.177,1.177v0.837 C10.817,7.612,10.571,7.858,10.268,7.858z"/><path d="M6.607,15.18H5.143c-0.303,0-0.549-0.246-0.549-0.549c0-0.303,0.246-0.549,0.549-0.549h1.464 c0.303,0,0.549,0.246,0.549,0.549C7.156,14.934,6.91,15.18,6.607,15.18z"/><path d="M6.607,6.393H5.143c-0.303,0-0.549-0.246-0.549-0.549S4.84,5.295,5.143,5.295h1.464c0.303,0,0.549,0.246,0.549,0.549 S6.91,6.393,6.607,6.393z"/><path d="M9.641,15.18H8.804c-0.303,0-0.549-0.246-0.549-0.549c0-0.303,0.246-0.549,0.549-0.549h0.837 c0.044,0,0.078-0.035,0.078-0.078v-0.837c0-0.303,0.246-0.549,0.549-0.549c0.303,0,0.549,0.246,0.549,0.549v0.837 C10.817,14.652,10.289,15.18,9.641,15.18z"/><path d="M1.482,7.858c-0.303,0-0.549-0.246-0.549-0.549V6.472c0-0.649,0.528-1.177,1.177-1.177h0.837 c0.303,0,0.549,0.246,0.549,0.549S3.249,6.393,2.946,6.393H2.109c-0.043,0-0.078,0.035-0.078,0.078v0.837 C2.031,7.612,1.785,7.858,1.482,7.858z"/><path d="M10.268,11.519c-0.303,0-0.549-0.246-0.549-0.549V9.505c0-0.303,0.246-0.549,0.549-0.549c0.303,0,0.549,0.246,0.549,0.549 v1.464C10.817,11.273,10.571,11.519,10.268,11.519z"/><path d="M1.482,11.519c-0.303,0-0.549-0.246-0.549-0.549V9.505c0-0.303,0.246-0.549,0.549-0.549s0.549,0.246,0.549,0.549v1.464 C2.031,11.273,1.785,11.519,1.482,11.519z"/><path d="M13.198,11.519h-0.733c-0.303,0-0.549-0.246-0.549-0.549c0-0.303,0.246-0.549,0.549-0.549h0.732 c0.504,0,0.915-0.411,0.915-0.915v-6.59c0-0.245-0.095-0.474-0.268-0.647C13.672,2.095,13.442,2,13.198,2c0,0,0,0-0.001,0h-6.59 C6.363,2,6.133,2.095,5.96,2.268S5.692,2.671,5.692,2.915v0.732c0,0.303-0.246,0.549-0.549,0.549S4.594,3.951,4.594,3.647V2.915 c0-1.11,0.902-2.014,2.013-2.014h6.591h0.001c0.537,0,1.043,0.209,1.423,0.589c0.38,0.38,0.59,0.886,0.59,1.423v6.591 C15.211,10.616,14.308,11.519,13.198,11.519z"/></g></svg>
