<?xml version="1.0" encoding="utf-8"?>
<!-- Generator: Adobe Illustrator 25.1.0, SVG Export Plug-In . SVG Version: 6.00 Build 0)  -->
<svg version="1.1" xmlns="http://www.w3.org/2000/svg" xmlns:xlink="http://www.w3.org/1999/xlink" x="0px" y="0px"
	 viewBox="0 0 16 16" enable-background="new 0 0 16 16" xml:space="preserve">
<g fill="currentColor">
	<path d="M8,2.0081444c0.1771402,0,0.6169796,0.05021,0.8746996,0.5153399l5.5364609,9.9918499
		c0.2499895,0.4511709,0.0741091,0.8442307-0.0131102,0.99228c-0.0872307,0.1480408-0.3457899,0.4923906-0.8615904,0.4923906
		H2.4635501c-0.5158101,0-0.7743701-0.3443499-0.8615901-0.4923906C1.51473,13.3595648,1.33884,12.9665051,1.58884,12.5153246
		l5.5364599-9.9918404C7.3830199,2.0583649,7.8228598,2.0081444,8,2.0081444 M8,1.0081491
		c-0.6843376,0-1.3686752,0.3435555-1.7494001,1.0306654L0.71414,12.0306549
		c-0.73862,1.3330297,0.22542,2.9693499,1.7494102,2.9693499h11.0729103c1.5239801,0,2.4880209-1.6363201,1.7494001-2.9693403
		L9.7494001,2.0388145C9.3686752,1.3517046,8.6843376,1.0081491,8,1.0081491L8,1.0081491z"/>
</g>
</svg>
