<?xml version="1.0" encoding="utf-8"?>
<!-- Generator: Adobe Illustrator 25.1.0, SVG Export Plug-In . SVG Version: 6.00 Build 0)  -->
<svg version="1.1" xmlns="http://www.w3.org/2000/svg" xmlns:xlink="http://www.w3.org/1999/xlink" x="0px" y="0px"
	 viewBox="0 0 16 16" enable-background="new 0 0 16 16">
<g fill="currentColor">
	<polygon points="2,3 1,3 1,13 2,13 2,3 	"/>
	<polygon points="3.5,3 3,3 3,13 3.5,13 3.5,3 	"/>
	<polygon points="4.5,3 4,3 4,13 4.5,13 4.5,3 	"/>
	<polygon points="11,3 10.5,3 10.5,13 11,13 11,3 	"/>
	<polygon points="12,3 11.5,3 11.5,13 12,13 12,3 	"/>
	<polygon points="8.5,3 8,3 8,13 8.5,13 8.5,3 	"/>
	<polygon points="6,3 5,3 5,13 6,13 6,3 	"/>
	<polygon points="7.5,3 6.5,3 6.5,13 7.5,13 7.5,3 	"/>
	<polygon points="10,3 9,3 9,13 10,13 10,3 	"/>
	<polygon points="13,3 12.5,3 12.5,13 13,13 13,3 	"/>
	<polygon points="15,3 14,3 14,13 15,13 15,3 	"/>
</g>
</svg>
