<?xml version="1.0" encoding="utf-8"?>
<!-- Generator: Adobe Illustrator 23.0.3, SVG Export Plug-In . SVG Version: 6.00 Build 0)  -->
<svg version="1.1" id="Ebene_1" xmlns="http://www.w3.org/2000/svg" xmlns:xlink="http://www.w3.org/1999/xlink" x="0px" y="0px"
	 viewBox="0 0 16 16" enable-background="new 0 0 16 16" xml:space="preserve">
<g fill="currentColor">
	<path d="M13.5,3H12V1.5C12,1.224,11.776,1,11.5,1h-2C9.224,1,9,1.224,9,1.5V3H6V1.5C6,1.224,5.776,1,5.5,1h-2
		C3.224,1,3,1.224,3,1.5V3H1.5C1.224,3,1,3.224,1,3.5v11C1,14.776,1.224,15,1.5,15h12c0.276,0,0.5-0.224,0.5-0.5v-11
		C14,3.224,13.776,3,13.5,3z M10,2h1v2h-1V2z M4,2h1v2H4V2z M13,14H2V6h11V14z"/>
</g>
</svg>
