<?xml version="1.0" encoding="utf-8"?>
<!-- Generator: Adobe Illustrator 25.4.0, SVG Export Plug-In . SVG Version: 6.00 Build 0)  -->
<svg version="1.1" id="Ebene_1" xmlns="http://www.w3.org/2000/svg" xmlns:xlink="http://www.w3.org/1999/xlink" x="0px" y="0px"
	 viewBox="0 0 16 16" enable-background="new 0 0 16 16" xml:space="preserve">
<g fill="currentColor">
	<path d="M13,2v6c0,3.067-3.749,5.246-5,5.888C6.747,13.246,3,11.066,3,8V2H13 M14,1H2c0,0,0,5.25,0,7c0,4.375,6,7,6,7s6-2.625,6-7
		C14,6.25,14,1,14,1L14,1z"/>
	<path d="M9.672,8.38C9.585,8.424,9.498,8.424,9.411,8.424c-0.783,0-1.913-2.696-1.913-3.609c0-0.348,0.087-0.435,0.174-0.522
		C6.759,4.424,5.628,4.772,5.28,5.207C5.193,5.293,5.15,5.467,5.15,5.685c0,1.435,1.478,4.609,2.565,4.609
		C8.193,10.293,9.02,9.511,9.672,8.38"/>
	<path d="M9.193,4.207c0.957,0,1.957,0.174,1.957,0.696c0,1.13-0.696,2.478-1.087,2.478c-0.652,0-1.435-1.783-1.435-2.696
		C8.628,4.293,8.802,4.207,9.193,4.207"/>
</g>
</svg>
