<?xml version="1.0" encoding="utf-8"?>
<!-- Generator: Adobe Illustrator 25.0.0, SVG Export Plug-In . SVG Version: 6.00 Build 0)  -->
<svg version="1.1" id="Ebene_1" xmlns="http://www.w3.org/2000/svg" xmlns:xlink="http://www.w3.org/1999/xlink" x="0px" y="0px"
	 viewBox="0 0 16 16" enable-background="new 0 0 16 16" xml:space="preserve">
<g fill="currentColor">
	<path d="M5,13v1.5C5,14.776,5.224,15,5.5,15h8c0.276,0,0.5-0.224,0.5-0.5v-13C14,1.224,13.776,1,13.5,1h-8C5.224,1,5,1.224,5,1.5V3
		h1V2h7v12H6v-1H5z"/>
	<path d="M4.983,5.041c0-0.42,0.485-0.652,0.812-0.39l3.7,2.96c0.25,0.2,0.25,0.58,0,0.78l-3.7,2.96
		c-0.327,0.26-0.812,0.028-0.812-0.39V9H2V7h2.983V5.041z"/>
</g>
</svg>
