<?xml version="1.0" encoding="utf-8"?>
<!-- Generator: Adobe Illustrator 25.4.0, SVG Export Plug-In . SVG Version: 6.00 Build 0)  -->
<svg version="1.1" xmlns="http://www.w3.org/2000/svg" xmlns:xlink="http://www.w3.org/1999/xlink" x="0px" y="0px"
	 viewBox="0 0 16 16" enable-background="new 0 0 16 16" xml:space="preserve">
<g fill="currentColor">
	<path d="M14.5,2h-13C1.2,2,1,2.2,1,2.5v9C1,11.8,1.2,12,1.5,12H6v1H4v1h2h4h2v-1h-2v-1h4.5c0.3,0,0.5-0.2,0.5-0.5v-9
		C15,2.2,14.8,2,14.5,2z M14,11H2V3h12V11z"/>
	<path d="M10.74,5.999H8.865L8.24,4.124c-0.096-0.192-0.336-0.192-0.433,0L7.135,5.999H5.26c-0.24,0-0.336,0.288-0.192,0.433
		L6.51,7.777L5.837,9.748c-0.096,0.192,0.144,0.433,0.336,0.288L8,8.883l1.827,1.154c0.192,0.096,0.433-0.096,0.336-0.288
		L9.49,7.777l1.442-1.346C11.076,6.287,10.98,5.999,10.74,5.999z"/>
</g>
</svg>
