<?xml version="1.0" encoding="utf-8"?>
<!-- Generator: Adobe Illustrator 22.1.0, SVG Export Plug-In . SVG Version: 6.00 Build 0)  -->
<svg version="1.1" id="Ebene_1" xmlns="http://www.w3.org/2000/svg" xmlns:xlink="http://www.w3.org/1999/xlink" x="0px" y="0px"
	 viewBox="0 0 16 16" enable-background="new 0 0 16 16" xml:space="preserve">
<g class="icon-color">
	<polygon points="14,1 10,1 10,2 14,2 14,7 2,7 2,2 3,2 3,1 2,1 1,1 1,2 1,7 1,8 2,8 14,8 15,8 15,7 15,2 15,1 "/>
	<polygon points="13,3 4,3 3,3 3,4 3,5 3,6 4,6 13,6 13,6 13,5 13,4 13,3 "/>
	<rect x="4" y="1" width="5" height="1"/>
	<polygon points="11,11 9,11 9,9 7,9 7,11 5,11 5,13 7,13 7,15 9,15 9,13 11,13 "/>
</g>
</svg>
