<svg xmlns="http://www.w3.org/2000/svg" version="1.1" viewBox="0 0 16 16">
<g fill="currentColor">
  <path d="M14.7672554,6.5960146l-.0196813-.0502988-1.9055169-4.9730026c-.0387697-.0974681-.1074161-.1801508-.1960919-.2361847-.1817442-.1128219-.414568-.1003078-.5831724.0313455-.0814024.0661209-.140454.1557172-.1691205.2565956l-1.2866236,3.9364142h-5.2099153l-1.2866236-3.9364136c-.0279046-.1014279-.0870841-.191473-.1691194-.2573247-.1686044-.1316534-.4014282-.1441675-.5831724-.0313455-.0884767.0562597-.1570636.1388706-.1960919.2361847l-1.9091608,4.9708158-.0189533.0502988c-.5635262,1.4724044-.0849435,3.1400142,1.1736343,4.0894968l.0065604.0051033.017495.0123923,2.9027405,2.1737745,1.4360618,1.0868878.8747586.6604426c.210285.1596614.5011849.1596614.7114699,0l.8747586-.6604426,1.4360618-1.0868878,2.9202367-2.1868965.0072901-.0058319c1.2556346-.9495683,1.7332952-2.6142594,1.1721755-4.0851232Z"/>
</g>
</svg>
