<svg xmlns="http://www.w3.org/2000/svg" viewBox="0 0 16 16">
<g class="icon-color">
	<path d="M15.366,6.604L8.284,2.177C8.202,2.126,8.11,2.101,8.019,2.101c-0.102,0-0.204,0.031-0.291,0.093l-6.12,4.371
		c-0.29,0.207-0.276,0.642,0.026,0.831L2,7.625V11h1V8.25l1,0.625v2.342c0,0.176,0.092,0.338,0.243,0.429l4.479,2.687
		c0.079,0.048,0.168,0.071,0.257,0.071c0.101,0,0.201-0.03,0.287-0.091l4.551-3.194c0.135-0.094,0.214-0.249,0.213-0.413
		l-0.018-2.286l1.38-0.986C15.681,7.228,15.668,6.792,15.366,6.604z M13.027,10.452l-4.07,2.856L5,10.934V9.5l3.716,2.323
		c0.081,0.051,0.173,0.076,0.265,0.076c0.102,0,0.204-0.031,0.291-0.093l3.745-2.675L13.027,10.452z M8.963,10.798L2.798,6.945
		l5.239-3.742l6.165,3.853L8.963,10.798z"/>
</g>
</svg>