<?xml version="1.0" encoding="utf-8"?>
<!-- Generator: Adobe Illustrator 24.3.0, SVG Export Plug-In . SVG Version: 6.00 Build 0)  -->
<svg version="1.1" xmlns="http://www.w3.org/2000/svg" xmlns:xlink="http://www.w3.org/1999/xlink" x="0px" y="0px"
	 viewBox="0 0 16 16" enable-background="new 0 0 16 16">
<g fill="currentColor">
	<path d="M12,7.5L12,7.5C12,6.672,11.328,6,10.5,6c-0.268,0-0.524,0.07-0.749,0.2
		l-0.75,0.434l-0.536-0.68C7.993,5.355,7.277,5,6.5,5C5.241,5,4.182,5.937,4.021,7.173L3.928,7.891L3.217,8.027
		C2.516,8.16,2,8.777,2,9.5C2,10.328,2.672,11,3.5,11H13c0.552,0,1-0.448,1-1s-0.448-1-1-1c-0.013,0-0.013,0-0.026,0L11.72,9.031
		l0.25-1.23C11.99,7.703,12,7.603,12,7.5L12,7.5z M12.95,8.001c0.444,0,0.879,0.179,0.879,0.179C14.52,8.494,15,9.191,15,10
		c0,1.105-0.895,2-2,2H3.5C2.119,12,1,10.881,1,9.5c0-1.22,0.874-2.236,2.029-2.456C3.253,5.327,4.721,4,6.5,4
		c1.115,0,2.109,0.522,2.75,1.335C9.618,5.122,10.045,5,10.5,5c1.21,0,2.219,0.859,2.45,2C12.95,7,13.067,7.545,12.95,8.001z"/>
</g>
</svg>
