<svg xmlns="http://www.w3.org/2000/svg" viewBox="0 0 16 16">
<g class="icon-color">
	<path d="M7.8,10.7l-1.9,1.9c-0.4,0.4-1,0.4-1.4,0l-1.1-1.1c-0.4-0.4-0.4-1,0-1.4l1.9-1.9L4.5,7.3L2.3,9.4c-0.8,0.8-0.8,2,0,2.8
		l1.4,1.4c0.8,0.8,2,0.8,2.8,0l2.1-2.1L7.8,10.7z"/>
	<path d="M8.2,5.3l1.9-1.9c0.4-0.4,1-0.4,1.4,0l1.1,1.1c0.4,0.4,0.4,1,0,1.4l-1.9,1.9l0.9,0.9l2.1-2.1c0.8-0.8,0.8-2,0-2.8l-1.4-1.4
		c-0.8-0.8-2-0.8-2.8,0L7.3,4.5L8.2,5.3z"/>
	<path d="M12.9,12.2l-0.7,0.7c-0.1,0.1-0.3,0.1-0.4,0L3.1,4.1C3,4,3,3.9,3.1,3.8l0.7-0.7C3.9,3,4,3,4.1,3.1l8.8,8.8
		C13,12,13,12.1,12.9,12.2z"/>
</g>
</svg>