<?xml version="1.0" encoding="utf-8"?>
<!-- Generator: Adobe Illustrator 25.2.0, SVG Export Plug-In . SVG Version: 6.00 Build 0)  -->
<svg version="1.1" id="Ebene_1" xmlns="http://www.w3.org/2000/svg" xmlns:xlink="http://www.w3.org/1999/xlink" x="0px" y="0px"
	 viewBox="0 0 16 16" enable-background="new 0 0 16 16" xml:space="preserve">
<g fill="currentColor">
	<path d="M10.4855633,2.0000105l3.4925041,0.000015c-0.1662445,3.7228487-1.2776842,6.6353827-3.3101559,8.6678638
		c-2.0324812,2.0324726-4.945013,3.1439114-8.6678619,3.3101568l-0.0000064-3.4924927
		c0.9945364-0.0322113,1.8847432-0.1255713,2.7209322-0.3503599l1.0719161,1.0719166l0.5107899,0.5107899l0.6454201-0.32442
		C8.9669714,10.3792,10.3792019,8.9669704,11.3934813,6.9491l0.32442-0.6454201l-0.5107899-0.5107899l-1.0719137-1.0719142
		C10.3599815,3.884778,10.4533529,2.9945433,10.4855633,2.0000105 M10.3593626,1.0000131
		c-0.5156231,0-0.8593683,0.0000019-0.8593607,0.0000069C9.500021,2.53456,9.4264116,3.8268199,9.0000019,5l1.5,1.5
		c-0.91998,1.8302698-2.1697302,3.08002-4.0000005,4c0,0-1.50003-1.5000296-1.5-1.5
		c-1.1731801,0.4264202-2.46542,0.50002-3.9999599,0.5c0,0-0.00002,5.4999304,0.00001,5.4999704
		C10.000021,14.99998,15.0000019,10,14.9999914,1.00003C14.9999914,1.00003,11.90623,1.0000131,10.3593626,1.0000131
		L10.3593626,1.0000131z"/>
</g>
</svg>
