<svg xmlns="http://www.w3.org/2000/svg" version="1.1" viewBox="0 0 16 16">
<g fill="currentColor">
  <path d="M5.7382812,14.5004229l2.0004883-5H2.934082L9.1679688,1.5951495c.046875-.0605469.1191406-.0952148.1962891-.0952148h.8974609l-2,5h4.8037109l-6.2329102,7.9047852c-.0473633.0605469-.1206055.0957031-.1962891.0957031h-.8979492Z"/>
  <path d="M9.5229521,2l-1.4514818,3.6286001-.5485802,1.3713999h4.5100279l-5.517972,7h-.03791l1.4514441-3.6286101.5485497-1.3713899H3.9670825l5.5179715-7h.0378981M10.2614698,1h-.8976803c-.2297297,0-.4467793.1052799-.5889997.2856998l-6.2565598,7.9369502c-.2215099.3322802.01668.7773499.4160299.7773499h4.0657401l-1.7257199,4.3142999c-.1313701.3284401.1104999.6857001.4642401.6857001h.8976898c.2297301,0,.4467802-.10528.5890002-.2857l6.2565594-7.9369496c.2215204-.3322802-.0166798-.7773504-.4160299-.7773504h-4.0657997l1.72577-4.3142996c.1313801-.3284302-.1105003-.6857004-.4642401-.6857004h0Z"/>
</g>
</svg>
