<?xml version="1.0" encoding="utf-8"?>
<!-- Generator: Adobe Illustrator 26.3.1, SVG Export Plug-In . SVG Version: 6.00 Build 0)  -->
<svg version="1.1" id="Ebene_1" xmlns="http://www.w3.org/2000/svg" xmlns:xlink="http://www.w3.org/1999/xlink" x="0px" y="0px"
	 viewBox="0 0 16 16" enable-background="new 0 0 16 16" xml:space="preserve">
<g fill="currentColor">
	<rect x="7.7" y="1.3" transform="matrix(0.7071 -0.7071 0.7071 0.7071 0.5398 6.9896)" width="2" height="3"/>
	<rect x="12.7" y="6.3" transform="matrix(0.7071 -0.7071 0.7071 0.7071 -1.5104 11.9393)" width="2" height="3"/>
	<path d="M8.4,11c-0.4,0.4-1,0.4-1.4,0L5.5,9.6c-0.4-0.4-0.4-1,0-1.4l2.8-2.8L6.2,3.2L3.4,6c-1.6,1.6-1.6,4.1,0,5.7l1.4,1.4
		c1.6,1.6,4.1,1.6,5.7,0l2.8-2.8l-2.1-2.1L8.4,11z"/>
</g>
</svg>
