<svg xmlns="http://www.w3.org/2000/svg" version="1.1" viewBox="0 0 16 16">
<g fill="currentColor">
	<path d="M8,2c3.3000002,0,6,2.6999998,6,6s-2.6999998,6-6,6s-6-2.6999998-6-6S4.6999998,2,8,2 M8,1C4.0999999,1,1,4.0999999,1,8
		s3.0999999,7,7,7s7-3.1000004,7-7S11.8999996,1,8,1L8,1z"/>
	<path d="M8.7449665,11H7.244966c-0.138,0-0.25,0.1120005-0.25,0.25v1.5c0,0.1379995,0.112,0.25,0.25,0.25h1.5000005
		c0.1379995,0,0.25-0.1120005,0.25-0.25v-1.5C8.9949665,11.1120005,8.882966,11,8.7449665,11z"/>
	<path d="M10.9459667,5.4510002c-0.2130003-1.2010002-1.1970005-2.187-2.3990002-2.401
		c-1.8070006-0.322-3.3900008,0.9749999-3.5410004,2.6830001C4.9939661,5.8759999,5.1169662,6,5.2609658,6H6.771966
		c0.1269999,0,0.2189999-0.098,0.2470002-0.2220001C7.120966,5.3330002,7.5199661,5,7.994966,5
		c0.5510001,0,1.0000005,0.4489999,1.0000005,1c0,0.3569999-0.1990004,0.6570001-0.4820004,0.8330002
		C7.606966,7.3470001,6.994966,8.316,6.994966,9.4329996V9.75c0,0.1379995,0.112,0.25,0.25,0.25h1.5000005
		c0.1379995,0,0.25-0.1120005,0.25-0.25V9.4329996c0-0.3590002,0.2010002-0.6590004,0.4860001-0.835
		C10.5299664,8,11.1839666,6.7919998,10.9459667,5.4510002z"/>
</g>
</svg>
