<svg xmlns="http://www.w3.org/2000/svg" viewBox="0 0 16 16">
<g class="icon-color">
	<path d="M13.7,3.2l-1.9-1.9C11.6,1.1,11.4,1,11.1,1H2.5C2.2,1,2,1.2,2,1.5v13C2,14.8,2.2,15,2.5,15h11c0.3,0,0.5-0.2,0.5-0.5V5V4
		V3.9C14,3.6,13.9,3.4,13.7,3.2z M13,14H3V2h7v2.5C10,4.8,10.2,5,10.5,5H13V14z M11,4V2l2,2H11z"/>
	<path d="M10.8,10H5.2C5.1,10,5,9.9,5,9.8V9.2C5,9.1,5.1,9,5.2,9h5.5C10.9,9,11,9.1,11,9.2v0.5C11,9.9,10.9,10,10.8,10z"/>
	<path d="M10.8,8H5.2C5.1,8,5,7.9,5,7.8V7.2C5,7.1,5.1,7,5.2,7h5.5C10.9,7,11,7.1,11,7.2v0.5C11,7.9,10.9,8,10.8,8z"/>
	<path d="M10.8,12H5.2C5.1,12,5,11.9,5,11.8v-0.5C5,11.1,5.1,11,5.2,11h5.5c0.1,0,0.2,0.1,0.2,0.2v0.5C11,11.9,10.9,12,10.8,12z"/>
</g>
</svg>