<?xml version="1.0" encoding="utf-8"?>
<!-- Generator: Adobe Illustrator 25.4.0, SVG Export Plug-In . SVG Version: 6.00 Build 0)  -->
<svg version="1.1" xmlns="http://www.w3.org/2000/svg" xmlns:xlink="http://www.w3.org/1999/xlink" x="0px" y="0px"
	 viewBox="0 0 16 16" enable-background="new 0 0 16 16" xml:space="preserve">
<g class="icon-color">
	<path d="M12.95,8.157c-0.391,0.391-1.024,0.391-1.414,0L9,5.621V13c0,0.552-0.448,1-1,1H3c-0.552,0-1-0.448-1-1l0,0
		c0-0.552,0.448-1,1-1h4V5.621L4.464,8.157c-0.391,0.391-1.024,0.391-1.414,0s-0.39-1.024,0-1.414l3.536-3.536L7.293,2.5
		c0.39-0.39,1.024-0.39,1.414,0l0.707,0.707l3.536,3.536C13.34,7.133,13.34,7.766,12.95,8.157z"/>
</g>
</svg>
