<?xml version="1.0" encoding="utf-8"?>
<!-- Generator: Adobe Illustrator 23.1.0, SVG Export Plug-In . SVG Version: 6.00 Build 0)  -->
<svg version="1.1" xmlns:sketch="http://www.bohemiancoding.com/sketch/ns"
	 xmlns="http://www.w3.org/2000/svg" xmlns:xlink="http://www.w3.org/1999/xlink" x="0px" y="0px" viewBox="0 0 16 16"
	 enable-background="new 0 0 16 16" xml:space="preserve">
<g class="icon-color">
<path d="M13.408,3.546L7.913,1.087C7.783,1.029,7.644,1,7.504,1C7.365,1,7.226,1.029,7.096,1.087L1.592,3.545
	C1.232,3.706,1,4.064,1,4.459v7.102c0,0.395,0.233,0.754,0.594,0.914l5.496,2.439C7.219,14.971,7.357,15,7.496,15
	c0.138,0,0.277-0.029,0.406-0.086l5.504-2.446C13.767,12.308,14,11.95,14,11.554V4.459C14,4.064,13.768,3.707,13.408,3.546z
	 M7.504,2l4.89,2.187L7.5,6.449L2.607,4.188L7.504,2z M2,5.01l5,2.31v6.46l-5-2.219V5.01z M8,13.776V7.32l5-2.31v6.545L8,13.776z"/>
</g>
</svg>
