<?xml version="1.0" encoding="utf-8"?>
<!-- Generator: Adobe Illustrator 27.2.0, SVG Export Plug-In . SVG Version: 6.00 Build 0)  -->
<svg version="1.1" id="Ebene_1" xmlns="http://www.w3.org/2000/svg" xmlns:xlink="http://www.w3.org/1999/xlink" x="0px" y="0px"
	 viewBox="0 0 16 16" enable-background="new 0 0 16 16" xml:space="preserve">
<g fill="currentColor">
	<path d="M6,4v2H4V4H6 M6,3H4C3.448,3,3,3.448,3,4v2c0,0.552,0.448,1,1,1h2c0.552,0,1-0.448,1-1V4C7,3.448,6.552,3,6,3L6,3z"/>
	<path d="M12,4v2h-2V4H12 M12,3h-2C9.448,3,9,3.448,9,4v2c0,0.552,0.448,1,1,1h2c0.552,0,1-0.448,1-1V4C13,3.448,12.552,3,12,3L12,3
		z"/>
	<path d="M12,10v2h-2v-2H12 M12,9h-2c-0.552,0-1,0.448-1,1v2c0,0.552,0.448,1,1,1h2c0.552,0,1-0.448,1-1v-2C13,9.448,12.552,9,12,9
		L12,9z"/>
	<path d="M6,10v2H4v-2H6 M6,9H4c-0.552,0-1,0.448-1,1v2c0,0.552,0.448,1,1,1h2c0.552,0,1-0.448,1-1v-2C7,9.448,6.552,9,6,9L6,9z"/>
</g>
</svg>
