<?xml version="1.0" encoding="utf-8"?>
<!-- Generator: Adobe Illustrator 27.2.0, SVG Export Plug-In . SVG Version: 6.00 Build 0)  -->
<svg version="1.1" id="Ebene_1" xmlns="http://www.w3.org/2000/svg" xmlns:xlink="http://www.w3.org/1999/xlink" x="0px" y="0px"
	 viewBox="0 0 16 16" enable-background="new 0 0 16 16" xml:space="preserve">
<g class="icon-color">
	<rect x="4" y="14" width="2" height="1"/>
	<rect x="1" y="4" width="1" height="2"/>
	<rect x="1" y="10" width="1" height="2"/>
	<rect x="1" y="7" width="1" height="2"/>
	<path d="M13,2c0.551,0,1,0.449,1,1h1c0-1.105-0.895-2-2-2V2z"/>
	<rect x="7" y="1" width="2" height="1"/>
	<rect x="4" y="1" width="2" height="1"/>
	<rect x="10" y="1" width="2" height="1"/>
	<rect x="14" y="4" width="1" height="2"/>
	<path d="M3,14c-0.551,0-1-0.449-1-1H1c0,1.105,0.895,2,2,2V14z"/>
	<path d="M3,2V1C1.895,1,1,1.895,1,3h1C2,2.449,2.449,2,3,2z"/>
	<path d="M13,14v1c1.105,0,2-0.895,2-2h-1C14,13.551,13.551,14,13,14z"/>
	<rect x="14" y="10" width="1" height="2"/>
	<rect x="10" y="14" width="2" height="1"/>
	<rect x="14" y="7" width="1" height="2"/>
	<rect x="7" y="14" width="2" height="1"/>
	<path d="M6,7H4C3.448,7,3,6.552,3,6V4c0-0.552,0.448-1,1-1h2c0.552,0,1,0.448,1,1v2C7,6.552,6.552,7,6,7z"/>
	<path d="M12,7h-2C9.448,7,9,6.552,9,6V4c0-0.552,0.448-1,1-1h2c0.552,0,1,0.448,1,1v2C13,6.552,12.552,7,12,7z"/>
	<path d="M12,13h-2c-0.552,0-1-0.448-1-1v-2c0-0.552,0.448-1,1-1h2c0.552,0,1,0.448,1,1v2C13,12.552,12.552,13,12,13z"/>
	<path d="M6,13H4c-0.552,0-1-0.448-1-1v-2c0-0.552,0.448-1,1-1h2c0.552,0,1,0.448,1,1v2C7,12.552,6.552,13,6,13z"/>
</g>
</svg>
