<?xml version="1.0" encoding="utf-8"?>
<!-- Generator: Adobe Illustrator 25.2.2, SVG Export Plug-In . SVG Version: 6.00 Build 0)  -->
<svg version="1.1" xmlns="http://www.w3.org/2000/svg" xmlns:xlink="http://www.w3.org/1999/xlink" x="0px" y="0px"
	 viewBox="0 0 16 16" enable-background="new 0 0 16 16" xml:space="preserve">
<g class="icon-color">
	<path d="M5,12H1c0-1.5,0.7-1.9,0.7-1.9c0.8-0.2,1.4-0.6,2-0.8c0,0,0,0,0.1,0C3.8,9.1,4,8.8,4,8.1c-0.4-0.4-0.8-1-0.8-1.5V5.4
		C3.3,4.6,4,4,4.8,4h0.4c0.9,0,1.5,0.6,1.5,1.4v1.1C6.6,7.4,5.7,8.3,6,8c0,0.8,0.1,1.1,0.2,1.3c0.2,0.1,1.1,0.4,1.3,0.5L8,12H5z"/>
	<path d="M9.8,9.3C9.8,9.1,10,8.8,10,8.1c-0.4-0.4-0.8-1-0.8-1.5V5.4C9.3,4.6,10,4,10.8,4h0.4c0.9,0,1.5,0.6,1.5,1.4v1.1
		c-0.1,0.8-1,1.8-0.7,1.4c0,0.8,0.1,1.1,0.2,1.3c0.5,0.2,1.1,0.5,1.9,0.8c0,0,0.6,0.3,0.9,1.9h-4H9.2L8.7,9.7
		C8.7,9.7,9.7,9.3,9.8,9.3z"/>
</g>
</svg>
