<?xml version="1.0" encoding="utf-8"?>
<!-- Generator: Adobe Illustrator 19.1.0, SVG Export Plug-In . SVG Version: 6.00 Build 0)  -->
<svg version="1.1" xmlns="http://www.w3.org/2000/svg" xmlns:xlink="http://www.w3.org/1999/xlink" x="0px" y="0px"
	 viewBox="0 0 16 16" enable-background="new 0 0 16 16" xml:space="preserve">
<g fill="currentColor">
	<polygon points="2,2 2,3 2,6 3,6 3,3 6,3 6,2 3,2 	"/>
	<polygon points="13,2 10,2 10,3 13,3 13,6 14,6 14,3 14,2 	"/>
	<polygon points="3,10 2,10 2,13 2,14 3,14 6,14 6,13 3,13 	"/>
	<polygon points="13,13 10,13 10,14 13,14 14,14 14,13 14,10 13,10 	"/>
</g>
</svg>
