<svg xmlns="http://www.w3.org/2000/svg" version="1.1" viewBox="0 0 16 16">
<g fill="currentColor">
  <path d="M12.9929161,2.4122953h-.0001163c-.2457294,0-.4962196.0911808-.6998901.2948608l-.82831.82831c-.9376793.9377394-2.2094698,1.46453-3.5355797,1.46453H3c-.55231,0-1,.4476995-1,1v2.9999995c0,.55231.44769,1,1,1h1v2.5c0,.27613.2238798.5.5.5h2c.2761202,0,.5-.22387.5-.5v-2.5h1.3334398c1.0818405,0,2.1345806.3509002,3.0000601,1.0000701l1.0664597.79986c.1854906.1391001.3931904.2018399.5959501.2018399.5181303,0,1.0040903-.4095402,1.0040903-1.0018301V3.4142456c0-.602706-.4930515-1.0019503-1.0070839-1.0019503h0ZM7,8.9999957v-2.9999995h.9290199c1.6027203,0,3.1094303-.6241407,4.2426701-1.7574406l.82831-.8274603v7.5848403l-1.0665302-.79986c-1.0317402-.77387-2.3102999-1.2000799-3.6000299-1.2000799h-1.3334398ZM3,8.9999957v-2.9999995h3v2.9999995h-3ZM5,11.9999957v-2h1v2h-1Z"/>
</g>
</svg>
