<svg xmlns="http://www.w3.org/2000/svg" viewBox="0 0 16 16">
<g class="icon-color">
	<path d="M9.3,4.5L6.1,6.7c0.3,0.2,0.5,0.5,0.5,0.8l3.2-2.2C9.6,5.1,9.4,4.8,9.3,4.5L9.3,4.5z"/>
	<path d="M6.7,8.5C6.6,8.8,6.4,9.1,6.1,9.3l3.2,2.2c0.1-0.3,0.3-0.6,0.5-0.8L6.7,8.5L6.7,8.5z"/>
	<path d="M5,7c0.6,0,1,0.4,1,1S5.6,9,5,9S4,8.6,4,8S4.4,7,5,7 M5,6C3.9,6,3,6.9,3,8s0.9,2,2,2s2-0.9,2-2S6.1,6,5,6L5,6z"/>
	<path d="M11,11c0.6,0,1,0.4,1,1s-0.4,1-1,1s-1-0.4-1-1S10.4,11,11,11 M11,10c-1.1,0-2,0.9-2,2s0.9,2,2,2s2-0.9,2-2S12.1,10,11,10
		L11,10z"/>
	<path d="M11,3c0.6,0,1,0.4,1,1s-0.4,1-1,1s-1-0.4-1-1S10.4,3,11,3 M11,2C9.9,2,9,2.9,9,4s0.9,2,2,2s2-0.9,2-2S12.1,2,11,2L11,2z"/>
</g>
</svg>