<?xml version="1.0" encoding="utf-8"?>
<!-- Generator: Adobe Illustrator 19.1.0, SVG Export Plug-In . SVG Version: 6.00 Build 0)  -->
<svg version="1.1" xmlns="http://www.w3.org/2000/svg" xmlns:xlink="http://www.w3.org/1999/xlink" x="0px" y="0px"
	 viewBox="0 0 16 16" enable-background="new 0 0 16 16">
<g fill="currentColor">
	<path d="M7,2.25C7,2.11,7.11,2,7.25,2h1.5C8.89,2,9,2.11,9,2.25v1.5C9,3.89,8.89,4,8.75,4h-1.5C7.11,4,7,3.89,7,3.75V2.25z"/>
	<path d="M10.75,14h-5.5C5.112,14,5,13.888,5,13.75v-1.5C5,12.112,5.112,12,5.25,12H7V8H6.25C6.11,8,6,7.89,6,7.75v-1.5
		C6,6.112,6.112,6,6.25,6h2.5C8.888,6,9,6.112,9,6.25V12h1.75c0.138,0,0.25,0.112,0.25,0.25v1.5C11,13.888,10.888,14,10.75,14z"/>
</g>
</svg>
