<svg xmlns="http://www.w3.org/2000/svg" version="1.1" viewBox="0 0 16 16">
<g fill="currentColor">
	<path d="M12.5,11c0.828,0,1.5,0.672,1.5,1.5S13.328,14,12.5,14S11,13.328,11,12.5S11.672,11,12.5,11 M12.5,10
		c-1.378,0-2.5,1.122-2.5,2.5s1.122,2.5,2.5,2.5s2.5-1.122,2.5-2.5S13.878,10,12.5,10L12.5,10z"/>
	<path d="M3.5,11C4.328,11,5,11.672,5,12.5S4.328,14,3.5,14S2,13.328,2,12.5S2.672,11,3.5,11 M3.5,10C2.122,10,1,11.122,1,12.5
		S2.122,15,3.5,15S6,13.878,6,12.5S4.878,10,3.5,10L3.5,10z"/>
	<path d="M3.5,2C4.328,2,5,2.672,5,3.5S4.328,5,3.5,5S2,4.328,2,3.5S2.672,2,3.5,2 M3.5,1C2.122,1,1,2.122,1,3.5S2.122,6,3.5,6
		S6,4.878,6,3.5S4.878,1,3.5,1L3.5,1z"/>
	<rect x="3" y="5" width="1" height="6"/>
	<path d="M11,12H9c-0.552,0-1-0.448-1-1v-1c0-1.105-0.895-2-2-2H3v1h3c0.552,0,1,0.448,1,1v1c0,1.105,0.895,2,2,2h2V12z"/>
	<path d="M14,2v4h-2.2L10,7.4V6H8V2H14 M7,1.5v5C7,6.776,7.224,7,7.5,7H9v1.422c0,0.416,0.479,0.65,0.807,0.395L12.143,7H14.5
		C14.776,7,15,6.776,15,6.5v-5C15,1.224,14.776,1,14.5,1h-7C7.224,1,7,1.224,7,1.5z"/>
</g>
</svg>
