<svg xmlns="http://www.w3.org/2000/svg" viewBox="0 0 16 16">
<g class="icon-color">
<path d="M10,3h1v1h-1V3z M12,3h1v1h-1V3z"/>
<path d="M2,14v-4h5.2l0.5-1l0,0H2V6h12v1.3c0.4,0.1,0.7,0.3,1,0.5V1.5C15,1.2,14.8,1,14.5,1h-13C1.2,1,1,1.2,1,1.5v13
	C1,14.8,1.2,15,1.5,15h6.8c-0.2-0.3-0.4-0.6-0.6-1H2z M2,2h12v3H2V2z"/>
<path d="M12.3,14.2c0.5,0,0.9-0.2,1.3-0.4l0.4,0.6c-0.5,0.3-1.1,0.5-1.7,0.5c-1.7,0-3-1.3-3-3H8.6c-0.1,0-0.2-0.1-0.1-0.2l1-1.8
	c0.1-0.1,0.2-0.1,0.2,0l1,1.8c0.1,0.1,0,0.2-0.1,0.2H10C10,13.2,11,14.2,12.3,14.2z"/>
<path d="M11,10.2l-0.4-0.6C11.1,9.2,11.6,9,12.3,9c1.7,0,3,1.3,3,3h0.6c0.1,0,0.2,0.1,0.1,0.2L15,14c-0.1,0.1-0.2,0.1-0.2,0l-1-1.8
	c-0.1-0.1,0-0.2,0.1-0.2h0.6c0-1.2-1-2.3-2.3-2.3C11.8,9.7,11.3,9.9,11,10.2z"/>
</g>
</svg>