<?xml version="1.0" encoding="UTF-8" standalone="no"?>
<svg width="16px" height="16px" viewBox="0 0 16 16" version="1.1" xmlns="http://www.w3.org/2000/svg" xmlns:xlink="http://www.w3.org/1999/xlink" xmlns:sketch="http://www.bohemiancoding.com/sketch/ns">
    <!-- Generator: Sketch 3.3.3 (12072) - http://www.bohemiancoding.com/sketch -->
    <title>actions-preview</title>
    <desc>Created with Sketch.</desc>
    <defs></defs>
    <g class="icon-color" fill-rule="evenodd">
        <path d="M1,2.50966585 C1,2.22818517 1.21990657,2 1.49826741,2 L14.5017326,2 C14.7769181,2 15,2.22247314 15,2.50966585 L15,10.4903342 C15,10.7718148 14.7800934,11 14.5017326,11 L1.49826741,11 C1.22308192,11 1,10.7775269 1,10.4903342 L1,2.50966585 Z M2,3 L14,3 L14,9 L2,9 L2,3 Z M7,11 C7,12 6,12 6,12 L6,13 L10,13 L10,12 C10,12 9,12 9,11 L7,11 Z" id="actions-preview" fill="#000000" sketch:type="MSShapeGroup"></path>
    </g>
</svg>