<svg xmlns="http://www.w3.org/2000/svg" version="1.1" viewBox="0 0 16 16">
<g fill="currentColor">
  <path d="M12,6v7.3442993l-3.1987915-2.0209961c-.2401123-.1516724-.5172119-.2318726-.8012085-.2318726s-.5610352.0802002-.8012085.2318726l-3.1987915,2.0209961V3c0-.5513916.4486084-1,1-1h4v-1h-4c-1.1045532,0-2,.8954468-2,2v11.2614746c0,.2870483.2353516.5004883.4995728.5004883.0613403,0,.1242065-.0114746.1861572-.0362549l4.0471802-2.5570068c.081604-.0515137.1743164-.0772705.2670898-.0772705s.1854858.0257568.2670898.0772705l4.0471802,2.5570068c.0618896.0247803.1248169.0362549.1861572.0362549.2642822,0,.4995728-.2133789.4995728-.5004883V6h-1Z"/>
  <rect x="10" y="2" width="5" height="1"/>
</g>
</svg>
