<?xml version="1.0" encoding="utf-8"?>
<!-- Generator: Adobe Illustrator 19.1.0, SVG Export Plug-In . SVG Version: 6.00 Build 0)  -->
<svg version="1.1" xmlns="http://www.w3.org/2000/svg" xmlns:xlink="http://www.w3.org/1999/xlink" x="0px" y="0px"
	 viewBox="0 0 16 16" enable-background="new 0 0 16 16">
<g fill="currentColor">
	<rect x="6" y="3" width="8" height="2"/>
	<rect x="6" y="6" width="8" height="2"/>
	<rect x="6" y="9" width="8" height="2"/>
	<rect x="6" y="12" width="8" height="2"/>
	<polygon points="5,5 5,4 3,4 3,2 2,2 2,4 2,5 2,7 2,8 2,10 2,11 2,13 2,14 3,14 5,14 5,13 3,13 3,11 5,11 5,10 3,10 3,8 5,8 5,7
		3,7 3,5 "/>
</g>
</svg>
