<?xml version="1.0" encoding="utf-8"?>
<!-- Generator: Adobe Illustrator 27.4.0, SVG Export Plug-In . SVG Version: 6.00 Build 0)  -->
<svg version="1.1" xmlns="http://www.w3.org/2000/svg" xmlns:xlink="http://www.w3.org/1999/xlink" x="0px" y="0px"
	 viewBox="0 0 16 16" enable-background="new 0 0 16 16">
<g fill="currentColor">
	<path d="M11.5,2H9.0003052h-1H7.0001221h-1H4.5C4.223877,2,4,2.223877,4,2.5V10c0,0.5523071,0.4476929,1,1,1h2v2
		c0,0.5523071,0.4476929,1,1,1s1-0.4476929,1-1v-2h2c0.5523071,0,1-0.4476929,1-1V2.5C12,2.223877,11.776123,2,11.5,2z M5,9V3
		h1.0001221v3h1V3h1.0001831v2h1V3H11v6H5z"/>
</g>
</svg>
