<?xml version="1.0" encoding="utf-8"?>
<!-- Generator: Adobe Illustrator 19.1.0, SVG Export Plug-In . SVG Version: 6.00 Build 0)  -->
<svg version="1.1" xmlns="http://www.w3.org/2000/svg" xmlns:xlink="http://www.w3.org/1999/xlink" x="0px" y="0px"
	 viewBox="0 0 16 16" enable-background="new 0 0 16 16" xml:space="preserve">
<g fill="currentColor">
	<path d="M13,5H3V3h10V5z M12,6H3v1h8L12,6z M6,12H3v1h2L6,12z M10,8H3v1h6L10,8z M8,10H3v1h4L8,10z"/>
	<path d="M14,14h-1l-1,1h2.5c0.3,0,0.5-0.2,0.5-0.5V12l-1,1V14z"/>
	<path d="M5,14H2V2h12v3h1V1.5C15,1.2,14.8,1,14.5,1h-13C1.2,1,1,1.2,1,1.5v13C1,14.8,1.2,15,1.5,15H5V14z"/>
	<path d="M14.2,7.2l1.6,1.6c0.1,0.1,0.1,0.3,0,0.4l-1.3,1.3l-2-2l1.3-1.3C13.9,7.1,14.1,7.1,14.2,7.2z M7.1,13.9L12,9l2,2l-4.9,4.9
		C9,16,9,16,8.9,16H7v-1.9C7,14,7,14,7.1,13.9z"/>
</g>
</svg>
