<?xml version="1.0" encoding="utf-8"?>
<!-- Generator: Adobe Illustrator 23.0.6, SVG Export Plug-In . SVG Version: 6.00 Build 0)  -->
<svg version="1.1" xmlns="http://www.w3.org/2000/svg" xmlns:xlink="http://www.w3.org/1999/xlink" x="0px" y="0px"
	 viewBox="0 0 16 16" enable-background="new 0 0 16 16" xml:space="preserve">
<g fill="currentColor">
	<path d="M15,1c-1.7-1.7-9,4-9,4H2L0,7l2,2l1,1l-2,2l3,3l2-2l1,1l2,2l2-2v-4C11,10,16.7,2.7,15,1z M2.7,8.3L1.4,7l1-1H5L2.7,8.3z
		 M10,13.6l-1,1l-1.3-1.3L10,11V13.6z M10.3,9.3L7,12.6l-0.3-0.3L6,11.6l-0.7,0.7L4,13.6L2.4,12l1.3-1.3L4.4,10L3.7,9.3L3.4,9
		l3.3-3.3c2-1.6,5.8-4.1,7.4-4.1c0.2,0,0.2,0,0.2,0C14.7,2.3,13.1,5.8,10.3,9.3z"/>
	<path d="M11,4c-0.6,0-1,0.4-1,1s0.4,1,1,1s1-0.4,1-1S11.6,4,11,4L11,4z"/>
	<polygon points="1,15 0,15 0,16 1,16 1,15 		"/>
	<polygon points="2,14 1,14 1,15 2,15 2,14 		"/>
	<polygon points="1,13 0,13 0,14 1,14 1,13 		"/>
	<polygon points="3,15 2,15 2,16 3,16 3,15 		"/>
</g>
</svg>
