<?xml version="1.0" encoding="utf-8"?>
<!-- Generator: Adobe Illustrator 25.4.1, SVG Export Plug-In . SVG Version: 6.00 Build 0)  -->
<svg version="1.1" id="Ebene_1" xmlns="http://www.w3.org/2000/svg" xmlns:xlink="http://www.w3.org/1999/xlink" x="0px" y="0px"
	 viewBox="0 0 16 16" enable-background="new 0 0 16 16" xml:space="preserve">
<g fill="currentColor">
	<path d="M8.1,5C7.5,5,6.7,4.4,5.8,4.4c-1.2,0-2.3,0.7-2.9,1.8c-1.2,2.1-0.3,5.3,0.9,7.1C4.4,14.1,5.1,15,6,15
		c0.9,0,1.2-0.6,2.3-0.6c1.1,0,1.4,0.6,2.3,0.6c1,0,1.6-0.9,2.1-1.7c0.7-1,1-1.9,1-2c0,0-1.9-0.7-1.9-2.8c0-1.8,1.4-2.6,1.5-2.7
		c-0.8-1.2-2.1-1.4-2.6-1.4C9.6,4.3,8.6,5,8.1,5z M10.1,3.2c0.5-0.6,0.8-1.4,0.7-2.2c-0.7,0-1.6,0.5-2.1,1.1C8.3,2.6,7.9,3.4,8,4.2
		C8.8,4.3,9.6,3.8,10.1,3.2"/>
</g>
</svg>
