<?xml version="1.0" encoding="UTF-8" standalone="no"?>
<svg width="16px" height="16px" viewBox="0 0 16 16" version="1.1" xmlns="http://www.w3.org/2000/svg" xmlns:xlink="http://www.w3.org/1999/xlink" xmlns:sketch="http://www.bohemiancoding.com/sketch/ns">
    <!-- Generator: Sketch 3.4 (15575) - http://www.bohemiancoding.com/sketch -->
    <title>actions-edit-unhide</title>
    <desc>Created with Sketch.</desc>
    <defs></defs>
    <g class="icon-color">
        <path d="M1,8 L1,8 C1,10.2057826 2.79163742,12 4.99668583,12 L11.0033142,12 C13.2076764,12 15,10.2075992 15,8 C15,5.79421744 13.2083626,4 11.0033142,4 L4.99668583,4 C2.79232357,4 1,5.7924008 1,8 L1,8 Z M0,8 C0,5.23857625 2.24157855,3 4.99668583,3 L11.0033142,3 C13.7629076,3 16,5.24419519 16,8 C16,10.7614237 13.7584215,13 11.0033142,13 L4.99668583,13 C2.23709245,13 0,10.7558048 0,8 L0,8 Z"></path>
        <circle cx="5" cy="8" r="3"></circle>
    </g>
</svg>