<?xml version="1.0" encoding="utf-8"?>
<!-- Generator: Adobe Illustrator 27.2.0, SVG Export Plug-In . SVG Version: 6.00 Build 0)  -->
<svg version="1.1" xmlns="http://www.w3.org/2000/svg" xmlns:xlink="http://www.w3.org/1999/xlink" x="0px" y="0px"
	 viewBox="0 0 16 16" enable-background="new 0 0 16 16" xml:space="preserve">
<g class="icon-color">
	<path d="M8,2c3.3,0,6,2.7,6,6s-2.7,6-6,6s-6-2.7-6-6S4.7,2,8,2 M8,1C4.1,1,1,4.1,1,8s3.1,7,7,7s7-3.1,7-7S11.9,1,8,1L8,1z"/>
	<path d="M11.5,9c-9,0-0.103,0-7,0C4.2,9,4,8.8,4,8.5v-1C4,7.2,4.2,7,4.5,7c9,0,7,0,7,0C11.8,7,12,7.2,12,7.5v1
		C12,8.8,11.8,9,11.5,9z"/>
</g>
</svg>
