<?xml version="1.0" encoding="utf-8"?>
<!-- Generator: Adobe Illustrator 27.0.1, SVG Export Plug-In . SVG Version: 6.00 Build 0)  -->
<svg version="1.1" xmlns="http://www.w3.org/2000/svg" xmlns:xlink="http://www.w3.org/1999/xlink" x="0px" y="0px"
	 viewBox="0 0 16 16" enable-background="new 0 0 16 16" xml:space="preserve">
<g class="icon-color">
	<path d="M7.0916748,13.9200439C4.6075439,13.7613525,3,12.9956665,3,12.4616699v-1.5679321
		c0.7329102,0.4550171,1.8094482,0.7609253,3,0.9242554v-1.0062866C4.1480103,10.5334473,3.0015869,9.913147,3.0003052,9.4620972H3
		V7.8934326c1.1303101,0.7017212,3.0668335,1.0675659,5,1.0675659c0.3366089,0,0.6677246-0.0280762,1-0.0504761V8V7.916687
		C8.6807861,7.9418945,8.3527222,7.9609985,8,7.9609985c-3.0045776,0-4.9979858-0.9020386-4.9996948-1.4992065H3V4.8931274
		c1.1303101,0.7017212,3.0668335,1.0675659,5,1.0675659c1.9331055,0,3.8695679-0.3658447,5-1.0673828V6h1V3.4616699
		c0-3.2822266-12-3.2822266-12,0v9c0,1.6416016,3.0185547,2.5,6,2.5c0.0432739,0,0.0862427-0.0032959,0.1295166-0.0037842
		L7.0916748,13.9200439z M8,1.9616699c3.0055542,0,4.9995728,0.90271,4.999939,1.4998169h-0.0002441
		C12.9979858,4.0586548,11.0045776,4.9606934,8,4.9606934S3.0020142,4.0586548,3.0003052,3.4614868H3.000061
		C3.0004272,2.8643799,4.9944458,1.9616699,8,1.9616699z"/>
	<path d="M11.8230219,15.823L8.427022,12.427c-0.158-0.158-0.0460005-0.427,0.177-0.427h2.3959999V8h2v4h2.3970003
		c0.2229996,0,0.3339996,0.2690001,0.177,0.427L12.1780224,15.823C12.0800219,15.9209995,11.9210215,15.9209995,11.8230219,15.823z"
		/>
</g>
</svg>
