<svg xmlns="http://www.w3.org/2000/svg" version="1.1" viewBox="0 0 16 16">
<g fill="currentColor">
	<path d="M12.859333,3.583303c-0.9198151-0.4211135-1.890851-0.7198658-2.8883066-0.8886249
		C9.8345346,2.938679,9.7110348,3.1897235,9.6010418,3.4467609c-1.0624809-0.1601045-2.1429553-0.1601043-3.2054362,0
		C6.2855554,3.18975,6.162056,2.9387085,6.02562,2.6946781C5.0275264,2.8648624,4.0558505,3.164324,3.1351116,3.5855052
		C1.3072091,6.2899203,0.8116934,8.927165,1.0594513,11.5269709l0,0c1.0704656,0.7909069,2.2686217,1.3924065,3.5423868,1.7783508
		c0.2868142-0.3857536,0.5406089-0.7949934,0.7586899-1.2233734c-0.4142141-0.1547041-0.8140049-0.3455725-1.1947436-0.5703936
		c0.100204-0.0726757,0.1982059-0.1475534,0.2929049-0.2202291c2.2430296,1.0548429,4.8395419,1.0548439,7.0825715,0
		c0.0957994,0.0781813,0.1938019,0.153059,0.2929049,0.2202291c-0.3814745,0.2251863-0.7819967,0.41642-1.1969461,0.5714951
		c0.2178144,0.4281816,0.4716244,0.8370771,0.7586899,1.2222719c1.2748528-0.3843966,2.4739285-0.98561,3.54459-1.7772493l0,0
		C15.2312021,8.513134,14.443882,5.9001145,12.859333,3.583303z M5.6743546,9.9281073
		c-0.6904187,0-1.2608123-0.6265526-1.2608123-1.3973551s0.5505733-1.4028597,1.2586102-1.4028597
		s1.2740259,0.6320577,1.2619133,1.4028597S6.3779869,9.9281073,5.6743546,9.9281073z M10.3255959,9.9281073
		c-0.6915197,0-1.2597113-0.6265526-1.2597113-1.3973551s0.5505733-1.4028597,1.2597113-1.4028597
		c0.7091389,0,1.2707233,0.6320577,1.2586098,1.4028597C11.572093,9.3015547,11.0292282,9.9281073,10.3255959,9.9281073z"/>
</g>
</svg>
