<?xml version="1.0" encoding="utf-8"?>
<!-- Generator: Adobe Illustrator 19.1.0, SVG Export Plug-In . SVG Version: 6.00 Build 0)  -->
<svg version="1.1" xmlns="http://www.w3.org/2000/svg" xmlns:xlink="http://www.w3.org/1999/xlink" x="0px" y="0px"
	 viewBox="0 0 16 16" style="enable-background:new 0 0 16 16;" xml:space="preserve">
<g class="icon-color">
	<path d="M14,3c0.6,0,1,0.4,1,1v8c0,0.6-0.4,1-1,1H9c-0.6,0-1-0.4-1-1V4c0-0.6,0.4-1,1-1H14 M14,2H9C7.9,2,7,2.9,7,4v8
		c0,1.1,0.9,2,2,2h5c1.1,0,2-0.9,2-2V4C16,2.9,15.1,2,14,2L14,2z"/>
	<path d="M8,13H2c-1.1,0-2-0.9-2-2V5c0-1.1,0.9-2,2-2h6V13z"/>
	<rect x="10" y="5" width="1" height="6"/>
	<rect x="12" y="5" width="1" height="6"/>
</g>
</svg>
