<?xml version="1.0" encoding="utf-8"?>
<!-- Generator: Adobe Illustrator 25.0.1, SVG Export Plug-In . SVG Version: 6.00 Build 0)  -->
<svg version="1.1" id="Ebene_1" xmlns="http://www.w3.org/2000/svg" xmlns:xlink="http://www.w3.org/1999/xlink" x="0px" y="0px"
	 viewBox="0 0 16 16" enable-background="new 0 0 16 16" xml:space="preserve">
<g class="icon-color">
<path d="M1,3.5v9C1,12.8,1.2,13,1.5,13h13c0.3,0,0.5-0.2,0.5-0.5v-9C15,3.2,14.8,3,14.5,3h-13C1.2,3,1,3.2,1,3.5z M8,10l1.6-1.3
	l3.8,3.2H2.7l3.8-3.2L8,10z M8,8.7L2.7,4.1h10.7L8,8.7z M2,4.9L5.7,8L2,11.1V4.9z M14,11.1L10.3,8L14,4.9V11.1z"/>
</g>
</svg>
