<?xml version="1.0" encoding="utf-8"?>
<!-- Generator: Adobe Illustrator 27.0.1, SVG Export Plug-In . SVG Version: 6.00 Build 0)  -->
<svg version="1.1" xmlns="http://www.w3.org/2000/svg" xmlns:xlink="http://www.w3.org/1999/xlink" x="0px" y="0px"
	 viewBox="0 0 16 16" enable-background="new 0 0 16 16">
<g fill="currentColor">
	<path d="M5.5,2C5.7761402,2,6,2.2238598,6,2.5v3C6,5.7761402,5.7761402,6,5.5,6h-3C2.22386,6,2,5.7761402,2,5.5v-3
		C2,2.2238598,2.22386,2,2.5,2H5.5 M5.5,1h-3C1.6729,1,1,1.6729002,1,2.5v3C1,6.3270998,1.6729,7,2.5,7h3
		C6.3270998,7,7,6.3270998,7,5.5v-3C7,1.6729002,6.3270998,1,5.5,1L5.5,1z"/>
	<path d="M13.5,2C13.7761402,2,14,2.2238598,14,2.5v3C14,5.7761402,13.7761402,6,13.5,6h-3C10.2238598,6,10,5.7761402,10,5.5v-3
		C10,2.2238598,10.2238598,2,10.5,2H13.5 M13.5,1h-3C9.6729002,1,9,1.6729002,9,2.5v3C9,6.3270998,9.6729002,7,10.5,7h3
		C14.3270998,7,15,6.3270998,15,5.5v-3C15,1.6729002,14.3270998,1,13.5,1L13.5,1z"/>
	<path d="M13.5,10c0.2761402,0,0.5,0.2238598,0.5,0.5v3c0,0.2761402-0.2238598,0.5-0.5,0.5h-3c-0.2761402,0-0.5-0.2238598-0.5-0.5
		v-3c0-0.2761402,0.2238598-0.5,0.5-0.5H13.5 M13.5,9h-3C9.6729002,9,9,9.6729002,9,10.5v3c0,0.8270998,0.6729002,1.5,1.5,1.5h3
		c0.8270998,0,1.5-0.6729002,1.5-1.5v-3C15,9.6729002,14.3270998,9,13.5,9L13.5,9z"/>
	<path d="M5.5,10C5.7761402,10,6,10.2238598,6,10.5v3C6,13.7761402,5.7761402,14,5.5,14h-3C2.22386,14,2,13.7761402,2,13.5v-3
		C2,10.2238598,2.22386,10,2.5,10H5.5 M5.5,9h-3C1.6729,9,1,9.6729002,1,10.5v3C1,14.3270998,1.6729,15,2.5,15h3
		C6.3270998,15,7,14.3270998,7,13.5v-3C7,9.6729002,6.3270998,9,5.5,9L5.5,9z"/>
</g>
</svg>
