<?xml version="1.0" encoding="utf-8"?>
<!-- Generator: Adobe Illustrator 23.0.3, SVG Export Plug-In . SVG Version: 6.00 Build 0)  -->
<svg version="1.1" xmlns="http://www.w3.org/2000/svg" xmlns:xlink="http://www.w3.org/1999/xlink" x="0px" y="0px"
	 viewBox="0 0 16 16" enable-background="new 0 0 16 16">
<g fill="currentColor">
    <path d="M13,1.50123084 C13,1.22975063 12.7759869,1 12.4996527,1 L1.50034732,1 C1.22900057,1 1,1.22440869 1,1.50123084 L1,12.4987692 C1,12.7702494 1.22401312,13 1.50034732,13 L6.56555176,13 L6.66240641,12 L2,12 L2,2 L12,2 L12,5.50009336 L13,6.34936352 L13,1.50123084 Z M3,6 L3,7 L10.0042615,7 C10.0042615,7 10.0042053,6.00912351 10.0054437,6 L3,6 L3,6 Z M3,9 L7.99127197,9 C8.48250779,8.32025147 8.98272705,8 8.98272705,8 L3,8 L3,9 Z M3,10 L3,11 L6.87579346,11 C7.00061035,10.6098633 7.11803856,10.2790182 7.32299805,10 L3,10 Z M3,3 L11,3 L11,5 L3,5 L3,3 L3,3 Z M12.37,12.5708498 C12.3,12.6308498 12.22,12.6408498 12.14,12.6108498 C12.07,12.5708498 12,12.5008498 12,12.4108498 L12,11.1208498 C12,11.1208498 9.30993652,11.3119874 7.9708252,15 C7.9708252,8.53436291 12,9.1208498 12,9.1208498 L12,7.8308498 C12,7.7508498 12.07,7.6708498 12.14,7.6408498 C12.22,7.6108498 12.31,7.6208498 12.37,7.6708498 L14.93,9.9508498 C14.97,9.9908498 15,10.0408498 15,10.1008498 C15,10.1608498 14.97,10.2208498 14.93,10.2608498 L12.37,12.5708498 L12.37,12.5708498 Z"></path>
</g>
</svg>
