<svg xmlns="http://www.w3.org/2000/svg" viewBox="0 0 16 16">
<g>
	<path d="M8,1C4.1,1,1,4.1,1,8c0,3.9,3.1,7,7,7s7-3.1,7-7C15,4.1,11.9,1,8,1z M13.2,5h-2.5c-0.2-1.1-0.6-2.1-1-2.7
		C11.2,2.7,12.4,3.7,13.2,5z M10,8c0,0.7-0.1,1.4-0.1,2H6.1C6.1,9.4,6,8.7,6,8s0.1-1.4,0.1-2h3.7C9.9,6.6,10,7.3,10,8z M8,14
		c-0.5,0-1.2-1.1-1.7-3h3.3C9.2,12.9,8.5,14,8,14z M6.3,5C6.8,3.1,7.5,2,8,2s1.2,1.1,1.7,3H6.3z M6.3,2.3C5.9,2.9,5.5,3.9,5.3,5H2.8
		C3.6,3.7,4.8,2.7,6.3,2.3z M2.4,6h2.8C5,6.6,5,7.3,5,8s0,1.4,0.1,2H2.4C2.1,9.4,2,8.7,2,8S2.1,6.6,2.4,6z M2.8,11h2.5
		c0.2,1.1,0.6,2.1,1,2.7C4.8,13.3,3.6,12.3,2.8,11z M9.7,13.7c0.4-0.7,0.8-1.6,1-2.7h2.5C12.4,12.3,11.2,13.3,9.7,13.7z M13.6,10
		h-2.8C11,9.4,11,8.7,11,8s0-1.4-0.1-2h2.8C13.9,6.6,14,7.3,14,8S13.9,9.4,13.6,10z"/>
</g>
</svg>