<svg xmlns="http://www.w3.org/2000/svg" version="1.1" viewBox="0 0 16 16">
<g fill="currentColor">
	<path d="M14.58743,4.0994711c-0.2045794-1.5042424-1.5299492-2.6896873-3.1010723-2.919395
		C11.2212915,1.1412609,10.2169886,1,7.8905292,1H7.8731556C5.5460682,1,5.0468063,1.1412609,4.7817397,1.1800762
		C3.2543578,1.4034212,1.8595215,2.4686038,1.5211049,3.9906483C1.3583307,4.7402225,1.3409595,5.5712481,1.3711983,6.3335481
		c0.0431062,1.0931845,0.05147,2.1844487,0.1518368,3.2731824c0.0693862,0.7231894,0.1904287,1.4406176,0.3622214,2.1469002
		c0.3216876,1.3044405,1.6238834,2.3899794,2.8996964,2.8328638c1.3659515,0.4618559,2.8349104,0.5385151,4.2424312,0.2214327
		c0.1548252-0.0356274,0.3079643-0.0769987,0.4593611-0.1240797c0.3416357-0.1075296,0.7424669-0.2278042,1.0371313-0.4390602
		c0.0040379-0.0029621,0.0073586-0.0067844,0.0096922-0.0112009c0.0023336-0.0043964,0.003643-0.0092783,0.0038052-0.0142508
		v-1.0549898c-0.0000725-0.0046492-0.0011854-0.0092258-0.0032673-0.0133896
		c-0.0021-0.0041647-0.0050974-0.0078259-0.0088129-0.0106802c-0.0036964-0.0028715-0.0080051-0.0048819-0.0125818-0.0059042
		c-0.0045948-0.0010052-0.0093508-0.000988-0.0139284,0.0000534c-0.9017792,0.2130518-1.8258686,0.3198471-2.7530103,0.3181601
		c-1.5955687,0-2.0247049-0.7489281-2.1475997-1.0607338c-0.0987716-0.2694645-0.1615028-0.5505419-0.1865768-0.8361053
		c-0.0002513-0.0047922,0.0006461-0.0095844,0.0026021-0.0139828c0.0019569-0.0043793,0.0049543-0.008256,0.0087051-0.0112896
		c0.0037699-0.0030327,0.008203-0.0051508,0.0129414-0.0061741c0.0047388-0.0010414,0.0096564-0.0009336,0.014359,0.0002699
		c0.8867564,0.2115965,1.7957692,0.3183918,2.7079773,0.3181581c0.2193871,0,0.4381275,0,0.6575336-0.0057249
		c0.917448-0.0254517,1.8844357-0.0719032,2.7870941-0.2462568c0.0225258-0.0044518,0.0450335-0.008275,0.0643463-0.0139999
		c1.4237823-0.2704334,2.7787313-1.1192646,2.9164162-3.2687311c0.0051508-0.0846281,0.0180197-0.8863792,0.0180197-0.9741845
		C14.6022367,7.0353971,14.6987476,5.2168326,14.58743,4.0994711z M12.3960886,9.462925h-1.4971199V5.8359561
		c0-0.7635746-0.3216953-1.1529899-0.976016-1.1529899c-0.7192945,0-1.0795794,0.4606895-1.0795794,1.3706002v1.9852891H7.3552446
		V6.0535665c0-0.9099107-0.3609304-1.3706002-1.080225-1.3706002c-0.6504617,0-0.9753695,0.3894153-0.976016,1.1529899V9.462925
		H3.8031578V5.7258763c0-0.7635741,0.1970949-1.3701873,0.5912666-1.8198564
		c0.4066105-0.4485924,0.9399743-0.6789281,1.6020126-0.6789281c0.7662487,0,1.3452926,0.2914155,1.7313156,0.8736539
		l0.3725262,0.6184945l0.3731527-0.6184945c0.3860235-0.5822384,0.9650669-0.8736539,1.7300415-0.8736539
		c0.6613922,0,1.1947384,0.2303357,1.6026411,0.6789281c0.3941898,0.4492385,0.5912666,1.0558512,0.5912666,1.8198564
		L12.3960886,9.462925z"/>
</g>
</svg>
