<?xml version="1.0" encoding="utf-8"?>
<!-- Generator: Adobe Illustrator 19.1.0, SVG Export Plug-In . SVG Version: 6.00 Build 0)  -->
<svg version="1.1" xmlns="http://www.w3.org/2000/svg" xmlns:xlink="http://www.w3.org/1999/xlink" x="0px" y="0px"
	 viewBox="0 0 16 16" enable-background="new 0 0 16 16" xml:space="preserve">
<g fill="currentColor">
	<path d="M5.581,10.356L4.36,8.475L4,9L1.5,9C0.672,9,0,9.671,0,10.5V12c0,1.105,0.895,2,2,2c1.573,0,2.848-1.214,2.975-2.754
		l0.681-0.773L5.581,10.356z M3.75,11c0,0.965-0.785,1.75-1.75,1.75c-0.414,0-0.75-0.336-0.75-0.75v-1.5
		c0-0.138,0.112-0.25,0.25-0.25h2.25V11z"/>
	<path d="M15.777,6.978L6,6.084L4.975,4.756C4.848,3.216,3.573,2.002,2,2.002c-1.105,0-2,0.895-2,2v1.5c0,0.828,0.672,1.5,1.5,1.5
		l2.5,0l2,3.083l9.775-1.06C15.903,9.012,16,8.904,16,8.776V7.226C16,7.099,15.904,6.992,15.777,6.978z M3.75,5.752H1.5
		c-0.138,0-0.25-0.112-0.25-0.25v-1.5c0-0.414,0.336-0.75,0.75-0.75c0.965,0,1.75,0.785,1.75,1.75V5.752z M7,9C6.448,9,6,8.552,6,8
		c0-0.552,0.448-1,1-1s1,0.448,1,1C8,8.552,7.552,9,7,9z"/>
</g>
</svg>
