<?xml version="1.0" encoding="utf-8"?>
<!-- Generator: Adobe Illustrator 19.1.1, SVG Export Plug-In . SVG Version: 6.00 Build 0)  -->
<svg version="1.1" xmlns="http://www.w3.org/2000/svg" xmlns:xlink="http://www.w3.org/1999/xlink" x="0px" y="0px"
	 viewBox="0 0 16 16" enable-background="new 0 0 16 16">
<g fill="currentColor">
	<path d="M13.7,3.2l-1.9-1.9C11.6,1.1,11.4,1,11.1,1H2.5C2.2,1,2,1.2,2,1.5v13C2,14.8,2.2,15,2.5,15h11c0.3,0,0.5-0.2,0.5-0.5V5V4
		V3.9C14,3.6,13.9,3.4,13.7,3.2z M13,14H3V2h7v2.5C10,4.8,10.2,5,10.5,5H13V14z M11,4V2l2,2H11z"/>
	<polygon points="4,10.5 4,9 7,6.5 7,8 5,9.8 7,11.5 7,13 	"/>
	<polygon points="9,13 9,11.5 11,9.8 9,8 9,6.5 12,9 12,10.5 	"/>
</g>
</svg>
