<svg xmlns="http://www.w3.org/2000/svg" viewBox="0 0 16 16">
<g>
    <path d="M4.399,14 L2,14 L2,2 L14,2 L14,8.071 C14.348,8.19 14.684,8.324 15,8.479 L15,1.5 C15,1.224 14.776,1 14.5,1 L1.5,1 C1.224,1 1,1.224 1,1.5 L1,14.5 C1,14.776 1.224,15 1.5,15 L5.023,15 C4.767,14.686 4.555,14.352 4.399,14 Z M3,3 L13,3 L13,5 L3,5 L3,3 Z M3,6 L13,6 L13,7 L3,7 L3,6 Z M3,9 L6.165,9 C6.761,8.585 7.464,8.245 8.245,8 L3,8 L3,9 Z M3,11 L4.413,11 C4.575,10.648 4.795,10.314 5.06,10 L3,10 L3,11 Z M3,13 L4.11,13 C4.087,12.835 4.075,12.668 4.075,12.5 C4.075,12.331 4.087,12.165 4.111,12 L3,12 L3,13 Z M11.2,9 L11.1,9 C8.3,9 6.1,10.6 6.1,12.5 C6.1,14.4 8.2,16 11,16 C13.8,16 16,14.4 16,12.5 C16,10.6 13.8,9.1 11.2,9 Z M11,15 C8.8,15 7,13.9 7,12.5 C7,11.6 7.7,10.9 8.8,10.4 C8.6,10.7 8.6,11.1 8.6,11.5 C8.6,12.9 9.7,14 11.1,14 C12.5,14 13.6,12.9 13.6,11.5 C13.6,11.1 13.5,10.8 13.4,10.5 C14.4,11 15.1,11.7 15.1,12.5 C15,13.9 13.2,15 11,15 Z M11.1,9.8 C11.2,9.8 11.4,9.9 11.4,10 C11.4,10.1 11.3,10.2 11.1,10.2 C10.5,10.2 9.9,10.7 9.9,11.3 C9.9,11.4 9.8,11.5 9.6,11.5 C9.4,11.5 9.3,11.4 9.3,11.3 C9.4,10.5 10.2,9.8 11.1,9.8 Z"/>
</g>
</svg>