<svg xmlns="http://www.w3.org/2000/svg" viewBox="0 0 16 16">
<g>
	<path d="M13,7v7H3V7H13 M13.5,6h-11C2.224,6,2,6.224,2,6.5v8C2,14.776,2.224,15,2.5,15h11c0.276,0,0.5-0.224,0.5-0.5v-8
		C14,6.224,13.776,6,13.5,6L13.5,6z"/>
	<path d="M10,10c0-1.105-0.895-2-2-2s-2,0.895-2,2c0,0.738,0.405,1.376,1,1.723V13h2v-1.277C9.595,11.376,10,10.738,10,10z"/>
	<path d="M9.949,2.738l0.708-0.708C9.949,1.397,9.025,1,8,1C5.791,1,4,2.791,4,5v1h1V5c0-1.654,1.346-3,3-3
		C8.747,2,9.423,2.285,9.949,2.738z"/>
</g>
</svg>