<?xml version="1.0" encoding="utf-8"?>
<!-- Generator: Adobe Illustrator 27.2.0, SVG Export Plug-In . SVG Version: 6.00 Build 0)  -->
<svg version="1.1" id="Ebene_1" xmlns="http://www.w3.org/2000/svg" xmlns:xlink="http://www.w3.org/1999/xlink" x="0px" y="0px"
	 viewBox="0 0 16 16" enable-background="new 0 0 16 16" xml:space="preserve">
<g class="icon-color">
	<path d="M13,2c0.6,0,1,0.4,1,1v10c0,0.6-0.4,1-1,1H3c-0.6,0-1-0.4-1-1V3c0-0.6,0.4-1,1-1H13 M13,1H3C1.9,1,1,1.9,1,3v10
		c0,1.1,0.9,2,2,2h10c1.1,0,2-0.9,2-2V3C15,1.9,14.1,1,13,1L13,1z"/>
	<path d="M11.5,9c-9,0-0.103,0-7,0C4.2,9,4,8.8,4,8.5v-1C4,7.2,4.2,7,4.5,7c9,0,7,0,7,0C11.8,7,12,7.2,12,7.5v1
		C12,8.8,11.8,9,11.5,9z"/>
</g>
</svg>
