<?xml version="1.0" encoding="utf-8"?>
<!-- Generator: Adobe Illustrator 23.0.2, SVG Export Plug-In . SVG Version: 6.00 Build 0)  -->
<svg version="1.1" id="Ebene_1" focusable="false" xmlns="http://www.w3.org/2000/svg" xmlns:xlink="http://www.w3.org/1999/xlink"
	 x="0px" y="0px" viewBox="0 0 16 16" enable-background="new 0 0 16 16" xml:space="preserve">
<g fill="currentColor">
	<path d="M14.413,9.393l-0.865-0.5C13.594,8.602,13.625,8.305,13.625,8s-0.031-0.602-0.078-0.893l0.865-0.5
		c0.478-0.276,0.642-0.888,0.366-1.366l-1-1.732c-0.276-0.478-0.888-0.642-1.366-0.366L11.552,3.64
		C11.09,3.264,10.566,2.963,10,2.748V2c0-0.552-0.448-1-1-1H7C6.448,1,6,1.448,6,2v0.748C5.434,2.964,4.91,3.264,4.448,3.64
		L3.587,3.143c-0.478-0.276-1.09-0.112-1.366,0.366l-1,1.732c-0.276,0.478-0.112,1.09,0.366,1.366l0.865,0.5
		C2.406,7.398,2.375,7.695,2.375,8s0.031,0.602,0.078,0.893l-0.865,0.5c-0.478,0.276-0.642,0.888-0.366,1.366l1,1.732
		c0.276,0.478,0.888,0.642,1.366,0.366l0.861-0.497C4.91,12.736,5.434,13.036,6,13.252V14c0,0.552,0.448,1,1,1h2
		c0.552,0,1-0.448,1-1v-0.748c0.566-0.216,1.09-0.516,1.552-0.892l0.861,0.497c0.478,0.276,1.09,0.112,1.366-0.366l1-1.732
		C15.055,10.281,14.891,9.669,14.413,9.393z M12.913,11.991l-1.515-0.875C10.768,11.803,9.942,12.302,9,12.51V14H7v-1.49
		c-0.942-0.208-1.768-0.707-2.398-1.394l-1.515,0.875l-1-1.732l1.521-0.878C3.47,8.942,3.375,8.484,3.375,8S3.47,7.058,3.608,6.619
		L2.087,5.741l1-1.732l1.515,0.875C5.232,4.197,6.058,3.698,7,3.49V2h2v1.49c0.942,0.208,1.768,0.707,2.398,1.394l1.515-0.875
		l1,1.732l-1.521,0.878C12.53,7.058,12.625,7.516,12.625,8s-0.095,0.942-0.233,1.381l1.521,0.878L12.913,11.991z"/>
	<path d="M8,5.875c1.172,0,2.125,0.953,2.125,2.125S9.172,10.125,8,10.125S5.875,9.172,5.875,8S6.828,5.875,8,5.875 M8,4.875
		C6.274,4.875,4.875,6.274,4.875,8S6.274,11.125,8,11.125S11.125,9.726,11.125,8S9.726,4.875,8,4.875L8,4.875z"/>
</g>
</svg>
