<?xml version="1.0" encoding="utf-8"?>
<!-- Generator: Adobe Illustrator 24.3.0, SVG Export Plug-In . SVG Version: 6.00 Build 0)  -->
<svg version="1.1" xmlns="http://www.w3.org/2000/svg" xmlns:xlink="http://www.w3.org/1999/xlink" x="0px" y="0px"
	 viewBox="0 0 16 16" enable-background="new 0 0 16 16">
<g fill="currentColor">
	<path d="M14.5,3h-13C1.224,3,1,3.224,1,3.5v9C1,12.776,1.224,13,1.5,13h13c0.276,0,0.5-0.224,0.5-0.5v-9C15,3.224,14.776,3,14.5,3z
		 M14,12H2V7h12V12z M2,5V4h12v1H2z"/>
	<polygon points="5,10 3,10 3,11 5,11 5,10 	"/>
	<polygon points="9,10 6,10 6,11 9,11 9,10 	"/>
</g>
</svg>
