<?xml version="1.0" encoding="utf-8"?>
<!-- Generator: Adobe Illustrator 25.1.0, SVG Export Plug-In . SVG Version: 6.00 Build 0)  -->
<svg version="1.1" xmlns="http://www.w3.org/2000/svg" xmlns:xlink="http://www.w3.org/1999/xlink" x="0px" y="0px"
	 viewBox="0 0 16 16" enable-background="new 0 0 16 16">
<g fill="currentColor">
	<path d="M8,1C4.0999756,1,1,4.0999756,1,8s3.0999756,7,7,7s7-3.0999756,7-7S11.9000244,1,8,1z M8.9949951,12.75
		c0,0.1380005-0.1119995,0.25-0.25,0.25h-1.5c-0.1380005,0-0.25-0.1119995-0.25-0.25v-1.5c0-0.1380005,0.1119995-0.25,0.25-0.25h1.5
		c0.1380005,0,0.25,0.1119995,0.25,0.25V12.75z M9.480957,8.5980225C9.1959839,8.7739868,8.9949951,9.0739746,8.9949951,9.4329834
		V9.75c0,0.1380005-0.1119995,0.25-0.25,0.25h-1.5c-0.1380005,0-0.25-0.1119995-0.25-0.25V9.4329834
		c0-1.1170044,0.6119995-2.0859985,1.5179443-2.5999756C8.7959595,6.6569824,8.9949951,6.3569946,8.9949951,6
		c0-0.5510254-0.4490356-1-1-1C7.5199585,5,7.1209717,5.3330078,7.0189819,5.7780151C6.9909668,5.9019775,6.8989868,6,6.7719727,6
		H5.2609863c-0.144043,0-0.2670288-0.1240234-0.2550049-0.2670288c0.151001-1.7079468,1.7340088-3.0049438,3.5409546-2.6829834
		C9.7489624,3.2639771,10.7329712,4.25,10.9459839,5.4509888C11.18396,6.7919922,10.5299683,8,9.480957,8.5980225z"/>
</g>
</svg>
