<?xml version="1.0" encoding="utf-8"?>
<!-- Generator: Adobe Illustrator 23.0.3, SVG Export Plug-In . SVG Version: 6.00 Build 0)  -->
<svg version="1.1" id="Ebene_1" xmlns="http://www.w3.org/2000/svg" xmlns:xlink="http://www.w3.org/1999/xlink" x="0px" y="0px"
	 viewBox="0 0 16 16" enable-background="new 0 0 16 16" xml:space="preserve">
<g class="icon-color">
    <path d="M8.36253118,15 L1.5,15 C1.224,15 1,14.776 1,14.5 L1,1.5 C1,1.224 1.224,1 1.5,1 L14.5,1 C14.776,1 15,1.224 15,1.5 L15,6.11235792 C15.2671256,6.2338177 15.5180713,6.40505045 15.7394581,6.62643722 L16.43994,7.32691919 C17.4187243,8.30570342 17.4125586,9.89645938 16.4408322,10.8681857 L15,12.3090179 L15,14.5 C15,14.776 14.776,15 14.5,15 L12.3090179,15 L12.203032,15.1059859 C11.6892779,15.6197401 10.9826742,15.8858276 10.2617383,15.8362772 L10.9637993,15.7595416 C10.0946255,16.0154717 9.14894601,15.7828147 8.51351409,15.1471469 L8.36253118,15 L8.36253118,15 L8.36253118,15 Z M13.3090179,14 L14,14 L14,13.3090179 L16.4408322,10.8681857 C17.4125586,9.89645938 17.4187243,8.30570342 16.43994,7.32691919 L15.7394581,6.62643722 C15.254577,6.14155615 14.6279023,5.89726246 14,5.88955279 L14,2 L2,2 L2,14 L7.33646162,14 L8.51351409,15.1471469 C9.14894601,15.7828147 10.0946255,16.0154717 10.9637993,15.7595416 L10.2617383,15.8362772 C10.9826742,15.8858276 11.6892779,15.6197401 12.203032,15.1059859 L13.3090179,14 L13.3090179,14 Z M5.5370725,12 L3,12 L3,13 L6.31039206,13 L6.05487515,12.7509751 C5.83111546,12.5272154 5.65847112,12.2721391 5.5370725,12 L5.5370725,12 Z M3,10 L3,11 L5.32163515,11 L5.52483588,10 L3,10 Z M3,8 L3,9 L6.2735707,9 L7.49987172,8 L3,8 Z M13,6 L3,6 L3,7 L11.8076216,7 L13,6 Z M3,3 L13,3 L13,5 L3,5 L3,3 Z M8.88330227,9.92254793 C8.68329356,9.72253922 8.37160183,9.730396 8.17451029,9.92748754 L7.47402832,10.6279695 C7.26850815,10.8334897 7.27472524,11.142398 7.46908871,11.3367615 L9.90934575,13.7147873 C10.0447417,13.8501832 10.2313176,13.8903224 10.3988759,13.8409844 C10.5390658,13.8506198 10.6810788,13.799512 10.7888184,13.6917724 L15.0266186,9.45397218 C15.2179053,9.2626855 15.222818,8.93822429 15.0257265,8.74113275 L14.3252445,8.04065078 C14.1197243,7.83513061 13.8090039,7.84315981 13.6124051,8.03975862 L10.3375747,11.314589 L8.88330227,9.92254793 Z"></path>
</g>
</svg>
