<svg xmlns="http://www.w3.org/2000/svg" version="1.1" viewBox="0 0 16 16">
<g fill="currentColor">
	<path d="M14,10v2h-2v-1.549c0-0.196-0.216-0.316-0.383-0.212l-3.278,2.049c-0.157,0.098-0.157,0.326,0,0.424l3.278,2.049
		C11.784,14.865,12,14.745,12,14.549V13h3v-3H14z"/>
	<path d="M6,13h1L5.5,9h-1L3,13h1l0.188-0.5h1.625L6,13z M4.563,11.5L5,10.333L5.438,11.5H4.563z"/>
	<path d="M13,5.775c0,0.193-0.045,0.366-0.137,0.518c-0.09,0.152-0.216,0.278-0.376,0.379c-0.183,0.118-0.386,0.203-0.607,0.253
		C11.66,6.975,11.38,7,11.041,7H9V3h1.815c0.377,0,0.653,0.011,0.828,0.032c0.175,0.021,0.348,0.069,0.519,0.142
		c0.178,0.077,0.311,0.181,0.398,0.311c0.087,0.129,0.129,0.278,0.129,0.444c0,0.193-0.059,0.364-0.178,0.512
		c-0.119,0.147-0.288,0.263-0.505,0.345v0.021c0.305,0.052,0.548,0.16,0.726,0.322C12.911,5.293,13,5.508,13,5.775z M11.455,4.131
		c0-0.066-0.019-0.133-0.058-0.199c-0.039-0.066-0.108-0.116-0.206-0.148c-0.088-0.028-0.197-0.045-0.328-0.047
		C10.733,3.734,10,3.733,10,3.733V4.58c0,0,0.741-0.003,0.875-0.008c0.133-0.005,0.239-0.023,0.316-0.054
		c0.109-0.041,0.18-0.095,0.214-0.16C11.439,4.293,11.455,4.217,11.455,4.131z M11.747,5.759c0-0.127-0.028-0.225-0.085-0.294
		c-0.058-0.069-0.156-0.12-0.293-0.154c-0.094-0.023-0.224-0.036-0.389-0.038C10.815,5.271,10,5.27,10,5.27v0.997
		c0,0,0.868-0.001,1.014-0.003c0.146-0.002,0.28-0.025,0.404-0.07c0.124-0.045,0.211-0.104,0.257-0.178
		C11.724,5.941,11.747,5.856,11.747,5.759z"/>
	<path d="M7.661,3.288L4.383,1.239C4.216,1.135,4,1.255,4,1.451V3H1v3h1V4h2v1.549c0,0.196,0.216,0.316,0.383,0.212l3.278-2.049
		C7.817,3.614,7.817,3.386,7.661,3.288z"/>
	<path d="M14.5,1h-7C7.224,1,7,1.224,7,1.5v0.196l1,0.625V2h6v6H9V7.5C9,7.224,8.776,7,8.5,7H8V4.679L7,5.304V7H1.5
		C1.224,7,1,7.224,1,7.5v7C1,14.776,1.224,15,1.5,15h7C8.776,15,9,14.776,9,14.5v-0.196l-1-0.625V14H2V8h6v3.321l1-0.625V9h5.5
		C14.776,9,15,8.776,15,8.5v-7C15,1.224,14.776,1,14.5,1z"/>
</g>
</svg>
