<svg xmlns="http://www.w3.org/2000/svg" version="1.1" viewBox="0 0 16 16">
<g fill="currentColor">
  <path d="M13.7763672,11.5527954l-.6707764-1.3414917c-.069458-.138916-.1055908-.2919922-.1055908-.4472656v-2.7641602c0-2.7614136-2.2385864-5-5-5S3,4.2384644,3,6.9998779v2.7641602c0,.1552734-.0361328.3083496-.1055908.4472656l-.6707764,1.3414917c-.3324585.664856.151062,1.4472046.8944092,1.4472046h2.881958c0,1.1045532.8954468,2,2,2s2-.8954468,2-2h2.881958c.7433472,0,1.2268677-.7823486.8944092-1.4472046ZM8,14c-.5513916,0-1-.4486084-1-1h2c0,.5513916-.4486084,1-1,1ZM3.118042,12l.6707764-1.3414917c.1381836-.2762451.2111816-.5855713.2111816-.8944702v-2.7641602c0-2.2056274,1.7943726-4,4-4s4,1.7944336,4,4.0001221v2.7640381c0,.3088989.072998.6182251.2111816.8944702l.6707764,1.3414917H3.118042Z"/>
  <path d="M14.183073,5.4999346c.0507812,0,.1025391-.0078125.1538086-.0244141.2626953-.0849609.4067383-.3666992.3217773-.6293945-.5019531-1.5537109-1.5458984-2.8925781-2.9394531-3.7695313-.2333984-.1459961-.5424805-.0761719-.6894531.1572266s-.0766602.5419922.1572266.6894531c1.1948242.7519531,2.0898437,1.8994141,2.5205078,3.2304688.0683594.2114258.2646484.3461914.4755859.3461914Z"/>
  <path d="M1.8168945,5.4999346c-.0507812,0-.1025391-.0078125-.1538086-.0244141-.2626953-.0849609-.4067383-.3666992-.3217773-.6293945.5019531-1.5537109,1.5458984-2.8925781,2.9394531-3.7695312.2333984-.1459961.5424805-.0761719.6894531.1572266s.0766602.5419922-.1572266.6894531c-1.1948242.7519531-2.0898438,1.8994141-2.5205078,3.2304688-.0683594.2114258-.2646484.3461914-.4755859.3461914Z"/>
</g>
</svg>
