<?xml version="1.0" encoding="utf-8"?>
<!-- Generator: Adobe Illustrator 23.0.1, SVG Export Plug-In . SVG Version: 6.00 Build 0)  -->
<svg version="1.1" id="Ebene_1" xmlns="http://www.w3.org/2000/svg" xmlns:xlink="http://www.w3.org/1999/xlink" x="0px" y="0px"
	 viewBox="0 0 16 16" enable-background="new 0 0 16 16" xml:space="preserve">
<g class="icon-color">
	<path d="M8,2C4.7,2,2,4.7,2,8s2.7,6,6,6s6-2.7,6-6S11.3,2,8,2z M12.5,8c0,0.9-0.3,1.8-0.8,2.5L5.5,4.3C6.2,3.8,7.1,3.5,8,3.5
		C10.5,3.5,12.5,5.5,12.5,8z M3.5,8c0-0.9,0.3-1.8,0.8-2.5l6.2,6.2c-0.7,0.5-1.6,0.8-2.5,0.8C5.5,12.5,3.5,10.5,3.5,8z"/>
</g>
</svg>
