<svg xmlns="http://www.w3.org/2000/svg" viewBox="0 0 16 16">
<g>
	<polygon points="12.1716309,8.6715698 11.4644775,9.3786621 13.0858154,11 11.2070923,11 4.2070923,4 2,4 2,5 3.7929077,5
		10.7929077,12 13.0858154,12 11.4644775,13.6213379 12.1715698,14.3284302 15,11.5 	"/>
	<polygon points="8.2070923,6.5858154 8.9141846,7.2929077 11.2070923,5 13.0858154,5 11.4644775,6.6213379 12.1715698,7.3284302
		15,4.5 12.1716309,1.6715698 11.4644775,2.3786621 13.0858154,4 10.7929077,4 	"/>
	<polygon points="6.0858154,8.7070923 3.7929077,11 2,11 2,12 4.2070923,12 6.7929077,9.4141846 	"/>
</g>
</svg>