<?xml version="1.0" encoding="utf-8"?>
<!-- Generator: Adobe Illustrator 25.1.0, SVG Export Plug-In . SVG Version: 6.00 Build 0)  -->
<svg version="1.1" xmlns="http://www.w3.org/2000/svg" xmlns:xlink="http://www.w3.org/1999/xlink" x="0px" y="0px"
	 viewBox="0 0 16 16" style="enable-background:new 0 0 16 16;" xml:space="preserve">
<g class="icon-color">
	<path d="M8,2c3.3000002,0,6,2.6999998,6,6s-2.6999998,6-6,6s-6-2.6999998-6-6S4.6999998,2,8,2 M8,1C4.0999999,1,1,4.0999999,1,8
		s3.0999999,7,7,7s7-3.1000004,7-7S11.8999996,1,8,1L8,1z"/>
	<path d="M7,4.25C7,4.1099997,7.1100001,4,7.25,4h1.5C8.8900003,4,9,4.1099997,9,4.25v1.5C9,5.8900003,8.8900003,6,8.75,6h-1.5
		C7.1100001,6,7,5.8900003,7,5.75V4.25z"/>
	<path d="M7,7.25C7,7.1099997,7.1100001,7,7.25,7h1.5C8.8900003,7,9,7.1099997,9,7.25v4.5C9,11.8900003,8.8900003,12,8.75,12h-1.5
		C7.1100001,12,7,11.8900003,7,11.75V7.25z"/>
</g>
</svg>
