<svg xmlns="http://www.w3.org/2000/svg" viewBox="0 0 16 16">
<g class="icon-color">
	<path d="M9.381,0.993L1.127,5.636C1.049,5.68,1,5.763,1,5.854v5.934c0,0.09,0.048,0.173,0.126,0.217l5.25,3
		c0.077,0.044,0.171,0.044,0.248,0l8.25-4.714C14.952,10.246,15,10.163,15,10.074V4.359c0-0.088-0.046-0.169-0.121-0.214
		L9.632,0.997C9.555,0.95,9.459,0.949,9.381,0.993z M6,13.639l-4-2.286v-4.47l4,2.4V13.639z M2.495,6.014l6.997-3.936l4.013,2.408
		L6.508,8.422L2.495,6.014z M10,7.605v4.319l-1,0.571V8.167L10,7.605z M11,7.042l1-0.562v4.302l-1,0.571V7.042z M7,9.292L8,8.73
		v4.337l-1,0.571V9.292z M14,9.639l-1,0.571V5.918l1-0.562V9.639z"/>
</g>
</svg>