<?xml version="1.0" encoding="utf-8"?>
<!-- Generator: Adobe Illustrator 23.0.1, SVG Export Plug-In . SVG Version: 6.00 Build 0)  -->
<svg version="1.1" id="Ebene_1" xmlns="http://www.w3.org/2000/svg" xmlns:xlink="http://www.w3.org/1999/xlink" x="0px" y="0px"
	 viewBox="0 0 16 16" enable-background="new 0 0 16 16" xml:space="preserve">
<g class="icon-color" opacity="0.5">
	<path d="M14.8,1H5.3C5.1,1,5,1.1,5,1.3V5h5.6l0.5-1H7V3h2V2h2v1h2v1h-0.8L11,6.4v0.8l0.9,0.9l-0.7,0.7L11,8.7V11h3.8
		c0.1,0,0.3-0.1,0.3-0.3V1.3C15,1.1,14.9,1,14.8,1z"/>
</g>
<g class="icon-color">
	<polygon points="5.8,8 5.3,10 6.8,10 6.3,8 "/>
	<path d="M10.8,5H1.3C1.1,5,1,5.1,1,5.3v9.5C1,14.9,1.1,15,1.3,15h9.5c0.1,0,0.3-0.1,0.3-0.3V5.3C11,5.1,10.9,5,10.8,5z M7.5,13L7,11
		H5l-0.5,2h-1L5,7h1h1l1.5,6H7.5z"/>
</g>
</svg>
