<?xml version="1.0" encoding="utf-8"?>
<!-- Generator: Adobe Illustrator 25.4.0, SVG Export Plug-In . SVG Version: 6.00 Build 0)  -->
<svg version="1.1" xmlns="http://www.w3.org/2000/svg" xmlns:xlink="http://www.w3.org/1999/xlink" x="0px" y="0px"
	 viewBox="0 0 16 16" enable-background="new 0 0 16 16">
<g fill="currentColor">
	<path d="M3.05,8.157L3.05,8.157c0.391,0.391,1.024,0.391,1.414,0L7,5.621V13c0,0.552,0.448,1,1,1l0,0c0.552,0,1-0.448,1-1V5.621
		l2.536,2.536c0.391,0.391,1.024,0.391,1.414,0l0,0c0.39-0.391,0.39-1.024,0-1.414L9.414,3.207L8.707,2.5
		c-0.391-0.391-1.024-0.391-1.414,0L6.586,3.207L3.05,6.743C2.66,7.133,2.66,7.766,3.05,8.157z"/>
</g>
</svg>
