<svg xmlns="http://www.w3.org/2000/svg" viewBox="0 0 16 16">
<g class="icon-color">
<rect x="12" y="3" width="1" height="1"/>
<rect x="10" y="3" width="1" height="1"/>
<path d="M9,14H8.6H2v-4h5.2l1-1H2V6h12v1.2l1,1V1.5C15,1.2,14.8,1,14.5,1h-13C1.2,1,1,1.2,1,1.5v13C1,14.8,1.2,15,1.5,15H9V14z M2,2
	h12v3H2V2z"/>
<path d="M12.2,8.2l3.4,3.4c0.1,0.1,0.1,0.3,0,0.4c0,0-0.1,0.1-0.2,0.1H13v4h-2v-4H8.6c-0.1,0-0.3-0.1-0.3-0.2c0-0.1,0-0.1,0.1-0.2
	l3.4-3.4C11.9,8.1,12.1,8.1,12.2,8.2C12.2,8.2,12.2,8.2,12.2,8.2z"/>
</g>
</svg>