<?xml version="1.0" encoding="utf-8"?>
<!-- Generator: Adobe Illustrator 27.2.0, SVG Export Plug-In . SVG Version: 6.00 Build 0)  -->
<svg version="1.1" xmlns="http://www.w3.org/2000/svg" xmlns:xlink="http://www.w3.org/1999/xlink" x="0px" y="0px"
	 viewBox="0 0 16 16" enable-background="new 0 0 16 16" xml:space="preserve">
<g class="icon-color">
	<path d="M8,2c3.3,0,6,2.7,6,6s-2.7,6-6,6s-6-2.7-6-6S4.7,2,8,2 M8,1C4.1,1,1,4.1,1,8s3.1,7,7,7s7-3.1,7-7S11.9,1,8,1L8,1z"/>
	<path d="M11.5,7H9V4.5C9,4.2,8.8,4,8.5,4h-1C7.2,4,7,4.2,7,4.5V7H4.5C4.2,7,4,7.2,4,7.5v1C4,8.8,4.2,9,4.5,9H7v2.5
		C7,11.8,7.2,12,7.5,12h1C8.8,12,9,11.8,9,11.5V9h2.5C11.8,9,12,8.8,12,8.5v-1C12,7.2,11.8,7,11.5,7z"/>
</g>
</svg>
