<svg xmlns="http://www.w3.org/2000/svg" version="1.1" viewBox="0 0 16 16">
<g fill="currentColor">
	<path d="M14,13v-1.5c0-0.276123-0.223877-0.5-0.5-0.5H13V6h1V4.309021c0-0.1893921-0.1069946-0.3625488-0.2763672-0.4472046
		l-5.5-2.75C8.1531982,1.0765991,8.0765991,1.059021,8,1.059021S7.8468018,1.0765991,7.7763672,1.1118164l-5.5,2.75
		C2.1069946,3.9464722,2,4.1196289,2,4.309021V6h1v5H2.5C2.223877,11,2,11.223877,2,11.5V13H1v1h14v-1H14z M12,11h-2V6h1.333313H12
		V11z M9,6v5H7V6H9z M3,4.618042l5-2.5l5,2.5V5h-1.666687H4.5625h-1.5H3V4.618042z M4,6h0.5625H6v5H4V6z M13,13H3v-1h10V13z"/>
</g>
</svg>
