<svg xmlns="http://www.w3.org/2000/svg" viewBox="0 0 16 16">
<g>
	<path d="M15.4,5.5l-4.9-4.9c-0.2-0.2-0.5-0.2-0.7,0L0.6,9.8c-0.2,0.2-0.2,0.5,0,0.7l4.9,4.9c0.2,0.2,0.5,0.2,0.7,0l9.2-9.2
		C15.6,6,15.6,5.7,15.4,5.5z M4.6,12.8c-0.1,0.1-0.2,0.1-0.3,0l-1.1-1.1c-0.1-0.1-0.1-0.3-0.1-0.4L3.5,11c0.1-0.1,0.3-0.1,0.4,0
		L5,12.1c0.1,0.1,0.1,0.2-0.1,0.4L4.6,12.8z M7.3,12.9L3.1,8.7l6.4-6.4l4.2,4.2L7.3,12.9z"/>
	<path d="M6.3,1.6L6.2,0.9C5.6,1,5,1.2,4.4,1.5l0.4,0.7C5.3,1.9,5.8,1.7,6.3,1.6z"/>
	<path d="M12.1,13.2l0.5,0.6c0.5-0.4,0.9-0.8,1.3-1.3L13.3,12C12.9,12.5,12.5,12.9,12.1,13.2z"/>
	<path d="M13.8,11.3l0.7,0.4c0.3-0.5,0.5-1.1,0.7-1.7l-0.7-0.2C14.2,10.3,14,10.8,13.8,11.3z"/>
	<path d="M4,2.7L3.6,2.1c-0.5,0.4-1,0.8-1.4,1.3l0.6,0.5C3.2,3.4,3.6,3,4,2.7z"/>
	<path d="M9.7,14.4l0.2,0.7c0.6-0.2,1.2-0.4,1.7-0.7l-0.4-0.7C10.8,14,10.3,14.3,9.7,14.4z"/>
	<path d="M2.3,4.6L1.6,4.3C1.3,4.8,1.1,5.4,0.9,6l0.7,0.2C1.8,5.6,2,5.1,2.3,4.6z"/>
</g>
</svg>