<?xml version="1.0" encoding="utf-8"?>
<!-- Generator: Adobe Illustrator 19.1.1, SVG Export Plug-In . SVG Version: 6.00 Build 0)  -->
<svg version="1.1" xmlns="http://www.w3.org/2000/svg" xmlns:xlink="http://www.w3.org/1999/xlink" x="0px" y="0px"
	 viewBox="0 0 16 16" enable-background="new 0 0 16 16">
<g fill="currentColor">
	<rect x="3" y="3" width="1" height="1"/>
	<rect x="3" y="5" width="1" height="1"/>
	<rect x="3" y="7" width="1" height="1"/>
	<rect x="3" y="9" width="1" height="1"/>
	<rect x="11" y="5" width="1" height="1"/>
	<rect x="11" y="7" width="1" height="1"/>
	<rect x="11" y="9" width="1" height="1"/>
	<rect x="11" y="11" width="1" height="1"/>
	<path d="M14.5,3h-5C9.224,3,9,3.224,9,3.5V4h1h1h3v10h-4V7H9v7.5C9,14.776,9.224,15,9.5,15h5c0.276,0,0.5-0.224,0.5-0.5v-11
		C15,3.224,14.776,3,14.5,3z"/>
	<path d="M6,8.5V12H2V2h4v0.5l1-0.75V1.5C7,1.224,6.776,1,6.5,1h-5C1.224,1,1,1.224,1,1.5v11C1,12.776,1.224,13,1.5,13h5
		C6.776,13,7,12.776,7,12.5V9.25L6,8.5z"/>
	<polygon points="10,5 8,5 8,2.5 4,5.5 8,8.5 8,6 10,6 	"/>
</g>
</svg>
