<svg xmlns="http://www.w3.org/2000/svg" version="1.1" viewBox="0 0 16 16">
<g fill="currentColor">
	<path d="M11.5,2C12.328,2,13,2.672,13,3.5S12.328,5,11.5,5S10,4.328,10,3.5S10.672,2,11.5,2 M11.5,1C10.122,1,9,2.122,9,3.5
		S10.122,6,11.5,6S14,4.878,14,3.5S12.878,1,11.5,1L11.5,1z"/>
	<path d="M4.5,11C5.328,11,6,11.672,6,12.5S5.328,14,4.5,14S3,13.328,3,12.5S3.672,11,4.5,11 M4.5,10C3.122,10,2,11.122,2,12.5
		S3.122,15,4.5,15S7,13.878,7,12.5S5.878,10,4.5,10L4.5,10z"/>
	<path d="M4.5,2C5.328,2,6,2.672,6,3.5S5.328,5,4.5,5S3,4.328,3,3.5S3.672,2,4.5,2 M4.5,1C3.122,1,2,2.122,2,3.5S3.122,6,4.5,6
		S7,4.878,7,3.5S5.878,1,4.5,1L4.5,1z"/>
	<rect x="4" y="5" width="1" height="6"/>
	<path d="M11,5v1c0,0.552-0.448,1-1,1H6C4.895,7,4,7.895,4,9v2h1V9c0-0.552,0.448-1,1-1h4c1.105,0,2-0.895,2-2V5H11z"/>
</g>
</svg>
