<svg xmlns="http://www.w3.org/2000/svg" version="1.1" viewBox="0 0 16 16">
<g fill="currentColor">
  <path d="M8,2c3.3000002,0,6,2.6999998,6,6s-2.6999998,6-6,6-6-2.6999998-6-6,2.6999998-6,6-6M8,1c-3.9000001,0-7,3.0999999-7,7s3.0999999,7,7,7,7-3.1000004,7-7S11.8999996,1,8,1h0Z"/>
  <path d="M8,10.5c-1.3807373,0-2.5-1.1192627-2.5-2.5s1.1192627-2.5,2.5-2.5c.6900024,0,1.3146362.2796631,1.7670288.7316284l1.0601807-1.0610352c-.7237549-.7232056-1.7232056-1.1705933-2.8272095-1.1705933-2.2091675,0-4,1.7908325-4,4s1.7908325,4,4,4c1.1046143,0,2.1045532-.4476929,2.8284302-1.1715698l-1.0606689-1.0606689c-.4524536.4523926-1.0773926.7322388-1.7677612.7322388Z"/>
</g>
</svg>
