<?xml version="1.0" encoding="utf-8"?>
<!-- Generator: Adobe Illustrator 27.0.1, SVG Export Plug-In . SVG Version: 6.00 Build 0)  -->
<svg version="1.1" xmlns="http://www.w3.org/2000/svg" xmlns:xlink="http://www.w3.org/1999/xlink" x="0px" y="0px"
	 viewBox="0 0 16 16" enable-background="new 0 0 16 16">
<g fill="currentColor">
	<path d="M9,14.7787476v-0.678772v-0.175354c-0.3198242,0.0223999-0.6514282,0.0370483-1,0.0370483c-3.0058594,0-5-0.9023438-5-1.5
		v-1.5679321c0.7335815,0.4554443,1.8085938,0.7667847,3,0.9310303v-1.0082397
		c-1.8553467-0.2783203-2.9984131-0.902832-2.9996948-1.3544312H3V7.8934326c1.1303101,0.7017212,3.0668335,1.0675659,5,1.0675659
		c0.1062012,0,0.2119141-0.0053101,0.3180542-0.0075073L9.385498,7.8860474C8.9499512,7.9295654,8.4946899,7.9609985,8,7.9609985
		c-3.0045776,0-4.9979858-0.9020386-4.9996948-1.4992065H3V4.8931274c1.1303101,0.7017212,3.0668335,1.0675659,5,1.0675659
		c1.9331055,0,3.8695679-0.3658447,5-1.0673828v1.4692993c0.2252197,0.1078491,0.4364624,0.2454224,0.6141968,0.4231567
		L14,7.1715698V3.4616699c0-3.2822266-12-3.2822266-12,0v9c0,1.6416016,3.0185547,2.5,6,2.5
		c0.3344727,0,0.6688843-0.0124512,1-0.0339355V14.7787476z M8,1.9616699c3.0055542,0,4.9995728,0.90271,4.999939,1.4998169
		h-0.0002441C12.9979858,4.0586548,11.0045776,4.9606934,8,4.9606934S3.0020142,4.0586548,3.0003052,3.4614868H3.000061
		C3.0004272,2.8643799,4.9944458,1.9616699,8,1.9616699z"/>
	<path d="M12.1999998,8.1999998l3.4000006,3.4000006c0.1000004,0.1000004,0.1000004,0.3000002,0,0.3999996
		c0,0-0.1000004,0.1000004-0.1999998,0.1000004H13v4h-2v-4H8.6000004C8.5,12.1000004,8.3000002,12,8.3000002,11.9000006
		c0-0.1000004,0-0.1000004,0.1000004-0.1999998l3.4000006-3.3999996
		C11.8999996,8.1000004,12.1000004,8.1000004,12.1999998,8.1999998L12.1999998,8.1999998z"/>
</g>
</svg>
