<svg xmlns="http://www.w3.org/2000/svg" version="1.1" viewBox="0 0 16 16">
<g fill="currentColor">
	<path d="M12,3h2v2h1V2.2C15,2.1,14.9,2,14.8,2H12V3z"/>
	<path d="M2,5V3h2V2H1.2C1.1,2,1,2.1,1,2.2V5H2z"/>
	<path d="M4,13H2v-2H1v2.8C1,13.9,1.1,14,1.2,14H4V13z"/>
	<path d="M14,11v2h-2v1h2.8c0.1,0,0.2-0.1,0.2-0.2V11H14z"/>
	<polygon points="13,4 12,4 12,12 13,12 	"/>
	<polygon points="11,4 10,4 10,12 11,12 	"/>
	<polygon points="9.5,4 9,4 9,12 9.5,12 	"/>
	<polygon points="8.5,4 7.5,4 7.5,12 8.5,12 	"/>
	<polygon points="7,4 6,4 6,12 7,12 	"/>
	<polygon points="5.5,4 5,4 5,12 5.5,12 	"/>
	<polygon points="4,4 3,4 3,12 4,12 	"/>
</g>
</svg>
