<?xml version="1.0" encoding="utf-8"?>
<!-- Generator: Adobe Illustrator 23.0.3, SVG Export Plug-In . SVG Version: 6.00 Build 0)  -->
<svg version="1.1" id="Ebene_1" xmlns="http://www.w3.org/2000/svg" xmlns:xlink="http://www.w3.org/1999/xlink" x="0px" y="0px"
	 viewBox="0 0 16 16" enable-background="new 0 0 16 16" xml:space="preserve">
<g fill="currentColor">
	<path d="M13,2v12H3V2H13 M14,1H2v14h12V1L14,1z"/>
	<rect x="4" y="9" width="2" height="1"/>
	<rect x="7" y="9" width="2" height="1"/>
	<rect x="10" y="9" width="2" height="1"/>
	<rect x="4" y="11" width="2" height="1"/>
	<rect x="7" y="11" width="2" height="1"/>
	<rect x="10" y="11" width="2" height="1"/>
	<rect x="4" y="7" width="2" height="1"/>
	<rect x="7" y="7" width="2" height="1"/>
	<rect x="10" y="7" width="2" height="1"/>
	<rect x="4" y="5" width="2" height="1"/>
	<rect x="7" y="5" width="2" height="1"/>
	<rect x="10" y="5" width="2" height="1"/>
	<rect x="4" y="3" width="2" height="1"/>
	<rect x="7" y="3" width="2" height="1"/>
	<rect x="10" y="3" width="2" height="1"/>
</g>
</svg>
