<?xml version="1.0" encoding="UTF-8" standalone="no"?>
<svg width="16px" height="16px" viewBox="0 0 16 16" version="1.1" xmlns="http://www.w3.org/2000/svg" xmlns:xlink="http://www.w3.org/1999/xlink" xmlns:sketch="http://www.bohemiancoding.com/sketch/ns">
    <!-- Generator: Sketch 3.3.3 (12072) - http://www.bohemiancoding.com/sketch -->
    <title>actions-document-paste-before-v8</title>
    <desc>Created with Sketch.</desc>
    <defs></defs>
    <g class="icon-color" fill-rule="evenodd">
        <path d="M15,13 L15,14 L4,14 L4,13 L15,13 L15,13 Z M15,10 L15,11 L4,11 L4,10 L15,10 L15,10 Z M15,7 L15,8 L4,8 L4,7 L15,7 Z M8,2 L8,5 L1,5 L1,2 L8,2 Z M2,3 L7,3 L7,4 L2,4 L2,3 Z M8.99107786,3.86511225 L8.9910779,2.99810835 L11,2.99810841 L11,2 C11.0522465,1.77529301 11.2552742,1.66249981 11.4122448,1.76025392 L14.4933789,3.20839603 C14.64095,3.30051048 14.64095,3.51481755 14.4933789,3.60693199 L11.4122448,5.19665523 C11.2552742,5.29440933 11.0522465,5.18161614 11,4.99738725 L11,3.8651123 L8.99107786,3.86511225 Z"></path>
    </g>
</svg>