<?xml version="1.0" encoding="utf-8"?>
<!-- Generator: Adobe Illustrator 19.1.0, SVG Export Plug-In . SVG Version: 6.00 Build 0)  -->
<svg version="1.1" xmlns="http://www.w3.org/2000/svg" xmlns:xlink="http://www.w3.org/1999/xlink" x="0px" y="0px"
	 viewBox="0 0 16 16" enable-background="new 0 0 16 16">
<g fill="currentColor">
	<path d="M10.693,7.77l4.454-3.19c0.104-0.074,0.135-0.215,0.072-0.326l-0.761-1.349c-0.063-0.112-0.201-0.158-0.318-0.106
		l-6.41,2.88L10.693,7.77z"/>
	<path d="M7.065,10.721L4.929,9.779l-0.05,0.567l-2.177,1.228c-0.721,0.407-0.976,1.322-0.569,2.043l0.737,1.307
		c0.543,0.962,1.763,1.302,2.725,0.759c1.37-0.773,1.883-2.457,1.238-3.86L7.065,10.721z M4.98,14.595
		c-0.36,0.203-0.819,0.076-1.022-0.285l-0.737-1.306c-0.068-0.12-0.025-0.273,0.095-0.341l1.96-1.106l0.369,0.653
		C6.118,13.051,5.82,14.121,4.98,14.595z"/>
	<path d="M15.113,11.501L7.092,5.84L6.868,4.177c0.659-1.397,0.162-3.086-1.2-3.872c-0.957-0.552-2.18-0.224-2.732,0.733
		l-0.75,1.299c-0.414,0.718-0.168,1.635,0.55,2.049l2.165,1.249l0.191,3.67l8.996,3.968c0.117,0.053,0.255,0.008,0.319-0.103
		l0.774-1.342C15.246,11.717,15.216,11.576,15.113,11.501z M5.684,3.778l-0.375,0.65L3.36,3.303C3.241,3.234,3.2,3.081,3.268,2.962
		l0.75-1.299c0.207-0.358,0.666-0.481,1.024-0.275C5.878,1.87,6.166,2.942,5.684,3.778z M7,9C6.448,9,6,8.552,6,8s0.448-1,1-1
		s1,0.448,1,1S7.552,9,7,9z"/>
</g>
</svg>
