<svg xmlns="http://www.w3.org/2000/svg" version="1.1" viewBox="0 0 16 16">
<g fill="currentColor">
	<path d="M13,2c0.6,0,1,0.4,1,1v10c0,0.6-0.4,1-1,1H3c-0.6,0-1-0.4-1-1V3c0-0.6,0.4-1,1-1H13 M13,1H3C1.9,1,1,1.9,1,3v10
		c0,1.1,0.9,2,2,2h10c1.1,0,2-0.9,2-2V3C15,1.9,14.1,1,13,1L13,1z"/>
	<path d="M8,7C7.4,7,7,7.4,7,8c0,0.6,0.4,1,1,1c0.6,0,1-0.4,1-1C9,7.4,8.6,7,8,7L8,7z"/>
	<path d="M5,4C4.4,4,4,4.4,4,5c0,0.6,0.4,1,1,1c0.6,0,1-0.4,1-1C6,4.4,5.6,4,5,4L5,4z"/>
	<path d="M11,10c-0.6,0-1,0.4-1,1c0,0.6,0.4,1,1,1c0.6,0,1-0.4,1-1C12,10.4,11.6,10,11,10L11,10z"/>
	<path d="M5,10c-0.6,0-1,0.4-1,1c0,0.6,0.4,1,1,1c0.6,0,1-0.4,1-1C6,10.4,5.6,10,5,10L5,10z"/>
	<path d="M11,4c-0.6,0-1,0.4-1,1c0,0.6,0.4,1,1,1c0.6,0,1-0.4,1-1C12,4.4,11.6,4,11,4L11,4z"/>
</g>
</svg>
