<?xml version="1.0" encoding="utf-8"?>
<!-- Generator: Adobe Illustrator 24.3.0, SVG Export Plug-In . SVG Version: 6.00 Build 0)  -->
<svg version="1.1" id="Ebene_1" xmlns="http://www.w3.org/2000/svg" xmlns:xlink="http://www.w3.org/1999/xlink" x="0px" y="0px"
	 viewBox="0 0 16 16" enable-background="new 0 0 16 16" xml:space="preserve">
<g class="icon-color">
<path d="M12.589,7.231C12.7,6.818,13.25,6.448,13.25,6c0-0.448-0.55-0.817-0.661-1.23c-0.114-0.427,0.174-1.021-0.042-1.395
	c-0.219-0.379-0.88-0.425-1.188-0.733c-0.308-0.308-0.354-0.969-0.733-1.188C10.518,1.39,10.391,1.37,10.255,1.37
	c-0.25,0-0.531,0.069-0.784,0.069c-0.084,0-0.165-0.008-0.241-0.028C8.818,1.3,8.448,0.75,8,0.75c-0.448,0-0.817,0.55-1.23,0.661
	c-0.076,0.02-0.156,0.028-0.24,0.028c-0.253,0-0.534-0.069-0.784-0.069c-0.136,0-0.263,0.02-0.371,0.083
	c-0.379,0.219-0.425,0.88-0.733,1.188S3.673,2.994,3.453,3.374C3.237,3.748,3.525,4.342,3.411,4.769C3.3,5.182,2.75,5.552,2.75,6
	c0,0.448,0.55,0.817,0.661,1.23c0.114,0.427-0.174,1.022,0.042,1.396c0.219,0.379,0.88,0.425,1.188,0.733
	C4.804,9.522,5,9.76,5,10.025C5,11.294,5,15,5,15l3-1l3,1c0,0,0-3.5,0-4.976c0-0.264,0.196-0.502,0.358-0.665
	c0.308-0.308,0.969-0.354,1.188-0.733C12.763,8.252,12.475,7.658,12.589,7.231z M8,3.5c1.381,0,2.5,1.119,2.5,2.5
	c0,1.381-1.119,2.5-2.5,2.5S5.5,7.381,5.5,6C5.5,4.619,6.619,3.5,8,3.5z"/>
</g>
</svg>
