<?xml version="1.0" encoding="utf-8"?>
<!-- Generator: Adobe Illustrator 19.1.0, SVG Export Plug-In . SVG Version: 6.00 Build 0)  -->
<svg version="1.1" xmlns="http://www.w3.org/2000/svg" xmlns:xlink="http://www.w3.org/1999/xlink" x="0px" y="0px"
	 viewBox="0 0 16 16" enable-background="new 0 0 16 16" xml:space="preserve">
<g fill="currentColor">
	<rect x="11.672" y="2.328" transform="matrix(-0.7071 -0.7071 0.7071 -0.7071 16.6569 18.5563)" width="1" height="7"/>
	<path d="M13,8.536V12H3V5h6.464l1-1H2.5C2.224,4,2,4.224,2,4.5v8C2,12.776,2.224,13,2.5,13h11c0.276,0,0.5-0.224,0.5-0.5V7.535
		L13,8.536z"/>
	<path d="M15.573,6.573l-4.146-4.146C11.269,2.269,11.381,2,11.604,2h4.146C15.888,2,16,2.112,16,2.25v4.146
		C16,6.619,15.731,6.731,15.573,6.573z"/>
</g>
</svg>
