<?xml version="1.0" encoding="utf-8"?>
<!-- Generator: Adobe Illustrator 23.0.3, SVG Export Plug-In . SVG Version: 6.00 Build 0)  -->
<svg version="1.1" xmlns="http://www.w3.org/2000/svg" xmlns:xlink="http://www.w3.org/1999/xlink" x="0px" y="0px"
	 viewBox="0 0 16 16" enable-background="new 0 0 16 16">
<g fill="currentColor">
    <path d="M6.76833338,15 L1.5,15 C1.224,15 1,14.776 1,14.5 L1,1.5 C1,1.224 1.224,1 1.5,1 L14.5,1 C14.776,1 15,1.224 15,1.5 L15,6.97003884 C14.6996482,6.65693647 14.364208,6.37775469 14,6.13881411 L14,2 L2,2 L2,14 L5.97467492,14 C6.20191617,14.3624723 6.46845979,14.6977964 6.76833338,15 L6.76833338,15 L6.76833338,15 Z M5.19564707,12 L3,12 L3,13 L5.47618763,13 C5.35382897,12.6794405 5.25932869,12.3451204 5.19564707,12 L5.19564707,12 L5.19564707,12 Z M5.17810996,10 L3,10 L3,11 L5.10021278,11 C5.10007096,10.9833501 5.0999999,10.9666832 5.0999999,10.9499998 C5.0999999,10.6263935 5.12673255,10.3090309 5.17810996,10 L5.17810996,10 L5.17810996,10 Z M5.91339405,8 L3,8 L3,9 L5.43908384,9 C5.56537683,8.64961629 5.72473545,8.31502774 5.91339405,8 L5.91339405,8 L5.91339405,8 Z M7.92248168,6 L3,6 L3,7 L6.67146378,7 C7.03882475,6.61152034 7.45977317,6.27424455 7.92248168,6 L7.92248168,6 L7.92248168,6 Z M3,3 L13,3 L13,5 L3,5 L3,3 L3,3 Z M11,12 C11.5522847,12 12,11.5522847 12,11 C12,10.4477153 11.5522847,10 11,10 C10.4477153,10 10,10.4477153 10,11 C10,11.5522847 10.4477153,12 11,12 L11,12 Z M9.28529927,8.54916277 L8.76798062,7.69090175 C9.40862349,7.2548639 10.182483,7 11.0158691,7 C13.224296,7 15.0147145,8.78970667 15.0158685,10.9978639 L15.8406944,10.9978638 C15.9809798,10.9978638 16.0668689,11.15819 15.9924317,11.282146 L14.6847354,13.7152452 C14.6145926,13.8317787 14.4514034,13.8317787 14.3812607,13.7152452 L13.0236817,11.282146 C12.9492445,11.15819 13.0351336,10.9978638 13.175419,10.9978638 L14.0155028,10.9978639 C14.0147145,9.34199146 12.6720112,8 11.0158691,8 C10.3713398,8 9.77428306,8.20325437 9.28529927,8.54916277 Z M11.0240479,14 C11.6685772,14 12.241586,13.7967456 12.7305698,13.4508372 L13.2478885,14.3090982 C12.6072456,14.7451361 11.8333861,15 11,15 C8.79157308,15 7.00115456,13.2102933 7.00000056,11.0021361 L6.18292237,11.0021361 C6.04263691,11.0021361 5.95674786,10.8418099 6.03118504,10.717854 L7.33113374,8.28475477 C7.40127647,8.16822134 7.56446567,8.16822134 7.6346084,8.28475477 L8.95080567,10.7178539 C9.02524285,10.8418099 8.9393538,11.0021361 8.79906834,11.0021361 L8.00036626,11.0021361 C8.0011546,12.6580085 9.36790571,14 11.0240479,14 Z"></path>
</g>
</svg>
