<?xml version="1.0" encoding="utf-8"?>
<!-- Generator: Adobe Illustrator 22.1.0, SVG Export Plug-In . SVG Version: 6.00 Build 0)  -->
<svg version="1.1" id="Ebene_1" xmlns="http://www.w3.org/2000/svg" xmlns:xlink="http://www.w3.org/1999/xlink" x="0px" y="0px"
	 viewBox="0 0 16 16" enable-background="new 0 0 16 16" xml:space="preserve">
<g fill="currentColor">
	<path d="M8,2C6.2,2,4.6,2.8,3.5,4l-1-1C2.3,2.8,2.1,2.9,2.1,3.1L1.2,6.9c0,0.2,0.1,0.3,0.3,0.3l3.8-0.9c0.2,0,0.3-0.3,0.1-0.4l-1-1
		c0.9-1,2.2-1.7,3.7-1.7c2.7,0,4.9,2.2,4.9,4.9s-2.2,4.9-4.9,4.9c-1.5,0-2.8-0.7-3.7-1.7L3.5,12c1.1,1.2,2.7,2,4.5,2c3.3,0,6-2.7,6-6
		S11.3,2,8,2z"/>
</g>
</svg>
