<?xml version="1.0" encoding="utf-8"?>
<!-- Generator: Adobe Illustrator 25.1.0, SVG Export Plug-In . SVG Version: 6.00 Build 0)  -->
<svg version="1.1" id="Ebene_1" xmlns="http://www.w3.org/2000/svg" xmlns:xlink="http://www.w3.org/1999/xlink" x="0px" y="0px"
	 viewBox="0 0 16 16" enable-background="new 0 0 16 16" xml:space="preserve">
<g fill="currentColor">
	<path d="M9.3,7.7C8.9,7.7,8.6,8,8.6,8.5c0,0.4,0.3,0.8,0.7,0.8c0.4,0,0.7-0.3,0.7-0.8C10,8,9.6,7.7,9.3,7.7z
		 M6.8,7.7C6.4,7.7,6.1,8,6.1,8.5c0,0.4,0.3,0.8,0.7,0.8c0.4,0,0.7-0.3,0.7-0.8C7.5,8,7.1,7.7,6.8,7.7z"/>
	<path d="M12.6,2H3.4C2.6,2,2,2.6,2,3.4v9.2C2,13.4,2.6,14,3.4,14h7.8l-0.4-1.3l0.9,0.8l0.8,0.8l1.5,1.3V3.4
		C14,2.6,13.4,2,12.6,2z M9.9,10.9c0,0-0.2-0.3-0.5-0.5c0.9-0.3,1.2-0.8,1.2-0.8c-0.3,0.2-0.5,0.3-0.8,0.4c-0.3,0.1-0.7,0.2-1,0.3
		c-0.7,0.1-1.3,0.1-1.8,0c-0.4-0.1-0.7-0.2-1-0.3C6,9.9,5.8,9.8,5.7,9.7c0,0,0,0-0.1,0c0,0,0,0,0,0C5.5,9.6,5.4,9.5,5.4,9.5
		s0.3,0.5,1.2,0.8c-0.2,0.3-0.5,0.6-0.5,0.6c-1.5,0-2.1-1-2.1-1c0-2.2,1-4,1-4c1-0.7,1.9-0.7,1.9-0.7L7,5.3C5.8,5.6,5.2,6.1,5.2,6.1
		S5.4,6.1,5.6,6c0.7-0.3,1.3-0.4,1.6-0.4c0,0,0.1,0,0.1,0c0.4-0.1,0.9-0.1,1.4,0c0.7,0.1,1.4,0.3,2.1,0.7c0,0-0.5-0.5-1.7-0.9
		l0.1-0.1c0,0,0.9,0,1.9,0.7c0,0,1,1.8,1,4C12,9.8,11.5,10.8,9.9,10.9z"/>
</g>
</svg>
