<svg xmlns="http://www.w3.org/2000/svg" version="1.1" viewBox="0 0 16 16">
<g fill="currentColor">
    <path d="M8.25,14 L3,14 L3,2 L10,2 L10,4.5 C10,4.776 10.224,5 10.5,5 L13,5 L13,7.25 L14,8.25 L14,3.914 C14,3.649 13.895,3.394 13.707,3.207 L11.793,1.293 C11.605,1.105 11.351,1 11.086,1 L2.5,1 C2.224,1 2,1.224 2,1.5 L2,14.5 C2,14.776 2.224,15 2.5,15 L9.25,15 L8.25,14 L8.25,14 Z M11,2 L13,4 L11,4 L11,2 Z M14.1238452,14.8440894 L12.6788452,13.4040894 C12.1888452,13.7440894 11.5988452,13.9240894 10.9988452,13.9240894 C9.36884521,13.9290894 8.04384521,12.6040894 8.04384521,10.9640894 C8.04384521,9.32908936 9.36884521,8.00408936 11.0038452,8.00408936 C12.6388452,8.00408936 13.9638452,9.32908936 13.9638452,10.9640894 C13.9638452,11.5590894 13.7838452,12.1490894 13.4438452,12.6440894 L14.8888452,14.0890894 C14.9838452,14.1840894 15.0438452,14.3240894 15.0438452,14.4690894 C15.0438452,14.7590894 14.7988452,15.0040894 14.5038452,15.0040894 C14.3588452,15.0040894 14.2238452,14.9440894 14.1238452,14.8440894 Z M11,9 C9.89777778,9 9,9.89777778 9,11 C9,12.1022222 9.89777778,13 11,13 C12.1022222,13 13,12.1022222 13,11 C13,9.89777778 12.1022222,9 11,9 Z"></path>
</g>
</svg>
