<svg xmlns="http://www.w3.org/2000/svg" viewBox="0 0 16 16">
<g>
	<path d="M8,2.261c1.869,0,2.09,0.007,2.829,0.041c0.682,0.031,1.053,0.145,1.3,0.241c0.327,0.127,0.56,0.279,0.805,0.524
		c0.245,0.245,0.397,0.478,0.524,0.805c0.096,0.247,0.21,0.617,0.241,1.3C13.732,5.91,13.739,6.131,13.739,8
		s-0.007,2.09-0.041,2.829c-0.031,0.682-0.145,1.053-0.241,1.3c-0.127,0.327-0.279,0.56-0.524,0.805
		c-0.245,0.245-0.478,0.397-0.805,0.524c-0.247,0.096-0.617,0.21-1.3,0.241C10.091,13.732,9.869,13.739,8,13.739
		s-2.091-0.007-2.829-0.041c-0.682-0.031-1.053-0.145-1.3-0.241c-0.327-0.127-0.56-0.279-0.805-0.524
		c-0.245-0.245-0.397-0.478-0.524-0.805c-0.096-0.247-0.21-0.617-0.241-1.3C2.268,10.09,2.261,9.869,2.261,8s0.007-2.09,0.041-2.829
		c0.031-0.682,0.145-1.053,0.241-1.3c0.127-0.327,0.279-0.56,0.524-0.805C3.312,2.822,3.545,2.67,3.872,2.543
		c0.247-0.096,0.617-0.21,1.3-0.241C5.91,2.268,6.131,2.261,8,2.261 M8,1C6.099,1,5.861,1.008,5.114,1.042
		C4.369,1.076,3.86,1.194,3.415,1.367c-0.46,0.179-0.851,0.418-1.24,0.807c-0.389,0.389-0.629,0.78-0.807,1.24
		C1.194,3.86,1.076,4.369,1.042,5.114C1.008,5.861,1,6.099,1,8c0,1.901,0.008,2.139,0.042,2.886
		c0.034,0.745,0.152,1.254,0.325,1.699c0.179,0.46,0.418,0.851,0.807,1.24c0.389,0.389,0.78,0.629,1.24,0.807
		c0.445,0.173,0.954,0.291,1.699,0.325C5.861,14.992,6.099,15,8,15s2.139-0.008,2.886-0.042c0.745-0.034,1.254-0.152,1.699-0.325
		c0.46-0.179,0.851-0.418,1.24-0.807c0.389-0.389,0.629-0.78,0.807-1.24c0.173-0.445,0.291-0.954,0.325-1.699
		C14.992,10.139,15,9.901,15,8s-0.008-2.139-0.042-2.886c-0.034-0.745-0.152-1.254-0.325-1.699c-0.179-0.46-0.418-0.851-0.807-1.24
		c-0.389-0.389-0.78-0.629-1.24-0.807c-0.445-0.173-0.954-0.291-1.699-0.325C10.139,1.008,9.901,1,8,1L8,1z"/>
	<path d="M8,4.405C6.015,4.405,4.405,6.015,4.405,8S6.015,11.595,8,11.595S11.595,9.985,11.595,8S9.985,4.405,8,4.405z M8,10.333
		c-1.289,0-2.333-1.045-2.333-2.333c0-1.289,1.045-2.333,2.333-2.333c1.289,0,2.333,1.045,2.333,2.333
		C10.333,9.289,9.289,10.333,8,10.333z"/>
	<circle cx="11.737" cy="4.263" r="0.84"/>
</g>
</svg>