<?xml version="1.0" encoding="utf-8"?>
<!-- Generator: Adobe Illustrator 25.0.1, SVG Export Plug-In . SVG Version: 6.00 Build 0)  -->
<svg version="1.1" id="Ebene_1" xmlns="http://www.w3.org/2000/svg" xmlns:xlink="http://www.w3.org/1999/xlink" x="0px" y="0px"
	 viewBox="0 0 16 16" enable-background="new 0 0 16 16" xml:space="preserve">
<g fill="currentColor">
	<rect x="5" y="7" width="6" height="1"/>
	<rect x="5" y="5" width="6" height="1"/>
	<path d="M13,4.6V3h-2.2L8,1L5.2,3H3v1.6L1,6v8.5C1,14.8,1.2,15,1.5,15h13c0.3,0,0.5-0.2,0.5-0.5V6L13,4.6z M8,2.2L9.1,3H6.9L8,2.2z
		 M12,4v4.1L10.8,9H5.2L4,8.1V4H12z M9.4,10L8,11l-1.4-1H9.4z M2,6.5l1-0.7v1.6L2,6.7V6.5z M2,7.9l3.5,2.5L2,14V7.9z M3.4,14
		l2.9-2.9L8,12.2L9.6,11l3,3H3.4z M14,14l-3.5-3.5L14,7.9V14z M14,6.7l-1,0.7V5.8l1,0.7V6.7z"/>
</g>
</svg>
