<svg xmlns="http://www.w3.org/2000/svg" viewBox="0 0 16 16">
<g>
	<path d="M14,3v8H9H8.723l-0.238,0.143L5,13.234V12v-1H4H2V3H14 M1.6,2C1.269,2,1,2.269,1,2.6v8.9C1,11.776,1.224,12,1.5,12H4v3l5-3
		h5.5c0.276,0,0.5-0.224,0.5-0.5v-9C15,2.224,14.776,2,14.5,2H1.6z"/>
	<rect x="3" y="8" width="5" height="1"/>
	<rect x="3" y="4" width="5" height="1"/>
	<rect x="3" y="6" width="5" height="1"/>
	<path d="M12.938,5.671l-0.873,0.892l0.207,1.26c0.002,0.018,0.002,0.033,0.002,0.05C12.274,7.94,12.245,8,12.175,8
		c-0.034,0-0.067-0.012-0.096-0.03L11,7.375L9.921,7.97C9.889,7.988,9.858,8,9.825,8c-0.07,0-0.101-0.06-0.101-0.126
		c0-0.018,0.002-0.033,0.005-0.05l0.207-1.26L9.06,5.671C9.031,5.638,9,5.596,9,5.55c0-0.076,0.075-0.106,0.135-0.116l1.207-0.184
		l0.541-1.147C10.904,4.055,10.945,4,11,4s0.096,0.055,0.118,0.103l0.541,1.147l1.207,0.184C12.923,5.444,13,5.474,13,5.55
		C13,5.596,12.969,5.638,12.938,5.671z"/>
</g>
</svg>