<svg xmlns="http://www.w3.org/2000/svg" version="1.1" viewBox="0 0 16 16">
<g fill="currentColor">
  <path d="M4.0337918,2.6707996c1.6062867,1.2019647,3.3335952,3.6444007,3.9662082,4.9563849.632613-1.309234,2.3599211-3.7516698,3.9662086-4.956385,1.1579569-.8691552,3.0337914-1.540275,3.0337914.5996072,0,.4263261-.2447935,3.589391-.3878194,4.1037327-.5005889,1.7823184-2.3214144,2.2389001-3.9414535,1.9611003,2.8302552.481336,3.5508843,2.0766208,1.9941061,3.6719057-2.9540273,3.0310416-4.2440084-.7591357-4.5740673-1.7300588h0c-.0467587-.1347739-.0715129-.214538-.0907663-.214538s-.044008.0825147-.0907663.214538h0c-.3300589.970923-1.6227898,4.7611004-4.5740669,1.7300588-1.5540275-1.5952849-.8361494-3.1905697,1.9941061-3.6719057-1.6200387.2777998-3.4408639-.1787819-3.9387028-1.9638505-.145776-.5143422-.3905697-3.6774068-.3905697-4.1037329,0-2.1398822,1.8758349-1.4687623,3.0337918-.5996071v.0027504Z"/>
</g>
</svg>
