<?xml version="1.0" encoding="utf-8"?>
<!-- Generator: Adobe Illustrator 19.1.0, SVG Export Plug-In . SVG Version: 6.00 Build 0)  -->
<svg version="1.1" xmlns="http://www.w3.org/2000/svg" xmlns:xlink="http://www.w3.org/1999/xlink" x="0px" y="0px"
	 viewBox="0 0 16 16" enable-background="new 0 0 16 16" xml:space="preserve">
<g class="icon-color">
	<path d="M10.5,2.551v1.711c1.205,0.808,2,2.182,2,3.738c0,2.481-2.019,4.5-4.5,4.5S3.5,10.481,3.5,8c0-1.557,0.795-2.93,2-3.738
		V2.551C3.436,3.499,2,5.58,2,8c0,3.314,2.686,6,6,6s6-2.686,6-6C14,5.58,12.564,3.499,10.5,2.551z"/>
	<path d="M8.5,7h-1C7.224,7,7,6.776,7,6.5v-5C7,1.224,7.224,1,7.5,1h1C8.776,1,9,1.224,9,1.5v5C9,6.776,8.776,7,8.5,7z"/>
</g>
</svg>
