<?xml version="1.0" encoding="utf-8"?>
<!-- Generator: Adobe Illustrator 27.0.1, SVG Export Plug-In . SVG Version: 6.00 Build 0)  -->
<svg version="1.1" id="Ebene_1" xmlns="http://www.w3.org/2000/svg" xmlns:xlink="http://www.w3.org/1999/xlink" x="0px" y="0px"
	 viewBox="0 0 16 16" enable-background="new 0 0 16 16" xml:space="preserve">
<g fill="currentColor">
	<rect x="7" y="12.0003147" width="2" height="4"/>
	<path d="M7.8234067,9.176897l-2.3965974,2.3964462c-0.1574988,0.1574898-0.045959,0.4267826,0.1767712,0.4267826h4.7928934
		c0.2227221,0,0.3342657-0.2692776,0.1767817-0.4267712L8.17696,9.1769085
		C8.0793324,9.0792742,7.921041,9.0792694,7.8234067,9.176897z"/>
	<path d="M13.8289795,8.1799927c0,0-0.4349976-0.1790161-0.8789673-0.1790161c0.1170044-0.4559937,0-1.0009766,0-1.0009766
		C12.7189941,5.8590088,11.710022,5,10.5,5c-0.4550171,0-0.882019,0.1220093-1.25,0.335022C8.6090088,4.5219727,7.6149902,4,6.5,4
		C4.7210083,4,3.2529907,5.3270264,3.0289917,7.0440063C1.8740234,7.2639771,1,8.2800293,1,9.5C1,10.8809814,2.1190186,12,3.5,12
		h0.8916016c-0.072998-0.3527222,0.0090942-0.711792,0.2290039-1H3.5C2.6719971,11,2,10.3280029,2,9.5
		c0-0.7230225,0.5159912-1.3400269,1.21698-1.4730225l0.7109985-0.1359863l0.0930176-0.7180176
		C4.1820068,5.9370117,5.2410278,5,6.5,5c0.7769775,0,1.492981,0.3549805,1.9650269,0.9539795l0.5359497,0.6799927l0.75-0.43396
		C9.9760132,6.0700073,10.2319946,6,10.5,6C11.3280029,6,12,6.6719971,12,7.5c0,0.1030273-0.0100098,0.2030029-0.0300293,0.3010254
		l-0.25,1.2299805L12.973999,9C12.9869995,9,12.9869995,9,13,9c0.552002,0,1,0.447998,1,1s-0.447998,1-1,1h-1.6205444
		c0.2198486,0.288147,0.3019409,0.6472778,0.2290039,1H13c1.1049805,0,2-0.8950195,2-2
		C15,9.190979,14.5200195,8.4940186,13.8289795,8.1799927z"/>
</g>
</svg>
