<svg xmlns="http://www.w3.org/2000/svg" version="1.1" viewBox="0 0 16 16">
<g fill="currentColor">
	<path d="M5.0970812,3.9297755c-0.0643797,0.3509543-0.0970807,0.7087429-0.0970807,1.070224
		c0,3.3084102,2.6915898,5.9999995,6.0000005,5.9999995c0.3614807,0,0.7192698-0.0327005,1.0702238-0.0970802
		c-0.9123268,1.2820168-2.4076214,2.0970802-4.0702238,2.0970802c-2.7570105,0-5.0000005-2.2429895-5.0000005-4.9999995
		C3.0000005,6.3373961,3.8150647,4.8421021,5.0970812,3.9297755 M6.9409804,2.0989995
		c-2.8077397,0.5009201-4.94098,2.9492798-4.94098,5.901c0,3.3137202,2.6862798,5.9999995,6.0000005,5.9999995
		c2.9517193,0,5.4000797-2.1332397,5.9009991-4.94098c-0.8193998,0.5868502-1.8162794,0.94098-2.9009991,0.94098
		c-2.7614107,0-5.0000005-2.2385898-5.0000005-4.9999995C6.0000005,3.9152796,6.3541303,2.9183996,6.9409804,2.0989995
		L6.9409804,2.0989995z"/>
</g>
</svg>
