<svg xmlns="http://www.w3.org/2000/svg" version="1.1" viewBox="0 0 16 16">
<g fill="currentColor">
	<path d="M13.746,12.334C13.745,12.334,13.745,12.333,13.746,12.334c-0.106-0.12-0.157-0.342-0.211-0.579
		c-0.054-0.236-0.115-0.491-0.309-0.657c0,0-0.001-0.001-0.001-0.001c-0.038-0.034-0.078-0.062-0.118-0.086
		c-0.04-0.024-0.08-0.043-0.121-0.058c0.27-0.8,0.164-1.597-0.108-2.317c-0.334-0.884-0.918-1.654-1.363-2.18
		c-0.499-0.629-0.987-1.227-0.977-2.109c0.015-1.347,0.148-3.844-2.222-3.847c-0.096,0-0.197,0.004-0.302,0.012
		C5.365,0.725,6.068,3.523,6.028,4.46C5.98,5.145,5.841,5.685,5.37,6.355C4.816,7.013,4.037,8.078,3.668,9.188
		c-0.174,0.523-0.257,1.057-0.181,1.562c-0.024,0.022-0.047,0.044-0.069,0.067C3.256,10.99,3.136,11.2,3.002,11.342
		c-0.125,0.125-0.303,0.172-0.499,0.242c-0.196,0.07-0.411,0.174-0.541,0.424c0,0,0,0,0,0c0,0,0,0.001-0.001,0.001
		C1.9,12.124,1.88,12.248,1.88,12.373c0,0.116,0.017,0.233,0.034,0.347c0.036,0.235,0.073,0.458,0.024,0.609
		c-0.155,0.424-0.175,0.717-0.066,0.929c0.109,0.213,0.334,0.307,0.588,0.36c0.508,0.106,1.196,0.08,1.738,0.367l0.047-0.088
		L4.2,14.985c0.581,0.304,1.169,0.411,1.639,0.304c0.341-0.078,0.617-0.28,0.759-0.592c0.367-0.002,0.77-0.157,1.416-0.193
		c0.438-0.035,0.985,0.156,1.615,0.121c0.016,0.068,0.04,0.134,0.073,0.196c0,0.001,0.001,0.001,0.001,0.002
		c0.244,0.488,0.697,0.711,1.18,0.673c0.484-0.038,0.998-0.323,1.414-0.818l-0.076-0.064l0.077,0.063
		c0.396-0.481,1.054-0.68,1.49-0.943c0.218-0.132,0.395-0.296,0.409-0.535C14.209,12.96,14.068,12.692,13.746,12.334z M7.894,3.54
		C7.892,3.364,7.921,3.213,7.989,3.06C8.057,2.906,8.14,2.796,8.258,2.707c0.118-0.09,0.234-0.131,0.371-0.132h0.006
		c0.134,0,0.249,0.039,0.367,0.125c0.12,0.087,0.206,0.196,0.276,0.348C9.347,3.196,9.38,3.341,9.383,3.513
		c0,0.005,0,0.008,0.001,0.013c0.001,0.176-0.029,0.327-0.096,0.48C9.25,4.093,9.206,4.167,9.154,4.23
		C9.136,4.222,9.117,4.213,9.098,4.206C9.032,4.177,8.973,4.154,8.92,4.134C8.867,4.114,8.826,4.1,8.783,4.085
		c0.031-0.037,0.091-0.081,0.114-0.136c0.034-0.083,0.051-0.164,0.054-0.261c0-0.004,0.001-0.007,0.001-0.012
		c0.002-0.093-0.01-0.172-0.037-0.253C8.887,3.338,8.851,3.277,8.799,3.226C8.747,3.175,8.694,3.152,8.632,3.15
		c-0.003,0-0.006,0-0.009,0c-0.059,0-0.11,0.02-0.163,0.065C8.405,3.261,8.364,3.32,8.33,3.403C8.296,3.485,8.279,3.567,8.276,3.664
		C8.275,3.668,8.275,3.672,8.275,3.675c-0.001,0.053,0.002,0.102,0.011,0.15c-0.12-0.06-0.274-0.104-0.381-0.129
		C7.899,3.65,7.895,3.603,7.894,3.553V3.54z M6.283,3.579C6.275,3.427,6.29,3.296,6.332,3.161C6.374,3.026,6.43,2.928,6.511,2.847
		c0.081-0.081,0.163-0.121,0.262-0.126c0.008,0,0.015-0.001,0.023-0.001c0.089,0,0.169,0.03,0.252,0.096
		c0.09,0.072,0.157,0.163,0.214,0.292c0.057,0.129,0.087,0.258,0.095,0.41v0.001C7.36,3.583,7.36,3.643,7.355,3.701
		C7.337,3.707,7.32,3.712,7.303,3.718C7.207,3.751,7.13,3.788,7.057,3.836c0.007-0.051,0.008-0.103,0.003-0.161
		C7.059,3.672,7.059,3.67,7.059,3.667C7.051,3.59,7.035,3.526,7.008,3.461C6.979,3.393,6.946,3.345,6.904,3.308
		C6.865,3.275,6.829,3.26,6.789,3.26c-0.004,0-0.008,0-0.012,0.001C6.731,3.265,6.694,3.287,6.658,3.33
		C6.623,3.373,6.6,3.426,6.583,3.497c-0.017,0.071-0.021,0.14-0.014,0.22c0,0.003,0.001,0.006,0.001,0.009
		C6.577,3.804,6.593,3.868,6.62,3.933C6.649,4,6.682,4.048,6.724,4.085c0.007,0.006,0.014,0.012,0.021,0.017
		C6.701,4.136,6.672,4.16,6.635,4.186C6.612,4.203,6.584,4.224,6.552,4.247C6.482,4.182,6.427,4.099,6.379,3.99
		C6.323,3.861,6.293,3.733,6.283,3.58V3.579z M6.4,4.502c0.14-0.105,0.237-0.176,0.302-0.224c0.064-0.047,0.091-0.065,0.112-0.085
		c0,0,0,0,0,0l0,0c0.105-0.1,0.273-0.281,0.525-0.368c0.087-0.03,0.184-0.049,0.293-0.05C7.84,3.775,8.089,3.843,8.391,4.037
		c0.186,0.121,0.33,0.131,0.662,0.273l0.001,0l0,0c0.16,0.066,0.254,0.151,0.3,0.241c0.046,0.09,0.047,0.188,0.009,0.29
		C9.286,5.047,9.041,5.264,8.697,5.371l0,0l0,0C8.529,5.426,8.382,5.546,8.21,5.645C8.037,5.743,7.842,5.823,7.577,5.807
		c-0.113-0.007-0.203-0.029-0.28-0.062C7.219,5.712,7.155,5.669,7.094,5.62C6.972,5.522,6.866,5.398,6.71,5.307l-0.001,0l0,0
		C6.459,5.164,6.322,5,6.279,4.858C6.236,4.716,6.276,4.595,6.4,4.502z M6.499,14.279v0.001c-0.036,0.468-0.299,0.722-0.704,0.815
		c-0.405,0.092-0.954,0-1.502-0.286c0,0,0,0-0.001,0c-0.606-0.321-1.328-0.289-1.791-0.386c-0.231-0.048-0.382-0.121-0.452-0.256
		c-0.069-0.135-0.071-0.371,0.076-0.772l0.001-0.002l0.001-0.002c0.073-0.225,0.019-0.471-0.016-0.701
		c-0.035-0.231-0.053-0.441,0.026-0.587l0.001-0.001c0.101-0.194,0.249-0.264,0.432-0.33c0.184-0.066,0.402-0.118,0.573-0.29
		l0.001-0.001l0.001-0.001c0.159-0.168,0.278-0.378,0.418-0.527c0.118-0.126,0.236-0.209,0.414-0.211c0.002,0,0.004,0,0.006,0
		c0.031,0,0.064,0.003,0.099,0.008c0.236,0.036,0.442,0.201,0.64,0.47l0.572,1.043l0,0.001l0,0c0.152,0.318,0.474,0.668,0.747,1.025
		c0.273,0.357,0.484,0.715,0.456,0.989L6.499,14.279z M6.451,13.521c-0.075-0.119-0.161-0.236-0.25-0.352
		c-0.057-0.074-0.115-0.148-0.173-0.221c0.114,0,0.21-0.019,0.289-0.054c0.097-0.044,0.165-0.115,0.199-0.206
		c0.067-0.182,0-0.438-0.217-0.731c-0.216-0.293-0.583-0.623-1.121-0.953c0,0,0,0,0,0c-0.396-0.246-0.617-0.547-0.72-0.875
		C4.355,9.802,4.369,9.447,4.449,9.098c0.153-0.671,0.547-1.324,0.798-1.733c0.067-0.05,0.024,0.092-0.254,0.609
		c-0.249,0.473-0.716,1.563-0.077,2.414C4.933,9.782,5.077,9.165,5.32,8.587c0.354-0.802,1.094-2.192,1.152-3.301
		c0.03,0.022,0.135,0.092,0.181,0.119c0,0,0,0,0,0c0.136,0.08,0.238,0.197,0.37,0.303C7.156,5.814,7.321,5.906,7.571,5.92
		c0.024,0.001,0.047,0.002,0.07,0.002c0.257,0,0.458-0.084,0.625-0.18c0.182-0.104,0.327-0.219,0.464-0.264c0,0,0,0,0.001,0
		C9.022,5.388,9.253,5.227,9.384,5.04c0.226,0.89,0.751,2.177,1.089,2.804c0.18,0.333,0.537,1.04,0.691,1.893
		c0.098-0.003,0.205,0.011,0.321,0.041c0.403-1.046-0.342-2.172-0.683-2.486c-0.138-0.134-0.144-0.193-0.076-0.191
		c0.37,0.327,0.855,0.985,1.032,1.727c0.081,0.338,0.098,0.695,0.011,1.046c0.042,0.017,0.085,0.037,0.129,0.057
		c0.647,0.315,0.887,0.589,0.772,0.964c-0.038-0.001-0.075-0.001-0.112,0c-0.003,0-0.007,0-0.01,0
		c0.094-0.297-0.114-0.515-0.667-0.766c-0.574-0.252-1.031-0.228-1.109,0.285c-0.005,0.027-0.009,0.054-0.012,0.082
		c-0.043,0.015-0.086,0.034-0.129,0.058c-0.269,0.148-0.417,0.415-0.499,0.744c-0.082,0.328-0.105,0.724-0.128,1.17c0,0,0,0,0,0
		c-0.014,0.224-0.106,0.527-0.2,0.848C8.864,13.987,7.559,14.277,6.451,13.521z M13.684,13.564c-0.395,0.238-1.094,0.445-1.54,0.986
		c-0.388,0.461-0.861,0.715-1.277,0.748c-0.416,0.033-0.776-0.14-0.987-0.565l0-0.001L9.878,14.73
		c-0.132-0.25-0.077-0.644,0.034-1.061c0.111-0.416,0.27-0.843,0.291-1.19v-0.001c0.022-0.445,0.047-0.833,0.122-1.133
		c0.075-0.3,0.193-0.503,0.401-0.617c0.01-0.005,0.019-0.01,0.029-0.015c0.024,0.385,0.214,0.778,0.552,0.863
		c0.369,0.097,0.901-0.219,1.125-0.478c0.045-0.002,0.089-0.004,0.131-0.005c0.197-0.005,0.362,0.007,0.531,0.154l0.001,0l0.001,0
		c0.13,0.11,0.191,0.318,0.245,0.55c0.054,0.233,0.096,0.486,0.257,0.667l0,0l0,0c0.308,0.342,0.408,0.573,0.399,0.721
		C13.988,13.335,13.881,13.445,13.684,13.564z"/>
	<path d="M8.482,5.059C8.208,5.201,7.889,5.374,7.549,5.374c-0.34,0-0.608-0.157-0.801-0.31C6.651,4.988,6.573,4.912,6.514,4.857
		c-0.103-0.081-0.09-0.194-0.048-0.191c0.071,0.009,0.081,0.102,0.126,0.143c0.06,0.056,0.136,0.129,0.227,0.202
		c0.183,0.145,0.426,0.285,0.731,0.285c0.304,0,0.659-0.179,0.876-0.3C8.548,4.927,8.704,4.803,8.832,4.71
		c0.098-0.072,0.094-0.158,0.175-0.148C9.087,4.57,9.027,4.657,8.915,4.755C8.802,4.853,8.625,4.984,8.482,5.059z"/>
	<path d="M7.803,4.065c0.011,0.036,0.07,0.03,0.104,0.048c0.03,0.015,0.054,0.049,0.087,0.05C8.026,4.164,8.075,4.152,8.079,4.12
		c0.005-0.042-0.055-0.068-0.095-0.084c-0.05-0.02-0.115-0.03-0.162-0.003C7.811,4.039,7.8,4.053,7.803,4.065L7.803,4.065z"/>
	<path d="M7.458,4.065c-0.011,0.036-0.07,0.03-0.104,0.048c-0.03,0.015-0.054,0.049-0.087,0.05C7.235,4.164,7.186,4.152,7.182,4.12
		C7.176,4.078,7.237,4.052,7.276,4.037c0.05-0.02,0.115-0.03,0.162-0.003C7.45,4.039,7.461,4.053,7.458,4.065L7.458,4.065z"/>
</g>
</svg>
