<svg xmlns="http://www.w3.org/2000/svg" viewBox="0 0 16 16">
<g>
	<path d="M13.7,3.2l-1.9-1.9C11.6,1.1,11.4,1,11.1,1H2.5C2.2,1,2,1.2,2,1.5v13C2,14.8,2.2,15,2.5,15h11c0.3,0,0.5-0.2,0.5-0.5V5V4
		V3.9C14,3.6,13.9,3.4,13.7,3.2z M13,14H3V2h7v2.5C10,4.8,10.2,5,10.5,5H13V14z M11,4V2l2,2H11z"/>
	<path d="M12,10.2c0-0.1-0.1-0.1-0.1-0.2c-0.2-0.2-0.5-0.2-1.1-0.2c-0.4,0-0.8,0-1.3,0.1C9.3,9.7,9.1,9.6,9,9.4
		C8.5,9,8.1,8.4,7.9,7.8c0-0.1,0-0.1,0-0.2c0,0,0.3-1.4,0.2-1.9c0-0.1,0-0.1,0-0.1l0-0.1C8,5.3,7.9,5.2,7.7,5.2l-0.1,0l0,0
		C7.3,5.2,7.1,5.3,7,5.5C6.9,6,7.1,6.9,7.3,8L7.3,8.2c-0.2,0.5-0.5,1-0.7,1.5l0,0.1c-0.2,0.5-0.5,0.9-0.7,1.2L5.7,11
		c0,0-0.4,0.2-0.4,0.2c-0.7,0.4-1.2,0.9-1.2,1.3c0,0.1,0,0.3,0.1,0.3l0.2,0.1C4.4,13,4.5,13,4.6,13c0.5,0,1.1-0.6,1.9-2
		c0.9-0.3,2-0.5,2.9-0.7c0.7,0.4,1.5,0.7,2.1,0.7c0.1,0,0.2,0,0.2,0c0.1,0,0.2-0.1,0.2-0.2C12,10.6,12,10.4,12,10.2z M4.5,12.6
		c0.1-0.2,0.4-0.7,1-1.2c0,0,0.1-0.1,0.2-0.2C5.1,12.2,4.7,12.5,4.5,12.6z M7.6,5.4c0.2,0,0.2,0.4,0.3,0.8c0,0.4-0.1,0.6-0.2,0.8
		C7.6,6.7,7.5,6.3,7.5,6C7.5,6,7.5,5.4,7.6,5.4z M6.7,10.6c0.1-0.2,0.2-0.4,0.3-0.6c0.3-0.5,0.5-1,0.6-1.3c0.3,0.5,0.6,0.9,1,1.2
		c0,0,0.1,0.1,0.2,0.1C8,10.1,7.3,10.3,6.7,10.6z M11.7,10.5c0,0-0.2,0-0.3,0c-0.3,0-0.6-0.1-1.1-0.3c0.2,0,0.4,0,0.5,0
		c0.3,0,0.4,0,0.7,0.1S11.8,10.5,11.7,10.5z"/>
</g>
</svg>