<?xml version="1.0" encoding="utf-8"?>
<!-- Generator: Adobe Illustrator 25.4.1, SVG Export Plug-In . SVG Version: 6.00 Build 0)  -->
<svg version="1.1" xmlns="http://www.w3.org/2000/svg" xmlns:xlink="http://www.w3.org/1999/xlink" x="0px" y="0px"
	 viewBox="0 0 16 16" enable-background="new 0 0 16 16" xml:space="preserve">
<g fill="currentColor">
	<path d="M5.9,6.4C6.1,6.6,6.3,7,6.3,7.5c0,1.2-1,2-2.4,2c-0.4,0-0.7,0-0.9-0.1L2.7,9.9L3.8,10c1.9,0.1,3.1,0.2,3.1,1.7
		c0,1.3-1.1,2-3.1,2c-2,0-2.8-0.5-2.8-1.4c0-0.5,0.2-0.8,0.6-1.1c-0.4-0.2-0.5-0.4-0.5-0.7c0-0.2,0.1-0.5,0.3-0.7
		C1.6,9.5,1.9,9.3,2.1,9c-0.5-0.3-1-0.8-1-1.7c0-1.3,0.8-2.2,2.5-2.2c0.5,0,0.8,0,1,0.1h2.2v0.9L5.9,6.4z M2.6,11.4
		c-0.1,0.2-0.3,0.4-0.3,0.6c0,0.4,0.6,0.6,1.3,0.6c0.6,0,1.5,0,1.5-0.6c0-0.4-0.4-0.4-1-0.4L2.6,11.4z M3.8,6.3
		c-0.6,0-1.1,0.3-1.1,1c0,0.5,0.3,0.9,1,0.9c0.6,0,1-0.4,1-0.9C4.8,6.7,4.5,6.3,3.8,6.3z"/>
	<path d="M7.4,11v-0.9L8,10.1c0.2,0,0.2-0.1,0.2-0.2V6.6c0-0.1,0-0.2-0.1-0.2L7.4,6.1l0.1-0.9h2.3v4.6c0,0.2,0,0.2,0.2,0.2l0.6,0.1
		V11H7.4z M8.9,4.3c-0.6,0-1-0.4-1-1c0-0.6,0.4-1,1-1c0.6,0,1,0.3,1,1C9.9,4,9.5,4.3,8.9,4.3z"/>
	<path d="M15,10.6c-0.5,0.2-1.2,0.4-1.8,0.4c-1.3,0-1.8-0.5-1.8-1.8V6.3c0-0.1,0-0.1-0.1-0.1h-0.8v-1c1-0.1,1.4-0.6,1.5-1.8H13V5
		c0,0.1,0,0.1,0.1,0.1h1.6v1.1H13v2.7c0,0.7,0.2,0.9,0.8,0.9c0.3,0,0.6-0.1,0.9-0.2L15,10.6z"/>
</g>
</svg>
