<svg xmlns="http://www.w3.org/2000/svg" viewBox="0 0 16 16">
<g class="icon-color">
	<path d="M13.5,3H12V1.5C12,1.224,11.776,1,11.5,1h-2C9.224,1,9,1.224,9,1.5V3H6V1.5C6,1.224,5.776,1,5.5,1h-2
		C3.224,1,3,1.224,3,1.5V3H1.5C1.224,3,1,3.224,1,3.5v11C1,14.776,1.224,15,1.5,15h12c0.276,0,0.5-0.224,0.5-0.5v-11
		C14,3.224,13.776,3,13.5,3z M10,2h1v2h-1V2z M4,2h1v2H4V2z M4.25,14H2v-2.25h2.25V14z M4.25,11.25H2v-2.5h2.25V11.25z M4.25,8.25H2
		V6h2.25V8.25z M7.25,14h-2.5v-2.25h2.5V14z M7.25,11.25h-2.5v-2.5h2.5V11.25z M7.25,8.25h-2.5V6h2.5V8.25z M10.25,14h-2.5v-2.25
		h2.5V14z M10.25,11.25h-2.5v-2.5h2.5V11.25z M10.25,8.25h-2.5V6h2.5V8.25z M13,14h-2.25v-2.25H13V14z M13,11.25h-2.25v-2.5H13
		V11.25z M13,8.25h-2.25V6H13V8.25z"/>
</g>
</svg>