<?xml version="1.0" encoding="utf-8"?>
<!-- Generator: Adobe Illustrator 24.0.2, SVG Export Plug-In . SVG Version: 6.00 Build 0)  -->
<svg version="1.1" id="Ebene_1" xmlns="http://www.w3.org/2000/svg" xmlns:xlink="http://www.w3.org/1999/xlink" x="0px" y="0px"
	 viewBox="0 0 16 16" enable-background="new 0 0 16 16" xml:space="preserve">
<g class="icon-color">
	<path d="M2,4c5.514,0,10,4.486,10,10h2C14,7.372,8.628,2,2,2V4z"/>
	<path d="M2,8c3.308,0,6,2.692,6,6h2c0-4.418-3.582-8-8-8V8z"/>
	<path d="M3.5,14L3.5,14C2.672,14,2,13.328,2,12.5l0,0C2,11.672,2.672,11,3.5,11l0,0C4.328,11,5,11.672,5,12.5l0,0
		C5,13.328,4.328,14,3.5,14z"/>
</g>
</svg>
