<?xml version="1.0" encoding="UTF-8" standalone="no"?>
<svg width="16px" height="16px" viewBox="0 0 16 16" version="1.1" xmlns="http://www.w3.org/2000/svg" xmlns:xlink="http://www.w3.org/1999/xlink" xmlns:sketch="http://www.bohemiancoding.com/sketch/ns">
    <!-- Generator: Sketch 3.3.3 (12072) - http://www.bohemiancoding.com/sketch -->
    <title>actions-system-extension-documentation-v10</title>
    <desc>Created with Sketch.</desc>
    <defs></defs>
    <g class="icon-color">
        <path d="M13.5,1 L2.5,1 C2.229,1 2,1.223 2,1.498 L2,14.502 C2,14.78 2.224,15 2.5,15 L13.5,15 C13.771,15 14,14.777 14,14.502 L14,1.498 C14,1.22 13.776,1 13.5,1 L13.5,1 Z M3,2 L4,2 L4,14 L3,14 L3,2 Z M5,2 L13,2 L13,14 L5,14 L5,2 Z M6,3 L12,3 L12,4 L6,4 L6,3 Z"></path>
    </g>
</svg>