<?xml version="1.0" encoding="UTF-8" standalone="no"?>
<svg width="16px" height="16px" viewBox="0 0 16 16" version="1.1" xmlns="http://www.w3.org/2000/svg" xmlns:xlink="http://www.w3.org/1999/xlink" xmlns:sketch="http://www.bohemiancoding.com/sketch/ns">
    <!-- Generator: Sketch 3.3.3 (12072) - http://www.bohemiancoding.com/sketch -->
    <title>actions-online-media-add</title>
    <desc>Created with Sketch.</desc>
    <defs></defs>
    <g class="icon-color" fill-rule="evenodd">
        <path d="M12,6.5 L12,6.5 C12,5.67157288 11.3284271,5 10.5,5 C10.2319102,5 9.97633017,5.06953786 9.75064632,5.20010742 L9.00094763,5.63384618 L8.46463739,4.9537368 C7.99253958,4.35505691 7.27653106,4 6.5,4 C5.24069145,4 4.18181392,4.93700483 4.02105634,6.17318236 L3.9276952,6.89110155 L3.21651696,7.02656298 C2.5159118,7.1600105 2,7.77695044 2,8.5 C2,9.32842712 2.67157288,10 3.5,10 L13,10 C13.5522847,10 14,9.55228475 14,9 C14,8.44771525 13.5522847,8 13,8 C12.9871839,8.00005264 12.9871839,8.00005264 12.9744615,8.00031357 L11.7199546,8.03117844 L11.9699029,6.80143614 C11.989839,6.70335056 12,6.60262958 12,6.5 L12,6.5 Z M12.9498658,7.00061609 C13.3937378,7.00061607 13.8287528,7.1792521 13.8287528,7.1792521 C14.5197216,7.4942678 15,8.19104639 15,9 C15,10.1045695 14.1045695,11 13,11 L3.5,11 C2.11928813,11 1,9.88071187 1,8.5 C1,7.2801536 1.87366729,6.26436312 3.02940631,6.04422414 C3.25277711,4.32656978 4.72147007,3 6.5,3 C7.61540484,3 8.60894554,3.52176241 9.24986718,4.33453232 C9.61761391,4.12177218 10.0445862,4 10.5,4 C11.709629,4 12.7186061,4.85909299 12.9500771,6.00042477 C12.9500771,6.00042477 13.0673828,6.54486084 12.9498658,7.00061609 Z"></path>
    </g>
</svg>