<?xml version="1.0" encoding="utf-8"?>
<!-- Generator: Adobe Illustrator 25.0.0, SVG Export Plug-In . SVG Version: 6.00 Build 0)  -->
<svg version="1.1" xmlns="http://www.w3.org/2000/svg" xmlns:xlink="http://www.w3.org/1999/xlink" x="0px" y="0px"
	 viewBox="0 0 16 16" enable-background="new 0 0 16 16" xml:space="preserve">
<g class="icon-color">
	<path d="M6.1,1C5.4,1,4.7,1.6,4.7,2.4s0.6,1.4,1.4,1.4l0,0h1.4V2.4C7.5,1.6,6.9,1,6.1,1 M6.1,4.7H2.4C1.6,4.7,1,5.4,1,6.1
		c0,0.8,0.6,1.4,1.4,1.4h3.7c0.8,0,1.4-0.6,1.4-1.4C7.5,5.4,6.9,4.7,6.1,4.7"/>
	<path d="M15,6.1c0-0.8-0.6-1.4-1.4-1.4s-1.4,0.6-1.4,1.4v1.4h1.4C14.4,7.5,15,6.9,15,6.1 M11.3,6.1V2.4c0-0.8-0.6-1.4-1.4-1.4
		C9.1,1,8.5,1.6,8.5,2.4v3.7c0,0.8,0.6,1.4,1.4,1.4C10.6,7.5,11.3,6.9,11.3,6.1"/>
	<path d="M9.9,15c0.8,0,1.4-0.6,1.4-1.4c0-0.8-0.6-1.4-1.4-1.4H8.5v1.4C8.5,14.4,9.1,15,9.9,15 M9.9,11.3h3.7c0.8,0,1.4-0.6,1.4-1.4
		c0-0.8-0.6-1.4-1.4-1.4H9.9c-0.8,0-1.4,0.6-1.4,1.4C8.5,10.6,9.1,11.3,9.9,11.3L9.9,11.3"/>
	<path d="M1,9.9c0,0.8,0.6,1.4,1.4,1.4l0,0c0.8,0,1.4-0.6,1.4-1.4V8.5H2.4C1.6,8.5,1,9.1,1,9.9 M4.7,9.9v3.7c0,0.8,0.6,1.4,1.4,1.4
		s1.4-0.6,1.4-1.4V9.9c0-0.8-0.6-1.4-1.4-1.4l0,0C5.4,8.5,4.7,9.1,4.7,9.9"/>
</g>
</svg>
