<svg xmlns="http://www.w3.org/2000/svg" viewBox="0 0 16 16">
<g class="icon-color">
	<path d="M14,2c-1.333,1.667-2.667,3.333-4,5c0,2.28,0,4.56,0,6.84l-4-2.56V7L2,2C6,2,10,2,14,2 M14,1H2
		C1.616,1,1.265,1.22,1.099,1.567c-0.167,0.346-0.12,0.758,0.12,1.058L5,7.351v3.929c0,0.341,0.174,0.658,0.461,0.842l4,2.56
		C9.625,14.787,9.812,14.84,10,14.84c0.165,0,0.33-0.041,0.48-0.123C10.801,14.542,11,14.205,11,13.84V7.351l1.781-2.226l2-2.5
		c0.24-0.3,0.287-0.711,0.12-1.058C14.735,1.22,14.384,1,14,1L14,1z"/>
</g>
</svg>