<?xml version="1.0" encoding="utf-8"?>
<!-- Generator: Adobe Illustrator 22.1.0, SVG Export Plug-In . SVG Version: 6.00 Build 0)  -->
<svg version="1.1" id="Ebene_2_1_" xmlns="http://www.w3.org/2000/svg" xmlns:xlink="http://www.w3.org/1999/xlink" x="0px" y="0px"
	 viewBox="0 0 16 16" enable-background="new 0 0 16 16" xml:space="preserve">
<g class="icon-color">
	<path d="M12.5,2H9.4C9.2,1.4,8.7,1,8,1S6.8,1.4,6.6,2H3.5C3.2,2,3,2.2,3,2.5v12C3,14.8,3.2,15,3.5,15h9c0.3,0,0.5-0.2,0.5-0.5v-12
		C13,2.2,12.8,2,12.5,2z M8,1.8c0.4,0,0.8,0.3,0.8,0.8S8.4,3.3,8,3.3S7.3,2.9,7.3,2.5S7.6,1.8,8,1.8z M12,14H4V3h1v0.5
		C5,3.8,5.2,4,5.5,4h5C10.8,4,11,3.8,11,3.5V3h1V14z"/>
</g>
</svg>
