<svg xmlns="http://www.w3.org/2000/svg" viewBox="0 0 16 16">
<g>
	<rect x="10" y="12" width="1" height="1"/>
	<rect x="12" y="12" width="1" height="1"/>
	<rect x="10" y="7" width="1" height="1"/>
	<rect x="12" y="7" width="1" height="1"/>
	<rect x="10" y="3" width="1" height="1"/>
	<rect x="12" y="3" width="1" height="1"/>
	<path d="M14.5,1h-13C1.224,1,1,1.224,1,1.5v13C1,14.776,1.224,15,1.5,15h13c0.276,0,0.5-0.224,0.5-0.5v-13
		C15,1.224,14.776,1,14.5,1z M14,14H2v-4h12V14z M14,9H2V6h12V9z M2,5V2h12v3H2z"/>
</g>
</svg>