<?xml version="1.0" encoding="utf-8"?>
<!-- Generator: Adobe Illustrator 27.0.1, SVG Export Plug-In . SVG Version: 6.00 Build 0)  -->
<svg version="1.1" xmlns="http://www.w3.org/2000/svg" xmlns:xlink="http://www.w3.org/1999/xlink" x="0px" y="0px"
	 viewBox="0 0 16 16" enable-background="new 0 0 16 16">
<g fill="currentColor">
	<path d="M12.5007935,10c-0.6522217,0-1.2015991,0.4187622-1.4082031,1.0001831H7.949646
		c-0.088623-0.6144409-0.3388062-1.1749268-0.7008667-1.6434326l-0.5130615,1.026123
		c0.0003052,0.0006104-0.0090942-0.0037842-0.0133057-0.0054932C6.894104,10.7163086,7,11.0940552,7,11.5
		C7,12.8807373,5.8807373,14,4.5,14S2,12.8807373,2,11.5c0-1.2304077,0.890564-2.2476807,2.0611572-2.4557495
		C4.0596313,9.043457,4.0529175,9.0400391,4.0529175,9.0400391l0.5168457-1.0336304C4.5460205,8.0059204,4.5238647,8,4.5,8
		C2.5670166,8,1,9.5670166,1,11.5S2.5670166,15,4.5,15c1.7616577,0,3.2050171-1.3058472,3.449585-2.9998169h3.1430664
		C11.2993164,12.5812988,11.8486938,13,12.5007935,13c0.8284302,0,1.5-0.6715698,1.5-1.5S13.3292236,10,12.5007935,10z M12.5,12.25
		c-0.4141846,0-0.75-0.3358154-0.75-0.75s0.3358154-0.75,0.75-0.75s0.75,0.3358154,0.75,0.75S12.9141846,12.25,12.5,12.25z"/>
	<path d="M12.5007935,8c-0.3851929,0-0.7490845,0.0773315-1.0957031,0.1922607L9.5784302,4.5388794
		c0.2601929-0.2697754,0.4219971-0.6352539,0.4219971-1.0396729c0-0.8284302-0.6715698-1.5-1.5-1.5s-1.5,0.6715698-1.5,1.5
		s0.6715698,1.5,1.5,1.5c0.0619507,0,0.1209106-0.0109253,0.1809082-0.0182495l1.8242188,3.6484985
		c-0.4958496,0.3453979-0.885376,0.8218994-1.1491089,1.3707275h1.1509399v0.0045776C10.963501,9.3980713,11.6824951,9,12.5,9
		c1.3807373,0,2.5,1.1192627,2.5,2.5S13.8807373,14,12.5,14c-0.8173218,0-1.5361938-0.3979492-1.9923706-1.0044556v0.0046387
		H9.350647C9.9136353,14.1792603,11.1070557,15,12.5007935,15c1.9329834,0,3.5-1.5670166,3.5-3.5S14.4337769,8,12.5007935,8z
		 M8.5,4.25c-0.4141846,0-0.75-0.3358154-0.75-0.75S8.0858154,2.75,8.5,2.75S9.25,3.0858154,9.25,3.5S8.9141846,4.25,8.5,4.25z"/>
	<path d="M8.5004272-0.0007935c-1.9330444,0-3.5,1.5670166-3.5,3.5c0,1.1905518,0.597229,2.2388916,1.5054321,2.8711548
		l-1.8240356,3.6479492C4.621521,10.0109253,4.5623169,10,4.5,10C3.6715698,10,3,10.6715698,3,11.5S3.6715698,13,4.5,13
		S6,12.3284302,6,11.5c0-0.4040527-0.1615601-0.7692261-0.4213867-1.0389404l1.8269653-3.6538696
		C7.7519531,6.921936,8.1155396,6.9992065,8.5004272,6.9992065c0.0234985,0,0.045166-0.0064087,0.0685425-0.006897
		L8.0523071,5.9589844c-0.0001221,0,0.0063477-0.003479,0.0063477-0.003479C6.8892822,5.7463989,6,4.7295532,6,3.5
		C6,2.1192627,7.1192627,1,8.5,1S11,2.1192627,11,3.5c0,0.4067383-0.1063232,0.7850952-0.2786255,1.1245117
		c0.0046387-0.0023193,0.0143433-0.0071411,0.0143433-0.0071411l0.5127563,1.0255127
		c0.4640503-0.593811,0.7519531-1.331665,0.7519531-2.1436768C12.0004272,1.5662231,10.4334106-0.0007935,8.5004272-0.0007935z
		 M4.5,12.25c-0.4141846,0-0.75-0.3358154-0.75-0.75s0.3358154-0.75,0.75-0.75s0.75,0.3358154,0.75,0.75S4.9141846,12.25,4.5,12.25z
		"/>
</g>
</svg>
