<?xml version="1.0" encoding="utf-8"?>
<!-- Generator: Adobe Illustrator 27.0.1, SVG Export Plug-In . SVG Version: 6.00 Build 0)  -->
<svg version="1.1" id="Ebene_1" xmlns="http://www.w3.org/2000/svg" xmlns:xlink="http://www.w3.org/1999/xlink" x="0px" y="0px"
	 viewBox="0 0 16 16" enable-background="new 0 0 16 16" xml:space="preserve">
<g class="icon-color">
	<path d="M13,2c0.5514002,0,1,0.4485998,1,1v10c0,0.5514002-0.4485998,1-1,1H3c-0.5513999,0-1-0.4485998-1-1V3
		c0-0.5514002,0.4486001-1,1-1H13 M13,1H3C1.89543,1,1,1.8954296,1,3v10c0,1.1045704,0.89543,2,2,2h10c1.1045704,0,2-0.8954296,2-2
		V3C15,1.8954296,14.1045704,1,13,1L13,1z"/>
	<path d="M5,4C4.4477201,4,4,4.44771,4,5s0.4477201,1,1,1s1-0.44771,1-1S5.5522799,4,5,4L5,4z"/>
	<path d="M11,10c-0.5522804,0-1,0.44771-1,1c0,0.5522804,0.4477196,1,1,1c0.55229,0,1-0.4477196,1-1C12,10.44771,11.55229,10,11,10
		L11,10z"/>
	<path d="M5,10c-0.5522799,0-1,0.44771-1,1c0,0.5522804,0.4477201,1,1,1c0.55229,0,1-0.4477196,1-1C6,10.44771,5.55229,10,5,10
		L5,10z"/>
	<path d="M11,4c-0.5522804,0-1,0.44771-1,1c0,0.5522799,0.4477196,1,1,1c0.55229,0,1-0.4477201,1-1C12,4.44771,11.55229,4,11,4
		L11,4z"/>
</g>
</svg>
