<svg xmlns="http://www.w3.org/2000/svg" viewBox="0 0 16 16">
<g>
	<path d="M8,1C4.14,1,1,4.14,1,8s3.14,7,7,7s7-3.14,7-7S11.86,1,8,1z M8,14.125
		c-1.532,0-2.93-0.569-4.005-1.502c0.012,0.003,0.045,0.01,0.045-0.056v-0.082c0-0.081,0.083-0.081,0.083-0.161
		C4.207,12,4.207,11.517,4.207,11.195l0.001-0.001v-0.08v-0.08v-0.081l-0.084-0.08c-0.083,0-0.083-0.081-0.166-0.081
		c-0.083,0-0.166-0.081-0.25-0.081H3.624H3.54c0,0-0.083,0-0.083-0.081C2.873,10.305,2.623,9.74,2.456,9.096
		c0-0.162-0.083-0.324-0.083-0.485C2.291,8.529,2.291,8.449,2.207,8.367C2.04,8.206,2.124,7.884,2.291,7.561V7.4
		c0-0.081,0-0.081,0.083-0.162c0-0.079,0-0.079,0.084-0.16c0.166-0.324,0.5-0.565,0.667-0.808C3.208,6.19,3.208,6.19,3.208,6.109
		v-0.08c0.083-0.081,0.083-0.242,0.166-0.324c0-0.079,0.084-0.242,0.084-0.322c0-0.162,0-0.242-0.084-0.402
		C3.291,4.74,3.239,4.532,3.077,4.371c0.315-0.426,0.68-0.811,1.092-1.143l0.145,0.152h0.764c0,0,0.085,0,0.085-0.088l0.085-0.09
		c0,0,0.085,0,0.085-0.089l0.084-0.089l0.085-0.09c-0.254,0.179-0.254,0.09-0.17,0L5.329,2.934C5.58,2.669,5.596,2.621,5.842,2.275
		C6.514,2.021,7.24,1.875,8,1.875c1.088,0,2.109,0.289,2.996,0.789c-0.077,0.079-0.099,0.034-0.099,0.117
		c-0.242,0.085-0.565-0.085-0.808-0.17C9.444,2.357,8.798,2.357,8.233,2.526C7.99,2.611,7.426,2.696,7.667,3.205
		c0.161,0.256,0.564,0.51,0.969,0.171c0.161-0.17,0.324-0.424,0.564-0.17c0.081,0.086,0.081,0.171,0.081,0.255
		c-0.081,0.254-0.324,0.34-0.565,0.34c-0.324,0.085-0.648,0-0.97,0.085C7.423,3.971,6.94,4.056,6.94,4.481
		c0,0.508-0.162,0.593-0.566,0.678c-0.324,0-0.484,0.17-0.324,0.509c0.081,0.254,0.324,0.254,0.486,0.17
		c0.646-0.34,1.211-1.188,1.937-0.17l0.161-0.085c0.162-0.679,0.324-0.254,0.485,0l0.242,0.254c0.969-0.933,0.726,0.425,1.05,0.679
		c-0.647-0.17-1.374,0.509-1.938,0.085C7.504,5.838,6.858,6.177,5.97,6.94C5.244,7.535,5.082,8.298,5.244,8.977
		C5.485,9.826,6.373,9.911,7.1,9.741c0.242-0.086,0.726-0.086,0.726,0.084c-0.162,0.764,0.726,1.273,0.403,2.121
		c-0.242,0.679,0.163,1.528,0.726,1.782c0.566,0.254,1.05-0.424,1.293-1.019c0.08-0.085,0-0.254,0.08-0.34
		c0.646-0.849,0.565-2.121,1.372-2.97c0.242-0.254,1.05-1.187,0.403-1.951c1.535-0.424,0.971,1.103,1.293,1.782
		c0.241-0.509,0.402-1.019,0.564-1.444c0.074-0.232,0.127-0.314,0.136-0.327C14.113,7.639,14.125,7.818,14.125,8
		C14.125,11.377,11.377,14.125,8,14.125z M4.182,11.169C4.172,11.159,4.17,11.157,4.182,11.169L4.182,11.169z"/>
</g>
</svg>