<?xml version="1.0" encoding="utf-8"?>
<!-- Generator: Adobe Illustrator 28.2.0, SVG Export Plug-In . SVG Version: 6.00 Build 0)  -->
<svg version="1.1" xmlns="http://www.w3.org/2000/svg" xmlns:xlink="http://www.w3.org/1999/xlink" x="0px" y="0px"
	 viewBox="0 0 16 16" enable-background="new 0 0 16 16" xml:space="preserve">
<g fill="currentColor">
	<path d="M8.1122856,15.25h-0.004179c-2.1634045-0.0146608-3.8265572-0.7279129-4.9440317-2.1205835
		c-0.9947608-1.2391691-1.507545-2.9633923-1.5247772-5.124176V7.9947591
		C1.6565301,5.8334579,2.1693144,4.1097264,3.1640751,2.870584C4.2810254,1.4779254,5.9447021,0.7646211,8.1075821,0.75h0.00418
		h0.004179c1.6584435,0.0109658,3.0458746,0.4375898,4.124176,1.266818
		c1.0135584,0.7796216,1.7268772,1.8908269,2.1205845,3.3033338l-1.232336,0.3435969
		c-0.6668158-2.3921263-2.3544874-3.6150761-5.0166035-3.6343999c-1.7576694,0.012531-3.0866251,0.5650027-3.9508395,1.6417463
		C3.3515358,4.6794319,2.93327,6.1358008,2.9181254,7.9994693c0.0156686,1.8641925,0.4339347,3.3205485,1.2427971,4.3284011
		c0.8642144,1.0767097,2.1931701,1.6291618,3.9508395,1.6416988c1.5842781-0.0114765,2.6328621-0.3806391,3.5049238-1.2349224
		c0.9952488-0.9749508,0.977006-2.1707354,0.6584568-2.8981161c-0.1874666-0.4287338-0.5279732-0.7858906-0.9869556-1.0564117
		c-0.1153593,0.8156757-0.3749352,1.4777822-0.7759409,1.9765005c-0.5347395,0.6657553-1.292901,1.0297451-2.2527065,1.0814199
		c-0.7263594,0.0391397-1.4260855-0.1326065-1.9691505-0.4840584c-0.6422911-0.4156647-1.018261-1.0517015-1.0584674-1.7910891
		C5.1927562,8.8438683,5.4778714,8.1827574,6.0345154,7.7012863c0.5321064-0.4600248,1.2803974-0.7299953,2.1644526-0.7796021
		c0.6516781-0.0365515,1.2610464-0.0078278,1.8245106,0.086165C9.9487829,6.5592937,9.7974033,6.2036824,9.5717916,5.9467678
		C9.2616014,5.5932527,8.7817221,5.4125781,8.146224,5.4083991c-0.0057449,0-0.0114832,0-0.0177517,0
		c-0.5101757,0-1.2031088,0.1399436-1.6448779,0.7968493L5.4219961,5.491426
		c0.5911121-0.8788347,1.5514088-1.3623757,2.7059517-1.3623757c0.0088758,0,0.0172348,0,0.0261097,0
		c1.9305162,0.0120068,3.0798655,1.192667,3.1942301,3.2547483c0.0657396,0.0277286,0.1300201,0.056386,0.1937037,0.0861716
		c0.9007854,0.4234929,1.5592422,1.0647693,1.9049225,1.8543086c0.481472,1.1007242,0.5258512,2.8944674-0.9357443,4.3252163
		c-1.1164455,1.0934277-2.4720354,1.5869055-4.3952284,1.5999746H8.111762L8.1122856,15.25z M8.7180386,8.1864061
		c-0.1462059,0-0.2945347,0.004179-0.445981,0.0130682C7.1624308,8.2621622,6.4710636,8.7702351,6.5102224,9.493968
		c0.0412545,0.7582283,0.8777933,1.1106739,1.6814356,1.0673561c0.7399187-0.0397358,1.7028618-0.3274364,1.864192-2.2417803
		C9.6474819,8.2323771,9.1984491,8.1864061,8.7180386,8.1864061z"/>
</g>
</svg>
