<?xml version="1.0" encoding="utf-8"?>
<!-- Generator: Adobe Illustrator 25.4.1, SVG Export Plug-In . SVG Version: 6.00 Build 0)  -->
<svg version="1.1" xmlns="http://www.w3.org/2000/svg" xmlns:xlink="http://www.w3.org/1999/xlink" x="0px" y="0px"
	 viewBox="0 0 16 16" enable-background="new 0 0 16 16">
<g fill="currentColor">
	<path d="M7.084,6.561c-0.056,0.103-0.787,1.387-2.19,3.859c-0.153,0.259-0.337,0.391-0.553,0.391H2.307
		c-0.241,0-0.378-0.234-0.266-0.45l2.156-3.79c0.006,0,0.006-0.003,0-0.009L2.826,4.199C2.691,3.956,2.835,3.759,3.091,3.759h2.034
		c0.228,0,0.416,0.128,0.562,0.381L7.084,6.561z M13.955,1.441L9.456,9.345v0.009l2.862,5.205C12.439,14.781,12.324,15,12.052,15
		h-2.037c-0.237,0-0.425-0.125-0.562-0.381L6.566,9.354c0.103-0.181,1.609-2.837,4.524-7.973C11.233,1.128,11.414,1,11.636,1h2.053
		C13.939,1,14.073,1.209,13.955,1.441L13.955,1.441z"/>
</g>
</svg>
