<?xml version="1.0" encoding="utf-8"?>
<!-- Generator: Adobe Illustrator 19.1.0, SVG Export Plug-In . SVG Version: 6.00 Build 0)  -->
<svg version="1.1" xmlns="http://www.w3.org/2000/svg" xmlns:xlink="http://www.w3.org/1999/xlink" x="0px" y="0px"
	 viewBox="0 0 16 16" enable-background="new 0 0 16 16" xml:space="preserve">
<g fill="currentColor">
	<path d="M12,9l2,2l-4.9,4.9C9,16,9,16,8.9,16H7v-1.9C7,14,7,14,7.1,13.9L12,9z"/>
	<path d="M14.2,7.2l1.6,1.6c0.1,0.1,0.1,0.3,0,0.4l-1.3,1.3l-2-2l1.3-1.3C13.9,7.1,14.1,7.1,14.2,7.2z"/>
	<path d="M5,14v-0.8l0.4-0.4C3.7,11.9,2.5,10.1,2.5,8C2.5,5,5,2.5,8,2.5c2.1,0,3.9,1.2,4.8,2.9l1.1-1.1C12.7,2.3,10.5,1,8,1
		C4.1,1,1,4.1,1,8c0,2.8,1.6,5.2,4,6.3V14z"/>
	<path d="M9.2,8.9C9.2,9,9,9.2,8.9,9.2H6C5.8,9.2,5.7,9,5.7,8.9V8.3C5.7,8.1,5.8,8,6,8h2V4.8c0-0.2,0.1-0.3,0.3-0.3h0.6
		c0.2,0,0.3,0.1,0.3,0.3L9.2,8.9L9.2,8.9z"/>
</g>
</svg>
