<?xml version="1.0" encoding="utf-8"?>
<!-- Generator: Adobe Illustrator 28.2.0, SVG Export Plug-In . SVG Version: 6.00 Build 0)  -->
<svg version="1.1" xmlns="http://www.w3.org/2000/svg" xmlns:xlink="http://www.w3.org/1999/xlink" x="0px" y="0px"
	 viewBox="0 0 16 16" enable-background="new 0 0 16 16">
<g fill="currentColor">
  <path d="M15,1s-.326355-.081665-.9096069-.081665c-1.4578857.0001221-4.5192261.510498-8.0903931,4.081665C2,9,1,13.25,1,13.25l1.25.5.5,1.25s4.25-1,8.25-5C16,5,15,1,15,1ZM8,11.2490234c-.340271.2489624-.6734009.4777222-1,.6870728v-2.9360962h-2.9360962c.2093506-.3265991.4381104-.659729.6870728-1h3.2490234v3.2490234ZM3.1784668,13.3786011l-.1591797-.3979492-.3978882-.1591187-.3908691-.1563721c.2231445-.6243286.6199341-1.5706177,1.2325439-2.6651611h2.5369263v2.5369263c-1.0949097.612793-2.0411987,1.0095825-2.6651611,1.232605l-.1563721-.3909302ZM10.2929077,9.2928467c-.4299316.4299927-.8621826.8114624-1.2929077,1.1713867v-3.4642334h-3.4642334c.3599243-.4307251.741394-.8629761,1.1713257-1.2929077,2.7592773-2.7592773,5.128418-3.5513306,6.6158447-3.7370605l-1.1764526,1.1764526.7070312.7070312,1.1849976-1.1849976c-.1773071,1.4364014-.9469604,3.8256836-3.7456055,6.6243286Z" />
</g>
</svg>
