<svg xmlns="http://www.w3.org/2000/svg" version="1.1" viewBox="0 0 16 16">
<g fill="currentColor">
	<rect x="10" y="11" width="1" height="1"/>
	<rect x="12" y="11" width="1" height="1"/>
	<path d="M11.27,6H4.73C4.515,6,4.4,5.747,4.542,5.586l3.27-3.743c0.104-0.119,0.273-0.119,0.377,0l3.27,3.743
		C11.6,5.747,11.485,6,11.27,6z"/>
	<path d="M14.5,9H10v1h4v3H2v-3h4V9H1.5C1.224,9,1,9.224,1,9.5v4C1,13.776,1.224,14,1.5,14h13c0.276,0,0.5-0.224,0.5-0.5v-4
		C15,9.224,14.776,9,14.5,9z"/>
	<rect x="7" y="6" width="2" height="4"/>
</g>
</svg>
