<svg xmlns="http://www.w3.org/2000/svg" viewBox="0 0 16 16">
<g class="icon-color">
	<path d="M15.2858887,12.0306396l-5.536499-9.9918213C9.3686523,1.3516846,8.6843262,1.0081787,8,1.0081787
		S6.6313477,1.3516846,6.2506104,2.0388184l-5.536499,9.9918213C-0.0244751,13.3637085,0.9395752,15,2.463562,15h11.072876
		C15.0604248,15,16.0244751,13.3637085,15.2858887,12.0306396z M7.5524902,5h0.8950195
		c0.2958374,0,0.5269775,0.2554321,0.4974976,0.5497437L8.5,10h-1L7.0549927,5.5497437C7.0255127,5.2554321,7.2566528,5,7.5524902,5
		z M8,13c-0.5523071,0-1-0.4476929-1-1s0.4476929-1,1-1s1,0.4476929,1,1S8.5523071,13,8,13z"/>
</g>
</svg>