<svg enable-background="new 0 0 16 16" version="1.1" viewBox="0 0 16 16" xml:space="preserve" xmlns="http://www.w3.org/2000/svg">
<g class="icon-color">
<path d="m8 1c-3.86 0-7 3.14-7 7 0 3.86 3.14 7 7 7 3.86 0 7-3.14 7-7 0-3.86-3.14-7-7-7zm0 1c3.32 0 6 2.68 6 6 0 3.32-2.68 6-6 6-3.32 0-6-2.68-6-6 0-3.32 2.68-6 6-6zm0 1a1 1 0 0 0-1 1 1 1 0 0 0 1 1 1 1 0 0 0 1-1 1 1 0 0 0-1-1zm4.01 1.49a0.5 0.5 0 0 0-0.207 0.0488l-3.41 1.46h-0.793l-3.41-1.46a0.5 0.5 0 0 0-0.244-0.043 0.5 0.5 0 0 0-0.15 0.961l3.2 1.37v2.57l-1.46 3.41a0.5 0.5 0 1 0 0.918 0.395l1.5-3.5a0.5 0.5 0 0 0 0.041-0.195 0.5 0.5 0 0 0 0.041 0.195l1.5 3.5a0.5 0.5 0 1 0 0.918-0.395l-1.46-3.41v-2.57l3.2-1.37a0.5 0.5 0 0 0-0.188-0.967z"/></g></svg>
