<?xml version="1.0" encoding="utf-8"?>
<!-- Generator: Adobe Illustrator 23.1.0, SVG Export Plug-In . SVG Version: 6.00 Build 0)  -->
<svg version="1.1" xmlns="http://www.w3.org/2000/svg" xmlns:xlink="http://www.w3.org/1999/xlink" x="0px" y="0px"
	 viewBox="0 0 16 16" enable-background="new 0 0 16 16">
<g fill="currentColor">
<path d="M5,9H4H3.697L3.445,9.168L2,10.131V3h7v1h1V2.25C10,2.112,9.888,2,9.75,2h-8.5C1.112,2,1,2.112,1,2.25V12
	l3-2h1V9z"/>
<path d="M14,6v7.131l-1.445-0.964L12.303,12H12H7V6H14 M14.75,5h-8.5C6.112,5,6,5.112,6,5.25v7.5
	C6,12.888,6.112,13,6.25,13H12l3,2V5.25C15,5.112,14.888,5,14.75,5L14.75,5z"/>
<rect x="8" y="7" width="5" height="1"/>
<rect x="8" y="9" width="2" height="1"/>
</g>
</svg>
