<svg xmlns="http://www.w3.org/2000/svg" viewBox="0 0 16 16">
<g class="icon-color">
    <path d="M7.50098802,5.96942184 L10.8317433,4.77916065 C11.0917807,4.68623506 11.3779138,4.82170594 11.4708393,5.08174333 C11.5637649,5.34178072 11.4282941,5.62791375 11.1682567,5.72083935 L8,6.85303088 L8,10.5566406 C8,10.832783 7.77614237,11.0566406 7.5,11.0566406 C7.22385763,11.0566406 7,10.832783 7,10.5566406 L7,6.8523596 L3.8318318,5.72087096 C3.57177695,5.62799422 3.43625231,5.34188665 3.52912904,5.0818318 C3.62200578,4.82177695 3.90811335,4.68625231 4.1681682,4.77912904 L7.50098802,5.96942184 L7.50098802,5.96942184 Z M8,13.9145259 L7.97148566,13.9264277 C7.70585863,14.037299 7.29490306,14.0341159 7.03655772,13.9264277 L1.46777561,11.6051451 C1.20179418,11.4942738 1,11.1861528 1,10.9098282 L1,4.1020699 C1,3.82700961 1.20943028,3.51444125 1.46777561,3.40675297 L7.03655772,1.08547031 C7.30253915,0.974599013 7.71348455,0.977782032 7.97148566,1.08547031 L13.5328477,3.40675297 C13.7984747,3.51762427 14,3.82574524 14,4.1020699 L14,8 L13,8 L13,4.25244125 L7.50433333,2 L2,4.25244125 L2,10.7594563 L7.50433333,13 L8,12.7979203 L8,13.9145259 L8,13.9145259 Z M10.9599672,10.153399 L10.571548,9.50878828 C11.0531278,9.18122387 11.6338784,8.98964376 12.2604581,8.98964376 C13.9193164,8.98964376 15.2648849,10.334461 15.2656362,11.9933193 L15.8854542,11.9933193 C15.9906354,11.9933193 16.0552467,12.1135264 15.9988997,12.2066869 L15.0169577,14.0345865 C14.9643671,14.122488 14.8411548,14.122488 14.7885642,14.0345865 L13.7690575,12.2066869 C13.7127104,12.1135264 13.7773217,11.9933193 13.882503,11.9933193 L14.5143417,11.9933193 C14.5135904,10.7491756 13.5046018,9.74093829 12.2604581,9.74093829 C11.7758731,9.74093829 11.3273503,9.89345108 10.9599672,10.153399 Z M12.2664684,14.2487055 C12.7510534,14.2487055 13.1815452,14.0961927 13.5489282,13.8362448 L13.9373475,14.4808555 C13.4557677,14.8084199 12.8742657,15 12.2484374,15 C10.589579,15 9.24401054,13.6551828 9.24325924,11.9963245 L8.62945161,11.9963245 C8.52427038,11.9963245 8.45965905,11.8761173 8.51525484,11.7829568 L9.49193773,9.95505723 C9.54452835,9.86715577 9.66698936,9.86715577 9.72033127,9.95505723 L10.7090349,11.7829568 C10.7646307,11.8761173 10.7000193,11.9963245 10.5948381,11.9963245 L9.99455377,11.9963245 C9.99530507,13.2404682 11.0223247,14.2487055 12.2664684,14.2487055 Z"/>
</g>
</svg>