<?xml version="1.0" encoding="utf-8"?>
<!-- Generator: Adobe Illustrator 23.0.1, SVG Export Plug-In . SVG Version: 6.00 Build 0)  -->
<svg version="1.1" xmlns="http://www.w3.org/2000/svg" xmlns:xlink="http://www.w3.org/1999/xlink" x="0px" y="0px"
	 viewBox="0 0 16 16" enable-background="new 0 0 16 16">
<g fill="currentColor">
	<path d="M11,2v2.5C11,5.3,11.7,6,12.5,6h1.1L14,6.4v6.2L12.6,14H8.4l-0.6-0.6C7.6,13.2,7.2,13,6.8,13H5V7h1.5C7.3,7,8,6.3,8,5.5
		V4.4L9.5,2H11 M11.5,1H9.2C9.1,1,8.9,1.1,8.9,1.1L7.1,3.9C7.1,3.9,7,4.1,7,4.2v1.3C7,5.8,6.8,6,6.5,6H5V5.5C5,5.2,4.8,5,4.5,5h-3
		C1.2,5,1,5.2,1,5.5v9C1,14.8,1.2,15,1.5,15h3C4.8,15,5,14.8,5,14.5V14h1.8c0.1,0,0.3,0.1,0.4,0.1l0.7,0.7C7.9,14.9,8.1,15,8.2,15
		h4.6c0.1,0,0.3-0.1,0.4-0.1l1.7-1.7c0.1-0.1,0.1-0.2,0.1-0.4V6.2c0-0.1-0.1-0.3-0.1-0.4l-0.7-0.7C14.1,5.1,13.9,5,13.8,5h-1.3
		C12.2,5,12,4.8,12,4.5v-3C12,1.2,11.8,1,11.5,1L11.5,1z M2,14V6h2v0.5v7V14H2L2,14z"/>
</g>
</svg>
