<svg xmlns="http://www.w3.org/2000/svg" viewBox="0 0 16 16">
<g class="icon-color">
	<path d="M2.1,6h2.1c0.6,0,1.1,0.2,1.3,0.5c0.3,0.3,0.4,0.8,0.3,1.4c0,0.3-0.1,0.5-0.2,0.8C5.4,9,5.3,9.2,5,9.4
		C4.8,9.7,4.5,9.9,4.2,9.9S3.6,10,3.3,10H2.4l-0.3,1.5H1L2.1,6L2.1,6 M3,6.8L2.5,9.2c0,0,0.1,0,0.1,0c0,0,0.1,0,0.1,0
		c0.5,0,0.9,0,1.2-0.1c0.3-0.1,0.6-0.5,0.7-1.1C4.7,7.4,4.7,7,4.4,7c-0.3-0.1-0.6-0.1-1-0.1c-0.1,0-0.1,0-0.2,0
		C3.1,6.9,3.1,6.9,3,6.8L3,6.8"/>
	<path d="M7,4.5h1.1L7.8,6h1c0.5,0,0.9,0.1,1.2,0.3c0.3,0.2,0.3,0.6,0.2,1.2L9.6,10H8.5L9,7.6c0.1-0.3,0-0.4,0-0.6
		C8.9,6.9,8.7,6.9,8.5,6.9l-0.9,0L7,10H5.9L7,4.5L7,4.5"/>
	<path d="M11.3,6h2.1c0.6,0,1.1,0.2,1.3,0.5C15,6.8,15.1,7.3,15,7.9c0,0.3-0.1,0.5-0.2,0.8c-0.1,0.3-0.3,0.5-0.5,0.7
		c-0.3,0.3-0.5,0.4-0.8,0.5S12.8,10,12.5,10h-0.9l-0.3,1.5h-1.1L11.3,6L11.3,6 M12.2,6.8l-0.5,2.3c0,0,0.1,0,0.1,0c0,0,0.1,0,0.1,0
		c0.5,0,0.9,0,1.2-0.1c0.3-0.1,0.6-0.5,0.7-1.1c0.1-0.5,0-0.9-0.3-0.9c-0.3-0.1-0.6-0.1-1-0.1c-0.1,0-0.1,0-0.2,0
		C12.3,6.9,12.2,6.9,12.2,6.8L12.2,6.8"/>
</g>
</svg>