<?xml version="1.0" encoding="utf-8"?>
<!-- Generator: Adobe Illustrator 25.1.0, SVG Export Plug-In . SVG Version: 6.00 Build 0)  -->
<svg version="1.1" xmlns="http://www.w3.org/2000/svg" xmlns:xlink="http://www.w3.org/1999/xlink" x="0px" y="0px"
	 viewBox="0 0 16 16" enable-background="new 0 0 16 16">
<g fill="currentColor">
	<path d="M8,1C4.0999756,1,1,4.0999756,1,8s3.0999756,7,7,7s7-3.0999756,7-7S11.9000244,1,8,1z M9,11c0,0.5523071-0.4476929,1-1,1
		s-1-0.4476929-1-1V8c0-0.5523071,0.4476929-1,1-1s1,0.4476929,1,1V11z M8,6C7.4476929,6,7,5.5523071,7,5s0.4476929-1,1-1
		s1,0.4476929,1,1S8.5523071,6,8,6z"/>
</g>
</svg>
