<?xml version="1.0" encoding="utf-8"?>
<!-- Generator: Adobe Illustrator 25.4.1, SVG Export Plug-In . SVG Version: 6.00 Build 0)  -->
<svg version="1.1" id="Ebene_1" xmlns="http://www.w3.org/2000/svg" xmlns:xlink="http://www.w3.org/1999/xlink" x="0px" y="0px"
	 viewBox="0 0 16 16" enable-background="new 0 0 16 16" xml:space="preserve">
<g class="icon-color">
	<path d="M15,8v3.5c0,1.542-1.898,2.833-2.994,3.393C11.119,14.433,9,13.161,9,11.5V8H15 M16,7H8c0,0,0,3.375,0,4.5
		c0,2.812,4,4.5,4,4.5s4-1.688,4-4.5C16,10.375,16,7,16,7L16,7z"/>
	<path d="M7.845,14H3V2h7v2.5C10,4.8,10.2,5,10.5,5H13v1h1V5V4V3.9c0-0.3-0.1-0.5-0.3-0.7l-1.9-1.9C11.6,1.1,11.4,1,11.1,1H2.5
		C2.2,1,2,1.2,2,1.5v13C2,14.8,2.2,15,2.5,15h6.207C8.394,14.701,8.101,14.366,7.845,14z M11,2l2,2h-2V2z"/>
</g>
</svg>
