<?xml version="1.0" encoding="utf-8"?>
<!-- Generator: Adobe Illustrator 27.2.0, SVG Export Plug-In . SVG Version: 6.00 Build 0)  -->
<svg version="1.1" xmlns="http://www.w3.org/2000/svg" xmlns:xlink="http://www.w3.org/1999/xlink" x="0px" y="0px"
	 viewBox="0 0 16 16" enable-background="new 0 0 16 16">
<g fill="currentColor">
	<path d="M12.5,9H9v3.5C9,12.8,8.8,13,8.5,13h-1C7.2,13,7,12.8,7,12.5V9H3.5C3.2,9,3,8.8,3,8.5v-1C3,7.2,3.2,7,3.5,7H7V3.5
		C7,3.2,7.2,3,7.5,3h1C8.8,3,9,3.2,9,3.5V7h3.5C12.8,7,13,7.2,13,7.5v1C13,8.8,12.8,9,12.5,9z"/>
</g>
</svg>
