<svg xmlns="http://www.w3.org/2000/svg" version="1.1" viewBox="0 0 16 16">
<g fill="currentColor">
	<path d="M8,2c3.3000002,0,6,2.6999998,6,6s-2.6999998,6-6,6s-6-2.6999998-6-6S4.6999998,2,8,2 M8,1C4.0999999,1,1,4.0999999,1,8
		s3.0999999,7,7,7s7-3.1000004,7-7S11.8999996,1,8,1L8,1z"/>
	<path d="M7,4.999999C7,4.4477148,7.4477148,4,7.999999,4H8.000001C8.5522852,4,9,4.4477148,9,4.999999V5.000001
		C9,5.5522852,8.5522852,6,8.000001,6H7.999999C7.4477148,6,7,5.5522852,7,5.000001V4.999999z"/>
	<path d="M7,7.999999C7,7.4477148,7.4477148,7,7.999999,7H8.000001C8.5522852,7,9,7.4477148,9,7.999999v3.0000019
		C9,11.5522852,8.5522852,12,8.000001,12H7.999999C7.4477148,12,7,11.5522852,7,11.000001V7.999999z"/>
</g>
</svg>
