<svg xmlns="http://www.w3.org/2000/svg" viewBox="0 0 16 16">
<g class="icon-color">
    <path d="M8,9 C8.55228475,9 9,8.55228475 9,8 C9,7.44771525 8.55228475,7 8,7 C7.44771525,7 7,7.44771525 7,8 C7,8.55228475 7.44771525,9 8,9 Z M10.37,12.23 C9.67,12.63 8.87,12.87 8,12.87 C5.32,12.87 3.13,10.69 3.13,8 L4.549,8 C4.745,8 4.865,7.784 4.761,7.617 L2.712,4.339 C2.614,4.182 2.386,4.182 2.288,4.339 L0.239,7.617 C0.135,7.784 0.255,8 0.451,8 L2,8 C2,11.31 4.69,14 8,14 C9.09,14 10.1,13.71 10.98,13.2 L10.37,12.23 Z M15.549,8 L14,8 C14,4.69 11.31,2 8,2 C6.88,2 5.84,2.31 4.94,2.84 L5.55,3.81 C6.27,3.39 7.1,3.13 8,3.13 C10.68,3.13 12.87,5.31 12.87,8 L11.451,8 C11.255,8 11.135,8.216 11.239,8.383 L13.288,11.661 C13.386,11.818 13.614,11.818 13.712,11.661 L15.761,8.383 C15.865,8.216 15.745,8 15.549,8 Z"/>
</g>
</svg>