<?xml version="1.0" encoding="utf-8"?>
<!-- Generator: Adobe Illustrator 25.2.1, SVG Export Plug-In . SVG Version: 6.00 Build 0)  -->
<svg version="1.1" id="Ebene_1" xmlns="http://www.w3.org/2000/svg" xmlns:xlink="http://www.w3.org/1999/xlink" x="0px" y="0px"
	 viewBox="0 0 16 16" style="enable-background:new 0 0 16 16;" xml:space="preserve">
<g class="icon-color">
	<path d="M11.9,6C13.2,6,14,6.8,14,8c0,1-0.8,2-2.2,2c-1.1,0-2-0.9-2.9-1.7L8.7,8.1L8.6,8l0.1-0.1l0.1-0.1C9.8,6.9,10.7,6,11.9,6
		 M4.2,6c1.1,0,2,0.9,2.9,1.7l0.2,0.1L7.4,8L7.3,8.1L7.2,8.2C6.2,9.1,5.3,10,4.1,10C2.8,10,2,9.2,2,8C2,7,2.8,6,4.2,6 M11.9,5
		C10.2,5,9.1,6.1,8,7.2C7,6.2,5.8,5,4.2,5C2.4,5,1,6.4,1,8c0,1.7,1.3,3,3.1,3C5.8,11,6.9,9.9,8,8.8c1,1,2.2,2.2,3.8,2.2
		c1.9,0,3.2-1.4,3.2-3C15,6.3,13.7,5,11.9,5L11.9,5z"/>
</g>
</svg>
