<?xml version="1.0" encoding="utf-8"?>
<!-- Generator: Adobe Illustrator 24.3.0, SVG Export Plug-In . SVG Version: 6.00 Build 0)  -->
<svg version="1.1" id="Ebene_1" xmlns="http://www.w3.org/2000/svg" xmlns:xlink="http://www.w3.org/1999/xlink" x="0px" y="0px"
	 viewBox="0 0 16 16" style="enable-background:new 0 0 16 16;" xml:space="preserve">
<g class="icon-color">
<path d="M9.551,15.002c-0.506,0-1.025-0.321-1.551-0.96c-0.636,0.771-1.261,1.083-1.866,0.918c-0.605-0.162-0.993-0.743-1.157-1.731
	c-0.936,0.352-1.631,0.306-2.073-0.133c-0.44-0.44-0.484-1.136-0.133-2.073c-0.988-0.164-1.569-0.552-1.731-1.157
	C0.878,9.261,1.187,8.636,1.958,8C1.187,7.364,0.878,6.739,1.04,6.135c0.162-0.605,0.743-0.993,1.732-1.157
	C2.42,4.04,2.464,3.345,2.904,2.904c0.441-0.44,1.136-0.483,2.073-0.133C5.142,1.783,5.529,1.202,6.134,1.04
	C6.738,0.878,7.363,1.187,8,1.958C8.635,1.186,9.264,0.88,9.864,1.04c0.605,0.162,0.993,0.743,1.157,1.732
	c0.938-0.352,1.634-0.307,2.073,0.132c0.44,0.44,0.484,1.136,0.133,2.074c0.988,0.164,1.569,0.551,1.732,1.156
	C15.122,6.738,14.813,7.363,14.042,8c0.772,0.636,1.08,1.262,0.917,1.867c-0.162,0.604-0.743,0.992-1.731,1.156
	c0.352,0.938,0.308,1.633-0.132,2.073c-0.442,0.438-1.137,0.484-2.074,0.133c-0.164,0.988-0.552,1.569-1.156,1.731
	C9.761,14.988,9.656,15.002,9.551,15.002z M6.108,11.272l0.033,1.002c0.035,1.052,0.258,1.435,0.334,1.485
	c0.055-0.016,0.438-0.235,0.994-1.127L8,11.783l0.53,0.85c0.556,0.892,0.94,1.111,1.03,1.117c0.04-0.041,0.263-0.423,0.298-1.477
	l0.034-1.001l0.885,0.471c0.926,0.493,1.366,0.496,1.452,0.455c0.008-0.052,0.007-0.495-0.486-1.422l-0.471-0.886l1.002-0.033
	c1.053-0.034,1.435-0.258,1.485-0.333c-0.016-0.056-0.235-0.439-1.125-0.994L11.783,8l0.85-0.531c0.892-0.556,1.111-0.94,1.117-1.03
	c-0.041-0.039-0.423-0.263-1.477-0.298l-1.002-0.033l0.471-0.885c0.494-0.927,0.495-1.37,0.456-1.452
	c-0.046-0.006-0.49-0.011-1.422,0.485L9.892,4.729L9.857,3.727C9.822,2.673,9.6,2.291,9.524,2.24C9.47,2.256,9.086,2.475,8.53,3.367
	L8,4.217l-0.53-0.851c-0.556-0.892-0.94-1.11-1.03-1.117c-0.04,0.041-0.263,0.424-0.298,1.477L6.108,4.729L5.223,4.257
	C4.296,3.763,3.854,3.761,3.771,3.801C3.763,3.854,3.764,4.297,4.257,5.223l0.472,0.885L3.727,6.142
	C2.673,6.177,2.291,6.4,2.24,6.475C2.256,6.53,2.476,6.913,3.367,7.47L4.217,8l-0.85,0.53C2.476,9.087,2.256,9.47,2.25,9.561
	C2.291,9.6,2.673,9.823,3.726,9.857l1.003,0.033l-0.472,0.886c-0.494,0.927-0.495,1.37-0.456,1.452
	c0.048,0.008,0.492,0.01,1.421-0.485L6.108,11.272z"/>
</g>
</svg>
