<svg xmlns="http://www.w3.org/2000/svg" version="1.1" viewBox="0 0 16 16">
<g fill="currentColor">
	<path d="M14.7175144,3.4038059l-2.1213203-2.1213203c-.1952485-.1952485-.5118583-.1952485-.7071068,0L1.2824856,11.8890873c-.1952485.1952485-.1952485.5118583,0,.7071068l2.1213203,2.1213203c.1952485.1952485.5118583.1952485.7071068,0L14.7175144,4.1109127c.1952485-.1952485.1952485-.5118583,0-.7071068ZM3.7573593,13.6568542l-1.4142136-1.4142136,6.7175144-6.7175144,1.4142136,1.4142136-6.7175144,6.7175144ZM9.767767,4.8180195l2.4748737-2.4748737,1.4142136,1.4142136-2.4748737,2.4748737-1.4142136-1.4142136Z"/>
	<path d="M6.75,2h-.75v-.75c0-.1380615-.1119385-.25-.25-.25h-.5c-.1380615,0-.25.1119385-.25.25v.75h-.75c-.1380615,0-.25.1119385-.25.25v.5c0,.1380615.1119385.25.25.25h.75v.75c0,.1380615.1119385.25.25.25h.5c.1380615,0,.25-.1119385.25-.25v-.75h.75c.1380615,0,.25-.1119385.25-.25v-.5c0-.1380615-.1119385-.25-.25-.25Z"/>
	<path d="M14.75,12h-1.75v-1.75c0-.1381226-.1119385-.25-.25-.25h-.5c-.1381226,0-.25.1118774-.25.25v1.75h-1.75c-.1381226,0-.25.1118774-.25.25v.5c0,.1380615.1118774.25.25.25h1.75v1.75c0,.1380615.1118774.25.25.25h.5c.1380615,0,.25-.1119385.25-.25v-1.75h1.75c.1380615,0,.25-.1119385.25-.25v-.5c0-.1381226-.1119385-.25-.25-.25Z"/>
</g>
</svg>
