<svg xmlns="http://www.w3.org/2000/svg" viewBox="0 0 16 16">
<g class="icon-color">
	<path d="M14.823,7.823l-2.396-2.396C12.269,5.269,12,5.381,12,5.604V7H9V4h1.396c0.223,0,0.334-0.269,0.177-0.427L8.177,1.177
		c-0.098-0.098-0.256-0.098-0.354,0L5.427,3.573C5.269,3.731,5.381,4,5.604,4H7v3H4V5.604C4,5.381,3.731,5.27,3.573,5.427
		L1.177,7.823c-0.098,0.098-0.098,0.256,0,0.354l2.396,2.396C3.731,10.731,4,10.619,4,10.396V9h3v3H5.604
		c-0.223,0-0.334,0.269-0.177,0.427l2.396,2.396c0.098,0.098,0.256,0.098,0.354,0l2.396-2.396C10.731,12.269,10.619,12,10.396,12H9
		V9h3v1.396c0,0.223,0.269,0.334,0.427,0.177l2.396-2.396C14.921,8.079,14.921,7.921,14.823,7.823z"/>
</g>
</svg>