<svg xmlns="http://www.w3.org/2000/svg" version="1.1" viewBox="0 0 16 16">
<g fill="currentColor">
	<path d="M13,2H3c-1.1045532,0-2,.8954468-2,2v8c0,1.1045532.8954468,2,2,2h10c1.1045532,0,2-.8954468,2-2V4c0-1.1045532-.8954468-2-2-2ZM4,10.75c0,.1380615-.1119385.25-.25.25h-.5c-.1380615,0-.25-.1119385-.25-.25v-.5c0-.1380615.1119385-.25.25-.25h.5c.1380615,0,.25.1119385.25.25v.5ZM4,8.75c0,.1380615-.1119385.25-.25.25h-.5c-.1380615,0-.25-.1119385-.25-.25v-.5c0-.1380615.1119385-.25.25-.25h.5c.1380615,0,.25.1119385.25.25v.5ZM4,6.75c0,.1380615-.1119385.25-.25.25h-.5c-.1380615,0-.25-.1119385-.25-.25v-.5c0-.1380615.1119385-.25.25-.25h.5c.1380615,0,.25.1119385.25.25v.5ZM4,4.75c0,.1380615-.1119385.25-.25.25h-.5c-.1380615,0-.25-.1119385-.25-.25v-.5c0-.1380615.1119385-.25.25-.25h.5c.1380615,0,.25.1119385.25.25v.5ZM14,12c0,.5513916-.4486084,1-1,1h-7V3h7c.5513916,0,1,.4486084,1,1v8Z"/>
</g>
</svg>
