<?xml version="1.0" encoding="utf-8"?>
<!-- Generator: Adobe Illustrator 25.1.0, SVG Export Plug-In . SVG Version: 6.00 Build 0)  -->
<svg version="1.1" id="Ebene_1" xmlns="http://www.w3.org/2000/svg" xmlns:xlink="http://www.w3.org/1999/xlink" x="0px" y="0px"
	 viewBox="0 0 16 16" enable-background="new 0 0 16 16" xml:space="preserve">
<g fill="currentColor">
	<path d="M8,2c3.3000002,0,6,2.6999998,6,6s-2.6999998,6-6,6s-6-2.6999998-6-6S4.6999998,2,8,2 M8,1C4.0999999,1,1,4.0999999,1,8
		s3.0999999,7,7,7s7-3.1000004,7-7S11.8999996,1,8,1L8,1z"/>
	<circle cx="8" cy="11" r="1"/>
	<path d="M8.5,9h-1L7.054975,4.5497518C7.0255408,4.2554088,7.2566829,4,7.5524936,4H8.447506
		c0.2958117,0,0.5269527,0.2554088,0.4975185,0.5497518L8.5,9z"/>
</g>
</svg>
