<?xml version="1.0" encoding="utf-8"?>
<!-- Generator: Adobe Illustrator 27.0.1, SVG Export Plug-In . SVG Version: 6.00 Build 0)  -->
<svg version="1.1" id="Ebene_1" xmlns="http://www.w3.org/2000/svg" xmlns:xlink="http://www.w3.org/1999/xlink" x="0px" y="0px"
	 viewBox="0 0 16 16" enable-background="new 0 0 16 16" xml:space="preserve">
<g fill="currentColor">
	<path d="M13.5,1h-11C1.6729126,1,1,1.6729126,1,2.5v11C1,14.3270874,1.6729126,15,2.5,15h11c0.8270874,0,1.5-0.6729126,1.5-1.5v-11
		C15,1.6729126,14.3270874,1,13.5,1z M2.5,2h11C13.776123,2,14,2.223877,14,2.5V5H2V2.5C2,2.223877,2.223877,2,2.5,2z M2,13.5V6h3v8
		H2.5C2.223877,14,2,13.776123,2,13.5z M13.5,14H6V6h8v7.5C14,13.776123,13.776123,14,13.5,14z"/>
</g>
</svg>
