<svg xmlns="http://www.w3.org/2000/svg" version="1.1" viewBox="0 0 16 16">
<g fill="currentColor">
	<rect x="4" y="14" width="2" height="1"/>
	<rect x="1" y="4" width="1" height="2"/>
	<rect x="1" y="10" width="1" height="2"/>
	<rect x="1" y="7" width="1" height="2"/>
	<path d="M13,2c0.551,0,1,0.449,1,1h1c0-1.105-0.895-2-2-2V2z"/>
	<rect x="7" y="1" width="2" height="1"/>
	<rect x="4" y="1" width="2" height="1"/>
	<rect x="10" y="1" width="2" height="1"/>
	<rect x="14" y="4" width="1" height="2"/>
	<path d="M3,14c-0.551,0-1-0.449-1-1H1c0,1.105,0.895,2,2,2V14z"/>
	<path d="M3,2V1C1.895,1,1,1.895,1,3h1C2,2.449,2.449,2,3,2z"/>
	<path d="M13,14v1c1.105,0,2-0.895,2-2h-1C14,13.551,13.551,14,13,14z"/>
	<rect x="14" y="10" width="1" height="2"/>
	<rect x="10" y="14" width="2" height="1"/>
	<rect x="14" y="7" width="1" height="2"/>
	<rect x="7" y="14" width="2" height="1"/>
</g>
</svg>
