<?xml version="1.0" encoding="utf-8"?>
<!-- Generator: Adobe Illustrator 23.0.2, SVG Export Plug-In . SVG Version: 6.00 Build 0)  -->
<svg version="1.1" id="Ebene_1" xmlns:sketch="http://www.bohemiancoding.com/sketch/ns"
	 xmlns="http://www.w3.org/2000/svg" xmlns:xlink="http://www.w3.org/1999/xlink" x="0px" y="0px" viewBox="0 0 16 16"
	 enable-background="new 0 0 16 16" xml:space="preserve">
<g class="icon-color">
	<rect x="7.625" y="0" transform="matrix(0.7071 -0.7071 0.7071 0.7071 -3.3136 8)" fill-rule="evenodd" clip-rule="evenodd" width="0.75" height="16"/>
	<path fill-rule="evenodd" clip-rule="evenodd" d="M8.172,11H3.5C2.672,11,2,10.328,2,9.5c0-0.723,0.516-1.34,1.216-1.473
		l0.711-0.135l0.093-0.718c0.012-0.091,0.038-0.177,0.06-0.264L3.296,6.124c-0.125,0.291-0.224,0.595-0.267,0.92
		C1.874,7.264,1,8.28,1,9.5C1,10.881,2.119,12,3.5,12h5.672L8.172,11z"/>
	<path fill-rule="evenodd" clip-rule="evenodd" d="M13.829,8.179c0,0-0.435-0.179-0.879-0.179c0.117-0.456,0-1,0-1
		c-0.231-1.141-1.24-2-2.45-2c-0.455,0-0.882,0.122-1.25,0.335C8.609,4.522,7.615,4,6.5,4C5.929,4,5.397,4.148,4.921,4.391
		l0.755,0.755C5.935,5.055,6.211,5,6.5,5c0.777,0,1.493,0.355,1.965,0.954l0.536,0.68L9.751,6.2C9.976,6.07,10.232,6,10.5,6
		C11.328,6,12,6.672,12,7.5c0,0.103-0.01,0.203-0.03,0.301l-0.25,1.23L12.974,9C12.987,9,12.987,9,13,9c0.552,0,1,0.448,1,1
		s-0.448,1-1,1h-1.47l1,1H13c1.105,0,2-0.895,2-2C15,9.191,14.52,8.494,13.829,8.179z"/>
</g>
</svg>
