<?xml version="1.0" encoding="utf-8"?>
<!-- Generator: Adobe Illustrator 27.2.0, SVG Export Plug-In . SVG Version: 6.00 Build 0)  -->
<svg version="1.1" id="Ebene_1" xmlns="http://www.w3.org/2000/svg" xmlns:xlink="http://www.w3.org/1999/xlink" x="0px" y="0px"
	 viewBox="0 0 16 16" enable-background="new 0 0 16 16" xml:space="preserve">
<g class="icon-color">
	<path d="M8,1C4.1,1,1,4.1,1,8s3.1,7,7,7s7-3.1,7-7S11.9,1,8,1z M12,8.5C12,8.8,11.8,9,11.5,9c-2.433,0-5.325,0-7,0
		C4.2,9,4,8.8,4,8.5v-1C4,7.2,4.2,7,4.5,7c4.853,0,6.506,0,7,0C11.8,7,12,7.2,12,7.5V8.5z"/>
</g>
</svg>
