<?xml version="1.0" encoding="utf-8"?>
<!-- Generator: Adobe Illustrator 24.2.3, SVG Export Plug-In . SVG Version: 6.00 Build 0)  -->
<svg version="1.1" xmlns="http://www.w3.org/2000/svg" xmlns:xlink="http://www.w3.org/1999/xlink" x="0px" y="0px"
	 viewBox="0 0 16 16" enable-background="new 0 0 16 16">
<g fill="currentColor">
	<path d="M13.75,4H13V1.32733c0-0.14178-0.11591-0.25018-0.24951-0.25018c-0.02179,0-0.04401,0.00287-0.06628,0.00897l-10.5,2.86365
		C2.07544,3.97943,2,4.07819,2,4.19092V13.75C2,13.88806,2.11194,14,2.25,14h11.5c0.13806,0,0.25-0.11194,0.25-0.25v-9.5
		C14,4.11194,13.88806,4,13.75,4z M12,2.30927V4H5.8006L12,2.30927z M13,10v3H3V5h10v3h-2v2H13z"/>
</g>
</svg>
