<?xml version="1.0" encoding="utf-8"?>
<!-- Generator: Adobe Illustrator 28.2.0, SVG Export Plug-In . SVG Version: 6.00 Build 0)  -->
<svg version="1.1" xmlns="http://www.w3.org/2000/svg" xmlns:xlink="http://www.w3.org/1999/xlink" x="0px" y="0px"
	 viewBox="0 0 16 16" enable-background="new 0 0 16 16">
<g fill="currentColor">
  <path d="M3,12.9472656c.6523438.6679688,1.5483398,1.0527344,2.5,1.0527344s1.8476562-.3847656,2.5-1.0527344c.6523438.6679688,1.5478516,1.0527344,2.5,1.0527344s1.8476562-.3847656,2.5-1.0527344c.5359497.5487671,1.2391968.8922119,2,1.0023804v-1.0119019c-.6403809-.1314087-1.2127686-.4998169-1.5830078-1.0598145-.1855469-.2792969-.6484375-.2792969-.8339844,0-.4648438.703125-1.2441406,1.1220703-2.0830078,1.1220703s-1.6176758-.4189453-2.0830078-1.1220703c-.1855469-.2792969-.6484375-.2792969-.8339844,0-.465332.703125-1.2441406,1.1220703-2.0830078,1.1220703s-1.6176758-.4189453-2.0830078-1.1220703c-.1855469-.2792969-.6484375-.2792969-.8339844,0-.3706055.5599976-.9428101.9284058-1.5830078,1.0598145v1.0119019c.7605591-.1101685,1.4641113-.4536133,2-1.0023804Z" />
  <path d="M4,7c0-2.2055664,1.7944336-4,4-4,.703125,0,1.3828125.1889648,1.9814453.5385742-1.6850586.2514648-2.9814453,1.7080078-2.9814453,3.4614258,0,.7133789.2168579,1.3762817.5848999,1.9302368l-.0014038.0009155c.0015259.0023193.0037842.0038452.0053101.0061646.1468506.2199097.3214722.4174194.5129395.5985107.0582886.0552368.1221924.1008301.1838379.1517334.1402588.1157227.2867432.2211914.4439697.3143311.0786743.0465698.1570435.0897827.2391357.1300049.163208.0802002.3335571.1438599.5097656.1981812.0769653.0236816.1503906.0529785.229126.0712891.2556763.0596924.5188599.0986328.7924194.0986328.1964722,0,.3945312-.0218506.5960083-.0600586.1620483-.0280762.3171997-.074646.47229-.1246948.0249023-.0081177.0481567-.0106812.0733032-.0193481l-.0010376-.0030518c.5093994-.1766968.9786987-.4556885,1.359436-.8455811.5358887.5487061,1.2396851.8920898,2,1.0023193v-1.0119019c-.6400146-.1315308-1.2120361-.5001221-1.5830078-1.0592651-.1855469-.2792969-.6484375-.2792969-.8339844,0-.3173828.4784546-.7855225.8117676-1.3134155.984436-.0991211.0325928-.1946411.0566406-.2888794.0772095-.1577148.0311279-.3164673.0599365-.4807129.0599365-.1936035,0-.3826904-.0276489-.5668335-.0706787-.0546875-.0127563-.1060791-.0332642-.1593628-.0495605-.1274414-.0390625-.2518311-.0857544-.3709106-.1443481-.0558472-.0275269-.1101074-.0574341-.1635132-.0888672-.1156006-.0681763-.2249146-.1464844-.3286743-.2328491-.0402222-.0335083-.0829468-.0640259-.1209717-.0999146-.1368408-.1293945-.2636108-.2715454-.3706665-.432373-.263855-.3961792-.4190674-.8707275-.4190674-1.3814087,0-1.378418,1.1210938-2.5,2.5-2.5.2568359,0,.5244141.0488281.8154297.1494141.2109375.0722656.4443359-.0029297.5732422-.1860352.1279297-.1831055.1191406-.4287109-.0224609-.6020508-.9619141-1.1831055-2.3710938-1.8613281-3.8662109-1.8613281-2.7568359,0-5,2.2431641-5,5,0,1.2072144-.8602905,2.2171021-2,2.4494019v1.000061c1.6916504-.2452393,3-1.690979,3-3.4494629Z" />
</g>
</svg>
