<?xml version="1.0" encoding="utf-8"?>
<!-- Generator: Adobe Illustrator 25.4.1, SVG Export Plug-In . SVG Version: 6.00 Build 0)  -->
<svg version="1.1" xmlns="http://www.w3.org/2000/svg" xmlns:xlink="http://www.w3.org/1999/xlink" x="0px" y="0px"
	 viewBox="0 0 16 16" enable-background="new 0 0 16 16">
<g fill="currentColor">
	<path d="M11,3v10H5V3H11 M11.5,2h-7C4.224,2,4,2.224,4,2.5v11C4,13.776,4.224,14,4.5,14h7c0.276,0,0.5-0.224,0.5-0.5v-11
		C12,2.224,11.776,2,11.5,2L11.5,2z"/>
	<path d="M4,9H2.5C2.224,9,2,8.776,2,8.5v-1C2,7.224,2.224,7,2.5,7H4V9z"/>
	<path d="M4,3H2.5C2.224,3,2,3.224,2,3.5C2,3.776,2.224,4,2.5,4H4V3z"/>
	<path d="M4,5H2.5C2.224,5,2,5.224,2,5.5C2,5.776,2.224,6,2.5,6H4V5z"/>
	<path d="M4,10H2.5C2.224,10,2,10.224,2,10.5C2,10.776,2.224,11,2.5,11H4V10z"/>
	<path d="M4,12H2.5C2.224,12,2,12.224,2,12.5C2,12.776,2.224,13,2.5,13H4V12z"/>
	<path d="M12,9h1.5C13.776,9,14,8.776,14,8.5v-1C14,7.224,13.776,7,13.5,7H12V9z"/>
	<path d="M12,3h1.5C13.776,3,14,3.224,14,3.5C14,3.776,13.776,4,13.5,4H12V3z"/>
	<path d="M12,5h1.5C13.776,5,14,5.224,14,5.5C14,5.776,13.776,6,13.5,6H12V5z"/>
	<path d="M12,10h1.5c0.276,0,0.5,0.224,0.5,0.5c0,0.276-0.224,0.5-0.5,0.5H12V10z"/>
	<path d="M12,12h1.5c0.276,0,0.5,0.224,0.5,0.5c0,0.276-0.224,0.5-0.5,0.5H12V12z"/>
</g>
</svg>
