<?xml version="1.0" encoding="utf-8"?>
<!-- Generator: Adobe Illustrator 23.0.6, SVG Export Plug-In . SVG Version: 6.00 Build 0)  -->
<svg version="1.1" id="Ebene_1" xmlns="http://www.w3.org/2000/svg" xmlns:xlink="http://www.w3.org/1999/xlink" x="0px" y="0px"
	 viewBox="0 0 16 16" enable-background="new 0 0 16 16" xml:space="preserve">
<g class="icon-color">
	<path d="M11.5,10.6c-0.2,0.1-0.4,0.1-0.6,0.1c-1.8,0-4.4-6.2-4.4-8.3c0-0.8,0.2-1,0.4-1.2C4.8,1.5,2.2,2.3,1.4,3.3
		C1.2,3.5,1.1,3.9,1.1,4.4C1.1,7.7,4.5,15,7,15C8.1,15,10,13.2,11.5,10.6"/>
	<path d="M10.4,1c2.2,0,4.5,0.4,4.5,1.6c0,2.6-1.6,5.7-2.5,5.7c-1.5,0-3.3-4.1-3.3-6.2C9.1,1.2,9.5,1,10.4,1"/>
</g>
</svg>
