<svg xmlns="http://www.w3.org/2000/svg" viewBox="0 0 16 16">
<g class="icon-color">
	<path d="M7,13H2V7h5h7h1V3c0-0.552-0.448-1-1-1H2C1.448,2,1,2.448,1,3v10c0,0.552,0.448,1,1,1h5V13z M2,3h12v3H2V3z"/>
	<path d="M3.75,5h-0.5C3.112,5,3,4.888,3,4.75v-0.5C3,4.112,3.112,4,3.25,4h0.5C3.888,4,4,4.112,4,4.25v0.5C4,4.888,3.888,5,3.75,5z
		"/>
	<path d="M5.75,5h-0.5C5.112,5,5,4.888,5,4.75v-0.5C5,4.112,5.112,4,5.25,4h0.5C5.888,4,6,4.112,6,4.25v0.5C6,4.888,5.888,5,5.75,5z
		"/>
	<path d="M7.75,5h-0.5C7.112,5,7,4.888,7,4.75v-0.5C7,4.112,7.112,4,7.25,4h0.5C7.888,4,8,4.112,8,4.25v0.5C8,4.888,7.888,5,7.75,5z
		"/>
	<path d="M15.897,11.399l-1.213-0.346c-0.034-0.097-0.071-0.191-0.115-0.282l0.611-1.101c0.031-0.056,0.021-0.125-0.024-0.17
		l-0.656-0.656c-0.045-0.045-0.115-0.055-0.17-0.024L13.23,9.431c-0.091-0.044-0.186-0.081-0.282-0.115l-0.346-1.213
		C12.583,8.042,12.527,8,12.463,8h-0.927c-0.064,0-0.12,0.042-0.137,0.103l-0.347,1.213c-0.097,0.034-0.191,0.071-0.282,0.115
		L9.67,8.82c-0.055-0.031-0.125-0.021-0.17,0.024L8.844,9.499C8.799,9.545,8.789,9.614,8.82,9.67l0.611,1.101
		c-0.044,0.091-0.081,0.186-0.115,0.282l-1.213,0.346C8.042,11.417,8,11.473,8,11.537v0.927c0,0.064,0.042,0.12,0.103,0.137
		l1.213,0.346c0.034,0.097,0.071,0.191,0.115,0.282L8.819,14.33c-0.031,0.056-0.021,0.125,0.024,0.17l0.656,0.656
		c0.045,0.045,0.115,0.055,0.17,0.024l1.101-0.611c0.091,0.044,0.186,0.081,0.282,0.115l0.346,1.213
		C11.417,15.958,11.473,16,11.537,16h0.927c0.064,0,0.12-0.042,0.137-0.103l0.346-1.213c0.097-0.034,0.191-0.071,0.282-0.115
		l1.101,0.611c0.056,0.031,0.125,0.021,0.17-0.024l0.656-0.656c0.045-0.045,0.055-0.115,0.024-0.17l-0.611-1.101
		c0.044-0.091,0.081-0.186,0.115-0.282l1.213-0.346C15.958,12.583,16,12.527,16,12.463v-0.927
		C16,11.473,15.958,11.417,15.897,11.399z M12,13.5c-0.828,0-1.5-0.672-1.5-1.5s0.672-1.5,1.5-1.5s1.5,0.672,1.5,1.5
		S12.828,13.5,12,13.5z"/>
</g>
</svg>