<svg xmlns="http://www.w3.org/2000/svg" version="1.1" viewBox="0 0 16 16">
<g fill="currentColor">
	<path d="M14,6h-2c0.3-0.4,0.5-0.9,0.5-1.5C12.5,3.1,11.4,2,10,2C9.2,2,8.5,2.4,8,3C7.5,2.4,6.8,2,6,2C4.6,2,3.5,3.1,3.5,4.5
		C3.5,5.1,3.7,5.6,4,6H2C1.4,6,1,6.4,1,7v2h1v6h12V9h1V7C15,6.4,14.6,6,14,6z M10,3c0.8,0,1.5,0.7,1.5,1.5S10.8,6,10,6H8.5V4.5
		C8.5,3.7,9.2,3,10,3z M4.5,4.5C4.5,3.7,5.2,3,6,3s1.5,0.7,1.5,1.5V6H6C5.2,6,4.5,5.3,4.5,4.5z M6,14H3V9h3V14z M6,8H2V7.2
		C2,7.1,2.1,7,2.2,7H6V8z M9,14H7V7h2V14z M13,14h-3V9h3V14z M14,8h-4V7h3.8C13.9,7,14,7.1,14,7.2V8z"/>
</g>
</svg>
