<svg xmlns="http://www.w3.org/2000/svg" version="1.1" viewBox="0 0 16 16">
<g fill="currentColor">
	<path d="M13,2v11.4l-0.6-0.3L12,12.9l-0.4,0.2L10,13.9l-1.6-0.8L8,12.9l-0.4,0.2L6,13.9l-1.6-0.8L4,12.9l-0.4,0.2L3,13.4V2H13
		 M14,1H2c0,4.7,0,14,0,14l2-1l2,1l2-1l2,1l2-1l2,1V1L14,1z"/>
	<rect x="4" y="3" width="4" height="1"/>
	<rect x="6" y="6" width="5" height="1"/>
	<rect x="6" y="8" width="5" height="1"/>
	<rect x="6" y="10" width="5" height="1"/>
	<rect x="4" y="10" width="1" height="1"/>
	<rect x="4" y="8" width="1" height="1"/>
	<rect x="4" y="6" width="1" height="1"/>
</g>
</svg>
