<?xml version="1.0" encoding="utf-8"?>
<!-- Generator: Adobe Illustrator 19.1.0, SVG Export Plug-In . SVG Version: 6.00 Build 0)  -->
<svg version="1.1" xmlns="http://www.w3.org/2000/svg" xmlns:xlink="http://www.w3.org/1999/xlink" x="0px" y="0px"
	 viewBox="0 0 16 16" enable-background="new 0 0 16 16" xml:space="preserve">
<g fill="currentColor">
	<path d="M9.2,8.9C9.2,9,9,9.2,8.9,9.2H6C5.8,9.2,5.7,9,5.7,8.9V8.3C5.7,8.1,5.8,8,6,8h2V4.8c0-0.2,0.1-0.3,0.3-0.3h0.6
		c0.2,0,0.3,0.1,0.3,0.3L9.2,8.9L9.2,8.9z"/>
	<path d="M5.4,6H1.3C1.1,6,1,5.9,1,5.8V1.6c0-0.2,0.3-0.3,0.4-0.2l4.1,4.1C5.7,5.7,5.6,6,5.4,6z"/>
	<path d="M8,1C5.1,1,2.6,2.8,1.6,5.3h1.7C4.2,3.6,6,2.5,8,2.5c3,0,5.5,2.5,5.5,5.5S11,13.5,8,13.5c-1.8,0-3.3-0.8-4.4-2.2l-1.1,1.1
		C3.9,14,5.8,15,8,15c3.9,0,7-3.1,7-7S11.9,1,8,1z"/>
</g>
</svg>
