<?xml version="1.0" encoding="utf-8"?>
<!-- Generator: Adobe Illustrator 25.4.0, SVG Export Plug-In . SVG Version: 6.00 Build 0)  -->
<svg version="1.1" xmlns="http://www.w3.org/2000/svg" xmlns:xlink="http://www.w3.org/1999/xlink" x="0px" y="0px"
	 viewBox="0 0 16 16" enable-background="new 0 0 16 16">
<g fill="currentColor">
	<path d="M8.157,12.95c0.391-0.391,0.391-1.024,0-1.414L5.621,9L13,9c0.552,0,1-0.448,1-1l0-5c0-0.552-0.448-1-1-1h0
		c-0.552,0-1,0.448-1,1l0,4L5.621,7l2.536-2.536c0.391-0.391,0.391-1.024,0-1.414s-1.024-0.39-1.414,0L3.207,6.586L2.5,7.293
		c-0.39,0.39-0.39,1.024,0,1.414l0.707,0.707l3.536,3.536C7.133,13.34,7.766,13.34,8.157,12.95z"/>
</g>
</svg>
