<?xml version="1.0" encoding="UTF-8" standalone="no"?>
<svg width="16px" height="16px" viewBox="0 0 16 16" version="1.1" xmlns="http://www.w3.org/2000/svg" xmlns:xlink="http://www.w3.org/1999/xlink" xmlns:sketch="http://www.bohemiancoding.com/sketch/ns">
    <!-- Generator: Sketch 3.4 (15575) - http://www.bohemiancoding.com/sketch -->
    <title>actions-edit-hide</title>
    <desc>Created with Sketch.</desc>
    <defs></defs>
    <g class="icon-color">
        <path d="M0,8 C0,5.23857625 2.24157855,3 4.99668583,3 L11.0033142,3 C13.7629076,3 16,5.24419519 16,8 L16,8 C16,10.7614237 13.7584215,13 11.0033142,13 L4.99668583,13 C2.23709245,13 0,10.7558048 0,8 L0,8 Z M11,11 C12.6568542,11 14,9.65685425 14,8 C14,6.34314575 12.6568542,5 11,5 C9.34314575,5 8,6.34314575 8,8 C8,9.65685425 9.34314575,11 11,11 Z" id="actions-edit-hide"></path>
    </g>
</svg>