<svg xmlns="http://www.w3.org/2000/svg" version="1.1" viewBox="0 0 16 16">
<g fill="currentColor">
	<path d="M14.751,7.646L7.854,0.749c-0.195-0.195-0.512-0.195-0.707,0l-1.41,1.41L6.99,3.411C7.148,3.35,7.32,3.313,7.5,3.313
		c0.777,0,1.406,0.63,1.406,1.406c0,0.18-0.037,0.352-0.099,0.51l1.464,1.464c0.159-0.062,0.33-0.099,0.51-0.099
		c0.777,0,1.406,0.63,1.406,1.406c0,0.777-0.63,1.406-1.406,1.406S9.375,8.777,9.375,8c0-0.229,0.06-0.442,0.157-0.632L8.132,5.968
		C8.079,5.995,8.024,6.019,7.967,6.04V9.96c0.546,0.193,0.94,0.709,0.94,1.321c0,0.777-0.63,1.406-1.406,1.406
		s-1.406-0.63-1.406-1.406c0-0.588,0.361-1.09,0.873-1.3V6.019c-0.512-0.21-0.873-0.712-0.873-1.3c0-0.229,0.06-0.442,0.157-0.632
		L5.03,2.865L0.249,7.646c-0.195,0.195-0.195,0.512,0,0.707l6.898,6.898c0.195,0.195,0.512,0.195,0.707,0l6.898-6.898
		C14.947,8.158,14.947,7.842,14.751,7.646z"/>
</g>
</svg>
