<?xml version="1.0" encoding="utf-8"?>
<!-- Generator: Adobe Illustrator 25.1.0, SVG Export Plug-In . SVG Version: 6.00 Build 0)  -->
<svg version="1.1" id="Ebene_1" xmlns="http://www.w3.org/2000/svg" xmlns:xlink="http://www.w3.org/1999/xlink" x="0px" y="0px"
	 viewBox="0 0 16 16" enable-background="new 0 0 16 16" xml:space="preserve">
<g fill="currentColor">
	<path d="M12.1,5.3L11.7,5c-0.1-0.1-0.3-0.1-0.4,0L6.6,9.8l-2-2c-0.1-0.1-0.3-0.1-0.4,0L3.9,8.2c-0.1,0.1-0.1,0.3,0,0.4L6,10.7
		L6.4,11c0.1,0.1,0.3,0.1,0.4,0l0.4-0.4l4.9-4.9C12.2,5.6,12.2,5.4,12.1,5.3z"/>
	<path d="M13,2c0.6,0,1,0.4,1,1v10c0,0.6-0.4,1-1,1H3c-0.6,0-1-0.4-1-1V3c0-0.6,0.4-1,1-1H13 M13,1H3C1.9,1,1,1.9,1,3v10
		c0,1.1,0.9,2,2,2h10c1.1,0,2-0.9,2-2V3C15,1.9,14.1,1,13,1L13,1z"/>
</g>
</svg>
