<svg xmlns="http://www.w3.org/2000/svg" version="1.1" viewBox="0 0 16 16">
<g fill="currentColor">
<path d="M8.172,11H3.5C2.672,11,2,10.328,2,9.5c0-0.723,0.516-1.34,1.216-1.473
	l0.711-0.135L4.02,7.174C4.032,7.083,4.058,6.997,4.08,6.91L3.296,6.124c-0.125,0.291-0.224,0.595-0.267,0.92
	C1.874,7.264,1,8.28,1,9.5C1,10.881,2.119,12,3.5,12h5.672L8.172,11z"/>
<path d="M15,10c0-0.809-0.48-1.506-1.171-1.821c0,0-0.435-0.179-0.879-0.179
	c0.117-0.456,0-1,0-1c-0.231-1.141-1.24-2-2.45-2c-0.455,0-0.882,0.122-1.25,0.335C8.609,4.522,7.615,4,6.5,4
	C5.929,4,5.397,4.148,4.921,4.391L2.608,2.078l-0.53,0.53l11.314,11.314l0.53-0.53L12.53,12H13C14.105,12,15,11.105,15,10z
	 M5.676,5.146C5.935,5.055,6.211,5,6.5,5c0.777,0,1.493,0.355,1.965,0.954l0.536,0.68L9.751,6.2C9.976,6.07,10.232,6,10.5,6
	C11.328,6,12,6.672,12,7.5c0,0.103-0.01,0.203-0.03,0.301l-0.25,1.23L12.974,9C12.987,9,12.987,9,13,9c0.552,0,1,0.448,1,1
	s-0.448,1-1,1h-1.47L5.676,5.146z"/>
</g>
</svg>
