<?xml version="1.0" encoding="utf-8"?>
<!-- Generator: Adobe Illustrator 19.1.0, SVG Export Plug-In . SVG Version: 6.00 Build 0)  -->
<svg version="1.1" xmlns="http://www.w3.org/2000/svg" xmlns:xlink="http://www.w3.org/1999/xlink" x="0px" y="0px"
	 viewBox="0 0 16 16" enable-background="new 0 0 16 16">
<g fill="currentColor">
	<path d="M14.819,6.948l-2.122-0.606c-0.06-0.169-0.124-0.334-0.201-0.494l1.07-1.926c0.054-0.098,0.037-0.219-0.042-0.298
		l-1.148-1.148c-0.079-0.079-0.201-0.096-0.298-0.042l-1.926,1.07c-0.16-0.077-0.325-0.141-0.494-0.201L9.052,1.181
		C9.021,1.074,8.923,1,8.811,1H7.189c-0.112,0-0.21,0.074-0.24,0.181L6.342,3.304c-0.169,0.06-0.334,0.124-0.494,0.201l-1.926-1.07
		C3.825,2.38,3.703,2.398,3.624,2.477L2.477,3.624C2.398,3.703,2.38,3.825,2.435,3.922l1.07,1.926
		c-0.077,0.16-0.141,0.325-0.201,0.494L1.181,6.948C1.074,6.979,1,7.077,1,7.189v1.623c0,0.112,0.074,0.21,0.181,0.24l2.122,0.606
		c0.06,0.169,0.124,0.334,0.201,0.494l-1.07,1.926c-0.054,0.098-0.037,0.219,0.042,0.298l1.148,1.148
		c0.079,0.079,0.201,0.096,0.298,0.042l1.926-1.07c0.16,0.077,0.325,0.141,0.494,0.201l0.606,2.122C6.979,14.926,7.077,15,7.189,15
		h1.623c0.112,0,0.21-0.074,0.24-0.181l0.606-2.122c0.169-0.06,0.334-0.124,0.494-0.201l1.926,1.07
		c0.098,0.054,0.219,0.037,0.298-0.042l1.148-1.148c0.079-0.079,0.096-0.201,0.042-0.298l-1.07-1.926
		c0.077-0.16,0.141-0.325,0.201-0.494l2.122-0.606C14.926,9.021,15,8.923,15,8.811V7.189C15,7.077,14.926,6.979,14.819,6.948z M8,11
		c-1.657,0-3-1.343-3-3s1.343-3,3-3s3,1.343,3,3S9.657,11,8,11z"/>
</g>
</svg>
