<svg xmlns="http://www.w3.org/2000/svg" viewBox="0 0 16 16">
<g>
	<path d="M5.4,13.7c5.3,0,8.2-4.4,8.2-8.2c0-0.1,0-0.2,0-0.4c0.6-0.4,1-0.9,1.4-1.5c-0.5,0.2-1.1,0.4-1.6,0.5
		c0.6-0.4,1-0.9,1.3-1.6c-0.6,0.3-1.2,0.6-1.8,0.7c-0.5-0.6-1.3-0.9-2.1-0.9c-1.6,0-2.9,1.3-2.9,2.9c0,0.2,0,0.4,0.1,0.7
		C5.5,5.7,3.4,4.6,2,2.8C1.7,3.3,1.6,3.8,1.6,4.3c0,1,0.5,1.9,1.3,2.4c-0.5,0-0.9-0.1-1.3-0.4c0,0,0,0,0,0c0,1.4,1,2.6,2.3,2.8
		C3.6,9.2,3.4,9.3,3.1,9.3c-0.2,0-0.4,0-0.5-0.1c0.4,1.1,1.4,2,2.7,2c-1,0.8-2.2,1.2-3.6,1.2c-0.2,0-0.5,0-0.7,0
		C2.3,13.2,3.8,13.7,5.4,13.7"/>
</g>
</svg>