<?xml version="1.0" encoding="utf-8"?>
<!-- Generator: Adobe Illustrator 24.3.0, SVG Export Plug-In . SVG Version: 6.00 Build 0)  -->
<svg version="1.1" xmlns="http://www.w3.org/2000/svg" xmlns:xlink="http://www.w3.org/1999/xlink" x="0px" y="0px"
	 viewBox="0 0 16 16" enable-background="new 0 0 16 16">
<g fill="currentColor">
	<rect x="4" y="2" width="1" height="12"/>
	<path d="M3,4l1.5-2L6,4h1L4.7,1C4.6,0.9,4.4,0.9,4.3,1L2,4H3z"/>
	<polygon points="9,5 14,5 14,4 8,4 8,6 9,6 	"/>
	<polygon points="9,8 12,8 12,7 8,7 8,9 9,9 	"/>
	<polygon points="9,11 10,11 10,10 8,10 8,12 9,12 	"/>
</g>
</svg>
