<svg xmlns="http://www.w3.org/2000/svg" viewBox="0 0 16 16">
<g class="icon-color">
	<path d="M13,2v12H3V2H13 M14,1H2v14h12V1L14,1z"/>
	<rect x="4" y="9" width="2" height="1"/>
	<rect x="7" y="9" width="2" height="1"/>
	<rect x="10" y="9" width="2" height="1"/>
	<rect x="4" y="11" width="2" height="1"/>
	<rect x="7" y="11" width="2" height="1"/>
	<rect x="10" y="11" width="2" height="1"/>
	<rect x="4" y="7" width="2" height="1"/>
	<rect x="7" y="7" width="2" height="1"/>
	<rect x="10" y="7" width="2" height="1"/>
	<rect x="4" y="5" width="2" height="1"/>
	<rect x="7" y="5" width="2" height="1"/>
	<rect x="10" y="5" width="2" height="1"/>
	<rect x="4" y="3" width="2" height="1"/>
	<rect x="7" y="3" width="2" height="1"/>
	<rect x="10" y="3" width="2" height="1"/>
</g>
</svg>