<?xml version="1.0" encoding="utf-8"?>
<!-- Generator: Adobe Illustrator 22.1.0, SVG Export Plug-In . SVG Version: 6.00 Build 0)  -->
<svg version="1.1" xmlns="http://www.w3.org/2000/svg" xmlns:xlink="http://www.w3.org/1999/xlink" x="0px" y="0px"
	 viewBox="0 0 16 16" enable-background="new 0 0 16 16" xml:space="preserve">
<g fill="currentColor">
	<path d="M13.7,3.8l-1.4-1.4c-0.8-0.8-2-0.8-2.8,0L5.9,5.9c-0.8,0.8-0.8,2,0,2.8l1.2,1.2L8,9.1L6.9,8c-0.4-0.4-0.4-1,0-1.4l3.2-3.2
		c0.4-0.4,1-0.4,1.4,0l1.1,1.1c0.4,0.4,0.4,1,0,1.4l-1.3,1.3c0.2,0.4,0.4,0.9,0.4,1.4l2-2C14.4,5.8,14.4,4.5,13.7,3.8z"/>
	<path d="M8.9,6.1L8,6.9L9.1,8c0.4,0.4,0.4,1,0,1.4l-3.2,3.2c-0.4,0.4-1,0.4-1.4,0l-1.1-1.1c-0.4-0.4-0.4-1,0-1.4l1.3-1.3
		C4.5,8.4,4.3,7.9,4.3,7.4l-2,2c-0.8,0.8-0.8,2,0,2.8l1.4,1.4c0.8,0.8,2,0.8,2.8,0l3.5-3.5c0.8-0.8,0.8-2,0-2.8L8.9,6.1z"/>
</g>
</svg>
