<?xml version="1.0" encoding="utf-8"?>
<!-- Generator: Adobe Illustrator 22.1.0, SVG Export Plug-In . SVG Version: 6.00 Build 0)  -->
<svg version="1.1" xmlns="http://www.w3.org/2000/svg" xmlns:xlink="http://www.w3.org/1999/xlink" x="0px" y="0px"
	 viewBox="0 0 32 32" enable-background="new 0 0 32 32">
<g>
	<path fill="#5599FF" d="M10.7,6h16.4C27.6,6,28,6.4,28,6.9v18.2c0,0.5-0.4,0.9-0.9,0.9h-10L10.7,6z"/>
</g>
<path fill="#FFFFFF" d="M14.4,13.5V13c0-0.4,0.3-0.7,0.7-0.7h3.9v-1.1c0-0.4,0.3-0.7,0.7-0.7H20c0.4,0,0.7,0.3,0.7,0.7v1.1h3.9
	c0.4,0,0.7,0.3,0.7,0.7v0.5c0,0.4-0.3,0.7-0.7,0.7h-0.9c-0.4,1.4-1.3,2.9-2.6,4.3c0.6,0.5,1.2,1,1.8,1.4c0.3,0.2,0.4,0.6,0.2,0.9
	l-0.2,0.4c-0.2,0.3-0.6,0.4-1,0.2c-0.7-0.5-1.4-1-2.1-1.6c-0.7,0.6-1.4,1.1-2.2,1.6c-0.3,0.2-0.8,0.1-1-0.2l-0.2-0.4
	c-0.2-0.3-0.1-0.7,0.2-0.9c0.6-0.4,1.3-0.9,1.8-1.4c-0.6-0.6-1.1-1.3-1.5-1.9c-0.2-0.3-0.1-0.8,0.2-1l0.4-0.2
	c0.3-0.2,0.7-0.1,0.9,0.2c0.4,0.5,0.8,1.1,1.2,1.6c0.9-1,1.5-2,1.9-3H15C14.7,14.2,14.4,13.9,14.4,13.5L14.4,13.5z"/>
<polygon fill="#212121" opacity="0.25" points="24,26 11,26 11,6 17.7,6 "/>
<g>
	<path fill="#C83C3C" d="M23,27H5c-0.5,0-1-0.4-1-1V6c0-0.6,0.4-1,1-1h11L23,27z"/>
</g>
<path fill="#FFFFFF" d="M7,22l3.8-12H14l3.8,12h-2.9l-0.7-2.9h-3.7L9.8,22H7z M11.3,15.9L11,17h2.6l-0.3-1.1
	c-0.2-0.6-0.3-1.2-0.5-1.9c-0.2-0.7-0.3-1.3-0.5-2h-0.1c-0.1,0.6-0.3,1.3-0.5,2C11.7,14.7,11.5,15.3,11.3,15.9z"/>
</svg>
