<svg xmlns="http://www.w3.org/2000/svg" version="1.1" viewBox="0 0 32 32">
<path fill="#777BB3" d="M24.8,5H7.2C7.1,5,7,5.1,6.9,5.1L4,10.9V11v15.7C4,26.9,4.1,27,4.3,27h23.5c0.1,0,0.3-0.1,0.3-0.3V11.1V11
	l-2.9-5.8C25,5.1,24.9,5,24.8,5z"/>
<g opacity="0.15">
	<path fill="#FFFFFF" d="M24.8,5H7.2C7.1,5,7,5.1,6.9,5.1l-1,2.2h20.3l-1.1-2.1C25,5.1,24.9,5,24.8,5z"/>
	<polygon fill="#FFFFFF" points="26.9,8.8 5.1,8.8 4,11 28,11 	"/>
	<path fill="#FFFFFF" d="M4.8,23l1.2,2l0-1l2.7,0c0.2,0,0.3-0.1,0.4-0.3l1.4-2.5c0.1-0.2,0.1-0.3,0-0.5l-1.4-2.4l-1.7,1L9,22l-3,0
		L6,21L4.8,23z"/>
	<path fill="#FFFFFF" d="M4,16.7L5,15l1.5,2.6l-0.9,0.5H8l1.2-2.1l-0.9,0.5l-1.4-2.4C6.8,14.1,6.6,14,6.4,14H4V16.7z"/>
</g>
<g>
	<path fill="#FFFFFF" d="M10.3,16.7h2.4c0.7,0,1.2,0.2,1.5,0.6s0.4,0.9,0.3,1.6c0,0.3-0.1,0.6-0.3,0.9c-0.1,0.3-0.3,0.6-0.6,0.8
		c-0.3,0.3-0.6,0.5-0.9,0.6c-0.3,0.1-0.7,0.1-1,0.1h-1.1L10.2,23H9L10.3,16.7L10.3,16.7 M11.3,17.7l-0.5,2.6h0.1H11
		c0.6,0,1,0,1.4-0.2c0.4-0.1,0.6-0.6,0.8-1.3c0.1-0.6,0-1-0.3-1.1s-0.7-0.1-1.2-0.1c-0.1,0-0.1,0-0.2,0
		C11.4,17.7,11.4,17.7,11.3,17.7L11.3,17.7"/>
	<path fill="#FFFFFF" d="M15.9,15h1.2l-0.3,1.7h1.1c0.6,0,1.1,0.1,1.3,0.4c0.3,0.2,0.4,0.7,0.3,1.3l-0.6,2.9h-1.2l0.6-2.8
		c0.1-0.3,0-0.5-0.1-0.6s-0.3-0.2-0.6-0.2h-1l-0.7,3.6h-1.2L15.9,15L15.9,15"/>
	<path fill="#FFFFFF" d="M20.8,16.7h2.4c0.7,0,1.2,0.2,1.5,0.6s0.4,0.9,0.3,1.6c0,0.3-0.1,0.6-0.3,0.9c-0.1,0.3-0.3,0.6-0.6,0.8
		c-0.3,0.3-0.6,0.5-0.9,0.6s-0.7,0.1-1,0.1h-1.1L20.7,23h-1.2L20.8,16.7L20.8,16.7 M21.8,17.7l-0.5,2.6h0.1h0.1c0.6,0,1,0,1.4-0.2
		c0.4-0.1,0.6-0.6,0.8-1.3c0.1-0.6,0-1-0.3-1.1s-0.7-0.1-1.2-0.1c-0.1,0-0.1,0-0.2,0C21.9,17.7,21.9,17.7,21.8,17.7L21.8,17.7"/>
</g>
</svg>
