<svg xmlns="http://www.w3.org/2000/svg" viewBox="0 0 32 32">
<rect x="2" y="4" fill="#5599FF" width="22" height="22"/>
<ellipse fill="#5599FF" cx="13" cy="26" rx="11" ry="4"/>
<ellipse fill="#5599FF" cx="13" cy="4" rx="11" ry="4"/>
<g opacity="0.25">
	<ellipse fill="#FFF" cx="13" cy="4" rx="11" ry="4"/>
	<ellipse fill="#212121" cx="13" cy="4" rx="7" ry="2"/>
</g>
<rect x="14" y="13" fill="#FFC857" width="16" height="16"/>
	<ellipse fill="#FFC857" cx="22" cy="29" rx="8" ry="3"/>
	<ellipse fill="#FFC857" cx="22" cy="13" rx="8" ry="3"/>
<g opacity="0.25">
	<ellipse fill="#FFF" cx="22" cy="13" rx="8" ry="3"/>
	<ellipse cx="22" cy="13" rx="5" ry="1.5"/>
</g>
<path fill="#FFF" d="M20.5,27.8l4.5-5.7c0.1-0.2,0.1-0.5-0.2-0.5h-1.8c-0.2,0-0.3-0.1-0.2-0.3l1.6-2.8c0.1-0.2,0.1-0.5-0.2-0.5
	h-3.2c-0.2,0-0.4,0.2-0.5,0.3l-1.4,5c-0.1,0.2,0.1,0.3,0.3,0.3h1.6c0.2,0,0.3,0.2,0.2,0.3c0,0-1.4,3.5-1.4,3.6
	c0,0.2,0.2,0.4,0.4,0.4c0.1,0,0.2,0,0.3-0.1C20.4,27.9,20.4,27.8,20.5,27.8z"/>
</svg>