<?xml version="1.0" encoding="utf-8"?>
<!-- Generator: Adobe Illustrator 22.1.0, SVG Export Plug-In . SVG Version: 6.00 Build 0)  -->
<svg version="1.1" xmlns="http://www.w3.org/2000/svg" xmlns:xlink="http://www.w3.org/1999/xlink" x="0px" y="0px"
	 viewBox="0 0 32 32" enable-background="new 0 0 32 32">
<g>
	<rect x="6" y="3" fill="#9F6358" width="20" height="27"/>
</g>
<g>
	<polygon fill="#7C4C46" points="26,3 6,3 7,2 25,2 	"/>
</g>
<rect x="8" y="6" fill="#FFFFFF" width="16" height="22"/>
<polygon fill="#FFC857" points="20,2 12,2 11,3 11,7 21,7 21,3 "/>
<polygon fill="#212121" opacity="0.15" points="21,3 11,3 12,2 20,2 "/>
<rect fill="#212121" x="10" y="9" opacity="0.75" width="11" height="1"/>
<rect fill="#212121" x="10" y="11" opacity="0.75" width="8" height="1"/>
<rect fill="#212121" x="10" y="13" opacity="0.75" width="8" height="1"/>
<rect fill="#212121" x="10" y="17" opacity="0.5" width="12" height="1"/>
<rect fill="#212121" x="10" y="19" opacity="0.5" width="12" height="1"/>
<rect fill="#212121" x="10" y="21" opacity="0.5" width="12" height="1"/>
<rect fill="#212121" x="10" y="23" opacity="0.5" width="12" height="1"/>
<rect fill="#212121" x="10" y="25" opacity="0.5" width="12" height="1"/>
<rect fill="#212121" x="12" y="4" opacity="0.15" width="8" height="2"/>
</svg>
