<svg xmlns="http://www.w3.org/2000/svg" viewBox="0 0 32 32">
<g>
	<g transform="matrix(0,1,-1,0,0.95913124,48.25)">
	</g>
	<g transform="matrix(0,1,-1,0,0.959131,48.25)">
	</g>
	<g transform="matrix(0,1,-1,0,0.95913124,48.25)">
	</g>
	<g transform="matrix(0,-1,1,0,13.959142,-32.216101)">
	</g>
	<g transform="translate(-1.000001,1)">
		<g>
			<path fill="#C83C3C" d="M6,1v28h22V7l-6-6H6z"/>
		</g>
	</g>
	<g>
	</g>
</g>
<path opacity="0.65" fill="#FFF" d="M21,8V2l6,6H21z"/>
<path opacity="0.15" fill="#212121" d="M27,8v3v3l-6-6L27,8z"/>
<g>
	<path fill="#FFF" d="M19.9,15.5L17.4,18l2.5,2.5c0.2,0.2,0.2,0.5,0,0.7l-0.7,0.7c-0.2,0.2-0.5,0.2-0.7,0L16,19.4l-2.5,2.5
		c-0.2,0.2-0.5,0.2-0.7,0l-0.7-0.7c-0.2-0.2-0.2-0.5,0-0.7l2.5-2.5l-2.5-2.5c-0.2-0.2-0.2-0.5,0-0.7l0.7-0.7c0.2-0.2,0.5-0.2,0.7,0
		l2.5,2.5l2.5-2.5c0.2-0.2,0.5-0.2,0.7,0l0.7,0.7C20.1,15,20.1,15.3,19.9,15.5z"/>
</g>
</svg>