<?xml version="1.0" encoding="utf-8"?>
<!-- Generator: Adobe Illustrator 22.1.0, SVG Export Plug-In . SVG Version: 6.00 Build 0)  -->
<svg version="1.1" id="Ebene_1" xmlns="http://www.w3.org/2000/svg" xmlns:xlink="http://www.w3.org/1999/xlink" x="0px" y="0px"
	 viewBox="0 0 32 32" enable-background="new 0 0 32 32" xml:space="preserve">
<g id="container_1_">
	<rect x="2" y="4" fill="#5599FF" width="22" height="22"/>
	<g>
		<ellipse fill="#5599FF" cx="13" cy="26" rx="11" ry="4"/>
	</g>
	<g>
		<ellipse fill="#5599FF" cx="13" cy="4" rx="11" ry="4"/>
	</g>
	<g opacity="0.25">
		<ellipse fill="#FFFFFF" cx="13" cy="4" rx="11" ry="4"/>
	</g>
	<g opacity="0.25">
		<ellipse cx="13" cy="4" rx="7" ry="2"/>
	</g>
</g>
<g id="container_2_">
	<rect x="14" y="13" fill="#FFC857" width="16" height="16"/>
	<g>
		<ellipse fill="#FFC857" cx="22" cy="29" rx="8" ry="3"/>
	</g>
	<g>
		<ellipse fill="#FFC857" cx="22" cy="13" rx="8" ry="3"/>
	</g>
	<g opacity="0.25">
		<ellipse fill="#FFFFFF" cx="22" cy="13" rx="8" ry="3"/>
	</g>
	<g opacity="0.25">
		<ellipse cx="22" cy="13" rx="5" ry="1.5"/>
	</g>
</g>
<g>
	<path fill="#FFFFFF" d="M20.5,27.8l4.5-5.7c0.1-0.2,0.1-0.5-0.2-0.5h-1.8c-0.2,0-0.3-0.1-0.2-0.3l1.6-2.8c0.1-0.2,0.1-0.5-0.2-0.5
		h-3.2c-0.2,0-0.4,0.2-0.5,0.3l-1.4,5c-0.1,0.2,0.1,0.3,0.3,0.3h1.6c0.2,0,0.3,0.2,0.2,0.3c0,0-1.4,3.5-1.4,3.6
		c0,0.2,0.2,0.4,0.4,0.4c0.1,0,0.2,0,0.3-0.1C20.4,27.9,20.4,27.8,20.5,27.8z"/>
</g>
</svg>
