<?xml version="1.0" encoding="utf-8"?>
<!-- Generator: Adobe Illustrator 22.1.0, SVG Export Plug-In . SVG Version: 6.00 Build 0)  -->
<svg version="1.1" id="Ebene_1" xmlns="http://www.w3.org/2000/svg" xmlns:xlink="http://www.w3.org/1999/xlink" x="0px" y="0px"
	 viewBox="0 0 32 32" enable-background="new 0 0 32 32" xml:space="preserve">
<path fill="#FFC857" d="M24.8,5H7.2C7.1,5,7,5.1,6.9,5.1L4,10.9V11v15.7C4,26.9,4.1,27,4.3,27h23.5c0.1,0,0.3-0.1,0.3-0.3V11.1V11
	l-2.9-5.8C25,5.1,24.9,5,24.8,5z"/>
<g opacity="0.15">
	<path d="M24.8,5H7.2C7.1,5,7,5.1,6.9,5.1l-1,2.2h20.3l-1.1-2.1C25,5.1,24.9,5,24.8,5z"/>
	<polygon points="26.9,8.8 5.1,8.8 4,11 28,11 	"/>
</g>
<g>
	<path fill="#515151" d="M23.6,28.3l-2.8-2.8c-0.4,0.6-0.9,1.1-1.5,1.5l2.8,2.7c0.2,0.2,0.5,0.3,0.8,0.3c0.6,0,1.1-0.5,1.1-1.1
		C24,28.7,23.8,28.5,23.6,28.3z"/>
	<circle fill="#ABD7FF" cx="15.9" cy="22.1" r="6"/>
	<path fill="#5599FF" d="M15.9,17.6c2.5,0,4.5,2,4.5,4.5s-2,4.5-4.5,4.5s-4.5-2-4.5-4.5S13.4,17.6,15.9,17.6 M15.9,16.1
		c-3.3,0-6,2.7-6,6s2.7,6,6,6s6-2.7,6-6S19.3,16.1,15.9,16.1L15.9,16.1z"/>
	<circle opacity="0.6" fill="#FFFFFF" enable-background="new    " cx="17.5" cy="20.6" r="1.5"/>
</g>
</svg>
