<?xml version="1.0" encoding="utf-8"?>
<!-- Generator: Adobe Illustrator 22.1.0, SVG Export Plug-In . SVG Version: 6.00 Build 0)  -->
<svg version="1.1" id="Ebene_1" xmlns="http://www.w3.org/2000/svg" xmlns:xlink="http://www.w3.org/1999/xlink" x="0px" y="0px"
	 viewBox="0 0 32 32" enable-background="new 0 0 32 32" xml:space="preserve">
<g id="container_2_">
	<rect x="6" y="5.5" fill="#79A548" width="20" height="21"/>
	<g>
		<ellipse fill="#79A548" cx="16" cy="26.5" rx="10" ry="3.5"/>
		<ellipse fill="#79A548" cx="16" cy="5.5" rx="10" ry="3.5"/>
	</g>
	<g opacity="0.25">
		<ellipse fill="#FFFFFF" cx="16" cy="5.5" rx="10" ry="3.5"/>
		<ellipse fill="#212121" cx="16" cy="5.3" rx="7" ry="1.8"/>
	</g>
</g>
<g>
	<path fill="#FFFFFF" d="M22.1,17.9L22.1,17.9c-0.1-0.1-0.2-0.2-0.4-0.2h-0.9c-0.1-2.5-2.2-4.5-4.7-4.5c-0.8,0-1.7,0.2-2.4,0.7
		L13.4,14l0.7,1.2l0.2-0.1c0.5-0.3,1.1-0.5,1.7-0.5c1.8,0,3.3,1.4,3.4,3.2h-0.8c-0.2,0-0.3,0.1-0.4,0.2c-0.1,0.1-0.1,0.3,0,0.4
		l1.5,2.5C19.9,21,20,21,20.2,21s0.3-0.1,0.4-0.2l1.5-2.5C22.2,18.2,22.2,18.1,22.1,17.9z"/>
	<path fill="#FFFFFF" d="M17.6,21c-0.5,0.3-1.1,0.4-1.7,0.4c-1.8,0-3.3-1.4-3.4-3.2h0.8c0.2,0,0.3-0.1,0.4-0.2
		c0.1-0.1,0.1-0.3,0-0.4l-1.5-2.5c-0.2-0.2-0.6-0.2-0.7,0l-1.5,2.5c-0.1,0.1-0.1,0.3,0,0.4c0.1,0.1,0.2,0.2,0.4,0.2h0.9
		c0.1,2.5,2.2,4.5,4.7,4.5c0.8,0,1.6-0.2,2.4-0.6l0.2-0.1l-0.7-1.1L17.6,21z"/>
</g>
</svg>
