<?xml version="1.0" encoding="utf-8"?>
<!-- Generator: Adobe Illustrator 22.1.0, SVG Export Plug-In . SVG Version: 6.00 Build 0)  -->
<svg version="1.1" id="Ebene_1" xmlns="http://www.w3.org/2000/svg" xmlns:xlink="http://www.w3.org/1999/xlink" x="0px" y="0px"
	 viewBox="0 0 32 32" enable-background="new 0 0 32 32" xml:space="preserve">
<path fill="#CCE9FF" d="M27.3,25.5L20,15.9V4h-8v11.9l-7.3,9.6C3.6,27.5,5,30,7.3,30h17.3C27,30,28.4,27.5,27.3,25.5z"/>
<path fill="#5599FF" d="M27.3,25.5L25.3,23c-1.4,0.1-2.7,0.2-3.6,0.1c-4.2-0.1-4.4-2.9-8.7-2.9c-1.6,0-3.2,0.3-4.7,0.6l-3.5,4.7
	C3.6,27.5,5,30,7.3,30c0,0,4.7,1,8.7,1c4.7,0,8.7-1,8.7-1C27,30,28.4,27.5,27.3,25.5z"/>
<circle fill="#5599FF" cx="17" cy="16" r="1"/>
<circle fill="#5599FF" cx="17.5" cy="9" r="0.5"/>
<circle fill="#5599FF" cx="15.5" cy="12" r="0.5"/>
<circle fill="#5599FF" cx="13.5" cy="18" r="0.5"/>
<circle fill="#5599FF" cx="15" cy="7" r="1"/>
<ellipse fill="#ABD7FF" cx="16" cy="4" rx="4" ry="1"/>
<g opacity="0.25">
	<ellipse fill="#5599FF" cx="16" cy="4" rx="3.8" ry="0.8"/>
	<path d="M16,3.5c1.8,0,2.9,0.3,3.4,0.5c-0.4,0.2-1.6,0.5-3.4,0.5S13.1,4.2,12.6,4C13.1,3.8,14.2,3.5,16,3.5 M16,3c-2.2,0-4,0.4-4,1
		s1.8,1,4,1s4-0.4,4-1S18.2,3,16,3L16,3z"/>
</g>
</svg>
