<svg xmlns="http://www.w3.org/2000/svg" viewBox="0 0 32 32">
<path fill="#5599FF" d="M27,6H5V3c0-0.6,0.4-1,1-1h20c0.6,0,1,0.4,1,1V6z"/>
<path fill="#515151" d="M26,30H6c-0.6,0-1-0.4-1-1V6h22v23C27,29.6,26.6,30,26,30z"/>
<path fill="#FFF" d="M22,18.6v-1.3h-0.2l-1.3-0.6L20,15.8l0.8-1.5l-0.9-0.9h-0.2l-1.3,0.8l-0.9-0.4
	L16.6,12h-1.3v0.2l-0.6,1.3L13.8,14l-1.5-0.8l-0.9,0.9v0.2l0.8,1.3l-0.4,0.9L10,17.4v1.3h0.2l1.3,0.6l0.5,0.9l-0.8,1.5l0.9,1
	l0.2-0.1l1.3-0.8l0.9,0.4l0.6,1.7h1.4v-0.2l0.6-1.3L18,22l1.5,0.8l0.9-0.9v-0.2l-0.8-1.3l0.5-0.9L22,18.6z M16,21c-1.7,0-3-1.3-3-3
	s1.3-3,3-3s3,1.3,3,3S17.7,21,16,21z"/>
</svg>