<?xml version="1.0" encoding="utf-8"?>
<!-- Generator: Adobe Illustrator 22.1.0, SVG Export Plug-In . SVG Version: 6.00 Build 0)  -->
<svg version="1.1" id="Ebene_1" xmlns="http://www.w3.org/2000/svg" xmlns:xlink="http://www.w3.org/1999/xlink" x="0px" y="0px"
	 viewBox="0 0 32 32" enable-background="new 0 0 32 32" xml:space="preserve">
<g>
	<rect x="6" y="4" fill="#9F6358" width="20" height="26"/>
</g>
<rect fill="#FFFFFF" x="6" y="4" opacity="0.2" width="2" height="26"/>
<rect fill="#212121" x="8" y="4" opacity="0.2" width="1" height="26"/>
<path fill="#FFFFFF" opacity="0.8" d="M21.8,12h-9.5c-0.1,0-0.3-0.1-0.3-0.3V7.3C12,7.1,12.1,7,12.3,7h9.5C21.9,7,22,7.1,22,7.3v4.5
	C22,11.9,21.9,12,21.8,12z"/>
<g>
	<polygon fill="#7C4C46" points="26,4 6,4 7,2 25,2 	"/>
</g>
<polygon fill="#FFFFFF" opacity="0.2" points="8,4 6,4 7,2 9,2 "/>
<polygon fill="#212121" opacity="0.2" points="9,4 8,4 9,2 10,2 "/>
<polygon fill="#FFFFFF" opacity="0.8" points="25.8,3.5 7,3.5 7.5,2.5 25.3,2.5 "/>
<g>
	<path fill="#FFFFFF" d="M17.8,26.1c0,0-0.1,0-0.1,0c-0.4,0-0.9-1.4-0.9-1.8c0-0.2,0-0.2,0.1-0.3c-0.5,0.1-1,0.2-1.2,0.5
		c-0.1,0-0.1,0.1-0.1,0.3c0,0.7,0.8,2.3,1.3,2.3C17,27,17.4,26.6,17.8,26.1 M17.5,24c0.5,0,1,0.1,1,0.4c0,0.5-0.4,1.2-0.5,1.2
		c-0.3,0-0.7-0.9-0.7-1.3C17.3,24,17.3,24,17.5,24"/>
</g>
</svg>
