<?xml version="1.0" encoding="utf-8"?>
<!-- Generator: Adobe Illustrator 22.1.0, SVG Export Plug-In . SVG Version: 6.00 Build 0)  -->
<svg version="1.1" xmlns="http://www.w3.org/2000/svg" xmlns:xlink="http://www.w3.org/1999/xlink" x="0px" y="0px"
	 viewBox="0 0 32 32" enable-background="new 0 0 32 32">
<path fill="#5599FF" d="M27,6H5V3c0-0.6,0.4-1,1-1h20c0.6,0,1,0.4,1,1V6z"/>
<path fill="#515151" d="M26,30H6c-0.6,0-1-0.4-1-1V6h22v23C27,29.6,26.6,30,26,30z"/>
<path fill="#FFFFFF" d="M23.5,18H22c0-3.3-2.7-6-6-6c-1.1,0-2.2,0.3-3.1,0.8l0.6,1c0.7-0.4,1.6-0.7,2.4-0.7c2.7,0,4.9,2.2,4.9,4.9
	h-1.4c-0.2,0-0.3,0.2-0.2,0.4l2,3.3c0.1,0.2,0.3,0.2,0.4,0l2-3.3C23.9,18.2,23.7,18,23.5,18z"/>
<path fill="#FFFFFF" d="M18.4,22.2c-0.7,0.4-1.5,0.6-2.4,0.6c-2.7,0-4.9-2.2-4.9-4.9h1.4c0.2,0,0.3-0.2,0.2-0.4l-2-3.3
	c-0.1-0.2-0.3-0.2-0.4,0l-2,3.3c-0.1,0.2,0,0.4,0.2,0.4H10c0,3.3,2.7,6,6,6c1.1,0,2.1-0.3,3-0.8L18.4,22.2z"/>
</svg>
