<?xml version="1.0" encoding="utf-8"?>
<!-- Generator: Adobe Illustrator 22.1.0, SVG Export Plug-In . SVG Version: 6.00 Build 0)  -->
<svg version="1.1" xmlns="http://www.w3.org/2000/svg" xmlns:xlink="http://www.w3.org/1999/xlink" x="0px" y="0px"
	 viewBox="0 0 32 32" enable-background="new 0 0 32 32">
<rect fill="#FFC857" x="7" y="15" width="18" height="14"/>
<polygon fill="#FFC857" points="9,14 23,14 25,15 7,15 "/>
<polygon fill="#212121" opacity="0.25" points="9,14 23,14 25,15 7,15 "/>
<path fill="#212121" opacity="0.3" d="M18,21c0-1.1-0.9-2-2-2s-2,0.9-2,2c0,0.7,0.4,1.4,1,1.7V25h2v-2.3C17.6,22.4,18,21.7,18,21z"/>
<path fill="#666666" d="M13,7c0-0.8,0.2-1,1-1h4c0.8,0,1,0.2,1,1v7.5h2V7c0-1.6-1.4-3-3-3h-4c-1.7,0-3,1.4-3,3v7.5h2V7z"/>
</svg>
