<?xml version="1.0" encoding="utf-8"?>
<!-- Generator: Adobe Illustrator 22.1.0, SVG Export Plug-In . SVG Version: 6.00 Build 0)  -->
<svg version="1.1" id="Ebene_1" xmlns="http://www.w3.org/2000/svg" xmlns:xlink="http://www.w3.org/1999/xlink" x="0px" y="0px"
	 viewBox="0 0 32 32" enable-background="new 0 0 32 32" xml:space="preserve">
<ellipse fill="#4C2875" cx="16" cy="26.5" rx="14" ry="3.5"/>
<path fill="#663399" d="M26,25l-10.2,2L6,25c0,0,3.5-10.4,7.1-16.6C16.5,2.6,20,2,21,2c2,0-0.3,1,0,3C21.6,9.5,26,25,26,25z"/>
<path fill="#FFC857" d="M16,25c-4.3,0-7.9-0.8-9.3-1.9C6.2,24.3,6,25,6,25c0,1.7,4.5,3,10,3s10-1.3,10-3c0,0-0.2-0.8-0.6-2
	C24.1,24.2,20.4,25,16,25z"/>
<path fill="#FFC857" d="M21.2,10c-0.2,0-0.3,0.3-0.2,0.4l0.9,0.9l-0.4,1.1c-0.1,0.2,0.1,0.4,0.3,0.3l0.8-0.3
	c-0.2-0.8-0.4-1.6-0.6-2.4H21.2z"/>
<path fill="#FFC857" d="M20.7,15h-1.1l-0.4-1.1c-0.1-0.2-0.4-0.2-0.5,0L18.3,15h-1.1c-0.2,0-0.3,0.3-0.2,0.4l0.9,0.9l-0.4,1.1
	c-0.1,0.2,0.1,0.4,0.3,0.3l1.2-0.5l1.2,0.5c0.2,0.1,0.4-0.1,0.3-0.3L20,16.3l0.9-0.9C21.1,15.3,21,15,20.7,15z"/>
<path fill="#FFC857" d="M15.1,8.4L16,9.3l-0.4,1.1c-0.1,0.2,0.1,0.4,0.3,0.3l1.2-0.5l1.2,0.5c0.2,0.1,0.4-0.1,0.3-0.3L18,9.3
	l0.9-0.9C19.1,8.3,19,8,18.7,8h-1.1l-0.4-1.1c-0.1-0.2-0.4-0.2-0.5,0L16.3,8h-1.1C15,8,14.9,8.3,15.1,8.4z"/>
<path fill="#FFC857" d="M22.8,21.7l1.2-0.5l1.1,0.4c-0.3-1.1-0.7-2.5-1.1-3.9c-0.1,0-0.2,0-0.2,0.2L23.3,19h-1.1
	c-0.2,0-0.3,0.3-0.2,0.4l0.9,0.9l-0.4,1.1C22.4,21.6,22.6,21.8,22.8,21.7z"/>
<path fill="#FFC857" d="M16.8,4.7L18,4.3l1.2,0.5c0.2,0.1,0.4-0.1,0.3-0.3L19,3.3l0.9-0.9C20,2.3,20,2.2,20,2.2
	c-0.8,0.2-2,0.7-3.3,1.8l-0.2,0.5C16.4,4.6,16.6,4.8,16.8,4.7z"/>
<path fill="#FFC857" d="M8,21.3l1.2,0.5c0.2,0.1,0.4-0.1,0.3-0.3L9,20.3l0.9-0.9c0.2-0.2,0-0.4-0.2-0.4H8.7l-0.2-0.6
	c-0.5,1.2-0.9,2.2-1.2,3.2L8,21.3z"/>
<path fill="#FFC857" d="M17.2,22.7c0.2,0.1,0.4-0.1,0.3-0.3L17,21.3l0.9-0.9c0.2-0.2,0-0.4-0.2-0.4h-1.1l-0.4-1.1
	c-0.1-0.2-0.4-0.2-0.5,0L15.3,20h-1.1c-0.2,0-0.3,0.3-0.2,0.4l0.9,0.9l-0.4,1.1c-0.1,0.2,0.1,0.4,0.3,0.3l1.2-0.5L17.2,22.7z"/>
<path fill="#FFC857" d="M11.5,11.5l0.5-0.2l1.2,0.5c0.2,0.1,0.4-0.1,0.3-0.3L13,10.3l0.9-0.9C14.1,9.3,14,9,13.7,9h-1
	C12.3,9.8,11.9,10.6,11.5,11.5z"/>
<path fill="#FFC857" d="M14.7,15h-1.1l-0.4-1.1c-0.1-0.2-0.4-0.2-0.5,0L12.3,15h-1.1c-0.2,0-0.3,0.3-0.2,0.4l0.9,0.9l-0.4,1.1
	c-0.1,0.2,0.1,0.4,0.3,0.3l1.2-0.5l1.2,0.5c0.2,0.1,0.4-0.1,0.3-0.3L14,16.3l0.9-0.9C15.1,15.3,15,15,14.7,15z"/>
</svg>
