<svg xmlns="http://www.w3.org/2000/svg" version="1.1" viewBox="0 0 32 32">
<path fill="#C83C3C" d="M24.8,5H7.2C7.1,5,7,5.1,6.9,5.1L4,10.9V11v15.7C4,26.9,4.1,27,4.3,27h23.5c0.1,0,0.3-0.1,0.3-0.3V11.1V11
	l-2.9-5.8C25,5.1,24.9,5,24.8,5z"/>
<g opacity="0.15">
	<path fill="#212121" d="M24.8,5H7.2C7.1,5,7,5.1,6.9,5.1l-1,2.2h20.3l-1.1-2.1C25,5.1,24.9,5,24.8,5z"/>
	<polygon fill="#212121" points="26.9,8.8 5.1,8.8 4,11 28,11 	"/>
</g>
<g>
	<path fill="#FFFFFF" d="M19.9,16.5L17.4,19l2.5,2.5c0.2,0.2,0.2,0.5,0,0.7l-0.7,0.7c-0.2,0.2-0.5,0.2-0.7,0L16,20.4l-2.5,2.5
		c-0.2,0.2-0.5,0.2-0.7,0l-0.7-0.7c-0.2-0.2-0.2-0.5,0-0.7l2.5-2.5l-2.5-2.5c-0.2-0.2-0.2-0.5,0-0.7l0.7-0.7c0.2-0.2,0.5-0.2,0.7,0
		l2.5,2.5l2.5-2.5c0.2-0.2,0.5-0.2,0.7,0l0.7,0.7C20.1,16,20.1,16.3,19.9,16.5z"/>
</g>
</svg>
