<svg xmlns="http://www.w3.org/2000/svg" viewBox="0 0 32 32">
<path fill="#FFC857" d="M24.8,5H7.2C7.1,5,7,5.1,6.9,5.1L4,10.9V11v15.7C4,26.9,4.1,27,4.3,27h23.5c0.1,0,0.3-0.1,0.3-0.3V11.1V11
	l-2.9-5.8C25,5.1,24.9,5,24.8,5z"/>
<g opacity="0.15">
	<path fill="#212121" d="M24.8,5H7.2C7.1,5,7,5.1,6.9,5.1l-1,2.2h20.3l-1.1-2.1C25,5.1,24.9,5,24.8,5z"/>
	<polygon fill="#212121" points="26.9,8.8 5.1,8.8 4,11 28,11 	"/>
</g>
<path opacity="0.75" fill="#3E3E3E" d="M20,19.4v-0.9h-0.1l-0.9-0.4l-0.3-0.6l0.5-1l-0.6-0.6h-0.1l-0.9,0.5l-0.6-0.3L16.4,15h-0.9
	v0.1l-0.4,0.9l-0.6,0.3l-1-0.5l-0.6,0.6v0.1l0.5,0.9l-0.3,0.6L12,18.6v0.9h0.1l0.9,0.4l0.3,0.6l-0.5,1l0.6,0.7l0.1-0.1l0.9-0.5
	l0.6,0.3l0.4,1.1h0.9v-0.1l0.4-0.9l0.6-0.3l1,0.5l0.6-0.6v-0.1l-0.5-0.9l0.3-0.6L20,19.4z M16,21c-1.1,0-2-0.9-2-2s0.9-2,2-2
	s2,0.9,2,2S17.1,21,16,21z"/>
</svg>