<svg xmlns="http://www.w3.org/2000/svg" viewBox="0 0 32 32">
<g opacity="0.5">
	<path fill="#FF8700" d="M23.8,20.2c-2.6-0.7-4.3-1.7-6.1-2.4c0.1,0.3,0.1,0.5-0.1,0.8c-1.8,2-5.6,1.8-7.2,0
		c-0.3-0.3-0.2-0.4-0.1-0.8c-1.8,0.7-3.5,1.7-6.1,2.4c0,0-2.1,1.2-2.2,5.8h12h12C25.8,21.2,23.8,20.2,23.8,20.2z"/>
	<path fill="#FFC857" d="M14,15.5c-1,0-2.1-0.6-3-1.5l0,0l0,0c-0.1,3.6-1.1,3.9-0.6,4.5c1.6,1.8,5.4,2,7.2,0
		c0.5-0.5-0.4-0.9-0.6-4.5C16.1,14.9,15.1,15.5,14,15.5z"/>
	<path fill="#212121" opacity="5.000000e-02" d="M14,15.5c-1,0-2.1-0.6-3-1.5l0,0l0,0c-0.1,3.6-1.1,3.9-0.6,4.5
		c1.6,1.8,5.4,2,7.2,0c0.5-0.5-0.4-0.9-0.6-4.5C16.1,14.9,15.1,15.5,14,15.5z"/>
	<path fill="#FFC857" d="M14,15.5c-2.6,0-5.1-3.4-5.1-5.8V6.4C8.9,4,11,2,13.5,2h1.2c2.6,0,4.5,2,4.5,4.4v3.3
		C19.1,12,16.6,15.5,14,15.5L14,15.5z"/>
	<path opacity="0.15" fill="#FFF" d="M14,15.5c-2.6,0-5.1-3.4-5.1-5.8V6.4C8.9,4,11,2,13.5,2h1.2
		c2.6,0,4.5,2,4.5,4.4v3.3C19.1,12,16.6,15.5,14,15.5L14,15.5z"/>
</g>
<g>
	<path fill="#79A548" d="M27.8,24.2c-2.6-0.7-4.3-1.7-6.1-2.4c0.1,0.3,0.1,0.5-0.1,0.8c-1.8,2-5.6,1.8-7.2,0
		c-0.3-0.3-0.2-0.4-0.1-0.8c-1.8,0.7-3.5,1.7-6.1,2.4c0,0-2.1,1.2-2.2,5.8h12h12C29.8,25.2,27.8,24.2,27.8,24.2z"/>
	<path fill="#FFC857" d="M18,19.5c-1,0-2.1-0.6-3-1.5l0,0l0,0c-0.1,3.6-1.1,3.9-0.6,4.5c1.6,1.8,5.4,2,7.2,0
		c0.5-0.5-0.4-0.9-0.6-4.5C20.1,18.9,19.1,19.5,18,19.5z"/>
	<path opacity="5.000000e-02" d="M18,19.5c-1,0-2.1-0.6-3-1.5l0,0l0,0c-0.1,3.6-1.1,3.9-0.6,4.5
		c1.6,1.8,5.4,2,7.2,0c0.5-0.5-0.4-0.9-0.6-4.5C20.1,18.9,19.1,19.5,18,19.5z"/>
	<path fill="#FFC857" d="M18,19.5c-2.6,0-5.1-3.4-5.1-5.8v-3.3C12.9,8,15,6,17.5,6h1.2c2.6,0,4.5,2,4.5,4.4v3.3
		C23.1,16,20.6,19.5,18,19.5L18,19.5z"/>
	<path opacity="0.15" fill="#FFF" d="M18,19.5c-2.6,0-5.1-3.4-5.1-5.8v-3.3C12.9,8,15,6,17.5,6h1.2
		c2.6,0,4.5,2,4.5,4.4v3.3C23.1,16,20.6,19.5,18,19.5L18,19.5z"/>
</g>
</svg>