<?xml version="1.0" encoding="utf-8"?>
<!-- Generator: Adobe Illustrator 22.1.0, SVG Export Plug-In . SVG Version: 6.00 Build 0)  -->
<svg version="1.1" id="Ebene_1" xmlns="http://www.w3.org/2000/svg" xmlns:xlink="http://www.w3.org/1999/xlink" x="0px" y="0px"
	 viewBox="0 0 32 32" enable-background="new 0 0 32 32" xml:space="preserve">
<g>
	<path fill="#5599FF" d="M27,6H5V3c0-0.6,0.4-1,1-1h20c0.6,0,1,0.4,1,1V6z"/>
	<path fill="#515151" d="M26,30H6c-0.6,0-1-0.4-1-1V6h22v23C27,29.6,26.6,30,26,30z"/>
	<path fill="#FFFFFF" d="M21.3,14.8l-0.7-0.7c-0.2-0.2-0.5-0.2-0.7,0c0,0,0,0-5.4,5.4L12,16.9c-0.2-0.2-0.5-0.2-0.7,0l-0.6,0.7
		c-0.2,0.2-0.2,0.5,0,0.7l3.6,3.6c0.2,0.2,0.5,0.2,0.7,0c4.9-4.9,0,0,6.4-6.4C21.5,15.3,21.5,15,21.3,14.8z"/>
</g>
</svg>
