<svg xmlns="http://www.w3.org/2000/svg" version="1.1" viewBox="0 0 32 32">
<g>
	<path fill="#5599FF" d="M27,6H5V3c0-0.6,0.4-1,1-1h20c0.6,0,1,0.4,1,1V6z"/>
	<path fill="#515151" d="M26,30H6c-0.6,0-1-0.4-1-1V6h22v23C27,29.6,26.6,30,26,30z"/>
	<path fill="#FFFFFF" d="M22,20v2h-2v-1.5c0-0.2-0.2-0.3-0.4-0.2l-3.3,2c-0.2,0.1-0.2,0.3,0,0.4l3.3,2c0.2,0.1,0.4,0,0.4-0.2V23h3
		v-3H22z"/>
	<path fill="#FFFFFF" d="M14,23h1l-1.5-4h-1L11,23h1l0.2-0.5h1.6L14,23z M12.6,21.5l0.4-1.2l0.4,1.2H12.6z"/>
	<path fill="#FFFFFF" d="M21,15.8c0,0.2,0,0.4-0.1,0.5c-0.1,0.2-0.2,0.3-0.4,0.4c-0.2,0.1-0.4,0.2-0.6,0.3C19.7,17,19.4,17,19,17h-2
		v-4h1.8c0.4,0,0.7,0,0.8,0c0.2,0,0.3,0.1,0.5,0.1c0.2,0.1,0.3,0.2,0.4,0.3c0.1,0.1,0.1,0.3,0.1,0.4c0,0.2-0.1,0.4-0.2,0.5
		c-0.1,0.1-0.3,0.3-0.5,0.3v0c0.3,0.1,0.5,0.2,0.7,0.3C20.9,15.3,21,15.5,21,15.8z M19.5,14.1c0-0.1,0-0.1-0.1-0.2
		c0-0.1-0.1-0.1-0.2-0.1c-0.1,0-0.2,0-0.3,0c-0.1,0-0.9,0-0.9,0v0.8c0,0,0.7,0,0.9,0c0.1,0,0.2,0,0.3-0.1c0.1,0,0.2-0.1,0.2-0.2
		C19.4,14.3,19.5,14.2,19.5,14.1z M19.7,15.8c0-0.1,0-0.2-0.1-0.3c-0.1-0.1-0.2-0.1-0.3-0.2c-0.1,0-0.2,0-0.4,0s-1,0-1,0v1
		c0,0,0.9,0,1,0c0.1,0,0.3,0,0.4-0.1s0.2-0.1,0.3-0.2C19.7,15.9,19.7,15.9,19.7,15.8z"/>
	<path fill="#FFFFFF" d="M15.7,13.3l-3.3-2c-0.2-0.1-0.4,0-0.4,0.2V13H9v3h1v-2h2v1.5c0,0.2,0.2,0.3,0.4,0.2l3.3-2
		C15.8,13.6,15.8,13.4,15.7,13.3z"/>
	<path fill="#FFFFFF" d="M22.5,11h-7c-0.3,0-0.5,0.2-0.5,0.5v0.2l1,0.6V12h6v6h-5v-0.5c0-0.3-0.2-0.5-0.5-0.5H16v-2.3l-1,0.6V17H9.5
		C9.2,17,9,17.2,9,17.5v7C9,24.8,9.2,25,9.5,25h7c0.3,0,0.5-0.2,0.5-0.5v-0.2l-1-0.6V24h-6v-6h6v3.3l1-0.6V19h5.5
		c0.3,0,0.5-0.2,0.5-0.5v-7C23,11.2,22.8,11,22.5,11z"/>
</g>
</svg>
