<?xml version="1.0" encoding="utf-8"?>
<!-- Generator: Adobe Illustrator 22.1.0, SVG Export Plug-In . SVG Version: 6.00 Build 0)  -->
<svg version="1.1" id="Ebene_1" xmlns="http://www.w3.org/2000/svg" xmlns:xlink="http://www.w3.org/1999/xlink" x="0px" y="0px"
	 viewBox="0 0 32 32" enable-background="new 0 0 32 32" xml:space="preserve">
<path fill="#FF8700" d="M27.4,23.2c-3-0.8-5-2-7.1-2.8c0.1,0.4,0.1,0.6-0.1,0.9c-2.1,2.3-6.5,2.1-8.4,0c-0.3-0.3-0.2-0.5-0.1-0.9
	c-2.1,0.8-4.1,2-7.1,2.8c0,0-2.5,1.4-2.6,6.8h14h14C29.8,24.4,27.4,23.2,27.4,23.2z"/>
<path fill="#FFC857" d="M16,17.8c-1.2,0-2.5-0.7-3.5-1.7l0,0l0,0c-0.1,4.2-1.3,4.6-0.7,5.2c1.9,2.1,6.3,2.3,8.4,0
	c0.6-0.6-0.5-1-0.7-5.3C18.5,17,17.3,17.8,16,17.8z"/>
<path opacity="5.000000e-02" d="M16,17.8c-1.2,0-2.5-0.7-3.5-1.7l0,0l0,0c-0.1,4.2-1.3,4.6-0.7,5.2c1.9,2.1,6.3,2.3,8.4,0
	c0.6-0.6-0.5-1-0.7-5.3C18.5,17,17.3,17.8,16,17.8z"/>
<path fill="#FFC857" d="M16,17.8c-3,0-5.9-4-5.9-6.8V7.1c0-2.8,2.4-5.1,5.3-5.1h1.4c3,0,5.3,2.3,5.3,5.1v3.9
	C21.9,13.7,19,17.8,16,17.8L16,17.8z"/>
<path opacity="0.15" fill="#FFFFFF" d="M16,17.8c-3,0-5.9-4-5.9-6.8V7.1c0-2.8,2.4-5.1,5.3-5.1h1.4c3,0,5.3,2.3,5.3,5.1v3.9
	C21.9,13.7,19,17.8,16,17.8L16,17.8z"/>
</svg>
