<?xml version="1.0" encoding="utf-8"?>
<!-- Generator: Adobe Illustrator 22.1.0, SVG Export Plug-In . SVG Version: 6.00 Build 0)  -->
<svg version="1.1" id="Ebene_1" xmlns="http://www.w3.org/2000/svg" xmlns:xlink="http://www.w3.org/1999/xlink" x="0px" y="0px"
	 viewBox="0 0 32 32" enable-background="new 0 0 32 32" xml:space="preserve">
<path fill="#777BB3" d="M28.7,7H3.3C2.5,7,2,7.3,2,7.6v1.9v14.8C2,24.7,2.5,25,3.3,25h25.5c0.8,0,1.3-0.3,1.3-0.6V9.6V7.6
	C30,7.3,29.5,7,28.7,7z"/>
<path fill="#FFFFFF" d="M7.6,13.1h3c0.9,0,1.5,0.3,1.9,0.8s0.5,1.2,0.4,2c-0.1,0.4-0.2,0.8-0.3,1.2c-0.2,0.4-0.4,0.7-0.7,1
	c-0.4,0.4-0.8,0.6-1.2,0.7c-0.4,0.1-0.9,0.2-1.3,0.2H8L7.5,21H6L7.6,13.1L7.6,13.1 M8.9,14.4l-0.7,3.3c0,0,0.1,0,0.1,0
	c0.1,0,0.1,0,0.2,0c0.7,0,1.3-0.1,1.8-0.2c0.5-0.2,0.8-0.7,1-1.6c0.1-0.8,0-1.2-0.4-1.3c-0.4-0.1-0.9-0.2-1.5-0.2
	c-0.1,0-0.2,0-0.3,0C9,14.4,8.9,14.4,8.9,14.4L8.9,14.4"/>
<path fill="#FFFFFF" d="M14.6,11h1.5l-0.4,2.1H17c0.8,0,1.3,0.2,1.7,0.5c0.4,0.3,0.5,0.9,0.3,1.7l-0.7,3.7h-1.5l0.7-3.5
	c0.1-0.4,0.1-0.6-0.1-0.8c-0.1-0.2-0.4-0.2-0.8-0.2l-1.2,0l-0.9,4.5H13L14.6,11L14.6,11"/>
<path fill="#FFFFFF" d="M20.7,13.1h3c0.9,0,1.5,0.3,1.9,0.8s0.5,1.2,0.4,2c-0.1,0.4-0.2,0.8-0.3,1.2c-0.2,0.4-0.4,0.7-0.7,1
	c-0.4,0.4-0.8,0.6-1.2,0.7c-0.4,0.1-0.9,0.2-1.3,0.2h-1.3L20.7,21h-1.5L20.7,13.1L20.7,13.1 M22,14.4l-0.7,3.3c0,0,0.1,0,0.1,0
	c0.1,0,0.1,0,0.2,0c0.7,0,1.3-0.1,1.8-0.2c0.5-0.2,0.8-0.7,1-1.6c0.1-0.8,0-1.2-0.4-1.3c-0.4-0.1-0.9-0.2-1.5-0.2
	c-0.1,0-0.2,0-0.3,0C22.1,14.4,22.1,14.4,22,14.4L22,14.4"/>
</svg>
