<svg xmlns="http://www.w3.org/2000/svg" viewBox="0 0 16 16"><path fill="#FFF" d="M1 1h14v14H1V1z"/><path fill="#B9B9B9" d="M1 1v14h14V1H1zm1 1h12v12H2V2z"/><path fill="#8C8C8C" d="M3 3h10v2H3z"/><path fill="#B9B9B9" d="M3 6h3v1H3zM3 8h3v1H3zM3 10h3v1H3zM3 12h3v1H3z"/><path fill="#EFEFEF" d="M7 6h6v7H7V6z"/><path fill="#B9B9B9" d="M7 6v7h6V6H7zm5 6H8V7h4v5z"/><path fill="#59F" d="M11 10l-1 .5L9 9l-1 1.5V12h4v-1"/><path fill="#E8A33D" d="M11.5 8.3c0 .4-.3.8-.7.8-.5-.1-.8-.4-.8-.8s.3-.8.7-.8c.5 0 .8.3.8.8z"/></svg>