<svg id="Ebene_1" xmlns="http://www.w3.org/2000/svg" viewBox="0 0 16 16"><style>.st0{fill:#FFFFFF;} .st1{fill:#B9B9B9;} .st2{fill:#8C8C8C;} .st3{fill:#EFEFEF;} .st4{fill:#5599FF;} .st5{fill:#E8A33D;}</style><path class="st0" d="M1 1h14v14H1V1z"/><path class="st1" d="M1 1v14h14V1H1zm1 1h12v12H2V2z"/><path class="st2" d="M10 3h3v2h-3z"/><path class="st1" d="M10 6h3v1h-3zM10 8h3v1h-3zM10 10h3v1h-3zM10 12h3v1h-3z"/><path class="st3" d="M3 3h6v6H3V3z"/><path class="st1" d="M3 3v6h6V3H3zm5 5H4V4h4v4z"/><path class="st4" d="M7 6.5L6 7 5 5.5l-1 1V8h4V7z"/><circle class="st5" cx="6.8" cy="5.3" r=".8"/></svg>