<svg id="Ebene_1" xmlns="http://www.w3.org/2000/svg" viewBox="0 0 16 16"><style>.st0{fill:#FFFFFF;} .st1{fill:#B9B9B9;} .st2{fill:#8C8C8C;} .st3{fill:#EFEFEF;} .st4{fill:#5599FF;} .st5{fill:#E8A33D;}</style><path class="st0" d="M1 1h14v14H1V1z"/><path class="st1" d="M1 1v14h14V1H1zm1 1h12v12H2V2z"/><path class="st2" d="M3 3h3v2H3z"/><path class="st1" d="M3 6h3v1H3zM3 8h3v1H3zM3 10h3v1H3zM3 12h3v1H3z"/><path class="st3" d="M7 3h6v6H7V3z"/><path class="st1" d="M7 3v6h6V3H7zm5 5H8V4h4v4z"/><path class="st4" d="M11 6.5L10 7 9 5.5l-1 1V8h4V7z"/><circle class="st5" cx="10.8" cy="5.3" r=".8"/></svg>