<svg xmlns="http://www.w3.org/2000/svg" viewBox="0 0 16 16" height="16" width="16"><path fill="#fff" stroke-linecap="square" d="M0 0h16v16H0z"/><path d="M2 12h12v-2H2z" fill="#8c8c8c" stroke-width="0"/><path d="M2 14h12v-1H2z" fill="#b9b9b9" stroke-width="0"/><path d="M0 15h16v1H0zM0 0h16v1H0z" fill="#b9b9b9" stroke-linecap="square"/><path d="M1 0v16H0V0zM16 0v16h-1V0z" fill="#b9b9b9" stroke-linecap="square"/><g stroke-width="0"><path d="M2.028 1038.395h8.002v6.998H2.028z" fill="#efefef" stroke="#b9b9b9" transform="matrix(.99975 0 0 1.00028 3.973 -1036.687)"/><g stroke="#faa"><path transform="matrix(.42183 0 0 .32183 7.272 -327.927)" d="M10.02 1043.785H-.645l2.666-4.618 2.667-4.618 2.667 4.617z" fill="#59f"/><path d="M10.02 1043.785H-.645l2.666-4.618 2.667-4.618 2.667 4.617z" transform="matrix(.37496 0 0 .21456 9.24 -215.95)" fill="#59f"/><path d="M13 1040.862a1.5 1.5 0 0 1-1.5 1.5 1.5 1.5 0 0 1-1.5-1.5 1.5 1.5 0 0 1 1.5-1.5 1.5 1.5 0 0 1 1.5 1.5z" fill="#e8a33d" transform="matrix(.49988 0 0 .49543 5.5 -511.387)"/></g><path fill="#b9b9b9" stroke-linecap="square" d="M6 2h1v7H6zM13 2h1v7h-1z"/><path fill="#b9b9b9" stroke-linecap="square" d="M14 2v1H6V2zM14 8v1H6V8z"/></g></svg>