<svg xmlns="http://www.w3.org/2000/svg" viewBox="0 0 16 16" height="16" width="16"><path fill="#fff" d="M0 0h16v16H0z"/><path d="M2 3.968h3v-2H2z" fill="#8c8c8c"/><path d="M2 5.97h3V4.967H2zM2 7.968h3v-1H2zM2 9.968h3v-1H2zM2 11.968h3v-1H2zM2 13.968h3v-1H2zM0 15h16v1H0zM0 0h16v1H0z" fill="#b9b9b9"/><path d="M1 0v16H0V0zM16 0v16h-1V0z" fill="#b9b9b9"/><path d="M6 2h8v7H6z" fill="#efefef"/><path d="M11.5 8H7l1.124-1.487L9.25 5.027l1.124 1.486z" fill="#59f"/><path d="M12.998 8h-4l1-.99 1-.992 1 .99z" fill="#59f"/><path d="M11.998 4.284a.75.743 0 0 1-.75.743.75.743 0 0 1-.75-.743.75.743 0 0 1 .75-.743.75.743 0 0 1 .75.744z" fill="#e8a33d"/><path fill="#b9b9b9" d="M6 2h1v7H6zM13 2h1v7h-1z"/><path fill="#b9b9b9" d="M14 2v1H6V2zM14 8v1H6V8z"/></svg>