<svg xmlns="http://www.w3.org/2000/svg" viewBox="0 0 16 16"><path fill="#FFF" d="M1 1h14v14H1V1z"/><path fill="#999" d="M1 1v14h14V1H1zm1 1h12v12H2V2z"/><g transform="matrix(.7143 0 0 .7143 2.286 2.286)"><path d="M14.69 13.17l-2.758-2.758c-.413.595-.93 1.112-1.525 1.524l2.753 2.744c.2.2.47.32.76.32.59 0 1.08-.49 1.08-1.07 0-.29-.12-.57-.31-.76z" fill="#e8a33d"/><circle r="5" cy="7" cx="7" fill="#abd7ff"/><path d="M7 2.5c2.48 0 4.5 2.02 4.5 4.5S9.48 11.5 7 11.5 2.5 9.48 2.5 7 4.52 2.5 7 2.5M7 1C3.686 1 1 3.686 1 7s2.686 6 6 6 6-2.686 6-6-2.686-6-6-6z" fill="#59f"/><circle r="1.5" cy="5.5" cx="8.5" opacity=".6" fill="#fff"/></g></svg>