<svg xmlns="http://www.w3.org/2000/svg" width="16" height="16" viewBox="0 0 16 16"><path fill="#fff" stroke-linecap="square" d="M0 0h16v16H0z"/><path d="M2 4h12V2H2z" fill="#8c8c8c" stroke-width="0"/><path d="M2 6h12V5H2z" fill="#b9b9b9" stroke-width="0"/><path d="M0 15h16v1H0zM0 0h16v1H0z" fill="#b9b9b9" stroke-linecap="square"/><path d="M1 0v16H0V0zM16 0v16h-1V0z" fill="#b9b9b9" stroke-linecap="square"/><path d="M4.028 1043.393h8.002v6.998H4.028z" fill="#efefef" stroke="#b9b9b9" stroke-width="0" transform="matrix(.99975 0 0 1.00028 -.027 -1036.687)"/><g stroke="#faa" stroke-width="0"><path d="M10.02 1043.785H-.645l2.666-4.618 2.667-4.618 2.667 4.617z" transform="matrix(.42183 0 0 .32183 5.272 -322.927)" fill="#59f"/><path transform="matrix(.37496 0 0 .21456 7.24 -210.95)" d="M10.02 1043.785H-.645l2.666-4.618 2.667-4.618 2.667 4.617z" fill="#59f"/><path d="M13 1040.862a1.5 1.5 0 0 1-1.5 1.5 1.5 1.5 0 0 1-1.5-1.5 1.5 1.5 0 0 1 1.5-1.5 1.5 1.5 0 0 1 1.5 1.5z" fill="#e8a33d" transform="matrix(.49988 0 0 .49543 3.5 -506.387)"/></g><path fill="#b9b9b9" stroke-width="0" stroke-linecap="square" d="M4 7h1v7H4zM11 7h1v7h-1z"/><path fill="#b9b9b9" stroke-width="0" stroke-linecap="square" d="M12 7v1H4V7zM12 13v1H4v-1z"/></svg>