<svg xmlns="http://www.w3.org/2000/svg" width="16" height="16" viewBox="0 0 16 16"><path fill="#fff" stroke-linecap="square" d="M0 0h16v16H0z"/><path d="M2.028 1038.395h8.002v6.998H2.028z" fill="#efefef" stroke="#b9b9b9" stroke-width="0" transform="matrix(.99975 0 0 1.00028 -.027 -1036.687)"/><g stroke="#faa" stroke-width="0"><path d="M10.02 1043.785H-.645l2.666-4.618 2.667-4.618 2.667 4.617z" transform="matrix(.42183 0 0 .32183 3.272 -327.927)" fill="#59f"/><path transform="matrix(.37496 0 0 .21456 5.24 -215.95)" d="M10.02 1043.785H-.645l2.666-4.618 2.667-4.618 2.667 4.617z" fill="#59f"/><path d="M13 1040.862a1.5 1.5 0 0 1-1.5 1.5 1.5 1.5 0 0 1-1.5-1.5 1.5 1.5 0 0 1 1.5-1.5 1.5 1.5 0 0 1 1.5 1.5z" fill="#e8a33d" transform="matrix(.49988 0 0 .49543 1.5 -511.387)"/></g><path d="M11 4h3V2h-3z" fill="#8c8c8c" stroke-width="0"/><path d="M11 6h3V4.997h-3z" fill="#b9b9b9" stroke-width="0"/><path d="M0 15h16v1H0zM0 0h16v1H0z" fill="#b9b9b9" stroke-linecap="square"/><path d="M1 0v16H0V0zM16 0v16h-1V0z" fill="#b9b9b9" stroke-linecap="square"/><path fill="#b9b9b9" stroke-width="0" stroke-linecap="square" d="M2 2h1v7H2zM9 2h1v7H9z"/><path fill="#b9b9b9" stroke-width="0" stroke-linecap="square" d="M10 2v1H2V2zM10 8v1H2V8z"/><path d="M11 8h3V6.997h-3zM11 10h3V8.997h-3zM11 12h3v-1.002h-3zM11 14h3v-1.002h-3z" fill="#b9b9b9" stroke-width="0"/></svg>