<svg xmlns="http://www.w3.org/2000/svg" viewBox="0 0 16 16" height="16" width="16"><path fill="#fff" d="M0 0h16v16H0z"/><path d="M2 4h12V2H2z" fill="#8c8c8c"/><path d="M2 6h12V5H2zM0 15h16v1H0zM0 0h16v1H0z" fill="#b9b9b9"/><path d="M1 0v16H0V0zM16 0v16h-1V0z" fill="#b9b9b9"/><path d="M4 7h8v7H4z" fill="#efefef"/><path d="M9.5 13H5l1.124-1.487 1.125-1.486 1.124 1.486z" fill="#59f"/><path d="M10.998 13h-4l1-.99 1-.992 1 .99z" fill="#59f"/><path d="M9.998 9.284a.75.743 0 0 1-.75.743.75.743 0 0 1-.75-.743.75.743 0 0 1 .75-.743.75.743 0 0 1 .75.744z" fill="#e8a33d"/><path fill="#b9b9b9" d="M4 7h1v7H4zM11 7h1v7h-1z"/><path fill="#b9b9b9" d="M12 7v1H4V7zM12 13v1H4v-1z"/></svg>