<svg xmlns="http://www.w3.org/2000/svg" width="16" height="16" viewBox="0 0 16 16"><path fill="#fff" d="M0 0h16v16H0z"/><path d="M2 2h8v7H2z" fill="#efefef"/><path d="M7.5 8H3l1.124-1.487L5.25 5.027l1.124 1.486z" fill="#59f"/><path d="M8.998 8h-4l1-.99 1-.992 1 .99z" fill="#59f"/><path d="M7.998 4.284a.75.743 0 0 1-.75.743.75.743 0 0 1-.75-.743.75.743 0 0 1 .75-.743.75.743 0 0 1 .75.744z" fill="#e8a33d"/><path d="M11 4h3V2h-3z" fill="#8c8c8c"/><path d="M11 6h3V5h-3zM0 15h16v1H0zM0 0h16v1H0z" fill="#b9b9b9"/><path d="M1 0v16H0V0zM16 0v16h-1V0zM2 2h1v7H2zM9 2h1v7H9z" fill="#b9b9b9"/><path fill="#b9b9b9" d="M10 2v1H2V2zM10 8v1H2V8zM11 8h3V7h-3zM11 10h3V9h-3zM11 12h3v-1h-3zM11 14h3v-1h-3z"/></svg>