<svg xmlns="http://www.w3.org/2000/svg" viewBox="0 0 16 16"><path fill="#59F" d="M1 9h6v6H1z"/><path opacity=".2" d="M1 9v6h6V9H1zm5 5H2v-4h4v4z"/><path fill="#FFF" d="M3 11h2v1H3v-1z"/><path opacity=".5" fill="#FFF" d="M3 12h2v1H3z"/><path fill="#639" d="M9 9h6v6H9z"/><path opacity=".2" d="M9 9v6h6V9H9zm5 5h-4v-4h4v4z"/><path fill="#FFF" d="M11 11h2v1h-2v-1z"/><path opacity=".5" fill="#FFF" d="M11 12h2v1h-2z"/><path fill="#999" d="M4 1h8v7H4z"/><path fill="#FFF" d="M5 2h6v5H5z"/><path fill="#515151" d="M6 3h4v1H6V3z"/><path fill="#B9B9B9" d="M6 5h4v1H6z"/><path opacity=".2" d="M1 3h1v1H1zM3 3h1v1H3zM1 5h1v1H1zM1 7h1v1H1zM14 3h1v1h-1zM12 3h1v1h-1zM14 5h1v1h-1zM14 7h1v1h-1z"/></svg>