<svg xmlns="http://www.w3.org/2000/svg" width="16" height="16" viewBox="0 0 16 16"><path fill="#fff" stroke="#b9b9b9" stroke-width=".931" d="M1.5 1036.862h15v13h-15z" transform="matrix(1.0043 0 0 1.14852 -1.04 -1190.323)"/><path fill="#efefef" stroke="#b9b9b9" stroke-width="2.154" d="M1.687 1036.81h15v13h-15z" transform="matrix(.46624 0 0 .4621 1.716 -476.602)"/><g transform="matrix(.49988 0 0 .49543 1.5 -511.387)"><path d="M12 1048.362H3l2.25-3 2.25-3 2.25 3z" fill="#59f"/><path d="M15 1048.362H7l2-2 2-2 2 2z" fill="#59f"/><circle cx="11.5" cy="1040.862" r="1.5" fill="#e8a33d"/></g><g fill="#8c8c8c"><path d="M11 3.968h3v-2h-3zM11 5.968h3v-1h-3zM11 7.968h3v-1h-3zM11 9.97h3V8.967h-3zM11 11.97h3v-1.002h-3zM11 13.968h3v-1h-3z"/></g></svg>