<svg viewBox="0 0 16 16" xmlns="http://www.w3.org/2000/svg" fill-rule="evenodd" clip-rule="evenodd" stroke-linejoin="round" stroke-miterlimit="1.414"><path fill="#fff" fill-rule="nonzero" d="M1 1h14v14H1z"/><path d="M1 1v14h14V1H1zm1 1h12v12H2V2z" fill="#999" fill-rule="nonzero"/><g fill-rule="nonzero"><path d="M9.5 3h-.273c-1.065 0-1.932.852-1.932 1.898v.75c0 .395.146.827.4 1.21-.245.108-.498.217-.797.302l-.106.03-.095.055c-.155.087-.92.628-.97 2.12v2.726H13V9.366c-.048-1.49-.815-2.03-.97-2.12l-.095-.053-.107-.03c-.3-.085-.553-.195-.795-.303.252-.383.398-.816.398-1.21V4.9C11.434 3.853 10.567 3 9.5 3z" fill="#666"/><path d="M11.58 8.035c-.58-.166-.982-.393-1.386-.546-.046-.13-.14-.35-.15-.85.28-.28.48-.675.48-.993v-.75c0-.545-.48-.99-1.024-.99h-.273c-.545 0-1.022.445-1.022.99v.75c0 .318.2.714.48.99-.01.504-.105.725-.15.85-.404.155-.808.382-1.387.546 0 0-.477.272-.51 1.33v.91h5.454v-.91c-.035-1.057-.51-1.33-.51-1.33h-.002z" fill="#ffc857"/><path d="M11.58 8.035c-.575-.164-.977-.39-1.377-.544.024.08.027.12-.02.17-.41.444-1.26.41-1.637 0-.05-.05-.04-.09-.01-.173-.402.155-.806.382-1.386.55 0 0-.477.27-.51 1.328v1.818h5.454v-1.82c-.037-1.09-.513-1.33-.513-1.33z" fill="#aad400"/></g><g fill-rule="nonzero"><path d="M6.773 4.818H6.5c-1.065 0-1.933.852-1.933 1.898v.75c0 .395.146.828.398 1.21-.242.11-.496.218-.795.302l-.106.03-.096.055c-.153.087-.918.628-.968 2.12V13h7.273v-1.818c-.048-1.49-.816-2.03-.97-2.118L9.21 9.01l-.11-.033c-.3-.085-.552-.194-.795-.303.252-.38.4-.815.4-1.21v-.75c0-1.044-.867-1.897-1.932-1.897z" fill="#666"/><path d="M8.853 9.853c-.58-.166-.982-.393-1.387-.546-.045-.127-.14-.347-.15-.85.28-.277.48-.672.48-.99v-.75c0-.546-.478-.99-1.023-.99H6.5c-.545 0-1.023.444-1.023.99v.75c0 .318.2.713.48.99-.01.503-.104.724-.15.85-.403.154-.807.38-1.386.545 0 0-.475.273-.51 1.33v.91h5.456v-.91c-.035-1.057-.51-1.33-.51-1.33h-.002z" fill="#ffc857"/><path d="M8.853 9.853c-.576-.164-.978-.39-1.378-.544.025.077.028.116-.02.166-.41.444-1.26.41-1.636 0-.05-.05-.04-.09-.01-.172-.405.154-.808.38-1.388.548 0 0-.478.272-.51 1.33v.908h5.453v-.908c-.036-1.09-.512-1.33-.512-1.33z" fill="#79a548"/></g></svg>