<svg xmlns="http://www.w3.org/2000/svg" viewBox="0 0 16 16"><g fill="currentColor"><path d="m14.718 3.404-2.122-2.122a.5.5 0 0 0-.707 0L1.282 11.89a.5.5 0 0 0 0 .707l2.122 2.122a.5.5 0 0 0 .707 0L14.718 4.11a.5.5 0 0 0 0-.707ZM3.758 13.657l-1.415-1.414 6.718-6.718 1.414 1.414-6.718 6.718Zm6.01-8.839 2.475-2.475 1.414 1.414-2.475 2.475-1.414-1.414ZM6.75 2H6v-.75A.25.25 0 0 0 5.75 1h-.5a.25.25 0 0 0-.25.25V2h-.75a.25.25 0 0 0-.25.25v.5c0 .138.112.25.25.25H5v.75c0 .138.112.25.25.25h.5A.25.25 0 0 0 6 3.75V3h.75A.25.25 0 0 0 7 2.75v-.5A.25.25 0 0 0 6.75 2ZM14.75 12H13v-1.75a.25.25 0 0 0-.25-.25h-.5a.25.25 0 0 0-.25.25V12h-1.75a.25.25 0 0 0-.25.25v.5c0 .138.112.25.25.25H12v1.75c0 .138.112.25.25.25h.5a.25.25 0 0 0 .25-.25V13h1.75a.25.25 0 0 0 .25-.25v-.5a.25.25 0 0 0-.25-.25Z"/></g></svg>