<svg xmlns="http://www.w3.org/2000/svg" id="svg2" version="1.1" viewBox="0 0 16 16"><defs id="defs20"><clipPath id="clipPath3391" clipPathUnits="userSpaceOnUse"><path id="path3393" d="M0 600h800V0H0v600z"/></clipPath><clipPath id="clipPath3407" clipPathUnits="userSpaceOnUse"><path id="path3409" d="M316 477.408h60.363V417H316v60.408z"/></clipPath><clipPath id="clipPath3427" clipPathUnits="userSpaceOnUse"><path id="path3429" d="M622 477.971h60.121V418H622v59.971z"/></clipPath><clipPath id="clipPath3391-7" clipPathUnits="userSpaceOnUse"><path id="path3393-8" d="M0 600h800V0H0v600z"/></clipPath><clipPath id="clipPath3407-0" clipPathUnits="userSpaceOnUse"><path id="path3409-3" d="M316 477.408h60.363V417H316v60.408z"/></clipPath><clipPath id="clipPath3427-9" clipPathUnits="userSpaceOnUse"><path id="path3429-3" d="M622 477.971h60.121V418H622v59.971z"/></clipPath><clipPath id="clipPath3391-5" clipPathUnits="userSpaceOnUse"><path id="path3393-6" d="M0 600h800V0H0v600z"/></clipPath><clipPath id="clipPath3407-6" clipPathUnits="userSpaceOnUse"><path id="path3409-6" d="M316 477.408h60.363V417H316v60.408z"/></clipPath><clipPath id="clipPath3427-0" clipPathUnits="userSpaceOnUse"><path id="path3429-8" d="M622 477.971h60.121V418H622v59.971z"/></clipPath><clipPath id="clipPath3391-8" clipPathUnits="userSpaceOnUse"><path id="path3393-83" d="M0 600h800V0H0v600z"/></clipPath><clipPath id="clipPath3407-2" clipPathUnits="userSpaceOnUse"><path id="path3409-2" d="M316 477.408h60.363V417H316v60.408z"/></clipPath><clipPath id="clipPath3427-2" clipPathUnits="userSpaceOnUse"><path id="path3429-34" d="M622 477.971h60.121V418H622v59.971z"/></clipPath><clipPath id="clipPath3391-25" clipPathUnits="userSpaceOnUse"><path id="path3393-0" d="M0 600h800V0H0v600z"/></clipPath><clipPath id="clipPath3407-27" clipPathUnits="userSpaceOnUse"><path id="path3409-1" d="M316 477.408h60.363V417H316v60.408z"/></clipPath><clipPath id="clipPath3427-93" clipPathUnits="userSpaceOnUse"><path id="path3429-7" d="M622 477.971h60.121V418H622v59.971z"/></clipPath><clipPath id="clipPath3391-2" clipPathUnits="userSpaceOnUse"><path id="path3393-9" d="M0 600h800V0H0v600z"/></clipPath><clipPath id="clipPath3407-9" clipPathUnits="userSpaceOnUse"><path id="path3409-0" d="M316 477.408h60.363V417H316v60.408z"/></clipPath><clipPath id="clipPath3427-8" clipPathUnits="userSpaceOnUse"><path id="path3429-5" d="M622 477.971h60.121V418H622v59.971z"/></clipPath></defs><g id="g6705" fill="#59f" fill-opacity="1"><g id="g4141" transform="translate(-1 1)"><g id="g4237" fill="#59f" fill-opacity="1" stroke-dasharray="none" stroke-linecap="butt" stroke-linejoin="round" stroke-miterlimit="4" stroke-opacity="1" stroke-width="0"><path id="rect4171" stroke="#b9b9b9" d="M2 0v16h12V4l-4-4zm8 0z" transform="translate(1 -1)"/><path id="path4178" stroke="none" d="M11 2.98V-1l4 4z" opacity=".65"/><path id="path4446" stroke="none" d="M15 3.024V8l-4-5z" opacity=".15"/></g></g></g><path id="path6" fill="#fff" fill-opacity="1" d="M10 4V0l4 4h-4z" opacity=".65"/><path id="path4446-1" fill="#000" fill-opacity="1" stroke="none" stroke-dasharray="none" stroke-linecap="butt" stroke-linejoin="round" stroke-miterlimit="4" stroke-opacity="1" stroke-width="0" d="M14 4.024V9l-4-5z" opacity=".15"/><style id="style9465" type="text/css"></style><g id="g5202" fill="#fff" fill-opacity="1" transform="matrix(1.33333 0 0 1.33333 -2.667 -4.333)"><path id="path5190" d="M9.5 13H5l1.125-1.5L7.25 10l1.125 1.5L9.5 13z"/><path id="path5192" d="M11 13H7l1-1 1-1 1 1 1 1z"/><circle id="circle5194" cx="9.75" cy="9.25" r=".75"/></g></svg>