<?xml version="1.0" encoding="UTF-8" standalone="no"?>
<!-- Created with Inkscape (http://www.inkscape.org/) -->

<svg
   xmlns:dc="http://purl.org/dc/elements/1.1/"
   xmlns:cc="http://creativecommons.org/ns#"
   xmlns:rdf="http://www.w3.org/1999/02/22-rdf-syntax-ns#"
   xmlns:svg="http://www.w3.org/2000/svg"
   xmlns="http://www.w3.org/2000/svg"
   xmlns:sodipodi="http://sodipodi.sourceforge.net/DTD/sodipodi-0.dtd"
   xmlns:inkscape="http://www.inkscape.org/namespaces/inkscape"
   id="svg2"
   version="1.1"
   inkscape:version="0.91 r13725"
   xml:space="preserve"
   width="16"
   height="16"
   viewBox="0 0 16 16"
   sodipodi:docname="user-group.svg"><metadata
     id="metadata8"><rdf:RDF><cc:Work
         rdf:about=""><dc:format>image/svg+xml</dc:format><dc:type
           rdf:resource="http://purl.org/dc/dcmitype/StillImage" /><dc:title></dc:title></cc:Work></rdf:RDF></metadata><defs
     id="defs6"><clipPath
       clipPathUnits="userSpaceOnUse"
       id="clipPath16"><path
         d="M 0,16 16,16 16,0 0,0 0,16 Z"
         id="path18"
         inkscape:connector-curvature="0" /></clipPath></defs><sodipodi:namedview
     pagecolor="#ffffff"
     bordercolor="#666666"
     borderopacity="1"
     objecttolerance="10"
     gridtolerance="10"
     guidetolerance="10"
     inkscape:pageopacity="0"
     inkscape:pageshadow="2"
     inkscape:window-width="2048"
     inkscape:window-height="1051"
     id="namedview4"
     showgrid="false"
     inkscape:zoom="22.627417"
     inkscape:cx="-1.170726"
     inkscape:cy="7.5630626"
     inkscape:window-x="2048"
     inkscape:window-y="23"
     inkscape:window-maximized="1"
     inkscape:current-layer="g4168" /><g
     id="g10"
     inkscape:groupmode="layer"
     inkscape:label="user"
     transform="matrix(1.25,0,0,-1.25,0,16)"><g
       id="g12"><g
         transform="matrix(0.625,0,0,0.625,4.8,4)"
         id="g4168"><path
           inkscape:connector-curvature="0"
           id="path4170"
           d="m 5,12.25 c -1.4241273,6.86e-4 -2.2918755,0.784074 -4.05273438,1.283203 0,0 -0.88190985,0.489154 -0.94726562,2.466797 l 5,0 5,0 C 9.9346445,14.022357 9.0527344,13.533203 9.0527344,13.533203 7.2918751,13.034074 6.4241273,12.250686 5,12.25 Z"
           style="opacity:1;fill:#79a548;fill-opacity:1;stroke:none;stroke-width:1;stroke-linecap:butt;stroke-linejoin:miter;stroke-miterlimit:0;stroke-dasharray:none;stroke-dashoffset:0;stroke-opacity:1"
           transform="matrix(1.28,0,0,-1.28,0,20.48)" /><g
           transform="matrix(0.80094232,0,0,0.77955825,6.4,5.6)"
           id="g4172"
           style="fill:#e8a33d;fill-opacity:1"><path
             inkscape:connector-curvature="0"
             id="path4174"
             style="fill:#e8a33d;fill-opacity:1;fill-rule:nonzero;stroke:none"
             d="m 0,0 0,0 c -1.65,0 -3.396,2.35 -3.396,4 l 0,2.236 c 0,1.65 1.35,3 3,3 l 0.792,0 c 1.65,0 3,-1.35 3,-3 L 3.396,4 C 3.396,2.35 1.65,0 0,0" /></g><path
           style="opacity:0.3;fill:#000000;fill-opacity:1;stroke:none;stroke-width:1;stroke-linecap:butt;stroke-linejoin:miter;stroke-miterlimit:0;stroke-dasharray:none;stroke-dashoffset:0;stroke-opacity:1"
           d="m 5,12.25 c -1.4241273,6.86e-4 -2.2918755,0.784074 -4.05273438,1.283203 0,0 -0.88190985,0.489154 -0.94726562,2.466797 l 5,0 5,0 C 9.9346445,14.022357 9.0527344,13.533203 9.0527344,13.533203 7.2918751,13.034074 6.4241273,12.250686 5,12.25 Z"
           id="path4178"
           inkscape:connector-curvature="0"
           transform="matrix(1.28,0,0,-1.28,0,20.48)" /><path
           style="opacity:1;fill:#e8a33d;fill-opacity:1;stroke:none;stroke-width:1;stroke-linecap:butt;stroke-linejoin:miter;stroke-miterlimit:0;stroke-dasharray:none;stroke-dashoffset:0;stroke-opacity:1"
           d="m 4.7966636,6.9349671 c -0.020209,0.7398001 3.2094699,0.7400171 3.2,0 -0.031344,-2.4493389 0.641269,-2.6201297 0.32,-2.9693322 -0.9252241,-1.0056698 -2.9912772,-0.9581595 -3.84,0 -0.3115968,0.351775 0.3866995,0.5275978 0.32,2.9693322 z"
           id="path4176"
           inkscape:connector-curvature="0"
           sodipodi:nodetypes="sssss" /></g><g
         id="g4141"
         transform="matrix(0.625,0,0,0.625,0,0.8)"><path
           style="opacity:1;fill:#5599ff;fill-opacity:1;stroke:none;stroke-width:1;stroke-linecap:butt;stroke-linejoin:miter;stroke-miterlimit:0;stroke-dasharray:none;stroke-dashoffset:0;stroke-opacity:1"
           d="m 5,12.25 c -1.4241273,6.86e-4 -2.2918755,0.784074 -4.05273438,1.283203 0,0 -0.88190985,0.489154 -0.94726562,2.466797 l 5,0 5,0 C 9.9346445,14.022357 9.0527344,13.533203 9.0527344,13.533203 7.2918751,13.034074 6.4241273,12.250686 5,12.25 Z"
           transform="matrix(1.28,0,0,-1.28,0,20.48)"
           id="path4279"
           inkscape:connector-curvature="0" /><g
           id="g20"
           transform="matrix(0.80094232,0,0,0.77955825,6.4,5.6)"><path
             d="m 0,0 0,0 c -1.65,0 -3.396,2.35 -3.396,4 l 0,2.236 c 0,1.65 1.35,3 3,3 l 0.792,0 c 1.65,0 3,-1.35 3,-3 L 3.396,4 C 3.396,2.35 1.65,0 0,0"
             style="fill:#ffc857;fill-opacity:1;fill-rule:nonzero;stroke:none"
             id="path22"
             inkscape:connector-curvature="0" /></g><path
           sodipodi:nodetypes="sssss"
           inkscape:connector-curvature="0"
           id="rect4271"
           d="m 4.7966636,6.9349671 c -0.020209,0.7398001 3.2094699,0.7400171 3.2,0 -0.031344,-2.4493389 0.641269,-2.6201297 0.32,-2.9693322 -0.9252241,-1.0056698 -2.9912772,-0.9581595 -3.84,0 -0.3115968,0.351775 0.3866995,0.5275978 0.32,2.9693322 z"
           style="opacity:1;fill:#ffc857;fill-opacity:1;stroke:none;stroke-width:1;stroke-linecap:butt;stroke-linejoin:miter;stroke-miterlimit:0;stroke-dasharray:none;stroke-dashoffset:0;stroke-opacity:1" /></g></g></g></svg>