<?xml version="1.0" encoding="utf-8"?>
<!-- Generator: Adobe Illustrator 19.1.0, SVG Export Plug-In . SVG Version: 6.00 Build 0)  -->
<svg version="1.1" xmlns="http://www.w3.org/2000/svg" xmlns:xlink="http://www.w3.org/1999/xlink" x="0px" y="0px"
	 viewBox="0 0 16 16" enable-background="new 0 0 16 16">
<g>
	<path fill="#AAD400" d="M14.969,9.319c-1.16-0.331-1.97-0.785-2.778-1.096c0.049,0.16,0.057,0.241-0.041,0.34
		c-0.825,0.894-2.544,0.825-3.3,0c-0.1-0.1-0.081-0.182-0.021-0.347c-0.814,0.31-1.628,0.769-2.797,1.103
		c0,0-0.963,0.55-1.031,2.681h5.5H16C15.931,9.8,14.969,9.319,14.969,9.319z"/>
	<path fill="#212121" opacity="0.15" enable-background="new    " d="M5.754,11.313c0.147-0.89,0.481-1.267,0.586-1.368
		c0.758-0.226,1.37-0.498,1.913-0.739C8.316,9.178,8.377,9.15,8.438,9.123c0.503,0.485,1.267,0.771,2.074,0.771
		c0.813,0,1.559-0.286,2.051-0.771c0.061,0.027,0.122,0.054,0.184,0.081c0.545,0.242,1.16,0.515,1.922,0.742
		c0.111,0.098,0.439,0.458,0.581,1.365L15.313,12H16c-0.069-2.2-1.031-2.681-1.031-2.681c-1.16-0.331-1.97-0.785-2.778-1.096
		c0.049,0.16,0.057,0.241-0.041,0.34C11.746,9,11.127,9.207,10.512,9.207c-0.64,0-1.276-0.224-1.662-0.645
		c-0.1-0.1-0.081-0.182-0.021-0.347c-0.814,0.31-1.628,0.769-2.797,1.103c0,0-0.963,0.55-1.031,2.681h0.688L5.754,11.313z"/>
	<path fill="#FFC857" d="M10.5,7.188c-0.487,0-0.97-0.283-1.373-0.683l0,0l0,0C9.096,8.169,8.598,8.31,8.85,8.563
		c0.756,0.825,2.475,0.894,3.3,0c0.253-0.253-0.191-0.394-0.264-2.072C11.48,6.899,10.993,7.188,10.5,7.188z"/>
	<path fill="#212121" opacity="0.15" enable-background="new    " d="M8.61,8.306c0.072-0.03,0.146-0.063,0.219-0.091
		C8.769,8.38,8.75,8.463,8.85,8.563c0.091,0.098,0.196,0.185,0.311,0.262l0.207-0.079l0.107-0.298l0.019-0.053
		c0.088-0.24,0.238-0.658,0.297-1.403c-0.237-0.12-0.459-0.285-0.663-0.488l0,0c-0.019,1.013-0.21,1.458-0.3,1.711
		C8.755,8.243,8.682,8.276,8.61,8.306z"/>
	<path fill="#212121" opacity="0.15" enable-background="new    " d="M11.535,8.424l0.098,0.32l0.205,0.079c0.113-0.076,0.22-0.161,0.313-0.261
		c0.098-0.098,0.09-0.18,0.041-0.34c0.001,0,0.001,0,0.001,0.001c-0.077-0.253-0.261-0.701-0.306-1.733
		c-0.202,0.203-0.421,0.37-0.655,0.491c0.067,0.709,0.199,1.121,0.276,1.358L11.535,8.424z"/>
	<path fill="#FFC857" d="M10.5,7.188c-1.169,0-2.337-1.581-2.337-2.681V2.994C8.163,1.894,9.125,1,10.225,1h0.55
		c1.169,0,2.063,0.894,2.063,1.994v1.513C12.837,5.606,11.669,7.188,10.5,7.188L10.5,7.188z"/>
	<path fill="#212121" opacity="0.15" enable-background="new    " d="M10.775,1.688c0.771,0,1.375,0.574,1.375,1.306v1.513
		c0,0.769-0.901,1.994-1.65,1.994S8.85,5.276,8.85,4.506V2.994c0-0.696,0.643-1.306,1.375-1.306L10.775,1.688 M10.775,1h-0.55
		c-1.1,0-2.063,0.894-2.063,1.994v1.513c0,1.1,1.169,2.681,2.337,2.681s2.337-1.581,2.337-2.681V2.994
		C12.837,1.894,11.944,1,10.775,1L10.775,1z"/>
</g>
<g>
	<path fill="#79A548" d="M9.969,12.319c-1.16-0.331-1.97-0.785-2.778-1.096c0.049,0.16,0.057,0.241-0.041,0.34
		c-0.825,0.894-2.544,0.825-3.3,0c-0.1-0.1-0.081-0.182-0.021-0.347c-0.814,0.31-1.628,0.769-2.797,1.103
		c0,0-0.962,0.55-1.031,2.681h5.5H11C10.931,12.8,9.969,12.319,9.969,12.319z"/>
	<path fill="#212121" opacity="0.15" enable-background="new    " d="M0.754,14.313c0.147-0.89,0.481-1.267,0.586-1.368
		c0.758-0.226,1.369-0.498,1.913-0.739c0.063-0.028,0.124-0.055,0.185-0.082c0.503,0.485,1.267,0.771,2.074,0.771
		c0.813,0,1.559-0.286,2.051-0.771c0.061,0.027,0.122,0.054,0.184,0.081c0.545,0.242,1.161,0.515,1.922,0.742
		c0.111,0.098,0.439,0.458,0.581,1.365L10.313,15H11c-0.069-2.2-1.031-2.681-1.031-2.681c-1.16-0.331-1.97-0.785-2.778-1.096
		c0.049,0.16,0.057,0.241-0.041,0.34C6.746,12,6.127,12.207,5.512,12.207c-0.64,0-1.276-0.224-1.662-0.645
		c-0.1-0.1-0.081-0.182-0.021-0.347c-0.814,0.31-1.628,0.769-2.797,1.103c0,0-0.962,0.55-1.031,2.681h0.688L0.754,14.313z"/>
	<path fill="#FFC857" d="M5.5,10.188c-0.487,0-0.97-0.283-1.373-0.683l0,0l0,0c-0.031,1.665-0.529,1.806-0.277,2.058
		c0.756,0.825,2.475,0.894,3.3,0c0.253-0.253-0.191-0.394-0.264-2.072C6.48,9.899,5.993,10.188,5.5,10.188z"/>
	<path fill="#212121" opacity="0.15" enable-background="new    " d="M3.61,11.306c0.072-0.03,0.146-0.063,0.219-0.091
		c-0.06,0.165-0.078,0.248,0.021,0.347c0.091,0.098,0.196,0.185,0.311,0.262l0.207-0.079l0.107-0.298l0.019-0.053
		c0.088-0.24,0.238-0.658,0.297-1.403c-0.237-0.12-0.459-0.285-0.663-0.488l0,0c-0.019,1.013-0.21,1.458-0.3,1.711
		C3.755,11.243,3.682,11.276,3.61,11.306z"/>
	<path fill="#212121" opacity="0.15" enable-background="new    " d="M6.535,11.424l0.098,0.32l0.205,0.079c0.113-0.076,0.22-0.161,0.313-0.261
		c0.098-0.098,0.09-0.18,0.041-0.34c0.001,0,0.001,0,0.001,0.001c-0.077-0.253-0.261-0.701-0.306-1.733
		C6.685,9.693,6.465,9.86,6.232,9.981c0.067,0.709,0.199,1.121,0.276,1.358L6.535,11.424z"/>
	<path fill="#FFC857" d="M5.5,10.188c-1.169,0-2.338-1.581-2.338-2.681V5.994C3.162,4.894,4.125,4,5.225,4h0.55
		c1.169,0,2.063,0.894,2.063,1.994v1.513C7.837,8.606,6.669,10.188,5.5,10.188L5.5,10.188z"/>
	<path fill="#212121" opacity="0.15" enable-background="new    " d="M5.775,4.688c0.771,0,1.375,0.574,1.375,1.306v1.513
		C7.15,8.276,6.249,9.5,5.5,9.5S3.85,8.276,3.85,7.506V5.994c0-0.696,0.643-1.306,1.375-1.306H5.775 M5.775,4h-0.55
		c-1.1,0-2.063,0.894-2.063,1.994v1.513c0,1.1,1.169,2.681,2.338,2.681s2.337-1.581,2.337-2.681V5.994C7.837,4.894,6.944,4,5.775,4
		L5.775,4z"/>
</g>
</svg>
