<svg xmlns="http://www.w3.org/2000/svg" version="1.1" viewBox="0 0 16 16">
<path fill="#FF8700" d="M14.5,12.1c-1.688-0.482-2.866-1.142-4.04-1.594c0.072,0.232,0.083,0.351-0.06,0.494c-1.2,1.3-3.7,1.2-4.8,0
	c-0.145-0.145-0.118-0.265-0.031-0.505C4.385,10.946,3.201,11.614,1.5,12.1c0,0-1.4,0.8-1.5,3.9h8h8C15.9,12.8,14.5,12.1,14.5,12.1z
	"/>
<path fill="#212121" opacity="0.15" enable-background="new    " d="M1.097,15c0.214-1.294,0.7-1.843,0.853-1.99
	c1.102-0.329,1.992-0.724,2.782-1.075c0.091-0.04,0.18-0.08,0.269-0.119c0.731,0.705,1.843,1.121,3.017,1.121
	c1.182,0,2.268-0.416,2.983-1.121c0.088,0.039,0.177,0.078,0.267,0.118c0.793,0.352,1.688,0.749,2.796,1.079
	c0.161,0.143,0.638,0.666,0.845,1.986L15,16h1c-0.1-3.2-1.5-3.9-1.5-3.9c-1.688-0.482-2.866-1.142-4.04-1.594
	c0.072,0.232,0.083,0.351-0.06,0.494c-0.588,0.637-1.488,0.938-2.383,0.938c-0.931,0-1.856-0.326-2.417-0.938
	c-0.145-0.145-0.118-0.265-0.031-0.505C4.385,10.946,3.201,11.614,1.5,12.1c0,0-1.4,0.8-1.5,3.9h1L1.097,15z"/>
<path fill="#FFC857" d="M8,9C7.291,9,6.589,8.589,6.003,8.006l0,0l0,0C5.958,10.428,5.233,10.633,5.6,11c1.1,1.2,3.6,1.3,4.8,0
	c0.368-0.368-0.278-0.573-0.384-3.014C9.426,8.58,8.717,9,8,9z"/>
<path fill="#212121" opacity="0.15" enable-background="new    " d="M5.251,10.627c0.105-0.043,0.213-0.092,0.318-0.132
	C5.482,10.735,5.455,10.855,5.6,11c0.132,0.143,0.285,0.269,0.452,0.381l0.301-0.115l0.155-0.433l0.028-0.077
	c0.128-0.349,0.346-0.957,0.432-2.04C6.624,8.542,6.3,8.302,6.003,8.006l0,0c-0.028,1.473-0.305,2.121-0.437,2.489
	C5.462,10.535,5.356,10.584,5.251,10.627z"/>
<path opacity="0.15" enable-background="new    " d="M9.505,10.799l0.142,0.466l0.298,0.115c0.164-0.111,0.32-0.234,0.455-0.38
	c0.142-0.143,0.131-0.262,0.06-0.494c0.001,0,0.001,0,0.002,0.001c-0.112-0.368-0.38-1.02-0.445-2.521
	C9.723,8.281,9.404,8.524,9.065,8.7c0.098,1.032,0.289,1.63,0.401,1.975L9.505,10.799z"/>
<path fill="#FFC857" d="M8,9C6.3,9,4.6,6.7,4.6,5.1V2.9C4.6,1.3,6,0,7.6,0h0.8c1.7,0,3,1.3,3,2.9v2.2C11.4,6.7,9.7,9,8,9L8,9z"/>
<path fill="#212121" opacity="0.15" enable-background="new    " d="M8.4,1c1.122,0,2,0.835,2,1.9v2.2C10.4,6.219,9.09,8,8,8S5.6,6.219,5.6,5.1V2.9
	c0-1.012,0.935-1.9,2-1.9L8.4,1 M8.4,0H7.6c-1.6,0-3,1.3-3,2.9v2.2C4.6,6.7,6.3,9,8,9s3.4-2.3,3.4-3.9V2.9C11.4,1.3,10.1,0,8.4,0
	L8.4,0z"/>
</svg>
