<svg xmlns="http://www.w3.org/2000/svg" id="svg2" version="1.1" viewBox="0 0 16 16"><defs id="defs20"><clipPath id="clipPath3391" clipPathUnits="userSpaceOnUse"><path id="path3393" d="M0 600h800V0H0v600z"/></clipPath><clipPath id="clipPath3407" clipPathUnits="userSpaceOnUse"><path id="path3409" d="M316 477.408h60.363V417H316v60.408z"/></clipPath><clipPath id="clipPath3427" clipPathUnits="userSpaceOnUse"><path id="path3429" d="M622 477.971h60.121V418H622v59.971z"/></clipPath><clipPath id="clipPath3391-7" clipPathUnits="userSpaceOnUse"><path id="path3393-8" d="M0 600h800V0H0v600z"/></clipPath><clipPath id="clipPath3407-0" clipPathUnits="userSpaceOnUse"><path id="path3409-3" d="M316 477.408h60.363V417H316v60.408z"/></clipPath><clipPath id="clipPath3427-9" clipPathUnits="userSpaceOnUse"><path id="path3429-3" d="M622 477.971h60.121V418H622v59.971z"/></clipPath><clipPath id="clipPath3391-5" clipPathUnits="userSpaceOnUse"><path id="path3393-6" d="M0 600h800V0H0v600z"/></clipPath><clipPath id="clipPath3407-6" clipPathUnits="userSpaceOnUse"><path id="path3409-6" d="M316 477.408h60.363V417H316v60.408z"/></clipPath><clipPath id="clipPath3427-0" clipPathUnits="userSpaceOnUse"><path id="path3429-8" d="M622 477.971h60.121V418H622v59.971z"/></clipPath><clipPath id="clipPath3391-8" clipPathUnits="userSpaceOnUse"><path id="path3393-83" d="M0 600h800V0H0v600z"/></clipPath><clipPath id="clipPath3407-2" clipPathUnits="userSpaceOnUse"><path id="path3409-2" d="M316 477.408h60.363V417H316v60.408z"/></clipPath><clipPath id="clipPath3427-2" clipPathUnits="userSpaceOnUse"><path id="path3429-34" d="M622 477.971h60.121V418H622v59.971z"/></clipPath><clipPath id="clipPath3391-25" clipPathUnits="userSpaceOnUse"><path id="path3393-0" d="M0 600h800V0H0v600z"/></clipPath><clipPath id="clipPath3407-27" clipPathUnits="userSpaceOnUse"><path id="path3409-1" d="M316 477.408h60.363V417H316v60.408z"/></clipPath><clipPath id="clipPath3427-93" clipPathUnits="userSpaceOnUse"><path id="path3429-7" d="M622 477.971h60.121V418H622v59.971z"/></clipPath><clipPath id="clipPath3391-2" clipPathUnits="userSpaceOnUse"><path id="path3393-9" d="M0 600h800V0H0v600z"/></clipPath><clipPath id="clipPath3407-9" clipPathUnits="userSpaceOnUse"><path id="path3409-0" d="M316 477.408h60.363V417H316v60.408z"/></clipPath><clipPath id="clipPath3427-8" clipPathUnits="userSpaceOnUse"><path id="path3429-5" d="M622 477.971h60.121V418H622v59.971z"/></clipPath><clipPath id="clipPath3391-4" clipPathUnits="userSpaceOnUse"><path id="path3393-4" d="M0 600h800V0H0v600z"/></clipPath><clipPath id="clipPath3407-8" clipPathUnits="userSpaceOnUse"><path id="path3409-67" d="M316 477.408h60.363V417H316v60.408z"/></clipPath><clipPath id="clipPath3427-25" clipPathUnits="userSpaceOnUse"><path id="path3429-71" d="M622 477.971h60.121V418H622v59.971z"/></clipPath><clipPath id="clipPath3391-7-2" clipPathUnits="userSpaceOnUse"><path id="path3393-8-4" d="M0 600h800V0H0v600z"/></clipPath><clipPath id="clipPath3407-0-8" clipPathUnits="userSpaceOnUse"><path id="path3409-3-4" d="M316 477.408h60.363V417H316v60.408z"/></clipPath><clipPath id="clipPath3427-9-2" clipPathUnits="userSpaceOnUse"><path id="path3429-3-5" d="M622 477.971h60.121V418H622v59.971z"/></clipPath><clipPath id="clipPath3391-5-4" clipPathUnits="userSpaceOnUse"><path id="path3393-6-8" d="M0 600h800V0H0v600z"/></clipPath><clipPath id="clipPath3407-6-9" clipPathUnits="userSpaceOnUse"><path id="path3409-6-9" d="M316 477.408h60.363V417H316v60.408z"/></clipPath><clipPath id="clipPath3427-0-9" clipPathUnits="userSpaceOnUse"><path id="path3429-8-6" d="M622 477.971h60.121V418H622v59.971z"/></clipPath><clipPath id="clipPath3391-8-0" clipPathUnits="userSpaceOnUse"><path id="path3393-83-2" d="M0 600h800V0H0v600z"/></clipPath><clipPath id="clipPath3407-2-8" clipPathUnits="userSpaceOnUse"><path id="path3409-2-8" d="M316 477.408h60.363V417H316v60.408z"/></clipPath><clipPath id="clipPath3427-2-8" clipPathUnits="userSpaceOnUse"><path id="path3429-34-1" d="M622 477.971h60.121V418H622v59.971z"/></clipPath><clipPath id="clipPath3391-85" clipPathUnits="userSpaceOnUse"><path id="path3393-69" d="M0 600h800V0H0v600z"/></clipPath><clipPath id="clipPath3407-4" clipPathUnits="userSpaceOnUse"><path id="path3409-5" d="M316 477.408h60.363V417H316v60.408z"/></clipPath><clipPath id="clipPath3427-4" clipPathUnits="userSpaceOnUse"><path id="path3429-55" d="M622 477.971h60.121V418H622v59.971z"/></clipPath><clipPath id="clipPath3391-7-6" clipPathUnits="userSpaceOnUse"><path id="path3393-8-7" d="M0 600h800V0H0v600z"/></clipPath><clipPath id="clipPath3407-0-2" clipPathUnits="userSpaceOnUse"><path id="path3409-3-2" d="M316 477.408h60.363V417H316v60.408z"/></clipPath><clipPath id="clipPath3427-9-7" clipPathUnits="userSpaceOnUse"><path id="path3429-3-3" d="M622 477.971h60.121V418H622v59.971z"/></clipPath><clipPath id="clipPath3391-5-9" clipPathUnits="userSpaceOnUse"><path id="path3393-6-3" d="M0 600h800V0H0v600z"/></clipPath><clipPath id="clipPath3407-6-1" clipPathUnits="userSpaceOnUse"><path id="path3409-6-5" d="M316 477.408h60.363V417H316v60.408z"/></clipPath><clipPath id="clipPath3427-0-7" clipPathUnits="userSpaceOnUse"><path id="path3429-8-8" d="M622 477.971h60.121V418H622v59.971z"/></clipPath><clipPath id="clipPath3391-8-7" clipPathUnits="userSpaceOnUse"><path id="path3393-83-6" d="M0 600h800V0H0v600z"/></clipPath><clipPath id="clipPath3407-2-5" clipPathUnits="userSpaceOnUse"><path id="path3409-2-1" d="M316 477.408h60.363V417H316v60.408z"/></clipPath><clipPath id="clipPath3427-2-4" clipPathUnits="userSpaceOnUse"><path id="path3429-34-5" d="M622 477.971h60.121V418H622v59.971z"/></clipPath></defs><g id="g6705" fill="#0e85cd" fill-opacity="1"><g id="g4141" transform="translate(-1 1)"><g id="g4237" fill="#0e85cd" fill-opacity="1" stroke-dasharray="none" stroke-linecap="butt" stroke-linejoin="round" stroke-miterlimit="4" stroke-opacity="1" stroke-width="0"><path id="rect4171" stroke="#b9b9b9" d="M2 0v16h12V4l-4-4zm8 0z" transform="translate(1 -1)"/><path id="path4178" stroke="none" d="M11 2.98V-1l4 4z" opacity=".65"/><path id="path4446" stroke="none" d="M15 3.024V8l-4-5z" opacity=".15"/></g></g></g><path id="path6" fill="#fff" fill-opacity="1" d="M10 4V0l4 4h-4z" opacity=".65"/><path id="path4446-1" fill="#000" fill-opacity="1" stroke="none" stroke-dasharray="none" stroke-linecap="butt" stroke-linejoin="round" stroke-miterlimit="4" stroke-opacity="1" stroke-width="0" d="M14 4.024V9l-4-5z" opacity=".15"/><style id="style9465" type="text/css"></style><text xml:space="preserve" style="line-height:125%" id="text9842" x="4.714" y="13" fill="#fff" fill-opacity="1" stroke="none" stroke-linecap="butt" stroke-linejoin="miter" stroke-opacity="1" stroke-width="1" font-family="sans-serif" font-size="38.512" font-style="normal" font-weight="400" letter-spacing="0" word-spacing="0"><tspan id="tspan9844" x="4.714" y="13" style="-inkscape-font-specification:Verdana" fill="#fff" fill-opacity="1" font-family="Verdana" font-size="9.628" font-stretch="normal" font-style="normal" font-variant="normal" font-weight="400">Σ</tspan></text></svg>