<svg xmlns="http://www.w3.org/2000/svg" viewBox="0 0 16 16">
<g class="icon-color">
	<path d="M8,1C4.1,1,1,4.1,1,8c0,3.9,3.1,7,7,7c3.9,0,7-3.1,7-7c0,0,0,0,0,0C15,4.1,11.9,1,8,1z M14,8c0,3.3-2.7,6-6,6
		c-3.3,0-6-2.7-6-6c0-3.3,2.7-6,6-6C11.3,2,14,4.7,14,8C14,8,14,8,14,8z"/>
	<path d="M8.1,7.9c0,0.7-0.2,1.4-0.7,1.9c-0.5,0.5-1.2,0.8-1.9,0.7c-0.7,0-1.4-0.2-1.9-0.7C3.1,9.3,2.8,8.6,2.8,7.9
		c0-0.7,0.2-1.4,0.7-1.9c0.5-0.5,1.2-0.8,1.9-0.7c0.7,0,1.4,0.2,1.9,0.7C7.9,6.5,8.1,7.2,8.1,7.9z M6.4,9.2C6.5,9,6.6,8.8,6.6,8.6
		c0.1-0.2,0.1-0.5,0.1-0.7c0-0.3,0-0.5-0.1-0.8C6.6,6.9,6.5,6.7,6.3,6.6C6.2,6.4,6.1,6.3,5.9,6.3C5.6,6.2,5.3,6.2,5,6.3
		C4.8,6.3,4.7,6.4,4.6,6.6C4.5,6.7,4.4,6.9,4.3,7.1C4.2,7.4,4.2,7.6,4.2,7.9c0,0.3,0,0.5,0.1,0.8C4.4,8.8,4.5,9,4.6,9.2
		C4.7,9.3,4.8,9.4,5,9.5c0.2,0.1,0.3,0.1,0.5,0.1c0.2,0,0.3,0,0.5-0.1C6.1,9.4,6.2,9.3,6.4,9.2z"/>
	<path d="M12.9,8.8c0,0.5-0.2,0.9-0.6,1.2c-0.5,0.3-1.1,0.5-1.7,0.5c-0.4,0-0.7,0-1.1-0.1c-0.3-0.1-0.6-0.2-0.9-0.3V8.9h0.1
		c0.3,0.2,0.6,0.4,0.9,0.5c0.3,0.1,0.6,0.2,1,0.2c0.1,0,0.2,0,0.3,0c0.1,0,0.2,0,0.3-0.1c0.1,0,0.2-0.1,0.2-0.2
		c0.1-0.1,0.1-0.2,0.1-0.3c0-0.1-0.1-0.2-0.1-0.3c-0.1-0.1-0.3-0.2-0.4-0.2c-0.2,0-0.4-0.1-0.6-0.1c-0.2,0-0.4-0.1-0.6-0.2
		C9.4,8.2,9.1,8,8.8,7.7C8.6,7.5,8.5,7.2,8.5,6.9c0-0.5,0.2-0.9,0.6-1.2c0.5-0.3,1.1-0.5,1.6-0.4c0.3,0,0.7,0,1,0.1
		c0.3,0.1,0.6,0.1,0.8,0.2v1.2h-0.1c-0.2-0.2-0.5-0.3-0.8-0.4c-0.3-0.1-0.6-0.2-0.9-0.2c-0.1,0-0.2,0-0.3,0c-0.1,0-0.2,0-0.3,0.1
		c-0.1,0-0.2,0.1-0.2,0.2C9.9,6.5,9.9,6.6,9.9,6.7c0,0.1,0.1,0.2,0.2,0.3c0.2,0.1,0.4,0.2,0.6,0.2c0.2,0,0.4,0.1,0.5,0.1
		c0.2,0,0.4,0.1,0.6,0.2c0.3,0.1,0.6,0.3,0.9,0.5C12.8,8.2,12.9,8.5,12.9,8.8z"/>
</g>
</svg>