<svg id="Ebene_2" data-name="Ebene 2" xmlns="http://www.w3.org/2000/svg" width="14.34688" height="14.34739" viewBox="0 0 14.34688 14.34739"><title>information-os-unknown</title><path d="M7.973,15.14905a7.1737,7.1737,0,1,1,7.17319-7.1737A7.1819,7.1819,0,0,1,7.973,15.14905Zm0-13.30015A6.12646,6.12646,0,1,0,14.099,7.97535,6.13361,6.13361,0,0,0,7.973,1.8489Z" transform="translate(-0.79932 -0.80166)"/><path d="M8.06641,7.85436a2.64908,2.64908,0,0,1-.69727,1.93212,2.566,2.566,0,0,1-1.92773.7168,2.56171,2.56171,0,0,1-1.92432-.7168,2.64908,2.64908,0,0,1-.69727-1.93212A2.653,2.653,0,0,1,3.51709,5.9149,2.56706,2.56706,0,0,1,5.44141,5.202a2.57379,2.57379,0,0,1,1.92431.71289A2.64478,2.64478,0,0,1,8.06641,7.85436ZM6.32666,9.14293a1.52922,1.52922,0,0,0,.28369-.54834,2.67031,2.67031,0,0,0,.09229-.74365,2.50336,2.50336,0,0,0-.106-.7793,1.51788,1.51788,0,0,0-.27686-.51953A1.035,1.035,0,0,0,5.918,6.25475a1.27346,1.27346,0,0,0-.94336-.00342,1.10173,1.10173,0,0,0-.40479.29394,1.45653,1.45653,0,0,0-.2788.52784,2.58455,2.58455,0,0,0-.10743.78125,2.50691,2.50691,0,0,0,.1045.77441,1.53533,1.53533,0,0,0,.2749.521,1.05176,1.05176,0,0,0,.3999.29687,1.22692,1.22692,0,0,0,.48193.0957,1.21146,1.21146,0,0,0,.48194-.09765A1.04507,1.04507,0,0,0,6.32666,9.14293Z" transform="translate(-0.79932 -0.80166)"/><path d="M12.8418,8.79771a1.44866,1.44866,0,0,1-.63868,1.2212,2.85384,2.85384,0,0,1-1.73046.4707,4.80955,4.80955,0,0,1-1.10157-.11133,5.67168,5.67168,0,0,1-.88086-.28223V8.87633h.14356a3.05624,3.05624,0,0,0,.91113.499,2.95526,2.95526,0,0,0,.96875.17383c.08008,0,.1836-.00684.31445-.02051a1.2563,1.2563,0,0,0,.31836-.06836.81688.81688,0,0,0,.248-.15332.36143.36143,0,0,0,.0957-.27344.368.368,0,0,0-.14062-.28857.98828.98828,0,0,0-.416-.18652c-.1914-.04541-.39257-.08838-.60547-.12793a4.64663,4.64663,0,0,1-.60058-.15235,1.88249,1.88249,0,0,1-.92432-.56543,1.38565,1.38565,0,0,1-.28222-.8872A1.36412,1.36412,0,0,1,9.15918,5.6649a2.77737,2.77737,0,0,1,1.6377-.44922,5.06125,5.06125,0,0,1,.99414.09766,4.56657,4.56657,0,0,1,.84765.24414V6.72984H12.5a2.70965,2.70965,0,0,0-.75391-.41162,2.5904,2.5904,0,0,0-.91211-.166,2.3619,2.3619,0,0,0-.32617.02246,1.29785,1.29785,0,0,0-.3125.08349.6056.6056,0,0,0-.22851.15577.33778.33778,0,0,0-.09571.2373.35393.35393,0,0,0,.1543.30957,1.71273,1.71273,0,0,0,.58008.19629q.28125.05785.53906.11279a5.57072,5.57072,0,0,1,.55469.15039,1.85084,1.85084,0,0,1,.86328.521A1.28372,1.28372,0,0,1,12.8418,8.79771Z" transform="translate(-0.79932 -0.80166)"/></svg>