<?xml version="1.0" encoding="utf-8"?>
<!-- Generator: Adobe Illustrator 22.1.0, SVG Export Plug-In . SVG Version: 6.00 Build 0)  -->
<svg version="1.1" xmlns="http://www.w3.org/2000/svg" xmlns:xlink="http://www.w3.org/1999/xlink" x="0px" y="0px"
	 viewBox="0 0 16 16" enable-background="new 0 0 16 16">
<g fill="currentColor">
	<path d="M11.1,10.3c-0.2,0-0.3,0.1-0.5,0.1C9,10.4,6.8,5,6.8,3.2c0-0.7,0.2-0.9,0.4-1.1C5.2,2.3,3,3,2.3,3.9C2.1,4.1,2,4.5,2,4.9
		c0,2.8,3,9.2,5.1,9.2C8.1,14.1,9.7,12.5,11.1,10.3 M10.1,1.9C12,1.9,14,2.2,14,3.3c0,2.2-1.4,4.9-2.1,4.9C10.6,8.3,9,4.7,9,2.9
		C9,2.1,9.3,1.9,10.1,1.9"/>
</g>
</svg>
