<svg xmlns="http://www.w3.org/2000/svg" id="Ebene_1" x="0" y="0" version="1.1" viewBox="0 0 16 16" xml:space="preserve"><style>.st3{fill:#b9b9b9}</style><path fill="#fff" d="M4 3h10v12H4V3z"/><path fill="#666" d="M4 3v12h10V3H4zm1 1h8v10H5V4z"/><path fill="#999" d="M5 4h8v1H5z"/><path d="M2 1h1v1H2zM2 3h1v1H2zM2 5h1v1H2zM2 7h1v1H2zM2 9h1v1H2zM2 11h1v1H2zM4 1h1v1H4zM6 1h1v1H6zM8 1h1v1H8zM10 1h1v1h-1z" class="st3"/><circle cx="9" cy="10" r="3" fill="#59f"/><path fill="#ffc857" d="M9 10h3c0-1.7-1.3-3-3-3v3z"/></svg>