<svg xmlns="http://www.w3.org/2000/svg" viewBox="0 0 64 64"><path fill="currentColor" d="M48 16c-.43 0-1.09-.27-1.86-.59C44.71 14.82 42.74 14 40 14c-3.87 0-6.25 1.92-8 3.41-1.75-1.48-4.13-3.41-8-3.41-2.74 0-4.7.81-6.14 1.41-.77.32-1.43.59-1.86.59-1.1 0-2 .9-2 2v24c0 1.1.9 2 2 2 1.23 0 2.32-.44 3.47-.91C20.8 42.55 22.17 42 24 42c1.19 0 2.22.21 3.14.65 1 .47 2.19.05 2.67-.95.47-1 .05-2.19-.95-2.67-1.47-.7-3.06-1.04-4.86-1.04-2.59 0-4.56.79-6 1.37V19.63c.46-.15.92-.34 1.39-.54 1.31-.54 2.66-1.1 4.61-1.1 2.52 0 4.01 1.26 5.58 2.6.14.12.28.24.42.35v17.04c0 1.1.9 2 2 2s2-.9 2-2V20.94c.14-.12.28-.23.42-.35 1.57-1.34 3.06-2.6 5.58-2.6 1.95 0 3.3.56 4.61 1.1.47.19.93.38 1.39.54v8.36c0 1.1.9 2 2 2s2-.9 2-2v-10c0-1.1-.9-2-2-2Z"/><path fill="var(--icon-color-accent, #ff8700)" d="M51.35 41.95c-.82-.75-2.08-.69-2.83.13L46 44.84V34c0-1.1-.9-2-2-2s-2 .9-2 2v10.84l-2.52-2.76c-.74-.81-2.01-.87-2.83-.13-.82.74-.87 2.01-.13 2.83l6 6.57c.05.06.11.1.17.15.03.03.06.06.1.09.14.11.3.2.46.26.01 0 .02.01.03.02.07.03.14.04.21.06.04.01.09.03.13.04.13.03.26.04.39.04s.26-.01.39-.04c.04 0 .09-.03.13-.04.07-.02.14-.03.21-.06.01 0 .02-.01.03-.02.16-.07.32-.15.46-.26.04-.03.07-.06.1-.09.06-.05.12-.09.17-.15l6-6.57c.75-.82.69-2.08-.13-2.83Z"/><g opacity=".6"><path fill="currentColor" d="M30 42h-.37c-.55.78-1.6 1.08-2.49.65-.92-.44-1.95-.65-3.14-.65-1.83 0-3.2.56-4.53 1.09-1.15.47-2.24.91-3.47.91-1.1 0-2-.9-2-2V22c-1.1 0-2 .9-2 2v22c0 1.1.9 2 2 2h16c1.1 0 2-.9 2-2v-2c0-1.1-.9-2-2-2Z"/></g><g opacity=".6"><path fill="currentColor" d="M50 22v6c0 1.1-.9 2-2 2 0 1.1.9 2 2 2s2-.9 2-2v-6c0-1.1-.9-2-2-2Z"/></g></svg>