<?xml version="1.0" encoding="utf-8"?>
<!-- Generator: Adobe Illustrator 19.1.1, SVG Export Plug-In . SVG Version: 6.00 Build 0)  -->
<svg version="1.1" xmlns="http://www.w3.org/2000/svg" xmlns:xlink="http://www.w3.org/1999/xlink" x="0px" y="0px"
	 viewBox="0 0 16 16" enable-background="new 0 0 16 16" xml:space="preserve">
<g>
	<path fill="#666666" d="M11.733,1.412c-0.615,0-1.23,0.236-1.701,0.707L8.044,4.107c-0.943,0.943-0.943,2.46,0,3.403l0.447,0.447
		c0.943,0.943,2.46,0.943,3.403,0l1.988-1.988c0.943-0.943,0.943-2.46,0-3.403l-0.447-0.447C12.962,1.648,12.348,1.412,11.733,1.412
		z M11.551,2.533c0.436-0.022,0.936,0.18,1.336,0.58c0.64,0.64,0.771,1.538,0.295,2.016l-2.127,2.127
		c-0.477,0.477-1.378,0.347-2.018-0.293s-0.77-1.539-0.293-2.018l2.127-2.127C11.05,2.639,11.289,2.546,11.551,2.533z"/>
	<path fill="#666666" d="M5.808,7.336c-0.615,0-1.23,0.236-1.701,0.707l-1.988,1.988c-0.943,0.943-0.943,2.461,0,3.403l0.447,0.447
		c0.943,0.943,2.46,0.943,3.403,0l1.988-1.988c0.943-0.943,0.943-2.46,0-3.403L7.51,8.043C7.037,7.573,6.424,7.336,5.808,7.336z
		 M5.625,8.458c0.436-0.022,0.938,0.18,1.338,0.58c0.64,0.64,0.77,1.539,0.293,2.018l-2.127,2.127
		c-0.477,0.477-1.376,0.345-2.016-0.295s-0.771-1.538-0.295-2.016l2.127-2.127C5.123,8.566,5.363,8.471,5.625,8.458z"/>
	<path opacity="0.3" enable-background="new    " d="M8.018,7.535l0.447,0.447c0.343,0.343,0.762,0.557,1.201,0.65l1.316-1.316
		c-0.487,0.429-1.35,0.293-1.971-0.328C9.329,6.781,7.866,7.189,8.018,7.535z"/>
	<path opacity="0.3" enable-background="new    " d="M7.515,8.047l0.447,0.447c0.343,0.343,0.557,0.762,0.65,1.201l-1.316,1.316
		c0.429-0.487,0.293-1.351-0.328-1.971C6.76,9.357,7.168,7.895,7.515,8.047z"/>
	<path fill="#999999" d="M5.002,9.458l4.463-4.463c0.256-0.256,0.809-0.119,1.234,0.306l0,0c0.425,0.425,0.562,0.978,0.306,1.234
		l-4.463,4.463c-0.256,0.256-0.809,0.119-1.234-0.306l0,0C4.883,10.267,4.746,9.714,5.002,9.458z"/>
</g>
</svg>
