<?xml version="1.0" encoding="utf-8"?>
<!-- Generator: Adobe Illustrator 19.1.1, SVG Export Plug-In . SVG Version: 6.00 Build 0)  -->
<svg version="1.1" xmlns="http://www.w3.org/2000/svg" xmlns:xlink="http://www.w3.org/1999/xlink" x="0px" y="0px"
	 viewBox="0 0 16 16" enable-background="new 0 0 16 16" xml:space="preserve">
<g opacity="0.5">
	<path fill="#EFEFEF" d="M2,0v16h12V4l-4-4H2z"/>
	<path opacity="0.65" fill="#FFFFFF" enable-background="new    " d="M10,4V0l4,4H10z"/>
	<path opacity="0.2" enable-background="new    " d="M13,5v5L9,5H13z"/>
	<path fill="#999999" d="M2,0v16h12V4h-0.012l0.004-0.008l-3.984-3.986L10,0.014V0H2z M3,1h6v4h4v10H3V1z M10,1.412L12.586,4H10
		V1.412z"/>
</g>
<path fill="#666666" d="M9,9h7v7H9V9z"/>
<path fill="#FFFFFF" d="M10,10h5v5h-5V10z"/>
<path d="M11,13.115c0,0.082,0.012,0.178,0.036,0.286s0.052,0.206,0.083,0.295c0.03,0.088,0.063,0.177,0.1,0.266
	c0.038,0.09,0.066,0.153,0.086,0.193l0.043,0.085c0.01,0.024,0.03,0.036,0.06,0.036c0.008,0,0.014,0,0.018-0.002
	c0.036-0.01,0.052-0.036,0.05-0.072c-0.062-0.568,0.013-0.97,0.225-1.204c0.09-0.1,0.212-0.18,0.364-0.234
	c0.15-0.057,0.34-0.094,0.57-0.113v0.534c0,0.06,0.027,0.102,0.082,0.126c0.017,0.007,0.035,0.01,0.052,0.01
	c0.038,0,0.07-0.012,0.096-0.04l1.09-1.09c0.03-0.03,0.042-0.06,0.042-0.098s-0.013-0.07-0.04-0.096l-1.09-1.09
	c-0.042-0.045-0.092-0.055-0.15-0.03c-0.055,0.023-0.083,0.065-0.083,0.125v0.56c-0.584,0.04-1.01,0.196-1.276,0.47
	c-0.24,0.246-0.36,0.608-0.36,1.085L11,13.115z"/>
</svg>
