<?xml version="1.0" encoding="utf-8"?>
<!-- Generator: Adobe Illustrator 19.1.1, SVG Export Plug-In . SVG Version: 6.00 Build 0)  -->
<svg version="1.1" xmlns="http://www.w3.org/2000/svg" xmlns:xlink="http://www.w3.org/1999/xlink" x="0px" y="0px"
	 viewBox="0 0 16 16" enable-background="new 0 0 16 16" xml:space="preserve">
<path fill="#EFEFEF" d="M2,0v16h12V4l-4-4H2z"/>
<path opacity="0.65" fill="#FFFFFF" enable-background="new    " d="M10,4V0l4,4H10z"/>
<path opacity="0.2" enable-background="new    " d="M13,5v5L9,5H13z"/>
<path fill="#999999" d="M2,0v16h12V4h-0.012l0.004-0.008l-3.984-3.986L10,0.014V0H2z M3,1h6v4h4v10H3V1z M10,1.412L12.586,4H10
	V1.412z"/>
<path fill="#79A548" d="M9,9h7v7H9V9z"/>
<path opacity="0.3" enable-background="new    " d="M15,10v5h-5v-5H15 M16,9H9v7h7V9L16,9z"/>
<rect x="12" y="11" fill="#FFFFFF" width="1" height="3"/>
<rect x="11" y="12" fill="#FFFFFF" width="3" height="1"/>
</svg>
