<?xml version="1.0" encoding="utf-8"?>
<!-- Generator: Adobe Illustrator 19.1.1, SVG Export Plug-In . SVG Version: 6.00 Build 0)  -->
<svg version="1.1" xmlns="http://www.w3.org/2000/svg" xmlns:xlink="http://www.w3.org/1999/xlink" x="0px" y="0px"
	 viewBox="0 0 16 16" enable-background="new 0 0 16 16" xml:space="preserve">
<g>
	<circle fill="#5599FF" cx="8" cy="8" r="8"/>
	<path fill="#AAD400" d="M14.973,7.378c-0.22-2.364-1.602-4.393-3.545-5.48c-0.092,0.097-0.117,0.04-0.117,0.137
		c-0.277,0.097-0.646-0.097-0.923-0.194c-0.738-0.29-1.476-0.29-2.122-0.097C7.989,1.841,7.344,1.938,7.62,2.52
		c0.184,0.292,0.645,0.583,1.107,0.195c0.184-0.194,0.37-0.485,0.645-0.194c0.093,0.098,0.093,0.195,0.093,0.292
		c-0.093,0.29-0.37,0.388-0.646,0.388c-0.37,0.097-0.74,0-1.108,0.097c-0.37,0.097-0.923,0.194-0.923,0.68
		c0,0.58-0.185,0.678-0.647,0.775c-0.37,0-0.553,0.194-0.37,0.582c0.093,0.29,0.37,0.29,0.555,0.194
		C7.064,5.141,7.71,4.171,8.54,5.335l0.184-0.097c0.185-0.776,0.37-0.29,0.554,0l0.277,0.29c1.107-1.066,0.83,0.486,1.2,0.776
		c-0.74-0.194-1.57,0.582-2.215,0.097C7.433,5.529,6.695,5.917,5.68,6.789c-0.83,0.68-1.015,1.552-0.83,2.328
		c0.276,0.97,1.29,1.067,2.122,0.873c0.276-0.098,0.83-0.098,0.83,0.096c-0.185,0.873,0.83,1.455,0.46,2.424
		c-0.276,0.776,0.186,1.746,0.83,2.037c0.647,0.29,1.2-0.485,1.478-1.164c0.092-0.097,0-0.29,0.092-0.388
		c0.738-0.97,0.646-2.424,1.568-3.394c0.277-0.29,1.2-1.357,0.46-2.23c1.754-0.485,1.11,1.26,1.478,2.037
		c0.276-0.582,0.46-1.164,0.645-1.65C14.905,7.468,14.973,7.378,14.973,7.378z"/>
	<path fill="#AAD400" d="M4.948,2.21c0.29-0.306,0.303-0.356,0.594-0.765C4.933,1.659,4.168,2.083,3.619,2.544l0.168,0.177H4.66
		c0,0,0.097,0,0.097-0.1l0.097-0.103c0,0,0.097,0,0.097-0.102l0.096-0.102l0.097-0.103c-0.29,0.205-0.29,0.103-0.194,0
		c0,0.103,0,0.103,0,0c0,0.103,0,0,0,0L4.948,2.21z"/>
	<path fill="#AAD400" d="M3.666,11.65C3.666,11.65,3.57,11.558,3.666,11.65C3.57,11.558,3.57,11.558,3.666,11.65v-0.092v-0.092
		v-0.092L3.57,11.282c-0.095,0-0.095-0.093-0.19-0.093s-0.19-0.093-0.286-0.093H2.999H2.903c0,0-0.095,0-0.095-0.092
		c-0.668-0.37-0.953-1.015-1.144-1.752c0-0.185-0.095-0.37-0.095-0.554C1.475,8.605,1.475,8.513,1.379,8.42
		c-0.19-0.184-0.094-0.553,0.096-0.922V7.314c0-0.093,0-0.093,0.095-0.185c0-0.09,0-0.09,0.096-0.183
		c0.19-0.37,0.572-0.646,0.762-0.923c0.095-0.092,0.095-0.092,0.095-0.184V5.747c0.095-0.092,0.095-0.277,0.19-0.37
		c0-0.09,0.096-0.276,0.096-0.368c0-0.185,0-0.277-0.096-0.46C2.617,4.271,2.559,4.031,2.369,3.846
		c-0.858,1.2-1.37,2.546-1.37,4.113c0,2.123,0.903,4.006,2.414,5.324c0,0,0.061,0.026,0.061-0.064v-0.094
		c0-0.092,0.095-0.092,0.095-0.184C3.665,12.571,3.665,12.019,3.666,11.65L3.666,11.65z"/>
	<path opacity="0.2" enable-background="new    " d="M8,16c-4.411,0-8-3.589-8-8s3.589-8,8-8s8,3.589,8,8S12.411,16,8,16z M8,1
		C4.14,1,1,4.14,1,8c0,3.859,3.14,7,7,7c3.859,0,7-3.141,7-7C15,4.14,11.859,1,8,1z"/>
</g>
<g>
	<g>
		<path fill="#666666" d="M12.15,5H11.85c-1.172,0-2.125,0.937-2.125,2.088v0.825c0,0.434,0.161,0.91,0.438,1.33
			C9.895,9.362,9.617,9.482,9.288,9.576L9.171,9.609l-0.105,0.06C8.897,9.766,8.054,10.362,8.001,12L8,15h8v-3
			c-0.053-1.638-0.897-2.234-1.066-2.331l-0.105-0.06l-0.117-0.033c-0.329-0.094-0.608-0.214-0.875-0.333
			c0.277-0.42,0.438-0.897,0.438-1.33V7.088C14.276,5.937,13.322,5,12.15,5L12.15,5z"/>
		<g>
			<path fill="#FFC857" d="M14.438,10.538c-0.637-0.182-1.081-0.432-1.525-0.601c-0.049-0.138-0.153-0.381-0.164-0.934c0,0,0,0,0,0
				c0.307-0.305,0.527-0.74,0.527-1.09V7.088C13.276,6.488,12.75,6,12.15,6H11.85c-0.6,0-1.125,0.488-1.125,1.088v0.825
				c0,0.35,0.22,0.785,0.527,1.09c0,0,0,0,0,0c-0.01,0.553-0.114,0.796-0.164,0.934c-0.444,0.169-0.888,0.419-1.525,0.601
				c0,0-0.525,0.3-0.562,1.462v1h6v-1C14.962,10.838,14.438,10.538,14.438,10.538z"/>
		</g>
		<path fill="#ABD7FF" d="M14.438,10.538c-0.633-0.181-1.075-0.428-1.515-0.598c0.027,0.087,0.031,0.131-0.022,0.185
			c-0.45,0.488-1.388,0.45-1.8,0c-0.055-0.055-0.044-0.099-0.011-0.189c-0.444,0.169-0.888,0.419-1.526,0.602
			c0,0-0.525,0.3-0.562,1.462v2h6v-2C14.962,10.8,14.438,10.538,14.438,10.538z"/>
	</g>
	<g>
		<path fill="#666666" d="M9.15,7H8.85C7.678,7,6.724,7.937,6.724,9.088v0.825c0,0.434,0.161,0.91,0.438,1.33
			c-0.267,0.119-0.546,0.239-0.875,0.333l-0.117,0.033l-0.105,0.06C5.897,11.766,5.054,12.362,5.001,14L5,16h8v-2
			c-0.053-1.638-0.897-2.234-1.066-2.331l-0.105-0.06l-0.117-0.033c-0.329-0.094-0.608-0.214-0.875-0.333
			c0.277-0.42,0.438-0.897,0.438-1.33V9.088C11.276,7.937,10.322,7,9.15,7L9.15,7z"/>
		<g>
			<path fill="#FFC857" d="M11.438,12.538c-0.637-0.182-1.081-0.432-1.525-0.601c-0.049-0.138-0.153-0.381-0.164-0.934c0,0,0,0,0,0
				c0.307-0.305,0.527-0.74,0.527-1.09V9.088C10.276,8.488,9.75,8,9.15,8H8.85c-0.6,0-1.125,0.488-1.125,1.088v0.825
				c0,0.35,0.22,0.785,0.527,1.09c0,0,0,0,0,0c-0.01,0.553-0.114,0.796-0.164,0.934c-0.444,0.169-0.888,0.419-1.525,0.601
				c0,0-0.525,0.3-0.562,1.462v1h6v-1C11.962,12.838,11.438,12.538,11.438,12.538z"/>
		</g>
		<path fill="#5599FF" d="M11.438,12.538c-0.633-0.181-1.075-0.428-1.515-0.598c0.027,0.087,0.031,0.131-0.022,0.185
			c-0.45,0.488-1.388,0.45-1.8,0c-0.055-0.055-0.044-0.099-0.011-0.189c-0.444,0.169-0.888,0.419-1.526,0.602
			c0,0-0.525,0.3-0.562,1.462v1h6v-1C11.962,12.8,11.438,12.538,11.438,12.538z"/>
	</g>
</g>
</svg>
