<svg xmlns="http://www.w3.org/2000/svg" viewBox="0 0 16 16">
<g opacity="0.5">
	<path fill="#EFEFEF" d="M2,0v16h12V4l-4-4H2z"/>
	<path fill="#FFF" opacity="0.65" d="M10,4V0l4,4H10z"/>
	<path fill="#212121" opacity="0.2" d="M13,5v5L9,5H13z"/>
	<path fill="#999999" d="M2,0v16h12V4l0,0l0,0l-4-4l0,0l0,0H2z M3,1h6v4h4v10H3V1z M10,1.4L12.6,4H10V1.4z"/>
</g>
<g>
	<path fill="#666666" d="M10.725,5h-0.45C8.818,5,7.588,6.205,7.588,7.631v1.237c0,0.649,0.287,1.38,0.769,1.99
		c-0.012,0.118-0.027,0.217-0.044,0.301c-0.095,0.041-0.19,0.084-0.288,0.127c-0.441,0.196-0.896,0.398-1.456,0.558l-0.116,0.033
		l-0.105,0.06C6.135,12.059,5,12.809,5,15v1h11l0-1c0-2.275-1.175-2.978-1.396-3.088L14.52,11.87l-0.089-0.026
		c-0.562-0.16-1.019-0.364-1.461-0.56c-0.086-0.038-0.171-0.076-0.255-0.113c-0.019-0.094-0.038-0.204-0.053-0.338
		c0.47-0.606,0.751-1.327,0.751-1.966V7.631C13.412,6.156,12.232,5,10.725,5L10.725,5z"/>
	<path fill="#FFC857" d="M14.156,12.806c-0.949-0.271-1.612-0.642-2.272-0.896c-0.063-0.207-0.214-0.574-0.25-1.418
		c0.454-0.457,0.779-1.103,0.779-1.623V7.631c0-0.9-0.731-1.631-1.688-1.631h-0.45c-0.9,0-1.688,0.731-1.688,1.631v1.237
		c0,0.525,0.329,1.177,0.789,1.635c0,0,0,0,0,0c-0.015,0.829-0.171,1.194-0.245,1.401c-0.666,0.254-1.331,0.629-2.287,0.902
		c0,0-0.787,0.45-0.844,2.194h4.5H15C14.944,13.2,14.156,12.806,14.156,12.806z"/>
	<path fill="#79A548" d="M14.156,12.806c-0.95-0.271-1.612-0.642-2.273-0.897c0.04,0.131,0.047,0.197-0.034,0.278
		c-0.675,0.731-2.081,0.675-2.7,0c-0.082-0.082-0.066-0.149-0.017-0.284c-0.666,0.254-1.332,0.629-2.289,0.903
		c0,0-0.787,0.45-0.844,2.194h4.5H15C14.944,13.2,14.156,12.806,14.156,12.806z"/>
</g>
</svg>