<?xml version="1.0" encoding="utf-8"?>
<!-- Generator: Adobe Illustrator 19.1.1, SVG Export Plug-In . SVG Version: 6.00 Build 0)  -->
<svg version="1.1" xmlns="http://www.w3.org/2000/svg" xmlns:xlink="http://www.w3.org/1999/xlink" x="0px" y="0px"
	 viewBox="0 0 16 16" enable-background="new 0 0 16 16" xml:space="preserve">
<g>
	<circle fill="#5599FF" cx="8" cy="8" r="8"/>
	<path fill="#AAD400" d="M14.973,7.378c-0.22-2.364-1.602-4.393-3.545-5.48c-0.092,0.097-0.117,0.04-0.117,0.137
		c-0.277,0.097-0.646-0.097-0.923-0.194c-0.738-0.29-1.476-0.29-2.122-0.097C7.989,1.841,7.344,1.938,7.62,2.52
		c0.184,0.292,0.645,0.583,1.107,0.195c0.184-0.194,0.37-0.485,0.645-0.194c0.093,0.098,0.093,0.195,0.093,0.292
		c-0.093,0.29-0.37,0.388-0.646,0.388c-0.37,0.097-0.74,0-1.108,0.097c-0.37,0.097-0.923,0.194-0.923,0.68
		c0,0.58-0.185,0.678-0.647,0.775c-0.37,0-0.553,0.194-0.37,0.582c0.093,0.29,0.37,0.29,0.555,0.194
		C7.064,5.141,7.71,4.171,8.54,5.335l0.184-0.097c0.185-0.776,0.37-0.29,0.554,0l0.277,0.29c1.107-1.066,0.83,0.486,1.2,0.776
		c-0.74-0.194-1.57,0.582-2.215,0.097C7.433,5.529,6.695,5.917,5.68,6.789c-0.83,0.68-1.015,1.552-0.83,2.328
		c0.276,0.97,1.29,1.067,2.122,0.873c0.276-0.098,0.83-0.098,0.83,0.096c-0.185,0.873,0.83,1.455,0.46,2.424
		c-0.276,0.776,0.186,1.746,0.83,2.037c0.647,0.29,1.2-0.485,1.478-1.164c0.092-0.097,0-0.29,0.092-0.388
		c0.738-0.97,0.646-2.424,1.568-3.394c0.277-0.29,1.2-1.357,0.46-2.23c1.754-0.485,1.11,1.26,1.478,2.037
		c0.276-0.582,0.46-1.164,0.645-1.65C14.905,7.468,14.973,7.378,14.973,7.378z"/>
	<path fill="#AAD400" d="M4.948,2.21c0.29-0.306,0.303-0.356,0.594-0.765C4.933,1.659,4.168,2.083,3.619,2.544l0.168,0.177H4.66
		c0,0,0.097,0,0.097-0.1l0.097-0.103c0,0,0.097,0,0.097-0.102l0.096-0.102l0.097-0.103c-0.29,0.205-0.29,0.103-0.194,0
		c0,0.103,0,0.103,0,0c0,0.103,0,0,0,0L4.948,2.21z"/>
	<path fill="#AAD400" d="M3.666,11.65C3.666,11.65,3.57,11.558,3.666,11.65C3.57,11.558,3.57,11.558,3.666,11.65v-0.092v-0.092
		v-0.092L3.57,11.282c-0.095,0-0.095-0.093-0.19-0.093s-0.19-0.093-0.286-0.093H2.999H2.903c0,0-0.095,0-0.095-0.092
		c-0.668-0.37-0.953-1.015-1.144-1.752c0-0.185-0.095-0.37-0.095-0.554C1.475,8.605,1.475,8.513,1.379,8.42
		c-0.19-0.184-0.094-0.553,0.096-0.922V7.314c0-0.093,0-0.093,0.095-0.185c0-0.09,0-0.09,0.096-0.183
		c0.19-0.37,0.572-0.646,0.762-0.923c0.095-0.092,0.095-0.092,0.095-0.184V5.747c0.095-0.092,0.095-0.277,0.19-0.37
		c0-0.09,0.096-0.276,0.096-0.368c0-0.185,0-0.277-0.096-0.46C2.617,4.271,2.559,4.031,2.369,3.846
		c-0.858,1.2-1.37,2.546-1.37,4.113c0,2.123,0.903,4.006,2.414,5.324c0,0,0.061,0.026,0.061-0.064v-0.094
		c0-0.092,0.095-0.092,0.095-0.184C3.665,12.571,3.665,12.019,3.666,11.65L3.666,11.65z"/>
	<path fill="#212121" opacity="0.2" enable-background="new    " d="M8,16c-4.411,0-8-3.589-8-8s3.589-8,8-8s8,3.589,8,8S12.411,16,8,16z M8,1
		C4.14,1,1,4.14,1,8c0,3.859,3.14,7,7,7c3.859,0,7-3.141,7-7C15,4.14,11.859,1,8,1z"/>
</g>
<g>
	<path fill="#666666" d="M10.725,5h-0.45C8.818,5,7.588,6.205,7.588,7.631v1.237c0,0.649,0.287,1.38,0.769,1.99
		c-0.012,0.118-0.027,0.217-0.044,0.301c-0.095,0.041-0.19,0.084-0.288,0.127c-0.441,0.196-0.896,0.398-1.456,0.558l-0.116,0.033
		l-0.105,0.06C6.135,12.059,5,12.809,5,15v1h11l0-1c0-2.275-1.175-2.978-1.396-3.088L14.52,11.87l-0.089-0.026
		c-0.562-0.16-1.019-0.364-1.461-0.56c-0.086-0.038-0.171-0.076-0.255-0.113c-0.019-0.094-0.038-0.204-0.053-0.338
		c0.47-0.606,0.751-1.327,0.751-1.966V7.631C13.412,6.156,12.232,5,10.725,5L10.725,5z"/>
	<path fill="#FFC857" d="M14.156,12.806c-0.949-0.271-1.612-0.642-2.272-0.896c-0.063-0.207-0.214-0.574-0.25-1.418
		c0.454-0.457,0.779-1.103,0.779-1.623V7.631c0-0.9-0.731-1.631-1.688-1.631h-0.45c-0.9,0-1.688,0.731-1.688,1.631v1.237
		c0,0.525,0.329,1.177,0.789,1.635c0,0,0,0,0,0c-0.015,0.829-0.171,1.194-0.245,1.401c-0.666,0.254-1.331,0.629-2.287,0.902
		c0,0-0.787,0.45-0.844,2.194h4.5H15C14.944,13.2,14.156,12.806,14.156,12.806z"/>
	<path fill="#79A548" d="M14.156,12.806c-0.95-0.271-1.612-0.642-2.273-0.897c0.04,0.131,0.047,0.197-0.034,0.278
		c-0.675,0.731-2.081,0.675-2.7,0c-0.082-0.082-0.066-0.149-0.017-0.284c-0.666,0.254-1.332,0.629-2.289,0.903
		c0,0-0.787,0.45-0.844,2.194h4.5H15C14.944,13.2,14.156,12.806,14.156,12.806z"/>
</g>
</svg>
