<?xml version="1.0" encoding="utf-8"?>
<!-- Generator: Adobe Illustrator 19.1.1, SVG Export Plug-In . SVG Version: 6.00 Build 0)  -->
<svg version="1.1" xmlns="http://www.w3.org/2000/svg" xmlns:xlink="http://www.w3.org/1999/xlink" x="0px" y="0px"
	 viewBox="0 0 16 16" enable-background="new 0 0 16 16" xml:space="preserve">
<g opacity="0.5">
	<path fill="#EFEFEF" d="M2,0v16h12V4l-4-4H2z"/>
	<path fill="#FFFFFF" opacity="0.65" enable-background="new    " d="M10,4V0l4,4H10z"/>
	<path fill="#212121" opacity="0.2" enable-background="new    " d="M13,5v5L9,5H13z"/>
	<path fill="#999999" d="M2,0v16h12V4h-0.012l0.004-0.008l-3.984-3.986L10,0.014V0H2z M3,1h6v4h4v10H3V1z M10,1.412L12.586,4H10
		V1.412z"/>
</g>
<g>
	<rect fill="#663399" x="5" y="5" width="11" height="11"/>
	<path fill="#212121" opacity="0.3" d="M15,6v9H6V6H15 M16,5H5v11h11V5L16,5z"/>
	<rect fill="#FFFFFF" x="10" y="8"  width="1" height="5"/>
	<rect fill="#FFFFFF" x="8" y="10" width="5" height="1"/>
</g>
</svg>
