<svg  xmlns="http://www.w3.org/2000/svg"
	 viewBox="2 -3 16 16"
<g>
	<circle fill="#5599FF" cx="10" cy="5" r="8"/>
	<path fill="#AAD400" d="M16.973,4.378c-0.22-2.364-1.602-4.393-3.545-5.48c-0.092,0.097-0.117,0.04-0.117,0.137
		c-0.277,0.097-0.646-0.097-0.923-0.194c-0.738-0.29-1.476-0.29-2.122-0.097C9.989-1.159,9.344-1.062,9.62-0.48
		c0.184,0.292,0.645,0.583,1.107,0.195c0.184-0.194,0.37-0.485,0.645-0.194c0.093,0.098,0.093,0.195,0.093,0.292
		c-0.093,0.29-0.37,0.388-0.646,0.388c-0.37,0.097-0.74,0-1.108,0.097c-0.37,0.097-0.923,0.194-0.923,0.68
		c0,0.58-0.185,0.678-0.647,0.775c-0.37,0-0.553,0.194-0.37,0.582c0.093,0.29,0.37,0.29,0.555,0.194
		C9.064,2.141,9.71,1.171,10.54,2.335l0.184-0.097c0.185-0.776,0.37-0.29,0.554,0l0.277,0.29c1.107-1.066,0.83,0.486,1.2,0.776
		c-0.74-0.194-1.57,0.582-2.215,0.097C9.433,2.529,8.695,2.917,7.68,3.789c-0.83,0.68-1.015,1.552-0.83,2.328
		c0.276,0.97,1.29,1.067,2.122,0.873c0.276-0.098,0.83-0.098,0.83,0.096c-0.185,0.873,0.83,1.455,0.46,2.424
		c-0.276,0.776,0.186,1.746,0.83,2.037c0.647,0.29,1.2-0.485,1.478-1.164c0.092-0.097,0-0.29,0.092-0.388
		c0.738-0.97,0.646-2.424,1.568-3.394c0.277-0.29,1.2-1.357,0.46-2.23c1.754-0.485,1.11,1.26,1.478,2.037
		c0.276-0.582,0.46-1.164,0.645-1.65C16.905,4.468,16.973,4.378,16.973,4.378z"/>
	<path fill="#AAD400" d="M6.948-0.79c0.29-0.306,0.303-0.356,0.594-0.765C6.933-1.341,6.168-0.917,5.619-0.456l0.168,0.177H6.66
		c0,0,0.097,0,0.097-0.1l0.097-0.103c0,0,0.097,0,0.097-0.102l0.096-0.102l0.097-0.103c-0.29,0.205-0.29,0.103-0.194,0
		c0,0.103,0,0.103,0,0c0,0.103,0,0,0,0L6.948-0.79z"/>
	<path fill="#AAD400" d="M5.666,8.65C5.666,8.65,5.57,8.558,5.666,8.65C5.57,8.558,5.57,8.558,5.666,8.65V8.558V8.466V8.374
		L5.57,8.282c-0.095,0-0.095-0.093-0.19-0.093c-0.095,0-0.19-0.093-0.286-0.093H4.999H4.903c0,0-0.095,0-0.095-0.092
		C4.14,7.634,3.855,6.989,3.664,6.252c0-0.185-0.095-0.37-0.095-0.554C3.475,5.605,3.475,5.513,3.379,5.42
		c-0.19-0.184-0.094-0.553,0.096-0.922V4.314c0-0.093,0-0.093,0.095-0.185c0-0.09,0-0.09,0.096-0.183
		c0.19-0.37,0.572-0.646,0.762-0.923c0.095-0.092,0.095-0.092,0.095-0.184V2.747c0.095-0.092,0.095-0.277,0.19-0.37
		c0-0.09,0.096-0.276,0.096-0.368c0-0.185,0-0.277-0.096-0.46C4.617,1.271,4.559,1.031,4.369,0.846
		c-0.858,1.2-1.37,2.546-1.37,4.113c0,2.123,0.903,4.006,2.414,5.324c0,0,0.061,0.026,0.061-0.064v-0.094
		c0-0.092,0.095-0.092,0.095-0.184C5.665,9.571,5.665,9.019,5.666,8.65L5.666,8.65z"/>
	<path fill="#212121" opacity="0.2" d="M10,13c-4.411,0-8-3.589-8-8s3.589-8,8-8s8,3.589,8,8S14.411,13,10,13z M10-2
		C6.14-2,3,1.14,3,5c0,3.859,3.14,7,7,7c3.859,0,7-3.141,7-7C17,1.14,13.859-2,10-2z"/>
</g>
<g>
	<path fill="#666666" d="M12.725,2h-0.45c-1.457,0-2.687,1.205-2.687,2.631v1.237c0,0.649,0.287,1.38,0.769,1.99
		c-0.012,0.118-0.027,0.217-0.044,0.301c-0.095,0.041-0.19,0.084-0.288,0.127C9.584,8.482,9.129,8.684,8.569,8.844L8.453,8.877
		l-0.105,0.06C8.135,9.059,7,9.809,7,12v1h11v-1c0-2.275-1.175-2.978-1.396-3.088L16.52,8.87l-0.089-0.026
		c-0.562-0.16-1.019-0.364-1.461-0.56c-0.086-0.038-0.171-0.076-0.255-0.113c-0.019-0.094-0.038-0.204-0.053-0.338
		c0.47-0.606,0.751-1.327,0.751-1.966V4.631C15.412,3.156,14.232,2,12.725,2L12.725,2z"/>
	<path fill="#FFC857" d="M16.156,9.806c-0.949-0.271-1.612-0.642-2.272-0.896c-0.063-0.207-0.214-0.574-0.25-1.418
		c0.454-0.457,0.779-1.103,0.779-1.623V4.631c0-0.9-0.731-1.631-1.688-1.631h-0.45c-0.9,0-1.688,0.731-1.688,1.631v1.237
		c0,0.525,0.329,1.177,0.789,1.635l0,0c-0.015,0.829-0.171,1.194-0.245,1.401C10.465,9.158,9.8,9.533,8.844,9.806
		c0,0-0.787,0.45-0.844,2.194h4.5H17C16.944,10.2,16.156,9.806,16.156,9.806z"/>
	<path fill="#5599FF" d="M16.156,9.806c-0.95-0.271-1.612-0.642-2.273-0.897c0.04,0.131,0.047,0.197-0.034,0.278
		c-0.675,0.731-2.081,0.675-2.7,0c-0.082-0.082-0.066-0.149-0.017-0.284C10.466,9.157,9.8,9.532,8.843,9.806
		c0,0-0.787,0.45-0.844,2.194h4.5H17C16.944,10.2,16.156,9.806,16.156,9.806z"/>
</g>
</svg>