<?xml version="1.0" encoding="utf-8"?>
<!-- Generator: Adobe Illustrator 19.1.1, SVG Export Plug-In . SVG Version: 6.00 Build 0)  -->
<svg version="1.1" xmlns="http://www.w3.org/2000/svg" xmlns:xlink="http://www.w3.org/1999/xlink" x="0px" y="0px"
	 viewBox="0 0 16 16" enable-background="new 0 0 16 16" xml:space="preserve">
<g>
	<path fill="#EFEFEF" d="M2,0v16h12V4l-4-4H2z"/>
	<path opacity="0.65" fill="#FFFFFF" enable-background="new    " d="M10,4V0l4,4H10z"/>
	<path opacity="0.2" enable-background="new    " d="M13,5v5L9,5H13z"/>
	<path fill="#999999" d="M2,0v16h12V4h-0.012l0.004-0.008l-3.984-3.986L10,0.014V0H2z M3,1h6v4h4v10H3V1z M10,1.412L12.586,4H10
		V1.412z"/>
</g>
<g>
	<rect x="5" y="5" fill="#666666" width="11" height="11"/>
	<rect x="6" y="6" fill="#FFFFFF" width="9" height="9"/>
	<polygon points="10,11 9,11 9,13 8,13 8,10 10,10 10,8 14,10.5 10,13 	"/>
</g>
</svg>
