<?xml version="1.0" encoding="utf-8"?>
<!-- Generator: Adobe Illustrator 19.1.1, SVG Export Plug-In . SVG Version: 6.00 Build 0)  -->
<svg version="1.1" xmlns="http://www.w3.org/2000/svg" xmlns:xlink="http://www.w3.org/1999/xlink" x="0px" y="0px"
	 viewBox="0 0 16 16" enable-background="new 0 0 16 16" xml:space="preserve">
<g>
	<path fill="#FFC857" d="M16,4v10H0V5V4V2h7l1.33,2H16z"/>
	<path fill="#E8A33D" d="M16,5H8.33L7,7H0V5V4h16V5z"/>
</g>
<g>
	<circle fill="#79A548" cx="10.5" cy="10.5" r="5.5"/>
	<path fill="#FFFFFF" d="M8,10h5v1H8V10z"/>
	<path fill="#FFFFFF" d="M10,8h1v5h-1V8z"/>
	<path opacity="0.2" enable-background="new    " d="M10.5,6C13,6,15,8,15,10.5S13,15,10.5,15S6,13,6,10.5S8,6,10.5,6 M10.5,5
		C7.5,5,5,7.5,5,10.5S7.5,16,10.5,16s5.5-2.5,5.5-5.5S13.5,5,10.5,5L10.5,5z"/>
</g>
</svg>
