<?xml version="1.0" encoding="utf-8"?>
<!-- Generator: Adobe Illustrator 19.1.1, SVG Export Plug-In . SVG Version: 6.00 Build 0)  -->
<svg version="1.1" xmlns="http://www.w3.org/2000/svg" xmlns:xlink="http://www.w3.org/1999/xlink" x="0px" y="0px"
	 viewBox="0 0 16 16" enable-background="new 0 0 16 16" xml:space="preserve">
<g>
	<path fill="#AAAAAA" d="M0,4h16v5H0V4z"/>
	<path fill="#AAAAAA" d="M16,12v2H0v-2H16z"/>
	<path fill="#5599FF" d="M12,11v4H4v-4h2V9h4v2H12z"/>
	<path fill="#666666" d="M1,7h10v1H1V7z"/>
	<path fill="#666666" d="M1,5h10v1H1V5z"/>
	<path fill="#AAAAAA" d="M2.6,1h10.8L16,4H0L2.6,1z"/>
	<path fill="#EFEFEF" d="M3.15,2h9.6l1.75,2H1.4L3.15,2z"/>
	<path opacity="0.3" enable-background="new    " d="M6,9h4v1H6V9z"/>
	<path fill="#CD201F" d="M13,7h2v1h-2V7z"/>
	<path fill="#5599FF" d="M13,5h2v1h-2V5z"/>
</g>
</svg>
