<?xml version="1.0" encoding="utf-8"?>
<!-- Generator: Adobe Illustrator 24.1.3, SVG Export Plug-In . SVG Version: 6.00 Build 0)  -->
<svg version="1.1" xmlns="http://www.w3.org/2000/svg" xmlns:xlink="http://www.w3.org/1999/xlink" x="0px" y="0px"
	 viewBox="0 0 16 16" enable-background="new 0 0 16 16">
<g>
	<rect x="7" y="1" fill="#666666" width="8" height="2"/>
	<rect x="7" y="7" fill="#666666" width="8" height="2"/>
	<rect x="7" y="13" fill="#666666" width="8" height="2"/>
</g>
<rect x="1" y="14" fill="#999999" width="1" height="1"/>
<rect x="3" y="14" fill="#999999" width="1" height="1"/>
<rect x="3" y="8" fill="#999999" width="1" height="1"/>
<rect x="1" y="8" fill="#999999" width="1" height="1"/>
<rect x="1" y="6" fill="#999999" width="1" height="1"/>
<rect x="1" y="10" fill="#999999" width="1" height="1"/>
<rect x="1" y="12" fill="#999999" width="1" height="1"/>
<rect x="5" y="8" fill="#999999" width="1" height="1"/>
<rect x="5" y="14" fill="#999999" width="1" height="1"/>
<rect x="3" y="2" fill="#999999" width="1" height="1"/>
<rect x="5" y="2" fill="#999999" width="1" height="1"/>
<rect x="1" y="4" fill="#999999" width="1" height="1"/>
<rect x="1" y="2" fill="#999999" width="1" height="1"/>
<rect x="1" fill="#999999" width="1" height="1"/>
</svg>
