<?xml version="1.0" encoding="utf-8"?>
<!-- Generator: Adobe Illustrator 20.0.0, SVG Export Plug-In . SVG Version: 6.00 Build 0)  -->
<svg version="1.1" id="Ebene_1" xmlns="http://www.w3.org/2000/svg" xmlns:xlink="http://www.w3.org/1999/xlink" x="0px" y="0px"
	 viewBox="0 0 16 16" style="enable-background:new 0 0 16 16;" xml:space="preserve">
<style type="text/css">
	.st0{fill:#AAAAAA;}
	.st1{fill:#666666;}
	.st2{fill:#999999;}
</style>
<g>
	<polygon class="st0" points="0.4,4.5 0.4,0.5 2.4,0.5 3.3,1.5 5.6,1.5 5.6,4.5 	"/>
	<path class="st1" d="M2.2,1l0.6,0.7L3.1,2h0.4h1.7v2H0.9V1H2.2 M2.6,0H0v5h6V1H3.4L2.6,0L2.6,0z"/>
</g>
<g>
	<polygon class="st0" points="9.4,15.5 9.4,11.5 11.4,11.5 12.3,12.5 14.6,12.5 14.6,15.5 	"/>
	<path class="st1" d="M11.2,12l0.6,0.7l0.3,0.3h0.4h1.7v2H9.9v-3H11.2 M11.6,11H9v5h6v-4h-2.6L11.6,11L11.6,11z"/>
</g>
<rect x="3" y="14" class="st2" width="1" height="1"/>
<rect x="5" y="14" class="st2" width="1" height="1"/>
<g>
	<polygon class="st0" points="7.4,9.5 7.4,5.5 9.4,5.5 10.3,6.5 12.6,6.5 12.6,9.5 	"/>
	<path class="st1" d="M9.2,6l0.6,0.7L10.1,7h0.4h1.7v2H7.9V6H9.2 M9.6,5H7v5h6V6h-2.6L9.6,5L9.6,5z"/>
</g>
<rect x="3" y="8" class="st2" width="1" height="1"/>
<rect x="1" y="8" class="st2" width="1" height="1"/>
<rect x="1" y="6" class="st2" width="1" height="1"/>
<rect x="3" y="10" class="st2" width="1" height="1"/>
<rect x="3" y="12" class="st2" width="1" height="1"/>
<rect x="5" y="8" class="st2" width="1" height="1"/>
<rect x="7" y="14" class="st2" width="1" height="1"/>
</svg>
