<?xml version="1.0" encoding="utf-8"?>
<!-- Generator: Adobe Illustrator 19.1.1, SVG Export Plug-In . SVG Version: 6.00 Build 0)  -->
<svg version="1.1" xmlns="http://www.w3.org/2000/svg" xmlns:xlink="http://www.w3.org/1999/xlink" x="0px" y="0px"
	 viewBox="0 0 16 16" enable-background="new 0 0 16 16" xml:space="preserve">
<path fill="#FFFFFF" d="M1,1h10v10H1V1z"/>
<path fill="#999999" d="M10,2v8H2V2H10 M11,1H1v10h10V1z"/>
<path fill="#FFFFFF" d="M3,3h10v10H3V3z"/>
<path fill="#999999" d="M12,4v8H4V4H12 M13,3H3v10h10V3z"/>
<path fill="#999999" d="M5,5h10v10H5V5z"/>
<path fill="#EFEFEF" d="M6,6h8v8H6V6z"/>
<path fill="#5599FF" d="M11.5,13H7l1.125-1.5L9.25,10l1.125,1.5L11.5,13z"/>
<path fill="#5599FF" d="M13,13H9l1-1l1-1l1,1L13,13z"/>
<circle fill="#E8A33D" cx="11.75" cy="9.25" r="0.75"/>
</svg>
