<?xml version="1.0" encoding="utf-8"?>
<!-- Generator: Adobe Illustrator 19.1.1, SVG Export Plug-In . SVG Version: 6.00 Build 0)  -->
<svg version="1.1" id="Ebene_1" xmlns="http://www.w3.org/2000/svg" xmlns:xlink="http://www.w3.org/1999/xlink" x="0px" y="0px"
	 viewBox="0 0 16 16" enable-background="new 0 0 16 16" xml:space="preserve">
<g>
	<path fill="#EFEFEF" d="M2,0v16h12V4l-4-4H2z"/>
	<path opacity="0.65" fill="#FFFFFF" enable-background="new    " d="M10,4V0l4,4H10z"/>
	<path opacity="0.2" enable-background="new    " d="M13,5v5L9,5H13z"/>
	<path fill="#999999" d="M2,0v16h12V4l0,0l0,0l-4-4l0,0l0,0H2z M3,1h6v4h4v10H3V1z M10,1.4L12.6,4H10V1.4z"/>
</g>
<g>
	<g>
		<path fill="#666666" d="M12.15,5H11.85c-1.172,0-2.125,0.937-2.125,2.088v0.825c0,0.434,0.161,0.91,0.438,1.33
			C9.895,9.362,9.617,9.482,9.288,9.576L9.171,9.609l-0.105,0.06C8.897,9.766,8.054,10.362,8.001,12L8,15h8v-3
			c-0.053-1.638-0.897-2.234-1.066-2.331l-0.105-0.06l-0.117-0.033c-0.329-0.094-0.608-0.214-0.875-0.333
			c0.277-0.42,0.438-0.897,0.438-1.33V7.088C14.276,5.937,13.322,5,12.15,5L12.15,5z"/>
		<g>
			<path fill="#FFC857" d="M14.438,10.538c-0.637-0.182-1.081-0.432-1.525-0.601c-0.049-0.138-0.153-0.381-0.164-0.934c0,0,0,0,0,0
				c0.307-0.305,0.527-0.74,0.527-1.09V7.088C13.276,6.488,12.75,6,12.15,6H11.85c-0.6,0-1.125,0.488-1.125,1.088v0.825
				c0,0.35,0.22,0.785,0.527,1.09c0,0,0,0,0,0c-0.01,0.553-0.114,0.796-0.164,0.934c-0.444,0.169-0.888,0.419-1.525,0.601
				c0,0-0.525,0.3-0.562,1.462v1h6v-1C14.962,10.838,14.438,10.538,14.438,10.538z"/>
		</g>
		<path fill="#ABD7FF" d="M14.438,10.538c-0.633-0.181-1.075-0.428-1.515-0.598c0.027,0.087,0.031,0.131-0.022,0.185
			c-0.45,0.488-1.388,0.45-1.8,0c-0.055-0.055-0.044-0.099-0.011-0.189c-0.444,0.169-0.888,0.419-1.526,0.602
			c0,0-0.525,0.3-0.562,1.462v2h6v-2C14.962,10.8,14.438,10.538,14.438,10.538z"/>
	</g>
	<g>
		<path fill="#666666" d="M9.15,7H8.85C7.678,7,6.724,7.937,6.724,9.088v0.825c0,0.434,0.161,0.91,0.438,1.33
			c-0.267,0.119-0.546,0.239-0.875,0.333l-0.117,0.033l-0.105,0.06C5.897,11.766,5.054,12.362,5.001,14L5,16h8v-2
			c-0.053-1.638-0.897-2.234-1.066-2.331l-0.105-0.06l-0.117-0.033c-0.329-0.094-0.608-0.214-0.875-0.333
			c0.277-0.42,0.438-0.897,0.438-1.33V9.088C11.276,7.937,10.322,7,9.15,7L9.15,7z"/>
		<g>
			<path fill="#FFC857" d="M11.438,12.538c-0.637-0.182-1.081-0.432-1.525-0.601c-0.049-0.138-0.153-0.381-0.164-0.934c0,0,0,0,0,0
				c0.307-0.305,0.527-0.74,0.527-1.09V9.088C10.276,8.488,9.75,8,9.15,8H8.85c-0.6,0-1.125,0.488-1.125,1.088v0.825
				c0,0.35,0.22,0.785,0.527,1.09c0,0,0,0,0,0c-0.01,0.553-0.114,0.796-0.164,0.934c-0.444,0.169-0.888,0.419-1.525,0.601
				c0,0-0.525,0.3-0.562,1.462v1h6v-1C11.962,12.838,11.438,12.538,11.438,12.538z"/>
		</g>
		<path fill="#5599FF" d="M11.438,12.538c-0.633-0.181-1.075-0.428-1.515-0.598c0.027,0.087,0.031,0.131-0.022,0.185
			c-0.45,0.488-1.388,0.45-1.8,0c-0.055-0.055-0.044-0.099-0.011-0.189c-0.444,0.169-0.888,0.419-1.526,0.602
			c0,0-0.525,0.3-0.562,1.462v1h6v-1C11.962,12.8,11.438,12.538,11.438,12.538z"/>
	</g>
</g>
</svg>
