<?xml version="1.0" encoding="utf-8"?>
<!-- Generator: Adobe Illustrator 19.1.0, SVG Export Plug-In . SVG Version: 6.00 Build 0)  -->
<svg version="1.1" xmlns="http://www.w3.org/2000/svg" xmlns:xlink="http://www.w3.org/1999/xlink" x="0px" y="0px"
	 viewBox="0 0 16 16" enable-background="new 0 0 16 16" xml:space="preserve">
<g fill="currentColor">
	<path d="M8,1.5c3.584,0,6.5,2.916,6.5,6.5s-2.916,6.5-6.5,6.5S1.5,11.584,1.5,8S4.416,1.5,8,1.5 M8,0C3.582,0,0,3.582,0,8
		s3.582,8,8,8s8-3.582,8-8S12.418,0,8,0L8,0z"/>
	<path d="M8.75,11h-1.5C7.112,11,7,11.112,7,11.25v1.5C7,12.888,7.112,13,7.25,13h1.5C8.888,13,9,12.888,9,12.75v-1.5
		C9,11.112,8.888,11,8.75,11z"/>
	<path d="M10.951,5.451C10.738,4.25,9.754,3.264,8.552,3.05c-1.807-0.322-3.39,0.975-3.541,2.683C4.999,5.876,5.122,6,5.266,6h1.511
		c0.127,0,0.219-0.098,0.247-0.222C7.126,5.333,7.525,5,8,5c0.551,0,1,0.449,1,1c0,0.357-0.199,0.657-0.482,0.833
		C7.612,7.347,7,8.316,7,9.433V9.75C7,9.888,7.112,10,7.25,10h1.5C8.888,10,9,9.888,9,9.75V9.433c0-0.359,0.201-0.659,0.486-0.835
		C10.535,8,11.189,6.792,10.951,5.451z"/>
</g>
</svg>
