<?xml version="1.0" encoding="utf-8"?>
<!-- Generator: Adobe Illustrator 19.1.0, SVG Export Plug-In . SVG Version: 6.00 Build 0)  -->
<svg version="1.1" xmlns="http://www.w3.org/2000/svg" xmlns:xlink="http://www.w3.org/1999/xlink" x="0px" y="0px"
	 viewBox="0 0 16 16" enable-background="new 0 0 16 16" xml:space="preserve">
<g class="icon-color">
	<path d="M15.5,4H14V0.5C14,0.224,13.776,0,13.5,0h-11C2.224,0,2,0.224,2,0.5V2H0.5C0.224,2,0,2.224,0,2.5v11
		C0,13.776,0.224,14,0.5,14H4v1.5C4,15.776,4.224,16,4.5,16h11c0.276,0,0.5-0.224,0.5-0.5v-11C16,4.224,15.776,4,15.5,4z M3,1h10v10
		h-1V2.5C12,2.224,11.776,2,11.5,2H3V1z M1,3h10v10H1V3z M15,15H5v-1h6.5c0.276,0,0.5-0.224,0.5-0.5V12h1.5
		c0.276,0,0.5-0.224,0.5-0.5V5h1V15z"/>
</g>
</svg>
