<?xml version="1.0" encoding="utf-8"?>
<!-- Generator: Adobe Illustrator 19.1.1, SVG Export Plug-In . SVG Version: 6.00 Build 0)  -->
<svg version="1.1" xmlns="http://www.w3.org/2000/svg" xmlns:xlink="http://www.w3.org/1999/xlink" x="0px" y="0px"
	 viewBox="0 0 16 16" enable-background="new 0 0 16 16" xml:space="preserve">
<g>
	<path fill="#FFC857" d="M16,4v10H0V5V4V2h7l1.33,2H16z"/>
	<path fill="#E8A33D" d="M16,5H8.33L7,7H0V5V4h16V5z"/>
</g>
<g>
	<path fill="#666666" d="M14.972,9c-0.249-2.247-2.16-4-4.472-4S6.277,6.753,6.028,9H5v7h11V9H14.972z M9.634,9
		c0.173-0.299,0.497-0.5,0.866-0.5s0.693,0.201,0.866,0.5H9.634z"/>
	<rect x="6" y="10" fill="#FFC857" width="9" height="5"/>
	<path fill="#AAAAAA" d="M8.5,10c0,0,0-0.326,0-0.5c0-1.103,0.897-2,2-2s2,0.897,2,2c0,0.174,0,0.5,0,0.5H14c0,0,0-0.329,0-0.5
		C14,7.567,12.433,6,10.5,6S7,7.567,7,9.5C7,9.671,7,10,7,10H8.5z"/>
	<path opacity="0.3" enable-background="new    " d="M11.5,12c0-0.552-0.448-1-1-1s-1,0.448-1,1c0,0.366,0.206,0.673,0.5,0.847V14h1
		v-1.153C11.294,12.673,11.5,12.366,11.5,12z"/>
</g>
</svg>
