<?xml version="1.0" encoding="utf-8"?>
<!-- Generator: Adobe Illustrator 19.1.1, SVG Export Plug-In . SVG Version: 6.00 Build 0)  -->
<svg version="1.1" xmlns="http://www.w3.org/2000/svg" xmlns:xlink="http://www.w3.org/1999/xlink" x="0px" y="0px"
	 viewBox="2 -3 16 16" enable-background="new 2 -3 16 16" xml:space="preserve">
<path fill="#888888" d="M2-1v1.81V11h12.69V0.81H7.08L5.95-1H2z"/>
<g>
	<path fill="#666666" d="M7.15-3h-0.3C5.678-3,4.724-2.063,4.724-0.912v0.825c0,0.434,0.161,0.91,0.438,1.33
		C4.895,1.362,4.616,1.482,4.287,1.576L4.17,1.609l-0.105,0.06C3.897,1.766,3.054,2.362,3.001,4L3,9h8V4
		c-0.053-1.638-0.897-2.234-1.066-2.331l-0.105-0.06L9.712,1.576C9.383,1.482,9.104,1.362,8.837,1.243
		c0.277-0.42,0.438-0.897,0.438-1.33v-0.825C9.276-2.063,8.322-3,7.15-3L7.15-3z"/>
	<path fill="#FFC857" d="M9.438,2.538C8.801,2.356,8.357,2.106,7.913,1.937C7.864,1.799,7.76,1.556,7.749,1.003l0,0
		c0.307-0.305,0.527-0.74,0.527-1.09v-0.825C8.276-1.512,7.75-2,7.15-2h-0.3c-0.6,0-1.125,0.488-1.125,1.088v0.825
		c0,0.35,0.22,0.785,0.527,1.09l0,0c-0.01,0.553-0.114,0.796-0.164,0.934C5.644,2.106,5.2,2.356,4.563,2.538
		c0,0-0.525,0.3-0.562,1.462v4h6V4C9.962,2.838,9.438,2.538,9.438,2.538z"/>
	<path fill="#AAD400" d="M9.438,2.538C8.805,2.357,8.363,2.11,7.923,1.94C7.95,2.027,7.954,2.071,7.901,2.125
		c-0.45,0.488-1.388,0.45-1.8,0C6.046,2.07,6.057,2.026,6.09,1.936C5.646,2.105,5.202,2.355,4.564,2.538c0,0-0.525,0.3-0.562,1.462
		v4h6V4C9.962,2.8,9.438,2.538,9.438,2.538z"/>
</g>
<g>
	<path fill="#666666" d="M11.15-2h-0.3C9.678-2,8.724-1.063,8.724,0.088v0.825c0,0.434,0.161,0.91,0.438,1.33
		C8.895,2.362,8.616,2.482,8.287,2.576L8.17,2.609l-0.105,0.06C7.897,2.766,7.054,3.362,7.001,5L7,10h8V5
		c-0.053-1.638-0.897-2.234-1.066-2.331l-0.105-0.06l-0.117-0.033c-0.329-0.094-0.608-0.214-0.875-0.333
		c0.277-0.42,0.438-0.897,0.438-1.33V0.088C13.276-1.063,12.322-2,11.15-2L11.15-2z"/>
	<path fill="#FFC857" d="M13.438,3.538c-0.637-0.182-1.081-0.432-1.525-0.601c-0.049-0.138-0.153-0.381-0.164-0.934l0,0
		c0.307-0.305,0.527-0.74,0.527-1.09V0.088C12.276-0.512,11.75-1,11.15-1h-0.3c-0.6,0-1.125,0.488-1.125,1.088v0.825
		c0,0.35,0.22,0.785,0.527,1.09l0,0c-0.01,0.553-0.114,0.796-0.164,0.934C9.644,3.106,9.2,3.356,8.563,3.538
		c0,0-0.525,0.3-0.562,1.462v4h6V5C13.962,3.838,13.438,3.538,13.438,3.538z"/>
	<path fill="#79A548" d="M13.438,3.538c-0.633-0.181-1.075-0.428-1.515-0.598c0.027,0.087,0.031,0.131-0.022,0.185
		c-0.45,0.488-1.388,0.45-1.8,0c-0.055-0.055-0.044-0.099-0.011-0.189C9.646,3.105,9.202,3.355,8.564,3.538
		c0,0-0.525,0.3-0.562,1.462v4h6V5C13.962,3.8,13.438,3.538,13.438,3.538z"/>
</g>
<path fill="#AAAAAA" d="M10.26,3.08L8.55,4.4H4.53L2,11h12.96L18,3.08H10.26L10.26,3.08z"/>
</svg>
