<?xml version="1.0" encoding="utf-8"?>
<!-- Generator: Adobe Illustrator 19.1.0, SVG Export Plug-In . SVG Version: 6.00 Build 0)  -->
<svg version="1.1" xmlns="http://www.w3.org/2000/svg" xmlns:xlink="http://www.w3.org/1999/xlink" x="0px" y="0px"
	 viewBox="0 0 16 16" enable-background="new 0 0 16 16" xml:space="preserve">
<g fill="currentColor">
	<path d="M14,2v2H2V2H14 M14.5,1h-13C1.224,1,1,1.224,1,1.5v3C1,4.776,1.224,5,1.5,5h13C14.776,5,15,4.776,15,4.5v-3
		C15,1.224,14.776,1,14.5,1L14.5,1z"/>
	<path d="M14,7v2H2V7H14 M14.5,6h-13C1.224,6,1,6.224,1,6.5v3C1,9.776,1.224,10,1.5,10h13c0.276,0,0.5-0.224,0.5-0.5v-3
		C15,6.224,14.776,6,14.5,6L14.5,6z"/>
	<path d="M14,12v2H2v-2H14 M14.5,11h-13C1.224,11,1,11.224,1,11.5v3C1,14.776,1.224,15,1.5,15h13c0.276,0,0.5-0.224,0.5-0.5v-3
		C15,11.224,14.776,11,14.5,11L14.5,11z"/>
	<rect x="2" y="2" width="8" height="2"/>
	<rect x="2" y="7" width="5" height="2"/>
	<rect x="2" y="12" width="10" height="2"/>
</g>
</svg>
