<svg version="1.1" xmlns="http://www.w3.org/2000/svg" viewBox="2 -3 16 16" enable-background="new 2 -3 16 16">
<g>
	<circle fill="#5599FF" cx="10" cy="5" r="8"/>
	<path fill="#AAD400" d="M16.973,4.378c-0.22-2.364-1.602-4.393-3.545-5.48c-0.092,0.097-0.117,0.04-0.117,0.137
		c-0.277,0.097-0.646-0.097-0.923-0.194c-0.738-0.29-1.476-0.29-2.122-0.097C9.989-1.159,9.344-1.062,9.62-0.48
		c0.184,0.292,0.645,0.583,1.107,0.195c0.184-0.194,0.37-0.485,0.645-0.194c0.093,0.098,0.093,0.195,0.093,0.292
		c-0.093,0.29-0.37,0.388-0.646,0.388c-0.37,0.097-0.74,0-1.108,0.097c-0.37,0.097-0.923,0.194-0.923,0.68
		c0,0.58-0.185,0.678-0.647,0.775c-0.37,0-0.553,0.194-0.37,0.582c0.093,0.29,0.37,0.29,0.555,0.194
		C9.064,2.141,9.71,1.171,10.54,2.335l0.184-0.097c0.185-0.776,0.37-0.29,0.554,0l0.277,0.29c1.107-1.066,0.83,0.486,1.2,0.776
		c-0.74-0.194-1.57,0.582-2.215,0.097C9.433,2.529,8.695,2.917,7.68,3.789c-0.83,0.68-1.015,1.552-0.83,2.328
		c0.276,0.97,1.29,1.067,2.122,0.873c0.276-0.098,0.83-0.098,0.83,0.096c-0.185,0.873,0.83,1.455,0.46,2.424
		c-0.276,0.776,0.186,1.746,0.83,2.037c0.647,0.29,1.2-0.485,1.478-1.164c0.092-0.097,0-0.29,0.092-0.388
		c0.738-0.97,0.646-2.424,1.568-3.394c0.277-0.29,1.2-1.357,0.46-2.23c1.754-0.485,1.11,1.26,1.478,2.037
		c0.276-0.582,0.46-1.164,0.645-1.65C16.905,4.468,16.973,4.378,16.973,4.378z"/>
	<path fill="#AAD400" d="M6.948-0.79c0.29-0.306,0.303-0.356,0.594-0.765C6.933-1.341,6.168-0.917,5.619-0.456l0.168,0.177H6.66
		c0,0,0.097,0,0.097-0.1l0.097-0.103c0,0,0.097,0,0.097-0.102l0.096-0.102l0.097-0.103c-0.29,0.205-0.29,0.103-0.194,0
		c0,0.103,0,0.103,0,0c0,0.103,0,0,0,0L6.948-0.79z"/>
	<path fill="#AAD400" d="M5.666,8.65C5.666,8.65,5.57,8.558,5.666,8.65C5.57,8.558,5.57,8.558,5.666,8.65V8.558V8.466V8.374
		L5.57,8.282c-0.095,0-0.095-0.093-0.19-0.093c-0.095,0-0.19-0.093-0.286-0.093H4.999H4.903c0,0-0.095,0-0.095-0.092
		C4.14,7.634,3.855,6.989,3.664,6.252c0-0.185-0.095-0.37-0.095-0.554C3.475,5.605,3.475,5.513,3.379,5.42
		c-0.19-0.184-0.094-0.553,0.096-0.922V4.314c0-0.093,0-0.093,0.095-0.185c0-0.09,0-0.09,0.096-0.183
		c0.19-0.37,0.572-0.646,0.762-0.923c0.095-0.092,0.095-0.092,0.095-0.184V2.747c0.095-0.092,0.095-0.277,0.19-0.37
		c0-0.09,0.096-0.276,0.096-0.368c0-0.185,0-0.277-0.096-0.46C4.617,1.271,4.559,1.031,4.369,0.846
		c-0.858,1.2-1.37,2.546-1.37,4.113c0,2.123,0.903,4.006,2.414,5.324c0,0,0.061,0.026,0.061-0.064v-0.094
		c0-0.092,0.095-0.092,0.095-0.184C5.665,9.571,5.665,9.019,5.666,8.65L5.666,8.65z"/>
	<path fill="#212121" opacity="0.2" enable-background="new    " d="M10,13c-4.411,0-8-3.589-8-8s3.589-8,8-8s8,3.589,8,8S14.411,13,10,13z M10-2
		C6.14-2,3,1.14,3,5c0,3.859,3.14,7,7,7c3.859,0,7-3.141,7-7C17,1.14,13.859-2,10-2z"/>
</g>
<g>
	<path fill="#666666" d="M14.15,2h-0.3c-1.172,0-2.125,0.937-2.125,2.088v0.825c0,0.434,0.161,0.91,0.438,1.33
		c-0.268,0.119-0.546,0.239-0.875,0.333l-0.117,0.033l-0.105,0.06C10.897,6.766,10.054,7.362,10.001,9L10,12h8V9
		c-0.053-1.638-0.897-2.234-1.066-2.331l-0.105-0.06l-0.117-0.033c-0.329-0.094-0.608-0.214-0.875-0.333
		c0.277-0.42,0.438-0.897,0.438-1.33V4.088C16.276,2.937,15.322,2,14.15,2L14.15,2z"/>
	<path fill="#FFC857" d="M16.438,7.538c-0.637-0.182-1.081-0.432-1.525-0.601c-0.049-0.138-0.153-0.381-0.164-0.934l0,0
		c0.307-0.305,0.527-0.74,0.527-1.09V4.088C15.276,3.488,14.75,3,14.15,3h-0.3c-0.6,0-1.125,0.488-1.125,1.088v0.825
		c0,0.35,0.22,0.785,0.527,1.09l0,0c-0.01,0.553-0.114,0.796-0.164,0.934c-0.444,0.169-0.888,0.419-1.525,0.601
		c0,0-0.525,0.3-0.562,1.462v1h6V9C16.962,7.838,16.438,7.538,16.438,7.538z"/>
	<path fill="#AAD400" d="M16.438,7.538c-0.633-0.181-1.075-0.428-1.515-0.598c0.027,0.087,0.031,0.131-0.022,0.185
		c-0.45,0.488-1.388,0.45-1.8,0c-0.055-0.055-0.044-0.099-0.011-0.189c-0.444,0.169-0.888,0.419-1.526,0.602
		c0,0-0.525,0.3-0.562,1.462v2h6V9C16.962,7.8,16.438,7.538,16.438,7.538z"/>
	<path fill="#666666" d="M11.15,4h-0.3C9.678,4,8.724,4.937,8.724,6.088v0.825c0,0.434,0.161,0.91,0.438,1.33
		C8.895,8.362,8.616,8.482,8.287,8.576L8.17,8.609l-0.105,0.06C7.897,8.766,7.054,9.362,7.001,11L7,13h8v-2
		c-0.053-1.638-0.897-2.234-1.066-2.331l-0.105-0.06l-0.117-0.033c-0.329-0.094-0.608-0.214-0.875-0.333
		c0.277-0.42,0.438-0.897,0.438-1.33V6.088C13.276,4.937,12.322,4,11.15,4L11.15,4z"/>
	<path fill="#FFC857" d="M13.438,9.538c-0.637-0.182-1.081-0.432-1.525-0.601c-0.049-0.138-0.153-0.381-0.164-0.934l0,0
		c0.307-0.305,0.527-0.74,0.527-1.09V6.088C12.276,5.488,11.75,5,11.15,5h-0.3c-0.6,0-1.125,0.488-1.125,1.088v0.825
		c0,0.35,0.22,0.785,0.527,1.09l0,0c-0.01,0.553-0.114,0.796-0.164,0.934C9.644,9.106,9.2,9.356,8.563,9.538
		c0,0-0.525,0.3-0.562,1.462v1h6v-1C13.962,9.838,13.438,9.538,13.438,9.538z"/>
	<path fill="#79A548" d="M13.438,9.538c-0.633-0.181-1.075-0.428-1.515-0.598c0.027,0.087,0.031,0.131-0.022,0.185
		c-0.45,0.488-1.388,0.45-1.8,0c-0.055-0.055-0.044-0.099-0.011-0.189C9.646,9.105,9.202,9.355,8.564,9.538
		c0,0-0.525,0.3-0.562,1.462v1h6v-1C13.962,9.8,13.438,9.538,13.438,9.538z"/>
</g>
</svg>
