<?xml version="1.0" encoding="utf-8"?>
<!-- Generator: Adobe Illustrator 19.1.0, SVG Export Plug-In . SVG Version: 6.00 Build 0)  -->
<svg version="1.1" xmlns="http://www.w3.org/2000/svg" xmlns:xlink="http://www.w3.org/1999/xlink" x="0px" y="0px"
	 viewBox="0 0 16 16" enable-background="new 0 0 16 16" xml:space="preserve">
<g class="icon-color">
	<path d="M13.707,3.207l-1.914-1.914C11.605,1.105,11.351,1,11.086,1H2.5C2.224,1,2,1.224,2,1.5v13C2,14.776,2.224,15,2.5,15h11
		c0.276,0,0.5-0.224,0.5-0.5V3.914C14,3.649,13.895,3.395,13.707,3.207z M11,2l2,2h-2V2z M13,14H3V2h7v2.5C10,4.776,10.224,5,10.5,5
		H13V14z"/>
</g>
</svg>
