<svg xmlns="http://www.w3.org/2000/svg" viewBox="0 0 16 16">
<g class="icon-color">
	<path d="M6.011,14.707l5.811-7.999c0.161-0.224,0.141-0.669-0.285-0.669H9.234c-0.271,0-0.393-0.2-0.262-0.447l2.046-3.875
		C11.165,1.477,11.161,1,10.718,1H6.514C6.248,1,5.962,1.213,5.896,1.477L4.12,8.527C4.054,8.789,4.225,9.004,4.503,9.004h2.039
		c0.284,0,0.423,0.211,0.325,0.472c0,0-1.866,4.929-1.866,5.025C5,14.776,5.224,15,5.5,15c0.144,0,0.275-0.061,0.366-0.159
		C5.919,14.811,5.968,14.766,6.011,14.707z"/>
</g>
</svg>