<svg xmlns="http://www.w3.org/2000/svg" version="1.1" viewBox="0 0 16 16">
<g fill="currentColor">
	<path d="M14.5,1h-13C1.224,1,1,1.224,1,1.5v13C1,14.776,1.224,15,1.5,15h13c0.276,0,0.5-0.224,0.5-0.5v-13
		C15,1.224,14.776,1,14.5,1z M14,14H2V3h12V14z"/>
	<rect x="4" y="5" width="1" height="1"/>
	<rect x="6" y="5" width="6" height="1"/>
	<rect x="4" y="7" width="1" height="1"/>
	<rect x="6" y="7" width="6" height="1"/>
	<rect x="4" y="9" width="1" height="1"/>
	<rect x="6" y="9" width="6" height="1"/>
	<rect x="4" y="11" width="1" height="1"/>
	<rect x="6" y="11" width="6" height="1"/>
</g>
</svg>
