<svg xmlns="http://www.w3.org/2000/svg" viewBox="0 0 16 16">
<g>
	<polygon fill="#AAAAAA" points="0.5,5.5 0.5,0.5 2.793,0.5 3.793,1.5 6.5,1.5 6.5,5.5 	"/>
	<path fill="#666666" d="M2.586,1l0.707,0.707L3.586,2H4h2v3H1V1H2.586 M3,0H0v6h7V1H4L3,0L3,0z"/>
</g>
<g>
	<polygon fill="#AAAAAA" points="0.5,15.5 0.5,10.5 2.793,10.5 3.793,11.5 6.5,11.5 6.5,15.5 	"/>
	<path fill="#666666" d="M2.586,11l0.707,0.707L3.586,12H4h2v3H1v-4H2.586 M3,10H0v6h7v-5H4L3,10L3,10z"/>
</g>
<rect x="10" y="3" fill="#999999" width="1" height="1"/>
<rect x="12" y="3" fill="#666666" width="1" height="1"/>
<rect x="10" y="13" fill="#999999" width="1" height="1"/>
<rect x="8" y="3" fill="#AAAAAA" width="1" height="1"/>
<rect x="8" y="13" fill="#AAAAAA" width="1" height="1"/>
<rect x="12" y="13" fill="#666666" width="1" height="1"/>
<polygon points="10,11 6,8.5 10,6 10,8 13,8 13,9 10,9 "/>
</svg>