<svg xmlns="http://www.w3.org/2000/svg" viewBox="0 0 16 16">
<g>
	<polygon fill="#AAAAAA" points="0.5,4.5 0.5,0.5 2.793,0.5 3.793,1.5 6.5,1.5 6.5,4.5 	"/>
	<path fill="#666666" d="M2.586,1l0.707,0.707L3.586,2H4h2v2H1V1H2.586 M3,0H0v5h7V1H4L3,0L3,0z"/>
</g>
<g>
	<polygon fill="#AAAAAA" points="0.5,10.5 0.5,6.5 2.793,6.5 3.793,7.5 6.5,7.5 6.5,10.5 	"/>
	<path fill="#666666" d="M2.586,7l0.707,0.707L3.586,8H4h2v2H1V7H2.586 M3,6H0v5h7V7H4L3,6L3,6z"/>
</g>
<rect x="10" y="3" fill="#999999" width="1" height="1"/>
<rect x="12" y="3" fill="#666666" width="1" height="1"/>
<rect x="10" y="9" fill="#999999" width="1" height="1"/>
<rect x="8" y="3" fill="#AAAAAA" width="1" height="1"/>
<rect x="8" y="9" fill="#AAAAAA" width="1" height="1"/>
<rect x="12" y="9" fill="#666666" width="1" height="1"/>
<polygon fill="#79A548" points="10,16 6,13.5 10,11 10,13 14,13 14,11 15,11 15,14 10,14 "/>
</svg>