<?xml version="1.0" encoding="utf-8"?>
<!-- Generator: Adobe Illustrator 20.0.0, SVG Export Plug-In . SVG Version: 6.00 Build 0)  -->
<svg version="1.1" id="Ebene_1" xmlns="http://www.w3.org/2000/svg" xmlns:xlink="http://www.w3.org/1999/xlink" x="0px" y="0px"
	 viewBox="0 0 16 16" style="enable-background:new 0 0 16 16;" xml:space="preserve">
<style type="text/css">
	.st0{fill:#666666;}
	.st1{fill:#999999;}
</style>
<g>
	<rect x="7" y="1" class="st0" width="8" height="2"/>
	<rect x="7" y="7" class="st0" width="8" height="2"/>
	<rect x="7" y="13" class="st0" width="8" height="2"/>
</g>
<rect x="1" y="14" class="st1" width="1" height="1"/>
<rect x="3" y="14" class="st1" width="1" height="1"/>
<rect x="3" y="8" class="st1" width="1" height="1"/>
<rect x="1" y="8" class="st1" width="1" height="1"/>
<rect x="1" y="6" class="st1" width="1" height="1"/>
<rect x="1" y="10" class="st1" width="1" height="1"/>
<rect x="1" y="12" class="st1" width="1" height="1"/>
<rect x="5" y="8" class="st1" width="1" height="1"/>
<rect x="5" y="14" class="st1" width="1" height="1"/>
<rect x="3" y="2" class="st1" width="1" height="1"/>
<rect x="5" y="2" class="st1" width="1" height="1"/>
<rect x="1" y="4" class="st1" width="1" height="1"/>
<rect x="1" y="2" class="st1" width="1" height="1"/>
<rect x="1" class="st1" width="1" height="1"/>
</svg>
