<svg xmlns="http://www.w3.org/2000/svg" version="1.1" viewBox="0 0 16 16">
<g>
	<path fill="#FFC857" d="M16,4v10H0V5V4V2h7l1.33,2H16z"/>
	<path fill="#E8A33D" d="M16,5H8.33L7,7H0V5V4h16V5z"/>
</g>
<g>
	<rect x="5" y="5" fill="#FFFFFF" width="11" height="11"/>
	<path fill="#666666" d="M15,6v9H6V6H15 M16,5H5v11h11V5L16,5z"/>
	<rect x="7" y="7" fill="#333333" width="7" height="1"/>
	<rect x="7" y="9" fill="#5599FF" width="3" height="3"/>
	<rect x="7" y="13" fill="#AAAAAA" width="3" height="1"/>
	<rect x="11" y="13" fill="#AAAAAA" width="3" height="1"/>
	<rect x="11" y="11" fill="#AAAAAA" width="3" height="1"/>
	<rect x="11" y="9" fill="#AAAAAA" width="3" height="1"/>
</g>
</svg>
