<svg version="1.1" xmlns="http://www.w3.org/2000/svg" viewBox="2 -3 16 16" enable-background="new 2 -3 16 16">
<g>
	<path fill="#EFEFEF" d="M4-3v16h12V1l-4-4H4z"/>
	<path fill="#FFFFFF" opacity="0.65" enable-background="new    " d="M12,1v-4l4,4H12z"/>
	<path fill="#212121" opacity="0.2" enable-background="new    " d="M15,2v5l-4-5H15z"/>
	<path fill="#999999" d="M4-3v16h12V1l0,0l0,0l-4-4l0,0l0,0H4z M5-2h6v4h4v10H5V-2z M12-1.6L14.6,1H12V-1.6z"/>
</g>
<g>
	<path fill="#666666" d="M12.725,2h-0.45c-1.457,0-2.687,1.205-2.687,2.631v1.237c0,0.649,0.287,1.38,0.769,1.99
		c-0.012,0.118-0.027,0.217-0.044,0.301c-0.095,0.041-0.19,0.084-0.288,0.127C9.584,8.482,9.129,8.684,8.569,8.844L8.453,8.877
		l-0.105,0.06C8.135,9.059,7,9.809,7,12v1h11v-1c0-2.275-1.175-2.978-1.396-3.088L16.52,8.87l-0.089-0.026
		c-0.562-0.16-1.019-0.364-1.461-0.56c-0.086-0.038-0.171-0.076-0.255-0.113c-0.019-0.094-0.038-0.204-0.053-0.338
		c0.47-0.606,0.751-1.327,0.751-1.966V4.631C15.412,3.156,14.232,2,12.725,2L12.725,2z"/>
	<path fill="#FFC857" d="M16.156,9.806c-0.949-0.271-1.612-0.642-2.272-0.896c-0.063-0.207-0.214-0.574-0.25-1.418
		c0.454-0.457,0.779-1.103,0.779-1.623V4.631c0-0.9-0.731-1.631-1.688-1.631h-0.45c-0.9,0-1.688,0.731-1.688,1.631v1.237
		c0,0.525,0.329,1.177,0.789,1.635l0,0c-0.015,0.829-0.171,1.194-0.245,1.401C10.465,9.158,9.8,9.533,8.844,9.806
		c0,0-0.787,0.45-0.844,2.194h4.5H17C16.944,10.2,16.156,9.806,16.156,9.806z"/>
	<path fill="#5599FF" d="M16.156,9.806c-0.95-0.271-1.612-0.642-2.273-0.897c0.04,0.131,0.047,0.197-0.034,0.278
		c-0.675,0.731-2.081,0.675-2.7,0c-0.082-0.082-0.066-0.149-0.017-0.284C10.466,9.157,9.8,9.532,8.843,9.806
		c0,0-0.787,0.45-0.844,2.194h4.5H17C16.944,10.2,16.156,9.806,16.156,9.806z"/>
</g>
</svg>
