<svg data-name="Ebene 2" xmlns="http://www.w3.org/2000/svg" viewBox="0 0 14.34688 14.34739"><title>information-os-unknown</title><path d="M7.174 14.347a7.174 7.174 0 1 1 7.173-7.173 7.182 7.182 0 0 1-7.173 7.173zm0-13.3A6.126 6.126 0 1 0 13.3 7.174a6.134 6.134 0 0 0-6.126-6.127z"/><path d="M7.267 7.053a2.65 2.65 0 0 1-.697 1.932 2.566 2.566 0 0 1-1.928.717 2.562 2.562 0 0 1-1.924-.717 2.65 2.65 0 0 1-.698-1.932 2.653 2.653 0 0 1 .698-1.94A2.567 2.567 0 0 1 4.642 4.4a2.574 2.574 0 0 1 1.924.713 2.645 2.645 0 0 1 .701 1.94zM5.527 8.34a1.53 1.53 0 0 0 .284-.548 2.67 2.67 0 0 0 .092-.744 2.503 2.503 0 0 0-.106-.779 1.518 1.518 0 0 0-.277-.52 1.035 1.035 0 0 0-.401-.297 1.273 1.273 0 0 0-.944-.003 1.102 1.102 0 0 0-.404.294 1.457 1.457 0 0 0-.28.527 2.585 2.585 0 0 0-.107.782 2.507 2.507 0 0 0 .105.774 1.535 1.535 0 0 0 .275.521 1.052 1.052 0 0 0 .4.297 1.227 1.227 0 0 0 .482.096 1.211 1.211 0 0 0 .481-.098 1.045 1.045 0 0 0 .4-.302zM12.042 7.996a1.449 1.449 0 0 1-.638 1.221 2.854 2.854 0 0 1-1.73.47 4.81 4.81 0 0 1-1.102-.11 5.672 5.672 0 0 1-.881-.283v-1.22h.143a3.056 3.056 0 0 0 .912.5 2.955 2.955 0 0 0 .968.174c.08 0 .184-.007.315-.021a1.256 1.256 0 0 0 .318-.068.817.817 0 0 0 .248-.154.361.361 0 0 0 .096-.273.368.368 0 0 0-.14-.289.988.988 0 0 0-.417-.186 12.537 12.537 0 0 0-.605-.128 4.647 4.647 0 0 1-.6-.153 1.882 1.882 0 0 1-.925-.565 1.386 1.386 0 0 1-.282-.887 1.364 1.364 0 0 1 .638-1.16 2.777 2.777 0 0 1 1.638-.45 5.061 5.061 0 0 1 .994.098 4.567 4.567 0 0 1 .847.244v1.172h-.138a2.71 2.71 0 0 0-.754-.411 2.59 2.59 0 0 0-.912-.166 2.362 2.362 0 0 0-.327.022 1.298 1.298 0 0 0-.312.084.606.606 0 0 0-.229.155.338.338 0 0 0-.095.238.354.354 0 0 0 .154.31 1.713 1.713 0 0 0 .58.195l.54.113a5.57 5.57 0 0 1 .554.15 1.85 1.85 0 0 1 .863.522 1.284 1.284 0 0 1 .28.856z"/></svg>