<svg xmlns="http://www.w3.org/2000/svg" viewBox="0 0 16 16"><circle fill="#59f" cx="8" cy="8" r="7"/><g class="icon-color" fill="#fff"><path d="M7.333 4.167c0-.094.074-.167.167-.167h1c.093 0 .167.073.167.167v1c0 .093-.074.166-.167.166h-1c-.093 0-.167-.073-.167-.166v-1zM9.833 12H6.167C6.075 12 6 11.925 6 11.833v-1c0-.092.075-.166.167-.166h1.166V8h-.5c-.093 0-.166-.073-.166-.167v-1c0-.092.074-.166.166-.166H8.5c.092 0 .167.074.167.166v3.834h1.166c.092 0 .167.074.167.166v1c0 .092-.075.167-.167.167z"/></g></svg>