<svg xmlns="http://www.w3.org/2000/svg" viewBox="0 0 10 10"><path fill="#C83C3C" d="M9 3L7 1l.646-.646c.195-.195.512-.195.707 0l1.293 1.293c.195.195.195.512 0 .707L9 3z"/><path fill="#B9B9B9" d="M8.5 3.5l-2-2L7 1l2 2z"/><path fill="#FFEDCF" d="M0 10l1-3 .5-.5 2 2-.48.5"/><path fill="#333" d="M1 9.67L0 10l.33-1H1"/><path fill="#FF8700" d="M8.5 3.5l-5 5h-1v-1h-1v-1l5-5"/><path d="M8 .332c.1 0 .195.04.266.11L9.56 1.735c.145.146.145.384 0 .53l-6.65 6.63-2.54.738.763-2.59 6.6-6.6C7.806.37 7.9.332 8 .332m0-.25c-.16 0-.32.06-.442.182L.912 6.91 0 10l3.04-.882 6.696-6.676c.243-.244.243-.64 0-.884L8.442.265C8.32.143 8.16.082 8 .082z"/></svg>