<svg xmlns="http://www.w3.org/2000/svg" viewBox="0 0 11 11"><path fill="#79A548" d="M9.97 8.32C8.81 7.987 8 7.533 7.19 7.222c.05.16.058.24-.04.34-.825.894-2.544.825-3.3 0-.1-.1-.08-.182-.02-.347-.815.31-1.63.77-2.798 1.103 0 0-.962.55-1.03 2.68H11c-.07-2.2-1.03-2.68-1.03-2.68z"/><path opacity=".2" d="M.754 10.313c.147-.89.48-1.267.586-1.368.758-.227 1.37-.498 1.913-.74l.185-.082c.503.485 1.267.77 2.074.77.813 0 1.56-.285 2.05-.77l.185.082c.545.242 1.16.515 1.922.74.11.1.438.46.58 1.366l.063.69H11c-.07-2.2-1.03-2.68-1.03-2.68C8.81 7.987 8 7.533 7.19 7.222c.05.16.058.24-.04.34-.404.437-1.023.644-1.638.644-.64 0-1.276-.224-1.662-.645-.1-.1-.08-.182-.02-.347-.815.31-1.63.77-2.798 1.103 0 0-.962.55-1.03 2.68h.687l.064-.685z"/><path fill="#FFC857" d="M5.5 6.188c-.487 0-.97-.283-1.373-.683-.03 1.664-.53 1.805-.277 2.058.756.825 2.475.894 3.3 0 .253-.254-.19-.394-.264-2.073-.406.41-.893.698-1.386.698z"/><path opacity=".2" d="M3.61 7.306c.072-.03.146-.063.22-.09-.06.164-.08.247.02.347.09.098.196.185.31.262l.208-.08.107-.297.02-.053c.087-.24.237-.658.296-1.403-.236-.12-.458-.285-.662-.488-.02 1.013-.21 1.458-.3 1.71l-.218.092zM6.535 7.424l.098.32.205.08c.112-.077.22-.16.312-.262.098-.098.09-.18.04-.34h.002c-.076-.25-.26-.7-.305-1.732-.202.203-.422.37-.655.49.068.71.2 1.122.276 1.36l.027.084z"/><path fill="#FFC857" d="M5.5 6.188c-1.17 0-2.338-1.58-2.338-2.68V1.993C3.162.894 4.125 0 5.225 0h.55c1.17 0 2.063.894 2.063 1.994v1.513c0 1.1-1.17 2.68-2.338 2.68z"/><path opacity=".2" d="M5.775.688c.77 0 1.375.574 1.375 1.306v1.513c0 .77-.9 1.993-1.65 1.993S3.85 4.276 3.85 3.506V1.994c0-.696.643-1.306 1.375-1.306h.55m0-.688h-.55c-1.1 0-2.063.894-2.063 1.994v1.513c0 1.1 1.17 2.68 2.338 2.68s2.337-1.58 2.337-2.68V1.994C7.837.894 6.944 0 5.775 0z"/></svg>