<svg xmlns="http://www.w3.org/2000/svg" viewBox="0 0 16 16"><path d="M15.422 14.423H.578L8 1.577z" fill="#ffc857" stroke-linecap="square" stroke-linejoin="round"/><path d="M9 11.5v1c0 .28-.22.5-.5.5h-1c-.28 0-.5-.22-.5-.5v-1c0-.28.22-.5.5-.5h1c.28 0 .5.22.5.5z" fill="#FFF"/><path d="M9 6.286v3.428c0 .16-.22.286-.5.286h-1c-.28 0-.5-.126-.5-.286V6.286c0-.16.22-.286.5-.286h1c.28 0 .5.126.5.286z" fill="#fff"/><path style="line-height:normal;text-indent:0;text-align:start;text-decoration-line:none;text-decoration-style:solid;text-decoration-color:#000000;text-transform:none;block-progression:tb;isolation:auto;mix-blend-mode:normal" d="M7.97 1a.578.577 0 0 0-.47.29L.078 14.133a.578.577 0 0 0 .5.866h14.845a.578.577 0 0 0 .5-.866L8.503 1.29A.578.577 0 0 0 7.97 1zM8 2.733l6.423 11.115H1.578L8 2.732z" color="#000" font-family="sans-serif" white-space="normal" overflow="visible" solid-color="#000000" fill="#ffc857" stroke-width="1.347" stroke-linecap="square" stroke-linejoin="round"/></svg>