<svg xmlns="http://www.w3.org/2000/svg" viewBox="0 0 16 16"><path fill="#FFC857" d="M16 4v10H0V2h7l1.3 2H16z"/><path fill="#E8A33D" d="M16 5H8.3L7 7H0V4h16v1z"/><path fill="#59f" d="M8 8h8v8H8z"/><g transform="matrix(.75 0 0 .75 -17.343 -772.443)" stroke="#faa" stroke-width="0" fill="#fff"><path transform="matrix(.56258 0 0 .43307 35.487 597.89)" d="M10.02 1043.785H-.645l2.666-4.618 2.667-4.618 2.667 4.617z"/><path d="M10.02 1043.785H-.645l2.666-4.618 2.667-4.618 2.667 4.617z" transform="matrix(.50007 0 0 .28872 38.114 748.568)"/><circle r="1" cy="1044.925" cx="41.458"/></g></svg>