<svg xmlns="http://www.w3.org/2000/svg" viewBox="0 0 16 16"><path fill="#FFF" d="M1 1h10v10H1z"/><path fill="#B9B9B9" d="M10 2v8H2V2h8m1-1H1v10h10V1z"/><path fill="#FFF" d="M3 3h10v10H3z"/><path fill="#B9B9B9" d="M12 4v8H4V4h8m1-1H3v10h10V3z"/><path fill="#FFF" d="M5 5h10v10H5z"/><path fill="#B9B9B9" d="M14 6v8H6V6h8m1-1H5v10h10V5z"/><path fill="#EFEFEF" d="M7 7h6v6H7z"/><path fill="#59F" d="M11.5 13H7l2.2-4 2.3 4z"/><path fill="#59F" d="M13 13H9l2-3 2 3z"/><path fill="#E8A33D" d="M12.5 8.3c0 .4-.3.8-.7.8-.5-.1-.8-.4-.8-.8s.3-.8.7-.8c.5 0 .8.3.8.8z"/></svg>