<svg xmlns="http://www.w3.org/2000/svg" viewBox="0 0 16 16"><path d="M12.22.93c-.615 0-1.228.235-1.698.705L8.54 3.62c-.942.94-.942 2.453 0 3.392l.445.447c.94.94 2.453.94 3.394 0l1.982-1.985c.94-.94.94-2.453 0-3.394l-.446-.445c-.47-.47-1.084-.705-1.697-.705zm-.182 1.118c.435-.02.934.18 1.333.58.64.637.77 1.533.295 2.01l-2.122 2.12c-.476.477-1.374.347-2.012-.29-.637-.64-.768-1.537-.292-2.013l2.122-2.122c.18-.18.417-.272.678-.285zm-6.726 5.79c-.612 0-1.226.234-1.696.704l-1.984 1.983c-.94.94-.94 2.454 0 3.394l.446.446c.94.94 2.455.94 3.395 0l1.983-1.984c.94-.94.94-2.453 0-3.393L7.01 8.54c-.47-.47-1.084-.705-1.698-.705zM5.13 8.954c.434-.023.935.18 1.334.58.638.637.768 1.535.292 2.01l-2.12 2.123c-.478.476-1.374.344-2.012-.294-.64-.64-.77-1.535-.294-2.01L4.45 9.24c.18-.177.418-.272.68-.285z" fill="#b9b9b9"/><rect width="7.605" height="2.173" x="-3.8" y="10.226" ry="1.371" rx=".654" transform="rotate(-45)" fill="#b9b9b9"/></svg>