<?xml version="1.0" encoding="UTF-8" standalone="no"?>
<!-- Generator: Adobe Illustrator 19.1.0, SVG Export Plug-In . SVG Version: 6.00 Build 0)  -->

<svg
   xmlns:dc="http://purl.org/dc/elements/1.1/"
   xmlns:cc="http://creativecommons.org/ns#"
   xmlns:rdf="http://www.w3.org/1999/02/22-rdf-syntax-ns#"
   xmlns:svg="http://www.w3.org/2000/svg"
   xmlns="http://www.w3.org/2000/svg"
   xmlns:sodipodi="http://sodipodi.sourceforge.net/DTD/sodipodi-0.dtd"
   xmlns:inkscape="http://www.inkscape.org/namespaces/inkscape"
   version="1.1"
   id="Ebene_1"
   x="0px"
   y="0px"
   viewBox="0 0 16 16"
   enable-background="new 0 0 16 16"
   xml:space="preserve"
   inkscape:version="0.91 r13725"
   sodipodi:docname="apps-filetree-folder-media.svg"><metadata
     id="metadata23"><rdf:RDF><cc:Work
         rdf:about=""><dc:format>image/svg+xml</dc:format><dc:type
           rdf:resource="http://purl.org/dc/dcmitype/StillImage" /></cc:Work></rdf:RDF></metadata><defs
     id="defs21"><clipPath
       id="clipPath3391"
       clipPathUnits="userSpaceOnUse"><path
         id="path3393"
         d="M 0,600 800,600 800,0 0,0 0,600 Z" /></clipPath><clipPath
       id="clipPath3407"
       clipPathUnits="userSpaceOnUse"><path
         id="path3409"
         d="m 316,477.408 60.363,0 0,-60.408 -60.363,0 0,60.408 z" /></clipPath><clipPath
       id="clipPath3427"
       clipPathUnits="userSpaceOnUse"><path
         id="path3429"
         d="m 622,477.971 60.121,0 0,-59.971 -60.121,0 0,59.971 z" /></clipPath><clipPath
       clipPathUnits="userSpaceOnUse"
       id="clipPath3391-7"><path
         d="M 0,600 800,600 800,0 0,0 0,600 Z"
         id="path3393-1" /></clipPath><clipPath
       clipPathUnits="userSpaceOnUse"
       id="clipPath3407-6"><path
         d="m 316,477.408 60.363,0 0,-60.408 -60.363,0 0,60.408 z"
         id="path3409-4" /></clipPath><clipPath
       clipPathUnits="userSpaceOnUse"
       id="clipPath3427-8"><path
         d="m 622,477.971 60.121,0 0,-59.971 -60.121,0 0,59.971 z"
         id="path3429-3" /></clipPath></defs><sodipodi:namedview
     pagecolor="#ffffff"
     bordercolor="#666666"
     borderopacity="1"
     objecttolerance="10"
     gridtolerance="10"
     guidetolerance="10"
     inkscape:pageopacity="0"
     inkscape:pageshadow="2"
     inkscape:window-width="2048"
     inkscape:window-height="1051"
     id="namedview19"
     showgrid="false"
     inkscape:zoom="11.313708"
     inkscape:cx="15.812617"
     inkscape:cy="5.8620223"
     inkscape:window-x="2048"
     inkscape:window-y="23"
     inkscape:window-maximized="1"
     inkscape:current-layer="g4496" /><path
     fill="#FFC857"
     d="M16,4v10H0V5V4V2h7l1.3,2H16z"
     id="path3" /><path
     fill="#E8A33D"
     d="M16,5H8.3L7,7H0V5V4h16V5z"
     id="path5" /><rect
     x="8"
     y="8"
     fill="#FFFFFF"
     width="8"
     height="8"
     id="rect7"
     style="fill:#5599ff;fill-opacity:1" /><g
     id="layer1-2"
     transform="translate(-27.404036,-1034.4556)"
     style="fill:#ffffff;fill-opacity:1"><g
       transform="matrix(0.74999979,0,0,0.74999978,10.060819,262.0123)"
       id="g4496"
       style="fill:#ffffff;fill-opacity:1"><path
         transform="matrix(0.56257984,0,0,0.4330741,35.487206,597.88857)"
         d="m 10.020068,1043.7848 -5.3325679,0 -5.33256787,0 2.66628387,-4.6181 2.6662839,-4.6182 2.6662838,4.6182 z"
         id="path4138"
         style="fill:#ffffff;fill-opacity:1;stroke:#ffaaaa;stroke-width:0;stroke-miterlimit:4;stroke-dasharray:none;stroke-opacity:1"
         inkscape:connector-curvature="0" /><path
         style="fill:#ffffff;fill-opacity:1;stroke:#ffaaaa;stroke-width:0;stroke-miterlimit:4;stroke-dasharray:none;stroke-opacity:1"
         id="path4144"
         d="m 10.020068,1043.7848 -5.3325679,0 -5.33256787,0 2.66628387,-4.6181 2.6662839,-4.6182 2.6662838,4.6182 z"
         transform="matrix(0.50007085,0,0,0.2887157,38.11355,748.56767)"
         inkscape:connector-curvature="0" /><circle
         r="0.9999963"
         cy="1044.9248"
         cx="41.457634"
         id="path4146"
         style="fill:#ffffff;fill-opacity:1;stroke:#ffaaaa;stroke-width:0;stroke-miterlimit:4;stroke-dasharray:none;stroke-opacity:1" /></g></g></svg>