<?xml version="1.0" encoding="utf-8"?>
<!-- Generator: Adobe Illustrator 19.1.0, SVG Export Plug-In . SVG Version: 6.00 Build 0)  -->
<svg version="1.1" id="Ebene_1" xmlns="http://www.w3.org/2000/svg" xmlns:xlink="http://www.w3.org/1999/xlink" x="0px" y="0px"
	 viewBox="0 0 16 16" enable-background="new 0 0 16 16" xml:space="preserve">
<path fill="#FFC857" d="M16,4v10H0V5V4V2h7l1.3,2H16z"/>
<path fill="#E8A33D" d="M16,5H8.3L7,7H0V5V4h16V5z"/>
<rect x="8" y="8" fill="#FFFFFF" width="8" height="8"/>
<path fill="#B9B9B9" d="M15,9v6H9V9H15 M16,8H8v8h8V8L16,8z"/>
<rect x="10" y="10" fill="#EFEFEF" width="4" height="4"/>
<polygon fill="#5599FF" points="14,14 14,13.5 13,12 11.7,14 "/>
<circle fill="#E8A33D" cx="13" cy="11" r="0.5"/>
<polygon fill="#5599FF" points="10,14 12.9,14 11.2,11 10,13.2 "/>
</svg>
