<?xml version="1.0" encoding="utf-8"?>
<!-- Generator: Adobe Illustrator 19.1.0, SVG Export Plug-In . SVG Version: 6.00 Build 0)  -->
<svg version="1.1" id="Ebene_1" xmlns="http://www.w3.org/2000/svg" xmlns:xlink="http://www.w3.org/1999/xlink" x="0px" y="0px"
	 viewBox="0 0 16 16" enable-background="new 0 0 16 16" xml:space="preserve">
<rect x="1" y="1" fill="#FFFFFF" width="10" height="10"/>
<path fill="#B9B9B9" d="M10,2v8H2V2H10 M11,1H1v10h10V1L11,1z"/>
<rect x="3" y="3" fill="#FFFFFF" width="10" height="10"/>
<path fill="#B9B9B9" d="M12,4v8H4V4H12 M13,3H3v10h10V3L13,3z"/>
<rect x="5" y="5" fill="#FFFFFF" width="10" height="10"/>
<path fill="#B9B9B9" d="M14,6v8H6V6H14 M15,5H5v10h10V5L15,5z"/>
<rect x="7" y="7" fill="#EFEFEF" width="6" height="6"/>
<path fill="#5599FF" d="M11.5,13H9.2H7l2.2-4L11.5,13z"/>
<path fill="#5599FF" d="M13,13h-2H9l2-3L13,13z"/>
<path fill="#E8A33D" d="M12.5,8.3c0,0.4-0.3,0.8-0.7,0.8c0,0,0,0,0,0C11.3,9,11,8.7,11,8.3l0,0
	c0-0.4,0.3-0.8,0.7-0.8c0,0,0,0,0,0C12.2,7.5,12.5,7.8,12.5,8.3L12.5,8.3z"/>
</svg>
