<?xml version="1.0" encoding="UTF-8" standalone="no"?>
<svg
   xmlns:dc="http://purl.org/dc/elements/1.1/"
   xmlns:cc="http://creativecommons.org/ns#"
   xmlns:rdf="http://www.w3.org/1999/02/22-rdf-syntax-ns#"
   xmlns:svg="http://www.w3.org/2000/svg"
   xmlns="http://www.w3.org/2000/svg"
   xmlns:sodipodi="http://sodipodi.sourceforge.net/DTD/sodipodi-0.dtd"
   xmlns:inkscape="http://www.inkscape.org/namespaces/inkscape"
   viewBox="0 0 16 16"
   id="svg2"
   version="1.1"
   inkscape:version="0.91 r13725"
   sodipodi:docname="apps-pagetree-page-shortcut-external-hideinmenu.svg">
  <metadata
     id="metadata16">
    <rdf:RDF>
      <cc:Work
         rdf:about="">
        <dc:format>image/svg+xml</dc:format>
        <dc:type
           rdf:resource="http://purl.org/dc/dcmitype/StillImage" />
        <dc:title></dc:title>
      </cc:Work>
    </rdf:RDF>
  </metadata>
  <defs
     id="defs14" />
  <sodipodi:namedview
     pagecolor="#ffffff"
     bordercolor="#666666"
     borderopacity="1"
     objecttolerance="10"
     gridtolerance="10"
     guidetolerance="10"
     inkscape:pageopacity="0"
     inkscape:pageshadow="2"
     inkscape:window-width="1920"
     inkscape:window-height="1027"
     id="namedview12"
     showgrid="false"
     inkscape:zoom="24.169014"
     inkscape:cx="11.106097"
     inkscape:cy="5.5516899"
     inkscape:window-x="-8"
     inkscape:window-y="-8"
     inkscape:window-maximized="1"
     inkscape:current-layer="svg2" />
  <path
     style="fill:#b9b9b9;fill-opacity:1"
     inkscape:connector-curvature="0"
     id="path6"
     d="m 12.21914,0.93001 c -0.61389,0 -1.22721,0.23541 -1.69689,0.70509 l -1.9836,1.9836 c -0.9405,0.9405 -0.9405,2.45385 0,3.39378 l 0.44631,0.44631 c 0.9405,0.9405 2.45328,0.9405 3.39378,0 l 1.9836,-1.9836 c 0.9405,-0.9405 0.9405,-2.45328 0,-3.39378 L 13.91603,1.6351 C 13.44521,1.16542 12.83189,0.93001 12.21857,0.93001 Z m -0.18126,1.11834 c 0.43491,-0.02166 0.93366,0.17955 1.33266,0.57855 0.6384,0.6384 0.7695,1.53444 0.29412,2.01096 L 11.54312,6.7594 C 11.0666,7.23535 10.16942,7.10539 9.53102,6.46699 8.89262,5.82859 8.76152,4.93084 9.23804,4.45489 l 2.12154,-2.12211 c 0.17898,-0.17841 0.41724,-0.27132 0.6783,-0.285 z M 5.31245,7.8367 c -0.61275,0 -1.22664,0.23484 -1.69689,0.70509 l -1.9836,1.9836 c -0.9405,0.9405 -0.9405,2.45328 0,3.39378 l 0.44631,0.44688 c 0.9405,0.9405 2.45442,0.9405 3.39435,0 l 1.9836,-1.9836 c 0.9405,-0.9405 0.9405,-2.45385 0,-3.39378 L 7.00934,8.54179 C 6.53909,8.07154 5.92634,7.8367 5.31245,7.8367 Z m -0.1824,1.11834 c 0.43434,-0.0228 0.9348,0.17955 1.3338,0.57855 0.6384,0.6384 0.76836,1.53615 0.29241,2.0121 L 4.63472,13.6678 C 4.1582,14.14375 3.26216,14.01208 2.62376,13.37368 1.98536,12.73528 1.85426,11.83924 2.32964,11.36272 L 4.45118,9.24118 C 4.63016,9.06277 4.86842,8.96758 5.12948,8.95504 Z" />
  <rect
     style="fill:#b9b9b9;fill-opacity:1"
     id="rect10"
     width="7.6049399"
     height="2.1728399"
     x="-3.800077"
     y="10.22567"
     ry="1.3714199"
     rx="0.65436"
     transform="matrix(0.70710678,-0.70710678,0.70710678,0.70710678,0,0)" />
</svg>
