<?xml version="1.0" encoding="UTF-8" standalone="no"?>
<!-- Generator: Adobe Illustrator 19.1.0, SVG Export Plug-In . SVG Version: 6.00 Build 0)  -->

<svg
   xmlns:dc="http://purl.org/dc/elements/1.1/"
   xmlns:cc="http://creativecommons.org/ns#"
   xmlns:rdf="http://www.w3.org/1999/02/22-rdf-syntax-ns#"
   xmlns:svg="http://www.w3.org/2000/svg"
   xmlns="http://www.w3.org/2000/svg"
   xmlns:sodipodi="http://sodipodi.sourceforge.net/DTD/sodipodi-0.dtd"
   xmlns:inkscape="http://www.inkscape.org/namespaces/inkscape"
   version="1.1"
   x="0px"
   y="0px"
   viewBox="0 0 16 16"
   enable-background="new 0 0 16 16"
   xml:space="preserve"
   id="svg2"
   inkscape:version="0.91 r13725"
   sodipodi:docname="apps-filetree-mount.svg"><metadata
     id="metadata29"><rdf:RDF><cc:Work
         rdf:about=""><dc:format>image/svg+xml</dc:format><dc:type
           rdf:resource="http://purl.org/dc/dcmitype/StillImage" /></cc:Work></rdf:RDF></metadata><defs
     id="defs27" /><sodipodi:namedview
     pagecolor="#ffffff"
     bordercolor="#666666"
     borderopacity="1"
     objecttolerance="10"
     gridtolerance="10"
     guidetolerance="10"
     inkscape:pageopacity="0"
     inkscape:pageshadow="2"
     inkscape:window-width="1920"
     inkscape:window-height="1027"
     id="namedview25"
     showgrid="false"
     inkscape:zoom="16"
     inkscape:cx="7.0000043"
     inkscape:cy="11.789731"
     inkscape:window-x="-8"
     inkscape:window-y="-8"
     inkscape:window-maximized="1"
     inkscape:current-layer="apps-filetree-mount" /><g
     id="apps-filetree-mount"><path
       fill="#B9B9B9"
       d="M0,4h16v5H0V4z"
       id="path5" /><path
       fill="#B9B9B9"
       d="M16,12v2H0v-2H16z"
       id="path7" /><path
       fill="#5599FF"
       d="M12,11v4H4v-4h2V9h4v2H12z"
       id="path9" /><path
       fill="#8C8C8C"
       d="M1,7h10v1H1V7z"
       id="path11" /><path
       fill="#8C8C8C"
       d="M1,5h10v1H1V5z"
       id="path13" /><path
       id="path4157"
       d="M 2.6,1 13.4,1 16,4 0,4 Z"
       style="fill:#b9b9b9;fill-opacity:1"
       inkscape:connector-curvature="0"
       sodipodi:nodetypes="ccccc" /><path
       d="M 3.15,2 12.75,2 14.5,4 1.4,4 Z"
       id="path15"
       inkscape:connector-curvature="0"
       style="fill:#efefef"
       sodipodi:nodetypes="ccccc" /><path
       opacity="0.3"
       enable-background="new    "
       d="M6,9h4v1H6V9z"
       id="path19" /><path
       fill="#CD201F"
       d="M13,7h2v1h-2V7z"
       id="path21" /><path
       fill="#5599FF"
       d="M13,5h2v1h-2V5z"
       id="path23" /></g></svg>