<?xml version="1.0" encoding="utf-8"?>
<!-- Generator: Adobe Illustrator 22.1.0, SVG Export Plug-In . SVG Version: 6.00 Build 0)  -->
<svg version="1.1" id="Ebene_1" xmlns="http://www.w3.org/2000/svg" xmlns:xlink="http://www.w3.org/1999/xlink" x="0px" y="0px"
	 viewBox="0 0 16 16" enable-background="new 0 0 16 16" xml:space="preserve">
<rect x="1" y="2" fill="#FFFFFF" width="14" height="5"/>
<path fill="#999999" d="M14,3v3H2V3H14 M15,2H1v5h14V2L15,2z"/>
<rect x="3" y="4" fill="#666666" width="1" height="1"/>
<rect x="5" y="4" fill="#666666" width="1" height="1"/>
<rect x="7" y="4" fill="#666666" width="1" height="1"/>
<rect x="1" y="9" fill="#FFFFFF" width="14" height="5"/>
<path fill="#999999" d="M14,10v3H2v-3H14 M15,9H1v5h14V9L15,9z"/>
<rect x="3" y="11" fill="#666666" width="1" height="1"/>
<rect x="5" y="11" fill="#666666" width="1" height="1"/>
<rect x="7" y="11" fill="#666666" width="1" height="1"/>
</svg>
