<?xml version="1.0" encoding="utf-8"?>
<!-- Generator: Adobe Illustrator 22.1.0, SVG Export Plug-In . SVG Version: 6.00 Build 0)  -->
<svg version="1.1" id="Ebene_1" xmlns="http://www.w3.org/2000/svg" xmlns:xlink="http://www.w3.org/1999/xlink" x="0px" y="0px"
	 viewBox="0 0 16 16" enable-background="new 0 0 16 16" xml:space="preserve">
<rect x="2" y="1" fill="#FFFFFF" width="12" height="10"/>
<path fill="#B9B9B9" d="M13,2v8H3V2H13 M14,1H2v10h12V1L14,1z"/>
<rect x="1" y="10" fill="#FFFFFF" width="14" height="5"/>
<path fill="#999999" d="M14,11v3H2v-3H14 M15,10H1v5h14V10L15,10z"/>
<path fill="#666666" d="M10,10H4l1.5-2.5L7,5l1.5,2.5L10,10z"/>
<path fill="#666666" d="M12,10H6.7L8,8.3l1.3-1.7l1.3,1.7L12,10z"/>
<circle fill="#666666" cx="11" cy="4" r="1"/>
<rect x="12" y="12" fill="#666666" width="1" height="1"/>
<rect x="10" y="12" fill="#666666" width="1" height="1"/>
</svg>
