<?xml version="1.0" encoding="utf-8"?>
<!-- Generator: Adobe Illustrator 22.1.0, SVG Export Plug-In . SVG Version: 6.00 Build 0)  -->
<svg version="1.1" id="Ebene_1" xmlns="http://www.w3.org/2000/svg" xmlns:xlink="http://www.w3.org/1999/xlink" x="0px" y="0px"
	 viewBox="0 0 16 16" enable-background="new 0 0 16 16" xml:space="preserve">
<rect x="1" y="1" fill="#FFFFFF" width="14" height="14"/>
<path fill="#999999" d="M1,1v14h14V1H1z M14,14H2V2h12V14z"/>
<path fill="#666666" d="M12.1,5.3L11.7,5c-0.1-0.1-0.3-0.1-0.4,0L6.6,9.8L4.6,7.8c-0.1-0.1-0.3-0.1-0.4,0L3.9,8.2
	c-0.1,0.1-0.1,0.3,0,0.4l2.1,2.1L6.4,11c0.1,0.1,0.3,0.1,0.4,0l0.4-0.4l4.9-4.9C12.2,5.6,12.2,5.4,12.1,5.3z"/>
</svg>
