<svg xmlns="http://www.w3.org/2000/svg" version="1.1" viewBox="0 0 16 16">
<path fill="#EFEFEF" d="M2,0v16h12V4l-4-4H2z"/>
<path opacity="0.65" fill="#FFFFFF" enable-background="new    " d="M10,4V0l4,4H10z"/>
<rect x="7" y="7" fill="#B9B9B9" width="5" height="1"/>
<rect x="7" y="9" fill="#B9B9B9" width="5" height="1"/>
<rect x="7" y="11" fill="#B9B9B9" width="5" height="1"/>
<rect x="4" y="7" fill="#79A548" width="2" height="1"/>
<rect x="4" y="9" fill="#79A548" width="2" height="1"/>
<rect x="4" y="11" fill="#79A548" width="2" height="1"/>
<rect x="7" y="13" fill="#B9B9B9" width="5" height="1"/>
<rect x="4" y="13" fill="#79A548" width="2" height="1"/>
<path fill="#212121" opacity="0.2" enable-background="new    " d="M13,5v5L9,5H13z"/>
<path fill="#999999" d="M2,0v16h12V4l0,0l0,0l-4-4l0,0l0,0H2z M3,1h6v4h4v10H3V1z M10,1.4L12.6,4H10V1.4z"/>
</svg>
