<svg xmlns="http://www.w3.org/2000/svg" version="1.1" viewBox="0 0 16 16">
<path fill="#FFFFFF" d="M3,13V3h10v10H3z"/>
<rect x="14" y="10" fill="#B9B9B9" width="1" height="2"/>
<rect x="14" y="4" fill="#B9B9B9" width="1" height="2"/>
<rect x="14" y="7" fill="#B9B9B9" width="1" height="2"/>
<rect x="1" y="10" fill="#B9B9B9" width="1" height="2"/>
<rect x="1" y="4" fill="#B9B9B9" width="1" height="2"/>
<rect x="1" y="7" fill="#B9B9B9" width="1" height="2"/>
<path fill="#666666" d="M3,13h10V3H3V13z M4,12V4h8v8H4z"/>
<rect x="5" y="5" fill="#B9B9B9" width="2" height="1"/>
<rect x="8" y="5" fill="#B9B9B9" width="3" height="1"/>
<rect x="5" y="7" fill="#B9B9B9" width="2" height="1"/>
<rect x="8" y="7" fill="#B9B9B9" width="3" height="1"/>
<rect x="5" y="9" fill="#B9B9B9" width="2" height="1"/>
<rect x="8" y="9" fill="#B9B9B9" width="3" height="1"/>
<polygon fill="#B9B9B9" points="3,1 1,1 1,3 2,3 2,2 3,2 "/>
<rect x="4" y="1" fill="#B9B9B9" width="2" height="1"/>
<rect x="7" y="1" fill="#B9B9B9" width="2" height="1"/>
<rect x="10" y="1" fill="#B9B9B9" width="2" height="1"/>
<polygon fill="#B9B9B9" points="15,1 15,1 13,1 13,2 14,2 14,3 15,3 "/>
<rect x="4" y="14" fill="#B9B9B9" width="2" height="1"/>
<polygon fill="#B9B9B9" points="2,14 2,13 1,13 1,15 3,15 3,14 "/>
<rect x="7" y="14" fill="#B9B9B9" width="2" height="1"/>
<rect x="10" y="14" fill="#B9B9B9" width="2" height="1"/>
<polygon fill="#B9B9B9" points="15,13 14,13 14,14 13,14 13,15 15,15 "/>
</svg>
