<svg xmlns="http://www.w3.org/2000/svg" viewBox="0 0 16 16">
<rect x="1" y="2" fill="#FFF" width="14" height="5"/>
<path fill="#999999" d="M14,3v3H2V3H14 M15,2H1v5h14V2L15,2z"/>
<rect x="3" y="4" fill="#666666" width="1" height="1"/>
<rect x="5" y="4" fill="#666666" width="1" height="1"/>
<rect x="7" y="4" fill="#666666" width="1" height="1"/>
<rect x="1" y="9" fill="#FFF" width="14" height="5"/>
<path fill="#999999" d="M14,10v3H2v-3H14 M15,9H1v5h14V9L15,9z"/>
<rect x="3" y="11" fill="#666666" width="1" height="1"/>
<rect x="5" y="11" fill="#666666" width="1" height="1"/>
<rect x="7" y="11" fill="#666666" width="1" height="1"/>
</svg>