<?xml version="1.0" encoding="utf-8"?>
<!-- Generator: Adobe Illustrator 22.1.0, SVG Export Plug-In . SVG Version: 6.00 Build 0)  -->
<svg version="1.1" id="Ebene_1" xmlns="http://www.w3.org/2000/svg" xmlns:xlink="http://www.w3.org/1999/xlink" x="0px" y="0px"
	 viewBox="0 0 16 16" style="enable-background:new 0 0 16 16;" xml:space="preserve">
<style type="text/css">
	.st0{fill:#FFFFFF;}
	.st1{fill:#999999;}
	.st2{opacity:0.75;}
</style>
<rect x="1" y="5" class="st0" width="14" height="6"/>
<path class="st1" d="M14,6v4H2V6H14 M15,5H1v6h14V5L15,5z"/>
<g class="st2">
	<rect x="2" y="10" class="st0" width="1" height="1"/>
	<rect x="1" y="9" class="st0" width="1" height="1"/>
	<rect x="4" y="10" class="st0" width="1" height="1"/>
	<rect x="6" y="10" class="st0" width="1" height="1"/>
	<rect x="8" y="10" class="st0" width="1" height="1"/>
	<rect x="10" y="10" class="st0" width="1" height="1"/>
	<rect x="12" y="10" class="st0" width="1" height="1"/>
	<rect x="14" y="10" class="st0" width="1" height="1"/>
	<rect x="14" y="8" class="st0" width="1" height="1"/>
	<rect x="14" y="6" class="st0" width="1" height="1"/>
	<rect x="13" y="5" class="st0" width="1" height="1"/>
	<rect x="11" y="5" class="st0" width="1" height="1"/>
	<rect x="9" y="5" class="st0" width="1" height="1"/>
	<rect x="7" y="5" class="st0" width="1" height="1"/>
	<rect x="5" y="5" class="st0" width="1" height="1"/>
	<rect x="3" y="5" class="st0" width="1" height="1"/>
	<rect x="1" y="5" class="st0" width="1" height="1"/>
	<rect x="1" y="7" class="st0" width="1" height="1"/>
</g>
</svg>
