<?xml version="1.0" encoding="utf-8"?>
<!-- Generator: Adobe Illustrator 22.1.0, SVG Export Plug-In . SVG Version: 6.00 Build 0)  -->
<svg version="1.1" id="Ebene_1" xmlns="http://www.w3.org/2000/svg" xmlns:xlink="http://www.w3.org/1999/xlink" x="0px" y="0px"
	 viewBox="0 0 16 16" style="enable-background:new 0 0 16 16;" xml:space="preserve">
<style type="text/css">
	.st0{fill:#EFEFEF;}
	.st1{opacity:0.65;fill:#FFFFFF;enable-background:new    ;}
	.st2{fill:#B9B9B9;}
	.st3{fill:#79A548;}
	.st4{opacity:0.2;enable-background:new    ;}
	.st5{fill:#999999;}
</style>
<path class="st0" d="M2,0v16h12V4l-4-4H2z"/>
<path class="st1" d="M10,4V0l4,4H10z"/>
<rect x="7" y="7" class="st2" width="5" height="1"/>
<rect x="7" y="9" class="st2" width="5" height="1"/>
<rect x="7" y="11" class="st2" width="5" height="1"/>
<rect x="4" y="7" class="st3" width="2" height="1"/>
<rect x="4" y="9" class="st3" width="2" height="1"/>
<rect x="4" y="11" class="st3" width="2" height="1"/>
<rect x="7" y="13" class="st2" width="5" height="1"/>
<rect x="4" y="13" class="st3" width="2" height="1"/>
<path class="st4" d="M13,5v5L9,5H13z"/>
<path class="st5" d="M2,0v16h12V4h0l0,0l-4-4l0,0v0H2z M3,1h6v4h4v10H3V1z M10,1.4L12.6,4H10V1.4z"/>
</svg>
