<svg xmlns="http://www.w3.org/2000/svg" viewBox="0 0 16 16">
<g>
	<rect x="1.5" y="1.5" fill="#FFF" width="11" height="11"/>
	<path fill="#CCCCCC" d="M12,2v10H2V2H12 M13,1H1v12h12V1L13,1z"/>
</g>
<g>
	<rect x="3.5" y="3.5" fill="#FFF" width="11" height="11"/>
	<path fill="#999999" d="M14,4v10H4V4H14 M15,3H3v12h12V3L15,3z"/>
</g>
<polygon fill="#666666" points="6.9,7.6 7.6,8.3 9,6.9 10.4,8.3 11.1,7.6 9,5.5 "/>
<polygon fill="#666666" points="11.1,10.4 10.4,9.7 9,11.1 7.6,9.7 6.9,10.4 9,12.5 "/>
</svg>