<?xml version="1.0" encoding="utf-8"?>
<!-- Generator: Adobe Illustrator 22.1.0, SVG Export Plug-In . SVG Version: 6.00 Build 0)  -->
<svg version="1.1" xmlns="http://www.w3.org/2000/svg" xmlns:xlink="http://www.w3.org/1999/xlink" x="0px" y="0px"
	 viewBox="0 0 16 16" enable-background="new 0 0 16 16">
<polygon fill="#FFFFFF" points="11,3 8,3 6,3 3,3 1,3 1,15 15,15 15,3 "/>
<path fill="#999999" d="M1,3v12h14V3H1z M14,14H2V4h12V14z"/>
<rect x="6" y="6" fill="#B9B9B9" width="1" height="1"/>
<rect x="3" y="6" fill="#B9B9B9" width="2" height="7"/>
<rect x="8" y="6" fill="#B9B9B9" width="1" height="1"/>
<rect x="10" y="6" fill="#B9B9B9" width="1" height="1"/>
<rect x="12" y="6" fill="#B9B9B9" width="1" height="1"/>
<rect x="6" y="8" fill="#B9B9B9" width="1" height="1"/>
<rect x="8" y="8" fill="#B9B9B9" width="1" height="1"/>
<rect x="10" y="8" fill="#666666" width="1" height="1"/>
<rect x="12" y="8" fill="#B9B9B9" width="1" height="1"/>
<rect x="6" y="10" fill="#B9B9B9" width="1" height="1"/>
<rect x="8" y="10" fill="#B9B9B9" width="1" height="1"/>
<rect x="10" y="10" fill="#B9B9B9" width="1" height="1"/>
<rect x="12" y="10" fill="#B9B9B9" width="1" height="1"/>
<rect x="6" y="12" fill="#B9B9B9" width="1" height="1"/>
<rect x="8" y="12" fill="#B9B9B9" width="1" height="1"/>
<rect x="10" y="12" fill="#B9B9B9" width="1" height="1"/>
<rect x="12" y="12" fill="#B9B9B9" width="1" height="1"/>
<rect x="1" y="1" fill="#666666" width="14" height="3"/>
<rect x="11" y="1" fill="#999999" width="2" height="1"/>
<rect x="3" y="1" fill="#999999" width="2" height="1"/>
</svg>
