<svg xmlns="http://www.w3.org/2000/svg" version="1.1" viewBox="0 0 16 16">
<path fill="#FFFFFF" d="M3,15V1h10v14H3z"/>
<rect x="14" y="13" fill="#B9B9B9" width="1" height="2"/>
<rect x="14" y="10" fill="#B9B9B9" width="1" height="2"/>
<rect x="14" y="4" fill="#B9B9B9" width="1" height="2"/>
<rect x="14" y="1" fill="#B9B9B9" width="1" height="2"/>
<rect x="14" y="7" fill="#B9B9B9" width="1" height="2"/>
<rect x="1" y="13" fill="#B9B9B9" width="1" height="2"/>
<rect x="1" y="10" fill="#B9B9B9" width="1" height="2"/>
<rect x="1" y="4" fill="#B9B9B9" width="1" height="2"/>
<rect x="1" y="1" fill="#B9B9B9" width="1" height="2"/>
<rect x="1" y="7" fill="#B9B9B9" width="1" height="2"/>
<path fill="#666666" d="M3,15h10V1H3V15z M4,14V2h8v12H4z"/>
<rect x="5" y="3" fill="#B9B9B9" width="6" height="10"/>
</svg>
