<svg xmlns="http://www.w3.org/2000/svg" viewBox="0 0 16 16">
<g>
	<polygon fill="#CECECE" points="14,9 10,10 6,9 2,10 2,2 6,1 10,2 14,1 	"/>
</g>
<g>
	<polygon fill="#666666" points="2,2 2,4 4,3.5 4,1.5 	"/>
	<polygon fill="#666666" points="2,6 2,8 4,7.5 4,5.5 	"/>
	<polygon fill="#666666" points="6,3 4,3.5 4,5.5 6,5 	"/>
	<polygon fill="#666666" points="4,9.5 6,9 6,7 4,7.5 	"/>
	<polygon fill="#666666" points="6,5 6,7 8,7.5 8,5.5 	"/>
	<polygon fill="#666666" points="8,1.5 6,1 6,3 8,3.5 	"/>
	<polygon fill="#666666" points="10,6 10,4 8,3.5 8,5.5 	"/>
	<polygon fill="#666666" points="8,9.5 10,10 10,8 8,7.5 	"/>
	<polygon fill="#666666" points="10,6 10,8 12,7.5 12,5.5 	"/>
	<polygon fill="#666666" points="12,1.5 10,2 10,4 12,3.5 	"/>
	<polygon fill="#666666" points="14,5 14,3 12,3.5 12,5.5 	"/>
	<polygon fill="#666666" points="14,9 14,7 12,7.5 12,9.5 	"/>
</g>
<path fill="#212121" opacity="0.3" d="M6,2L9.8,3L10,3L10.2,3L13,2.3v5.9L10,9L6.2,8L6,8L5.8,8L3,8.7V2.8L6,2 M14,1l-4,1L6,1L2,2v8l4-1l4,1l4-1V1
	L14,1z"/>
<rect x="2" y="1" fill="#333333" width="1" height="14"/>
</svg>