<svg xmlns="http://www.w3.org/2000/svg" version="1.1" viewBox="0 0 16 16">
<rect x="2" y="1" fill="#FFFFFF" width="12" height="10"/>
<path fill="#B9B9B9" d="M13,2v8H3V2H13 M14,1H2v10h12V1L14,1z"/>
<rect x="1" y="10" fill="#FFFFFF" width="14" height="5"/>
<path fill="#999999" d="M14,11v3H2v-3H14 M15,10H1v5h14V10L15,10z"/>
<rect x="12" y="12" fill="#666666" width="1" height="1"/>
<rect x="10" y="12" fill="#666666" width="1" height="1"/>
<path fill="#666666" d="M11.3,8H4.7C4.5,8,4.4,7.7,4.5,7.6l3.3-3.7c0.1-0.1,0.3-0.1,0.4,0l3.3,3.7C11.6,7.7,11.5,8,11.3,8z"/>
<rect x="7" y="8" fill="#666666" width="2" height="2"/>
</svg>
