<?xml version="1.0" encoding="utf-8"?>
<!-- Generator: Adobe Illustrator 22.1.0, SVG Export Plug-In . SVG Version: 6.00 Build 0)  -->
<svg version="1.1" xmlns="http://www.w3.org/2000/svg" xmlns:xlink="http://www.w3.org/1999/xlink" x="0px" y="0px"
	 viewBox="0 0 16 16" enable-background="new 0 0 16 16">
<path fill="#FFFFFF" d="M2,1v7c0,4,5.6,6.8,5.8,6.9L8,15l0.2-0.1c0.3-0.1,5.8-3,5.8-6.9V1H2z"/>
<path fill="#999999" d="M13,2v6c0,2.8-3.8,5.2-5,5.8c-1.2-0.6-5-3-5-5.8V2H13 M14,1H2v7c0,4,5.6,6.8,5.8,6.9L8,15l0.2-0.1
	c0.3-0.1,5.8-3,5.8-6.9V1L14,1z"/>
<path fill="#666666" d="M8,3H4v5c0,1.9,2.5,3.8,4,4.7c0,0,0,0,0,0V3z"/>
</svg>
