<?xml version="1.0" encoding="utf-8"?>
<!-- Generator: Adobe Illustrator 19.1.0, SVG Export Plug-In . SVG Version: 6.00 Build 0)  -->
<svg version="1.1" xmlns="http://www.w3.org/2000/svg" xmlns:xlink="http://www.w3.org/1999/xlink" x="0px" y="0px"
	 viewBox="0 0 16 16" enable-background="new 0 0 16 16" xml:space="preserve">
<g class="icon-color">
	<path d="M15.549,8H14c0-3.31-2.69-6-6-6C6.88,2,5.84,2.31,4.94,2.84l0.61,0.97C6.27,3.39,7.1,3.13,8,3.13
		c2.68,0,4.87,2.18,4.87,4.87h-1.419c-0.196,0-0.316,0.216-0.212,0.383l2.049,3.278c0.098,0.157,0.326,0.157,0.424,0l2.049-3.278
		C15.865,8.216,15.745,8,15.549,8z"/>
	<path d="M10.37,12.23c-0.7,0.4-1.5,0.64-2.37,0.64c-2.68,0-4.87-2.18-4.87-4.87h1.419c0.196,0,0.316-0.216,0.212-0.383L2.712,4.339
		c-0.098-0.157-0.326-0.157-0.424,0L0.239,7.617C0.135,7.784,0.255,8,0.451,8H2c0,3.31,2.69,6,6,6c1.09,0,2.1-0.29,2.98-0.8
		L10.37,12.23z"/>
</g>
</svg>
