<?xml version="1.0" encoding="utf-8"?>
<!-- Generator: Adobe Illustrator 19.1.0, SVG Export Plug-In . SVG Version: 6.00 Build 0)  -->
<svg version="1.1" xmlns="http://www.w3.org/2000/svg" xmlns:xlink="http://www.w3.org/1999/xlink" x="0px" y="0px"
	 viewBox="0 0 16 16" enable-background="new 0 0 16 16" xml:space="preserve">
<g class="icon-color">
	<path d="M5,14H3V2h7v2.5C10,4.776,10.224,5,10.5,5H13v0.11C13.192,5.043,13.393,5,13.6,5c0.135,0,0.269,0.019,0.4,0.048V3.914
		c0-0.265-0.105-0.52-0.293-0.707l-1.914-1.914C11.605,1.105,11.351,1,11.086,1H2.5C2.224,1,2,1.224,2,1.5v13
		C2,14.776,2.224,15,2.5,15H5V14z M11,2l2,2h-2V2z"/>
	<path d="M13,13.164V14h-0.836l-1,1H13.5c0.276,0,0.5-0.224,0.5-0.5v-2.336L13,13.164z"/>
	<path d="M14.24,10.51L8.75,16H6v-2.75l5.49-5.49L14.24,10.51z M9,14.55L7.45,13l-0.6,0.6v0.71h0.84v0.84H8.4L9,14.55z M11.7,8.88
		c-0.04,0-0.08,0.01-0.11,0.05l-3.58,3.58c-0.03,0.03-0.05,0.07-0.05,0.11c0,0.09,0.06,0.14,0.15,0.14c0.04,0,0.08-0.01,0.11-0.05
		l3.58-3.58c0.03-0.03,0.05-0.07,0.05-0.11C11.85,8.94,11.79,8.88,11.7,8.88z M15.76,8.99l-1.1,1.1l-2.75-2.75l1.1-1.09
		C13.16,6.09,13.38,6,13.6,6s0.44,0.09,0.6,0.25l1.55,1.54C15.91,7.95,16,8.17,16,8.4C16,8.62,15.91,8.84,15.76,8.99z"/>
</g>
</svg>
