<?xml version="1.0" encoding="utf-8"?>
<!-- Generator: Adobe Illustrator 19.1.0, SVG Export Plug-In . SVG Version: 6.00 Build 0)  -->
<svg version="1.1" id="Ebene_1" xmlns="http://www.w3.org/2000/svg" xmlns:xlink="http://www.w3.org/1999/xlink" x="0px" y="0px"
	 viewBox="0 0 16 16" enable-background="new 0 0 16 16" xml:space="preserve">
<g class="icon-color">
	<rect x="3" y="3" width="10" height="2"/>
	<rect x="3" y="6" width="1" height="1"/>
	<rect x="3" y="8" width="1" height="1"/>
	<rect x="3" y="10" width="1" height="1"/>
	<rect x="3" y="12" width="1" height="1"/>
	<path d="M15,7v7h-4.2L10,14.4V14H6V7 M5,6.5v8C5,14.776,5.224,15,5.5,15H9v1l2-1h4.5c0.276,0,0.5-0.224,0.5-0.5v-8
		C16,6.224,15.776,6,15.5,6h-10C5.224,6,5,6.224,5,6.5z"/>
	<path d="M4,14H2V2h12v3h1V1.5C15,1.2,14.8,1,14.5,1h-13C1.2,1,1,1.2,1,1.5v13C1,14.8,1.2,15,1.5,15H4V14z"/>
</g>
</svg>
