<?xml version="1.0" encoding="utf-8"?>
<!-- Generator: Adobe Illustrator 19.1.0, SVG Export Plug-In . SVG Version: 6.00 Build 0)  -->
<svg version="1.1" id="Ebene_1" xmlns="http://www.w3.org/2000/svg" xmlns:xlink="http://www.w3.org/1999/xlink" x="0px" y="0px"
	 viewBox="0 0 16 16" style="enable-background:new 0 0 16 16;" xml:space="preserve">
<style type="text/css">
	.st0{fill:#FFFFFF;}
</style>
<path d="M8,1C4.14,1,1,4.14,1,8s3.14,7,7,7s7-3.14,7-7S11.86,1,8,1z"/>
<path class="st0" d="M11.182,6.232L9.414,8l1.768,1.768c0.198,0.198,0.198,0.509,0,0.707l-0.707,0.707
	c-0.198,0.198-0.509,0.198-0.707,0L8,9.414l-1.768,1.768c-0.198,0.198-0.509,0.198-0.707,0l-0.707-0.707
	c-0.198-0.198-0.198-0.509,0-0.707L6.586,8L4.818,6.232c-0.198-0.198-0.198-0.509,0-0.707l0.707-0.707
	c0.198-0.198,0.509-0.198,0.707,0L8,6.586l1.768-1.768c0.198-0.198,0.509-0.198,0.707,0l0.707,0.707
	C11.38,5.723,11.38,6.034,11.182,6.232z"/>
</svg>
