<?xml version="1.0" encoding="utf-8"?>
<!-- Generator: Adobe Illustrator 19.1.0, SVG Export Plug-In . SVG Version: 6.00 Build 0)  -->
<svg version="1.1" id="Ebene_1" xmlns="http://www.w3.org/2000/svg" xmlns:xlink="http://www.w3.org/1999/xlink" x="0px" y="0px"
	 viewBox="0 0 16 16" enable-background="new 0 0 16 16" xml:space="preserve">
<g class="icon-color">
	<path d="M14,10v2h-2v-1.549c0-0.196-0.216-0.316-0.383-0.212l-3.278,2.049c-0.157,0.098-0.157,0.326,0,0.424l3.278,2.049
		C11.784,14.865,12,14.745,12,14.549V13h3v-3H14z"/>
	<path d="M6,13h1L5.5,9h-1L3,13h1l0.188-0.5h1.625L6,13z M4.563,11.5L5,10.333L5.438,11.5H4.563z"/>
	<path d="M12,4.75V3H9v4h4V4.75H12z M10,3.5h1.5v1.25H10V3.5z M12.5,6.5H10V5.25h2.5V6.5z"/>
	<path d="M7.661,3.288L4.383,1.239C4.216,1.135,4,1.255,4,1.451V3H1v3h1V4h2v1.549c0,0.196,0.216,0.316,0.383,0.212l3.278-2.049
		C7.817,3.614,7.817,3.386,7.661,3.288z"/>
	<path d="M14.5,1h-7C7.224,1,7,1.224,7,1.5v0.196l1,0.625V2h6v6H9V7.5C9,7.224,8.776,7,8.5,7H8V4.679L7,5.304V7H1.5
		C1.224,7,1,7.224,1,7.5v7C1,14.776,1.224,15,1.5,15h7C8.776,15,9,14.776,9,14.5v-0.196l-1-0.625V14H2V8h6v3.321l1-0.625V9h5.5
		C14.776,9,15,8.776,15,8.5v-7C15,1.224,14.776,1,14.5,1z"/>
</g>
</svg>
