<?xml version="1.0" encoding="utf-8"?>
<!-- Generator: Adobe Illustrator 19.1.0, SVG Export Plug-In . SVG Version: 6.00 Build 0)  -->
<svg version="1.1" id="Ebene_1" xmlns="http://www.w3.org/2000/svg" xmlns:xlink="http://www.w3.org/1999/xlink" x="0px" y="0px"
	 viewBox="0 0 16 16" style="enable-background:new 0 0 16 16;" xml:space="preserve">
<g id="actions-document-move">
	<path d="M8.586,14H2V2h12v6.586l1,1V1.5C15,1.224,14.776,1,14.5,1h-13C1.224,1,1,1.224,1,1.5v13C1,14.776,1.224,15,1.5,15h8.086
		L8.586,14z"/>
	<rect x="3" y="3" width="10" height="2"/>
	<rect x="3" y="6" width="2" height="1"/>
	<rect x="3" y="8" width="2" height="1"/>
	<rect x="3" y="10" width="2" height="1"/>
	<rect x="3" y="12" width="2" height="1"/>
	<rect x="6" y="6" width="2" height="1"/>
	<rect x="6" y="8" width="2" height="1"/>
	<rect x="9" y="6" width="4" height="1"/>
	<polygon points="8,10.586 8,10 6,10 6,11 7.586,11 	"/>
	<polygon points="10.586,8 9,8 9,9 9.586,9 	"/>
	<path d="M7.47,12.884C7.226,12.64,7.104,12.32,7.104,12H6v1h1.586L7.47,12.884z"/>
	<path d="M15.823,11.823l-1.396-1.396C14.269,10.269,14,10.381,14,10.604V11h-1v-1h0.396c0.223,0,0.334-0.269,0.177-0.427
		l-1.396-1.396c-0.098-0.098-0.256-0.098-0.354,0l-1.396,1.396C10.269,9.731,10.381,10,10.604,10H11v1h-1v-0.396
		c0-0.223-0.269-0.334-0.427-0.177l-1.396,1.396c-0.098,0.098-0.098,0.256,0,0.354l1.396,1.396C9.731,13.731,10,13.619,10,13.396V13
		h1v1h-0.396c-0.223,0-0.334,0.269-0.177,0.427l1.396,1.396c0.098,0.098,0.256,0.098,0.354,0l1.396-1.396
		C13.731,14.269,13.619,14,13.396,14H13v-1h1v0.396c0,0.223,0.269,0.334,0.427,0.177l1.396-1.396
		C15.921,12.079,15.921,11.921,15.823,11.823z"/>
</g>
</svg>
