<?xml version="1.0" encoding="utf-8"?>
<!-- Generator: Adobe Illustrator 19.1.0, SVG Export Plug-In . SVG Version: 6.00 Build 0)  -->
<svg version="1.1" id="Ebene_1" xmlns="http://www.w3.org/2000/svg" xmlns:xlink="http://www.w3.org/1999/xlink" x="0px" y="0px"
	 viewBox="0 0 16 16" style="enable-background:new 0 0 16 16;" xml:space="preserve">
<g id="actions-edit-replace">
	<path d="M14,10v2h-2v-1.549c0-0.196-0.216-0.316-0.383-0.212l-3.278,2.049c-0.157,0.098-0.157,0.326,0,0.424l3.278,2.049
		C11.784,14.865,12,14.745,12,14.549V13h3v-3H14z"/>
	<path d="M7,13H6.374l-0.433-1.115H4.03L3.596,13H3l1.608-4h0.783L7,13z M5.76,11.428L4.985,9.465l-0.777,1.964H5.76z"/>
	<path d="M12.5,5.77c0,0.199-0.037,0.374-0.112,0.527c-0.075,0.152-0.175,0.278-0.302,0.376c-0.15,0.118-0.313,0.202-0.493,0.253
		C11.415,6.975,11.187,7,10.911,7H9.5V3h1.178c0.29,0,0.508,0.011,0.652,0.032c0.144,0.021,0.282,0.066,0.414,0.134
		c0.146,0.077,0.252,0.176,0.318,0.297s0.099,0.266,0.099,0.434c0,0.19-0.048,0.351-0.144,0.485s-0.224,0.24-0.385,0.321v0.021
		c0.269,0.056,0.481,0.174,0.636,0.356C12.423,5.262,12.5,5.492,12.5,5.77z M11.61,3.967c0-0.097-0.016-0.178-0.048-0.244
		s-0.084-0.12-0.155-0.161c-0.084-0.048-0.185-0.078-0.305-0.09c-0.119-0.012-0.267-0.017-0.443-0.017h-0.63v1.155h0.684
		c0.166,0,0.297-0.009,0.395-0.026c0.098-0.017,0.189-0.052,0.272-0.106c0.084-0.054,0.142-0.123,0.178-0.208
		C11.593,4.184,11.61,4.084,11.61,3.967z M11.95,5.791c0-0.161-0.024-0.289-0.072-0.384c-0.048-0.095-0.135-0.176-0.262-0.242
		c-0.085-0.045-0.189-0.074-0.312-0.087c-0.121-0.013-0.27-0.02-0.444-0.02h-0.831v1.488h0.7c0.232,0,0.421-0.012,0.569-0.036
		c0.148-0.024,0.269-0.069,0.363-0.133c0.1-0.07,0.173-0.15,0.219-0.239C11.927,6.048,11.95,5.933,11.95,5.791z"/>
	<path d="M7.661,3.288L4.383,1.239C4.216,1.135,4,1.255,4,1.451V3H1v3h1V4h2v1.549c0,0.196,0.216,0.316,0.383,0.212l3.278-2.049
		C7.817,3.614,7.817,3.386,7.661,3.288z"/>
	<path d="M14.5,1h-7C7.224,1,7,1.224,7,1.5v0.196l1,0.625V2h6v6H9V7.5C9,7.224,8.776,7,8.5,7H8V4.679L7,5.304V7H1.5
		C1.224,7,1,7.224,1,7.5v7C1,14.776,1.224,15,1.5,15h7C8.776,15,9,14.776,9,14.5v-0.196l-1-0.625V14H2V8h6v3.321l1-0.625V9h5.5
		C14.776,9,15,8.776,15,8.5v-7C15,1.224,14.776,1,14.5,1z"/>
</g>
</svg>
