<?xml version="1.0" encoding="utf-8"?>
<!-- Generator: Adobe Illustrator 19.1.0, SVG Export Plug-In . SVG Version: 6.00 Build 0)  -->
<svg version="1.1" id="actions-document-edit-access"
	 xmlns="http://www.w3.org/2000/svg" xmlns:xlink="http://www.w3.org/1999/xlink" x="0px" y="0px" viewBox="0 0 16 16"
	 enable-background="new 0 0 16 16" xml:space="preserve">
<g class="icon-color">
	<path d="M5,13.3v-0.4l0.1-0.1C3.6,11.7,2.5,10,2.5,8C2.5,5,5,2.5,8,2.5c2,0,3.8,1.1,4.7,2.7C13,5.1,13.3,5,13.6,5
		c0.3,0,0.6,0.1,0.8,0.2C13.3,2.7,10.9,1,8,1C4.1,1,1,4.1,1,8c0,2.8,1.6,5.2,4,6.3V13.3z"/>
	<path d="M14.2,10.5L8.8,16H6v-2.8l5.5-5.5L14.2,10.5z M9,14.6L7.4,13l-0.6,0.6v0.7h0.8v0.8h0.7L9,14.6z M11.7,8.9
		c0,0-0.1,0-0.1,0.1L8,12.5c0,0-0.1,0.1-0.1,0.1c0,0.1,0.1,0.1,0.1,0.1c0,0,0.1,0,0.1-0.1l3.6-3.6c0,0,0.1-0.1,0.1-0.1
		C11.9,8.9,11.8,8.9,11.7,8.9z M15.8,9l-1.1,1.1l-2.8-2.8L13,6.3C13.2,6.1,13.4,6,13.6,6s0.4,0.1,0.6,0.3l1.6,1.5
		C15.9,7.9,16,8.2,16,8.4C16,8.6,15.9,8.8,15.8,9z"/>
	<path d="M9.2,8.9C9.2,9,9,9.2,8.9,9.2H6C5.8,9.2,5.7,9,5.7,8.9V8.3C5.7,8.1,5.8,8,6,8h2V4.8c0-0.2,0.1-0.3,0.3-0.3h0.6
		c0.2,0,0.3,0.1,0.3,0.3L9.2,8.9L9.2,8.9z"/>
</g>
</svg>
