<?xml version="1.0" encoding="UTF-8" standalone="no"?>
<svg width="16px" height="16px" viewBox="0 0 16 16" version="1.1" xmlns="http://www.w3.org/2000/svg" xmlns:xlink="http://www.w3.org/1999/xlink" xmlns:sketch="http://www.bohemiancoding.com/sketch/ns">
    <!-- Generator: Sketch 3.3.3 (12072) - http://www.bohemiancoding.com/sketch -->
    <title>actions-document-paste-v1</title>
    <desc>Created with Sketch.</desc>
    <defs></defs>
    <g class="icon-color">
        <path d="M6.58535285,2 L3.50964952,2 C3.22765279,2 3,2.22105539 3,2.49374104 L3,14.506259 C3,14.7743607 3.22817786,15 3.50964952,15 L10.4968866,15 L8.50342274,15 C7.85094836,15 7.29529285,14.5796469 7.08740199,14 L4,14 L4,3 L5,3 L5,3.49531555 C5,3.78596497 5.21983051,4 5.49100518,4 L10.5089948,4 C10.7721195,4 11,3.77404508 11,3.49531555 L11,3 L12,3 L12,6 L13,6 L13,2.49374104 C13,2.22563934 12.7718221,2 12.4903505,2 L9.41464715,2 C9.20872894,1.41740381 8.65310941,1 8,1 C7.34689059,1 6.79127106,1.41740381 6.58535285,2 L6.58535285,2 Z M8,3.25 C8.41421356,3.25 8.75,2.91421356 8.75,2.5 C8.75,2.08578644 8.41421356,1.75 8,1.75 C7.58578644,1.75 7.25,2.08578644 7.25,2.5 C7.25,2.91421356 7.58578644,3.25 8,3.25 Z M8,7.50342274 L8,13.4965773 C8,13.7670975 8.22539004,14 8.50342274,14 L14.4965773,14 C14.7670975,14 15,13.77461 15,13.4965773 L15,7.50342274 C15,7.23290253 14.77461,7 14.4965773,7 L8.50342274,7 C8.23290253,7 8,7.22539004 8,7.50342274 Z M9,8 L14,8 L14,13 L9,13 L9,8 Z M10,9 L13,9 L13,10 L10,10 L10,9 Z M10,11 L13,11 L13,12 L10,12 L10,11 Z"></path>
    </g>
</svg>