<?xml version="1.0" encoding="UTF-8" standalone="no"?>
<svg width="16px" height="16px" viewBox="0 0 16 16" version="1.1" xmlns="http://www.w3.org/2000/svg" xmlns:xlink="http://www.w3.org/1999/xlink" xmlns:sketch="http://www.bohemiancoding.com/sketch/ns">
    <!-- Generator: Sketch 3.3.3 (12072) - http://www.bohemiancoding.com/sketch -->
    <title>actions-view-paging-prev</title>
    <desc>Created with Sketch.</desc>
    <defs></defs>
    <g id="Page-1" stroke="none" stroke-width="1" fill="none" fill-rule="evenodd" sketch:type="MSPage">
        <g id="Artboard-1" sketch:type="MSArtboardGroup">
            <g id="actions-view-paging-prev" sketch:type="MSLayerGroup" transform="translate(1.000000, 1.000000)">
                <path d="M0,7 C0,10.9 3.1,14 7,14 C10.9,14 14,10.9 14,7 C14,3.1 10.9,0 7,0 C3.1,0 0,3.1 0,7 L0,7 Z" id="circle" fill="#000000" sketch:type="MSShapeGroup"></path>
                <path d="M9.47387832,4.12430699 C9.71887543,3.87896288 10.0557152,4.01680403 10.0557152,4.36263429 L10.0557152,9.63679561 C10.0557152,9.98528285 9.71860203,10.1200758 9.47401415,9.87553269 L6.94128593,7.34326783 C6.75285486,7.15487123 6.75299967,6.84903921 6.9411501,6.66062231 L9.47387832,4.12430699 L9.47387832,4.12430699 Z M5.47387832,4.12430699 C5.71887543,3.87896288 6.0557152,4.01680403 6.0557152,4.36263429 L6.0557152,9.63679561 C6.0557152,9.98528285 5.71860203,10.1200758 5.47401415,9.87553269 L2.94128593,7.34326783 C2.75285486,7.15487123 2.75299967,6.84903921 2.9411501,6.66062231 L5.47387832,4.12430699 L5.47387832,4.12430699 Z" id="Shape" fill="#FFFFFF" sketch:type="MSShapeGroup"></path>
            </g>
        </g>
    </g>
</svg>