<?xml version="1.0" encoding="utf-8"?>
<!-- Generator: Adobe Illustrator 19.1.0, SVG Export Plug-In . SVG Version: 6.00 Build 0)  -->
<svg version="1.1" id="Ebene_1" xmlns="http://www.w3.org/2000/svg" xmlns:xlink="http://www.w3.org/1999/xlink" x="0px" y="0px"
	 viewBox="0 0 16 16" style="enable-background:new 0 0 16 16;" xml:space="preserve">
<path d="M15,10v4h-3.2L11,14.4V14H8v-4 M7,9.5v5C7,14.776,7.224,15,7.5,15H10v1l1.9-0.9C12,15,12,15,12.1,15h3.4
	c0.276,0,0.5-0.224,0.5-0.5v-5C16,9.224,15.776,9,15.5,9h-8C7.224,9,7,9.224,7,9.5z"/>
<path d="M12.249,4.025C11.441,2.808,10.062,2,8.5,2H5.723C5.376,1.405,4.738,1,4,1C2.895,1,2,1.895,2,3c0,0.738,0.405,1.376,1,1.723
	v6.555C2.405,11.624,2,12.262,2,13c0,1.105,0.895,2,2,2s2-0.895,2-2c0-0.738-0.405-1.376-1-1.723V4.723C5.3,4.548,5.548,4.3,5.723,4
	H8.5c0.745,0,1.407,0.334,1.866,0.853c0,0,0,0,0,0C10.137,5.177,10,5.572,10,6c0,1.105,0.895,2,2,2s2-0.895,2-2
	C14,4.981,13.234,4.149,12.249,4.025z M4,14c-0.551,0-1-0.449-1-1s0.449-1,1-1s1,0.449,1,1S4.551,14,4,14z M4,4C3.449,4,3,3.551,3,3
	s0.449-1,1-1s1,0.449,1,1S4.551,4,4,4z M12,7c-0.551,0-1-0.449-1-1s0.449-1,1-1s1,0.449,1,1S12.551,7,12,7z"/>
</svg>
