<?xml version="1.0" encoding="utf-8"?>
<!-- Generator: Adobe Illustrator 19.1.0, SVG Export Plug-In . SVG Version: 6.00 Build 0)  -->
<svg version="1.1" id="actions-document-edit-access"
	 xmlns="http://www.w3.org/2000/svg" xmlns:xlink="http://www.w3.org/1999/xlink" x="0px" y="0px" viewBox="0 0 16 16"
	 enable-background="new 0 0 16 16" xml:space="preserve">
<path d="M5,13.25v-0.41l0.14-0.14C3.56,11.72,2.5,9.99,2.5,8c0-3.03,2.47-5.5,5.5-5.5c2.02,0,3.78,1.1,4.74,2.73
	C13,5.08,13.3,5,13.6,5c0.28,0,0.56,0.07,0.81,0.2C13.33,2.73,10.87,1,8,1C4.14,1,1,4.14,1,8c0,2.79,1.64,5.19,4,6.32V13.25z"/>
<path d="M14.24,10.51L8.75,16H6v-2.75l5.49-5.49L14.24,10.51z M9,14.55L7.45,13l-0.6,0.6v0.71h0.84v0.84H8.4L9,14.55z M11.7,8.88
	c-0.04,0-0.08,0.01-0.11,0.05l-3.58,3.58c-0.03,0.03-0.05,0.07-0.05,0.11c0,0.09,0.06,0.14,0.15,0.14c0.04,0,0.08-0.01,0.11-0.05
	l3.58-3.58c0.03-0.03,0.05-0.07,0.05-0.11C11.85,8.94,11.79,8.88,11.7,8.88z M15.76,8.99l-1.1,1.1l-2.75-2.75l1.1-1.09
	C13.16,6.09,13.38,6,13.6,6s0.44,0.09,0.6,0.25l1.55,1.54C15.91,7.95,16,8.17,16,8.4C16,8.62,15.91,8.84,15.76,8.99z"/>
<path d="M9.17,8.88c0,0.16-0.13,0.29-0.29,0.29H5.96c-0.16,0-0.29-0.13-0.29-0.29V8.29C5.67,8.13,5.79,8,5.96,8H8V4.79
	C8,4.63,8.13,4.5,8.29,4.5h0.58c0.16,0,0.29,0.13,0.29,0.29V8.88z"/>
</svg>
