<?xml version="1.0" encoding="utf-8"?>
<!-- Generator: Adobe Illustrator 19.1.0, SVG Export Plug-In . SVG Version: 6.00 Build 0)  -->
<svg version="1.1" id="Ebene_1" xmlns="http://www.w3.org/2000/svg" xmlns:xlink="http://www.w3.org/1999/xlink" x="0px" y="0px"
	 viewBox="0 0 16 16" style="enable-background:new 0 0 16 16;" xml:space="preserve">
<path d="M15,8v6h-3.236L11,14.382V14H8V8 M7,7.5v7C7,14.776,7.224,15,7.5,15H10v1l1.894-0.947C11.964,15.018,12.04,15,12.118,15
	H15.5c0.276,0,0.5-0.224,0.5-0.5v-7C16,7.224,15.776,7,15.5,7h-8C7.224,7,7,7.224,7,7.5z"/>
<path d="M14.4,4L12,1.6C11.7,1.2,11.2,1,10.7,1H1.5C1.2,1,1,1.2,1,1.5v13C1,14.8,1.2,15,1.5,15H6v-1H5v-4h1V9H4.5C4.2,9,4,9.2,4,9.5
	V14H2V2h2v3.5C4,5.8,4.2,6,4.5,6h5C9.8,6,10,5.8,10,5.5V2h0.8c0.3,0,0.5,0.1,0.7,0.3l1.9,2C13.8,4.7,14,5.2,14,5.7V6h1V5.4
	C15,4.9,14.8,4.4,14.4,4z M9,4.8C9,4.9,8.9,5,8.8,5H7.3C7.1,5,7,4.9,7,4.8V2.3C7,2.1,7.1,2,7.3,2h1.5C8.9,2,9,2.1,9,2.3V4.8z"/>
<g>
	<path d="M13,12.675c-0.208,0.103-0.405,0.183-0.591,0.24C12.222,12.971,12.024,13,11.815,13c-0.267,0-0.512-0.041-0.735-0.122
		c-0.223-0.08-0.414-0.203-0.573-0.368c-0.161-0.164-0.286-0.372-0.374-0.623C10.044,11.636,10,11.342,10,11.007
		c0-0.626,0.166-1.116,0.498-1.473C10.83,9.178,11.269,9,11.815,9c0.212,0,0.419,0.031,0.624,0.092
		C12.642,9.154,12.83,9.229,13,9.318v0.716h-0.033c-0.19-0.153-0.385-0.271-0.588-0.353c-0.201-0.082-0.398-0.123-0.591-0.123
		c-0.353,0-0.632,0.123-0.836,0.368c-0.205,0.247-0.307,0.606-0.307,1.081c0,0.461,0.099,0.816,0.3,1.063
		c0.199,0.249,0.48,0.372,0.842,0.372c0.126,0,0.254-0.017,0.384-0.051c0.13-0.034,0.247-0.079,0.351-0.134
		c0.091-0.048,0.175-0.098,0.255-0.153c0.079-0.053,0.142-0.099,0.189-0.138H13V12.675z"/>
</g>
</svg>
