<?xml version="1.0" encoding="UTF-8" standalone="no"?>
<!-- Generator: Adobe Illustrator 19.1.0, SVG Export Plug-In . SVG Version: 6.00 Build 0)  -->

<svg
   xmlns:dc="http://purl.org/dc/elements/1.1/"
   xmlns:cc="http://creativecommons.org/ns#"
   xmlns:rdf="http://www.w3.org/1999/02/22-rdf-syntax-ns#"
   xmlns:svg="http://www.w3.org/2000/svg"
   xmlns="http://www.w3.org/2000/svg"
   xmlns:sodipodi="http://sodipodi.sourceforge.net/DTD/sodipodi-0.dtd"
   xmlns:inkscape="http://www.inkscape.org/namespaces/inkscape"
   version="1.1"
   id="Ebene_1"
   x="0px"
   y="0px"
   viewBox="0 0 16 16"
   enable-background="new 0 0 16 16"
   xml:space="preserve"
   inkscape:version="0.91 r13725"
   sodipodi:docname="actions-edit-rename.svg"><metadata
     id="metadata13"><rdf:RDF><cc:Work
         rdf:about=""><dc:format>image/svg+xml</dc:format><dc:type
           rdf:resource="http://purl.org/dc/dcmitype/StillImage" /></cc:Work></rdf:RDF></metadata><defs
     id="defs11" /><sodipodi:namedview
     pagecolor="#ffffff"
     bordercolor="#666666"
     borderopacity="1"
     objecttolerance="10"
     gridtolerance="10"
     guidetolerance="10"
     inkscape:pageopacity="0"
     inkscape:pageshadow="2"
     inkscape:window-width="2048"
     inkscape:window-height="1051"
     id="namedview9"
     showgrid="false"
     inkscape:zoom="43.905512"
     inkscape:cx="9.9347898"
     inkscape:cy="6.4738726"
     inkscape:window-x="2048"
     inkscape:window-y="23"
     inkscape:window-maximized="1"
     inkscape:current-layer="g4145" /><g
     id="g4145"
     transform="translate(0,1.5)"><path
       style="opacity:1;fill:#000000;fill-opacity:1;stroke:none;stroke-width:1;stroke-linecap:square;stroke-linejoin:miter;stroke-miterlimit:4;stroke-dasharray:none;stroke-dashoffset:0;stroke-opacity:1"
       d="m 3,4.5 5,0 0,4 -5,0 z"
       id="rect4149" /><path
       style="opacity:1;fill:#000000;fill-opacity:1;stroke:none;stroke-width:1;stroke-linecap:square;stroke-linejoin:miter;stroke-miterlimit:4;stroke-dasharray:none;stroke-dashoffset:0;stroke-opacity:1"
       d="m 9,0.5 1,0 0,12 -1,0 z"
       id="rect4159" /><path
       style="opacity:1;fill:#000000;fill-opacity:1;stroke:none;stroke-width:1;stroke-linecap:square;stroke-linejoin:miter;stroke-miterlimit:4;stroke-dasharray:none;stroke-dashoffset:0;stroke-opacity:1"
       d="m 8.4565569,0.5 2.0868861,0 C 10.796376,0.5 11,0.723 11,1 11,1.277 10.796376,1.5 10.543443,1.5 l -2.0868861,0 C 8.2036244,1.5 8,1.277 8,1 8,0.723 8.2036244,0.5 8.4565569,0.5 Z"
       id="rect4161" /><path
       style="color:#000000;font-style:normal;font-variant:normal;font-weight:normal;font-stretch:normal;font-size:medium;line-height:normal;font-family:sans-serif;text-indent:0;text-align:start;text-decoration:none;text-decoration-line:none;text-decoration-style:solid;text-decoration-color:#000000;letter-spacing:normal;word-spacing:normal;text-transform:none;direction:ltr;block-progression:tb;writing-mode:lr-tb;baseline-shift:baseline;text-anchor:start;white-space:normal;clip-rule:nonzero;display:inline;overflow:visible;visibility:visible;opacity:1;isolation:auto;mix-blend-mode:normal;color-interpolation:sRGB;color-interpolation-filters:linearRGB;solid-color:#000000;solid-opacity:1;fill:#000000;fill-opacity:1;fill-rule:nonzero;stroke:none;stroke-width:1;stroke-linecap:square;stroke-linejoin:round;stroke-miterlimit:4;stroke-dasharray:none;stroke-dashoffset:0;stroke-opacity:1;color-rendering:auto;image-rendering:auto;shape-rendering:auto;text-rendering:auto;enable-background:accumulate"
       d="M 1.6542969 4 C 1.3002531 4 1 4.3002529 1 4.6542969 L 1 11.345703 C 1 11.699747 1.3002531 12 1.6542969 12 L 8 12 L 8 11 L 2 11 L 2 5 L 8 5 L 8 4 L 1.6542969 4 z M 11 4 L 11 5 L 14 5 L 14 11 L 11 11 L 11 12 L 14.345703 12 C 14.699747 12 15 11.699747 15 11.345703 L 15 4.6542969 C 15 4.3002529 14.699747 4 14.345703 4 L 11 4 z "
       transform="translate(0,-1.5)"
       id="rect4165" /><path
       style="opacity:1;fill:#000000;fill-opacity:1;stroke:none;stroke-width:1;stroke-linecap:square;stroke-linejoin:miter;stroke-miterlimit:4;stroke-dasharray:none;stroke-dashoffset:0;stroke-opacity:1"
       d="m 8.4565569,11.5 2.0868861,0 C 10.796376,11.5 11,11.723 11,12 c 0,0.277 -0.203624,0.5 -0.456557,0.5 l -2.0868861,0 C 8.2036244,12.5 8,12.277 8,12 8,11.723 8.2036244,11.5 8.4565569,11.5 Z"
       id="rect4180" /></g></svg>