<?xml version="1.0" encoding="utf-8"?>
<!-- Generator: Adobe Illustrator 19.1.0, SVG Export Plug-In . SVG Version: 6.00 Build 0)  -->
<svg version="1.1" xmlns="http://www.w3.org/2000/svg" xmlns:xlink="http://www.w3.org/1999/xlink" x="0px" y="0px"
	 viewBox="0 0 16 16" enable-background="new 0 0 16 16" xml:space="preserve">
<g class="icon-color">
	<path d="M13,13h-2.5c-0.276,0-0.5-0.224-0.5-0.5v-3C10,9.224,10.224,9,10.5,9H13v1h-2v2h2V13z"/>
	<path d="M15,8v6h-3.236L11,14.382V14H8V8 M7,7.5v7C7,14.776,7.224,15,7.5,15H10v1l1.894-0.947C11.964,15.018,12.04,15,12.118,15
		H15.5c0.276,0,0.5-0.224,0.5-0.5v-7C16,7.224,15.776,7,15.5,7h-8C7.224,7,7,7.224,7,7.5z"/>
	<path d="M14.4,4L12,1.6C11.7,1.2,11.2,1,10.7,1H1.5C1.2,1,1,1.2,1,1.5v13C1,14.8,1.2,15,1.5,15H6v-1H5v-4h1V9H4.5
		C4.2,9,4,9.2,4,9.5V14H2V2h2v3.5C4,5.8,4.2,6,4.5,6h5C9.8,6,10,5.8,10,5.5V2h0.8c0.3,0,0.5,0.1,0.7,0.3l1.9,2
		C13.8,4.7,14,5.2,14,5.7V6h1V5.4C15,4.9,14.8,4.4,14.4,4z M9,4.8C9,4.9,8.9,5,8.8,5H7.3C7.1,5,7,4.9,7,4.8V2.3C7,2.1,7.1,2,7.3,2
		h1.5C8.9,2,9,2.1,9,2.3V4.8z"/>
</g>
</svg>
