<?xml version="1.0" encoding="utf-8"?>
<!-- Generator: Adobe Illustrator 19.1.0, SVG Export Plug-In . SVG Version: 6.00 Build 0)  -->
<svg version="1.1" id="Ebene_1" xmlns="http://www.w3.org/2000/svg" xmlns:xlink="http://www.w3.org/1999/xlink" x="0px" y="0px"
	 viewBox="0 0 16 16" style="enable-background:new 0 0 16 16;" xml:space="preserve">
<rect x="3" y="3" width="10" height="2"/>
<rect x="3" y="6" width="2" height="1"/>
<rect x="3" y="8" width="2" height="1"/>
<rect x="3" y="10" width="2" height="1"/>
<rect x="3" y="12" width="2" height="1"/>
<rect x="6" y="6" width="2" height="1"/>
<rect x="9" y="6" width="4" height="1"/>
<path d="M14,9v5h-3.236L10,14.382V14H7V9H14 M6,8.5v6C6,14.776,6.224,15,6.5,15H9v1l2-1h3.5c0.276,0,0.5-0.224,0.5-0.5v-6
	C15,8.224,14.776,8,14.5,8h-8C6.224,8,6,8.224,6,8.5z"/>
<path d="M5,14H2V2h12v5h1V1.5C15,1.224,14.776,1,14.5,1h-13C1.224,1,1,1.224,1,1.5v13C1,14.776,1.224,15,1.5,15H5V14z"/>
</svg>
