<?xml version="1.0" encoding="utf-8"?>
<!-- Generator: Adobe Illustrator 19.1.0, SVG Export Plug-In . SVG Version: 6.00 Build 0)  -->
<svg version="1.1" xmlns="http://www.w3.org/2000/svg" xmlns:xlink="http://www.w3.org/1999/xlink" x="0px" y="0px"
	 viewBox="0 0 16 16" enable-background="new 0 0 16 16" xml:space="preserve">
<g class="icon-color">
	<path d="M7,15H1.5C1.2,15,1,14.8,1,14.5v-13C1,1.2,1.2,1,1.5,1h13C14.8,1,15,1.2,15,1.5V6l-1-1V2H2v12h5V15z M9,6H3v1h5L9,6z M13,5
		V3H3v2h4H13z M7,10H3v1h4V10z M7,12H3v1h4V12z M7,8H3v1h4V8z"/>
	<path d="M15,10V9.5C15,8.1,13.9,7,12.5,7S10,8.1,10,9.5V10H9v6h7v-6H15z M13,13.9V15h-1v-1.1c-0.6-0.2-1-0.8-1-1.4
		c0-0.8,0.7-1.5,1.5-1.5s1.5,0.7,1.5,1.5C14,13.2,13.6,13.7,13,13.9z M11,10V9.5C11,8.7,11.7,8,12.5,8S14,8.7,14,9.5V10H11z"/>
</g>
</svg>
