<?xml version="1.0" encoding="utf-8"?>
<!-- Generator: Adobe Illustrator 19.1.0, SVG Export Plug-In . SVG Version: 6.00 Build 0)  -->
<svg version="1.1" xmlns="http://www.w3.org/2000/svg" xmlns:xlink="http://www.w3.org/1999/xlink" x="0px" y="0px"
	 viewBox="0 0 16 16" style="enable-background:new 0 0 16 16;" xml:space="preserve">
<g id="actions-document-export-t3d">
	<path d="M9.1,12H11V9.3C11,9.1,11.1,9,11.3,9h1.5C12.9,9,13,9.1,13,9.3V12h2c0.2,0,0.3,0.3,0.2,0.4l-3,3.4c-0.1,0.1-0.3,0.1-0.4,0
		l-2.9-3.4C8.7,12.3,8.8,12,9.1,12z"/>
	<path d="M13.7,3.2l-1.9-1.9C11.6,1.1,11.4,1,11.1,1H2.5C2.2,1,2,1.2,2,1.5v13C2,14.8,2.2,15,2.5,15h7.3l-0.9-1H3v-3
		c0.5,0.6,1,1,1.4,1c0.7,0,1.7-1.1,2.7-2.5c-0.1,0-0.2,0-0.3,0c-1,0-2.5-3.5-2.5-4.7c0-0.4,0.1-0.6,0.3-0.7C4,4.2,3.5,4.3,3,4.4V2h7
		v2.5C10,4.8,10.2,5,10.5,5H13v3.1c0.6,0.1,1,0.6,1,1.2V3.9C14,3.6,13.9,3.4,13.7,3.2z M11,4V2l2,2H11z"/>
	<path id="path34" d="M6.4,4C7.7,4,9,4.2,9,4.9c0,1.5-0.9,3.3-1.4,3.3c-0.9,0-1.9-2.4-1.9-3.5C5.6,4.1,5.9,4,6.4,4"/>
</g>
</svg>
