<?xml version="1.0" encoding="utf-8"?>
<!-- Generator: Adobe Illustrator 19.1.0, SVG Export Plug-In . SVG Version: 6.00 Build 0)  -->
<svg version="1.1" id="Ebene_1" xmlns="http://www.w3.org/2000/svg" xmlns:xlink="http://www.w3.org/1999/xlink" x="0px" y="0px"
	 viewBox="0 0 16 16" style="enable-background:new 0 0 16 16;" xml:space="preserve">
<style type="text/css">
	.st0{fill:#FFFFFF;}
</style>
<path d="M8,1C4.14,1,1,4.14,1,8s3.14,7,7,7s7-3.14,7-7S11.86,1,8,1z"/>
<path class="st0" d="M11.5,9H9v2.5C9,11.78,8.78,12,8.5,12h-1C7.22,12,7,11.78,7,11.5V9H4.5C4.22,9,4,8.78,4,8.5v-1
	C4,7.22,4.22,7,4.5,7H7V4.5C7,4.22,7.22,4,7.5,4h1C8.78,4,9,4.22,9,4.5V7h2.5C11.78,7,12,7.22,12,7.5v1C12,8.78,11.78,9,11.5,9z"/>
</svg>
