<?xml version="1.0" encoding="UTF-8" standalone="no"?>
<svg width="16px" height="16px" viewBox="0 0 16 16" version="1.1" xmlns="http://www.w3.org/2000/svg" xmlns:xlink="http://www.w3.org/1999/xlink" xmlns:sketch="http://www.bohemiancoding.com/sketch/ns">
    <!-- Generator: Sketch 3.3.3 (12072) - http://www.bohemiancoding.com/sketch -->
    <title>actions-edit-copy</title>
    <desc>Created with Sketch.</desc>
    <defs></defs>
    <g class="icon-color" fill-rule="evenodd">
        <path d="M6.58535285,2 L3.50964952,2 C3.22765279,2 3,2.22105539 3,2.49374104 L3,14.506259 C3,14.7743607 3.22817786,15 3.50964952,15 L12.4903505,15 C12.7723472,15 13,14.7789446 13,14.506259 L13,2.49374104 C13,2.22563934 12.7718221,2 12.4903505,2 L9.41464715,2 C9.20872894,1.41740381 8.65310941,1 8,1 C7.34689059,1 6.79127106,1.41740381 6.58535285,2 L6.58535285,2 L6.58535285,2 Z M5,3 L4,3 L4,14 L12,14 L12,3 L11,3 L11,3.49531555 C11,3.77404508 10.7721195,4 10.5089948,4 L5.49100518,4 C5.21983051,4 5,3.78596497 5,3.49531555 L5,3 L5,3 Z M8,3.25 C8.41421356,3.25 8.75,2.91421356 8.75,2.5 C8.75,2.08578644 8.41421356,1.75 8,1.75 C7.58578644,1.75 7.25,2.08578644 7.25,2.5 C7.25,2.91421356 7.58578644,3.25 8,3.25 L8,3.25 Z"></path>
    </g>
</svg>