<?xml version="1.0" encoding="utf-8"?>
<!-- Generator: Adobe Illustrator 19.1.0, SVG Export Plug-In . SVG Version: 6.00 Build 0)  -->
<svg version="1.1" id="actions-document-duplicates-select"
	 xmlns="http://www.w3.org/2000/svg" xmlns:xlink="http://www.w3.org/1999/xlink" x="0px" y="0px" viewBox="0 0 16 16"
	 style="enable-background:new 0 0 16 16;" xml:space="preserve">
<path d="M14.5,4H12V1.5C12,1.2,11.8,1,11.5,1h-10C1.2,1,1,1.2,1,1.5v10C1,11.8,1.2,12,1.5,12H4v2.5C4,14.8,4.2,15,4.5,15h10
	c0.3,0,0.5-0.2,0.5-0.5v-10C15,4.2,14.8,4,14.5,4z M2,11V2h9v2H4.5C4.2,4,4,4.2,4,4.5V11H2z M14,14H5v-2v-1V5h6h1h2V14z"/>
<path d="M10.9,11.9H8v-0.7c0.2-0.2,0.4-0.4,0.6-0.6c0.2-0.2,0.4-0.4,0.6-0.6c0.4-0.4,0.6-0.7,0.8-1c0.1-0.2,0.2-0.5,0.2-0.8
	c0-0.3-0.1-0.5-0.2-0.6C9.8,7.7,9.5,7.6,9.4,7.6c-0.2,0-0.4,0-0.6,0.1S8.4,7.9,8.2,8l0,0V7.3c0.1-0.1,0.3-0.1,0.6-0.2S9.3,7,9.5,7
	c0.5,0,0.8,0.1,1.1,0.4c0.3,0.2,0.4,0.6,0.4,1c0,0.2,0,0.4-0.1,0.5c0,0.2-0.1,0.3-0.2,0.5c-0.1,0.1-0.2,0.3-0.3,0.4
	c-0.1,0.1-0.2,0.3-0.4,0.4c-0.2,0.2-0.4,0.5-0.7,0.7C9,11,8.9,11.2,8.7,11.4H11L10.9,11.9L10.9,11.9z"/>
</svg>
