<?xml version="1.0" encoding="utf-8"?>
<!-- Generator: Adobe Illustrator 19.1.0, SVG Export Plug-In . SVG Version: 6.00 Build 0)  -->
<svg version="1.1" id="actions-document-duplicates-select"
	 xmlns="http://www.w3.org/2000/svg" xmlns:xlink="http://www.w3.org/1999/xlink" x="0px" y="0px" viewBox="0 0 16 16"
	 enable-background="new 0 0 16 16" xml:space="preserve">
<path d="M15.5,4H12V0.5C12,0.22,11.78,0,11.5,0h-11C0.22,0,0,0.22,0,0.5v11C0,11.77,0.22,12,0.5,12H4v3.5C4,15.77,4.22,16,4.5,16h11
	c0.28,0,0.5-0.23,0.5-0.5v-11C16,4.22,15.78,4,15.5,4z M1,11V1h10v3H4.5C4.22,4,4,4.22,4,4.5V11H1z M15,15H5v-3v-1V5h6h1h3V15z"/>
<path d="M12,13H8v-0.82c0.28-0.24,0.56-0.47,0.84-0.71c0.28-0.24,0.54-0.47,0.78-0.71c0.51-0.49,0.86-0.88,1.04-1.17
	c0.19-0.29,0.28-0.6,0.28-0.93c0-0.31-0.1-0.54-0.3-0.72c-0.2-0.17-0.49-0.26-0.85-0.26c-0.24,0-0.5,0.04-0.78,0.13
	C8.73,7.89,8.45,8.02,8.19,8.2H8.15V7.37C8.33,7.28,8.59,7.19,8.9,7.11S9.52,7,9.81,7c0.61,0,1.08,0.15,1.42,0.44
	c0.34,0.29,0.52,0.68,0.52,1.18c0,0.22-0.03,0.43-0.09,0.63c-0.06,0.19-0.14,0.38-0.25,0.55c-0.1,0.16-0.22,0.32-0.36,0.48
	c-0.14,0.16-0.31,0.33-0.51,0.53c-0.28,0.28-0.58,0.54-0.88,0.8c-0.3,0.26-0.58,0.5-0.85,0.72H12V13z"/>
</svg>
