<?xml version="1.0" encoding="utf-8"?>
<!-- Generator: Adobe Illustrator 19.1.0, SVG Export Plug-In . SVG Version: 6.00 Build 0)  -->
<svg version="1.1" id="Ebene_1" xmlns="http://www.w3.org/2000/svg" xmlns:xlink="http://www.w3.org/1999/xlink" x="0px" y="0px"
	 viewBox="0 0 16 16" style="enable-background:new 0 0 16 16;" xml:space="preserve">
<rect x="3" y="3" width="10" height="2"/>
<rect x="3" y="6" width="2" height="1"/>
<rect x="3" y="8" width="2" height="1"/>
<rect x="3" y="10" width="2" height="1"/>
<rect x="3" y="12" width="2" height="1"/>
<rect x="6" y="6" width="2" height="1"/>
<rect x="9" y="6" width="4" height="1"/>
<path d="M15,9v5h-4.2L10,14.4V14H7V9 M6,8.5v6C6,14.8,6.2,15,6.5,15H9v1l1.9-0.9C11,15,11,15,11.1,15h4.4c0.3,0,0.5-0.2,0.5-0.5v-6
	C16,8.2,15.8,8,15.5,8h-9C6.2,8,6,8.2,6,8.5z"/>
<path d="M5,14H2V2h12v5h1V1.5C15,1.2,14.8,1,14.5,1h-13C1.2,1,1,1.2,1,1.5v13C1,14.8,1.2,15,1.5,15H5V14z"/>
</svg>
