<?xml version="1.0" encoding="utf-8"?>
<!-- Generator: Adobe Illustrator 19.1.0, SVG Export Plug-In . SVG Version: 6.00 Build 0)  -->
<svg version="1.1" id="Ebene_1" xmlns="http://www.w3.org/2000/svg" xmlns:xlink="http://www.w3.org/1999/xlink" x="0px" y="0px"
	 viewBox="0 0 16 16" style="enable-background:new 0 0 16 16;" xml:space="preserve">
<g id="actions-page-move">
	<path d="M8.25,14H3V2h7v2.5C10,4.776,10.224,5,10.5,5H13v2.25l1,1V3.914c0-0.265-0.105-0.52-0.293-0.707l-1.914-1.914
		C11.605,1.105,11.351,1,11.086,1H2.5C2.224,1,2,1.224,2,1.5v13C2,14.776,2.224,15,2.5,15h6.75L8.25,14z M11,2l2,2h-2V2z"/>
	<path d="M15.9,11.75l-1.33-1.4c-0.06-0.07-0.15-0.1-0.23-0.1c-0.18,0-0.33,0.16-0.33,0.35V11h-1v-1h0.4c0.19,0,0.35-0.15,0.35-0.33
		c0-0.09-0.04-0.17-0.1-0.23l-1.4-1.33C12.18,8.04,12.09,8,12,8s-0.18,0.04-0.25,0.1l-1.4,1.33c-0.07,0.06-0.1,0.15-0.1,0.23
		c0,0.18,0.16,0.33,0.35,0.33H11v1h-1v-0.4c0-0.19-0.15-0.35-0.33-0.35c-0.09,0-0.17,0.04-0.23,0.1l-1.33,1.4
		C8.04,11.82,8,11.91,8,12s0.04,0.18,0.1,0.25l1.33,1.4c0.06,0.07,0.15,0.1,0.23,0.1c0.18,0,0.33-0.16,0.33-0.35V13h1v1h-0.4
		c-0.19,0-0.35,0.15-0.35,0.33c0,0.09,0.04,0.17,0.1,0.23l1.4,1.33C11.82,15.96,11.91,16,12,16s0.18-0.04,0.25-0.1l1.4-1.33
		c0.07-0.06,0.1-0.15,0.1-0.23c0-0.18-0.16-0.33-0.35-0.33H13v-1h1v0.4c0,0.19,0.15,0.35,0.33,0.35c0.09,0,0.17-0.04,0.23-0.1
		l1.33-1.4C15.96,12.18,16,12.09,16,12S15.96,11.82,15.9,11.75z"/>
</g>
</svg>
