<?xml version="1.0" encoding="utf-8"?>
<!-- Generator: Adobe Illustrator 19.1.0, SVG Export Plug-In . SVG Version: 6.00 Build 0)  -->
<svg version="1.1" id="Ebene_1" xmlns="http://www.w3.org/2000/svg" xmlns:xlink="http://www.w3.org/1999/xlink" x="0px" y="0px"
	 viewBox="0 0 16 16" style="enable-background:new 0 0 16 16;" xml:space="preserve">
<g class="icon-color">
	<path d="M14.5,9h-3.973l-0.874,1H14v3H2v-3h4.346L5.473,9H1.5C1.224,9,1,9.224,1,9.5v4C1,13.776,1.224,14,1.5,14h13
		c0.276,0,0.5-0.224,0.5-0.5v-4C15,9.224,14.776,9,14.5,9z"/>
	<rect x="10" y="11" width="1" height="1"/>
	<rect x="12" y="11" width="1" height="1"/>
	<path d="M11.27,6H4.73C4.515,6,4.4,6.253,4.542,6.414l3.27,3.743c0.104,0.119,0.273,0.119,0.377,0l3.27-3.743
		C11.6,6.253,11.485,6,11.27,6z"/>
	<rect x="7" y="2" width="2" height="4"/>
</g>
</svg>
