<?xml version="1.0" encoding="UTF-8" standalone="no"?>
<svg width="16px" height="16px" viewBox="0 0 16 16" version="1.1" xmlns="http://www.w3.org/2000/svg" xmlns:xlink="http://www.w3.org/1999/xlink" xmlns:sketch="http://www.bohemiancoding.com/sketch/ns">
    <!-- Generator: Sketch 3.3.3 (12072) - http://www.bohemiancoding.com/sketch -->
    <title>actions-document-paste-after-v1</title>
    <desc>Created with Sketch.</desc>
    <defs></defs>
    <g class="icon-color" fill-rule="evenodd">
        <path d="M15,8 L15,9 L4,9 L4,8 L15,8 L15,8 Z M15,5 L15,6 L4,6 L4,5 L15,5 L15,5 Z M15,2 L15,3 L4,3 L4,2 L15,2 Z M8,11 L8,14 L1,14 L1,11 L8,11 Z M2,12 L7,12 L7,13 L2,13 L2,12 Z M8.99107786,12.8651122 L8.9910779,11.9981084 L11,11.9981084 L11,11 C11.0522465,10.775293 11.2552742,10.6624998 11.4122448,10.7602539 L14.4933789,12.208396 C14.64095,12.3005105 14.64095,12.5148175 14.4933789,12.606932 L11.4122448,14.1966552 C11.2552742,14.2944093 11.0522465,14.1816161 11,13.9973873 L11,12.8651123 L8.99107786,12.8651122 Z"></path>
    </g>
</svg>