<?xml version="1.0" encoding="UTF-8" standalone="no"?>
<svg width="16px" height="16px" viewBox="0 0 16 16" version="1.1" xmlns="http://www.w3.org/2000/svg" xmlns:xlink="http://www.w3.org/1999/xlink" xmlns:sketch="http://www.bohemiancoding.com/sketch/ns">
    <!-- Generator: Sketch 3.3.3 (12072) - http://www.bohemiancoding.com/sketch -->
    <title>Artboard 1</title>
    <desc>Created with Sketch.</desc>
    <defs></defs>
    <g id="Page-1" stroke="none" stroke-width="1" fill="none" fill-rule="evenodd" sketch:type="MSPage">
        <g id="Artboard-1" sketch:type="MSArtboardGroup">
            <g id="actions-view-paging-next" sketch:type="MSLayerGroup" transform="translate(1.000000, 1.000000)">
                <path d="M0,7 C0,10.9 3.1,14 7,14 C10.9,14 14,10.9 14,7 C14,3.1 10.9,0 7,0 C3.1,0 0,3.1 0,7 L0,7 Z" id="circle" fill="#000000" sketch:type="MSShapeGroup"></path>
                <path d="M8.58183688,4.12430699 C8.33683976,3.87896288 8,4.01680403 8,4.36263429 L8,9.63679561 C8,9.98528285 8.33711317,10.1200758 8.58170105,9.87553269 L11.1144293,7.34326783 C11.3028603,7.15487123 11.3027155,6.84903921 11.1145651,6.66062231 L8.58183688,4.12430699 L8.58183688,4.12430699 Z M4.58183688,4.12430699 C4.33683976,3.87896288 4,4.01680403 4,4.36263429 L4,9.63679561 C4,9.98528285 4.33711317,10.1200758 4.58170105,9.87553269 L7.11442927,7.34326783 C7.30286034,7.15487123 7.30271553,6.84903921 7.1145651,6.66062231 L4.58183688,4.12430699 L4.58183688,4.12430699 Z" id="Shape" fill="#FFFFFF" sketch:type="MSShapeGroup"></path>
            </g>
        </g>
    </g>
</svg>