<?xml version="1.0" encoding="utf-8"?>
<!-- Generator: Adobe Illustrator 19.1.0, SVG Export Plug-In . SVG Version: 6.00 Build 0)  -->
<svg version="1.1" xmlns="http://www.w3.org/2000/svg" xmlns:xlink="http://www.w3.org/1999/xlink" x="0px" y="0px"
	 viewBox="0 0 16 16" style="enable-background:new 0 0 16 16;" xml:space="preserve">
<g class="icon-color">
	<path d="M14.5,2h-13C1.2,2,1,2.2,1,2.5v11C1,13.8,1.2,14,1.5,14h13c0.3,0,0.5-0.2,0.5-0.5v-11C15,2.2,14.8,2,14.5,2z M14,13H2V3h12
		V13z"/>
	<rect x="3" y="4" width="2" height="2"/>
	<rect x="6" y="4" width="7" height="2"/>
	<rect x="3" y="7" width="2" height="2"/>
	<rect x="6" y="7" width="7" height="2"/>
	<rect x="3" y="10" width="2" height="2"/>
	<rect x="6" y="10" width="7" height="2"/>
</g>
</svg>
