<?xml version="1.0" encoding="UTF-8" standalone="no"?>
<svg width="16px" height="16px" viewBox="0 0 16 16" version="1.1" xmlns="http://www.w3.org/2000/svg" xmlns:xlink="http://www.w3.org/1999/xlink" xmlns:sketch="http://www.bohemiancoding.com/sketch/ns">
    <!-- Generator: Sketch 3.3.3 (12072) - http://www.bohemiancoding.com/sketch -->
    <title>actions-unmarkstate</title>
    <desc>Created with Sketch.</desc>
    <defs></defs>
    <g class="icon-color" fill-rule="evenodd">
        <path d="M1,1.49826741 C1,1.22308192 1.21990657,1 1.49826741,1 L14.5017326,1 C14.7769181,1 15,1.21990657 15,1.49826741 L15,14.5017326 C15,14.7769181 14.7800934,15 14.5017326,15 L1.49826741,15 C1.22308192,15 1,14.7800934 1,14.5017326 L1,1.49826741 Z M2,2 L14,2 L14,14 L2,14 L2,2 Z M6.63511869,11.3252102 C6.82948216,11.5195737 7.15024287,11.5139384 7.34090645,11.3232748 L12.2900376,6.37414371 C12.4854699,6.17871136 12.4925535,5.86893652 12.2870333,5.66341635 L11.5865514,4.96293438 C11.3894598,4.76584284 11.0685497,4.76720441 10.8824925,4.95326167 L7.33423797,8.50151617 C7.14248852,8.69326562 6.83448475,8.69614914 6.63675197,8.49841636 L5.21601744,7.07768183 C5.02255601,6.8842204 4.71437891,6.87873455 4.50885874,7.08425472 L3.80837677,7.78473669 C3.61128523,7.98182823 3.60342844,8.29351996 3.80343716,8.49352867 L6.63511869,11.3252102 Z"></path>
    </g>
</svg>