<?xml version="1.0" encoding="utf-8"?>
<!-- Generator: Adobe Illustrator 19.1.0, SVG Export Plug-In . SVG Version: 6.00 Build 0)  -->
<svg version="1.1" id="Ebene_1" xmlns="http://www.w3.org/2000/svg" xmlns:xlink="http://www.w3.org/1999/xlink" x="0px" y="0px"
	 viewBox="0 0 16 16" enable-background="new 0 0 16 16" xml:space="preserve">
<g class="icon-color">
	<path d="M7,14H2V2h12v5l1,1V1.5C15,1.224,14.776,1,14.5,1h-13C1.224,1,1,1.224,1,1.5v13C1,14.776,1.224,15,1.5,15H8L7,14z"/>
	<rect x="3" y="3" width="10" height="2"/>
	<polygon points="3,6 11,6 10,7 3,7 	"/>
	<polygon points="3,10 7,10 6,11 3,11 	"/>
	<rect x="3" y="12" width="3" height="1"/>
	<polygon points="3,8 9,8 8,9 3,9 	"/>
	<path d="M15.5,13H13v2.5c0,0.276-0.224,0.5-0.5,0.5h-1c-0.276,0-0.5-0.224-0.5-0.5V13H8.5C8.224,13,8,12.776,8,12.5v-1
		C8,11.224,8.224,11,8.5,11H11V8.5C11,8.224,11.224,8,11.5,8h1C12.776,8,13,8.224,13,8.5V11h2.5c0.276,0,0.5,0.224,0.5,0.5v1
		C16,12.776,15.776,13,15.5,13z"/>
</g>
</svg>
