<?xml version="1.0" encoding="utf-8"?>
<!-- Generator: Adobe Illustrator 19.1.0, SVG Export Plug-In . SVG Version: 6.00 Build 0)  -->
<svg version="1.1" id="actions-document-info" xmlns="http://www.w3.org/2000/svg" xmlns:xlink="http://www.w3.org/1999/xlink"
	 x="0px" y="0px" viewBox="0 0 16 16" enable-background="new 0 0 16 16" xml:space="preserve">
<path d="M8,1C4.14,1,1,4.14,1,8s3.14,7,7,7s7-3.14,7-7S11.86,1,8,1z M7,3.25C7,3.11,7.11,3,7.25,3h1.5C8.89,3,9,3.11,9,3.25v1.5
	C9,4.89,8.89,5,8.75,5h-1.5C7.11,5,7,4.89,7,4.75V3.25z M10.5,12.75c0,0.14-0.11,0.25-0.25,0.25h-1.5h-1.5h-1.5
	c-0.14,0-0.25-0.11-0.25-0.25v-1.5C5.5,11.11,5.61,11,5.75,11H7V8H6.25C6.11,8,6,7.89,6,7.75v-1.5C6,6.11,6.11,6,6.25,6h1h1.5
	C8.89,6,9,6.11,9,6.25v1.5V11h1.25c0.14,0,0.25,0.11,0.25,0.25V12.75z"/>
</svg>
