<?xml version="1.0" encoding="utf-8"?>
<!-- Generator: Adobe Illustrator 19.1.0, SVG Export Plug-In . SVG Version: 6.00 Build 0)  -->
<svg version="1.1" xmlns="http://www.w3.org/2000/svg" xmlns:xlink="http://www.w3.org/1999/xlink" x="0px" y="0px"
	 viewBox="0 0 16 16" style="enable-background:new 0 0 16 16;" xml:space="preserve">
<g class="icon-color">
	<path d="M6,14H3V2h7v2.5C10,4.8,10.2,5,10.5,5H13v1l1-1V3.9c0-0.3-0.1-0.5-0.3-0.7l-1.9-1.9C11.6,1.1,11.4,1,11.1,1H2.5
		C2.2,1,2,1.2,2,1.5v13C2,14.8,2.2,15,2.5,15H6V14z M11,2l2,2h-2V2z"/>
	<path d="M13,13.5V14h-0.5l-1,1h2c0.3,0,0.5-0.2,0.5-0.5v-2L13,13.5z"/>
	<path d="M14.2,7.2l1.6,1.6c0.1,0.1,0.1,0.3,0,0.4l-1.3,1.3l-2-2l1.3-1.3C13.9,7.1,14.1,7.1,14.2,7.2z M7.1,13.9L12,9l2,2l-4.9,4.9
		C9,16,9,16,8.9,16H7v-1.9C7,14,7,14,7.1,13.9z"/>
</g>
</svg>
