<?xml version="1.0" encoding="utf-8"?>
<!-- Generator: Adobe Illustrator 19.1.0, SVG Export Plug-In . SVG Version: 6.00 Build 0)  -->
<svg version="1.1" xmlns="http://www.w3.org/2000/svg" xmlns:xlink="http://www.w3.org/1999/xlink" x="0px" y="0px"
	 viewBox="0 0 16 16" style="enable-background:new 0 0 16 16;" xml:space="preserve">
<g id="actions-document-import-t3d">
	<path id="path34_1_" d="M6.396,4C7.698,4,9,4.207,9,4.933c0,1.472-0.945,3.254-1.428,3.254c-0.861,0-1.932-2.363-1.932-3.544
		C5.641,4.104,5.851,4,6.396,4"/>
	<path d="M14.946,13H13v2.75c0,0.138-0.111,0.25-0.249,0.25h-1.5C11.113,16,11,15.888,11,15.75V13H9.047
		c-0.215,0-0.33-0.253-0.188-0.415l2.953-3.37c0.1-0.114,0.277-0.114,0.376,0l2.945,3.37C15.275,12.747,15.16,13,14.946,13z"/>
	<path d="M10.008,14H3v-3.014C3.472,11.596,3.965,12,4.402,12c0.651,0,1.749-1.057,2.651-2.487C6.933,9.548,6.837,9.56,6.711,9.56
		c-1.029,0-2.541-3.55-2.541-4.731c0-0.435,0.105-0.58,0.252-0.705C3.961,4.178,3.466,4.273,3,4.401V2h7v2.5
		C10,4.776,10.224,5,10.5,5H13v3.615l1,1.144V3.914c0-0.265-0.105-0.52-0.293-0.707l-1.914-1.914C11.605,1.105,11.351,1,11.086,1
		H2.5C2.224,1,2,1.224,2,1.5v13C2,14.776,2.224,15,2.5,15H10L10.008,14z M11,2l2,2h-2V2z"/>
</g>
</svg>
