<?xml version="1.0" encoding="utf-8"?>
<!-- Generator: Adobe Illustrator 19.1.0, SVG Export Plug-In . SVG Version: 6.00 Build 0)  -->
<svg version="1.1" xmlns="http://www.w3.org/2000/svg" xmlns:xlink="http://www.w3.org/1999/xlink" x="0px" y="0px"
	 viewBox="0 0 16 16" enable-background="new 0 0 16 16" xml:space="preserve">
<g class="icon-color">
	<path d="M14.5,4H13V1.5C13,1.2,12.8,1,12.5,1h-11C1.2,1,1,1.2,1,1.5v10C1,11.8,1.2,12,1.5,12H4v2.5C4,14.8,4.2,15,4.5,15h10
		c0.3,0,0.5-0.2,0.5-0.5v-10C15,4.2,14.8,4,14.5,4z M2,11V2h10v2H4.5C4.2,4,4,4.2,4,4.5V11H2z M14,14H5V5h9V14z"/>
	<path d="M11,9.5c0,0.3-0.2,0.5-0.5,0.5H9v1h2v1H8.5C8.2,12,8,11.8,8,11.5v-2C8,9.2,8.2,9,8.5,9H10V8H8V7h2.5C10.8,7,11,7.2,11,7.5
		V9.5z"/>
</g>
</svg>
