<?xml version="1.0" encoding="utf-8"?>
<!-- Generator: Adobe Illustrator 19.1.0, SVG Export Plug-In . SVG Version: 6.00 Build 0)  -->
<svg version="1.1" id="Ebene_1" xmlns="http://www.w3.org/2000/svg" xmlns:xlink="http://www.w3.org/1999/xlink" x="0px" y="0px"
	 viewBox="0 0 16 16" style="enable-background:new 0 0 16 16;" xml:space="preserve">
<path d="M5,2c0.551,0,1,0.449,1,1S5.551,4,5,4S4,3.551,4,3S4.449,2,5,2 M5,1C3.895,1,3,1.895,3,3s0.895,2,2,2s2-0.895,2-2
	S6.105,1,5,1L5,1z"/>
<path d="M5,12c0.551,0,1,0.449,1,1s-0.449,1-1,1s-1-0.449-1-1S4.449,12,5,12 M5,11c-1.105,0-2,0.895-2,2s0.895,2,2,2s2-0.895,2-2
	S6.105,11,5,11L5,11z"/>
<path d="M11,8c0.551,0,1,0.449,1,1s-0.449,1-1,1s-1-0.449-1-1S10.449,8,11,8 M11,7C9.895,7,9,7.895,9,9s0.895,2,2,2s2-0.895,2-2
	S12.105,7,11,7L11,7z"/>
<rect x="4" y="4" width="2" height="8"/>
<path d="M6,5.5C6,6.879,7.122,8,8.5,8h1v2h-1C6.025,10,4,7.975,4,5.5H6z"/>
</svg>
