<?xml version="1.0" encoding="utf-8"?>
<!-- Generator: Adobe Illustrator 19.1.0, SVG Export Plug-In . SVG Version: 6.00 Build 0)  -->
<svg version="1.1" id="Ebene_1" xmlns="http://www.w3.org/2000/svg" xmlns:xlink="http://www.w3.org/1999/xlink" x="0px" y="0px"
	 viewBox="0 0 16 16" style="enable-background:new 0 0 16 16;" xml:space="preserve">
<g id="actions-edit-delete">
	<polygon points="7,5 6,5 6,13 7,13 	"/>
	<polygon points="10,5 9,5 9,13 10,13 	"/>
	<path d="M13,3h-2V2.25C11,1.56,10.44,1,9.75,1h-3.5C5.56,1,5,1.56,5,2.25V3H3v10.75C3,14.44,3.56,15,4.25,15h7.5
		c0.69,0,1.25-0.56,1.25-1.25V3z M6,2.25C6,2.112,6.112,2,6.25,2h3.5C9.888,2,10,2.112,10,2.25V3H6V2.25z M12,13.75
		c0,0.138-0.112,0.25-0.25,0.25h-7.5C4.112,14,4,13.888,4,13.75V4h8V13.75z"/>
	<path d="M13.5,4h-11C2.224,4,2,3.776,2,3.5l0,0C2,3.224,2.224,3,2.5,3h11C13.776,3,14,3.224,14,3.5l0,0C14,3.776,13.776,4,13.5,4z"
		/>
</g>
</svg>
