<?xml version="1.0" encoding="utf-8"?>
<!-- Generator: Adobe Illustrator 19.1.0, SVG Export Plug-In . SVG Version: 6.00 Build 0)  -->
<svg version="1.1" id="Ebene_1" xmlns="http://www.w3.org/2000/svg" xmlns:xlink="http://www.w3.org/1999/xlink" x="0px" y="0px"
	 viewBox="0 0 16 16" style="enable-background:new 0 0 16 16;" xml:space="preserve">
<style type="text/css">
	.st0{fill:#FFC857;}
	.st1{opacity:0.1;}
</style>
<path class="st0" d="M5.323,5H1C0.109,5-0.337,6.077,0.293,6.707l3.534,3.534l-1.755,4.388c-0.327,0.816,0.484,1.626,1.3,1.3
	L8,14.077l4.629,1.851c0.816,0.327,1.626-0.484,1.3-1.3l-1.755-4.388l3.534-3.534C16.337,6.077,15.891,5,15,5h-4.323L8.928,0.629
	c-0.335-0.838-1.522-0.838-1.857,0L5.323,5z"/>
<path class="st1" d="M8,1l2,5h5l-4,4l2,5l-5-2l-5,2l2-5L1,6h5L8,1 M5.323,5H1C0.109,5-0.337,6.077,0.293,6.707l3.534,3.534
	l-1.755,4.388c-0.327,0.816,0.484,1.626,1.3,1.3L8,14.077l4.629,1.851c0.816,0.327,1.626-0.484,1.3-1.3l-1.755-4.388l3.534-3.534
	C16.337,6.077,15.891,5,15,5h-4.323L8.928,0.629c-0.335-0.838-1.522-0.838-1.857,0L5.323,5z"/>
</svg>
