<?xml version="1.0" encoding="utf-8"?>
<!-- Generator: Adobe Illustrator 25.4.1, SVG Export Plug-In . SVG Version: 6.00 Build 0)  -->
<svg version="1.1" id="Ebene_1" xmlns="http://www.w3.org/2000/svg" xmlns:xlink="http://www.w3.org/1999/xlink" x="0px" y="0px"
	 viewBox="0 0 16 16" enable-background="new 0 0 16 16" xml:space="preserve">
<path fill="#FFC857" d="M15,10l-5,5H1.5C1.2,15,1,14.8,1,14.5v-13C1,1.2,1.2,1,1.5,1h13C14.8,1,15,1.2,15,1.5V10z"/>
<path fill="#E8A33D" d="M9,14H2V2h12v7h1V1.5C15,1.2,14.8,1,14.5,1h-13C1.2,1,1,1.2,1,1.5v13C1,14.8,1.2,15,1.5,15H9V14z"/>
<path fill="#FFE3AB" d="M10,15H9V9.5C9,9.2,9.2,9,9.5,9H15v1L10,15z"/>
<path fill="#EEBA6E" d="M13.6,10L10,13.6V10H13.6 M15,9H9.5C9.2,9,9,9.2,9,9.5V15h1l5-5V9L15,9z"/>
</svg>
