<?xml version="1.0" encoding="UTF-8" standalone="no"?>
<!-- Generator: Adobe Illustrator 19.1.1, SVG Export Plug-In . SVG Version: 6.00 Build 0)  -->

<svg
   xmlns:dc="http://purl.org/dc/elements/1.1/"
   xmlns:cc="http://creativecommons.org/ns#"
   xmlns:rdf="http://www.w3.org/1999/02/22-rdf-syntax-ns#"
   xmlns:svg="http://www.w3.org/2000/svg"
   xmlns="http://www.w3.org/2000/svg"
   xmlns:sodipodi="http://sodipodi.sourceforge.net/DTD/sodipodi-0.dtd"
   xmlns:inkscape="http://www.inkscape.org/namespaces/inkscape"
   version="1.1"
   id="Ebene_1"
   x="0px"
   y="0px"
   viewBox="0 0 16 16"
   enable-background="new 0 0 16 16"
   xml:space="preserve"
   inkscape:version="0.91 r13725"
   sodipodi:docname="content-elements-searchform.svg"><metadata
     id="metadata17"><rdf:RDF><cc:Work
         rdf:about=""><dc:format>image/svg+xml</dc:format><dc:type
           rdf:resource="http://purl.org/dc/dcmitype/StillImage" /><dc:title></dc:title></cc:Work></rdf:RDF></metadata><defs
     id="defs15" /><sodipodi:namedview
     pagecolor="#ffffff"
     bordercolor="#666666"
     borderopacity="1"
     objecttolerance="10"
     gridtolerance="10"
     guidetolerance="10"
     inkscape:pageopacity="0"
     inkscape:pageshadow="2"
     inkscape:window-width="2048"
     inkscape:window-height="1103"
     id="namedview13"
     showgrid="false"
     inkscape:zoom="1"
     inkscape:cx="8"
     inkscape:cy="8"
     inkscape:window-x="2048"
     inkscape:window-y="23"
     inkscape:window-maximized="1"
     inkscape:current-layer="Ebene_1" /><path
     fill="#FFFFFF"
     d="M1,1h14v14H1V1z"
     id="path3" /><path
     fill="#999999"
     d="M1,1v14h14V1H1z M2,2h12v12H2V2z"
     id="path5" /><g
     id="g4233"
     transform="matrix(0.71428571,0,0,0.71428571,2.2857143,2.2857143)"><path
       id="path4219"
       d="m 14.69,13.17 -2.758,-2.758 c -0.413,0.595 -0.93,1.112 -1.525,1.524 l 2.753,2.744 c 0.2,0.2 0.47,0.32 0.76,0.32 0.59,0 1.08,-0.49 1.08,-1.07 0,-0.29 -0.12,-0.57 -0.31,-0.76 z"
       inkscape:connector-curvature="0"
       style="fill:#e8a33d" /><circle
       id="circle4221"
       r="5"
       cy="7"
       cx="7"
       style="fill:#abd7ff" /><path
       id="path4223"
       d="m 7,2.5 c 2.481,0 4.5,2.019 4.5,4.5 0,2.481 -2.019,4.5 -4.5,4.5 C 4.519,11.5 2.5,9.481 2.5,7 2.5,4.519 4.519,2.5 7,2.5 M 7,1 C 3.686,1 1,3.686 1,7 c 0,3.314 2.686,6 6,6 3.314,0 6,-2.686 6,-6 C 13,3.686 10.314,1 7,1 l 0,0 z"
       inkscape:connector-curvature="0"
       style="fill:#5599ff" /><circle
       id="circle4225"
       r="1.5"
       cy="5.5"
       cx="8.5"
       style="opacity:0.6;fill:#ffffff" /></g></svg>