<?xml version="1.0" encoding="utf-8"?>
<!-- Generator: Adobe Illustrator 26.2.1, SVG Export Plug-In . SVG Version: 6.00 Build 0)  -->
<svg version="1.1" xmlns="http://www.w3.org/2000/svg" xmlns:xlink="http://www.w3.org/1999/xlink" x="0px" y="0px"
	 viewBox="0 0 16 16" enable-background="new 0 0 16 16">
<g>
	<path fill="#666666" d="M9.381,0.993L1.127,5.636C1.049,5.68,1,5.763,1,5.854v5.934c0,0.09,0.048,0.173,0.126,0.217l5.25,3
		c0.077,0.044,0.171,0.044,0.248,0l8.25-4.714C14.952,10.246,15,10.163,15,10.074V4.359c0-0.088-0.046-0.169-0.121-0.214
		L9.632,0.997C9.555,0.95,9.459,0.949,9.381,0.993z"/>
	<polygon fill="#B9B9B9" points="6,13.639 2,11.353 2,6.883 6,9.283 	"/>
	<polygon fill="#B9B9B9" points="2.495,6.014 9.492,2.078 13.505,4.486 6.508,8.422 	"/>
	<polygon fill="#B9B9B9" points="10,7.605 10,11.924 9,12.496 9,8.167 	"/>
	<polygon fill="#B9B9B9" points="11,7.042 12,6.48 12,10.782 11,11.353 	"/>
	<polygon fill="#B9B9B9" points="7,9.292 8,8.73 8,13.067 7,13.639 	"/>
	<polygon fill="#B9B9B9" points="14,9.639 13,10.21 13,5.918 14,5.355 	"/>
</g>
</svg>
