<?xml version="1.0" encoding="utf-8"?>
<!-- Generator: Adobe Illustrator 19.1.1, SVG Export Plug-In . SVG Version: 6.00 Build 0)  -->
<svg version="1.1" xmlns="http://www.w3.org/2000/svg" xmlns:xlink="http://www.w3.org/1999/xlink" x="0px" y="0px"
	 viewBox="0 0 16 16" enable-background="new 0 0 16 16" xml:space="preserve">
<rect x="1" y="1" fill="#FFFFFF" width="14" height="14"/>
<path fill="#999999" d="M14,2v12H2V2H14 M15,1H1v14h14V1L15,1z"/>
<g>
	<path fill="#5599FF" d="M5,7h6v6H5V7z"/>
	<path fill="#FFFFFF" d="M9,12H6l0.75-1l0.75-1l0.75,1L9,12z"/>
	<path fill="#FFFFFF" d="M10,12H7.333L8,11.333l0.667-0.666l0.666,0.666L10,12z"/>
	<ellipse fill="#FFFFFF" cx="9.5" cy="9.5" rx="0.5" ry="0.5"/>
</g>
<g>
	<rect x="3" y="5" fill="#B9B9B9" width="10" height="1"/>
	<rect x="3" y="3" fill="#666666" width="10" height="1"/>
</g>
</svg>
