<?xml version="1.0" encoding="utf-8"?>
<!-- Generator: Adobe Illustrator 21.1.0, SVG Export Plug-In . SVG Version: 6.00 Build 0)  -->
<svg version="1.1" xmlns="http://www.w3.org/2000/svg" xmlns:xlink="http://www.w3.org/1999/xlink" x="0px" y="0px"
	 viewBox="0 0 16 16" enable-background="new 0 0 16 16">
<polygon fill="#5599FF" points="1,1 1,13 5,15 10,13 15,15 15,3 10,1 5,3 "/>
<polygon fill="#79A548" points="1,1 1,9 5,11 10,9 15,11 15,3 10,1 5,3 "/>
<polygon fill="#EFEFEF" points="15,9.5 10.7,7.8 6.6,2.4 10,1 15,3 "/>
<polygon fill="#CECECE" points="15,8.5 11.3,7 7.6,2 10,1 15,3 "/>
<polygon fill="#FFC857" points="10,9.5 5,11.5 5,9.5 10,7.5 "/>
<polygon fill="#FFC857" points="1,9.5 5,11.5 5,9.5 1,7.5 "/>
<polygon fill="#FFC857" points="10,9.5 15,11.5 15,9.5 10,7.5 "/>
<polygon fill="#FFC857" points="12.9,10.7 10,9.5 5,3 6.6,2.4 "/>
<polygon fill="#212121" opacity="0.15" points="10,13 5,15 5,3 10,1 "/>
<path fill="#212121" opacity="0.3" d="M10,2.1l4,1.6v9.8l-3.6-1.5L10,11.9l-0.4,0.1L5,13.9l-3-1.5V2.6l2.6,1.3L5,4.1l0.4-0.2L10,2.1 M10,1L5,3L1,1
	v12l4,2l5-2l5,2V3L10,1L10,1z"/>
</svg>
