<svg xmlns="http://www.w3.org/2000/svg" viewBox="0 0 16 16">
<path fill="#FFF" d="M4,3h10v12H4V3z"/>
<path fill="#666666" d="M4,3v12h10V3H4z M5,4h8v10H5V4z"/>
<rect x="5" y="4" fill="#999999" width="8" height="1"/>
<rect x="2" y="1" fill="#B9B9B9" width="1" height="1"/>
<rect x="2" y="3" fill="#B9B9B9" width="1" height="1"/>
<rect x="2" y="5" fill="#B9B9B9" width="1" height="1"/>
<rect x="2" y="7" fill="#B9B9B9" width="1" height="1"/>
<rect x="2" y="9" fill="#B9B9B9" width="1" height="1"/>
<rect x="2" y="11" fill="#B9B9B9" width="1" height="1"/>
<rect x="4" y="1" fill="#B9B9B9" width="1" height="1"/>
<rect x="6" y="1" fill="#B9B9B9" width="1" height="1"/>
<rect x="8" y="1" fill="#B9B9B9" width="1" height="1"/>
<rect x="10" y="1" fill="#B9B9B9" width="1" height="1"/>
<rect x="8" y="11" fill="#5599FF" width="2" height="1"/>
<rect x="7" y="7" fill="#B9B9B9" width="4" height="1"/>
<rect x="7" y="9" fill="#B9B9B9" width="4" height="1"/>
</svg>