<svg xmlns="http://www.w3.org/2000/svg" viewBox="0 0 16 16">
<g>
	<path fill="#FFF" d="M1,3h14v10H1V3z"/>
	<rect x="1" y="14" fill="#B9B9B9" width="2" height="1"/>
	<rect x="4" y="14" fill="#B9B9B9" width="2" height="1"/>
	<rect x="10" y="14" fill="#B9B9B9" width="2" height="1"/>
	<rect x="13" y="14" fill="#B9B9B9" width="2" height="1"/>
	<rect x="7" y="14" fill="#B9B9B9" width="2" height="1"/>
	<rect x="1" y="1" fill="#B9B9B9" width="2" height="1"/>
	<rect x="4" y="1" fill="#B9B9B9" width="2" height="1"/>
	<rect x="10" y="1" fill="#B9B9B9" width="2" height="1"/>
	<rect x="13" y="1" fill="#B9B9B9" width="2" height="1"/>
	<rect x="7" y="1" fill="#B9B9B9" width="2" height="1"/>
	<path fill="#666666" d="M1,3v10h14V3H1z M2,4h12v8H2V4z"/>
	<rect x="3" y="5" fill="#B9B9B9" width="2.5" height="6"/>
	<rect x="10.5" y="5" fill="#B9B9B9" width="2.5" height="6"/>
	<rect x="6.75" y="5" fill="#B9B9B9" width="2.5" height="6"/>
</g>
</svg>