<?xml version="1.0" encoding="UTF-8" standalone="no"?>
<!-- Generator: Adobe Illustrator 19.1.0, SVG Export Plug-In . SVG Version: 6.00 Build 0)  -->

<svg
   xmlns:dc="http://purl.org/dc/elements/1.1/"
   xmlns:cc="http://creativecommons.org/ns#"
   xmlns:rdf="http://www.w3.org/1999/02/22-rdf-syntax-ns#"
   xmlns:svg="http://www.w3.org/2000/svg"
   xmlns="http://www.w3.org/2000/svg"
   xmlns:sodipodi="http://sodipodi.sourceforge.net/DTD/sodipodi-0.dtd"
   xmlns:inkscape="http://www.inkscape.org/namespaces/inkscape"
   version="1.1"
   id="Ebene_1"
   x="0px"
   y="0px"
   viewBox="0 0 16 16"
   enable-background="new 0 0 16 16"
   xml:space="preserve"
   inkscape:version="0.91 r13725"
   sodipodi:docname="content-beside-text-img-below-right.svg"><metadata
     id="metadata23"><rdf:RDF><cc:Work
         rdf:about=""><dc:format>image/svg+xml</dc:format><dc:type
           rdf:resource="http://purl.org/dc/dcmitype/StillImage" /><dc:title></dc:title></cc:Work></rdf:RDF></metadata><defs
     id="defs21"><clipPath
       id="clipPath3391"
       clipPathUnits="userSpaceOnUse"><path
         id="path3393"
         d="M 0,600 800,600 800,0 0,0 0,600 Z" /></clipPath><clipPath
       id="clipPath3407"
       clipPathUnits="userSpaceOnUse"><path
         id="path3409"
         d="m 316,477.408 60.363,0 0,-60.408 -60.363,0 0,60.408 z" /></clipPath><clipPath
       id="clipPath3427"
       clipPathUnits="userSpaceOnUse"><path
         id="path3429"
         d="m 622,477.971 60.121,0 0,-59.971 -60.121,0 0,59.971 z" /></clipPath><clipPath
       clipPathUnits="userSpaceOnUse"
       id="clipPath3391-7"><path
         d="M 0,600 800,600 800,0 0,0 0,600 Z"
         id="path3393-1" /></clipPath><clipPath
       clipPathUnits="userSpaceOnUse"
       id="clipPath3407-6"><path
         d="m 316,477.408 60.363,0 0,-60.408 -60.363,0 0,60.408 z"
         id="path3409-4" /></clipPath><clipPath
       clipPathUnits="userSpaceOnUse"
       id="clipPath3427-8"><path
         d="m 622,477.971 60.121,0 0,-59.971 -60.121,0 0,59.971 z"
         id="path3429-3" /></clipPath></defs><sodipodi:namedview
     pagecolor="#ffffff"
     bordercolor="#666666"
     borderopacity="1"
     objecttolerance="10"
     gridtolerance="10"
     guidetolerance="10"
     inkscape:pageopacity="0"
     inkscape:pageshadow="2"
     inkscape:window-width="2048"
     inkscape:window-height="1051"
     id="namedview19"
     showgrid="false"
     showguides="false"
     inkscape:zoom="1"
     inkscape:cx="7.3747897"
     inkscape:cy="8.3166252"
     inkscape:window-x="2048"
     inkscape:window-y="23"
     inkscape:window-maximized="1"
     inkscape:current-layer="g4452" /><g
     id="g4321"
     transform="translate(40,0)"><path
       style="fill:#ffffff"
       inkscape:connector-curvature="0"
       id="path3"
       d="m -39,1 14,0 0,14 -14,0 0,-14 z" /><path
       style="fill:#b9b9b9"
       inkscape:connector-curvature="0"
       id="path5"
       d="m -39,1 0,14 14,0 0,-14 -14,0 z m 1,1 12,0 0,12 -12,0 0,-12 z" /><rect
       style="fill:#8c8c8c"
       id="rect7"
       height="1"
       width="10"
       y="3"
       x="-37" /><rect
       style="fill:#b9b9b9"
       id="rect9"
       height="1"
       width="10"
       y="5"
       x="-37" /><g
       id="g4452"
       transform="translate(-77.5,0)"><path
         d="m 44.5,7 6,0 0,6 -6,0 0,-6 z"
         id="path11"
         inkscape:connector-curvature="0"
         style="fill:#5599ff;fill-opacity:1" /><path
         d="m 48.500005,11.999995 -1.499998,0 -1.499997,0 0.749999,-0.999989 0.749998,-1.0000115 0.749999,1.0000115 z"
         id="path4138"
         style="fill:#ffffff;fill-opacity:1;stroke:#ffaaaa;stroke-width:0;stroke-miterlimit:4;stroke-dasharray:none;stroke-opacity:1"
         inkscape:connector-curvature="0" /><path
         style="fill:#ffffff;fill-opacity:1;stroke:#ffaaaa;stroke-width:0;stroke-miterlimit:4;stroke-dasharray:none;stroke-opacity:1"
         id="path4144"
         d="m 49.500004,11.999994 -1.33333,0 -1.333331,0 0.666666,-0.666659 0.666665,-0.666673 0.666665,0.666673 z"
         inkscape:connector-curvature="0" /><ellipse
         cy="9.4999971"
         cx="49.000004"
         id="path4146"
         style="fill:#ffffff;fill-opacity:1;stroke:#ffaaaa;stroke-width:0;stroke-miterlimit:4;stroke-dasharray:none;stroke-opacity:1"
         rx="0.49999806"
         ry="0.49999803" /></g></g></svg>