<?xml version="1.0" encoding="utf-8"?>
<!-- Generator: Adobe Illustrator 25.4.1, SVG Export Plug-In . SVG Version: 6.00 Build 0)  -->
<svg version="1.1" xmlns="http://www.w3.org/2000/svg" xmlns:xlink="http://www.w3.org/1999/xlink" x="0px" y="0px"
	 viewBox="0 0 16 16" enable-background="new 0 0 16 16">
<g>
	<polygon fill="#FFFFFF" points="12,4 3,4 3,10 12,10 	"/>
	<path fill="#BBBBBB" d="M12,4v6H3V4H12 M13,3H2v8h11V3L13,3z"/>
</g>
<g>
	<polygon fill="#FFFFFF" points="10.2,12.5 4.5,12.5 4.5,5.5 14.5,5.5 14.5,12.5 12.5,12.5 12.5,14.1 	"/>
	<path fill="#999999" d="M14,6v6h-1h-1v1v0.1l-1.4-1L10.3,12H10H5V6H14 M15,5H4v8h6l3,2v-2h2V5L15,5z"/>
</g>
</svg>
