<svg xmlns="http://www.w3.org/2000/svg" viewBox="0 0 16 16">
<path fill="#FFF" d="M1,1h14v14H1V1z"/>
<path fill="#999999" d="M14,2v12H2V2H14 M15,1H1v14h14V1z"/>
<path fill="#5599FF" d="M7,3h6v6H7V3z"/>
<path fill="#FFF" d="M11,8H8l0.8-1l0.8-1l0.8,1L11,8z"/>
<path fill="#FFF" d="M12,8H9.3L10,7.3l0.7-0.7l0.7,0.7L12,8z"/>
<ellipse fill="#FFF" cx="11.5" cy="5.5" rx="0.5" ry="0.5"/>
<rect x="3" y="6" fill="#B9B9B9" width="3" height="1"/>
<rect x="3" y="8" fill="#B9B9B9" width="3" height="1"/>
<rect x="3" y="10" fill="#B9B9B9" width="10" height="1"/>
<rect x="3" y="12" fill="#B9B9B9" width="10" height="1"/>
<path fill="#666666" d="M3,3h3v2H3V3z"/>
</svg>