<svg xmlns="http://www.w3.org/2000/svg" version="1.1" viewBox="0 0 16 16">
<path fill="#FFFFFF" d="M1,1h14v14H1V1z"/>
<path fill="#999999" d="M14,2v12H2V2H14 M15,1H1v14h14V1z"/>
<path fill="#5599FF" d="M3,3h6v6H3V3z"/>
<path fill="#FFFFFF" d="M7,8H4l0.8-1l0.8-1l0.8,1L7,8z"/>
<path fill="#FFFFFF" d="M8,8H5.3L6,7.3l0.7-0.7l0.7,0.7L8,8z"/>
<ellipse fill="#FFFFFF" cx="7.5" cy="5.5" rx="0.5" ry="0.5"/>
<rect x="10" y="6" fill="#B9B9B9" width="3" height="1"/>
<rect x="10" y="8" fill="#B9B9B9" width="3" height="1"/>
<rect x="3" y="10" fill="#B9B9B9" width="10" height="1"/>
<rect x="3" y="12" fill="#B9B9B9" width="10" height="1"/>
<path fill="#666666" d="M10,3h3v2h-3V3z"/>
</svg>
