<?xml version="1.0" encoding="utf-8"?>
<!-- Generator: Adobe Illustrator 19.2.0, SVG Export Plug-In . SVG Version: 6.00 Build 0)  -->
<svg version="1.1" xmlns="http://www.w3.org/2000/svg" xmlns:xlink="http://www.w3.org/1999/xlink" x="0px" y="0px"
	 viewBox="0 0 16 16" enable-background="new 0 0 16 16">
<path fill="#E8A33D" d="M14.7,13.2l-2.8-2.8c-0.4,0.6-0.9,1.1-1.5,1.5l2.8,2.7c0.2,0.2,0.5,0.3,0.8,0.3c0.6,0,1.1-0.5,1.1-1.1
	C15,13.6,14.9,13.4,14.7,13.2z"/>
<circle fill="#ABD7FF" cx="7" cy="7" r="6"/>
<path fill="#5599FF" d="M7,2.5c2.5,0,4.5,2,4.5,4.5s-2,4.5-4.5,4.5S2.5,9.5,2.5,7S4.5,2.5,7,2.5 M7,1C3.7,1,1,3.7,1,7s2.7,6,6,6
	s6-2.7,6-6S10.3,1,7,1L7,1z"/>
<circle opacity="0.6" fill="#FFFFFF" enable-background="new    " cx="8.5" cy="5.5" r="1.5"/>
</svg>
