<svg xmlns="http://www.w3.org/2000/svg" viewBox="0 0 16 16">
<rect x="6" y="1" fill="#FFF" width="7" height="3"/>
<path fill="#BBBBBB" d="M10,1H9H6v3h3h1h3V1H10z M9,3H7V2h2V3z M12,3h-2V2h2V3z"/>
<path fill="#FFF" d="M1,1h6v2h8c0,0,0,7.333,0,12H1V1z"/>
<path fill="#999999" d="M6,2v1v1h1h7v10H2V2H6 M7,1H1v14h14c0-4.667,0-12,0-12H7V1L7,1z"/>
<polygon fill="#EAEAEA" points="13,5 3,5 3,13 13,13 "/>
<polygon fill="#999999" points="13,5 11,5 11,5.5 11,5.5 11,6 13,6 "/>
<polygon fill="#999999" points="9,12 8,12 8,13 9,13 "/>
<polygon fill="#999999" points="7,12 6,12 6,13 7,13 "/>
<polygon fill="#999999" points="4,8 3,8 3,9 4,9 "/>
<polygon fill="#999999" points="5,12 3,12 3,13 5,13 "/>
<polygon fill="#999999" points="4,10 3,10 3,11 4,11 "/>
<polygon fill="#999999" points="4,5 3,5 3,7 4,7 "/>
<polygon fill="#999999" points="6,5 5,5 5,6 6,6 "/>
<polygon fill="#999999" points="8,5 7,5 7,6 8,6 "/>
<polygon fill="#999999" points="10,5 9,5 9,6 10,6 "/>
<polygon fill="#999999" points="13,11 12,11 12,13 13,13 "/>
<polygon fill="#999999" points="11,12 10,12 10,13 11,13 "/>
<polygon fill="#999999" points="13,7 12,7 12,8 13,8 "/>
<polygon fill="#999999" points="13,9 12,9 12,10 13,10 "/>
</svg>