<svg xmlns="http://www.w3.org/2000/svg" version="1.1" viewBox="0 0 16 16">
<path fill="#FFFFFF" d="M4,3h10v12H4V3z"/>
<path fill="#666666" d="M4,3v12h10V3H4z M5,4h8v10H5V4z"/>
<rect x="5" y="4" fill="#999999" width="8" height="1"/>
<rect x="2" y="1" fill="#B9B9B9" width="1" height="1"/>
<rect x="2" y="3" fill="#B9B9B9" width="1" height="1"/>
<rect x="2" y="5" fill="#B9B9B9" width="1" height="1"/>
<rect x="2" y="7" fill="#B9B9B9" width="1" height="1"/>
<rect x="2" y="9" fill="#B9B9B9" width="1" height="1"/>
<rect x="2" y="11" fill="#B9B9B9" width="1" height="1"/>
<rect x="4" y="1" fill="#B9B9B9" width="1" height="1"/>
<rect x="6" y="1" fill="#B9B9B9" width="1" height="1"/>
<rect x="8" y="1" fill="#B9B9B9" width="1" height="1"/>
<rect x="10" y="1" fill="#B9B9B9" width="1" height="1"/>
<path fill="#B9B9B9" d="M8,6h4v1H8V6z M8,8h4v1H8V8z M8,10h4v1H8V10z M8,12h4v1H8V12z"/>
<path fill="#FF8700" d="M6,6h1v1H6V6z M6,8h1v1H6V8z M6,10h1v1H6V10z M6,12h1v1H6V12z"/>
</svg>
