<svg xmlns="http://www.w3.org/2000/svg" viewBox="0 0 16 16">
<path fill="#FFF" d="M4,3h10v12H4V3z"/>
<path fill="#666666" d="M4,3v12h10V3H4z M5,4h8v10H5V4z"/>
<rect x="5" y="4" fill="#999999" width="8" height="1"/>
<rect x="2" y="1" fill="#B9B9B9" width="1" height="1"/>
<rect x="2" y="3" fill="#B9B9B9" width="1" height="1"/>
<rect x="2" y="5" fill="#B9B9B9" width="1" height="1"/>
<rect x="2" y="7" fill="#B9B9B9" width="1" height="1"/>
<rect x="2" y="9" fill="#B9B9B9" width="1" height="1"/>
<rect x="2" y="11" fill="#B9B9B9" width="1" height="1"/>
<rect x="4" y="1" fill="#B9B9B9" width="1" height="1"/>
<rect x="6" y="1" fill="#B9B9B9" width="1" height="1"/>
<rect x="8" y="1" fill="#B9B9B9" width="1" height="1"/>
<rect x="10" y="1" fill="#B9B9B9" width="1" height="1"/>
<g>
	<path fill="#5599FF" d="M6,6h6v7H6V6z"/>
	<path fill="#E9F2FF" d="M12,7.153C11.851,7.065,11.686,7,11.5,7c-0.552,0-1,0.448-1,1s0.448,1,1,1c0.186,0,0.351-0.065,0.5-0.153
		V7.153z"/>
	<polygon fill="#E9F2FF" points="10.5,10 8.5,13 12,13 12,12 	"/>
	<polygon fill="#AACCFF" points="6,10.75 6,13 10.5,13 7.5,8.5 	"/>
</g>
</svg>