<svg xmlns="http://www.w3.org/2000/svg" viewBox="0 0 16 16">
<polygon fill="#9F6358" points="12,15 4,15 2.5,3 13.5,3 "/>
<polygon opacity="0.3" fill="#FFF" points="12,12 4,12 3,6 13,6 "/>
<path fill="#6F453E" d="M12.4,4l-1.3,10H4.9L3.6,4H12.4 M13.5,3h-11L4,15h8L13.5,3L13.5,3z"/>
<circle fill="#FFF" cx="8" cy="9" r="2.5"/>
<rect x="2" y="3" fill="#212121" width="12" height="1"/>
<rect x="4" y="1" fill="#333333" width="8" height="2"/>
<ellipse transform="matrix(0.342 -0.9397 0.9397 0.342 -3.1934 13.4394)" fill="#9F6358" cx="8" cy="9" rx="1.5" ry="1"/>
<rect x="7.9" y="6.5" transform="matrix(0.9397 0.342 -0.342 0.9397 3.5606 -2.1934)" fill="#FFF" width="0.3" height="5"/>
</svg>