<svg xmlns="http://www.w3.org/2000/svg" viewBox="0 0 16 16">
<g>
	<path fill="#FFC857" d="M6.449,0.998c-0.105,0-0.21,0.014-0.314,0.042C5.529,1.202,5.142,1.783,4.977,2.771
		C4.561,2.616,4.193,2.538,3.873,2.538c-0.4,0-0.724,0.122-0.969,0.367C2.464,3.345,2.42,4.04,2.771,4.978
		C1.783,5.142,1.202,5.529,1.04,6.135C0.878,6.739,1.187,7.364,1.958,8C1.187,8.636,0.878,9.261,1.04,9.865
		c0.162,0.605,0.743,0.993,1.731,1.157c-0.352,0.938-0.308,1.633,0.133,2.073c0.246,0.244,0.57,0.366,0.971,0.366
		c0.319,0,0.687-0.078,1.102-0.234c0.164,0.988,0.552,1.569,1.157,1.731c0.105,0.029,0.211,0.043,0.317,0.043
		c0.505,0,1.023-0.323,1.549-0.961C8.526,14.679,9.045,15,9.551,15c0.105,0,0.21-0.014,0.314-0.042
		c0.604-0.162,0.992-0.743,1.156-1.731c0.416,0.156,0.784,0.234,1.103,0.234c0.401,0,0.725-0.122,0.971-0.366
		c0.439-0.44,0.483-1.136,0.132-2.073c0.988-0.164,1.569-0.552,1.731-1.156c0.163-0.604-0.145-1.23-0.917-1.867
		c0.771-0.636,1.08-1.261,0.918-1.866c-0.163-0.605-0.744-0.992-1.732-1.156c0.352-0.938,0.308-1.633-0.133-2.074
		c-0.244-0.244-0.568-0.367-0.968-0.367c-0.32,0-0.689,0.078-1.105,0.234c-0.164-0.989-0.552-1.57-1.157-1.732
		C9.761,1.012,9.658,0.999,9.553,0.999c-0.505,0-1.027,0.32-1.554,0.959C7.473,1.32,6.954,0.998,6.449,0.998L6.449,0.998z"/>
	<path fill="#E8A33D" d="M14.041,7.999c0.771-0.636,1.08-1.261,0.918-1.866c-0.163-0.605-0.744-0.992-1.732-1.156
		c0.352-0.938,0.308-1.633-0.133-2.074c-0.244-0.244-0.568-0.367-0.968-0.367c-0.32,0-0.689,0.078-1.105,0.234
		c-0.164-0.989-0.552-1.57-1.157-1.732C9.761,1.012,9.658,0.999,9.553,0.999c-0.505,0-1.027,0.32-1.554,0.959
		c-0.526-0.638-1.045-0.96-1.55-0.96c-0.105,0-0.21,0.014-0.314,0.042C5.529,1.202,5.142,1.783,4.977,2.771
		C4.561,2.616,4.193,2.538,3.873,2.538c-0.4,0-0.724,0.122-0.969,0.367C2.464,3.345,2.42,4.04,2.771,4.978
		C1.783,5.142,1.202,5.529,1.04,6.135C0.878,6.739,1.187,7.364,1.958,8C1.187,8.636,0.878,9.261,1.04,9.865
		c0.162,0.605,0.743,0.993,1.731,1.157c-0.352,0.938-0.308,1.633,0.133,2.073c0.246,0.244,0.57,0.366,0.971,0.366
		c0.319,0,0.687-0.078,1.102-0.234c0.164,0.988,0.552,1.569,1.157,1.731c0.105,0.029,0.211,0.043,0.317,0.043
		c0.505,0,1.023-0.323,1.549-0.961C8.526,14.679,9.045,15,9.551,15c0.105,0,0.21-0.014,0.314-0.042
		c0.604-0.162,0.992-0.743,1.156-1.731c0.416,0.156,0.784,0.234,1.103,0.234c0.401,0,0.725-0.122,0.971-0.366
		c0.439-0.44,0.483-1.136,0.132-2.073c0.988-0.164,1.569-0.552,1.731-1.156C15.121,9.262,14.813,8.636,14.041,7.999z M13.407,8.771
		c0.41,0.338,0.635,0.657,0.587,0.836c-0.048,0.177-0.404,0.341-0.929,0.429l-1.2,0.199l0.427,1.138
		c0.184,0.491,0.222,0.89,0.101,1.012c-0.023,0.023-0.077,0.077-0.267,0.077c-0.136,0-0.377-0.029-0.752-0.17l-1.139-0.427
		l-0.199,1.2c-0.087,0.526-0.252,0.882-0.431,0.93C9.585,14,9.569,14.002,9.551,14.002c-0.139,0-0.417-0.157-0.78-0.596L8,12.47
		l-0.772,0.936c-0.363,0.44-0.64,0.597-0.777,0.597c-0.017,0-0.035-0.002-0.058-0.009c-0.177-0.048-0.342-0.404-0.429-0.929
		l-0.199-1.2l-1.139,0.428c-0.374,0.14-0.614,0.17-0.751,0.17c-0.189,0-0.243-0.053-0.264-0.074
		c-0.128-0.127-0.091-0.516,0.096-1.015l0.427-1.138l-1.199-0.199C2.41,9.949,2.054,9.784,2.006,9.607
		C1.959,9.43,2.184,9.11,2.594,8.772L3.531,8L2.594,7.228C2.184,6.89,1.958,6.57,2.006,6.393c0.047-0.177,0.404-0.342,0.93-0.429
		l1.199-0.2L3.708,4.626C3.521,4.128,3.484,3.739,3.611,3.612C3.633,3.59,3.685,3.538,3.873,3.538c0.136,0,0.378,0.03,0.754,0.17
		l1.138,0.426l0.199-1.198c0.088-0.526,0.252-0.882,0.43-0.93c0.019-0.005,0.037-0.008,0.055-0.008c0.139,0,0.417,0.157,0.779,0.596
		L8,3.53l0.771-0.937c0.361-0.439,0.641-0.595,0.782-0.595c0.018,0,0.035,0.002,0.053,0.007c0.178,0.048,0.342,0.404,0.429,0.93
		l0.199,1.2l1.139-0.427c0.376-0.141,0.618-0.171,0.754-0.171c0.187,0,0.239,0.052,0.261,0.074c0.126,0.126,0.088,0.524-0.096,1.015
		l-0.427,1.138l1.2,0.199c0.526,0.087,0.883,0.252,0.93,0.429c0.047,0.177-0.178,0.497-0.588,0.835L12.47,8L13.407,8.771z"/>
	<path opacity="0.3" fill="#FFF" d="M8,3.53l0.772-0.936c0.362-0.439,0.64-0.596,0.779-0.596c0.018,0,0.036,0.003,0.055,0.008
		c0.178,0.048,0.342,0.404,0.43,0.93l0.199,1.198l1.138-0.426c0.376-0.14,0.618-0.17,0.754-0.17c0.188,0,0.24,0.052,0.262,0.074
		c0.127,0.127,0.09,0.516-0.097,1.014l-0.427,1.138l1.199,0.2c0.526,0.087,0.883,0.252,0.93,0.429
		c0.048,0.177-0.178,0.497-0.588,0.835L12.469,8l0.937,0.772c0.41,0.338,0.635,0.658,0.588,0.835
		c-0.048,0.177-0.404,0.342-0.929,0.43l-1.199,0.199l0.427,1.138c0.187,0.499,0.224,0.888,0.096,1.015
		c-0.021,0.021-0.075,0.074-0.264,0.074c-0.137,0-0.377-0.03-0.751-0.17l-1.139-0.428l-0.199,1.2
		c-0.087,0.525-0.252,0.881-0.429,0.929c-0.023,0.007-0.041,0.009-0.058,0.009c-0.137,0-0.414-0.157-0.777-0.597L8,12.47V3.53z"/>
</g>
</svg>