<?xml version="1.0" encoding="utf-8"?>
<!-- Generator: Adobe Illustrator 26.3.1, SVG Export Plug-In . SVG Version: 6.00 Build 0)  -->
<svg version="1.1" xmlns="http://www.w3.org/2000/svg" xmlns:xlink="http://www.w3.org/1999/xlink" x="0px" y="0px"
	 viewBox="0 0 16 16" enable-background="new 0 0 16 16">
<path fill="#C83C3C" d="M13.303,6.025l-4.95,4.95c-0.424,0.424-0.99,0.424-1.414,0L5.525,9.561c-0.424-0.424-0.424-0.99,0-1.414
	l4.95-4.95L8.354,1.075l-4.95,4.95c-1.556,1.556-1.556,4.101,0,5.657l1.414,1.414c1.556,1.556,4.101,1.556,5.657,0l4.95-4.95
	L13.303,6.025z"/>
<rect x="6.854" y="1.697" transform="matrix(0.7071 -0.7071 0.7071 0.7071 0.1863 6.8431)" fill="#B9B9B9" width="3" height="3"/>
<rect x="11.803" y="6.646" transform="matrix(0.7071 -0.7071 0.7071 0.7071 -1.864 11.7929)" fill="#B9B9B9" width="3" height="3"/>
<rect x="7.146" y="2.404" transform="matrix(0.7071 -0.7071 0.7071 0.7071 -0.5208 6.5503)" opacity="0.25" enable-background="new    " width="1" height="3"/>
<rect x="12.096" y="7.354" transform="matrix(0.7071 -0.7071 0.7071 0.7071 -2.5711 11.5)" opacity="0.25" enable-background="new    " width="1" height="3"/>
<path opacity="0.2" fill="#000001" d="M8.354,1.075l-4.95,4.95c-1.556,1.556-1.556,4.101,0,5.657l1.414,1.414
	c0.778,0.778,1.803,1.167,2.828,1.167s2.051-0.389,2.828-1.167l4.95-4.95l-0.707-0.707l-4.95,4.95
	c-0.563,0.563-1.317,0.874-2.121,0.874s-1.558-0.31-2.121-0.874l-1.414-1.414c-1.17-1.17-1.17-3.073,0-4.243l4.95-4.95L8.354,1.075
	L8.354,1.075z"/>
</svg>
