<?xml version="1.0" encoding="utf-8"?>
<!-- Generator: Adobe Illustrator 19.1.1, SVG Export Plug-In . SVG Version: 6.00 Build 0)  -->
<svg version="1.1" xmlns="http://www.w3.org/2000/svg" xmlns:xlink="http://www.w3.org/1999/xlink" x="0px" y="0px"
	 viewBox="0 0 16 16" enable-background="new 0 0 16 16" xml:space="preserve">
<rect x="1" y="1" fill="#FFFFFF" width="14" height="14"/>
<path fill="#999999" d="M14,2v12H2V2H14 M15,1H1v14h14V1L15,1z"/>
<g>
	<path fill="#5599FF" d="M7,3h6v6H7V3z"/>
	<path fill="#FFFFFF" d="M11,8H8l0.75-1L9.5,6l0.75,1L11,8z"/>
	<path fill="#FFFFFF" d="M12,8H9.333L10,7.333l0.667-0.666l0.666,0.666L12,8z"/>
	<ellipse fill="#FFFFFF" cx="11.5" cy="5.5" rx="0.5" ry="0.5"/>
</g>
<g>
	<rect x="3" y="12" fill="#B9B9B9" width="10" height="1"/>
	<rect x="3" y="10" fill="#666666" width="10" height="1"/>
</g>
</svg>
