<?xml version="1.0" encoding="utf-8"?>
<!-- Generator: Adobe Illustrator 19.1.1, SVG Export Plug-In . SVG Version: 6.00 Build 0)  -->
<svg version="1.1" xmlns="http://www.w3.org/2000/svg" xmlns:xlink="http://www.w3.org/1999/xlink" x="0px" y="0px"
	 viewBox="0 0 16 16" enable-background="new 0 0 16 16" xml:space="preserve">
<path fill="#FFFFFF" d="M1,1h14v14H1V1z"/>
<path fill="#999999" d="M1,1v14h14V1H1z M2,2h12v12H2V2z"/>
<path fill="#666666" d="M3,3h10v1H3V3z"/>
<path fill="#B9B9B9" d="M3,5h10v1H3V5z"/>
<path fill="#5599FF" d="M7,7h6v6H7V7z"/>
<path fill="#FFFFFF" d="M11,12H8l0.75-1l0.75-1l0.75,1L11,12z"/>
<path fill="#FFFFFF" d="M12,12H9.333L10,11.333l0.667-0.666l0.666,0.666L12,12z"/>
<ellipse fill="#FFFFFF" cx="11.5" cy="9.5" rx="0.5" ry="0.5"/>
<path fill="#B9B9B9" d="M3,7h3v1H3V7z M3,9h3v1H3V9z M3,11h3v1H3V11z"/>
</svg>
