<?xml version="1.0" encoding="utf-8"?>
<!-- Generator: Adobe Illustrator 19.1.0, SVG Export Plug-In . SVG Version: 6.00 Build 0)  -->
<svg version="1.1" id="Ebene_1" xmlns="http://www.w3.org/2000/svg" xmlns:xlink="http://www.w3.org/1999/xlink" x="0px" y="0px"
	 viewBox="0 0 16 16" enable-background="new 0 0 16 16" xml:space="preserve">
<path fill="#FFFFFF" d="M1,1h14v14H1V1z"/>
<path fill="#B9B9B9" d="M1,1v14h14V1H1z M2,2h12v12H2V2z"/>
<rect x="3" y="3" fill="#8C8C8C" width="10" height="2"/>
<rect x="3" y="6" fill="#B9B9B9" width="3" height="1"/>
<rect x="3" y="8" fill="#B9B9B9" width="3" height="1"/>
<rect x="3" y="10" fill="#B9B9B9" width="3" height="1"/>
<rect x="3" y="12" fill="#B9B9B9" width="3" height="1"/>
<path fill="#EFEFEF" d="M7,6h6v7H7V6z"/>
<path fill="#B9B9B9" d="M7,6v7h6V6H7z M12,12H8V7h4V12z"/>
<polygon fill="#5599FF" points="11,10 10,10.5 9,9 8,10.5 8,12 12,12 12,11 "/>
<path fill="#E8A33D" d="M11.5,8.3c0,0.4-0.3,0.8-0.7,0.8l0,0C10.3,9,10,8.7,10,8.3l0,0c0-0.4,0.3-0.8,0.7-0.8l0,0
	C11.2,7.5,11.5,7.8,11.5,8.3L11.5,8.3z"/>
</svg>
