<?xml version="1.0" encoding="utf-8"?>
<!-- Generator: Adobe Illustrator 19.2.1, SVG Export Plug-In . SVG Version: 6.00 Build 0)  -->
<svg version="1.1" xmlns="http://www.w3.org/2000/svg" xmlns:xlink="http://www.w3.org/1999/xlink" x="0px" y="0px"
	 viewBox="0 0 16 16" enable-background="new 0 0 16 16">
<path fill="#FFFFFF" d="M14,3V1H2v14h14V3H14z"/>
<path fill="#999999" d="M14,3V1H2v14h14V3H14z M15,14H3V2h10v11h1V4h1V14z"/>
<path fill="#333333" d="M4,3h8v1H4V3z"/>
<path fill="#5599FF" d="M4,5h3v3H4V5z"/>
<path fill="#AAAAAA" d="M4,9h3v1H4V9z M8,9h4v1H8V9z M4,11h3v1H4V11z M8,11h4v1H8V11z M8,7h4v1H8V7z M8,5h4v1H8V5z"/>
</svg>
