<?xml version="1.0" encoding="utf-8"?>
<!-- Generator: Adobe Illustrator 19.2.1, SVG Export Plug-In . SVG Version: 6.00 Build 0)  -->
<svg version="1.1" xmlns="http://www.w3.org/2000/svg" xmlns:xlink="http://www.w3.org/1999/xlink" x="0px" y="0px"
	 viewBox="0 0 16 16" enable-background="new 0 0 16 16">
<path fill="#6EAADD" d="M8,1L8,1c3.9,0,7,3.1,7,7v0c0,3.9-3.1,7-7,7h0c-3.9,0-7-3.1-7-7v0C1,4.1,4.1,1,8,1z"/>
<path fill="#4E789A" d="M8,2c3.3,0,6,2.7,6,6c0,3.3-2.7,6-6,6c-3.3,0-6-2.7-6-6C2,4.7,4.7,2,8,2 M8,1L8,1C4.1,1,1,4.1,1,8v0
	c0,3.9,3.1,7,7,7h0c3.9,0,7-3.1,7-7v0C15,4.1,11.9,1,8,1L8,1z"/>
<polygon fill="#FFFFFF" points="10,11 9,11 9,7 6.5,7 6.5,8 7,8 7,11 6,11 6,12 10,12 "/>
<rect x="7" y="4" fill="#FFFFFF" width="2" height="2"/>
</svg>
