<?xml version="1.0" encoding="utf-8"?>
<!-- Generator: Adobe Illustrator 27.0.1, SVG Export Plug-In . SVG Version: 6.00 Build 0)  -->
<svg version="1.1" id="Ebene_1" xmlns="http://www.w3.org/2000/svg" xmlns:xlink="http://www.w3.org/1999/xlink" x="0px" y="0px"
	 viewBox="0 0 16 16" enable-background="new 0 0 16 16" xml:space="preserve">
<path fill="#FFC857" d="M8,1.5c-3.0375366,0-5.5,0.8954468-5.5,2v9c0,1.1045532,2.4624634,2,5.5,2s5.5-0.8954468,5.5-2v-9
	C13.5,2.3954468,11.0375366,1.5,8,1.5z"/>
<path fill="#E8A33D" d="M2,3.5001831v9c0,1.6416016,3.0185547,2.5,6,2.5s6-0.8583984,6-2.5v-9C14,0.2179565,2,0.2179565,2,3.5001831
	z M8,2.0001831c3.0055542,0,4.9995728,0.90271,4.999939,1.4998169h-0.0002441C12.9979858,4.097168,11.0045776,4.9992065,8,4.9992065
	S3.0020142,4.097168,3.0003052,3.5H3.000061C3.0004272,2.9028931,4.9944458,2.0001831,8,2.0001831z M12.9996948,6.5003052
	C12.9979858,7.0974731,11.0045776,7.9995117,8,7.9995117S3.0020142,7.0974731,3.0003052,6.5003052H3V4.9316406
	c1.1303101,0.7017212,3.0668335,1.0675659,5,1.0675659c1.9331055,0,3.8695679-0.3658447,5-1.0673828v1.5684814H12.9996948z
	 M13,7.9321289v1.5684814h-0.0003052C12.9979858,10.0977783,11.0045776,10.9998169,8,10.9998169
	s-4.9979858-0.9020386-4.9996948-1.4992065H3V7.9319458C4.1303101,8.633667,6.0668335,8.9995117,8,8.9995117
	C9.9331055,8.9995117,11.8695679,8.633667,13,7.9321289z M8,14.0001831c-3.0058594,0-5-0.9023438-5-1.5V10.932251
	c1.1303101,0.7017212,3.0668335,1.0675659,5,1.0675659c1.9331055,0,3.8695679-0.3658447,5-1.0673828v1.567749
	C13,13.0978394,11.0058594,14.0001831,8,14.0001831z"/>
</svg>
