<?xml version="1.0" encoding="utf-8"?>
<!-- Generator: Adobe Illustrator 19.2.0, SVG Export Plug-In . SVG Version: 6.00 Build 0)  -->
<svg version="1.1" xmlns="http://www.w3.org/2000/svg" xmlns:xlink="http://www.w3.org/1999/xlink" x="0px" y="0px"
	 viewBox="0 0 16 16" enable-background="new 0 0 16 16">
<path fill="#666666" d="M9,2.5c0.8,0,1.5,0.7,1.5,1.5v2c0,0.8-0.7,1.5-1.5,1.5H7C6.2,7.5,5.5,6.8,5.5,6V4c0-0.8,0.7-1.5,1.5-1.5H9
	 M9,1H7C5.3,1,4,2.4,4,4v2c0,1.6,1.3,3,3,3h2c1.6,0,3-1.4,3-3V4C12,2.4,10.6,1,9,1L9,1z"/>
<rect x="2" y="5" fill="#FFC857" width="12" height="10"/>
<path fill="#E8A33D" d="M13,6v8H3V6H13 M14,5H2v10h12V5L14,5z"/>
<path fill="#B3812B" d="M10,9c0-1.1-0.9-2-2-2S6,7.9,6,9c0,0.7,0.4,1.4,1,1.7V13h2v-2.3C9.6,10.4,10,9.7,10,9z"/>
</svg>
