<svg xmlns="http://www.w3.org/2000/svg" viewBox="0 0 16 16">
<g>
	<polygon fill="#FFF" points="4.5,11.5 1.5,11.5 1.5,2.5 14.5,2.5 14.5,11.5 8.9,11.5 4.5,14.1 	"/>
	<path fill="#999999" d="M14,3v8H9H8.7l-0.2,0.1L5,13.2V12v-1H4H2V3H14 M15,2H1v10h3v3l5-3h6V2L15,2z"/>
</g>
<path fill="#B9B9B9" d="M4.2,6h1.5C5.9,6,6,6.1,6,6.2v1.5C6,7.9,5.9,8,5.8,8H4.2C4.1,8,4,7.9,4,7.8V6.2C4,6.1,4.1,6,4.2,6z"/>
<path fill="#B9B9B9" d="M7.2,6h1.5C8.9,6,9,6.1,9,6.2v1.5C9,7.9,8.9,8,8.8,8H7.2C7.1,8,7,7.9,7,7.8V6.2C7,6.1,7.1,6,7.2,6z"/>
<path fill="#B9B9B9" d="M10.2,6h1.5C11.9,6,12,6.1,12,6.2v1.5C12,7.9,11.9,8,11.8,8h-1.5C10.1,8,10,7.9,10,7.8V6.2
	C10,6.1,10.1,6,10.2,6z"/>
</svg>