<svg xmlns="http://www.w3.org/2000/svg" version="1.1" viewBox="0 0 16 16">
<path fill="#FFFFFF" d="M4,3h10v12H4V3z"/>
<path fill="#666666" d="M4,3v12h10V3H4z M5,4h8v10H5V4z"/>
<rect x="5" y="4" fill="#999999" width="8" height="1"/>
<rect x="2" y="1" fill="#B9B9B9" width="1" height="1"/>
<rect x="2" y="3" fill="#B9B9B9" width="1" height="1"/>
<rect x="2" y="5" fill="#B9B9B9" width="1" height="1"/>
<rect x="2" y="7" fill="#B9B9B9" width="1" height="1"/>
<rect x="2" y="9" fill="#B9B9B9" width="1" height="1"/>
<rect x="2" y="11" fill="#B9B9B9" width="1" height="1"/>
<rect x="4" y="1" fill="#B9B9B9" width="1" height="1"/>
<rect x="6" y="1" fill="#B9B9B9" width="1" height="1"/>
<rect x="8" y="1" fill="#B9B9B9" width="1" height="1"/>
<rect x="10" y="1" fill="#B9B9B9" width="1" height="1"/>
<path fill="#FF8700" d="M6,8c2.757,0,5,2.243,5,5h1c0-3.314-2.686-6-6-6V8z"/>
<path fill="#FF8700" d="M6,10c1.654,0,3,1.346,3,3h1c0-2.209-1.791-4-4-4V10z"/>
<path fill="#FF8700" d="M6.75,13L6.75,13C6.336,13,6,12.664,6,12.25l0,0c0-0.414,0.336-0.75,0.75-0.75l0,0
	c0.414,0,0.75,0.336,0.75,0.75l0,0C7.5,12.664,7.164,13,6.75,13z"/>
</svg>
