<?xml version="1.0" encoding="utf-8"?>
<!-- Generator: Adobe Illustrator 21.0.0, SVG Export Plug-In . SVG Version: 6.00 Build 0)  -->
<svg version="1.1" xmlns="http://www.w3.org/2000/svg" xmlns:xlink="http://www.w3.org/1999/xlink" x="0px" y="0px"
	 viewBox="0 0 16 16" enable-background="new 0 0 16 16">
<path fill="#663399" d="M1,11h4v4H1V11z"/>
<path opacity="0.25" enable-background="new    " d="M4,12v2H2v-2H4 M5,11H1v4h4V11L5,11z"/>
<path fill="#5599FF" d="M6,11h4v4H6V11z"/>
<path opacity="0.25" enable-background="new    " d="M9,12v2H7v-2H9 M10,11H6v4h4V11L10,11z"/>
<path fill="#5599FF" d="M11,11h4v4h-4V11z"/>
<path opacity="0.25" enable-background="new    " d="M14,12v2h-2v-2H14 M15,11h-4v4h4V11L15,11z"/>
<g>
	<rect x="1" y="2" fill="#999999" width="9" height="8"/>
	<rect x="2" y="3" fill="#FFFFFF" width="7" height="6"/>
	<path fill="#515151" d="M3,4h5v2H3V4z"/>
	<rect x="3" y="7" fill="#B9B9B9" width="5" height="1"/>
</g>
<g>
	<rect x="6" y="1" fill="#999999" width="9" height="9"/>
	<rect x="7" y="2" fill="#FFFFFF" width="7" height="7"/>
	<path fill="#515151" d="M8,3h5v2H8V3z"/>
	<rect x="8" y="6" fill="#B9B9B9" width="5" height="1"/>
</g>
<rect x="2.5" y="10" opacity="0.5" fill="#999999" enable-background="new    " width="1" height="1"/>
<rect x="7.5" y="10" opacity="0.5" fill="#999999" enable-background="new    " width="1" height="1"/>
<rect x="12.5" y="10" opacity="0.5" fill="#999999" enable-background="new    " width="1" height="1"/>
<rect x="5" y="2" opacity="0.75" fill="#FFFFFF" enable-background="new    " width="1" height="8"/>
</svg>
