<?xml version="1.0" encoding="utf-8"?>
<!-- Generator: Adobe Illustrator 19.2.1, SVG Export Plug-In . SVG Version: 6.00 Build 0)  -->
<svg version="1.1" id="Ebene_1" xmlns="http://www.w3.org/2000/svg" xmlns:xlink="http://www.w3.org/1999/xlink" x="0px" y="0px"
	 viewBox="0 0 16 16" enable-background="new 0 0 16 16" xml:space="preserve">
<path fill="#FFC857" d="M13.5,4.5c0,3-2.5,4-2.5,7.5H5c0-3.5-2.5-4.5-2.5-7.5S5,0,8,0S13.5,1.5,13.5,4.5z"/>
<path fill="#E8A33D" d="M8,1c1.1,0,4.5,0.3,4.5,3.5c0,1.2-0.5,2-1,3c-0.6,1-1.2,2-1.4,3.5H5.9C5.7,9.5,5.1,8.4,4.5,7.5
	c-0.6-1-1-1.8-1-3C3.5,1.3,6.9,1,8,1 M8,0C5,0,2.5,1.5,2.5,4.5S5,8.5,5,12h6c0-3.5,2.5-4.5,2.5-7.5C13.5,1.5,11,0,8,0L8,0z"/>
<path fill="#FFC857" d="M8.5,13h-1c-0.5,0-1-0.4-1-1V6c0-0.5,0.4-1,1-1h1c0.5,0,1,0.4,1,1v6C9.5,12.6,9.1,13,8.5,13z"/>
<path fill="#E8A33D" d="M8.5,5.5C8.8,5.5,9,5.7,9,6v6c0,0.3-0.2,0.5-0.5,0.5h-1C7.2,12.5,7,12.3,7,12V6c0-0.3,0.2-0.5,0.5-0.5H8.5
	 M8.5,5h-1c-0.6,0-1,0.4-1,1v6c0,0.6,0.4,1,1,1h1c0.6,0,1-0.4,1-1V6C9.5,5.4,9.1,5,8.5,5L8.5,5z"/>
<path fill="#AAAAAA" d="M10,16H6c-0.6,0-1-0.4-1-1v-3c0-0.6,0.4-1,1-1h4c0.6,0,1,0.4,1,1v3C11,15.6,10.6,16,10,16z"/>
<path fill="#666666" d="M10,12v3H6v-3H10 M10,11H6c-0.6,0-1,0.4-1,1v3c0,0.6,0.4,1,1,1h4c0.6,0,1-0.4,1-1v-3C11,11.4,10.6,11,10,11
	L10,11z"/>
<rect x="5" y="13" fill="#666666" width="6" height="1"/>
</svg>
