<?xml version="1.0" encoding="utf-8"?>
<!-- Generator: Adobe Illustrator 24.0.2, SVG Export Plug-In . SVG Version: 6.00 Build 0)  -->
<svg version="1.1" id="Ebene_1" xmlns="http://www.w3.org/2000/svg" xmlns:xlink="http://www.w3.org/1999/xlink" x="0px" y="0px"
	 viewBox="0 0 16 16" enable-background="new 0 0 16 16" xml:space="preserve">
<path fill="#CCCCCC" d="M1,3h14v10H1V3z"/>
<path fill="#999999" d="M14,4v8H2V4H14 M15,3H1v10h14V3z"/>
<path fill="#FFFFFF" d="M3,2h10v12H3V2z"/>
<path fill="#666666" d="M12,3v10H4V3H12 M13,2H3v12h10V2z"/>
<path fill="#666666" d="M5,4h6v1H5V4z"/>
<g>
	<path fill="#5599FF" d="M5,6h6v6H5V6z"/>
	<path fill="#E9F2FF" d="M11,6.7c-0.1-0.1-0.3-0.2-0.5-0.2c-0.6,0-1,0.4-1,1s0.4,1,1,1c0.2,0,0.4-0.1,0.5-0.2V6.7z"/>
	<polygon fill="#E9F2FF" points="9.5,9 7.5,12 11,12 11,11 	"/>
	<polygon fill="#AACCFF" points="5,9.8 5,12 9.5,12 6.5,7.5 	"/>
</g>
</svg>
