<?xml version="1.0" encoding="utf-8"?>
<!-- Generator: Adobe Illustrator 19.1.0, SVG Export Plug-In . SVG Version: 6.00 Build 0)  -->
<svg version="1.1" id="Ebene_1" xmlns="http://www.w3.org/2000/svg" xmlns:xlink="http://www.w3.org/1999/xlink" x="0px" y="0px"
	 viewBox="0 0 16 16" style="enable-background:new 0 0 16 16;" xml:space="preserve">
<style type="text/css">
	.st0{fill:#FFFFFF;}
	.st1{fill:#B9B9B9;}
	.st2{fill:#8C8C8C;}
	.st3{fill:#EFEFEF;}
	.st4{fill:#5599FF;}
	.st5{fill:#E8A33D;}
</style>
<path class="st0" d="M1,1h14v14H1V1z"/>
<path class="st1" d="M1,1v14h14V1H1z M2,2h12v12H2V2z"/>
<rect x="10" y="3" class="st2" width="3" height="2"/>
<rect x="10" y="6" class="st1" width="3" height="1"/>
<rect x="10" y="8" class="st1" width="3" height="1"/>
<rect x="10" y="10" class="st1" width="3" height="1"/>
<rect x="10" y="12" class="st1" width="3" height="1"/>
<path class="st3" d="M3,3h6v6H3V3z"/>
<path class="st1" d="M3,3v6h6V3H3z M8,8H4V4h4V8z"/>
<polygon class="st4" points="7,6.5 6,7 5,5.5 4,6.5 4,8 8,8 8,7 "/>
<circle class="st5" cx="6.8" cy="5.3" r="0.8"/>
</svg>
