<?xml version="1.0" encoding="utf-8"?>
<!-- Generator: Adobe Illustrator 19.1.0, SVG Export Plug-In . SVG Version: 6.00 Build 0)  -->
<svg version="1.1" id="Ebene_1" xmlns="http://www.w3.org/2000/svg" xmlns:xlink="http://www.w3.org/1999/xlink" x="0px" y="0px"
	 viewBox="0 0 16 16" enable-background="new 0 0 16 16" xml:space="preserve">
<path fill="#FFFFFF" d="M1,1h14v14H1V1z"/>
<path fill="#B9B9B9" d="M1,1v14h14V1H1z M2,2h12v12H2V2z"/>
<rect x="3" y="3" fill="#8C8C8C" width="10" height="2"/>
<rect x="3" y="6" fill="#B9B9B9" width="10" height="1"/>
<path fill="#EFEFEF" d="M7,8h6v5H7V8z"/>
<path fill="#B9B9B9" d="M7,8v5h6V8H7z M12,12H8V9h4V12z"/>
<polygon fill="#5599FF" points="11,11 10,11.5 9,10 8,11 8,12 12,12 12,11.5 "/>
<circle fill="#E8A33D" cx="11" cy="10" r="0.5"/>
</svg>
