<?xml version="1.0" encoding="utf-8"?>
<!-- Generator: Adobe Illustrator 25.4.1, SVG Export Plug-In . SVG Version: 6.00 Build 0)  -->
<svg version="1.1" id="Ebene_1" xmlns="http://www.w3.org/2000/svg" xmlns:xlink="http://www.w3.org/1999/xlink" x="0px" y="0px"
	 viewBox="0 0 16 16" enable-background="new 0 0 16 16" xml:space="preserve">
<polyline fill="#C83C3C" points="11.308,5.964 12.251,6.435 6.435,12.251 5.964,11.308 11.308,5.964 "/>
<polygon fill="#C83C3C" points="11.111,4.747 10.192,5.666 7.434,4.181 8.282,3.333 6.161,1.211 1.211,6.161 3.333,8.282 
	4.181,7.434 5.666,10.192 4.747,11.111 6.161,13.939 13.939,6.161 "/>
<path opacity="0.2" fill="#212121" d="M11.111,4.747l-0.919,0.919L7.434,4.181l0.849-0.849L6.161,1.211l-4.95,4.95l2.121,2.121
	l0.849-0.849l1.485,2.758l-0.919,0.919l1.414,2.828l7.778-7.778L11.111,4.747z M3.333,6.868L2.626,6.161l3.535-3.536l0.707,0.707
	L6.515,3.686L3.686,6.515L3.333,6.868z M4.919,6.696l1.776-1.776l2.758,1.485L6.404,9.453L4.919,6.696z M5.964,11.308l5.345-5.345
	l0.943,0.471l-5.816,5.816L5.964,11.308z"/>
<polygon fill="#666666" points="15,15 13.586,15 9.343,10.757 10.05,10.05 "/>
<polygon fill="#AAAAAA" points="15,13.586 15,15 10.05,10.05 10.757,9.343 "/>
</svg>
