<?xml version="1.0" encoding="utf-8"?>
<!-- Generator: Adobe Illustrator 21.0.0, SVG Export Plug-In . SVG Version: 6.00 Build 0)  -->
<svg version="1.1" id="Ebene_1" xmlns="http://www.w3.org/2000/svg" xmlns:xlink="http://www.w3.org/1999/xlink" x="0px" y="0px"
	 viewBox="0 0 16 16" enable-background="new 0 0 16 16" xml:space="preserve">
<path fill="#FFFFFF" d="M1,1h14v14H1V1z"/>
<path fill="#999999" d="M1,1v14h14V1H1z M2,2h12v12H2V2z"/>
<rect x="3" y="6" fill="#999999" width="10" height="1"/>
<rect x="3" y="8" fill="#999999" width="2" height="1"/>
<rect x="3" y="10" fill="#999999" width="2" height="1"/>
<rect x="3" y="12" fill="#999999" width="2" height="1"/>
<rect x="3" y="3" fill="#666666" width="10" height="2"/>
<polygon fill="#FF8700" points="7.5,8 6,9 6,13 9,13 9,9 "/>
<circle fill="#FFFFFF" cx="7.5" cy="9.5" r="0.5"/>
<polygon fill="#5599FF" points="11.5,8 10,9 10,13 13,13 13,9 "/>
<circle fill="#FFFFFF" cx="11.5" cy="9.5" r="0.5"/>
</svg>
