<?xml version="1.0" encoding="utf-8"?>
<!-- Generator: Adobe Illustrator 21.1.0, SVG Export Plug-In . SVG Version: 6.00 Build 0)  -->
<svg version="1.1" id="Ebene_1" xmlns="http://www.w3.org/2000/svg" xmlns:xlink="http://www.w3.org/1999/xlink" x="0px" y="0px"
	 viewBox="0 0 16 16" enable-background="new 0 0 16 16" xml:space="preserve">
<rect x="2" y="6" fill="#B9B9B9" width="13" height="9"/>
<rect x="10" y="9" fill="#94604C" width="3" height="5"/>
<polygon opacity="0.2" points="10,9 10,14 10.5,14 10.5,14 10.5,14 10.5,9.5 12.5,9.5 12.5,14 13,14 13,14 13,14 13,9 "/>
<path opacity="0.15" d="M14,7v7H3V7H14 M15,6H2v9h13V6L15,6z"/>
<rect x="1" y="14" fill="#515151" width="15" height="1"/>
<g>
	<polygon fill="#8C8C8C" points="15.5,7.5 1.5,7.5 1,7 16,7 	"/>
	<polygon fill="#C83C3C" points="16,7 1,7 2,2 15,2 	"/>
	<g>
		<polygon fill="#FFFFFF" points="3,7 2,7 2.9,2 3.7,2 		"/>
	</g>
	<g>
		<polygon fill="#FFFFFF" points="5,7 4,7 4.6,2 5.5,2 		"/>
	</g>
	<g>
		<polygon fill="#FFFFFF" points="7,7 6,7 6.3,2 7.2,2 		"/>
	</g>
	<g>
		<polygon fill="#FFFFFF" points="9,7 8,7 8.1,2 8.9,2 		"/>
	</g>
	<g>
		<polygon fill="#FFFFFF" points="11,7 10,7 9.8,2 10.7,2 		"/>
	</g>
	<g>
		<polygon fill="#FFFFFF" points="13,7 12,7 11.5,2 12.4,2 		"/>
	</g>
	<g>
		<polygon fill="#FFFFFF" points="15,7 14,7 13.3,2 14.1,2 		"/>
	</g>
	<polygon opacity="0.2" points="2.7,3 14.3,3 14.3,3 15.2,3 15,2 2,2 1.8,3 	"/>
</g>
<g>
	<rect x="4" y="9" fill="#5599FF" width="5" height="4"/>
	<path fill="#515151" d="M8.5,9.5v3h-4v-3H8.5 M9,9H4v4h5V9L9,9z"/>
	<g opacity="0.2">
		<rect x="4.5" y="9.5" fill="#FFFFFF" width="4" height="1"/>
	</g>
</g>
</svg>
