<svg xmlns="http://www.w3.org/2000/svg" version="1.1" viewBox="0 0 16 16">
<path fill="#666666" d="M10,3c0.6,0,1,0.4,1,1v1H5V4c0-0.6,0.4-1,1-1H10 M10,2H6C4.9,2,4,2.9,4,4v1c0,0.6,0.4,1,1,1h6
	c0.6,0,1-0.4,1-1V4C12,2.9,11.1,2,10,2L10,2z"/>
<rect x="1" y="4" fill="#9F6358" width="14" height="10"/>
<path fill="#6F453D" d="M14,5v8H2V5H14 M15,4H1v10h14V4L15,4z"/>
<polygon fill="#BC928A" points="11,9 5,9 1,4 15,4 "/>
<path fill="#6F453D" d="M12.9,5l-2.4,3h-5L3.1,5H12.9 M15,4H1l4,5h6L15,4L15,4z"/>
<rect x="6" y="8" fill="#402823" width="1" height="2"/>
<rect x="9" y="8" fill="#402823" width="1" height="2"/>
</svg>
