<?xml version="1.0" encoding="utf-8"?>
<!-- Generator: Adobe Illustrator 19.1.1, SVG Export Plug-In . SVG Version: 6.00 Build 0)  -->
<svg version="1.1" id="Ebene_1" xmlns="http://www.w3.org/2000/svg" xmlns:xlink="http://www.w3.org/1999/xlink" x="0px" y="0px"
	 viewBox="0 0 16 16" enable-background="new 0 0 16 16" xml:space="preserve">
<path fill="#FFFFFF" d="M1,1h14v14H1V1z"/>
<path fill="#999999" d="M1,1v14h14V1H1z M2,2h12v12H2V2z"/>
<path fill="#666666" d="M3,3h10v2H3V3z"/>
<path fill="#FF8700" d="M3,6h1v1H3V6z M3,8h1v1H3V8z M3,10h1v1H3V10z M3,12h1v1H3V12z"/>
<path fill="#B9B9B9" d="M5,6h8v1H5V6z M5,8h8v1H5V8z M5,10h8v1H5V10z M5,12h8v1H5V12z"/>
</svg>
