<?xml version="1.0" encoding="utf-8"?>
<!-- Generator: Adobe Illustrator 24.0.2, SVG Export Plug-In . SVG Version: 6.00 Build 0)  -->
<svg version="1.1" id="Ebene_1" xmlns="http://www.w3.org/2000/svg" xmlns:xlink="http://www.w3.org/1999/xlink" x="0px" y="0px"
	 viewBox="0 0 16 16" style="enable-background:new 0 0 16 16;" xml:space="preserve">
<style type="text/css">
	.st0{fill:#FFFFFF;}
	.st1{fill:#666666;}
	.st2{fill:#999999;}
	.st3{fill:#B9B9B9;}
	.st4{fill:#5599FF;}
	.st5{fill:#FFC857;}
</style>
<path class="st0" d="M4,3h10v12H4V3z"/>
<path class="st1" d="M4,3v12h10V3H4z M5,4h8v10H5V4z"/>
<rect x="5" y="4" class="st2" width="8" height="1"/>
<rect x="2" y="1" class="st3" width="1" height="1"/>
<rect x="2" y="3" class="st3" width="1" height="1"/>
<rect x="2" y="5" class="st3" width="1" height="1"/>
<rect x="2" y="7" class="st3" width="1" height="1"/>
<rect x="2" y="9" class="st3" width="1" height="1"/>
<rect x="2" y="11" class="st3" width="1" height="1"/>
<rect x="4" y="1" class="st3" width="1" height="1"/>
<rect x="6" y="1" class="st3" width="1" height="1"/>
<rect x="8" y="1" class="st3" width="1" height="1"/>
<rect x="10" y="1" class="st3" width="1" height="1"/>
<circle class="st4" cx="9" cy="10" r="3"/>
<path class="st5" d="M9,10h3c0-1.7-1.3-3-3-3V10z"/>
</svg>
