<?xml version="1.0" encoding="utf-8"?>
<!-- Generator: Adobe Illustrator 25.4.1, SVG Export Plug-In . SVG Version: 6.00 Build 0)  -->
<svg version="1.1" id="Ebene_1" xmlns="http://www.w3.org/2000/svg" xmlns:xlink="http://www.w3.org/1999/xlink" x="0px" y="0px"
	 viewBox="0 0 16 16" enable-background="new 0 0 16 16" xml:space="preserve">
<g>
	<path fill="#EFEFEF" d="M14,15H2V1.2C2,1.1,2.1,1,2.2,1h11.5C13.9,1,14,1.1,14,1.2V15z"/>
	<path fill="#999999" enable-background="new    " d="M13,2v12H3V2H13 M13.8,1H2.2C2.1,1,2,1.1,2,1.2V15h12V1.2
		C14,1.1,13.9,1,13.8,1L13.8,1z"/>
	<rect x="1" y="14" fill="#515151" width="14" height="1"/>
	<rect x="7" y="12" fill="#8C8C8C" width="2" height="2"/>
	<rect x="4" y="3" fill="#313131" width="2" height="1"/>
	<rect x="10" y="3" fill="#313131" width="2" height="1"/>
	<rect x="10" y="5" fill="#313131" width="2" height="1"/>
	<rect x="4" y="5" fill="#313131" width="2" height="1"/>
	<rect x="4" y="7" fill="#313131" width="2" height="1"/>
	<rect x="7" y="3" fill="#313131" width="2" height="1"/>
	<rect x="7" y="5" fill="#313131" width="2" height="1"/>
	<rect x="7" y="7" fill="#313131" width="2" height="1"/>
	<rect x="10" y="7" fill="#313131" width="2" height="1"/>
	<rect x="4" y="9" fill="#313131" width="2" height="1"/>
	<rect x="7" y="9" fill="#313131" width="2" height="1"/>
	<rect x="10" y="9" fill="#313131" width="2" height="1"/>
</g>
</svg>
