<?xml version="1.0" encoding="utf-8"?>
<!-- Generator: Adobe Illustrator 21.0.0, SVG Export Plug-In . SVG Version: 6.00 Build 0)  -->
<svg version="1.1" id="Ebene_1" xmlns="http://www.w3.org/2000/svg" xmlns:xlink="http://www.w3.org/1999/xlink" x="0px" y="0px"
	 viewBox="0 0 16 16" enable-background="new 0 0 16 16" xml:space="preserve">
<g>
	<rect x="1" y="9" fill="#5599FF" width="6" height="6"/>
	<path opacity="0.2" d="M1,9v6h6V9H1z M6,14H2v-4h4V14z"/>
	<path fill="#FFFFFF" d="M3,11h2v1H3V11z"/>
	<rect x="3" y="12" opacity="0.5" fill="#FFFFFF" width="2" height="1"/>
</g>
<g>
	<rect x="9" y="9" fill="#663399" width="6" height="6"/>
	<path opacity="0.2" d="M9,9v6h6V9H9z M14,14h-4v-4h4V14z"/>
	<path fill="#FFFFFF" d="M11,11h2v1h-2V11z"/>
	<rect x="11" y="12" opacity="0.5" fill="#FFFFFF" width="2" height="1"/>
</g>
<g>
	<g>
		<rect x="4" y="1" fill="#999999" width="8" height="7"/>
		<rect x="5" y="2" fill="#FFFFFF" width="6" height="5"/>
		<path fill="#515151" d="M6,3h4v1H6V3z"/>
		<rect x="6" y="5" fill="#B9B9B9" width="4" height="1"/>
	</g>
</g>
<rect x="1" y="3" opacity="0.2" width="1" height="1"/>
<rect x="3" y="3" opacity="0.2" width="1" height="1"/>
<rect x="1" y="5" opacity="0.2" width="1" height="1"/>
<rect x="1" y="7" opacity="0.2" width="1" height="1"/>
<rect x="14" y="3" opacity="0.2" width="1" height="1"/>
<rect x="12" y="3" opacity="0.2" width="1" height="1"/>
<rect x="14" y="5" opacity="0.2" width="1" height="1"/>
<rect x="14" y="7" opacity="0.2" width="1" height="1"/>
</svg>
