<?xml version="1.0" encoding="utf-8"?>
<!-- Generator: Adobe Illustrator 25.4.1, SVG Export Plug-In . SVG Version: 6.00 Build 0)  -->
<svg version="1.1" xmlns="http://www.w3.org/2000/svg" xmlns:xlink="http://www.w3.org/1999/xlink" x="0px" y="0px"
	 viewBox="0 0 16 16" enable-background="new 0 0 16 16" xml:space="preserve">
<path fill="#323232" d="M14.5,2h-13C1.2,2,1,2.2,1,2.5v9C1,11.8,1.2,12,1.5,12H6v1H4v1h2h4h2v-1h-2v-1h4.5c0.3,0,0.5-0.2,0.5-0.5v-9
	C15,2.2,14.8,2,14.5,2z M14,11H2V3h12V11z"/>
<rect x="4" y="13" opacity="5.000000e-02" fill="#FFFFFF" width="8" height="1"/>
<rect x="6" y="12" opacity="0.15" fill="#FFFFFF" width="4" height="1"/>
<rect x="2" y="3" fill="#5599FF" width="12" height="8"/>
<rect x="2" y="3" opacity="0.15" fill="#FFFFFF" width="12" height="1"/>
</svg>
