<svg xmlns="http://www.w3.org/2000/svg" version="1.1" viewBox="0 0 16 16">
<rect x="1" y="3" fill="#CCCCCC" width="14" height="10"/>
<path fill="#999999" d="M14,4v8H2V4H14 M15,3H1v10h14V3L15,3z"/>
<rect x="3" y="2" fill="#FFFFFF" width="10" height="12"/>
<path fill="#666666" d="M12,3v10H4V3H12 M13,2H3v12h10V2L13,2z"/>
<g>
	<path fill="#5599FF" d="M5,4h6v8H5V4z"/>
	<path fill="#E9F2FF" d="M11,5.7c-0.1-0.1-0.3-0.2-0.5-0.2c-0.6,0-1,0.4-1,1s0.4,1,1,1c0.2,0,0.4-0.1,0.5-0.2V5.7z"/>
	<polygon fill="#E9F2FF" points="9.5,9 7.5,12 11,12 11,11 	"/>
	<polygon fill="#AACCFF" points="5,9.8 5,12 9.5,12 6.5,7.5 	"/>
</g>
</svg>
