<?xml version="1.0" encoding="utf-8"?>
<!-- Generator: Adobe Illustrator 24.1.3, SVG Export Plug-In . SVG Version: 6.00 Build 0)  -->
<svg version="1.1" id="Ebene_1" xmlns="http://www.w3.org/2000/svg" xmlns:xlink="http://www.w3.org/1999/xlink" x="0px" y="0px"
	 viewBox="0 0 16 16" enable-background="new 0 0 16 16" xml:space="preserve">
<path fill="#FFFFFF" d="M1,1h14v14H1V1z"/>
<path fill="#999999" d="M1,1v14h14V1H1z M2,2h12v12H2V2z"/>
<rect x="5" y="12" fill="#B9B9B9" width="8" height="1"/>
<rect x="5" y="6" fill="#B9B9B9" width="8" height="1"/>
<rect x="7" y="8" fill="#B9B9B9" width="6" height="1"/>
<path fill="#B9B9B9" d="M7,10h6v1H7V10z"/>
<path fill="#666666" d="M3,3h10v2H3V3z"/>
<rect x="3" y="6" fill="#FF8700" width="1" height="1"/>
<rect x="5" y="8" fill="#FF8700" width="1" height="1"/>
<rect x="5" y="10" fill="#FF8700" width="1" height="1"/>
<rect x="3" y="12" fill="#FF8700" width="1" height="1"/>
</svg>
