<?xml version="1.0" encoding="utf-8"?>
<!-- Generator: Adobe Illustrator 25.4.1, SVG Export Plug-In . SVG Version: 6.00 Build 0)  -->
<svg version="1.1" xmlns="http://www.w3.org/2000/svg" xmlns:xlink="http://www.w3.org/1999/xlink" x="0px" y="0px"
	 viewBox="0 0 16 16" enable-background="new 0 0 16 16">
<g>
	<path fill="#FFFFFF" d="M1,3h14v10H1V3z"/>
	<rect x="1" y="14" fill="#B9B9B9" width="2" height="1"/>
	<rect x="4" y="14" fill="#B9B9B9" width="2" height="1"/>
	<rect x="10" y="14" fill="#B9B9B9" width="2" height="1"/>
	<rect x="13" y="14" fill="#B9B9B9" width="2" height="1"/>
	<rect x="7" y="14" fill="#B9B9B9" width="2" height="1"/>
	<rect x="1" y="1" fill="#B9B9B9" width="2" height="1"/>
	<rect x="4" y="1" fill="#B9B9B9" width="2" height="1"/>
	<rect x="10" y="1" fill="#B9B9B9" width="2" height="1"/>
	<rect x="13" y="1" fill="#B9B9B9" width="2" height="1"/>
	<rect x="7" y="1" fill="#B9B9B9" width="2" height="1"/>
	<path fill="#666666" d="M1,3v10h14V3H1z M2,4h12v8H2V4z"/>
	<rect x="3" y="5" fill="#B9B9B9" width="1.818" height="6"/>
	<rect x="8.455" y="5" fill="#B9B9B9" width="1.818" height="6"/>
	<rect x="11.182" y="5" fill="#B9B9B9" width="1.818" height="6"/>
	<rect x="5.727" y="5" fill="#B9B9B9" width="1.818" height="6"/>
</g>
</svg>
