<?xml version="1.0" encoding="utf-8"?>
<!-- Generator: Adobe Illustrator 21.0.0, SVG Export Plug-In . SVG Version: 6.00 Build 0)  -->
<svg version="1.1" id="Ebene_1" xmlns="http://www.w3.org/2000/svg" xmlns:xlink="http://www.w3.org/1999/xlink" x="0px" y="0px"
	 viewBox="0 0 16 16" style="enable-background:new 0 0 16 16;" xml:space="preserve">
<style type="text/css">
	.st0{fill:#FFFFFF;}
	.st1{fill:#999999;}
	.st2{fill:#B9B9B9;}
	.st3{fill:#666666;}
	.st4{fill:#FF8700;}
</style>
<path class="st0" d="M1,1h14v14H1V1z"/>
<path class="st1" d="M1,1v14h14V1H1z M2,2h12v12H2V2z"/>
<rect x="5" y="12" class="st2" width="8" height="1"/>
<rect x="5" y="6" class="st2" width="8" height="1"/>
<rect x="7" y="8" class="st2" width="6" height="1"/>
<path class="st2" d="M7,10h6v1H7V10z"/>
<path class="st3" d="M3,3h10v2H3V3z"/>
<rect x="3" y="6" class="st4" width="1" height="1"/>
<rect x="5" y="8" class="st4" width="1" height="1"/>
<rect x="5" y="10" class="st4" width="1" height="1"/>
<rect x="3" y="12" class="st4" width="1" height="1"/>
</svg>
