<?xml version="1.0" encoding="UTF-8" standalone="no"?>
<svg
   xmlns:dc="http://purl.org/dc/elements/1.1/"
   xmlns:cc="http://creativecommons.org/ns#"
   xmlns:rdf="http://www.w3.org/1999/02/22-rdf-syntax-ns#"
   xmlns:svg="http://www.w3.org/2000/svg"
   xmlns="http://www.w3.org/2000/svg"
   xml:space="preserve"
   enable-background="new 0 0 16 16"
   viewBox="0 0 16 16"
   y="0px"
   x="0px"
   id="Ebene_1"
   version="1.1"><metadata
     id="metadata23"><rdf:RDF><cc:Work
         rdf:about=""><dc:format>image/svg+xml</dc:format><dc:type
           rdf:resource="http://purl.org/dc/dcmitype/StillImage" /><dc:title></dc:title></cc:Work></rdf:RDF></metadata><defs
     id="defs21"><clipPath
       clipPathUnits="userSpaceOnUse"
       id="clipPath3391"><path
         d="M 0,600 800,600 800,0 0,0 0,600 Z"
         id="path3393" /></clipPath><clipPath
       clipPathUnits="userSpaceOnUse"
       id="clipPath3407"><path
         d="m 316,477.408 60.363,0 0,-60.408 -60.363,0 0,60.408 z"
         id="path3409" /></clipPath><clipPath
       clipPathUnits="userSpaceOnUse"
       id="clipPath3427"><path
         d="m 622,477.971 60.121,0 0,-59.971 -60.121,0 0,59.971 z"
         id="path3429" /></clipPath><clipPath
       id="clipPath3391-7"
       clipPathUnits="userSpaceOnUse"><path
         id="path3393-1"
         d="M 0,600 800,600 800,0 0,0 0,600 Z" /></clipPath><clipPath
       id="clipPath3407-6"
       clipPathUnits="userSpaceOnUse"><path
         id="path3409-4"
         d="m 316,477.408 60.363,0 0,-60.408 -60.363,0 0,60.408 z" /></clipPath><clipPath
       id="clipPath3427-8"
       clipPathUnits="userSpaceOnUse"><path
         id="path3429-3"
         d="m 622,477.971 60.121,0 0,-59.971 -60.121,0 0,59.971 z" /></clipPath></defs><g
     transform="translate(40,0)"
     id="g4321"><path
       d="m -39,1 14,0 0,14 -14,0 0,-14 z"
       id="path3"
       style="fill:#ffffff" /><path
       d="m -39,1 0,14 14,0 0,-14 -14,0 z m 1,1 12,0 0,12 -12,0 0,-12 z"
       id="path5"
       style="fill:#b9b9b9" /><rect
       x="-37"
       y="3"
       width="10"
       height="1"
       id="rect7"
       style="fill:#8c8c8c" /><rect
       x="-37"
       y="5"
       width="10"
       height="1"
       id="rect9"
       style="fill:#b9b9b9" /><g
       transform="translate(-79.5,0)"
       id="g4452"><path
         style="fill:#5599ff;fill-opacity:1"
         id="path11"
         d="m 44.5,7 6,0 0,6 -6,0 0,-6 z" /><path
         style="fill:#ffffff;fill-opacity:1;stroke:#ffaaaa;stroke-width:0;stroke-miterlimit:4;stroke-dasharray:none;stroke-opacity:1"
         id="path4138"
         d="m 48.500005,11.999995 -1.499998,0 -1.499997,0 0.749999,-0.999989 0.749998,-1.0000115 0.749999,1.0000115 z" /><path
         d="m 49.500004,11.999994 -1.33333,0 -1.333331,0 0.666666,-0.666659 0.666665,-0.666673 0.666665,0.666673 z"
         id="path4144"
         style="fill:#ffffff;fill-opacity:1;stroke:#ffaaaa;stroke-width:0;stroke-miterlimit:4;stroke-dasharray:none;stroke-opacity:1" /><ellipse
         ry="0.49999803"
         rx="0.49999806"
         style="fill:#ffffff;fill-opacity:1;stroke:#ffaaaa;stroke-width:0;stroke-miterlimit:4;stroke-dasharray:none;stroke-opacity:1"
         id="path4146"
         cx="49.000004"
         cy="9.4999971" /></g></g></svg>