<svg xmlns="http://www.w3.org/2000/svg" version="1.1" viewBox="0 0 16 16">
<g>
	<polygon fill="#5599FF" points="11,15 8.111,14 5,15 5,9 11,9 	"/>
	<path opacity="0.2" fill="#212121" d="M10,10v3.596l-1.562-0.541l-0.315-0.109l-0.318,0.102L6,13.628V10H10 M11,9H5v6l3.111-1
		L11,15V9L11,9z"/>
	<path fill="#FFC857" d="M8,0.75c-0.474,0-0.93,0.186-1.269,0.514C6.585,1.228,6.436,1.209,6.286,1.209
		c-0.812,0-1.532,0.551-1.752,1.324C4.08,2.662,3.69,2.964,3.453,3.375C3.216,3.786,3.149,4.274,3.265,4.731
		C2.936,5.07,2.75,5.526,2.75,6c0,0.474,0.186,0.93,0.515,1.269C3.149,7.726,3.216,8.215,3.453,8.625
		C3.69,9.036,4.08,9.338,4.533,9.467c0.221,0.774,0.94,1.324,1.752,1.324c0.15,0,0.3-0.019,0.446-0.055
		C7.07,11.064,7.526,11.25,8,11.25s0.93-0.186,1.269-0.514c0.146,0.037,0.295,0.055,0.446,0.055c0.812,0,1.532-0.551,1.752-1.324
		c0.454-0.129,0.843-0.431,1.08-0.842c0.237-0.411,0.304-0.899,0.189-1.356C13.064,6.93,13.25,6.474,13.25,6
		c0-0.474-0.186-0.93-0.515-1.269c0.115-0.457,0.048-0.946-0.189-1.356c-0.237-0.411-0.627-0.713-1.08-0.842
		c-0.221-0.774-0.94-1.324-1.752-1.324c-0.15,0-0.3,0.019-0.446,0.055C8.93,0.936,8.474,0.75,8,0.75L8,0.75z"/>
	<path fill="#E8A33D" d="M13.25,6c0-0.474-0.186-0.93-0.515-1.269c0.115-0.457,0.048-0.946-0.189-1.356s-0.627-0.713-1.08-0.842
		c-0.221-0.774-0.94-1.324-1.752-1.324c-0.15,0-0.3,0.019-0.446,0.055C8.93,0.936,8.474,0.75,8,0.75S7.07,0.936,6.731,1.264
		C6.585,1.228,6.436,1.209,6.286,1.209c-0.812,0-1.532,0.551-1.752,1.324C4.08,2.662,3.69,2.964,3.453,3.375
		S3.149,4.274,3.265,4.731C2.936,5.07,2.75,5.526,2.75,6c0,0.474,0.186,0.93,0.515,1.269C3.149,7.726,3.216,8.214,3.453,8.625
		s0.627,0.713,1.08,0.842c0.221,0.774,0.94,1.324,1.752,1.324c0.15,0,0.3-0.019,0.446-0.055C7.07,11.064,7.526,11.25,8,11.25
		s0.93-0.186,1.269-0.514c0.146,0.037,0.295,0.055,0.446,0.055c0.812,0,1.532-0.551,1.752-1.324c0.454-0.129,0.843-0.431,1.08-0.842
		s0.304-0.899,0.189-1.356C13.064,6.93,13.25,6.474,13.25,6z M12.037,6.691c-0.237,0.216-0.327,0.551-0.23,0.857l0,0
		C11.954,8.009,11.673,8.497,11.2,8.6h0c-0.314,0.069-0.559,0.314-0.627,0.627v0C10.469,9.701,9.981,9.982,9.52,9.835h0
		c-0.306-0.097-0.641-0.008-0.857,0.23c-0.326,0.358-0.889,0.358-1.215,0h0c-0.216-0.237-0.551-0.327-0.857-0.23
		C6.13,9.982,5.642,9.701,5.539,9.228v0C5.47,8.914,5.225,8.669,4.911,8.6h0C4.438,8.497,4.157,8.009,4.304,7.548v0
		c0.097-0.306,0.008-0.641-0.23-0.857h0c-0.358-0.326-0.358-0.889,0-1.215l0,0c0.237-0.216,0.327-0.551,0.23-0.857
		C4.157,4.157,4.438,3.67,4.911,3.566h0C5.225,3.498,5.47,3.253,5.539,2.939C5.642,2.466,6.13,2.184,6.591,2.331
		c0.306,0.097,0.641,0.008,0.857-0.23l0,0c0.326-0.358,0.889-0.358,1.215,0v0c0.216,0.237,0.551,0.327,0.857,0.23h0
		c0.461-0.147,0.949,0.135,1.052,0.608c0.069,0.314,0.314,0.559,0.627,0.627h0c0.473,0.103,0.754,0.591,0.608,1.052h0
		c-0.097,0.306-0.008,0.641,0.23,0.857v0C12.395,5.802,12.395,6.365,12.037,6.691z"/>
	<circle fill="#FFFFFF" opacity="0.5" cx="8" cy="6" r="2"/>
</g>
</svg>
