<?xml version="1.0" encoding="utf-8"?>
<!-- Generator: Adobe Illustrator 25.4.1, SVG Export Plug-In . SVG Version: 6.00 Build 0)  -->
<svg version="1.1" id="Ebene_1" xmlns="http://www.w3.org/2000/svg" xmlns:xlink="http://www.w3.org/1999/xlink" x="0px" y="0px"
	 viewBox="0 0 16 16" enable-background="new 0 0 16 16" xml:space="preserve">
<path fill="#C83C3C" d="M11.5,2C9,2,8,4,8,4S7,2,4.5,2C2.6,2,1,3.6,1,5.5c0,3.2,5.7,7.6,6.8,8.8c0.05,0.05,0.125,0.075,0.2,0.075
	S8.15,14.35,8.2,14.3C9.3,13.1,15,8.7,15,5.5C15,3.6,13.4,2,11.5,2L11.5,2z"/>
<path opacity="0.2" fill="#212121" d="M11.5,3C12.855,3,14,4.145,14,5.5c0,2.122-3.615,5.416-5.352,6.999
	C8.406,12.72,8.187,12.92,8,13.094c-0.189-0.177-0.407-0.375-0.648-0.595C5.615,10.916,2,7.622,2,5.5C2,4.145,3.145,3,4.5,3
	c1.822,0,2.579,1.397,2.606,1.447L7.982,6.18L8.89,4.456C8.921,4.397,9.678,3,11.5,3 M11.5,2C9,2,8,4,8,4S7,2,4.5,2
	C2.6,2,1,3.6,1,5.5c0,3.2,5.7,7.6,6.8,8.8c0.05,0.05,0.125,0.075,0.2,0.075S8.15,14.35,8.2,14.3C9.3,13.1,15,8.7,15,5.5
	C15,3.6,13.4,2,11.5,2L11.5,2z"/>
</svg>
