<svg xmlns="http://www.w3.org/2000/svg" viewBox="0 0 16 16">
<rect x="5" y="1" fill="#999999" width="9" height="11"/>
<rect x="6" y="2" fill="#FFF" width="7" height="9"/>
<g>
	<path fill="#5599FF" d="M7,3h5v7H7V3z"/>
	<path fill="#E9F2FF" d="M12,3.653C11.851,3.565,11.686,3.5,11.5,3.5c-0.552,0-1,0.448-1,1s0.448,1,1,1
		c0.186,0,0.351-0.065,0.5-0.153V3.653z"/>
	<polygon fill="#E9F2FF" points="11,7 9,10 12,10 12,8.5 	"/>
	<polygon fill="#AACCFF" points="7,7 7,10 11,10 8,5.5 	"/>
</g>
<rect x="2" y="4" fill="#666666" width="9" height="11"/>
<rect x="3" y="5" fill="#FFF" width="7" height="9"/>
<g>
	<path fill="#5599FF" d="M4,6h5v7H4V6z"/>
	<path fill="#E9F2FF" d="M9,6.653C8.851,6.565,8.686,6.5,8.5,6.5c-0.552,0-1,0.448-1,1s0.448,1,1,1c0.186,0,0.351-0.065,0.5-0.153
		V6.653z"/>
	<polygon fill="#E9F2FF" points="8,10 6,13 9,13 9,11.5 	"/>
	<polygon fill="#AACCFF" points="4,10 4,13 8,13 5,8.5 	"/>
</g>
</svg>