<?xml version="1.0" encoding="utf-8"?>
<!-- Generator: Adobe Illustrator 24.0.2, SVG Export Plug-In . SVG Version: 6.00 Build 0)  -->
<svg version="1.1" id="Ebene_1" xmlns="http://www.w3.org/2000/svg" xmlns:xlink="http://www.w3.org/1999/xlink" x="0px" y="0px"
	 viewBox="0 0 16 16" enable-background="new 0 0 16 16" xml:space="preserve">
<path fill="#FFFFFF" d="M4,3h10v12H4V3z"/>
<path fill="#666666" d="M4,3v12h10V3H4z M5,4h8v10H5V4z"/>
<rect x="5" y="4" fill="#999999" width="8" height="1"/>
<rect x="2" y="1" fill="#B9B9B9" width="1" height="1"/>
<rect x="2" y="3" fill="#B9B9B9" width="1" height="1"/>
<rect x="2" y="5" fill="#B9B9B9" width="1" height="1"/>
<rect x="2" y="7" fill="#B9B9B9" width="1" height="1"/>
<rect x="2" y="9" fill="#B9B9B9" width="1" height="1"/>
<rect x="2" y="11" fill="#B9B9B9" width="1" height="1"/>
<rect x="4" y="1" fill="#B9B9B9" width="1" height="1"/>
<rect x="6" y="1" fill="#B9B9B9" width="1" height="1"/>
<rect x="8" y="1" fill="#B9B9B9" width="1" height="1"/>
<rect x="10" y="1" fill="#B9B9B9" width="1" height="1"/>
<path fill="#FFC857" d="M12,13H6v-3l1.875-2l1.875,2L12,7.625C12,7.625,12,10.812,12,13z"/>
<path fill="#5599FF" d="M12,13H6v-1l1.875-2l1.875,2L12,9.625C12,9.625,12,10.812,12,13z"/>
</svg>
