<?xml version="1.0" encoding="utf-8"?>
<!-- Generator: Adobe Illustrator 19.1.0, SVG Export Plug-In . SVG Version: 6.00 Build 0)  -->
<svg version="1.1" id="Ebene_1" xmlns="http://www.w3.org/2000/svg" xmlns:xlink="http://www.w3.org/1999/xlink" x="0px" y="0px"
	 viewBox="0 0 16 16" enable-background="new 0 0 16 16" xml:space="preserve">
<path fill="#FFFFFF" d="M1,1h14v14H1V1z"/>
<path fill="#B9B9B9" d="M1,1v14h14V1H1z M2,2h12v12H2V2z"/>
<rect x="3" y="9" fill="#8C8C8C" width="10" height="2"/>
<rect x="3" y="12" fill="#B9B9B9" width="10" height="1"/>
<path fill="#EFEFEF" d="M7,3h6v5H7V3z"/>
<path fill="#B9B9B9" d="M7,3v5h6V3H7z M12,7H8V4h4V7z"/>
<polygon fill="#5599FF" points="11,6 10,6.5 9,5 8,6 8,7 12,7 12,6.5 "/>
<circle fill="#E8A33D" cx="11" cy="5" r="0.5"/>
</svg>
