<?xml version="1.0" encoding="utf-8"?>
<!-- Generator: Adobe Illustrator 21.1.0, SVG Export Plug-In . SVG Version: 6.00 Build 0)  -->
<svg version="1.1" id="Ebene_1" xmlns="http://www.w3.org/2000/svg" xmlns:xlink="http://www.w3.org/1999/xlink" x="0px" y="0px"
	 viewBox="0 0 16 16" enable-background="new 0 0 16 16" xml:space="preserve">
<path fill="#FFFFFF" d="M8,1C4.1,1,1,4.1,1,8s3.1,7,7,7s7-3.1,7-7S11.9,1,8,1z"/>
<path fill="#B9B9B9" d="M9.2,7.5l4.1-4.1c-0.1-0.1-0.2-0.3-0.3-0.4l0,0c-0.1-0.1-0.2-0.2-0.4-0.3L8.5,6.8V1C8.3,1,8.2,1,8,1
	S7.7,1,7.5,1v5.8L3.4,2.7C3.2,2.9,2.9,3.2,2.7,3.4l4.1,4.1H1C1,7.7,1,7.8,1,8s0,0.3,0,0.5h5.8l-4.1,4.1c0.2,0.3,0.5,0.5,0.7,0.7
	l4.1-4.1V15c0.2,0,0.3,0,0.5,0s0.3,0,0.5,0V9.2l4.1,4.1c0.3-0.2,0.5-0.5,0.7-0.7L9.2,8.5H15c0-0.2,0-0.3,0-0.5s0-0.3,0-0.5H9.2z"/>
<circle fill="#FFFFFF" cx="8" cy="8" r="5"/>
<path fill="#515151" d="M8,2c3.3,0,6,2.7,6,6s-2.7,6-6,6s-6-2.7-6-6S4.7,2,8,2 M8,1C4.1,1,1,4.1,1,8s3.1,7,7,7s7-3.1,7-7S11.9,1,8,1
	L8,1z"/>
<path fill="#C83C3C" d="M7.7,7.2l0.7,1.6l3.1-1.6c-0.1-0.3-0.2-0.6-0.4-0.9L7.7,7.2z"/>
<path fill="#515151" d="M4.7,5.4l2.7,3.2l1.2-1.2L5.4,4.7C5.1,4.9,4.9,5.1,4.7,5.4z"/>
<path fill="#515151" d="M8,7.1C7.5,7.1,7.1,7.5,7.1,8S7.5,8.9,8,8.9S8.9,8.5,8.9,8S8.5,7.1,8,7.1L8,7.1z"/>
<circle fill="#FFFFFF" cx="8" cy="8" r="0.5"/>
</svg>
