<?xml version="1.0" encoding="utf-8"?>
<!-- Generator: Adobe Illustrator 25.4.1, SVG Export Plug-In . SVG Version: 6.00 Build 0)  -->
<svg version="1.1" id="Ebene_1" xmlns="http://www.w3.org/2000/svg" xmlns:xlink="http://www.w3.org/1999/xlink" x="0px" y="0px"
	 viewBox="0 0 16 16" enable-background="new 0 0 16 16" xml:space="preserve">
<path fill="#8C8C8C" d="M14.5,12.1c-1.7-0.5-2.9-1.1-4-1.6c0.1,0.2,0.1,0.4-0.1,0.5c-1.2,1.3-3.7,1.2-4.8,0c-0.1-0.1-0.1-0.3,0-0.5
	c-1.2,0.5-2.4,1.1-4.1,1.6c0,0-1.4,0.8-1.5,3.9h8h8C15.9,12.8,14.5,12.1,14.5,12.1z"/>
<path opacity="0.15" fill="#212121" enable-background="new    " d="M1.1,15c0.2-1.3,0.7-1.8,0.9-2c1.1-0.3,2-0.7,2.8-1.1
	c0.1,0,0.2-0.1,0.3-0.1c0.7,0.7,1.8,1.1,3,1.1c1.2,0,2.3-0.4,3-1.1c0.1,0,0.2,0.1,0.3,0.1c0.8,0.4,1.7,0.7,2.8,1.1
	c0.2,0.1,0.6,0.7,0.8,2l0.1,1h1c-0.1-3.2-1.5-3.9-1.5-3.9c-1.7-0.5-2.9-1.1-4-1.6c0.1,0.2,0.1,0.4-0.1,0.5c-0.6,0.6-1.5,0.9-2.4,0.9
	c-0.9,0-1.9-0.3-2.4-0.9c-0.1-0.1-0.1-0.3,0-0.5c-1.2,0.5-2.4,1.1-4.1,1.6c0,0-1.4,0.8-1.5,3.9h1L1.1,15z"/>
<path fill="#FFC857" d="M8,9C7.3,9,6.6,8.6,6,8l0,0l0,0c0,2.4-0.8,2.6-0.4,3c1.1,1.2,3.6,1.3,4.8,0c0.4-0.4-0.3-0.6-0.4-3
	C9.4,8.6,8.7,9,8,9z"/>
<path fill="#E8A33D" enable-background="new    " d="M5.3,10.6c0.1,0,0.2-0.1,0.3-0.1c-0.1,0.2-0.1,0.4,0,0.5
	c0.1,0.1,0.3,0.3,0.5,0.4l0.3-0.1l0.2-0.4l0-0.1c0.1-0.3,0.3-1,0.4-2C6.6,8.5,6.3,8.3,6,8l0,0c0,1.5-0.3,2.1-0.4,2.5
	C5.5,10.5,5.4,10.6,5.3,10.6z"/>
<path fill="#E8A33D" enable-background="new    " d="M9.5,10.8l0.1,0.5l0.3,0.1c0.2-0.1,0.3-0.2,0.5-0.4c0.1-0.1,0.1-0.3,0.1-0.5
	c0,0,0,0,0,0c-0.1-0.4-0.4-1-0.4-2.5c-0.3,0.3-0.6,0.5-1,0.7c0.1,1,0.3,1.6,0.4,2L9.5,10.8z"/>
<path fill="#FFC857" d="M8,9C6.3,9,4.6,6.7,4.6,5.1V2.9C4.6,1.3,6,0,7.6,0h0.8c1.7,0,3,1.3,3,2.9v2.2C11.4,6.7,9.7,9,8,9L8,9z"/>
<path fill="#E8A33D" enable-background="new    " d="M8.4,1c1.1,0,2,0.8,2,1.9v2.2C10.4,6.2,9.1,8,8,8S5.6,6.2,5.6,5.1V2.9
	c0-1,0.9-1.9,2-1.9L8.4,1 M8.4,0H7.6c-1.6,0-3,1.3-3,2.9v2.2C4.6,6.7,6.3,9,8,9s3.4-2.3,3.4-3.9V2.9C11.4,1.3,10.1,0,8.4,0L8.4,0z"
	/>
</svg>
