<svg xmlns="http://www.w3.org/2000/svg" version="1.1" viewBox="0 0 16 16">
<path d="M11,.9999928h-6c-1.1045699,0-2,.8954297-2,2.0000001v11.2614899c0,.2870607.2353342.5004883.499557.5004883.0613661,0,.1242397-.0114956.1861429-.0362577l4.0472403-2.5569897c.0815649-.0515299.1743121-.0772953.2670598-.0772953s.1854954.0257645.2670603.0772953l4.0472393,2.5569897c.0618839.0247536.1247959.0362577.1861429.0362577.2642479,0,.4995575-.2134066.4995575-.5004883V2.9999928c0-1.1045704-.8954296-2-2-2h0Z" fill="#c83c3c"/>
<path d="M11,1.9999928c.5514002,0,1,.4485998,1,1v10.3442907l-3.1988096-2.0209608c-.2401199-.1517096-.51717-.2319002-.8011904-.2319002-.2839899,0-.5610199.0801802-.8011799.2318897l-3.1988201,2.0209694V2.9999928c0-.5514002.4485998-1,1-1h6M11,.9999928h-6c-1.1045699,0-2,.8954297-2,2.0000001v11.2614899c0,.2870607.2353342.5004883.499557.5004883.0613661,0,.1242397-.0114956.1861429-.0362577l4.0472403-2.5569897c.0815649-.0515299.1743121-.0772953.2670598-.0772953s.1854954.0257645.2670603.0772953l4.0472393,2.5569897c.0618839.0247536.1247959.0362577.1861429.0362577.2642479,0,.4995575-.2134066.4995575-.5004883V2.9999928c0-1.1045704-.8954296-2-2-2h0Z" opacity=".2"/>
</svg>
