<svg xmlns="http://www.w3.org/2000/svg" width="16" height="16" viewBox="0 0 16 16"><path d="M2 0v16h12V4l-4-4H2zm8 0l4 .02V0h-4z" fill="#33acdf"/><path d="M10 3.98V0l4 4z" fill="#fff" opacity=".65"/><path d="M14 4.024V9l-4-5z" opacity=".15"/><g style="line-height:125%" font-size="13.75" font-family="sans-serif" letter-spacing="0" word-spacing="0" fill="#fff"><path d="M7.026 12.45V13H6.79q-.954 0-1.28-.283-.32-.283-.32-1.13v-.913q0-.578-.207-.8-.206-.222-.75-.222H4v-.547h.233q.547 0 .75-.218.207-.222.207-.792v-.918q0-.846.32-1.125.326-.283 1.28-.283h.236v.546h-.26q-.54 0-.704.168-.164.17-.164.708v.95q0 .6-.176.87-.173.273-.593.37.423.102.595.374.173.27.173.868v.95q0 .538.164.707.165.17.704.17h.26zM8.974 12.45h.268q.535 0 .696-.165.164-.165.164-.712v-.95q0-.596.173-.867.172-.272.596-.375-.423-.095-.595-.367-.173-.27-.173-.872v-.948q0-.543-.164-.708-.16-.168-.696-.168h-.268V5.77h.24q.953 0 1.27.282.322.28.322 1.125v.918q0 .57.207.792.207.218.75.218H12v.547h-.237q-.543 0-.75.222-.207.222-.207.8v.914q0 .846-.32 1.13-.32.282-1.27.282h-.242v-.55z"/></g></svg>