<svg xmlns="http://www.w3.org/2000/svg" viewBox="0 0 16 16" id="svg2"><defs id="defs20"><clipPath id="clipPath3391"><path id="path3393" d="M0 600h800V0H0v600z"/></clipPath><clipPath id="clipPath3407"><path id="path3409" d="M316 477.408h60.363V417H316v60.408z"/></clipPath><clipPath id="clipPath3427"><path id="path3429" d="M622 477.97h60.12V418H622v59.97z"/></clipPath><clipPath id="clipPath3391-7"><path d="M0 600h800V0H0v600z" id="path3393-8"/></clipPath><clipPath id="clipPath3407-0"><path d="M316 477.408h60.363V417H316v60.408z" id="path3409-3"/></clipPath><clipPath id="clipPath3427-9"><path d="M622 477.97h60.12V418H622v59.97z" id="path3429-3"/></clipPath><clipPath id="clipPath3391-5"><path d="M0 600h800V0H0v600z" id="path3393-6"/></clipPath><clipPath id="clipPath3407-6"><path d="M316 477.408h60.363V417H316v60.408z" id="path3409-6"/></clipPath><clipPath id="clipPath3427-0"><path d="M622 477.97h60.12V418H622v59.97z" id="path3429-8"/></clipPath><clipPath id="clipPath3391-8"><path id="path3393-83" d="M0 600h800V0H0v600z"/></clipPath><clipPath id="clipPath3407-2"><path id="path3409-2" d="M316 477.408h60.363V417H316v60.408z"/></clipPath><clipPath id="clipPath3427-2"><path id="path3429-34" d="M622 477.97h60.12V418H622v59.97z"/></clipPath><clipPath id="clipPath3391-25"><path d="M0 600h800V0H0v600z" id="path3393-0"/></clipPath><clipPath id="clipPath3407-27"><path d="M316 477.408h60.363V417H316v60.408z" id="path3409-1"/></clipPath><clipPath id="clipPath3427-93"><path d="M622 477.97h60.12V418H622v59.97z" id="path3429-7"/></clipPath><clipPath id="clipPath3391-2"><path id="path3393-9" d="M0 600h800V0H0v600z"/></clipPath><clipPath id="clipPath3407-9"><path id="path3409-0" d="M316 477.408h60.363V417H316v60.408z"/></clipPath><clipPath id="clipPath3427-8"><path id="path3429-5" d="M622 477.97h60.12V418H622v59.97z"/></clipPath></defs><g id="g6705" fill="#951a40"><g id="g4141"><g id="g4237" stroke-width="0" stroke-linejoin="round"><path id="rect4171" d="M2 0v16h12V4l-4-4zm8 0z" stroke="#b9b9b9"/><path d="M10 3.98V0l4 4z" id="path4178" opacity=".65"/><path id="path4446" d="M14 4.024V9l-4-5z" opacity=".15"/></g></g></g><path d="M10 4V0l4 4h-4z" id="path6" fill="#fff" opacity=".65"/><path id="path4446-1" d="M14 4.024V9l-4-5z" opacity=".15" stroke-width="0" stroke-linejoin="round"/><style id="style9465">.st0{fill:#FFEDCF;} .st1{fill:#333333;} .st2{fill:#FF8700;} .st3{fill:#B9B9B9;} .st4{fill:#C83C3C;} .st5{fill:#666666;}</style><g id="g4778"><path d="M11.8 8H4.3c-.138 0-.25-.112-.25-.25v-1.5c0-.138.112-.25.25-.25h7.5c.138 0 .25.112.25.25v1.5c0 .138-.112.25-.25.25z" id="path4634" fill="#fff"/><path id="rect4636" fill="#951a40" d="M11.05 7h.5v.5h-.5z"/><path id="rect4638" fill="#951a40" d="M10.05 7h.5v.5h-.5z"/><path d="M11.8 10.5H4.3c-.138 0-.25-.112-.25-.25v-1.5c0-.138.112-.25.25-.25h7.5c.138 0 .25.112.25.25v1.5c0 .138-.112.25-.25.25z" id="path4642" fill="#fff"/><path id="rect4644" fill="#951a40" d="M11.05 9.5h.5v.5h-.5z"/><path id="rect4646" fill="#951a40" d="M10.05 9.5h.5v.5h-.5z"/><path d="M11.8 14H4.3c-.138 0-.25-.112-.25-.25v-2.5c0-.138.112-.25.25-.25h7.5c.138 0 .25.112.25.25v2.5c0 .138-.112.25-.25.25z" id="path4650" fill="#fff"/><path id="rect4652" fill="#951a40" d="M11.05 13h.5v.5h-.5z"/><path id="rect4654" fill="#951a40" d="M10.05 13h.5v.5h-.5z"/></g></svg>