<svg xmlns="http://www.w3.org/2000/svg" viewBox="0 0 16 16"><path fill="#FFF" d="M1.5 1h13c.28 0 .5.22.5.5v13c0 .28-.22.5-.5.5h-13c-.28 0-.5-.22-.5-.5v-13c0-.28.22-.5.5-.5z"/><path fill="#8C8C8C" d="M14 2v12H2V2h12M1 1.5v13c0 .28.22.5.5.5h13c.28 0 .5-.22.5-.5v-13c0-.28-.22-.5-.5-.5h-13c-.28 0-.5.22-.5.5z"/><path fill="#8C8C8C" d="M3 3h10v2H3z"/><path fill="#B9B9B9" d="M7 6h2v1H7zM7 8h2v1H7zM7 10h2v1H7zM7 12h2v1H7zM10 6h3v1h-3zM10 8h3v1h-3zM10 10h3v1h-3zM10 12h3v1h-3zM3 6h3v1H3zM3 8h3v1H3zM3 10h3v1H3zM3 12h3v1H3z"/></svg>