<svg xmlns="http://www.w3.org/2000/svg" viewBox="0 0 16 16" height="16" width="16"><path d="M2 0v16h12V4l-4-4zm8 0z" fill="#efefef" stroke="#b9b9b9" stroke-width="0" stroke-linejoin="round"/><path d="M10 3.98V0l4 4z" opacity=".65" fill="#fff" stroke-width="0" stroke-linejoin="round"/><path d="M13 5.024V10L9 5z" opacity=".15" stroke-width="0" stroke-linejoin="round"/><path d="M2 0v16h12V4h-.012l.004-.008L10.008.006 10 .014V0H2zm1 1h6v4h4v10H3V1zm7 .412L12.586 4H10V1.412z" fill="#b9b9b9"/><g transform="matrix(.75 0 0 .75 -21.343 -774.443)" stroke="#faa" stroke-width="0"><path d="M10.02 1043.785H-.645l2.666-4.618 2.667-4.618 2.667 4.617z" transform="matrix(.563 0 0 .433 35.487 597.89)" fill="#59f"/><path transform="matrix(.5 0 0 .29 38.114 748.568)" d="M10.02 1043.785H-.645l2.666-4.618 2.667-4.618 2.667 4.617z" fill="#59f"/><circle cx="40.857" cy="1044.925" r="1" fill="#e8a33d"/></g></svg>