<svg xmlns="http://www.w3.org/2000/svg" width="16" height="16" viewBox="0 0 16 16"><path d="M2.5.5v15h11V4.25L9.833.5zm7.333 0v.018V.5z" fill="#efefef" stroke="#b9b9b9"/><path d="M14 4.022V9L9.6 3.997z" opacity=".15"/><path fill="#b9b9b9" d="M8.6.5h1V5h-1z"/><path fill="#b9b9b9" d="M14 4v1H8.6V4z"/><path d="M9.6 1.013l3 3h-3z" fill="#fff"/><g transform="matrix(.66667 0 0 .66667 -15.825 -686.762)"><path d="M38.737 1049.644h-9l2.25-3 2.25-3 2.25 3z" fill="#59f"/><path d="M41.737 1049.644h-8l2-2 2-2 2 2z" fill="#59f"/><circle r="1.5" cy="1042.144" cx="38.237" fill="#e8a33d"/></g></svg>