<svg xmlns="http://www.w3.org/2000/svg" viewBox="0 0 16 16" id="svg2"><defs id="defs20"><clipPath id="clipPath3391"><path id="path3393" d="M0 600h800V0H0v600z"/></clipPath><clipPath id="clipPath3407"><path id="path3409" d="M316 477.408h60.363V417H316v60.408z"/></clipPath><clipPath id="clipPath3427"><path id="path3429" d="M622 477.97h60.12V418H622v59.97z"/></clipPath><clipPath id="clipPath3391-7"><path d="M0 600h800V0H0v600z" id="path3393-8"/></clipPath><clipPath id="clipPath3407-0"><path d="M316 477.408h60.363V417H316v60.408z" id="path3409-3"/></clipPath><clipPath id="clipPath3427-9"><path d="M622 477.97h60.12V418H622v59.97z" id="path3429-3"/></clipPath><clipPath id="clipPath3391-5"><path d="M0 600h800V0H0v600z" id="path3393-6"/></clipPath><clipPath id="clipPath3407-6"><path d="M316 477.408h60.363V417H316v60.408z" id="path3409-6"/></clipPath><clipPath id="clipPath3427-0"><path d="M622 477.97h60.12V418H622v59.97z" id="path3429-8"/></clipPath><clipPath id="clipPath3391-8"><path id="path3393-83" d="M0 600h800V0H0v600z"/></clipPath><clipPath id="clipPath3407-2"><path id="path3409-2" d="M316 477.408h60.363V417H316v60.408z"/></clipPath><clipPath id="clipPath3427-2"><path id="path3429-34" d="M622 477.97h60.12V418H622v59.97z"/></clipPath><clipPath id="clipPath3391-25"><path d="M0 600h800V0H0v600z" id="path3393-0"/></clipPath><clipPath id="clipPath3407-27"><path d="M316 477.408h60.363V417H316v60.408z" id="path3409-1"/></clipPath><clipPath id="clipPath3427-93"><path d="M622 477.97h60.12V418H622v59.97z" id="path3429-7"/></clipPath><clipPath id="clipPath3391-2"><path id="path3393-9" d="M0 600h800V0H0v600z"/></clipPath><clipPath id="clipPath3407-9"><path id="path3409-0" d="M316 477.408h60.363V417H316v60.408z"/></clipPath><clipPath id="clipPath3427-8"><path id="path3429-5" d="M622 477.97h60.12V418H622v59.97z"/></clipPath></defs><g id="g6705" fill="#951a40"><g id="g4141"><g id="g4237" stroke-width="0" stroke-linejoin="round"><path id="rect4171" d="M2 0v16h12V4l-4-4zm8 0z" stroke="#b9b9b9"/><path d="M10 3.98V0l4 4z" id="path4178" opacity=".65"/><path id="path4446" d="M14 4.024V9l-4-5z" opacity=".15"/></g></g></g><path d="M10 4V0l4 4h-4z" id="path6" fill="#fff" opacity=".65"/><path id="path4446-1" d="M14 4.024V9l-4-5z" opacity=".15" stroke-width="0" stroke-linejoin="round"/><style id="style9465">.st0{fill:#FFEDCF;} .st1{fill:#333333;} .st2{fill:#FF8700;} .st3{fill:#B9B9B9;} .st4{fill:#C83C3C;} .st5{fill:#666666;}</style><g id="g4393" class="icon-color" fill="#0ff"><path id="rect4395" d="M-4.196 12.545h.714v.714h-.714z"/><path id="rect4397" d="M-2.768 12.545h.714v.714h-.714z"/><path id="rect4399" d="M-4.196 8.973h.714v.715h-.714z"/><path id="rect4401" d="M-2.768 8.973h.714v.715h-.714z"/><path id="rect4403" d="M-4.196 6.116h.714v.714h-.714z"/><path id="rect4405" d="M-2.768 6.116h.714v.714h-.714z"/><path id="path4407" d="M-.982 4.688h-9.286c-.197 0-.357.16-.357.357v9.285c0 .198.16.358.357.358h9.286c.197 0 .357-.16.357-.358V5.045c0-.197-.16-.357-.357-.357zm-.357 9.285h-8.57v-2.857h8.57v2.857zm0-3.57h-8.57V8.258h8.57V10.4zm-8.57-2.858V5.402h8.57v2.143h-8.57z"/></g><path id="rect4423" fill="#fff" stroke-width="0" stroke-linecap="square" d="M4 5.958h8v.6H4z"/><path id="rect4425" fill="#fff" stroke-width="0" stroke-linecap="square" d="M4 7.958h8v.6H4z"/><path id="rect4427" fill="#fff" stroke-width="0" stroke-linecap="square" d="M4 9.958h8v.6H4z"/><path id="rect4429" fill="#fff" stroke-width="0" stroke-linecap="square" d="M4 12.4h8v.6H4z"/><path id="rect4431" fill="#fff" stroke-width="0" stroke-linecap="square" d="M4.6 6v7H4V6z"/><path id="rect4433" fill="#fff" stroke-width="0" stroke-linecap="square" d="M12 6v7h-.6V6z"/></svg>