<svg xmlns="http://www.w3.org/2000/svg" viewBox="0 0 16 16" height="16" width="16"><path d="M2 0v16h12V4l-4-4zm8 0z" fill="#efefef"/><path d="M10 3.98V0l4 4z" opacity=".65" fill="#fff"/><path d="M13 5.024V10L9 5z" opacity=".15"/><path d="M2 0v16h12V4h-.012l.004-.008L10.008.006 10 .014V0H2zm1 1h6v4h4v10H3V1zm7 .412L12.586 4H10V1.412z" fill="#b9b9b9"/><g transform="matrix(.75 0 0 .75 -21.343 -774.443)"><path d="M41.124 1049.925h-6l1.5-2 1.5-2 1.5 2z" fill="#59f"/><path d="M43.124 1049.925H37.79l1.334-1.334 1.334-1.332 1.333 1.333z" fill="#59f"/><circle cx="40.857" cy="1044.925" r="1" fill="#e8a33d"/></g></svg>