<svg xmlns="http://www.w3.org/2000/svg" width="16" height="16" viewBox="0 0 16 16"><path d="M1 1h14v14H1z" fill="#fff" stroke-linecap="square"/><path d="M1 1v14h14V1H1zm1 1h12v12H2V2z" fill="#b9b9b9" stroke-linecap="square"/><g stroke-width="0"><path d="M4 8h8V7H4zM8.5 7V5h-1v2z" fill="#8c8c8c"/><path d="M-13.924 1038.22h3.98v1.74h-3.98z" fill="#79a548" stroke="#efefef" transform="matrix(1.00456 0 0 1.1482 19.988 -1189.08)"/><path d="M5 10.503V7.636H4v2.867zM12 10.503v-3h-1v3z" fill="#8c8c8c"/><path d="M-16.91 1044.75h2.986v1.742h-2.987z" fill="#ff8700" stroke="#efefef" transform="matrix(1.00456 0 0 1.1482 19.988 -1189.08)"/><path d="M-9.943 1044.75h2.987v1.742h-2.987z" fill="#c83c3c" stroke="#efefef" transform="matrix(1.00456 0 0 1.1482 19.988 -1189.08)"/></g></svg>