<svg xmlns="http://www.w3.org/2000/svg" width="16" height="16" viewBox="0 0 16 16"><path d="M2 0v16h12V4l-4-4H2zm8 0l4 .02V0h-4z" fill="red"/><path d="M10 3.98V0l4 4z" fill="#fff" opacity=".65"/><path d="M-117.584-42.445c-2.986-5.626-5.91-10.84-8.602-15.628 14.905 6.245 30.95 10.242 46.224 13.082-2.052 1.418-4.046 2.918-5.918 4.503-8.41 7.12-14.826 16.007-19.474 25.353-2.944-7.942-6.452-16.38-12.23-27.31m-5.668 2.9c4.33 8.49 9.253 18.053 13.19 27.657l1.563 3.794c-5.146 19.58-8.232 35.3-5.475 45.462.74 2.652 3.81 4.26 7.093 4.26l1.998-.03h.368c4.49.068 6.608-5.646 6.85-7.868.394-3.7-1.32-9.963-1.32-9.963 0 2.53.1 6.617-1.496 10.142-1.857 4.08-3.63 6.516-5.223 6.903-.805-.537-1.586-1.648-1.853-3.786-.552-2.998-.716-6.78-.716-8.73 0-6.89 1.352-15.983 4.017-25.358.506 1.45.95 2.846 1.302 4.152.543 2.06 4.022 15.712 4.022 15.712s-.877-18.17-2.1-23.67c-.26-1.162-.554-2.31-.854-3.487 4.395-12.283 11.48-23.246 19.93-31.137 3.332-3.113 7.54-5.623 11.522-7.913 8.697 1.244 16.706 1.83 23.386 1.758 8.862-.116 15.37-1.43 18.004-4.023 1.288-1.26 1.813-2.785 1.976-4.494.037-.664-.287-2.223-.38-2.613.093.472.093 2.805-7.02 5.074-5.603 1.794-16.093 1.737-28.674.397 14.555-7.12 28.735-10.658 33.23-8.536 1.096.537 2.43 2.36 2.43 2.36s-.793-3.597-1.362-4.496c-.725-.98-2.15-2.038-3.498-2.394-7.096-1.894-25.573 2.49-41.678 11.69-17.99-2.65-37.75-7.543-53.593-12.742-15.565-27.277-27.268-39.805-36.786-35.04l-3.504 1.76c-1.42.815-1.64 2.794-1.31 4.408 1.11 5.43 7.92 13.61 21.598 21.776 1.47.89 8.03 4.36 8.03 4.36s-4.854-4.7-5.992-5.622c-10.92-8.945-18.976-20.2-18.776-24.566l.04-.38c9.273 1.322 23.183 20.2 41.062 55.182" transform="matrix(.0541 0 0 -.0541 13.314 7.578)" fill="#fff" stroke="#fff" stroke-width="5.544"/><path d="M14 4.024V9l-4-5z" opacity=".15"/></svg>