<svg xmlns="http://www.w3.org/2000/svg" width="16" height="16" viewBox="0 0 16 16"><path d="M2 0v16h12V4l-4-4H2zm8 0l4 .02V0h-4z" fill="#d14524"/><path d="M10 3.98V0l4 4z" fill="#fff" opacity=".65"/><path d="M14 4.024V9l-4-5z" opacity=".15"/><path d="M6.5 5.89v3.006h1.36q.756 0 1.17-.392.41-.39.41-1.114 0-.718-.41-1.11-.414-.39-1.17-.39H6.5zM5.417 5H7.86q1.346 0 2.03.61.693.606.693 1.78 0 1.184-.692 1.79-.684.605-2.03.605H6.5V13H5.417V5z" style="line-height:125%" font-size="13.75" font-family="sans-serif" letter-spacing="0" word-spacing="0" fill="#fff"/></svg>