<svg xmlns="http://www.w3.org/2000/svg" viewBox="0 0 16 16" height="16" width="16"><path fill="#fff" stroke="#b9b9b9" stroke-width=".931" d="M1.5 1036.862h15v13h-15z" transform="matrix(1.0043 0 0 1.14852 -1.04 -1190.323)"/><g stroke-width="0"><path fill="#8c8c8c" d="M4 8h8V7H4zM8.5 7V5h-1v2z"/><path fill="#79a548" stroke="#efefef" d="M1.18 1036.148h1.364v4.106H1.18z" transform="matrix(2.93174 0 0 .7306 2.54 -755.014)"/><path fill="#8c8c8c" d="M5 10V8H4v2zM12 10V8h-1v2z"/><path fill="#ff8700" stroke="#efefef" d="M.157 1047.098H1.18v4.106H.157z" transform="matrix(2.93174 0 0 .7306 2.54 -755.014)"/><path fill="#c83c3c" stroke="#efefef" d="M2.545 1047.098h1.023v4.106H2.545z" transform="matrix(2.93174 0 0 .7306 2.54 -755.014)"/></g></svg>