<svg xmlns="http://www.w3.org/2000/svg" width="16" height="16" viewBox="0 0 16 16"><path d="M2 0v16h12V4l-4-4zm8 0z" fill="#515151"/><path d="M10 3.98V0l4 4z" opacity=".65" fill="#fff"/><g fill="#fff" transform="translate(3.05 5.866) scale(.4756)"><path d="M15.457.282H18.8c.338 3.172-3.343 2.453-3.343 2.453z"/><ellipse transform="rotate(-45)" ry="1.979" rx="2.969" cy="11.723" cx="-5.922"/><rect transform="rotate(-90)" rx="2.103" ry="1.314" y="4.102" x="-2.805" height="12.616" width="2.523"/><rect width="2.523" height="12.616" x="4.102" y=".282" ry="1.314" rx="2.103"/><rect rx="2.103" ry="1.314" y=".282" x="14.195" height="12.616" width="2.523"/><ellipse cx="1.215" cy="18.86" rx="2.969" ry="1.979" transform="rotate(-45)"/></g><path d="M14 4.024V9l-4-5z" opacity=".15"/></svg>