<svg xmlns="http://www.w3.org/2000/svg" width="16" height="16" viewBox="0 0 16 16"><path d="M2 0v16h12V4l-4-4H2zm8 0l4 .02V0h-4z" fill="#6b7eb9"/><path d="M10 3.98V0l4 4z" fill="#fff" opacity=".65"/><path d="M14 4.024V9l-4-5z" opacity=".15"/><path d="M7.187 11.663h1.068V13H7.187v-1.337zm1.037-.774H7.218v-.81q0-.533.148-.875.147-.342.62-.794l.475-.468q.3-.28.432-.526.137-.248.137-.505 0-.468-.348-.757-.343-.29-.91-.29-.417 0-.89.184-.47.185-.98.537v-.99q.495-.3 1-.447Q7.413 5 7.956 5q.97 0 1.553.51.59.51.59 1.348 0 .4-.19.763-.19.36-.663.812l-.463.452q-.248.248-.353.39-.1.137-.143.268-.032.11-.048.27-.016.156-.016.43v.647z" style="line-height:125%" font-size="13.75" font-family="sans-serif" letter-spacing="0" word-spacing="0" fill="#fff"/></svg>