<svg xmlns="http://www.w3.org/2000/svg" viewBox="0 0 16 16"><path d="M2 0v16h12V4l-4-4zm8 0z" fill="#b9b9b9" stroke="#fff" stroke-width="0" stroke-linejoin="round"/><path d="M10 3.98V0l4 4z" opacity=".65" fill="#fff" stroke-width="0" stroke-linejoin="round"/><g transform="translate(0 1)" fill="#8c8c8c" stroke-linecap="square" stroke-miterlimit="0"><rect ry="0" rx="0" y="5" x="4" height="1" width="8"/><rect width="8" height="1" x="4" y="7" rx="0" ry="0"/><rect ry="0" rx="0" y="9" x="4" height="1" width="8"/><rect width="8" height="1" x="4" y="11" rx="0" ry="0"/></g><path d="M14 4.024V9l-4-5z" opacity=".15" stroke-width="0" stroke-linejoin="round"/><g fill="#ffc857" stroke-linecap="square" stroke-linejoin="round"><path d="M15.675 15.647h-8.35l4.175-6.43z"/><path style="line-height:normal;text-indent:0;text-align:start;text-decoration-line:none;text-decoration-style:solid;text-decoration-color:#000000;text-transform:none;block-progression:tb;isolation:auto;mix-blend-mode:normal" d="M11.483 8.5a.325.31 0 0 0-.264.155l-4.177 6.88a.325.31 0 0 0 .282.465h8.35a.325.31 0 0 0 .282-.464l-4.175-6.88a.325.31 0 0 0-.3-.156zm.017.928l3.613 5.954H7.888L11.5 9.428z" color="#000" font-family="sans-serif" white-space="normal" overflow="visible" solid-color="#000000" stroke-width="1.347"/></g><path d="M12 14.25v.5c0 .14-.11.25-.25.25h-.5c-.14 0-.25-.11-.25-.25v-.5c0-.14.11-.25.25-.25h.5c.14 0 .25.11.25.25zM12 10.714v2.572c0 .12-.11.214-.25.214h-.5c-.14 0-.25-.094-.25-.214v-2.572c0-.12.11-.214.25-.214h.5c.14 0 .25.094.25.214z" fill="#fff"/></svg>