<svg xmlns="http://www.w3.org/2000/svg" viewBox="0 0 16 16"><path fill="#FFF" d="M1.5 1h13c.28 0 .5.22.5.5v13c0 .28-.22.5-.5.5h-13c-.28 0-.5-.22-.5-.5v-13c0-.28.22-.5.5-.5z"/><path fill="#59F" d="M14 2v12H2V2h12m.5-1h-13c-.28 0-.5.22-.5.5v13c0 .28.22.5.5.5h13c.28 0 .5-.22.5-.5v-13c0-.28-.22-.5-.5-.5z"/><path fill="#59F" d="M3 3h10v3H3V3zM3 7h3v6H3V7z"/><path fill="#ABD7FF" d="M7 7h6v6H7V7z"/><path fill="#FFF" d="M6.5 16h-6c-.28 0-.5-.22-.5-.5v-6c0-.28.22-.5.5-.5h6c.28 0 .5.22.5.5v6c0 .28-.22.5-.5.5z"/><path fill="#8C8C8C" d="M6 10v5H1v-5h5m.5-1h-6c-.28 0-.5.22-.5.5v6c0 .28.22.5.5.5h6c.28 0 .5-.22.5-.5v-6c0-.28-.22-.5-.5-.5z"/><path d="M5 12H4v-1H3v1H2v1h1v1h1v-1h1"/></svg>