<svg xmlns="http://www.w3.org/2000/svg" width="16" height="16" viewBox="0 0 16 16"><path d="M1 1h14v14H1z" fill="#fff" stroke-linecap="square"/><path d="M1 1v14h14V1zm1 1h12v12H2z" fill="#b9b9b9" stroke-linecap="square"/><path d="M3 4h10v8H3z" fill="#efefef" stroke-linecap="square"/><g transform="matrix(.75 0 0 .75 -21.343 -777.193)" stroke="#faa" stroke-width="0"><path d="M10.02 1043.785H-.645l2.666-4.618 2.667-4.618 2.667 4.617z" transform="matrix(.56258 0 0 .43307 35.487 597.89)" fill="#59f"/><path transform="matrix(.50007 0 0 .28872 38.114 748.568)" d="M10.02 1043.785H-.645l2.666-4.618 2.667-4.618 2.667 4.617z" fill="#59f"/><circle cx="40.857" cy="1044.925" r="1" fill="#e8a33d"/></g><path d="M3 4h10v1H3zM3 11h10v1H3z" fill="#b9b9b9" stroke-linecap="square"/><path d="M13 4v8h-1V4zM4 4v8H3V4z" fill="#b9b9b9" stroke-linecap="square"/></svg>