<?xml version="1.0" encoding="utf-8"?>
<!-- Generator: Adobe Illustrator 19.1.0, SVG Export Plug-In . SVG Version: 6.00 Build 0)  -->
<svg version="1.1" xmlns="http://www.w3.org/2000/svg" xmlns:xlink="http://www.w3.org/1999/xlink" x="0px" y="0px"
	 viewBox="0 0 16 16" enable-background="new 0 0 16 16" xml:space="preserve">
<g class="icon-color">
	<path opacity="0.3" d="M8,15c-3.86,0-7-3.141-7-7c0-3.86,3.14-7,7-7c3.859,0,7,3.14,7,7
		C15,11.859,11.859,15,8,15z M8,3C5.243,3,3,5.243,3,8s2.243,5,5,5s5-2.243,5-5S10.757,3,8,3z"/>
	<path d="M14,9c-0.553,0-1-0.447-1-1c0-2.757-2.243-5-5-5C7.448,3,7,2.552,7,2s0.448-1,1-1c3.859,0,7,3.14,7,7
		C15,8.553,14.553,9,14,9z"/>
</g>
</svg>
