<svg xmlns="http://www.w3.org/2000/svg" viewBox="0 0 16 16" height="16" width="16"><g fill="#8c8c8c"><path d="M7.967 0C6.71 0 5.7 1 5.7 2.245V8.98c0 1.243 1.01 2.244 2.267 2.244V0z"/><path d="M8.633 14c1.213-.322 1.927-1.548 1.602-2.75l-.293-1.083C9.617 8.965 8.38 8.257 7.166 8.58L8.633 14z"/></g><ellipse ry="1.473" rx="1.442" transform="matrix(1.1467 0 0 1.11313 19.14 11.39)" cy="2.227" cx="-7.29" fill="none" stroke-width=".885" stroke-miterlimit="0" stroke="#59f"/><g><g fill="#b9b9b9"><path d="M15.696 4.41c.625 1.08.256 2.453-.826 3.077l-5.862 3.378c-1.083.624-2.457.256-3.082-.824l9.77-5.63z"/><path d="M3.178 10.86c-.323-1.205.388-2.435 1.595-2.758l1.09-.29c1.208-.324 2.44.386 2.764 1.59l-5.45 1.458z"/></g><ellipse cx="-7.29" cy="2.227" transform="matrix(-.57335 -.9835 -.97338 .55656 .14 .655)" rx="1.442" ry="1.473" fill="none" stroke-width=".885" stroke-miterlimit="0" stroke="#59f"/></g></svg>