<svg xmlns="http://www.w3.org/2000/svg" viewBox="0 0 16 16"><g class="st0"><path d="M9.055 12H11V9.25c0-.138.112-.25.25-.25h1.5c.138 0 .25.112.25.25V12h1.953c.215 0 .33.253.188.415l-2.952 3.37c-.1.114-.277.114-.376 0l-2.945-3.37c-.14-.162-.027-.415.188-.415z" class="st1"/><path class="st1" d="M13.707 3.207l-1.914-1.914C11.605 1.105 11.35 1 11.086 1H2.5c-.276 0-.5.224-.5.5v13c0 .276.224.5.5.5h7.298l-.874-1H3V2h7v2.5c0 .276.224.5.5.5H13v3.05c.566.12 1 .6 1 1.2V3.914c0-.265-.105-.52-.293-.707zM11 4V2l2 2h-2z"/><path class="st1" d="M4 3h4v2H4zM6 6h4v1H6zM6 10h4v1H6zM4 6h1v7H4zM6 12h2v1H6zM6 8h3v1H6z"/></g></svg>