<svg width="16" height="16" viewBox="0 0 16 16" xmlns="http://www.w3.org/2000/svg"><title>actions-view-paging-prev</title><g fill="none" fill-rule="evenodd"><path d="M1 8c0 3.9 3.1 7 7 7s7-3.1 7-7-3.1-7-7-7-7 3.1-7 7z" fill="#000"/><path d="M10.474 5.124c.245-.245.582-.107.582.24v5.273c0 .348-.337.483-.582.24L7.94 8.342c-.187-.188-.187-.494 0-.682l2.534-2.536zm-4 0c.245-.245.582-.107.582.24v5.273c0 .348-.337.483-.582.24L3.94 8.342c-.187-.188-.187-.494 0-.682l2.534-2.536z" fill="#FFF"/></g></svg>