<svg xmlns="http://www.w3.org/2000/svg" viewBox="0 0 16 16" height="16" width="16"><path d="M7.967 0C6.71 0 5.7 1 5.7 2.245V8.98c0 1.243 1.01 2.244 2.267 2.244V0z"/><path d="M8.633 14c1.213-.322 1.927-1.548 1.602-2.75l-.293-1.083C9.617 8.965 8.38 8.257 7.166 8.58L8.633 14z"/><g transform="matrix(-.57335 -.964 -.99306 .55656 19.14 11.39)" stroke="#000" fill="none"><ellipse ry="1.473" rx="1.442" transform="matrix(-.5 -.86603 -.86603 .5 0 0)" cy="2.227" cx="-7.29" stroke-width=".885" stroke-miterlimit="0"/></g><g><path d="M15.696 4.41c.625 1.082.256 2.454-.826 3.078l-5.862 3.377c-1.083.624-2.457.256-3.082-.824l9.77-5.63z"/><path d="M3.178 10.86c-.323-1.205.388-2.435 1.595-2.757l1.09-.292c1.208-.322 2.44.388 2.764 1.593l-5.45 1.458z"/><g transform="matrix(1.12965 .00975 .00984 1.13 .14 .655)" stroke="#000" fill="none"><ellipse cx="-7.29" cy="2.227" transform="matrix(-.5 -.86603 -.86603 .5 0 0)" rx="1.442" ry="1.473" stroke-width=".885" stroke-miterlimit="0"/></g></g></svg>