<svg xmlns="http://www.w3.org/2000/svg" viewBox="0 0 16 16"><g class="icon-color"><path d="M5 14H3V2h7v2.5c0 .276.224.5.5.5H13v.11c.192-.067.393-.11.6-.11.135 0 .27.02.4.048V3.914c0-.265-.105-.52-.293-.707l-1.914-1.914C11.605 1.105 11.35 1 11.086 1H2.5c-.276 0-.5.224-.5.5v13c0 .276.224.5.5.5H5v-1zm6-12l2 2h-2V2zM13 13.164V14h-.836l-1 1H13.5c.276 0 .5-.224.5-.5v-2.336l-1 1z"/><path d="M14.24 10.51L8.75 16H6v-2.75l5.49-5.49 2.75 2.75zM9 14.55L7.45 13l-.6.6v.71h.84v.84h.71l.6-.6zm2.7-5.67c-.04 0-.08.01-.11.05l-3.58 3.58c-.03.03-.05.07-.05.11 0 .09.06.14.15.14.04 0 .08-.01.11-.05l3.58-3.58c.03-.03.05-.07.05-.11 0-.08-.06-.14-.15-.14zm4.06.11l-1.1 1.1-2.75-2.75 1.1-1.09c.15-.16.37-.25.59-.25s.44.09.6.25l1.55 1.54c.16.16.25.38.25.61 0 .22-.09.44-.24.59z"/></g></svg>