<svg xmlns="http://www.w3.org/2000/svg" viewBox="0 0 16 16"><g class="icon-color"><path d="M14 10v2h-2v-1.55c0-.195-.216-.315-.383-.21L8.34 12.287c-.158.098-.158.326 0 .424l3.277 2.05c.167.103.383-.017.383-.213V13h3v-3h-1zM6 13h1L5.5 9h-1L3 13h1l.188-.5h1.625L6 13zm-1.437-1.5L5 10.333l.438 1.167h-.875zM12 4.75V3H9v4h4V4.75h-1zM10 3.5h1.5v1.25H10V3.5zm2.5 3H10V5.25h2.5V6.5zM7.66 3.288l-3.277-2.05C4.216 1.136 4 1.256 4 1.452V3H1v3h1V4h2v1.55c0 .195.216.315.383.21L7.66 3.713c.157-.098.157-.326 0-.424z"/><path d="M14.5 1h-7c-.276 0-.5.224-.5.5v.196l1 .625V2h6v6H9v-.5c0-.276-.224-.5-.5-.5H8V4.68l-1 .624V7H1.5c-.276 0-.5.224-.5.5v7c0 .276.224.5.5.5h7c.276 0 .5-.224.5-.5v-.196l-1-.625V14H2V8h6v3.32l1-.624V9h5.5c.276 0 .5-.224.5-.5v-7c0-.276-.224-.5-.5-.5z"/></g></svg>