<svg xmlns="http://www.w3.org/2000/svg" viewBox="0 0 16 16"><path d="M8.586 14H2V2h12v6.586l1 1V1.5c0-.276-.224-.5-.5-.5h-13c-.276 0-.5.224-.5.5v13c0 .276.224.5.5.5h8.086l-1-1z"/><path d="M3 3h10v2H3zM3 6h2v1H3zM3 8h2v1H3zM3 10h2v1H3zM3 12h2v1H3zM6 6h2v1H6zM6 8h2v1H6zM9 6h4v1H9zM8 10.586V10H6v1h1.586M10.586 8H9v1h.586M7.47 12.884c-.244-.244-.366-.564-.366-.884H6v1h1.586l-.116-.116zM15.823 11.823l-1.396-1.396c-.158-.158-.427-.046-.427.177V11h-1v-1h.396c.223 0 .334-.27.177-.427l-1.396-1.396c-.098-.098-.256-.098-.354 0l-1.396 1.396c-.158.158-.046.427.177.427H11v1h-1v-.396c0-.223-.27-.334-.427-.177l-1.396 1.396c-.098.098-.098.256 0 .354l1.396 1.396c.158.158.427.046.427-.177V13h1v1h-.396c-.223 0-.334.27-.177.427l1.396 1.396c.098.098.256.098.354 0l1.396-1.396c.158-.158.046-.427-.177-.427H13v-1h1v.396c0 .223.27.334.427.177l1.396-1.396c.098-.098.098-.256 0-.354z"/></svg>