<svg id="Ebene_1" xmlns="http://www.w3.org/2000/svg" viewBox="0 0 16 16"><style>.st0{fill:#FFFFFF;}</style><path d="M8 1C4.14 1 1 4.14 1 8s3.14 7 7 7 7-3.14 7-7-3.14-7-7-7z"/><path class="st0" d="M11.182 6.232L9.414 8l1.768 1.768c.198.198.198.51 0 .707l-.707.707c-.198.198-.51.198-.707 0L8 9.414l-1.768 1.768c-.198.198-.51.198-.707 0l-.707-.707c-.198-.198-.198-.51 0-.707L6.586 8 4.818 6.232c-.198-.198-.198-.51 0-.707l.707-.707c.198-.198.51-.198.707 0L8 6.586l1.768-1.768c.198-.198.51-.198.707 0l.707.707c.198.198.198.51 0 .707z"/></svg>