<svg xmlns="http://www.w3.org/2000/svg" viewBox="0 0 16 16"><path d="M14.946 13H13v2.75c0 .138-.11.25-.25.25h-1.5c-.137 0-.25-.112-.25-.25V13H9.047c-.215 0-.33-.253-.188-.415l2.952-3.37c.1-.114.277-.114.376 0l2.945 3.37c.142.162.027.415-.187.415z"/><path d="M10.008 14H3V2h7v2.5c0 .276.224.5.5.5H13v3.615l1 1.144V3.913c0-.265-.105-.52-.293-.707l-1.914-1.914C11.605 1.105 11.35 1 11.086 1H2.5c-.276 0-.5.224-.5.5v13c0 .276.224.5.5.5H10l.008-1zM11 2l2 2h-2V2z"/><path d="M4 3h4v2H4zM6 6h4v1H6zM4 6h1v7H4zM6 12h2v1H6zM6 8h3v1H6zM9.795 10H6v1h2.92"/></svg>