<svg xmlns="http://www.w3.org/2000/svg" viewBox="0 0 16 16"><path d="M15.5 4H12V.5c0-.28-.22-.5-.5-.5H.5C.22 0 0 .22 0 .5v11c0 .27.22.5.5.5H4v3.5c0 .27.22.5.5.5h11c.28 0 .5-.23.5-.5v-11c0-.28-.22-.5-.5-.5zM1 11V1h10v3H4.5c-.28 0-.5.22-.5.5V11H1zm14 4H5V5h10v10z"/><path d="M12 13H8v-.82c.28-.24.56-.47.84-.71.28-.24.54-.47.78-.71.51-.49.86-.88 1.04-1.17.19-.29.28-.6.28-.93 0-.31-.1-.54-.3-.72-.2-.17-.49-.26-.85-.26-.24 0-.5.04-.78.13-.28.08-.56.21-.82.39h-.04v-.83c.18-.09.44-.18.75-.26S9.52 7 9.81 7c.61 0 1.08.15 1.42.44.34.29.52.68.52 1.18 0 .22-.03.43-.09.63-.06.19-.14.38-.25.55-.1.16-.22.32-.36.48-.14.16-.31.33-.51.53-.28.28-.58.54-.88.8-.3.26-.58.5-.85.72H12V13z"/></svg>