<svg xmlns="http://www.w3.org/2000/svg" viewBox="0 0 16 16"><g class="icon-color"><path d="M14 10v2h-2v-1.55c0-.195-.216-.315-.383-.21L8.34 12.287c-.158.098-.158.326 0 .424l3.277 2.05c.167.103.383-.017.383-.213V13h3v-3h-1zM7 13h-.626l-.433-1.115H4.03L3.596 13H3l1.608-4h.783L7 13zm-1.24-1.572l-.775-1.963-.777 1.964H5.76zM12.5 5.77c0 .2-.037.374-.112.527-.075.152-.175.278-.302.376-.15.118-.313.202-.493.253-.178.05-.406.074-.682.074H9.5V3h1.178c.29 0 .508.01.652.032.144.02.282.066.414.134.146.077.252.176.318.297s.1.266.1.434c0 .19-.05.35-.145.485s-.224.24-.385.32v.022c.27.056.48.174.636.356.155.182.232.412.232.69zm-.89-1.803c0-.097-.016-.178-.048-.244s-.084-.12-.155-.16c-.084-.05-.185-.08-.305-.09-.12-.013-.267-.018-.443-.018h-.63V4.61h.683c.166 0 .297-.01.395-.026.098-.017.19-.052.272-.106.084-.054.142-.123.178-.208.035-.086.052-.186.052-.303zm.34 1.824c0-.16-.024-.288-.072-.383-.048-.095-.135-.176-.262-.242-.085-.045-.19-.074-.312-.087-.12-.013-.27-.02-.444-.02h-.83v1.488h.7c.23 0 .42-.012.568-.036.148-.024.27-.07.363-.133.1-.07.174-.15.22-.24.047-.09.07-.204.07-.346zM7.66 3.288l-3.277-2.05C4.216 1.136 4 1.256 4 1.452V3H1v3h1V4h2v1.55c0 .195.216.315.383.21L7.66 3.713c.157-.098.157-.326 0-.424z"/><path d="M14.5 1h-7c-.276 0-.5.224-.5.5v.196l1 .625V2h6v6H9v-.5c0-.276-.224-.5-.5-.5H8V4.68l-1 .624V7H1.5c-.276 0-.5.224-.5.5v7c0 .276.224.5.5.5h7c.276 0 .5-.224.5-.5v-.196l-1-.625V14H2V8h6v3.32l1-.624V9h5.5c.276 0 .5-.224.5-.5v-7c0-.276-.224-.5-.5-.5z"/></g></svg>