<svg xmlns="http://www.w3.org/2000/svg" viewBox="0 0 16 16"><path d="M14.5 4H12V1.5c0-.3-.2-.5-.5-.5h-10c-.3 0-.5.2-.5.5v10c0 .3.2.5.5.5H4v2.5c0 .3.2.5.5.5h10c.3 0 .5-.2.5-.5v-10c0-.3-.2-.5-.5-.5zM2 11V2h9v2H4.5c-.3 0-.5.2-.5.5V11H2zm12 3H5V5h9v9z"/><path d="M10.9 11.9H8v-.7l.6-.6.6-.6c.4-.4.6-.7.8-1 .1-.2.2-.5.2-.8 0-.3-.1-.5-.2-.6-.2.1-.5 0-.6 0-.2 0-.4 0-.6.1l-.6.3v-.7c.1-.1.3-.1.6-.2s.5-.1.7-.1c.5 0 .8.1 1.1.4.3.2.4.6.4 1 0 .2 0 .4-.1.5 0 .2-.1.3-.2.5-.1.1-.2.3-.3.4-.1.1-.2.3-.4.4-.2.2-.4.5-.7.7-.3.1-.4.3-.6.5H11l-.1.5z"/></svg>