<svg xmlns="http://www.w3.org/2000/svg" viewBox="0 0 16 16"><g class="icon-color"><path d="M5 13.3v-.4l.1-.1C3.6 11.7 2.5 10 2.5 8 2.5 5 5 2.5 8 2.5c2 0 3.8 1.1 4.7 2.7.3-.1.6-.2.9-.2.3 0 .6.1.8.2C13.3 2.7 10.9 1 8 1 4.1 1 1 4.1 1 8c0 2.8 1.6 5.2 4 6.3v-1z"/><path d="M14.2 10.5L8.8 16H6v-2.8l5.5-5.5 2.7 2.8zM9 14.6L7.4 13l-.6.6v.7h.8v.8h.7l.7-.5zm2.7-5.7s-.1 0-.1.1L8 12.5l-.1.1c0 .1.1.1.1.1s.1 0 .1-.1L11.7 9l.1-.1h-.1zm4.1.1l-1.1 1.1-2.8-2.8 1.1-1c.2-.2.4-.3.6-.3s.4.1.6.3l1.6 1.5c.1.1.2.4.2.6 0 .2-.1.4-.2.6zM9.2 8.9c0 .1-.2.3-.3.3H6c-.2 0-.3-.2-.3-.3v-.6c0-.2.1-.3.3-.3h2V4.8c0-.2.1-.3.3-.3h.6c.2 0 .3.1.3.3v4.1z"/></g></svg>