<svg xmlns="http://www.w3.org/2000/svg" viewBox="0 0 16 16"><path d="M32.713 8.828h7v7h-7z" fill="#515151"/><path d="M31.713-.172v10.5h8V2.453L37.046-.172zm5.333 0z" fill="#515151"/><path d="M23.713-.172h10.624v16H23.713z" fill="#515151"/><path fill="#8c8c8c" d="M25.713-.18h9.5V4.83h-9.5z"/><path fill="#fff" d="M25.713 6.828h12v9h-12z"/><path fill="#ff8700" d="M25.713 14.828h12v1h-12z"/><path fill="#b9b9b9" d="M26.713 12.828h10v1h-10zM26.713 10.828h10v1h-10zM26.713 8.828h10v1h-10zM28.07-.18h7.143V4.83H28.07z"/><path fill="#515151" d="M31.713.828h2v3h-2z"/><g><path d="M-19 1v14h14V3.297L-7.334 1H-19zm1 1h10l2 1.97V14h-12V2z"/><path d="M-17 1.5h7V6h-7z"/><path d="M-13 2h2v3h-2z" fill="#fff"/><path d="M-17 9.5h1v5h-1z"/><path d="M-17 9h9v1h-9z"/><path d="M-9 9.5h1v5h-1z"/></g><g><path d="M1 1v14h14V3.297L12.666 1z"/><path d="M3 2h7v4H3z" fill="#fff"/><path d="M7 1.5h2V5H7z"/><path d="M3 9h9v5H3z" fill="#fff"/></g></svg>