<svg xmlns="http://www.w3.org/2000/svg" viewBox="0 0 16 16"><path d="M10 14H2V2h12v8h1V1.5c0-.276-.224-.5-.5-.5h-13c-.276 0-.5.224-.5.5v13c0 .276.224.5.5.5H10v-1zM14 14v1h.5c.276 0 .5-.224.5-.5V14h-1z"/><path d="M3 3h10v2H3zM3 6h2v1H3zM3 8h2v1H3zM3 10h2v1H3zM3 12h2v1H3zM6 6h2v1H6zM6 8h2v1H6zM9 6h4v1H9zM7 12.5V12H6v1h1.086c-.052-.156-.086-.322-.086-.5zM8 10.086V10H6v1h1.086c.146-.437.477-.768.914-.914zM10 8.5c0-.178.034-.344.086-.5H9v1h1v-.5zM15.5 13H13v2.5c0 .3-.2.5-.5.5h-1c-.3 0-.5-.2-.5-.5V13H8.5c-.3 0-.5-.2-.5-.5v-1c0-.3.2-.5.5-.5H11V8.5c0-.3.2-.5.5-.5h1c.3 0 .5.2.5.5V11h2.5c.3 0 .5.2.5.5v1c0 .3-.2.5-.5.5z"/></svg>