<svg xmlns="http://www.w3.org/2000/svg" viewBox="0 0 16 16"><path d="M3 6h5v4H3zM9 2h1v12H9z"/><path d="M8.457 2h2.086c.253 0 .457.223.457.5s-.204.5-.457.5H8.457C8.204 3 8 2.777 8 2.5s.204-.5.457-.5z"/><path style="line-height:normal;text-indent:0;text-align:start;text-decoration-line:none;text-decoration-style:solid;text-decoration-color:#000000;text-transform:none;block-progression:tb;isolation:auto;mix-blend-mode:normal" d="M1.654 4C1.3 4 1 4.3 1 4.654v6.692c0 .354.3.654.654.654H8v-1H2V5h6V4H1.654zM11 4v1h3v6h-3v1h3.346c.354 0 .654-.3.654-.654V4.654C15 4.3 14.7 4 14.346 4H11z" color="#000" font-family="sans-serif" white-space="normal" overflow="visible" solid-color="#000000"/><path d="M8.457 13h2.086c.253 0 .457.223.457.5s-.204.5-.457.5H8.457C8.204 14 8 13.777 8 13.5s.204-.5.457-.5z"/></svg>