<svg xmlns="http://www.w3.org/2000/svg" viewBox="0 0 16 16"><path d="M15 8v6h-3.236l-.764.382V14H8V8m-1-.5v7c0 .276.224.5.5.5H10v1l1.894-.947c.07-.035.146-.053.224-.053H15.5c.276 0 .5-.224.5-.5v-7c0-.276-.224-.5-.5-.5h-8c-.276 0-.5.224-.5.5z"/><path d="M14.4 4L12 1.6c-.3-.4-.8-.6-1.3-.6H1.5c-.3 0-.5.2-.5.5v13c0 .3.2.5.5.5H6v-1H5v-4h1V9H4.5c-.3 0-.5.2-.5.5V14H2V2h2v3.5c0 .3.2.5.5.5h5c.3 0 .5-.2.5-.5V2h.8c.3 0 .5.1.7.3l1.9 2c.4.4.6.9.6 1.4V6h1v-.6c0-.5-.2-1-.6-1.4zM9 4.8c0 .1-.1.2-.2.2H7.3c-.2 0-.3-.1-.3-.2V2.3c0-.2.1-.3.3-.3h1.5c.1 0 .2.1.2.3v2.5z"/><path d="M13 12.675c-.208.103-.405.183-.59.24-.188.056-.386.085-.595.085-.267 0-.512-.04-.735-.122-.223-.08-.414-.203-.573-.368-.16-.164-.286-.372-.374-.623-.09-.25-.133-.545-.133-.88 0-.626.166-1.116.498-1.473.332-.356.77-.534 1.317-.534.212 0 .42.03.624.092.202.062.39.137.56.226v.716h-.033c-.19-.153-.385-.27-.588-.353-.202-.08-.4-.122-.592-.122-.353 0-.632.123-.836.368-.205.247-.307.606-.307 1.08 0 .462.1.817.3 1.064.2.25.48.372.842.372.126 0 .254-.017.384-.05.13-.035.248-.08.352-.135.09-.048.175-.098.255-.153.08-.053.142-.1.19-.138H13v.71z"/></svg>