<svg xmlns="http://www.w3.org/2000/svg" viewBox="0 0 64 64"><path d="M-.5-.5h64v64h-64v-64z" fill="#59f"/><path d="M31.9 18.254a13.586 13.586 0 019.385 3.771l1.961-1.959c.828-.832 2.25-.244 2.25.932v7.363c0 .729-.594 1.316-1.32 1.316h-7.359c-1.176 0-1.758-1.42-.93-2.252l2.289-2.291a9.145 9.145 0 00-6.219-2.484c-5.076-.045-9.354 4.061-9.309 9.303.039 4.977 4.072 9.148 9.227 9.148a9.19 9.19 0 006.082-2.281.657.657 0 01.898.031l2.176 2.18a.656.656 0 01-.027.953 13.578 13.578 0 01-9.129 3.508c-7.523 0-13.619-6.094-13.619-13.617-.004-7.514 6.129-13.633 13.644-13.621z" fill="#fff"/></svg>