<svg xmlns="http://www.w3.org/2000/svg" viewBox="0 0 64 64"><rect width="64" height="64" rx="0" ry="0" fill="#69BBB5"/><path fill="#FFF" d="M47.634 22.064l-1.525-.254a5.199 5.199 0 00-.656-1.58l.9-1.259.215-.301-.157-.157-.105-.105-.713-.714-.262-.262-.181.129-1.38.986a5.21 5.21 0 00-1.58-.656l-.254-1.525-.061-.366H40.126l-.036.219-.28 1.672c-.568.132-1.1.356-1.581.656l-1.259-.9-.302-.216-.157.157-.679.68-.139.139-.105.105-.157.157.129.181.985 1.38a5.233 5.233 0 00-.655 1.58l-1.671.278-.219.037v.222l.001 1.305v.222l.365.061.819.136.705.117a5.199 5.199 0 00.656 1.58l-.986 1.38-.129.181.157.157.924.922.157.157.301-.215 1.259-.899a5.21 5.21 0 001.58.656l.278 1.671.038.222H41.874l.061-.365.254-1.525a5.205 5.205 0 001.581-.656l.998.713.261.187.302.216.262-.262.713-.713.262-.262-.215-.302-.9-1.26a5.207 5.207 0 00.656-1.58l1.525-.254.366-.062v-1.75l-.366-.061zM41 26a3 3 0 110-6 3 3 0 010 6zm5 6h2v8H34v6h8v2H22v-2h8v-6H16V16h16v2H18v20h28v-6z"/></svg>