<?xml version="1.0" encoding="utf-8"?>
<!-- Generator: Adobe Illustrator 19.1.0, SVG Export Plug-In . SVG Version: 6.00 Build 0)  -->
<svg version="1.1" id="Ebene_1" xmlns="http://www.w3.org/2000/svg" xmlns:xlink="http://www.w3.org/1999/xlink" x="0px" y="0px"
	 viewBox="0 0 64 64" enable-background="new 0 0 64 64" xml:space="preserve">
<rect fill="#666666" width="64" height="64"/>
<path fill="#FFFFFF" d="M46.6,41.2c-3.3-0.9-5.7-2.2-8-3.1c0,0.5-0.1,0.9-0.5,1.3c-1.4,1.5-3.6,2.4-6.1,2.4c-2.5,0-4.8-0.9-6.1-2.4
	c-0.5-0.5-0.6-0.9-0.5-1.4c-2.3,1-4.7,2.2-8,3.1c0,0-3.1,1.8-3.4,8.8h18h18C49.8,42.8,46.6,41.2,46.6,41.2z"/>
<path fill="#FFFFFF" d="M32,34.3c-1.6,0-3.2-0.9-4.5-2.2l0,0l0,0c-0.1,5.4-1.7,5.9-0.9,6.7c2.5,2.7,8.1,2.9,10.8,0
	c0.8-0.8-0.6-1.3-0.9-6.8C35.2,33.3,33.6,34.3,32,34.3z"/>
<path fill="#FFFFFF" d="M32,34.3c-3.8,0-7.7-5.2-7.7-8.8v-5c0-3.6,3.2-6.5,6.8-6.5h1.8c3.8,0,6.8,2.9,6.8,6.5v5
	C39.6,29.1,35.8,34.3,32,34.3L32,34.3z"/>
</svg>
