<svg viewBox="0 0 64 64" xmlns="http://www.w3.org/2000/svg"><title>module-viewpage</title><g fill="none" fill-rule="evenodd"><path d="M0 0h64v64H0z" fill="#D04038"/><path d="M32 40c-5.778-.333-10.667-3.622-14-8.5 1.91-2.5 4.17-5.1 7.014-6.523-.71 1.244-1.014 2.956-1.014 4.38C24 33.8 27.556 37.05 32 37c4.444.05 8-3.2 8-7.644 0-1.423-.233-3.224-.944-4.38C41.812 26.4 44 29 46 31.5c-3.244 4.878-8.222 8.167-14 8.5zm.89-15.178c0 .445-.357.89-.89.89-2.044 0-3.733 1.688-3.733 3.732 0 .445-.356.89-.89.89-.533 0-.888-.356-.888-.89 0-3.022 2.488-5.422 5.42-5.422.534-.09.98.356.98.8zm14.754 5.25c-3.288-5.42-9.333-9.066-15.644-9.066-6.31 0-12.356 3.645-15.644 9.067-.267.355-.356 1.15-.356 1.594 0 .444.178.89.356 1.244C19.644 38.334 25.69 41.98 32 41.98c6.31 0 12.356-3.645 15.644-9.067.267-.354.356-.8.356-1.243 0-.445-.178-1.24-.356-1.594z" fill="#FFF"/></g></svg>