<svg viewBox="0 0 64 64" xmlns="http://www.w3.org/2000/svg"><title>module-extensionmanager</title><g fill="none" fill-rule="evenodd"><path d="M0 0h64v64H0z" fill="#F08D34"/><path d="M32.006 27.925l10.01-3.827c.516-.194 1.092.068 1.286.585.194.517-.068 1.094-.585 1.288L33 29.687v12.31c0 .553-.448 1-1 1s-1-.447-1-1V29.678l-9.7-3.803c-.516-.194-.778-.77-.584-1.288.194-.517.77-.78 1.287-.585l10.003 3.923zm.473-11.985c-.266-.09-.694-.09-.96 0l-15.04 5.098c-.266.09-.48.376-.48.654v20.633c0 .27.214.564.48.654l15.04 5.097c.266.09.694.09.96 0l15.04-5.098c.266-.09.48-.377.48-.655V21.692c0-.272-.214-.565-.48-.654L32.48 15.94zM32 17.996L18 22.75v18.5l14 4.746 14-4.746v-18.5l-14-4.754z" fill="#FFF"/></g></svg>