<svg xmlns="http://www.w3.org/2000/svg" viewBox="0 0 64 64"><path fill="#439B92" d="M0 0h64v64H0z"/><path fill="#FFF" d="M14 13h36v38H14z"/><path opacity=".5" fill="#439B92" d="M16 15h28v2H16z"/><path fill="#439B92" d="M46 15h2v2h-2z"/><path opacity=".5" fill="#439B92" d="M14 19h36v2H14z"/><path opacity=".75" fill="#439B92" d="M18 29h28v8H18zM18 39h10v12H18zM30 39h16v12H30z"/><path fill="#439B92" d="M18 25h8v2h-8z"/><path opacity=".5" fill="#439B92" d="M28 25h2v2h-2zM32 25h2v2h-2zM40 25h2v2h-2zM44 25h2v2h-2z"/></svg>