<svg viewBox="0 0 64 64" xmlns="http://www.w3.org/2000/svg"><title>module-config</title><g fill="none" fill-rule="evenodd"><path d="M0 0h64v64H0z" fill="#EF8534"/><g fill="#FFF"><path d="M38.6 37.5c-.3-.1-.6-.1-.8.1-.1.1-.2.3-.2.5 0 .1 0 .2.1.3l7 14.1c.1.3.5.4.8.4.3 0 .5-.4.5-.7v-6.3h6.3c.3 0 .6-.2.7-.5v-.2c0-.3-.1-.5-.4-.6l-14-7.1z"/><path d="M21.4 30h-.8c-.3 0-.6-.286-.6-.57v-.86c0-.284.3-.57.6-.57h.8c.3 0 .6.286.6.57v.86c0 .284-.3.57-.6.57zm0 4h-.8c-.3 0-.6-.286-.6-.57v-.86c0-.284.3-.57.6-.57h.8c.3 0 .6.286.6.57v.86c0 .284-.3.57-.6.57zm0 4h-.8c-.3 0-.6-.286-.6-.57v-.86c0-.284.3-.57.6-.57h.8c.3 0 .6.286.6.57v.86c0 .284-.3.57-.6.57zM46 24.614c0-.3-.3-.6-.6-.6H18.6c-.3 0-.6.3-.6.6V41.4c0 .3.3.6.6.6h17.2l1 2H18c-1.6 0-2-.5-2-2V20c0-1.6.4-2 2-2h28c1.6 0 2 .3 2 2v17.8l-2-1V24.614zM24.6 38c-.3 0-.6-.286-.6-.57v-.86c0-.284.3-.57.6-.57h9.8c-.1.286-.1.57-.1.952 0 .38.1.667.2 1.048h-9.9zm0-8c-.3 0-.6-.286-.6-.57v-.86c0-.284.3-.57.6-.57h18.9c.3 0 .6.286.6.57v.86c0 .284-.3.57-.6.57H24.6zm11.14 4H24.597c-.3 0-.597-.286-.597-.57v-.86c0-.284.298-.57.597-.57h18.806c.3 0 .597.286.597.57v.86c0 .284-.298.57-.597.57h-3.188l-.596-.286c-.498-.19-1.095-.38-1.692-.38-.795 0-1.492.285-2.188.666z"/></g></g></svg>