<svg id="Capa_1" xmlns="http://www.w3.org/2000/svg" viewBox="0 0 64 64"><style>.st0{fill:#222}.st1{fill:#fff}</style><path class="st0" d="M0 0h64v64H0V0z"/><path class="st1" d="M14 50.1s-.6-4.4 1.2-7.7c-.8.5-1.5 1.1-2.3 1.8-3.2 3.2-2.4 9.3-2.4 9.3s6.1.8 9.3-2.4c.7-.7 1.3-1.5 1.8-2.3-3.2 1.9-7.6 1.3-7.6 1.3z"/><path class="st1" d="M40.1 37.3c.1-.1.2-.2.3-.2l.1.1v-.3c2.1-1.8 3.9-3.4 5.4-4.9 3.3-3.3 5.6-6.6 7-10S55 14.7 55 10c0-.2-.1-.4-.3-.6-.2-.2-.4-.3-.7-.3-4.8 0-8.8.7-12 2-3.1 1.3-6.5 3.7-9.9 7.2-1.5 1.5-3.1 3.3-4.9 5.4h-.3l.1.1c-.1.1-.2.2-.2.3L17.6 26S9 39 9.1 38.9l12.8-3.1s-.3 2.5 1.9 4.6c2.4 2.4 4.6 1.9 4.6 1.9S25.4 55 25.5 55l12.8-8.4 1.8-9.3zm6-22c.7 0 1.4.3 1.9.8s.8 1.1.8 1.9c0 .7-.3 1.4-.8 1.9s-1.1.8-1.9.8c-.7 0-1.4-.3-1.9-.8s-.8-1.1-.8-1.9c0-.7.3-1.4.8-1.9.5-.6 1.2-.8 1.9-.8z"/></svg>