<svg viewBox="0 0 64 64" xmlns="http://www.w3.org/2000/svg"><title>module-filelist</title><g fill="none" fill-rule="evenodd"><path d="M0 0h64v64H0z" fill="#4C7E3A"/><path d="M34 40.04H21.732c-3.156 0-5.732-2.313-5.732-5.47 0-2.787 1.997-5.11 4.64-5.612.51-3.926 3.866-6.958 7.93-6.958 2.097 0 4.004.805 5.43 2.124V40.04zM46.094 32c.69.496 1.235 1.178 1.563 1.974-.05.017-.103.026-.157.026h-11c-.276 0-.5-.214-.5-.505v-.99c0-.28.23-.505.5-.505h9.594zm-2.66-2c-.01-.636-.12-1.142-.12-1.142-.06-.295-.142-.58-.245-.858H36.5c-.27 0-.5.226-.5.505v.99c0 .29.224.505.5.505h6.933zm4.528 6.306c-.082.626-.294 1.197-.608 1.694H36.5c-.276 0-.5-.214-.5-.505v-.99c0-.28.23-.505.5-.505h11c.208 0 .386.122.462.306z" fill="#FFF"/></g></svg>