<svg xmlns="http://www.w3.org/2000/svg" viewBox="24 -24 64 64"><path fill="#59F" d="M24-24h64v64H24z"/><g fill="#FFF"><path d="M70.625 17.226c-3.268-.932-5.686-2.162-7.983-3.135.034.453-.07.903-.508 1.34-1.427 1.546-3.65 2.432-6.097 2.432-2.47 0-4.78-.91-6.146-2.403-.46-.463-.556-.93-.508-1.38-2.304.974-4.728 2.21-8.007 3.146 0 0-3.15 1.8-3.375 8.774h36c-.226-7.2-3.375-8.774-3.375-8.774z"/><path d="M55.998 10.252c-1.594 0-3.175-.926-4.494-2.235-.1 5.45-1.73 5.91-.907 6.735 2.474 2.7 8.1 2.926 10.8 0 .83-.828-.624-1.29-.863-6.78-1.328 1.334-2.922 2.28-4.536 2.28z"/><path d="M55.998 10.252c-3.826 0-7.652-5.174-7.652-8.774v-4.952c0-3.6 3.152-6.526 6.752-6.526h1.8c3.826 0 6.752 2.926 6.752 6.526v4.952c-.003 3.596-3.825 8.774-7.652 8.774z"/></g></svg>