<svg xmlns="http://www.w3.org/2000/svg" viewBox="0 0 64 64"><path fill="#415697" d="M0 0h64v64H0z"/><path fill="#FFF" d="M53 24H35c-.552 0-1-.448-1-1v-4c0-.552.448-1 1-1h18c.552 0 1 .448 1 1v4c0 .552-.448 1-1 1z"/><path fill="#415697" d="M50 20h2v2h-2zM46 20h2v2h-2z"/><path fill="#FFF" d="M53 32H35c-.552 0-1-.448-1-1v-4c0-.552.448-1 1-1h18c.552 0 1 .448 1 1v4c0 .552-.448 1-1 1z"/><path fill="#415697" d="M50 28h2v2h-2zM46 28h2v2h-2z"/><path fill="#FFF" d="M53 44H35c-.552 0-1-.448-1-1v-8c0-.552.448-1 1-1h18c.552 0 1 .448 1 1v8c0 .552-.448 1-1 1z"/><path fill="#415697" d="M50 40h2v2h-2zM46 40h2v2h-2z"/><path fill="#FFF" d="M42 46h4v4h-4zM29 24H11c-.552 0-1-.448-1-1v-4c0-.552.448-1 1-1h18c.552 0 1 .448 1 1v4c0 .552-.448 1-1 1z"/><path fill="#415697" d="M26 20h2v2h-2zM22 20h2v2h-2z"/><path fill="#FFF" d="M29 32H11c-.552 0-1-.448-1-1v-4c0-.552.448-1 1-1h18c.552 0 1 .448 1 1v4c0 .552-.448 1-1 1z"/><path fill="#415697" d="M26 28h2v2h-2zM22 28h2v2h-2z"/><path fill="#FFF" d="M29 44H11c-.552 0-1-.448-1-1v-8c0-.552.448-1 1-1h18c.552 0 1 .448 1 1v8c0 .552-.448 1-1 1z"/><path fill="#415697" d="M26 40h2v2h-2zM22 40h2v2h-2z"/><path fill="#FFF" d="M18 46h4v4h-4z"/><path opacity=".5" fill="#FFF" d="M42 44h4v2h-4zM18 44h4v2h-4z"/><path fill="#FFF" d="M18 48h28v2H18z"/></svg>