<svg xmlns="http://www.w3.org/2000/svg" viewBox="0 0 64 64"><path fill="#8B2F60" d="M0 0h64v64H0z"/><path fill="#FFF" d="M45 50H17c-.552 0-1-.448-1-1V15c0-.552.448-1 1-1h28c.552 0 1 .448 1 1v34c0 .552-.448 1-1 1z"/><path fill="#8B2F60" d="M42 42h4v2h-4z"/><path opacity=".75" fill="#8B2F60" d="M42 44h4v6h-4z"/><path fill="#8B2F60" d="M42 34h4v2h-4z"/><path opacity=".75" fill="#8B2F60" d="M42 36h4v6h-4z"/><path fill="#8B2F60" d="M42 26h4v2h-4z"/><path opacity=".75" fill="#8B2F60" d="M42 28h4v6h-4z"/><path fill="#8B2F60" d="M20 18h16v2H20z"/><path opacity=".5" fill="#8B2F60" d="M20 22h10v2H20zM20 26h10v2H20zM20 34h4v12h-4zM26 38h4v8h-4zM32 32h4v14h-4z"/></svg>