<svg xmlns="http://www.w3.org/2000/svg" viewBox="0 0 64 64"><path fill="#59F" d="M0 0h64v64H0z"/><path fill="#FFF" d="M35 42h-6c-.552 0-1 .448-1 1v6c0 .552.448 1 1 1h6c.552 0 1-.448 1-1v-6c0-.552-.448-1-1-1zM43.78 23.81c-.852-4.8-4.786-8.744-9.592-9.6-7.225-1.287-13.555 3.9-14.16 10.73-.047.57.445 1.067 1.02 1.067h6.037c.485 0 .88-.353.98-.828.564-2.64 3.733-4.33 6.675-2.22.1.07.194.166.266.267 1.817 2.573.864 4.98-.95 6.11-3.624 2.056-6.07 4.93-6.07 9.397V39c0 .552.447 1 1 1h5.997c.552 0 1-.448 1-1v-.268c0-1.435.804-1.635 1.943-2.34 4.19-2.39 6.805-7.22 5.854-12.58z"/></svg>