<?xml version="1.0" encoding="utf-8"?>
<!-- Generator: Adobe Illustrator 19.1.1, SVG Export Plug-In . SVG Version: 6.00 Build 0)  -->
<svg version="1.1" xmlns="http://www.w3.org/2000/svg" xmlns:xlink="http://www.w3.org/1999/xlink" x="0px" y="0px"
	 viewBox="0 0 11 11" enable-background="new 0 0 11 11" xml:space="preserve">
<path fill="#666666" d="M9.972,4C9.723,1.753,7.812,0,5.5,0S1.277,1.753,1.028,4H0v7h11V4H9.972z M4.634,4
	C4.807,3.701,5.131,3.5,5.5,3.5S6.193,3.701,6.366,4H4.634z"/>
<rect x="1" y="5" fill="#FFC857" width="9" height="5"/>
<path fill="#AAAAAA" d="M3.5,5c0,0,0-0.326,0-0.5c0-1.103,0.897-2,2-2s2,0.897,2,2c0,0.174,0,0.5,0,0.5H9c0,0,0-0.329,0-0.5
	C9,2.567,7.433,1,5.5,1S2,2.567,2,4.5C2,4.671,2,5,2,5H3.5z"/>
<path opacity="0.3" d="M6.5,7c0-0.552-0.448-1-1-1s-1,0.448-1,1c0,0.366,0.206,0.673,0.5,0.847V9h1V7.847
	C6.294,7.673,6.5,7.366,6.5,7z"/>
</svg>
