<?xml version="1.0" encoding="utf-8"?>
<!-- Generator: Adobe Illustrator 19.1.1, SVG Export Plug-In . SVG Version: 6.00 Build 0)  -->
<svg version="1.1" id="Ebene_1" xmlns="http://www.w3.org/2000/svg" xmlns:xlink="http://www.w3.org/1999/xlink" x="0px" y="0px"
	 viewBox="0 0 11 11" enable-background="new 0 0 11 11" xml:space="preserve">
<g>
	<path fill="#666666" d="M5.725,0h-0.45C3.818,0,2.588,1.205,2.588,2.631v1.237c0,0.649,0.287,1.38,0.769,1.99
		C3.345,5.976,3.33,6.075,3.313,6.159C3.218,6.2,3.123,6.243,3.025,6.286C2.584,6.482,2.129,6.684,1.569,6.844L1.453,6.877
		l-0.105,0.06C1.135,7.059,0,7.809,0,10v1h11v-1c0-2.275-1.175-2.978-1.396-3.088L9.52,6.87L9.431,6.844
		C8.869,6.684,8.412,6.48,7.97,6.284C7.884,6.246,7.799,6.208,7.715,6.171C7.696,6.077,7.677,5.967,7.662,5.833
		c0.47-0.606,0.751-1.327,0.751-1.966V2.631C8.412,1.156,7.232,0,5.725,0L5.725,0z"/>
	<path fill="#FFC857" d="M9.156,7.806C8.207,7.535,7.544,7.164,6.884,6.91C6.821,6.703,6.67,6.336,6.634,5.492
		c0.454-0.457,0.779-1.103,0.779-1.623V2.631C7.413,1.731,6.682,1,5.725,1h-0.45c-0.9,0-1.688,0.731-1.688,1.631v1.237
		c0,0.525,0.329,1.177,0.789,1.635l0,0C4.361,6.332,4.205,6.697,4.131,6.904C3.465,7.158,2.8,7.533,1.844,7.806
		c0,0-0.787,0.45-0.844,2.194h4.5H10C9.944,8.2,9.156,7.806,9.156,7.806z"/>
	<path fill="#5599FF" d="M9.156,7.806c-0.95-0.271-1.612-0.642-2.273-0.897C6.923,7.04,6.93,7.106,6.849,7.187
		c-0.675,0.731-2.081,0.675-2.7,0C4.067,7.105,4.083,7.038,4.132,6.903C3.466,7.157,2.8,7.532,1.843,7.806
		c0,0-0.787,0.45-0.844,2.194h4.5H10C9.944,8.2,9.156,7.806,9.156,7.806z"/>
</g>
</svg>
