<?xml version="1.0" encoding="UTF-8" standalone="no"?>
<svg
   xmlns:dc="http://purl.org/dc/elements/1.1/"
   xmlns:cc="http://creativecommons.org/ns#"
   xmlns:rdf="http://www.w3.org/1999/02/22-rdf-syntax-ns#"
   xmlns:svg="http://www.w3.org/2000/svg"
   xmlns="http://www.w3.org/2000/svg"
   height="10"
   width="10"
   id="svg2"
   xml:space="preserve"
   enable-background="new 0 0 11 11"
   viewBox="0 0 10 10"
   y="0px"
   x="0px"
   version="1.1"><metadata
     id="metadata24"><rdf:RDF><cc:Work
         rdf:about=""><dc:format>image/svg+xml</dc:format><dc:type
           rdf:resource="http://purl.org/dc/dcmitype/StillImage" /><dc:title></dc:title></cc:Work></rdf:RDF></metadata><defs
     id="defs22" /><g
     transform="translate(0,-1)"
     id="g4"><path
       style="fill:#79a548"
       id="path6"
       d="M 9.0636421,8.5627273 C 8.0090007,8.2618182 7.2725701,7.8490909 6.5379579,7.5663636 c 0.044549,0.1454546 0.051823,0.2190909 -0.037276,0.3090909 -0.7500682,0.8127273 -2.3129376,0.75 -3.0002728,0 C 3.4094921,7.7845455 3.4267661,7.71 3.4813161,7.56 2.7412488,7.8418182 2.0011815,8.2590909 0.93835764,8.5627273 c 0,0 -0.87462496,0.5 -0.93735794,2.4372727 L 5.0014546,11 10.001,11 C 9.938267,9 9.0636421,8.5627273 9.0636421,8.5627273 Z" /><path
       style="fill:#ffc857"
       id="path10"
       d="m 5.0005454,6.6254545 c -0.4427675,0 -0.8818983,-0.2572727 -1.2482953,-0.620909 l 0,0 0,0 c -0.028184,1.5127272 -0.4809528,1.640909 -0.2518411,1.870909 0.6873352,0.75 2.2502046,0.8127273 3.0002728,0 C 6.7307027,7.6445455 6.3270296,7.5172727 6.26066,5.9909091 5.8915355,6.3627273 5.448768,6.6254545 5.0005454,6.6254545 Z" /><path
       style="fill:#ffc857"
       id="path16"
       d="m 5.0005454,6.6254545 c -1.0628239,0 -2.1256478,-1.4372727 -2.1256478,-2.4372727 l 0,-1.3754545 C 2.8748976,1.8127273 3.7504318,1 4.7505227,1 L 5.2505681,1 C 6.313392,1 7.1261932,1.8127273 7.1261932,2.8127273 l 0,1.3754545 C 7.125284,5.1872727 6.0633693,6.6254545 5.0005454,6.6254545 l 0,0 z" /><path
       id="path4152"
       d="m 4.7480469,0.99999985 c -1.000091,0 -1.875,0.81249995 -1.875,1.81250005 l 0,1.3749999 c 0,0.582718 0.3654661,1.3076397 0.876953,1.8164063 -0.018956,1.0175603 -0.218737,1.3923709 -0.285156,1.609375 0.00618,-0.019087 0.00565,-0.030676 0.013672,-0.052734 -0.740067,0.2818182 -1.480145,0.6983168 -2.54296895,1.0019532 0,0 -0.872814,0.5002273 -0.935547000000001,2.4374998 L 4.9999999,11 10,11 C 9.937267,8.9999999 9.0625,8.5624999 9.0625,8.5624999 8.0078589,8.2615908 7.2697679,7.8491334 6.5351559,7.5664061 c 0.00496,0.016194 0.00386,0.024527 0.00781,0.039063 -0.056091,-0.2188777 -0.240656,-0.5984011 -0.285153,-1.6152347 0.504912,-0.508374 0.866662,-1.2251439 0.867187,-1.8027345 l 0,-1.3749999 c 0,-1.0000001 -0.814129,-1.81250005 -1.876953,-1.81250005 l -0.5,0 z m 0.029297,0.36718745 0.410156,0 c 0.871761,0 1.539063,0.6834586 1.539063,1.5253906 l 0,1.1582031 c -4.72e-4,0.532045 -0.349398,1.2107776 -0.826172,1.6386719 0.055052,1.4968148 0.341738,2.0055136 0.470703,2.3046875 l 0.011719,0 c 0.669287,0.214782 1.341878,0.5272651 2.302734,0.7558595 0,0 0.796362,0.3322042 0.8535161,1.8515631 l -4.5546881,0 -4.55663995,0 C 0.48488895,9.1298567 1.2812499,8.7499999 1.2812499,8.7499999 2.2495609,8.5193337 2.9253539,8.2023726 3.599609,7.9882811 l 0.017579,0 C 3.779796,7.7160636 4.0677389,7.2292269 4.1230469,5.7324218 3.6181329,5.3089339 3.2402349,4.6036045 3.2402349,4.0507811 l 0,-1.1582031 c 0,-0.841932 0.716804,-1.5253906 1.537109,-1.5253906 z"
       style="fill:#000000;fill-opacity:1" /></g></svg>