<?xml version="1.0" encoding="UTF-8" standalone="no"?>
<!-- Generator: Adobe Illustrator 19.1.0, SVG Export Plug-In . SVG Version: 6.00 Build 0)  -->

<svg
   xmlns:dc="http://purl.org/dc/elements/1.1/"
   xmlns:cc="http://creativecommons.org/ns#"
   xmlns:rdf="http://www.w3.org/1999/02/22-rdf-syntax-ns#"
   xmlns:svg="http://www.w3.org/2000/svg"
   xmlns="http://www.w3.org/2000/svg"
   xmlns:sodipodi="http://sodipodi.sourceforge.net/DTD/sodipodi-0.dtd"
   xmlns:inkscape="http://www.inkscape.org/namespaces/inkscape"
   version="1.1"
   x="0px"
   y="0px"
   viewBox="0 0 10 10"
   enable-background="new 0 0 16 16"
   xml:space="preserve"
   id="svg2"
   inkscape:version="0.91 r13725"
   sodipodi:docname="overlay-locked.svg"
   width="10"
   height="10"><metadata
     id="metadata15"><rdf:RDF><cc:Work
         rdf:about=""><dc:format>image/svg+xml</dc:format><dc:type
           rdf:resource="http://purl.org/dc/dcmitype/StillImage" /><dc:title></dc:title></cc:Work></rdf:RDF></metadata><defs
     id="defs13" /><sodipodi:namedview
     pagecolor="#ffffff"
     bordercolor="#666666"
     borderopacity="1"
     objecttolerance="10"
     gridtolerance="10"
     guidetolerance="10"
     inkscape:pageopacity="0"
     inkscape:pageshadow="2"
     inkscape:window-width="2048"
     inkscape:window-height="1051"
     id="namedview11"
     showgrid="false"
     inkscape:zoom="1"
     inkscape:cx="3.2799598"
     inkscape:cy="2.4032683"
     inkscape:window-x="2048"
     inkscape:window-y="23"
     inkscape:window-maximized="1"
     inkscape:current-layer="overlay-locked"
     showguides="false" /><g
     id="overlay-locked"
     transform="translate(0,-6)"><g
       id="g4165"
       transform="translate(0,-0.09999999)"><path
         d="M 5.0000001,6.4 C 2.8000001,6.4 1,8.2 1,10.4 l 0,0 0,0.8 1.6000002,0 0,-0.8 0,0 c 0,-1.3360001 1.0639999,-2.4 2.3999999,-2.4 1.336,0 2.4,1.0639999 2.4,2.4 l 0,0 0,0.8 L 9,11.2 l 0,-0.8 0,0 C 9,8.2 7.2,6.4 5.0000001,6.4 Z"
         id="path4159"
         inkscape:connector-curvature="0"
         style="fill:#aaaaaa;stroke:#000000;stroke-width:0.60000002;stroke-miterlimit:4;stroke-dasharray:none;stroke-opacity:1" /><path
         style="fill:#aaaaaa"
         inkscape:connector-curvature="0"
         id="path5"
         d="M 5.0000001,6.4 C 2.8000001,6.4 1,8.2 1,10.4 l 0,0 0,0.8 1.6000002,0 0,-0.8 0,0 c 0,-1.3360001 1.0639999,-2.4 2.3999999,-2.4 1.336,0 2.4,1.0639999 2.4,2.4 l 0,0 0,0.8 L 9,11.2 l 0,-0.8 0,0 C 9,8.2 7.2,6.4 5.0000001,6.4 Z" /></g><rect
       x="0"
       y="10"
       width="10"
       height="6"
       id="rect7"
       style="fill:#ffc857" /><rect
       style="opacity:1;fill:#000000;fill-opacity:1;stroke:none;stroke-width:1;stroke-linecap:square;stroke-linejoin:round;stroke-miterlimit:4;stroke-dasharray:none;stroke-dashoffset:0;stroke-opacity:1"
       id="rect4145"
       width="10"
       height="0.30000001"
       x="0"
       y="15.7" /><rect
       y="-10.3"
       x="0"
       height="0.30000001"
       width="1"
       id="rect4147"
       style="opacity:1;fill:#000000;fill-opacity:1;stroke:none;stroke-width:1;stroke-linecap:square;stroke-linejoin:round;stroke-miterlimit:4;stroke-dasharray:none;stroke-dashoffset:0;stroke-opacity:1"
       transform="scale(1,-1)" /><rect
       transform="matrix(0,1,1,0,0,0)"
       style="opacity:1;fill:#000000;fill-opacity:1;stroke:none;stroke-width:1;stroke-linecap:square;stroke-linejoin:round;stroke-miterlimit:4;stroke-dasharray:none;stroke-dashoffset:0;stroke-opacity:1"
       id="rect4149"
       width="6"
       height="0.30000001"
       x="10"
       y="0" /><rect
       y="9.6999998"
       x="10"
       height="0.30000001"
       width="6"
       id="rect4151"
       style="opacity:1;fill:#000000;fill-opacity:1;stroke:none;stroke-width:1;stroke-linecap:square;stroke-linejoin:round;stroke-miterlimit:4;stroke-dasharray:none;stroke-dashoffset:0;stroke-opacity:1"
       transform="matrix(0,1,1,0,0,0)" /><rect
       transform="scale(1,-1)"
       style="opacity:1;fill:#000000;fill-opacity:1;stroke:none;stroke-width:1;stroke-linecap:square;stroke-linejoin:round;stroke-miterlimit:4;stroke-dasharray:none;stroke-dashoffset:0;stroke-opacity:1"
       id="rect4153"
       width="4.75"
       height="0.30000001"
       x="2.625"
       y="-10.3" /><rect
       transform="scale(1,-1)"
       style="opacity:1;fill:#000000;fill-opacity:1;stroke:none;stroke-width:1;stroke-linecap:square;stroke-linejoin:round;stroke-miterlimit:4;stroke-dasharray:none;stroke-dashoffset:0;stroke-opacity:1"
       id="rect4155"
       width="1"
       height="0.30000001"
       x="9"
       y="-10.3" /><circle
       style="opacity:1;fill:#e8a33d;fill-opacity:1;stroke:none;stroke-width:0;stroke-linecap:square;stroke-linejoin:round;stroke-miterlimit:4;stroke-dasharray:none;stroke-dashoffset:0;stroke-opacity:1"
       id="path4171"
       cx="5"
       cy="12.447573"
       r="1" /><rect
       style="opacity:1;fill:#e8a33d;fill-opacity:1;stroke:none;stroke-width:0;stroke-linecap:square;stroke-linejoin:round;stroke-miterlimit:4;stroke-dasharray:none;stroke-dashoffset:0;stroke-opacity:1"
       id="rect4173"
       width="1"
       height="2.2318058"
       x="4.5"
       y="12.597049" /></g></svg>