<?xml version="1.0" encoding="UTF-8" standalone="no"?>
<!-- Generator: Adobe Illustrator 19.1.0, SVG Export Plug-In . SVG Version: 6.00 Build 0)  -->

<svg
   xmlns:dc="http://purl.org/dc/elements/1.1/"
   xmlns:cc="http://creativecommons.org/ns#"
   xmlns:rdf="http://www.w3.org/1999/02/22-rdf-syntax-ns#"
   xmlns:svg="http://www.w3.org/2000/svg"
   xmlns="http://www.w3.org/2000/svg"
   xmlns:sodipodi="http://sodipodi.sourceforge.net/DTD/sodipodi-0.dtd"
   xmlns:inkscape="http://www.inkscape.org/namespaces/inkscape"
   version="1.1"
   x="0px"
   y="0px"
   viewBox="0 0 16 16"
   enable-background="new 0 0 16 16"
   xml:space="preserve"
   id="svg2"
   inkscape:version="0.91 r13725"
   sodipodi:docname="overlay-deleted.svg"><metadata
     id="metadata17"><rdf:RDF><cc:Work
         rdf:about=""><dc:format>image/svg+xml</dc:format><dc:type
           rdf:resource="http://purl.org/dc/dcmitype/StillImage" /></cc:Work></rdf:RDF></metadata><defs
     id="defs15" /><sodipodi:namedview
     pagecolor="#ffffff"
     bordercolor="#666666"
     borderopacity="1"
     objecttolerance="10"
     gridtolerance="10"
     guidetolerance="10"
     inkscape:pageopacity="0"
     inkscape:pageshadow="2"
     inkscape:window-width="1920"
     inkscape:window-height="1027"
     id="namedview13"
     showgrid="false"
     showguides="false"
     inkscape:zoom="1"
     inkscape:cx="8.9629893"
     inkscape:cy="12.629869"
     inkscape:window-x="-8"
     inkscape:window-y="-8"
     inkscape:window-maximized="1"
     inkscape:current-layer="svg2" /><rect
     style="fill:#8c8c8c"
     y="0"
     id="rect5"
     height="3"
     width="5.25"
     x="5.375" /><path
     style="fill:#b9b9b9"
     inkscape:connector-curvature="0"
     id="path7"
     d="m 2.745,16 10.5,0 L 14.5,5 1.8,5 Z"
     sodipodi:nodetypes="ccccc" /><rect
     style="fill:#b9b9b9"
     id="rect9"
     height="4"
     width="14"
     y="2"
     x="1" /><rect
     style="fill:#8c8c8c"
     id="rect11"
     height="1"
     width="14"
     y="4.5999999"
     x="1" /><path
     style="color:#000000;font-style:normal;font-variant:normal;font-weight:normal;font-stretch:normal;font-size:medium;line-height:normal;font-family:sans-serif;text-indent:0;text-align:start;text-decoration:none;text-decoration-line:none;text-decoration-style:solid;text-decoration-color:#000000;letter-spacing:normal;word-spacing:normal;text-transform:none;direction:ltr;block-progression:tb;writing-mode:lr-tb;baseline-shift:baseline;text-anchor:start;white-space:normal;clip-rule:nonzero;display:inline;overflow:visible;visibility:visible;opacity:1;isolation:auto;mix-blend-mode:normal;color-interpolation:sRGB;color-interpolation-filters:linearRGB;solid-color:#000000;solid-opacity:1;fill:#000000;fill-opacity:1;fill-rule:nonzero;stroke:none;stroke-width:0.40000001;stroke-linecap:butt;stroke-linejoin:miter;stroke-miterlimit:4;stroke-dasharray:none;stroke-dashoffset:0;stroke-opacity:1;color-rendering:auto;image-rendering:auto;shape-rendering:auto;text-rendering:auto;enable-background:accumulate"
     d="M 5 0 L 5 0.19921875 L 5 2 L 1.4003906 2 L 1 2 L 1 2.4003906 L 1 6 L 1.4003906 6 L 1.8808594 6 L 2.7167969 15.966797 L 2.7167969 16 L 13.597656 16 L 13.599609 16 L 13.597656 15.994141 L 14.433594 6 L 15.400391 6 L 15.400391 5.5996094 L 15.400391 2 L 15 2 L 11 2 L 11 0 L 5 0 z M 5.4003906 0.40039062 L 10.599609 0.40039062 L 10.599609 2 L 10.599609 2.4003906 L 15 2.4003906 L 15 5.5996094 L 14.466797 5.5996094 L 14.400391 5.5996094 L 14.068359 5.5996094 L 13.230469 15.599609 L 3.0878906 15.599609 L 2.2480469 5.5996094 L 2 5.5996094 L 1.8945312 5.5996094 L 1.4003906 5.5996094 L 1.4003906 2.4003906 L 5.4003906 2.4003906 L 5.4003906 2 L 5.4003906 0.40039062 z "
     id="rect4145" /></svg>