<?xml version="1.0" encoding="utf-8"?>
<!-- Generator: Adobe Illustrator 19.1.0, SVG Export Plug-In . SVG Version: 6.00 Build 0)  -->
<svg version="1.1" xmlns="http://www.w3.org/2000/svg" xmlns:xlink="http://www.w3.org/1999/xlink" x="0px" y="0px"
	 viewBox="0 0 11 11" enable-background="new 0 0 11 11" xml:space="preserve">
<g>
	<path fill="#79A548" d="M9.969,8.319c-1.16-0.331-1.97-0.785-2.778-1.096c0.049,0.16,0.057,0.241-0.041,0.34
		c-0.825,0.894-2.544,0.825-3.3,0c-0.1-0.1-0.081-0.182-0.021-0.347c-0.814,0.31-1.628,0.769-2.797,1.103
		c0,0-0.962,0.55-1.031,2.681h5.5H11C10.931,8.8,9.969,8.319,9.969,8.319z"/>
	<path opacity="0.2" enable-background="new    " d="M0.754,10.313c0.147-0.89,0.481-1.267,0.586-1.368
		C2.098,8.718,2.71,8.447,3.253,8.205C3.316,8.178,3.377,8.15,3.438,8.123c0.503,0.485,1.267,0.771,2.074,0.771
		c0.813,0,1.559-0.286,2.051-0.771C7.624,8.15,7.685,8.177,7.747,8.205C8.292,8.447,8.907,8.72,9.669,8.946
		c0.111,0.098,0.439,0.458,0.581,1.365L10.313,11H11c-0.069-2.2-1.031-2.681-1.031-2.681c-1.16-0.331-1.97-0.785-2.778-1.096
		c0.049,0.16,0.057,0.241-0.041,0.34C6.746,8,6.127,8.207,5.512,8.207c-0.64,0-1.276-0.224-1.662-0.645
		c-0.1-0.1-0.081-0.182-0.021-0.347c-0.814,0.31-1.628,0.769-2.797,1.103c0,0-0.962,0.55-1.031,2.681h0.688L0.754,10.313z"/>
	<path fill="#FFC857" d="M5.5,6.188c-0.487,0-0.97-0.283-1.373-0.683l0,0l0,0C4.096,7.169,3.598,7.31,3.85,7.563
		c0.756,0.825,2.475,0.894,3.3,0C7.403,7.309,6.959,7.169,6.886,5.49C6.48,5.899,5.993,6.188,5.5,6.188z"/>
	<path opacity="0.2" enable-background="new    " d="M3.61,7.306c0.072-0.03,0.146-0.063,0.219-0.091
		C3.769,7.38,3.75,7.463,3.85,7.563c0.091,0.098,0.196,0.185,0.311,0.262l0.207-0.079l0.107-0.298l0.019-0.053
		c0.088-0.24,0.238-0.658,0.297-1.403c-0.237-0.12-0.459-0.285-0.663-0.488l0,0c-0.019,1.013-0.21,1.458-0.3,1.711
		C3.755,7.243,3.682,7.276,3.61,7.306z"/>
	<path opacity="0.2" enable-background="new    " d="M6.535,7.424l0.098,0.32l0.205,0.079C6.95,7.747,7.057,7.663,7.15,7.562
		c0.098-0.098,0.09-0.18,0.041-0.34c0.001,0,0.001,0,0.001,0.001C7.116,6.971,6.931,6.522,6.887,5.49
		C6.685,5.693,6.465,5.86,6.232,5.981C6.3,6.691,6.431,7.102,6.508,7.339L6.535,7.424z"/>
	<path fill="#FFC857" d="M5.5,6.188c-1.169,0-2.338-1.581-2.338-2.681V1.994C3.162,0.894,4.125,0,5.225,0h0.55
		c1.169,0,2.063,0.894,2.063,1.994v1.513C7.837,4.606,6.669,6.188,5.5,6.188L5.5,6.188z"/>
	<path opacity="0.2" enable-background="new    " d="M5.775,0.688c0.771,0,1.375,0.574,1.375,1.306v1.513
		C7.15,4.276,6.249,5.5,5.5,5.5S3.85,4.276,3.85,3.506V1.994c0-0.696,0.643-1.306,1.375-1.306L5.775,0.688 M5.775,0h-0.55
		c-1.1,0-2.063,0.894-2.063,1.994v1.513c0,1.1,1.169,2.681,2.338,2.681s2.337-1.581,2.337-2.681V1.994C7.837,0.894,6.944,0,5.775,0
		L5.775,0z"/>
</g>
</svg>
