<?xml version="1.0" encoding="UTF-8" standalone="no"?>
<!-- Generator: Adobe Illustrator 19.1.0, SVG Export Plug-In . SVG Version: 6.00 Build 0)  -->

<svg
   xmlns:dc="http://purl.org/dc/elements/1.1/"
   xmlns:cc="http://creativecommons.org/ns#"
   xmlns:rdf="http://www.w3.org/1999/02/22-rdf-syntax-ns#"
   xmlns:svg="http://www.w3.org/2000/svg"
   xmlns="http://www.w3.org/2000/svg"
   xmlns:sodipodi="http://sodipodi.sourceforge.net/DTD/sodipodi-0.dtd"
   xmlns:inkscape="http://www.inkscape.org/namespaces/inkscape"
   version="1.1"
   x="0px"
   y="0px"
   viewBox="0 0 16 16"
   enable-background="new 0 0 16 16"
   xml:space="preserve"
   id="svg2"
   inkscape:version="0.91 r13725"
   sodipodi:docname="overlay-info.svg"><metadata
     id="metadata15"><rdf:RDF><cc:Work
         rdf:about=""><dc:format>image/svg+xml</dc:format><dc:type
           rdf:resource="http://purl.org/dc/dcmitype/StillImage" /><dc:title></dc:title></cc:Work></rdf:RDF></metadata><defs
     id="defs13" /><sodipodi:namedview
     pagecolor="#ffffff"
     bordercolor="#666666"
     borderopacity="1"
     objecttolerance="10"
     gridtolerance="10"
     guidetolerance="10"
     inkscape:pageopacity="0"
     inkscape:pageshadow="2"
     inkscape:window-width="1920"
     inkscape:window-height="1027"
     id="namedview11"
     showgrid="false"
     inkscape:zoom="1"
     inkscape:cx="8"
     inkscape:cy="8"
     inkscape:window-x="-8"
     inkscape:window-y="-8"
     inkscape:window-maximized="1"
     inkscape:current-layer="overlay-missing" /><g
     id="overlay-missing"><circle
       fill="#C83C3C"
       cx="8"
       cy="8"
       r="7"
       id="circle5"
       style="fill:#5599ff;fill-opacity:1" /><g
       id="g4145"
       class="icon-color"
       transform="matrix(0.66666667,0,0,0.66666667,2.6666666,2.6666666)"
       style="fill:#ffffff;fill-opacity:1"><path
         id="path4147"
         d="M 7,2.25 C 7,2.11 7.11,2 7.25,2 l 1.5,0 C 8.89,2 9,2.11 9,2.25 l 0,1.5 C 9,3.89 8.89,4 8.75,4 L 7.25,4 C 7.11,4 7,3.89 7,3.75 l 0,-1.5 z"
         inkscape:connector-curvature="0"
         style="fill:#ffffff;fill-opacity:1" /><path
         id="path4149"
         d="m 10.75,14 -5.5,0 C 5.112,14 5,13.888 5,13.75 l 0,-1.5 C 5,12.112 5.112,12 5.25,12 L 7,12 7,8 6.25,8 C 6.11,8 6,7.89 6,7.75 L 6,6.25 C 6,6.112 6.112,6 6.25,6 l 2.5,0 C 8.888,6 9,6.112 9,6.25 l 0,5.75 1.75,0 c 0.138,0 0.25,0.112 0.25,0.25 l 0,1.5 C 11,13.888 10.888,14 10.75,14 Z"
         inkscape:connector-curvature="0"
         style="fill:#ffffff;fill-opacity:1" /></g></g></svg>