<?xml version="1.0" encoding="utf-8"?>
<!-- Generator: Adobe Illustrator 19.1.0, SVG Export Plug-In . SVG Version: 6.00 Build 0)  -->
<svg version="1.1" xmlns="http://www.w3.org/2000/svg" xmlns:xlink="http://www.w3.org/1999/xlink" x="0px" y="0px"
	 viewBox="0 0 11 11" enable-background="new 0 0 11 11" xml:space="preserve">
<g>
	<circle fill="#5599FF" cx="5.5" cy="5.5" r="5.5"/>
	<path fill="#AAD400" d="M10.3,5.3c-0.2-1.6-1.1-3-2.4-3.8C7.8,1.6,7.8,1.6,7.8,1.7C7.6,1.7,7.3,1.6,7.1,1.5c-0.5-0.2-1-0.2-1.5-0.1
		C5.5,1.5,5.1,1.6,5.2,2C5.4,2.2,5.7,2.4,6,2.1C6.1,2,6.3,1.8,6.4,2c0.1,0.1,0.1,0.1,0.1,0.2C6.4,2.4,6.3,2.5,6.1,2.5
		c-0.3,0.1-0.5,0-0.8,0.1C5,2.6,4.7,2.7,4.7,3c0,0.4-0.1,0.5-0.4,0.5C4,3.5,3.8,3.7,4,3.9C4,4.1,4.2,4.1,4.3,4.1
		c0.5-0.3,0.9-0.9,1.5-0.1L6,3.9c0.1-0.5,0.3-0.2,0.4,0c0.1,0.1,0.2,0.2,0.2,0.2c0.8-0.7,0.6,0.3,0.8,0.5C6.9,4.5,6.3,5,5.9,4.7
		c-0.8-0.6-1.3-0.3-2,0.3C3.3,5.4,3.2,6,3.3,6.5c0.2,0.7,0.9,0.7,1.5,0.6C5,7.1,5.4,7.1,5.4,7.2c-0.1,0.6,0.6,1,0.3,1.7
		c-0.2,0.5,0.1,1.2,0.6,1.4c0.4,0.2,0.8-0.3,1-0.8c0.1-0.1,0-0.2,0.1-0.3c0.5-0.7,0.4-1.7,1.1-2.3c0.2-0.2,0.8-0.9,0.3-1.5
		c1.2-0.3,0.8,0.9,1,1.4c0.2-0.4,0.3-0.8,0.4-1.1C10.3,5.4,10.3,5.4,10.3,5.3L10.3,5.3z"/>
	<path fill="#AAD400" d="M3.4,1.5c0.2-0.2,0.3-0.4,0.5-0.7C3.7,1,3.5,1,3.3,1.2l0,0C3.1,1.3,2.9,1.5,2.7,1.6c-0.1,0-0.1,0.1-0.1,0.1
		l0,0c0,0-0.1,0-0.1,0.1c0.1,0.1,0.1,0.1,0.1,0.1l0,0l0,0h0.1h0.1c0,0,0,0,0.1,0c0,0,0,0,0.1,0c0,0,0,0,0.1,0H3c0,0,0,0,0.1,0h0.1
		c0,0,0,0,0.1,0c0,0,0.1,0,0.1-0.1c0,0,0,0,0.1-0.1c0,0,0.1,0,0.1-0.1C3.4,1.7,3.4,1.7,3.4,1.5l0.2,0C3.3,1.7,3.3,1.6,3.4,1.5
		C3.4,1.6,3.4,1.6,3.4,1.5C3.4,1.6,3.4,1.5,3.4,1.5L3.4,1.5z"/>
	<path fill="#AAD400" d="M2.5,8L2.5,8C2.5,8,2.5,7.9,2.5,8C2.5,7.9,2.5,7.9,2.5,8C2.5,7.9,2.5,7.9,2.5,8L2.5,8c0-0.1,0-0.1,0-0.1
		l0,0c0,0,0,0,0-0.1L2.5,7.8l0,0c-0.1,0-0.1-0.1-0.1-0.1l0,0l0,0c-0.1,0-0.1-0.1-0.2-0.1c0,0,0,0-0.1,0c0,0,0,0-0.1,0
		c0,0-0.1,0-0.1-0.1C1.5,7.3,1.3,6.9,1.1,6.4c0-0.1-0.1-0.3-0.1-0.4C1,5.9,1,5.9,0.9,5.8C0.8,5.7,0.9,5.4,1,5.2C1,5.1,1,5.1,1,5
		S1,5,1.1,4.9l0,0c0-0.1,0-0.1,0.1-0.1c0.1-0.3,0.4-0.5,0.5-0.7C1.7,4.1,1.7,4.1,1.7,4c0,0,0,0,0-0.1c0.1-0.1,0.1-0.2,0.1-0.3l0,0
		c0-0.1,0.1-0.2,0.1-0.3l0,0c0-0.1,0-0.2-0.1-0.3l0,0C1.8,2.9,1.7,2.8,1.6,2.6C1,3.4,0.7,4.4,0.7,5.5c0,1.5,0.7,2.8,1.6,3.7
		c0,0,0.1,0,0.1-0.1c0,0,0,0,0-0.1l0,0C2.4,9,2.5,9,2.5,8.9l0,0l0,0C2.5,8.6,2.5,8.3,2.5,8L2.5,8z"/>
	<path opacity="0.2" d="M5.5,1C8,1,10,3,10,5.5S8,10,5.5,10S1,8,1,5.5S3,1,5.5,1 M5.5,0C2.5,0,0,2.5,0,5.5S2.5,11,5.5,11
		S11,8.5,11,5.5S8.5,0,5.5,0L5.5,0z"/>
</g>
</svg>
