<svg xmlns="http://www.w3.org/2000/svg" version="1.1" viewBox="0 0 11 11">
<g>
	<path fill="#FBB03B" d="M10.251,11H0.749c-0.562,0-0.923-0.598-0.663-1.097l4.751-9.129c0.28-0.537,1.047-0.537,1.327,0
		l4.751,9.129C11.174,10.402,10.813,11,10.251,11z"/>
	<path fill="#212121" opacity="0.2" d="M5.5,1.666L9.837,10H1.163L5.5,1.666 M5.5,0.371c-0.262,0-0.523,0.134-0.663,0.403L0.086,9.903
		C-0.174,10.402,0.187,11,0.749,11h9.502c0.562,0,0.923-0.598,0.663-1.097L6.163,0.774C6.023,0.506,5.762,0.371,5.5,0.371L5.5,0.371
		z"/>
	<path fill="#FFFFFF" d="M6,8v1H5V8H6z"/>
	<path fill="#FFFFFF" d="M6,4v3H5V4H6z"/>
</g>
</svg>
