<svg xmlns="http://www.w3.org/2000/svg" viewBox="0 0 11 11">
<g>
	<g>
		<path fill="#666666" d="M7.15,0h-0.3C5.678,0,4.725,0.937,4.725,2.088v0.825c0,0.434,0.161,0.91,0.438,1.33
			C4.895,4.362,4.617,4.482,4.288,4.576L4.171,4.609l-0.105,0.06C3.897,4.766,3.054,5.362,3.001,7L3,10h8V7
			c-0.053-1.638-0.897-2.234-1.066-2.331l-0.105-0.06L9.712,4.576C9.383,4.482,9.104,4.362,8.837,4.243
			c0.277-0.42,0.438-0.897,0.438-1.33V2.088C9.276,0.937,8.322,0,7.15,0L7.15,0z"/>
		<g>
			<path fill="#FFC857" d="M9.438,5.538C8.801,5.356,8.357,5.106,7.913,4.937C7.864,4.799,7.76,4.556,7.749,4.003l0,0
				c0.307-0.305,0.527-0.74,0.527-1.09V2.088C8.276,1.488,7.75,1,7.15,1h-0.3c-0.6,0-1.125,0.488-1.125,1.088v0.825
				c0,0.35,0.22,0.785,0.527,1.09l0,0c-0.01,0.553-0.114,0.796-0.164,0.934C5.644,5.106,5.2,5.356,4.563,5.538
				c0,0-0.525,0.3-0.562,1.462v1h6V7C9.962,5.838,9.438,5.538,9.438,5.538z"/>
		</g>
		<path fill="#AAD400" d="M9.438,5.538C8.805,5.357,8.363,5.11,7.923,4.94C7.95,5.027,7.954,5.071,7.901,5.125
			c-0.45,0.488-1.388,0.45-1.8,0C6.046,5.07,6.057,5.026,6.09,4.936C5.646,5.105,5.202,5.355,4.564,5.538c0,0-0.525,0.3-0.562,1.462
			v2h6V7C9.962,5.8,9.438,5.538,9.438,5.538z"/>
	</g>
	<g>
		<path fill="#666666" d="M4.15,2h-0.3C2.678,2,1.724,2.937,1.724,4.088v0.825c0,0.434,0.161,0.91,0.438,1.33
			C1.895,6.362,1.616,6.482,1.287,6.576L1.17,6.609l-0.105,0.06C0.897,6.766,0.054,7.362,0.001,9L0,11h8V9
			C7.947,7.362,7.103,6.766,6.934,6.669l-0.105-0.06L6.712,6.576C6.383,6.482,6.104,6.362,5.837,6.243
			c0.277-0.42,0.438-0.897,0.438-1.33V4.088C6.276,2.937,5.322,2,4.15,2L4.15,2z"/>
		<g>
			<path fill="#FFC857" d="M6.438,7.538C5.801,7.356,5.357,7.106,4.913,6.937C4.864,6.799,4.76,6.556,4.749,6.003l0,0
				c0.307-0.305,0.527-0.74,0.527-1.09V4.088C5.276,3.488,4.75,3,4.15,3h-0.3c-0.6,0-1.125,0.488-1.125,1.088v0.825
				c0,0.35,0.22,0.785,0.527,1.09l0,0c-0.01,0.553-0.114,0.796-0.164,0.934C2.644,7.106,2.2,7.356,1.563,7.538
				c0,0-0.525,0.3-0.562,1.462v1h6V9C6.962,7.838,6.438,7.538,6.438,7.538z"/>
		</g>
		<path fill="#79A548" d="M6.438,7.538C5.805,7.357,5.363,7.11,4.923,6.94C4.95,7.027,4.954,7.071,4.901,7.125
			c-0.45,0.488-1.388,0.45-1.8,0C3.046,7.07,3.057,7.026,3.09,6.936C2.646,7.105,2.202,7.355,1.564,7.538c0,0-0.525,0.3-0.562,1.462
			v1h6V9C6.962,7.8,6.438,7.538,6.438,7.538z"/>
	</g>
</g>
</svg>