<?xml version="1.0" encoding="utf-8"?>
<!-- Generator: Adobe Illustrator 19.1.0, SVG Export Plug-In . SVG Version: 6.00 Build 0)  -->
<svg version="1.1" id="Ebene_1" xmlns="http://www.w3.org/2000/svg" xmlns:xlink="http://www.w3.org/1999/xlink" x="0px" y="0px"
	 viewBox="0 0 11 11" enable-background="new 0 0 11 11" xml:space="preserve">
<g>
	<path fill="#C83C3C" d="M9.982,3.236L7.763,1.018L8.48,0.302c0.216-0.216,0.568-0.216,0.784,0l1.434,1.434
		c0.216,0.216,0.216,0.568,0,0.784L9.982,3.236z"/>
	
		<rect x="7.028" y="2.012" transform="matrix(0.7071 0.7071 -0.7071 0.7071 4.2177 -5.374)" fill="#B9B9B9" width="3.136" height="0.784"/>
	<polygon fill="#FFEDCF" points="0,11 1.109,7.673 1.664,7.118 3.882,9.336 3.35,9.891 	"/>
	<polygon fill="#333333" points="1.109,10.634 0,11 0.366,9.891 1.109,9.891 	"/>
	<polygon fill="#FF8700" points="9.427,3.791 3.882,9.336 2.773,9.336 2.773,8.227 1.664,8.227 1.664,7.118 7.209,1.573 	"/>
	<path d="M8.873,0.277c0.111,0,0.216,0.043,0.295,0.122l1.434,1.434c0.162,0.162,0.162,0.426,0,0.588L3.226,9.775l-2.817,0.817
		L1.257,7.72l7.321-7.321C8.656,0.321,8.762,0.277,8.873,0.277 M8.873,0c-0.177,0-0.355,0.068-0.49,0.203L1.011,7.574L0,11
		l3.372-0.978l7.426-7.404c0.27-0.271,0.27-0.71,0-0.98L9.363,0.203C9.227,0.068,9.05,0,8.873,0L8.873,0z"/>
</g>
</svg>
