<svg xmlns="http://www.w3.org/2000/svg" version="1.1" viewBox="0 0 11 11">
<polygon fill="#555555" points="8,0 7,0 4,0 3,0 3,1 1,1 0,1 0,2 0,4 0,5 1,5 1.126,5 1.817,10.133 1.933,11 2.808,11 8.192,11
	9.067,11 9.183,10.133 9.874,5 10,5 11,5 11,4 11,2 11,1 10,1 8,1 8,0 "/>
<path fill="#B9B9B9" d="M2,4h7l-0.808,6H2.808L2,4z"/>
<rect x="4" y="1" fill="#8C8C8C" width="3" height="1"/>
<rect x="1" y="2" fill="#B9B9B9" width="9" height="2"/>
<polygon fill="#212121" opacity="0.15" points="8.865,5 9,4 2,4 2.135,5 "/>
</svg>
