<?xml version="1.0" encoding="utf-8"?>
<!-- Generator: Adobe Illustrator 19.1.1, SVG Export Plug-In . SVG Version: 6.00 Build 0)  -->
<svg version="1.1" xmlns="http://www.w3.org/2000/svg" xmlns:xlink="http://www.w3.org/1999/xlink" x="0px" y="0px"
	 viewBox="0 0 11 11" enable-background="new 0 0 11 11" xml:space="preserve">
<g>
	<circle fill="#5599FF" cx="5.5" cy="5.5" r="5.5"/>
	<path opacity="0.2" d="M5.5,1C7.982,1,10,3.019,10,5.5S7.982,10,5.5,10S1,7.981,1,5.5S3.019,1,5.5,1 M5.5,0C2.463,0,0,2.462,0,5.5
		S2.463,11,5.5,11S11,8.538,11,5.5S8.538,0,5.5,0L5.5,0z"/>
	<path fill="#AAD400" d="M9.983,5.1c-0.141-1.52-1.03-2.824-2.279-3.523C7.645,1.64,7.629,1.603,7.629,1.665
		C7.451,1.728,7.213,1.603,7.035,1.541C6.561,1.354,6.087,1.354,5.671,1.478C5.493,1.541,5.079,1.603,5.256,1.977
		c0.118,0.188,0.415,0.375,0.712,0.125c0.118-0.125,0.238-0.312,0.415-0.125c0.06,0.063,0.06,0.125,0.06,0.188
		c-0.06,0.186-0.238,0.249-0.415,0.249c-0.238,0.062-0.476,0-0.712,0.062C5.077,2.54,4.721,2.602,4.721,2.914
		c0,0.373-0.119,0.436-0.416,0.498c-0.238,0-0.355,0.125-0.238,0.374c0.06,0.186,0.238,0.186,0.357,0.125
		c0.474-0.249,0.89-0.873,1.423-0.125l0.118-0.062c0.119-0.499,0.238-0.186,0.356,0L6.5,3.911C7.211,3.226,7.033,4.223,7.271,4.41
		C6.796,4.285,6.262,4.784,5.847,4.472C5.136,3.911,4.661,4.161,4.009,4.721C3.475,5.159,3.357,5.719,3.475,6.218
		C3.653,6.842,4.305,6.904,4.84,6.779c0.177-0.063,0.534-0.063,0.534,0.062C5.254,7.402,5.907,7.776,5.669,8.399
		c-0.177,0.499,0.12,1.122,0.534,1.309c0.416,0.186,0.771-0.312,0.95-0.748c0.059-0.062,0-0.186,0.059-0.249
		c0.474-0.624,0.415-1.558,1.008-2.182c0.178-0.186,0.771-0.872,0.296-1.434c1.127-0.312,0.714,0.81,0.95,1.31
		C9.643,6.031,9.761,5.657,9.88,5.344C9.939,5.158,9.983,5.1,9.983,5.1z"/>
	<path fill="#AAD400" d="M3.538,1.778C3.725,1.581,3.733,1.549,3.92,1.286c-0.391,0.138-0.883,0.41-1.236,0.706l0.108,0.114h0.561
		c0,0,0.062,0,0.062-0.064l0.062-0.066c0,0,0.062,0,0.062-0.066l0.062-0.066l0.062-0.066c-0.186,0.132-0.186,0.066-0.125,0
		c0,0.066,0,0.066,0,0c0,0.066,0,0,0,0L3.538,1.778z"/>
	<path fill="#AAD400" d="M2.714,7.846C2.714,7.846,2.653,7.787,2.714,7.846C2.653,7.787,2.653,7.787,2.714,7.846V7.787V7.728V7.669
		L2.653,7.61c-0.061,0-0.061-0.06-0.122-0.06S2.408,7.49,2.347,7.49H2.286H2.224c0,0-0.061,0-0.061-0.059
		C1.733,7.193,1.55,6.779,1.427,6.305c0-0.119-0.061-0.238-0.061-0.356c-0.06-0.06-0.06-0.119-0.122-0.179
		c-0.122-0.118-0.06-0.355,0.062-0.593V5.059c0-0.06,0-0.06,0.061-0.119c0-0.058,0-0.058,0.062-0.118
		c0.122-0.238,0.368-0.415,0.49-0.593C1.98,4.17,1.98,4.17,1.98,4.111V4.052c0.061-0.059,0.061-0.178,0.122-0.238
		c0-0.058,0.062-0.177,0.062-0.237c0-0.119,0-0.178-0.062-0.296C2.04,3.103,2.003,2.949,1.881,2.83C1.329,3.601,1,4.466,1,5.474
		c0,1.365,0.58,2.575,1.552,3.423c0,0,0.039,0.017,0.039-0.041v-0.06c0-0.059,0.061-0.059,0.061-0.118
		C2.714,8.438,2.714,8.084,2.714,7.846L2.714,7.846z"/>
</g>
</svg>
