<?xml version="1.0" encoding="utf-8"?>
<!-- Generator: Adobe Illustrator 19.1.0, SVG Export Plug-In . SVG Version: 6.00 Build 0)  -->
<svg version="1.1" id="Ebene_1" xmlns="http://www.w3.org/2000/svg" xmlns:xlink="http://www.w3.org/1999/xlink" x="0px" y="0px"
	 viewBox="0 0 10 10" enable-background="new 0 0 10 10" xml:space="preserve">
<g>
	<path fill="#C83C3C" d="M9,3L7,1l0.646-0.646c0.195-0.195,0.512-0.195,0.707,0l1.293,1.293c0.195,0.195,0.195,0.512,0,0.707L9,3z"
		/>
	
		<rect x="6.336" y="1.896" transform="matrix(-0.7071 -0.7071 0.7071 -0.7071 11.6399 9.3205)" fill="#B9B9B9" width="2.828" height="0.707"/>
	<polygon fill="#FFEDCF" points="0,10 1,7 1.5,6.5 3.5,8.5 3.021,9 	"/>
	<polygon fill="#333333" points="1,9.67 0,10 0.33,9 1,9 	"/>
	<polygon fill="#FF8700" points="8.5,3.5 3.5,8.5 2.5,8.5 2.5,7.5 1.5,7.5 1.5,6.5 6.5,1.5 	"/>
	<path d="M8,0.332c0.1,0,0.195,0.039,0.266,0.11l1.293,1.293c0.146,0.146,0.146,0.384,0,0.53l-6.65,6.631l-2.54,0.737l0.764-2.59
		l6.601-6.601C7.805,0.371,7.9,0.332,8,0.332 M8,0.082c-0.16,0-0.32,0.061-0.442,0.183L0.912,6.911L0,10l3.04-0.882l6.696-6.676
		c0.243-0.244,0.243-0.64,0-0.884L8.442,0.265C8.32,0.143,8.16,0.082,8,0.082L8,0.082z"/>
</g>
</svg>
