<svg xmlns="http://www.w3.org/2000/svg" viewBox="0 0 11 11">
<polygon fill="#FFEDCF" points="1,10 1,8 8,1 10,1 10,3 3,10 "/>
<polygon fill="#333333" points="2.5,10 1,10 1,8.5 "/>
<polygon fill="#FF8700" points="9,4 4,9 2,7 7,2 "/>
<polygon fill="#B9B9B9" points="8,1 10,3 9,4 7,2 "/>
<path fill="#C83C3C" d="M10,3.2L7.8,1l0.7-0.7c0.2-0.2,0.6-0.2,0.8,0l1.4,1.4c0.2,0.2,0.2,0.6,0,0.8L10,3.2z"/>
<path fill="#666666" d="M10,1v2l-7,7H1V8l7-7H10 M7.6,0L0.3,7.3L0,7.6V8v2v1h1h2h0.4l0.3-0.3L11,3.4V0H7.6z"/>
</svg>