<?xml version="1.0" encoding="utf-8"?>
<!-- Generator: Adobe Illustrator 19.1.1, SVG Export Plug-In . SVG Version: 6.00 Build 0)  -->
<svg version="1.1" xmlns="http://www.w3.org/2000/svg" xmlns:xlink="http://www.w3.org/1999/xlink" x="0px" y="0px"
	 viewBox="0 0 11 11" enable-background="new 0 0 11 11" xml:space="preserve">
<path fill="#666666" d="M8.05,0C7.345,0,6.681,0.276,6.18,0.776L4.823,2.134c-0.518,0.518-0.784,1.212-0.77,1.913
	c-0.016,0-0.033,0-0.049,0c-0.705,0-1.369,0.276-1.869,0.776L0.776,6.18C0.276,6.681,0,7.345,0,8.05
	c0,0.705,0.276,1.369,0.777,1.869l0.305,0.305C1.582,10.724,2.246,11,2.951,11c0.705,0,1.369-0.276,1.869-0.776l1.358-1.358
	c0.519-0.519,0.785-1.215,0.77-1.918c0.02,0,0.04,0.001,0.059,0.001c0.702,0,1.362-0.274,1.859-0.771l1.358-1.358
	c1.031-1.031,1.031-2.708,0-3.738L9.919,0.776C9.418,0.276,8.755,0,8.05,0L8.05,0z"/>
<g>
	<path fill="#DDDDDD" d="M8.05,1c-0.42,0-0.84,0.161-1.162,0.483L5.53,2.841c-0.644,0.644-0.644,1.68,0,2.324L5.835,5.47
		c0.644,0.644,1.68,0.644,2.324,0l1.358-1.358c0.644-0.644,0.644-1.68,0-2.324L9.212,1.483C8.89,1.161,8.47,1,8.05,1z M7.925,1.766
		c0.298-0.015,0.639,0.123,0.913,0.396C9.275,2.599,9.365,3.212,9.04,3.539L7.587,4.992c-0.326,0.326-0.941,0.237-1.378-0.2
		s-0.526-1.051-0.2-1.378L7.461,1.96C7.584,1.838,7.747,1.774,7.925,1.766z"/>
	<path fill="#DDDDDD" d="M4.003,5.047c-0.42,0-0.84,0.161-1.162,0.483L1.483,6.887c-0.644,0.644-0.644,1.681,0,2.324l0.305,0.305
		c0.644,0.644,1.68,0.644,2.324,0L5.47,8.159c0.644-0.644,0.644-1.68,0-2.324L5.165,5.53C4.842,5.208,4.423,5.047,4.003,5.047z
		 M3.877,5.813c0.298-0.015,0.64,0.123,0.914,0.396c0.437,0.437,0.526,1.051,0.2,1.378L3.538,9.04
		c-0.326,0.326-0.94,0.236-1.377-0.201C1.724,8.402,1.634,7.788,1.96,7.462l1.453-1.453C3.535,5.887,3.699,5.821,3.877,5.813z"/>
	<path opacity="0.3" enable-background="new    " d="M5.529,5.166l0.305,0.305c0.234,0.234,0.521,0.381,0.821,0.444l0.899-0.899
		c-0.333,0.293-0.922,0.2-1.347-0.224C6.424,4.651,5.425,4.93,5.529,5.166z"/>
	<path opacity="0.3" enable-background="new    " d="M5.169,5.532l0.305,0.305c0.234,0.234,0.381,0.521,0.444,0.821L5.019,7.557
		c0.293-0.333,0.2-0.923-0.224-1.347C4.653,6.427,4.931,5.428,5.169,5.532z"/>
	<path fill="#FFFFFF" d="M3.452,6.496l3.049-3.049c0.175-0.175,0.553-0.081,0.843,0.209l0,0c0.29,0.29,0.384,0.668,0.209,0.843
		L4.504,7.548C4.329,7.723,3.951,7.629,3.661,7.339l0,0C3.371,7.049,3.277,6.671,3.452,6.496z"/>
</g>
</svg>
