<?xml version="1.0" encoding="utf-8"?>
<!-- Generator: Adobe Illustrator 19.1.1, SVG Export Plug-In . SVG Version: 6.00 Build 0)  -->
<svg version="1.1" xmlns="http://www.w3.org/2000/svg" xmlns:xlink="http://www.w3.org/1999/xlink" x="0px" y="0px"
	 viewBox="-2 3 11 11" style="enable-background:new -2 3 11 11;" xml:space="preserve">
<style type="text/css">
	.st0{fill:#FFEDCF;}
	.st1{fill:#333333;}
	.st2{fill:#FF8700;}
	.st3{fill:#B9B9B9;}
	.st4{fill:#C83C3C;}
	.st5{fill:#666666;}
</style>
<polygon class="st0" points="-1,13 -1,11 6,4 8,4 8,6 1,13 "/>
<polygon class="st1" points="0.5,13 -1,13 -1,11.5 "/>
<polygon class="st2" points="7,7 2,12 0,10 5,5 "/>
<polygon class="st3" points="6,4 8,6 7,7 5,5 "/>
<path class="st4" d="M8,6.2L5.8,4l0.7-0.7c0.2-0.2,0.6-0.2,0.8,0l1.4,1.4c0.2,0.2,0.2,0.6,0,0.8L8,6.2z"/>
<path class="st5" d="M8,4v2l-7,7h-2v-2l7-7H8 M5.6,3l-7.3,7.3L-2,10.6V11v2v1h1h2h0.4l0.3-0.3L9,6.4V3H5.6z"/>
</svg>
