<svg xmlns="http://www.w3.org/2000/svg" viewBox="0 0 16 16"><g opacity=".5"><path fill="#EFEFEF" d="M2 0v16h12V4l-4-4H2z"/><path opacity=".65" fill="#FFF" d="M10 4V0l4 4h-4z"/><path opacity=".2" d="M13 5v5L9 5h4z"/><path fill="#999" d="M2 0v16h12V4h-.012l.004-.008L10.008.006 10 .014V0H2zm1 1h6v4h4v10H3V1zm7 .412L12.586 4H10V1.412z"/></g><path fill="#666" d="M9 9h7v7H9V9z"/><path fill="#FFF" d="M10 10h5v5h-5v-5z"/><path d="M11 13.115c0 .082.012.178.036.286s.052.207.083.296c.03.088.062.177.1.266.037.09.065.153.085.193l.043.085c.01.024.03.036.06.036.008 0 .014 0 .018-.002.036-.01.052-.036.05-.072-.062-.568.013-.97.225-1.204.09-.1.213-.18.365-.234.15-.057.34-.094.57-.113v.535c0 .06.027.102.082.126.017.008.035.01.052.01.037 0 .07-.01.095-.04l1.09-1.09c.03-.03.042-.06.042-.097s-.013-.07-.04-.096l-1.09-1.09c-.042-.045-.092-.055-.15-.03-.055.023-.083.065-.083.125v.56c-.584.04-1.01.196-1.276.47-.24.246-.36.608-.36 1.085l.002-.002z"/></svg>