<svg xmlns="http://www.w3.org/2000/svg" viewBox="0 0 16 16"><circle fill="#59F" cx="8" cy="8" r="8"/><path fill="#AAD400" d="M14.973 7.378c-.22-2.364-1.602-4.393-3.545-5.48-.092.097-.117.04-.117.137-.276.097-.645-.097-.922-.194-.738-.29-1.476-.29-2.122-.096-.277.097-.922.194-.646.776.184.292.645.583 1.107.195.184-.194.37-.485.645-.194.093.1.093.196.093.293-.093.29-.37.388-.646.388-.37.098-.74 0-1.11.098-.37.097-.922.194-.922.68 0 .58-.185.678-.647.775-.37 0-.552.194-.37.582.094.29.37.29.556.194.738-.39 1.384-1.36 2.214-.195l.184-.097c.185-.776.37-.29.554 0l.277.29c1.107-1.066.83.486 1.2.776-.74-.194-1.57.582-2.215.097-1.107-.87-1.845-.483-2.86.39-.83.68-1.015 1.55-.83 2.327.276.97 1.29 1.067 2.122.873.276-.098.83-.098.83.096-.185.873.83 1.455.46 2.424-.276.776.186 1.746.83 2.037.647.29 1.2-.485 1.478-1.164.092-.097 0-.29.092-.388.738-.97.646-2.424 1.568-3.394.277-.29 1.2-1.356.46-2.23 1.754-.484 1.11 1.26 1.478 2.038.276-.582.46-1.164.645-1.65.092-.29.16-.38.16-.38zM4.948 2.21c.29-.306.303-.356.594-.765-.61.214-1.374.638-1.923 1.1l.167.176h.873s.097 0 .097-.1l.097-.102s.097 0 .097-.102l.097-.102.097-.103c-.29.206-.29.104-.194 0 0 .104 0 .104 0 0 0 .104 0 0 0 0h-.002zM3.666 11.65s-.096-.092 0 0c-.096-.092-.096-.092 0 0v-.276l-.096-.092c-.095 0-.095-.093-.19-.093s-.19-.094-.286-.094h-.192s-.095 0-.095-.092c-.668-.37-.953-1.015-1.144-1.752 0-.185-.095-.37-.095-.554-.095-.093-.095-.185-.19-.278-.19-.184-.095-.553.095-.922v-.184c0-.093 0-.093.095-.185 0-.09 0-.09.096-.184.19-.37.572-.646.762-.923.095-.092.095-.092.095-.184v-.093c.095-.092.095-.277.19-.37 0-.09.096-.276.096-.368 0-.186 0-.278-.097-.46-.096-.28-.154-.52-.344-.704C1.51 5.046 1 6.392 1 7.96c0 2.122.902 4.005 2.413 5.323 0 0 .06.026.06-.064v-.095c0-.092.096-.092.096-.184.095-.37.095-.92.096-1.29z"/><path opacity=".2" d="M8 16c-4.41 0-8-3.59-8-8s3.59-8 8-8 8 3.59 8 8-3.59 8-8 8zM8 1C4.14 1 1 4.14 1 8s3.14 7 7 7 7-3.14 7-7-3.14-7-7-7z"/><path fill="#666" d="M9 9h7v7H9z"/><path fill="#FFF" d="M10 10h5v5h-5z"/><path d="M11 13.115c0 .082.012.178.036.286.024.108.052.206.083.295.03.088.063.177.1.266.038.09.066.153.086.193l.043.085c.01.024.03.036.06.036.008 0 .014 0 .018-.002.036-.01.052-.036.05-.072-.062-.568.013-.97.225-1.204.09-.1.212-.18.364-.234.15-.057.34-.094.57-.113v.534c0 .06.027.102.082.126.017.007.035.01.052.01.038 0 .07-.012.096-.04l1.09-1.09c.03-.03.042-.06.042-.098s-.013-.07-.04-.096l-1.09-1.09c-.042-.045-.092-.055-.15-.03-.055.023-.083.065-.083.125v.56c-.584.04-1.01.196-1.276.47-.24.246-.36.608-.36 1.085z"/></svg>