<svg xmlns="http://www.w3.org/2000/svg" viewBox="0 0 16 16"><g fill="#f17901"><g><g stroke-linejoin="round" stroke-width="0"><path stroke="#b9b9b9" d="M2 0v16h12V4l-4-4zm8 0z"/><path d="M10 3.98V0l4 4z" opacity=".65"/><path d="M14 4.024V9l-4-5z" opacity=".15"/></g></g></g><g fill="#fff" stroke-linecap="square"><path stroke-miterlimit="0" d="M4 12h3v1H4zM4 6h8v1H4z"/><path d="M7 9.5A1.5 1.5 0 0 1 5.5 11 1.5 1.5 0 0 1 4 9.5 1.5 1.5 0 0 1 5.5 8 1.5 1.5 0 0 1 7 9.5z"/><path stroke-miterlimit="0" d="M8 8h4v1H8zM8 10h4v1H8zM8 12h4v1H8z"/></g><path fill="#fff" d="M10 4V0l4 4h-4z" opacity=".65"/><path stroke-linejoin="round" stroke-width="0" d="M14 4.024V9l-4-5z" opacity=".15"/></svg>