<?xml version="1.0" ?>
<svg xmlns="http://www.w3.org/2000/svg" id="a" viewBox="0 0 64 64">
  <path d="M50.81,20.17l-18-8c-.52-.23-1.11-.23-1.62,0l-18,8s-.07.05-.11.07c-.06.03-.12.05-.17.08-.04.03-.08.07-.12.1-.06.04-.11.09-.17.14-.08.08-.15.16-.22.25-.04.06-.08.11-.12.17-.06.1-.11.21-.15.32-.02.06-.05.11-.06.17-.05.17-.08.35-.08.54v20c0,.79.47,1.51,1.19,1.83l18,8c.26.12.54.17.81.17.38,0,.76-.11,1.09-.32.57-.37.91-1,.91-1.68v-18.7l16.81-7.47c.72-.32,1.19-1.04,1.19-1.83s-.47-1.51-1.19-1.83ZM30,46.92l-14-6.22v-15.62l14,6.22v15.62ZM32,27.81l-13.08-5.81,13.08-5.81,13.08,5.81-13.08,5.81Z" fill="currentColor"/>
  <path d="M32,52c-.38,0-.76-.11-1.09-.32-.57-.37-.91-1-.91-1.68v-20c0-.79.47-1.51,1.19-1.83l18-8c.62-.28,1.33-.22,1.9.15s.91,1,.91,1.68v20c0,.79-.47,1.51-1.19,1.83l-18,8c-.26.12-.54.17-.81.17ZM34,31.3v15.62l14-6.22v-15.62l-14,6.22ZM50,42h0,0Z" fill="var(--icon-color-accent, #ff8700)"/>
  <g opacity=".6">
    <polygon points="18.92 22 32 27.81 45.08 22 32 16.19 18.92 22" fill="currentColor"/>
  </g>
</svg>
