<?xml version="1.0" encoding="utf-8"?>
<!-- Generator: Adobe Illustrator 19.1.1, SVG Export Plug-In . SVG Version: 6.00 Build 0)  -->
<svg version="1.1" xmlns="http://www.w3.org/2000/svg" xmlns:xlink="http://www.w3.org/1999/xlink" x="0px" y="0px"
	 viewBox="0 0 64 64" enable-background="new 0 0 64 64" xml:space="preserve">
<rect fill="#5599FF" width="64" height="64"/>
<path fill="#FFFFFF" d="M46.6,41.2c-2.815-0.768-4.974-1.825-6.976-2.678c-0.042,0.543-0.243,1.113-0.782,1.664
	c-1.62,1.726-4.1,3.814-6.808,3.814c-2.719,0-5.288-2.115-6.88-3.817c-0.558-0.573-0.743-1.177-0.762-1.738
	c-2.007,0.896-4.17,1.885-6.993,2.655c0,0-3.1,1.9-3.4,8.9h36C49.8,42.9,46.6,41.2,46.6,41.2z"/>
<path fill="#FFFFFF" d="M40,20.5c0-3.6-3.2-6.5-7-6.5h-2c-3.6,0-7,2.9-7,6.5v5c0,2.109,1.628,4.713,3.5,6.553
	c-0.1,5.4-1.7,5.947-0.9,6.747c2.5,2.7,8.1,2.9,10.8,0c0.797-0.797-0.59-1.3-0.896-6.747C38.333,30.215,39.942,27.59,40,25.5V20.5z"
	/>
<g>
	<path fill="#FFFFFF" d="M33.77,57.25c-0.824,0-1.668-0.37-2.313-1.017l-1.69-1.689c-0.646-0.646-1.016-1.489-1.016-2.313
		s0.37-1.668,1.016-2.314l10.856-10.989c-0.114-0.568-0.172-1.161-0.172-1.776c0-2.329,0.823-4.332,2.446-5.955
		c1.622-1.623,3.625-2.446,5.953-2.446c0.778,0,1.531,0.151,2.196,0.285l0.111,0.022l0.106,0.042
		c0.652,0.26,1.177,0.518,1.678,0.769C53.583,30.098,54,30.794,54,31.43c0,0.648-0.407,1.055-0.626,1.274l-0.114,0.114l-4.2,2.449
		v2.079l1.638,0.968c0.177-0.116,0.384-0.254,0.578-0.384c0.542-0.361,1.077-0.66,1.549-0.925c0.25-0.14,0.489-0.273,0.712-0.408
		C54.701,35.9,55.172,35.9,55.35,35.9c0.213,0,0.778,0,1.274,0.496l0.366,0.366v0.29c0.065,0.136,0.13,0.285,0.195,0.481
		l0.064,0.192v0.203c0,0.599-0.179,1.403-0.479,2.154c-0.678,1.691-1.673,2.979-3.045,3.94c-1.445,1.012-3.087,1.525-4.877,1.525
		c-0.694,0-1.359-0.073-1.994-0.219L36.09,56.229C35.438,56.88,34.595,57.25,33.77,57.25z"/>
	<path fill="#5599FF" d="M48.85,30c0.65,0,1.3,0.13,1.95,0.26c0.65,0.26,1.17,0.52,1.69,0.78c0.13,0,0.26,0.26,0.26,0.39
		c0,0.13-0.13,0.26-0.26,0.39l-4.68,2.73v3.51l2.86,1.69c0.13,0,0.52-0.26,1.3-0.78c0.78-0.52,1.56-0.91,2.21-1.3
		s1.04-0.52,1.17-0.52c0.13,0,0.26,0,0.39,0.13c0,0.13,0.13,0.26,0.26,0.65c0,0.39-0.13,1.04-0.39,1.69c-0.52,1.3-1.3,2.47-2.6,3.38
		c-1.3,0.91-2.73,1.3-4.16,1.3c-1.95,0-3.64-0.65-5.07-2.08c-1.43-1.43-2.08-3.12-2.08-5.07s0.65-3.64,2.08-5.07
		C45.21,30.65,46.9,30,48.85,30 M41.31,40.01c0.39,1.04,1.04,1.95,1.82,2.73c0.78,0.91,1.69,1.43,2.73,1.82L35.2,55.35
		C34.81,55.74,34.29,56,33.77,56s-1.04-0.26-1.43-0.65l-1.69-1.69C30.26,53.27,30,52.75,30,52.23c0-0.52,0.26-1.04,0.65-1.43
		L41.31,40.01 M34.81,52.23c0.26,0,0.52,0,0.65-0.26c0.13-0.13,0.26-0.39,0.26-0.65c0-0.26,0-0.39-0.26-0.65
		c-0.13-0.13-0.39-0.26-0.65-0.26c-0.26,0-0.39,0-0.65,0.26c-0.13,0.13-0.26,0.39-0.26,0.65c0,0.26,0,0.39,0.26,0.65
		C34.29,52.1,34.55,52.23,34.81,52.23 M48.85,27.5c-2.671,0-4.972,0.946-6.838,2.812c-1.866,1.866-2.812,4.167-2.812,6.838
		c0,0.462,0.028,0.913,0.085,1.353l-10.413,10.54c-0.868,0.868-1.372,2.033-1.372,3.187c0,1.154,0.504,2.319,1.382,3.198l1.69,1.69
		c0.878,0.878,2.044,1.382,3.198,1.382s2.319-0.504,3.198-1.382l10.308-10.434c0.509,0.077,1.034,0.116,1.574,0.116
		c2.022,0,3.956-0.606,5.594-1.752c1.577-1.104,2.718-2.576,3.488-4.5c0.361-0.904,0.569-1.858,0.569-2.618v-0.406l-0.128-0.385
		c-0.044-0.133-0.089-0.251-0.132-0.354v-0.541l-0.732-0.732c-0.572-0.572-1.298-0.862-2.158-0.862c-0.464,0-1.162,0.1-2.456,0.876
		c-0.213,0.128-0.441,0.255-0.679,0.388c-0.471,0.264-1.002,0.561-1.556,0.925l-0.349-0.206v-0.647l3.44-2.006l0.279-0.163
		l0.229-0.229c0.271-0.271,0.992-0.992,0.992-2.158c0-1.114-0.706-2.29-1.83-2.72c-0.485-0.241-1.032-0.507-1.691-0.771
		l-0.213-0.085l-0.225-0.045C50.567,27.664,49.747,27.5,48.85,27.5L48.85,27.5z"/>
</g>
</svg>
