<?xml version="1.0" ?>
<svg xmlns="http://www.w3.org/2000/svg" id="a" viewBox="0 0 64 64">
  <g opacity=".6">
    <path d="M38.26,12c-1.33,0-5.39,0-5.39,4.83,0,5.91,4.91,17.94,10.61,17.94,4.23,0,8.52-9.69,8.52-16.66,0-2.79-2.38-6.11-13.74-6.11ZM48,18.11s0,.06,0,.09l-8.24,8.24c-.64-1.19-1.24-2.54-1.73-3.92l6.07-6.07c2.72.49,3.91,1.26,3.91,1.66ZM36.94,16.13c.13-.04.48-.13,1.32-.13.21,0,.41,0,.62,0l-1.95,1.95c-.04-.39-.06-.76-.06-1.13,0-.4.04-.61.07-.7ZM43.33,30.76c-.36-.07-.81-.41-1.3-.93l4.55-4.55c-1.06,2.83-2.45,5-3.26,5.48Z" fill="currentColor"/>
    <path d="M40.25,36.89c-.1.05-.4.05-.68.05-.83,0-2.07-1.36-3.37-3.39-.03-.05-.06-.1-.09-.14-2.71-4.27-5.69-11.35-5.99-15.21,0-.02,0-.04,0-.07-.01-.18-.02-.36-.02-.53,0-1.22.15-1.37.45-1.66.62-.6.77-1.54.39-2.31-.38-.77-1.22-1.21-2.07-1.1-4.44.62-12.67,2.6-15.56,6.04-.86.91-1.29,2.31-1.29,4.17,0,2.21.59,5.19,1.6,8.4.03.2.1.39.19.57.84,2.57,1.94,5.26,3.22,7.81.06.15.13.3.23.44,1.28,2.49,2.73,4.83,4.27,6.78.09.16.19.31.33.45.04.04.08.06.12.1,2.37,2.84,4.94,4.71,7.44,4.71,4.33,0,9.88-6.18,13.46-12.3.45-.76.34-1.73-.26-2.37s-1.55-.82-2.35-.43ZM21.35,39.19l8.64-8.63c.6,1.28,1.26,2.54,1.95,3.71l-8.45,8.45c-.73-1.07-1.45-2.26-2.14-3.52ZM17.84,31.39l9.09-9.09c.36,1.32.83,2.77,1.39,4.27l-8.85,8.85c-.6-1.33-1.15-2.69-1.63-4.03ZM16.19,21.34c.05-.05.1-.11.15-.16,1.18-1.46,5.17-3.08,9.76-4.08,0,.13,0,.26,0,.39l-9.54,9.54c-.35-1.55-.55-3.01-.55-4.28,0-.91.16-1.36.19-1.41ZM29.39,48c-.98,0-2.16-.79-3.42-2.12l8.28-8.28c1.08,1.3,2.22,2.31,3.38,2.86-3.41,4.93-6.82,7.53-8.24,7.53Z" fill="currentColor"/>
  </g>
</svg>
