<svg id="CKEditorLogoVersion4" xmlns="http://www.w3.org/2000/svg" viewBox="0 0 64 64">
    <defs>
        <style>.cls-1{fill:#0087d0;}</style>
    </defs>
    <title>typo3_Extension</title>
    <path id="main" class="cls-1"
          d="M42.76,10.12a12.27,12.27,0,0,0-1.15,5.19A12.41,12.41,0,0,0,54,27.66V44.1a5.78,5.78,0,0,1-2.92,5L29.92,61.22a5.86,5.86,0,0,1-5.84,0L2.92,49.12A5.78,5.78,0,0,1,0,44.1V19.9a5.78,5.78,0,0,1,2.92-5L24.08,2.78a5.86,5.86,0,0,1,5.84,0l12.84,7.34ZM14.47,21A1.57,1.57,0,0,0,13,22.66v.68A1.57,1.57,0,0,0,14.47,25H38.53A1.57,1.57,0,0,0,40,23.34v-.68A1.57,1.57,0,0,0,38.53,21Zm0,9A1.56,1.56,0,0,0,13,31.66v.68A1.56,1.56,0,0,0,14.45,34h17.1A1.56,1.56,0,0,0,33,32.34v-.68A1.56,1.56,0,0,0,31.55,30Zm0,9A1.57,1.57,0,0,0,13,40.66v.68A1.57,1.57,0,0,0,14.47,43H38.53A1.57,1.57,0,0,0,40,41.34v-.68A1.57,1.57,0,0,0,38.53,39Z"/>
    <g id="badge">
        <path class="cls-1"
              d="M54,25A10,10,0,1,1,64,15,10,10,0,0,1,54,25Zm1.64-7.4h1V16H55.62V11H53.45l-3.11,5V17.6h3.6v1.6h1.7Z"/>
        <path class="cls-1" d="M54,13h0L52.1,16H54Z"/>
    </g>
</svg>
