<svg xmlns="http://www.w3.org/2000/svg" viewBox="0 0 64 64">
<rect fill="#0087D0" width="64" height="64"/>
<path fill="#FFF" d="M41.5,18.9c-0.5,1-0.7,2-0.7,3.1c0,4.1,3.3,7.4,7.4,7.4v9.9c0,1.2-0.7,2.4-1.8,3l-12.7,7.3
	c-1.1,0.6-2.4,0.6-3.5,0l-12.7-7.3c-1.1-0.6-1.8-1.8-1.8-3V24.7c0-1.2,0.7-2.4,1.8-3l12.7-7.3c1.1-0.6,2.4-0.6,3.5,0
	C33.8,14.5,41.5,18.9,41.5,18.9z M24.5,25.4c-0.5,0-0.9,0.5-0.9,1v0.4c0,0.5,0.4,1,0.9,1h14.4c0.5,0,0.9-0.5,0.9-1v-0.4
	c0-0.5-0.4-1-0.9-1H24.5z M24.5,30.8c-0.5,0-0.9,0.5-0.9,1c0,0,0,0,0,0v0.4c0,0.5,0.4,1,0.9,1h10.3c0.5,0,0.9-0.5,0.9-1v-0.4
	c0-0.5-0.4-1-0.9-1H24.5z M24.5,36.2c-0.5,0-0.9,0.5-0.9,1v0.4c0,0.5,0.4,1,0.9,1h14.4c0.5,0,0.9-0.5,0.9-1v-0.4c0-0.5-0.4-1-0.9-1
	H24.5z"/>
<path fill="#FFF" d="M48.2,15.8c-3.3,0-6,2.7-6,6s2.7,6,6,6s6-2.7,6-6S51.5,15.8,48.2,15.8z M49.8,23.4h-0.6v1h-1v-1H46v-1l1.9-3
	h1.3v3h0.6V23.4z"/>
<polygon fill="#FFF" points="48.2,22.4 48.2,20.6 47.1,22.4 "/>
</svg>