<?xml version="1.0" encoding="utf-8"?>
<!-- Generator: Adobe Illustrator 27.3.1, SVG Export Plug-In . SVG Version: 6.00 Build 0)  -->
<svg version="1.1" xmlns="http://www.w3.org/2000/svg" xmlns:xlink="http://www.w3.org/1999/xlink" x="0px" y="0px"
	 viewBox="0 0 64 64" enable-background="new 0 0 64 64">
<rect fill="#235594" width="64" height="64"/>
<g>
	<path fill="#FFFFFF" d="M44,18H20c0,0,0,10.5,0,14c0,8.75,12,14,12,14s12-5.25,12-14C44,28.5,44,18,44,18L44,18z"/>
	<path fill="#235594" d="M42,20H22v12c0,6.132,7.4939995,10.4920006,10,11.776001C34.5019989,42.4920006,42,38.1340027,42,32V20
		L42,20z"/>
	<path opacity="0.14" fill="#000001" d="M41,21v11c0,5.2585831-6.386776,9.2391357-9.000351,10.6463318
		C29.3862286,41.2412758,23,37.2653351,23,32V21H41 M42,20H22v12c0,6.132,7.4939995,10.4920006,10,11.776001
		C34.5019989,42.4920006,42,38.1340027,42,32V20L42,20z"/>
	<path fill="#FFFFFF" d="M40,22v10c0,3.7166443-3.9789391,7.2511978-8.0006866,9.506794C27.9783516,39.2544861,24,35.7214127,24,32
		V22H40"/>
	<path opacity="0.2" fill="#235594" d="M32,41.5064087C36.0214844,39.2508545,40,35.7164917,40,32V22h-8V41.5064087z"/>
</g>
</svg>
