<?xml version="1.0" encoding="utf-8"?>
<!-- Generator: Adobe Illustrator 19.1.1, SVG Export Plug-In . SVG Version: 6.00 Build 0)  -->
<svg version="1.1" id="Ebene_1" xmlns="http://www.w3.org/2000/svg" xmlns:xlink="http://www.w3.org/1999/xlink" x="0px" y="0px"
	 viewBox="0 0 64 64" enable-background="new 0 0 64 64" xml:space="preserve">
<rect fill="#632F5F" width="64" height="64"/>
<path fill="#FFFFFF" d="M32,18c7.732,0,14,6.268,14,14s-6.268,14-14,14s-14-6.268-14-14S24.268,18,32,18 M32,16
	c-8.822,0-16,7.178-16,16s7.178,16,16,16s16-7.178,16-16S40.822,16,32,16L32,16z"/>
<path fill="#FFFFFF" d="M46,30.756c-0.44-4.728-3.204-8.786-7.09-10.96c-0.184,0.194-0.234,0.08-0.234,0.274
	c-0.554,0.194-1.292-0.194-1.846-0.388c-1.476-0.58-2.952-0.58-4.244-0.194c-0.554,0.194-1.844,0.388-1.292,1.552
	c0.368,0.584,1.29,1.166,2.214,0.39c0.368-0.388,0.74-0.97,1.29-0.388c0.186,0.196,0.186,0.39,0.186,0.584
	c-0.186,0.58-0.74,0.776-1.292,0.776c-0.74,0.194-1.48,0-2.216,0.194c-0.74,0.194-1.846,0.388-1.846,1.36
	c0,1.16-0.37,1.356-1.294,1.55c-0.74,0-1.106,0.388-0.74,1.164c0.186,0.58,0.74,0.58,1.11,0.388
	c1.476-0.776,2.768-2.716,4.428-0.388l0.368-0.194c0.37-1.552,0.74-0.58,1.108,0l0.554,0.58c2.214-2.132,1.66,0.972,2.4,1.552
	c-1.48-0.388-3.14,1.164-4.43,0.194c-2.214-1.744-3.69-0.968-5.72,0.776c-1.66,1.36-2.03,3.104-1.66,4.656
	c0.552,1.94,2.58,2.134,4.244,1.746c0.552-0.196,1.66-0.196,1.66,0.192c-0.37,1.746,1.66,2.91,0.92,4.848
	c-0.552,1.552,0.372,3.492,1.66,4.074c1.294,0.58,2.4-0.97,2.956-2.328c0.184-0.194,0-0.58,0.184-0.776
	c1.476-1.94,1.292-4.848,3.136-6.788c0.554-0.58,2.4-2.714,0.92-4.46c3.508-0.97,2.22,2.52,2.956,4.074
	c0.552-1.164,0.92-2.328,1.29-3.3C45.864,30.936,46,30.756,46,30.756z"/>
<path fill="#FFFFFF" d="M25.825,20.42c0.58-0.612,0.606-0.712,1.188-1.53c-1.218,0.428-2.748,1.276-3.846,2.198l0.336,0.354h1.746
	c0,0,0.194,0,0.194-0.2l0.194-0.206c0,0,0.194,0,0.194-0.204l0.192-0.204l0.194-0.206c-0.58,0.41-0.58,0.206-0.388,0
	c0,0.206,0,0.206,0,0c0,0.206,0,0,0,0L25.825,20.42z"/>
<path fill="#FFFFFF" d="M23.238,39.3C23.238,39.3,23.046,39.116,23.238,39.3C23.046,39.116,23.046,39.116,23.238,39.3v-0.184v-0.184
	v-0.184l-0.192-0.184c-0.19,0-0.19-0.186-0.38-0.186s-0.38-0.186-0.572-0.186h-0.19h-0.192c0,0-0.19,0-0.19-0.184
	c-1.336-0.74-1.906-2.03-2.288-3.504c0-0.37-0.19-0.74-0.19-1.108c-0.188-0.186-0.188-0.37-0.38-0.556
	c-0.38-0.368-0.188-1.106,0.192-1.844v-0.368c0-0.186,0-0.186,0.19-0.37c0-0.18,0-0.18,0.192-0.366
	c0.38-0.74,1.144-1.292,1.524-1.846c0.19-0.184,0.19-0.184,0.19-0.368v-0.184c0.19-0.184,0.19-0.554,0.38-0.74
	c0-0.18,0.192-0.552,0.192-0.736c0-0.37,0-0.554-0.192-0.92c-0.192-0.556-0.308-1.036-0.688-1.406c-1.716,2.4-2.74,5.092-2.74,8.226
	c0,4.246,1.806,8.012,4.828,10.648c0,0,0.122,0.052,0.122-0.128V42.25c0-0.184,0.19-0.184,0.19-0.368
	c0.192-0.74,0.192-1.844,0.192-2.58L23.238,39.3z"/>
</svg>
