<?xml version="1.0" ?>
<svg xmlns="http://www.w3.org/2000/svg" id="a" viewBox="0 0 64 64">
  <path d="M46,34h-.61c1.6-1.46,2.61-3.56,2.61-5.9,0-4.42-3.58-8-8-8s-8,3.58-8,8c0,2.34,1.01,4.43,2.61,5.9h-.61c-3.31,0-6,2.69-6,6v10c0,1.1.9,2,2,2h20c1.1,0,2-.9,2-2v-10c0-3.31-2.69-6-6-6ZM40,24.1c2.21,0,4,1.79,4,4s-1.79,4-4,4-4-1.79-4-4,1.79-4,4-4ZM48,48h-16v-8c0-1.1.9-2,2-2h12c1.1,0,2,.9,2,2v8Z" fill="var(--icon-color-accent, #ff8700)"/>
  <g opacity=".4">
    <path d="M28,40c0-3.31,2.69-6,6-6h.61c-1.6-1.46-2.61-3.56-2.61-5.9,0-.61.08-1.21.21-1.78-.68-.27-1.43-.42-2.21-.42h-.61c1.6-1.46,2.61-3.56,2.61-5.9,0-4.42-3.58-8-8-8s-8,3.58-8,8c0,2.34,1.01,4.43,2.61,5.9h-.61c-3.31,0-6,2.69-6,6v10c0,1.1.9,2,2,2h14v-3.9Z" fill="currentColor"/>
  </g>
</svg>
