<?xml version="1.0" encoding="utf-8"?>
<!-- Generator: Adobe Illustrator 19.1.1, SVG Export Plug-In . SVG Version: 6.00 Build 0)  -->
<svg version="1.1" id="Ebene_1" xmlns="http://www.w3.org/2000/svg" xmlns:xlink="http://www.w3.org/1999/xlink" x="0px" y="0px"
	 viewBox="0 0 64 64" enable-background="new 0 0 64 64" xml:space="preserve">
<rect fill="#FF8700" width="64" height="64"/>
<path fill="#FFFFFF" d="M49.535,29.295l-5.457-1.558c-0.154-0.435-0.319-0.859-0.517-1.27l2.751-4.953
	c0.139-0.252,0.095-0.563-0.108-0.766l-2.952-2.952c-0.203-0.203-0.517-0.247-0.766-0.108l-4.953,2.751
	c-0.411-0.198-0.836-0.363-1.27-0.517l-1.558-5.457C34.625,14.19,34.373,14,34.085,14h-4.171c-0.288,0-0.54,0.19-0.617,0.465
	l-1.561,5.459c-0.435,0.154-0.859,0.319-1.27,0.517l-4.953-2.751c-0.249-0.141-0.563-0.095-0.766,0.108l-2.949,2.949
	c-0.203,0.203-0.249,0.517-0.108,0.766l2.751,4.953c-0.198,0.411-0.363,0.836-0.517,1.27l-5.459,1.558
	C14.19,29.375,14,29.627,14,29.915v4.173c0,0.288,0.19,0.54,0.465,0.617l5.457,1.558c0.154,0.435,0.319,0.859,0.517,1.27
	l-2.751,4.953c-0.139,0.252-0.095,0.563,0.108,0.766l2.952,2.952c0.203,0.203,0.517,0.247,0.766,0.108l4.953-2.751
	c0.411,0.198,0.836,0.363,1.27,0.517l1.558,5.457C29.375,49.81,29.627,50,29.915,50h4.173c0.288,0,0.54-0.19,0.617-0.465
	l1.558-5.457c0.435-0.154,0.859-0.319,1.27-0.517l4.953,2.751c0.252,0.139,0.563,0.095,0.766-0.108l2.952-2.952
	c0.203-0.203,0.247-0.517,0.108-0.766l-2.751-4.953c0.198-0.411,0.363-0.836,0.517-1.27l5.457-1.558
	C49.81,34.625,50,34.373,50,34.085v-4.171C50,29.627,49.81,29.375,49.535,29.295z M32,39.714c-4.261,0-7.714-3.453-7.714-7.714
	s3.453-7.714,7.714-7.714s7.714,3.453,7.714,7.714S36.261,39.714,32,39.714z"/>
<g>
	<rect x="32" y="32" fill="#FFFFFF" width="24" height="24"/>
	<path fill="#FF8700" d="M54,34v20H34V34H54 M58,30h-4H34h-4v4v20v4h4h20h4v-4V34V30L58,30z"/>
</g>
<rect x="36" y="36" fill="#FF8700" width="16" height="2"/>
<rect x="36" y="40" fill="#FF8700" width="16" height="12"/>
<path fill="#FFFFFF" d="M42.391,49.625c0.221,0.221,0.587,0.215,0.804-0.002l5.636-5.636c0.223-0.223,0.231-0.575-0.003-0.809
	l-0.798-0.798c-0.224-0.224-0.59-0.223-0.802-0.011l-4.04,4.04c-0.218,0.218-0.569,0.222-0.794-0.004l-1.618-1.618
	c-0.22-0.22-0.571-0.227-0.805,0.007l-0.798,0.798c-0.224,0.224-0.233,0.579-0.006,0.807L42.391,49.625z"/>
</svg>
