<?xml version="1.0" ?>
<svg xmlns="http://www.w3.org/2000/svg" viewBox="0 0 64 64">
  <path d="M48,16v16H16v-16h32M50,12H14c-1.1,0-2,.9-2,2v20c0,1.1.9,2,2,2h36c1.1,0,2-.9,2-2V14c0-1.1-.9-2-2-2h0Z" fill="currentColor"/>
  <polygon points="42 24 34 28 24 22 16 28.4 16 32 48 32 48 28.5 42 24" fill="var(--icon-color-accent, #ff8700)"/>
  <g opacity=".4">
    <path d="M50,44H14c-1.1,0-2-.9-2-2s.9-2,2-2h36c1.1,0,2,.9,2,2s-.9,2-2,2Z" fill="currentColor"/>
    <path d="M50,52H14c-1.1,0-2-.9-2-2s.9-2,2-2h36c1.1,0,2,.9,2,2s-.9,2-2,2Z" fill="currentColor"/>
  </g>
</svg>
