<?xml version="1.0" ?>
<svg xmlns="http://www.w3.org/2000/svg" id="a" viewBox="0 0 64 64">
  <g opacity=".4">
    <path d="M50,12h-28c-1.1,0-2,.9-2,2v6h22c1.1,0,2,.9,2,2v22h6c1.1,0,2-.9,2-2V14c0-1.1-.9-2-2-2Z" fill="currentColor"/>
  </g>
  <circle cx="32" cy="32" r="4" fill="currentColor"/>
  <path d="M42,48c-.51,0-1.02-.2-1.41-.59l-4.84-4.84-4.64,3.09c-.71.47-1.63.45-2.31-.06l-6.8-5.1-6.8,5.1c-.89.67-2.14.48-2.8-.4-.66-.88-.48-2.14.4-2.8l8-6c.71-.53,1.69-.53,2.4,0l6.87,5.15,4.82-3.21c.79-.53,1.85-.42,2.52.25l6,6c.78.78.78,2.05,0,2.83-.39.39-.9.59-1.41.59Z" fill="currentColor"/>
  <path d="M40,24v24h-24v-24h24M42,20H14c-1.1,0-2,.9-2,2v28c0,1.1.9,2,2,2h28c1.1,0,2-.9,2-2v-28c0-1.1-.9-2-2-2h0Z" fill="var(--icon-color-accent, #ff8700)"/>
</svg>
