<?xml version="1.0" ?>
<svg xmlns="http://www.w3.org/2000/svg" id="a" viewBox="0 0 64 64">
  <path d="M46.1,38h3.9c1.1,0,2-.9,2-2s-.9-2-2-2h-3.9v-4h3.9c1.1,0,2-.9,2-2s-.9-2-2-2h-4.6c-1.21-3.39-3.89-6.08-7.28-7.29l1.71-3.84c.45-1.01,0-2.19-1.01-2.64-1.01-.45-2.19,0-2.64,1.01l-2.12,4.76h-4.08l-2.14-4.81c-.45-1.01-1.63-1.46-2.64-1.01-1.01.45-1.46,1.63-1.01,2.64l1.73,3.89c-3.4,1.21-6.09,3.9-7.3,7.3h-4.6c-1.1,0-2,.9-2,2s.9,2,2,2h3.9v4h-3.9c-1.1,0-2,.9-2,2s.9,2,2,2h3.9v2c0,.68.07,1.35.18,2h-4.08c-1.1,0-2,.9-2,2s.9,2,2,2h5.52c2.08,3.58,5.95,6,10.38,6h4.2c4.43,0,8.3-2.42,10.38-6h5.43c1.1,0,2-.9,2-2s-.9-2-2-2h-3.98c.11-.65.18-1.32.18-2v-2ZM34.1,48h-4.2c-4.41,0-8-3.59-8-8v-10c0-4.41,3.59-8,8-8h4.2c4.41,0,8,3.59,8,8v10c0,4.41-3.59,8-8,8Z" fill="var(--icon-color-accent, #ff8700)"/>
  <g opacity=".4">
    <path d="M34.1,48c4.41,0,8-3.59,8-8v-10c0-4.41-3.59-8-8-8h-2.1v26h2.1Z" fill="currentColor"/>
  </g>
</svg>
