<svg xmlns="http://www.w3.org/2000/svg" viewBox="0 0 64 64">
<rect fill="#6C9DCC" width="64" height="64"/>
<path fill="#FFF" d="M32,43.25c-5.652,0-10.25-4.598-10.25-10.25c0-0.34,0.039-0.669,0.073-1h4.748
	c0.445,0,0.669-0.539,0.354-0.854l-6.571-6.571c-0.195-0.195-0.512-0.195-0.707,0l-6.571,6.571C12.76,31.461,12.983,32,13.429,32
	h4.372c-0.024,0.332-0.051,0.662-0.051,1c0,7.857,6.393,14.25,14.25,14.25c3.104,0,5.971-1.009,8.314-2.701l-2.876-2.876
	C35.859,42.666,33.999,43.25,32,43.25z"/>
<path fill="#FFF" d="M50.571,32h-4.372C45.682,24.609,39.52,18.75,32,18.75c-2.587,0-5.008,0.704-7.101,1.914l2.965,2.965
	c1.266-0.561,2.664-0.879,4.136-0.879c5.315,0,9.695,4.066,10.199,9.25h-4.77c-0.445,0-0.669,0.539-0.354,0.854l6.571,6.571
	c0.195,0.195,0.512,0.195,0.707,0l6.571-6.571C51.24,32.539,51.017,32,50.571,32z"/>
</svg>