<?xml version="1.0" encoding="UTF-8" standalone="no"?>
<svg width="64px" height="64px" viewBox="0 0 64 64" version="1.1" xmlns="http://www.w3.org/2000/svg" xmlns:xlink="http://www.w3.org/1999/xlink" xmlns:sketch="http://www.bohemiancoding.com/sketch/ns">
    <!-- Generator: Sketch 3.3.3 (12072) - http://www.bohemiancoding.com/sketch -->
    <title>module-aboutmodules</title>
    <desc>Created with Sketch.</desc>
    <defs></defs>
    <g id="modules" stroke="none" stroke-width="1" fill="none" fill-rule="evenodd" sketch:type="MSPage">
        <g id="module-aboutmodules-v2" sketch:type="MSLayerGroup">
            <g id="Background" fill="#3A81B4" sketch:type="MSShapeGroup">
                <rect id="Rectangle-path" x="0" y="0" width="64" height="64"></rect>
            </g>
            <path d="M48,18 L48,44 L16,44 L16,18 L48,18 Z M22,18 L22,44 L24,44 L24,18 L22,18 Z M18,36 L18,38 L20,38 L20,36 L18,36 Z M18,40 L18,42 L20,42 L20,40 L18,40 Z M18,32 L18,34 L20,34 L20,32 L18,32 Z M18,28 L18,30 L20,30 L20,28 L18,28 Z M18,24 L18,26 L20,26 L20,24 L18,24 Z M18,20 L18,22 L20,22 L20,20 L18,20 Z M28,24 L28,26 L38,26 L38,24 L28,24 Z M28,32 L28,34 L38,34 L38,32 L28,32 Z M28,28 L28,30 L42,30 L42,28 L28,28 Z" id="Shape" fill="#FFFFFF" sketch:type="MSShapeGroup"></path>
        </g>
    </g>
</svg>