<?xml version="1.0" encoding="utf-8"?>
<!-- Generator: Adobe Illustrator 19.1.0, SVG Export Plug-In . SVG Version: 6.00 Build 0)  -->
<svg version="1.1" xmlns="http://www.w3.org/2000/svg" xmlns:xlink="http://www.w3.org/1999/xlink" x="0px" y="0px"
	 viewBox="24 -24 64 64" style="enable-background:new 24 -24 64 64;" xml:space="preserve">
<style type="text/css">
	.st0{fill:#3471A9;}
	.st1{fill:#FFFFFF;}
</style>
<g>
	<path class="st0" d="M24-24h64v64H24V-24z"/>
	<path class="st1" d="M71-6H41c-0.552,0-1,0.448-1,1v6c0,0.552,0.448,1,1,1h30c0.552,0,1-0.448,1-1v-6C72-5.552,71.552-6,71-6z"/>
	<rect x="62" y="-4" class="st0" width="8" height="4"/>
	<path class="st1" d="M71,4H41c-0.552,0-1,0.448-1,1v6c0,0.552,0.448,1,1,1h30c0.552,0,1-0.448,1-1V5C72,4.448,71.552,4,71,4z"/>
	<rect x="52" y="6" class="st0" width="18" height="4"/>
	<path class="st1" d="M71,14H41c-0.552,0-1,0.448-1,1v6c0,0.552,0.448,1,1,1h30c0.552,0,1-0.448,1-1v-6C72,14.448,71.552,14,71,14z"
		/>
	<rect x="58" y="16" class="st0" width="12" height="4"/>
</g>
</svg>
