<?xml version="1.0" ?>
<svg xmlns="http://www.w3.org/2000/svg" id="a" viewBox="0 0 64 64">
  <g opacity=".4">
    <path d="M28,44c-1.1,0-2-.9-2-2v-12c0-1.1.9-2,2-2s2,.9,2,2v12c0,1.1-.9,2-2,2Z" fill="currentColor"/>
  </g>
  <g opacity=".4">
    <path d="M36,44c-1.1,0-2-.9-2-2v-12c0-1.1.9-2,2-2s2,.9,2,2v12c0,1.1-.9,2-2,2Z" fill="currentColor"/>
  </g>
  <path d="M50,20h-10v-6c0-1.1-.9-2-2-2h-12c-1.1,0-2,.9-2,2v6h-10c-1.1,0-2,.9-2,2s.9,2,2,2h36c1.1,0,2-.9,2-2s-.9-2-2-2ZM28,20v-4h8v4h-8Z" fill="var(--icon-color-accent, #ff8700)"/>
  <path d="M44,47.97s-.08.03-.15.03h-23.69c-.07,0-.12-.02-.15-.03v-23.97h-4v24.07c0,2.17,1.86,3.93,4.15,3.93h23.69c2.29,0,4.15-1.76,4.15-3.93v-24.07h-4v23.97Z" fill="currentColor"/>
</svg>
