<?xml version="1.0" ?>
<svg xmlns="http://www.w3.org/2000/svg" id="a" viewBox="0 0 64 64">
  <g opacity=".6">
    <path d="M24.99,50.56c-.26,0-.52-.05-.78-.16-1.43-.6-2.78-1.38-4.03-2.29-.89-.65-1.08-1.91-.43-2.79.65-.89,1.9-1.08,2.79-.43,1,.73,2.09,1.35,3.23,1.83,1.02.43,1.49,1.6,1.06,2.62-.32.76-1.06,1.22-1.84,1.22ZM15.98,42.19c-.73,0-1.43-.4-1.78-1.09-.71-1.38-1.25-2.84-1.62-4.35-.26-1.07.39-2.16,1.47-2.42s2.16.39,2.42,1.47c.29,1.21.73,2.38,1.29,3.47.5.98.12,2.19-.87,2.69-.29.15-.6.22-.91.22ZM14.45,29.99c-.15,0-.3-.02-.45-.05-1.08-.25-1.75-1.32-1.5-2.4.35-1.51.87-2.98,1.55-4.37.49-.99,1.69-1.4,2.68-.91.99.49,1.4,1.69.91,2.68-.55,1.11-.97,2.29-1.24,3.5-.21.93-1.04,1.55-1.95,1.55ZM21.12,19.65c-.6,0-1.2-.27-1.59-.79-.67-.88-.5-2.13.38-2.8,1.24-.94,2.58-1.73,4-2.36,1.01-.44,2.19.01,2.64,1.02.45,1.01-.01,2.19-1.02,2.64-1.13.5-2.2,1.13-3.19,1.88-.36.27-.79.41-1.21.41Z" fill="currentColor"/>
  </g>
  <path d="M32,52c-1.1,0-2-.9-2-2s.9-2,2-2c8.82,0,16-7.18,16-16s-7.18-16-16-16c-1.1,0-2-.9-2-2s.9-2,2-2c11.03,0,20,8.97,20,20s-8.97,20-20,20Z" fill="currentColor"/>
  <path d="M39.43,36.6l-5.34-5.42v-9.18c0-1.1-.9-2-2-2s-2,.9-2,2v10s0,.07.01.1c0,.09.01.19.03.28.01.06.03.11.05.17.02.07.04.14.06.21.03.06.06.12.09.18.03.06.06.11.09.17.05.08.11.15.17.22.02.03.04.06.07.08h.01s0,.01,0,.01l5.9,5.99c.39.4.91.6,1.42.6s1.01-.19,1.4-.58c.79-.78.8-2.04.02-2.83Z" fill="var(--icon-color-accent, #ff8700)"/>
</svg>
