<svg xmlns="http://www.w3.org/2000/svg" version="1.1" viewBox="0 0 64 64">
<rect fill="#666666" width="64" height="64"/>
<g>
	<g>
		<path fill="#FFFFFF" d="M48.9,19.4L48.9,19.4c0-0.1,0-0.3,0-0.4c0-0.2,0-0.3-0.1-0.5c0-0.1-0.1-0.2-0.1-0.3c0-0.1,0-0.1-0.1-0.2
			c-0.1-0.1-0.1-0.2-0.2-0.3c0,0,0,0,0-0.1c-0.4-0.6-1.1-1.1-2-1.5l0,0c0,0,0,0,0,0c-1.8-0.8-4.5-1.1-7.3-1.2c0,0,0,0,0,0l0,0
			c-0.4,0-0.8,0-1.2,0c-0.7,0-1.3,0-1.8,0.2l0,0h0c-0.2,0-0.3,0.1-0.5,0.2c0,0,0,0,0,0c-0.1,0.1-0.3,0.2-0.4,0.3c0,0,0,0,0,0
			c-0.1,0.1-0.2,0.2-0.3,0.4c0,0,0,0,0,0c-0.2,0.4-0.3,0.9-0.3,1.7c0,1.1,0.2,2.5,0.6,4v0l0,0c0.2,0.7,0.4,1.4,0.7,2.2l0,0
			c0,0,0,0,0,0c0.5,1.3,1.1,2.7,1.7,3.9l0,0c0,0,0,0,0,0c0.2,0.3,0.3,0.6,0.5,0.9c0,0,0,0,0,0c0.2,0.3,0.3,0.6,0.5,0.8c0,0,0,0,0,0
			l0,0c0.4,0.6,0.8,1.1,1.2,1.6l0,0c0,0,0,0,0,0c0.9,1,1.9,1.7,2.8,1.7c1.5,0,3.8-3.7,5.1-8.1c0,0,0,0,0,0
			C48.5,22.9,48.8,21.1,48.9,19.4z M37.1,17l-0.4,0.4c0-0.2,0-0.3,0-0.4C36.8,17,36.9,17,37.1,17z M37,19.9l2.9-2.9
			c1,0,1.8,0.1,2.6,0.2l-5,5C37.3,21.4,37.1,20.7,37,19.9z M39.1,26.1c-0.3-0.6-0.6-1.2-0.8-1.8l6.6-6.6c1.1,0.3,1.6,0.7,1.9,0.9
			l-7.6,7.6C39.2,26.2,39.2,26.1,39.1,26.1z M40.2,28l6.4-6.4c-0.2,1.4-0.6,2.7-1.1,3.9l-4.1,4.1C41.1,29.2,40.7,28.7,40.2,28z"/>
	</g>
	<g>
		<path fill="#FFFFFF" d="M39.2,38.6c-0.1,0-0.3,0-0.4-0.1c0,0,0,0,0,0c-0.1,0-0.3-0.1-0.4-0.2l0,0c-0.5-0.2-1.1-0.6-1.6-1.2l0,0
			c-0.2-0.2-0.4-0.4-0.6-0.7c0,0,0-0.1-0.1-0.1c-0.2-0.2-0.4-0.5-0.6-0.8l0,0c-0.4-0.5-0.8-1.1-1.1-1.7c-0.4-0.6-0.7-1.2-1-1.8
			c-0.3-0.6-0.6-1.2-1-1.9c-0.3-0.6-0.6-1.3-0.9-1.9l0,0c-0.3-0.7-0.6-1.3-0.8-2c-0.3-0.7-0.5-1.4-0.7-2.1c-0.2-0.8-0.5-1.5-0.7-2.2
			l0,0c-0.1-0.4-0.2-0.8-0.3-1.2c0,0,0,0,0,0c-0.1-0.4-0.1-0.8-0.2-1.1c-0.1-0.5-0.1-1-0.1-1.4c0-0.6,0-1.1,0.1-1.5l0,0
			c0.1-0.4,0.2-0.7,0.3-0.9c0,0,0,0,0,0c0.1-0.1,0.1-0.2,0.2-0.3c0,0,0,0,0,0c0.1-0.1,0.2-0.1,0.3-0.2c-0.4,0-0.8,0.1-1.3,0.2
			c-0.1,0-0.1,0-0.2,0c-0.4,0.1-0.8,0.1-1.2,0.2c0,0,0,0,0,0l0,0c-1.6,0.3-3.3,0.7-4.8,1.2c0,0-0.1,0-0.1,0c-0.4,0.1-0.7,0.2-1,0.4
			c0,0-0.1,0-0.1,0c-2.2,0.8-4,1.8-4.9,3c-0.3,0.5-0.6,1.2-0.7,2c0,0.3,0,0.5,0,0.8c0,1.7,0.4,3.8,1,6.1c0,0,0,0,0,0l0,0
			c0.9,3.2,2.4,6.8,4.1,10l0,0c0,0,0,0,0,0c0.3,0.6,0.7,1.2,1,1.8c0,0,0,0,0,0l0,0c1.1,1.9,2.3,3.6,3.5,4.9l0,0c0,0,0,0,0,0
			c0.2,0.3,0.5,0.5,0.7,0.7c0,0,0,0,0,0c0.2,0.2,0.5,0.4,0.7,0.6c0,0,0,0,0,0l0,0c0.8,0.7,1.6,1.1,2.4,1.3c0,0,0,0,0.1,0
			c0.2,0,0.5,0.1,0.7,0.1c0.2,0,0.4,0,0.7-0.1c0,0,0,0,0.1,0c0.2-0.1,0.5-0.1,0.7-0.2c0,0,0,0,0,0l0,0c2.5-1,5.8-4.4,8.8-8.8l0,0
			c0,0,0,0,0,0c0.3-0.5,0.6-1,0.9-1.4C40.1,38.5,39.7,38.6,39.2,38.6z M28.2,25.9l-8.3,8.3c-0.3-0.7-0.6-1.4-0.8-2l8.4-8.4
			C27.7,24.4,28,25.2,28.2,25.9z M17.1,23.3c0-0.2,0-0.4,0-0.5l2.7-2.7c1.2-0.6,2.7-1.1,4.4-1.5l-6.9,6.9
			C17.2,24.7,17.1,24,17.1,23.3z M26.5,19.1c0.1,0.7,0.2,1.5,0.4,2.4L18.4,30c-0.2-0.8-0.4-1.5-0.6-2.2L26.5,19.1z M20.8,36.1L29,28
			c0.3,0.7,0.5,1.3,0.8,2L21.7,38C21.4,37.4,21.1,36.8,20.8,36.1z M30.7,31.9c0.3,0.6,0.6,1.3,1,1.9l-7.9,7.9
			c-0.4-0.5-0.7-1.1-1.1-1.8L30.7,31.9z M24.9,43.3l7.8-7.8c0.4,0.6,0.8,1.1,1.2,1.7l-7.7,7.7C25.8,44.4,25.4,43.9,24.9,43.3z
			 M35.3,38.6c0.5,0.5,1,0.9,1.6,1.3L29.7,47c-0.1,0-0.2,0-0.3,0c-0.4,0-1-0.3-1.7-0.8L35.3,38.6z"/>
	</g>
</g>
</svg>
