<?xml version="1.0" ?>
<svg xmlns="http://www.w3.org/2000/svg" viewBox="0 0 64 64">
  <g opacity=".4">
    <path d="M48,28.6h-10.21c-1,0-2.04-1.09-2.04-2.1v-10.5l12.25,12.6Z" fill="currentColor"/>
  </g>
  <path d="M35.81,20l8.19,8.42v19.58h-20v-28h11.81M37.5,16h-15.75c-.97,0-1.75.81-1.75,1.8v32.4c0,.99.78,1.8,1.75,1.8h24.5c.97,0,1.75-.81,1.75-1.8v-23.4l-10.5-10.8h0Z" fill="currentColor"/>
  <path d="M20,17.8c0-.99.78-1.8,1.75-1.8h15.75l2.5,2.57v-4.57c0-1.1-.9-2-2-2H14c-1.1,0-2,.9-2,2v32c0,1.1.9,2,2,2h6v-30.2Z" fill="var(--icon-color-accent, #ff8700)"/>
</svg>
