<?xml version="1.0" ?>
<svg xmlns="http://www.w3.org/2000/svg" id="a" viewBox="0 0 64 64">
  <path d="M26,38c-.51,0-1.02-.2-1.41-.59-.78-.78-.78-2.05,0-2.83l2.59-2.59-2.59-2.59c-.78-.78-.78-2.05,0-2.83s2.05-.78,2.83,0l4,4c.78.78.78,2.05,0,2.83l-4,4c-.39.39-.9.59-1.41.59Z" fill="var(--icon-color-accent, #ff8700)"/>
  <path d="M38,42h-6c-1.1,0-2-.9-2-2s.9-2,2-2h6c1.1,0,2,.9,2,2s-.9,2-2,2Z" fill="var(--icon-color-accent, #ff8700)"/>
  <path d="M34.34,16l9.66,9.66v22.34h-24V16h14.34M36,12h-18c-1.1,0-2,.9-2,2v36c0,1.1.9,2,2,2h28c1.1,0,2-.9,2-2v-26l-12-12h0Z" fill="currentColor"/>
  <g opacity=".6">
    <path d="M34,16v7.67c0,1.12,1.19,2.33,2.33,2.33h7.67v-.34l-9.66-9.66h-.34Z" fill="currentColor"/>
  </g>
</svg>
