<?xml version="1.0" encoding="utf-8"?>
<!-- Generator: Adobe Illustrator 22.1.0, SVG Export Plug-In . SVG Version: 6.00 Build 0)  -->
<svg version="1.1" id="Ebene_1" xmlns="http://www.w3.org/2000/svg" xmlns:xlink="http://www.w3.org/1999/xlink" x="0px" y="0px"
	 viewBox="0 0 64 64" enable-background="new 0 0 64 64" xml:space="preserve">
<path fill="#FF5E49" d="M0,0h64v64H0V0z"/>
<circle fill="#FFFFFF" cx="32" cy="32" r="13.3"/>
<polygon fill="#FF5E49" points="39,32 28,25.6 28,38.4 "/>
<path opacity="0.5" fill="#FFFFFF" d="M23.2,12.7l1.5,2.6c1.7-0.7,3.5-1.2,5.3-1.4v-3C27.6,11.1,25.3,11.7,23.2,12.7z"/>
<path opacity="0.5" fill="#FFFFFF" d="M17.3,21.2c1.1-1.5,2.4-2.8,3.9-3.9l-1.5-2.6c-1.9,1.4-3.6,3.1-5,5L17.3,21.2z"/>
<path opacity="0.5" fill="#FFFFFF" d="M13.9,30c0.2-1.9,0.7-3.7,1.4-5.3l-2.6-1.5c-1,2.1-1.6,4.4-1.8,6.8H13.9z"/>
<path opacity="0.5" fill="#FFFFFF" d="M17.3,42.8l-2.6,1.5c1.4,1.9,3.1,3.6,5,5l1.5-2.6C19.7,45.6,18.4,44.3,17.3,42.8z"/>
<path fill="#FFFFFF" d="M34,10.9v3c9.1,1,16.3,8.7,16.3,18.1S43.1,49.1,34,50.1v3c10.8-1,19.3-10.1,19.3-21.1S44.8,11.9,34,10.9z"/>
<path opacity="0.5" fill="#FFFFFF" d="M15.3,39.3c-0.7-1.7-1.2-3.5-1.4-5.3h-3c0.2,2.4,0.9,4.7,1.8,6.8L15.3,39.3z"/>
<path opacity="0.5" fill="#FFFFFF" d="M30,50.1c-1.9-0.2-3.7-0.7-5.3-1.4l-1.5,2.6c2.1,1,4.4,1.6,6.8,1.8V50.1z"/>
</svg>
