<?xml version="1.0" ?>
<svg xmlns="http://www.w3.org/2000/svg" id="a" viewBox="0 0 64 64">
  <path d="M18,48h-2c-2.21,0-4-1.79-4-4v-28c0-2.21,1.79-4,4-4h32c2.21,0,4,1.79,4,4v10c0,1.1-.9,2-2,2s-2-.9-2-2v-10H16v28h2c1.1,0,2,.9,2,2s-.9,2-2,2Z" fill="currentColor"/>
  <path d="M30,52c-1.1,0-2-.9-2-2v-20c0-1.1.9-2,2-2s2,.9,2,2v20c0,1.1-.9,2-2,2Z" fill="currentColor"/>
  <path d="M44,52c-1.1,0-2-.9-2-2v-20c0-1.1.9-2,2-2s2,.9,2,2v20c0,1.1-.9,2-2,2Z" fill="currentColor"/>
  <rect x="24" y="40" width="12" height="8" rx="1.33" ry="1.33" fill="var(--icon-color-accent, #ff8700)"/>
  <rect x="38" y="32" width="12" height="8" rx="1.33" ry="1.33" fill="var(--icon-color-accent, #ff8700)"/>
  <g opacity=".4">
    <rect x="16" y="16" width="32" height="8" fill="currentColor"/>
  </g>
</svg>
