<?xml version="1.0" encoding="utf-8"?>
<!-- Generator: Adobe Illustrator 16.0.0, SVG Export Plug-In . SVG Version: 6.00 Build 0)  -->
<!DOCTYPE svg PUBLIC "-//W3C//DTD SVG 1.1//EN" "http://www.w3.org/Graphics/SVG/1.1/DTD/svg11.dtd">
<svg version="1.1" id="Layer_1" xmlns="http://www.w3.org/2000/svg" xmlns:xlink="http://www.w3.org/1999/xlink" x="0px" y="0px"
	 width="595.28px" height="594.708px" viewBox="0 0 595.28 594.708" enable-background="new 0 0 595.28 594.708"
	 xml:space="preserve">
<g id="upgrade">
	<rect id="upgrade-background" x="0.954" y="0.934" fill="#6C9DCC" width="594.326" height="593.774"/>
	<path id="upgrade-icon" fill="#FFFFFF" d="M361.234,253.461h-35.789v161.051c0,3.355-2.61,5.965-5.965,5.965H188.253
		c-2.237,0-4.474-1.305-5.406-3.355c-0.932-2.236-0.746-4.66,0.746-6.523l29.824-35.789c1.119-1.306,2.982-2.051,4.66-2.051h59.648
		V253.461h-35.789c-4.66,0-8.761-2.609-10.811-6.897c-1.864-4.101-1.305-9.133,1.677-12.675l59.648-71.578
		c4.474-5.405,13.793-5.405,18.267,0l59.648,71.578c2.982,3.542,3.729,8.575,1.678,12.675
		C369.995,250.852,365.894,253.461,361.234,253.461z"/>
</g>
</svg>
