<svg xmlns="http://www.w3.org/2000/svg" version="1.1" viewBox="0 0 64 64">
<rect x="0" y="0" width="64" height="64" rx="0" ry="0" fill="#aebb69"></rect>
<path transform="translate(16, 16)" fill="#FFFFFF" d="M28.031,24.784l3.441,4.915l-2.457,1.721l-3.441-4.915L28.031,24.784z M25.655,24.006 c-0.96,0.672-2.06,0.995-3.15,0.995c-1.734,0-3.44-0.818-4.51-2.346c-1.742-2.488-1.138-5.918,1.351-7.66 c0.96-0.672,2.06-0.995,3.15-0.995c1.734,0,3.44,0.818,4.51,2.346C28.748,18.834,28.143,22.264,25.655,24.006z M25.947,20.108 c0.162-0.921-0.044-1.849-0.58-2.615C24.713,16.558,23.639,16,22.496,16c-0.718,0-1.411,0.219-2.003,0.633 c-1.581,1.107-1.966,3.294-0.86,4.875c0.655,0.935,1.728,1.493,2.872,1.493c0.718,0,1.411-0.219,2.003-0.633 C25.274,21.831,25.785,21.029,25.947,20.108z M32,0v14h-2V8H2v22h15v2H0V0H32z M24,2H2v4h22V2z M30,2h-4v4h4V2z"></path>
</svg>
