<svg xmlns="http://www.w3.org/2000/svg" viewBox="0 0 64 64">
<rect fill="#415697" width="64" height="64"/>
<g>
	<path fill="#FFF" d="M49,22H35c-0.552,0-1-0.448-1-1v-4c0-0.552,0.448-1,1-1h14c0.552,0,1,0.448,1,1v4
		C50,21.552,49.552,22,49,22z"/>
	<rect x="46" y="18" fill="#415697" width="2" height="2"/>
	<rect x="42" y="18" fill="#415697" width="2" height="2"/>
	<path fill="#FFF" d="M49,30H35c-0.552,0-1-0.448-1-1v-4c0-0.552,0.448-1,1-1h14c0.552,0,1,0.448,1,1v4
		C50,29.552,49.552,30,49,30z"/>
	<rect x="46" y="26" fill="#415697" width="2" height="2"/>
	<rect x="42" y="26" fill="#415697" width="2" height="2"/>
	<path fill="#FFF" d="M49,42H35c-0.552,0-1-0.448-1-1v-8c0-0.552,0.448-1,1-1h14c0.552,0,1,0.448,1,1v8
		C50,41.552,49.552,42,49,42z"/>
	<rect x="46" y="38" fill="#415697" width="2" height="2"/>
	<rect x="42" y="38" fill="#415697" width="2" height="2"/>
</g>
<g>
	<path fill="#FFF" d="M29,22H15c-0.552,0-1-0.448-1-1v-4c0-0.552,0.448-1,1-1h14c0.552,0,1,0.448,1,1v4
		C30,21.552,29.552,22,29,22z"/>
	<rect x="26" y="18" fill="#415697" width="2" height="2"/>
	<rect x="22" y="18" fill="#415697" width="2" height="2"/>
	<path fill="#FFF" d="M29,30H15c-0.552,0-1-0.448-1-1v-4c0-0.552,0.448-1,1-1h14c0.552,0,1,0.448,1,1v4
		C30,29.552,29.552,30,29,30z"/>
	<rect x="26" y="26" fill="#415697" width="2" height="2"/>
	<rect x="22" y="26" fill="#415697" width="2" height="2"/>
	<path fill="#FFF" d="M29,42H15c-0.552,0-1-0.448-1-1v-8c0-0.552,0.448-1,1-1h14c0.552,0,1,0.448,1,1v8
		C30,41.552,29.552,42,29,42z"/>
	<rect x="26" y="38" fill="#415697" width="2" height="2"/>
	<rect x="22" y="38" fill="#415697" width="2" height="2"/>
</g>
<g>
	<rect x="40" y="44" fill="#FFF" width="4" height="2"/>
	<rect x="20" y="44" fill="#FFF" width="4" height="2"/>
	<rect x="40" y="42" opacity="0.5" fill="#FFF" width="4" height="2"/>
	<rect x="20" y="42" opacity="0.5" fill="#FFF" width="4" height="2"/>
	<path fill="#FFF" d="M20,46h24v1c0,0.552-0.448,1-1,1H21c-0.552,0-1-0.448-1-1V46z"/>
</g>
</svg>