<?xml version="1.0" encoding="utf-8"?>
<!-- Generator: Adobe Illustrator 19.1.1, SVG Export Plug-In . SVG Version: 6.00 Build 0)  -->
<svg version="1.1" xmlns="http://www.w3.org/2000/svg" xmlns:xlink="http://www.w3.org/1999/xlink" x="0px" y="0px"
	 viewBox="0 0 64 64" enable-background="new 0 0 64 64" xml:space="preserve">
<rect fill="#5599FF" width="64" height="64"/>
<path fill="#FFFFFF" d="M46.6,41.2c-2.815-0.768-4.974-1.825-6.976-2.678c-0.042,0.543-0.243,1.113-0.782,1.664
	c-1.62,1.726-4.1,3.814-6.808,3.814c-2.719,0-5.288-2.115-6.88-3.817c-0.558-0.573-0.743-1.177-0.762-1.738
	c-2.007,0.896-4.17,1.885-6.993,2.655c0,0-3.1,1.9-3.4,8.9h36C49.8,42.9,46.6,41.2,46.6,41.2z"/>
<path fill="#FFFFFF" d="M40,20.5c0-3.6-3.2-6.5-7-6.5h-2c-3.6,0-7,2.9-7,6.5v5c0,2.109,1.628,4.713,3.5,6.553
	c-0.1,5.4-1.7,5.947-0.9,6.747c2.5,2.7,8.1,2.9,10.8,0c0.797-0.797-0.59-1.3-0.896-6.747C38.333,30.215,39.942,27.59,40,25.5V20.5z"
	/>
</svg>
