<?xml version="1.0" encoding="utf-8"?>
<!-- Generator: Adobe Illustrator 19.1.1, SVG Export Plug-In . SVG Version: 6.00 Build 0)  -->
<svg version="1.1" xmlns="http://www.w3.org/2000/svg" xmlns:xlink="http://www.w3.org/1999/xlink" x="0px" y="0px"
	 viewBox="0 0 64 64" enable-background="new 0 0 64 64" xml:space="preserve">
<rect fill="#5599FF" width="64" height="64"/>
<path fill="#FFFFFF" d="M35,44h-6c-0.552,0-1,0.448-1,1v6c0,0.552,0.448,1,1,1h6c0.552,0,1-0.448,1-1v-6C36,44.448,35.552,44,35,44z
	"/>
<path fill="#FFFFFF" d="M43.78,21.811c-0.852-4.802-4.786-8.745-9.592-9.6c-7.225-1.288-13.555,3.899-14.159,10.728
	c-0.048,0.572,0.444,1.068,1.02,1.068h6.042c0.508,0,0.876-0.392,0.988-0.888c0.408-1.779,2.003-3.111,3.903-3.111
	c2.203,0,3.999,1.795,3.999,3.999c0,1.427-0.796,2.627-1.927,3.331c-3.623,2.055-6.07,5.93-6.07,10.396V39c0,0.552,0.448,1,1,1
	h5.998c0.552,0,1-0.448,1-1v-1.268c0-1.435,0.804-2.635,1.943-3.339C42.116,32.003,44.731,27.173,43.78,21.811z"/>
</svg>
