<svg xmlns="http://www.w3.org/2000/svg" viewBox="0 0 64 64">
<rect fill="#D04038" width="64" height="64"/>
<path fill="#FFF" d="M32,41.571c-6.5-0.375-12-4.075-15.75-9.563c2.15-2.813,4.691-5.738,7.891-7.338
	c-0.8,1.4-1.141,3.326-1.141,4.926c0,5,4,8.657,9,8.6c5,0.057,9-3.6,9-8.6c0-1.6-0.262-3.626-1.062-4.926
	c3.1,1.6,5.562,4.526,7.812,7.338C44.1,37.496,38.5,41.196,32,41.571z M33,24.496c0,0.5-0.4,1-1,1c-2.3,0-4.2,1.9-4.2,4.2
	c0,0.5-0.4,1-1,1c-0.6,0-1-0.4-1-1c0-3.4,2.8-6.1,6.1-6.1C32.5,23.496,33,23.996,33,24.496L33,24.496z M49.6,30.404
	c-3.7-6.1-10.5-10.2-17.6-10.2s-13.9,4.1-17.6,10.2c-0.3,0.4-0.4,1.293-0.4,1.793s0.2,1,0.4,1.4c3.7,6.1,10.5,10.2,17.6,10.2
	s13.9-4.1,17.6-10.2c0.3-0.4,0.4-0.9,0.4-1.4S49.8,30.804,49.6,30.404z"/>
</svg>