<svg xmlns="http://www.w3.org/2000/svg" version="1.1" viewBox="0 0 64 64">
<rect fill="#1A568F" width="64" height="64"/>
<path fill="#FFFFFF" d="M16,14h32c1.1045685,0,2,0.8954306,2,2v32c0,1.1045685-0.8954315,2-2,2H16c-1.1045694,0-2-0.8954315-2-2V16
	C14,14.8954306,14.8954306,14,16,14z"/>
<path fill="#1A568F" d="M17,16h30c0.5522842,0,1,0.4477158,1,1v30c0,0.5522842-0.4477158,1-1,1H17c-0.5522842,0-1-0.4477158-1-1V17
	C16,16.4477158,16.4477158,16,17,16z"/>
<g>
	<path fill="#FFFFFF" d="M18.5,18h27c0.2761421,0,0.5,0.2238579,0.5,0.5v7c0,0.2761421-0.2238579,0.5-0.5,0.5h-27
		c-0.2761421,0-0.5-0.2238579-0.5-0.5v-7C18,18.2238579,18.2238579,18,18.5,18z"/>
</g>
<path opacity="0.5" fill="#FFFFFF" d="M18.5,28h9c0.2761421,0,0.5,0.2238579,0.5,0.5v17c0,0.2761421-0.2238579,0.5-0.5,0.5h-9
	c-0.2761421,0-0.5-0.2238579-0.5-0.5v-17C18,28.2238579,18.2238579,28,18.5,28z"/>
<path opacity="0.75" fill="#FFFFFF" d="M30.5,28h15c0.2761421,0,0.5,0.2238579,0.5,0.5v17c0,0.2761421-0.2238579,0.5-0.5,0.5h-15
	c-0.2761421,0-0.5-0.2238579-0.5-0.5v-17C30,28.2238579,30.2238579,28,30.5,28z"/>
</svg>
