<?xml version="1.0" ?>
<svg xmlns="http://www.w3.org/2000/svg" id="a" viewBox="0 0 64 64">
  <path d="M34,40c-.34,0-.69-.09-1-.27l-9.54-5.49h-7.47c-2.17,0-4.01-1.94-4.01-4.24v-14c0-2.21,1.8-4,4.01-4h22c2.21,0,4,1.79,4,4v14c0,2.21-1.79,4-4,4h-2v4c0,.71-.38,1.37-1,1.73-.31.18-.66.27-1,.27ZM16.1,30.24h7.9c.35,0,.69.09,1,.27l7,4.03v-2.54c0-1.1.9-2,2-2h4s.02,0,.02,0l-.02-14h-22v14c0,.07.05.18.1.24Z" fill="var(--icon-color-accent, #ff8700)"/>
  <path d="M32,22h-10c-1.1,0-2-.9-2-2s.9-2,2-2h10c1.1,0,2,.9,2,2s-.9,2-2,2Z" fill="currentColor"/>
  <path d="M32,28h-10c-1.1,0-2-.9-2-2s.9-2,2-2h10c1.1,0,2,.9,2,2s-.9,2-2,2Z" fill="currentColor"/>
  <g opacity=".6">
    <path d="M42,24.58v5.42c0,1.17-.51,2.21-1.32,2.95v3.23h-4.68v1.82c0,.71-.38,1.37-1,1.73-.31.18-.66.27-1,.27s-.69-.09-1-.27l-1.27-.73v2.83c0,.18.05.35.15.5.1.15.24.26.41.33l3.91,1.56.74,4.42c-2.65-.26-5.11-1.5-6.9-3.48-1.79-1.97-2.78-4.54-2.79-7.21,0-.5.04-.99.11-1.47l-2.98-1.72c-.25,1.03-.39,2.09-.39,3.19,0,7.72,6.28,14,14,14s14-6.28,14-14c0-6.33-4.23-11.66-10-13.39ZM43.37,47.25v-3.02l1.57-2.36c.07-.1.12-.22.14-.34.02-.12.02-.25-.01-.37l-.8-3.2v-2.68h4.12c.6,2.27.43,4.67-.47,6.84-.91,2.16-2.5,3.97-4.54,5.13Z" fill="currentColor"/>
  </g>
</svg>
