<?xml version="1.0" encoding="UTF-8" standalone="no"?>
<svg width="64px" height="64px" viewBox="0 0 64 64" version="1.1" xmlns="http://www.w3.org/2000/svg" xmlns:xlink="http://www.w3.org/1999/xlink" xmlns:sketch="http://www.bohemiancoding.com/sketch/ns">
    <!-- Generator: Sketch 3.3.3 (12072) - http://www.bohemiancoding.com/sketch -->
    <title>module-extensionmanager</title>
    <desc>Created with Sketch.</desc>
    <defs></defs>
    <g id="modules" stroke="none" stroke-width="1" fill="none" fill-rule="evenodd" sketch:type="MSPage">
        <g id="module-extensionmanager" sketch:type="MSLayerGroup">
            <g id="Background" fill="#F08D34" sketch:type="MSShapeGroup">
                <rect id="Rectangle-path" x="0" y="0" width="64" height="64"></rect>
            </g>
            <path d="M32.0064796,27.925012 L42.0146935,24.0981194 C42.5317807,23.9041111 43.1082376,24.1660182 43.3022459,24.6831055 C43.4962543,25.2001927 43.2343471,25.7766496 42.7172599,25.9706579 L33,29.6862969 L33,29.6862969 L33,41.9964939 C33,42.5487786 32.5522847,42.9964939 32,42.9964939 C31.4477153,42.9964939 31,42.5487786 31,41.9964939 L31,29.6783649 L21.300927,25.8748556 C20.7838066,25.6809355 20.5218011,25.1045233 20.7157212,24.587403 C20.9096413,24.0702827 21.4860535,23.8082771 22.0031738,24.0021973 L32.0064796,27.925012 Z M32.4788482,15.9397458 C32.2143877,15.8501182 31.785918,15.8500146 31.5211518,15.9397458 L16.4788482,21.0376885 C16.2143877,21.1273161 16,21.413923 16,21.6920869 L16,42.3246971 C16,42.5964837 16.214082,42.8893643 16.4788482,42.9790954 L31.5211518,48.0770379 C31.7856123,48.1666654 32.214082,48.166769 32.4788482,48.0770379 L47.5211518,42.9790954 C47.7856123,42.8894679 48,42.6028609 48,42.3246971 L48,21.6920869 C48,21.4203002 47.785918,21.1274197 47.5211518,21.0376885 L32.4788482,15.9397458 Z M32,17.9964939 L18,22.75 L18,41.25 L32,45.9964939 L46,41.25 L46,22.75 L32,17.9964939 Z" id="Icon" fill="#FFFFFF" sketch:type="MSShapeGroup"></path>
        </g>
        <g id="actions-system-extension" sketch:type="MSLayerGroup" transform="translate(16.000000, 35.000000)"></g>
    </g>
</svg>