<svg xmlns="http://www.w3.org/2000/svg" version="1.1" viewBox="0 0 64 64">
<g>
	<rect y="0" width="64" height="64" fill="#439b92"/>
	<g opacity=".75">
		<rect x="12" y="42" width="40" height="8" rx="2" ry="2" fill="#fff"/>
		<rect x="14" y="44" width="36" height="4" fill="#439b92" opacity=".5"/>
		<rect x="20" y="42" width="10" height="8" fill="#439b92" opacity=".75"/>
		<rect x="22" y="40" width="6" height="12" rx="2" ry="2" fill="#fff"/>
		<rect x="24" y="42" width="2" height="8" fill="#439b92" opacity=".75"/>
	</g>
	<g>
		<rect x="12" y="28" width="40" height="8" rx="2" ry="2" fill="#fff"/>
		<rect x="14" y="30" width="36" height="4" fill="#439b92" opacity=".5"/>
		<rect x="36" y="28" width="10" height="8" fill="#439b92" opacity=".75"/>
		<rect x="38" y="26" width="6" height="12" rx="2" ry="2" fill="#fff"/>
		<rect x="40" y="28" width="2" height="8" fill="#439b92"/>
	</g>
	<g opacity=".75">
		<rect x="12" y="14" width="40" height="8" rx="2" ry="2" fill="#fff"/>
		<rect x="14" y="16" width="36" height="4" fill="#439b92" opacity=".5"/>
		<rect x="28" y="14" width="10" height="8" fill="#439b92" opacity=".75"/>
		<rect x="30" y="12" width="6" height="12" rx="2" ry="2" fill="#fff"/>
		<rect x="32" y="14" width="2" height="8" fill="#439b92" opacity=".75"/>
	</g>
</g>
</svg>
