<?xml version="1.0" encoding="utf-8"?>
<!-- Generator: Adobe Illustrator 24.0.2, SVG Export Plug-In . SVG Version: 6.00 Build 0)  -->
<svg version="1.1" id="Layer_1" xmlns="http://www.w3.org/2000/svg" xmlns:xlink="http://www.w3.org/1999/xlink" x="0px" y="0px"
	 viewBox="0 0 64 64" enable-background="new 0 0 64 64" xml:space="preserve">
<rect id="setting-background" fill="#1D588E" width="64" height="64"/>
<path fill="#FFFFFF" d="M49.535,29.295l-5.457-1.558c-0.154-0.435-0.319-0.859-0.517-1.27l2.751-4.953
	c0.139-0.252,0.095-0.563-0.108-0.766l-2.952-2.952c-0.203-0.203-0.517-0.247-0.766-0.108l-4.953,2.751
	c-0.411-0.198-0.836-0.363-1.27-0.517l-1.558-5.457C34.625,14.19,34.373,14,34.085,14h-4.171c-0.288,0-0.54,0.19-0.617,0.465
	l-1.561,5.459c-0.435,0.154-0.859,0.319-1.27,0.517l-4.953-2.751c-0.249-0.141-0.563-0.095-0.766,0.108l-2.949,2.949
	c-0.203,0.203-0.249,0.517-0.108,0.766l2.751,4.953c-0.198,0.411-0.363,0.836-0.517,1.27l-5.459,1.558
	C14.19,29.375,14,29.627,14,29.915v4.173c0,0.288,0.19,0.54,0.465,0.617l5.457,1.558c0.154,0.435,0.319,0.859,0.517,1.27
	l-2.751,4.953c-0.139,0.252-0.095,0.563,0.108,0.766l2.952,2.952c0.203,0.203,0.517,0.247,0.766,0.108l4.953-2.751
	c0.411,0.198,0.836,0.363,1.27,0.517l1.558,5.457C29.375,49.81,29.627,50,29.915,50h4.173c0.288,0,0.54-0.19,0.617-0.465
	l1.558-5.457c0.435-0.154,0.859-0.319,1.27-0.517l4.953,2.751c0.252,0.139,0.563,0.095,0.766-0.108l2.952-2.952
	c0.203-0.203,0.247-0.517,0.108-0.766l-2.751-4.953c0.198-0.411,0.363-0.836,0.517-1.27l5.457-1.558
	C49.81,34.625,50,34.373,50,34.085v-4.171C50,29.627,49.81,29.375,49.535,29.295z M32,39.714c-4.261,0-7.714-3.453-7.714-7.714
	s3.453-7.714,7.714-7.714s7.714,3.453,7.714,7.714S36.261,39.714,32,39.714z"/>
</svg>
