<?xml version="1.0" encoding="UTF-8" standalone="no"?>
<svg width="64px" height="64px" viewBox="0 0 64 64" version="1.1" xmlns="http://www.w3.org/2000/svg" xmlns:xlink="http://www.w3.org/1999/xlink" xmlns:sketch="http://www.bohemiancoding.com/sketch/ns">
    <!-- Generator: Sketch 3.3.3 (12072) - http://www.bohemiancoding.com/sketch -->
    <title>module-filelist</title>
    <desc>Created with Sketch.</desc>
    <defs></defs>
    <g id="modules" stroke="none" stroke-width="1" fill="none" fill-rule="evenodd" sketch:type="MSPage">
        <g id="module-filelist" sketch:type="MSLayerGroup">
            <g id="Background" fill="#4C7E3A" sketch:type="MSShapeGroup">
                <rect id="Rectangle-path" x="0" y="0" width="64" height="64"></rect>
            </g>
            <g id="Icon" transform="translate(16.000000, 22.000000)" fill="#FFFFFF" sketch:type="MSShapeGroup">
                <path d="M18,18.0395508 L5.73217773,18.0395508 C2.57626488,18.0395508 0,15.7273414 0,12.5714286 C0,9.78320822 1.99695381,7.46140142 4.63864301,6.9582266 C5.14920481,3.03215949 8.50621729,0 12.5714286,0 C14.666668,0 16.5737782,0.805476927 18,2.12367165 L18,18.0395508 Z M30.0941284,10 C30.7834817,10.4955896 31.3292452,11.1783436 31.657037,11.9738803 C31.6073147,11.9908208 31.5543438,12 31.4996527,12 L20.5003473,12 C20.2240131,12 20,11.785965 20,11.4953156 L20,10.5046844 C20,10.2259549 20.2290006,10 20.5003473,10 L30.0941284,10 L30.0941284,10 Z M27.4328341,8 C27.4233834,7.36363688 27.314462,6.85811376 27.314462,6.85811376 C27.2546504,6.5631962 27.1721266,6.27652329 27.0687956,6 L20.5003473,6 C20.2290006,6 20,6.22595492 20,6.50468445 L20,7.49531555 C20,7.78596497 20.2240131,8 20.5003473,8 L27.4328341,8 L27.4328341,8 Z M31.961808,14.3059469 C31.8797262,14.9320442 31.6681302,15.503083 31.3541691,16 L20.5003473,16 C20.2240131,16 20,15.785965 20,15.4953156 L20,14.5046844 C20,14.2259549 20.2290006,14 20.5003473,14 L31.4996527,14 C31.7079359,14 31.8864945,14.1215974 31.961808,14.3059469 L31.961808,14.3059469 Z" id="actions-online-media-add"></path>
            </g>
        </g>
    </g>
</svg>