<svg xmlns="http://www.w3.org/2000/svg" viewBox="0 0 64 64">
<rect fill="#D04139" width="64" height="64"/>
<path fill="#FFF" d="M19,14h26c0.6,0,1,0.4,1,1v34c0,0.6-0.4,1-1,1H19c-0.6,0-1-0.4-1-1V15C18,14.4,18.4,14,19,14z"/>
<polygon fill="#FFF" points="40,14 24,14 26.7,12 37.3,12 "/>
<polygon opacity="0.5" fill="#D04139" points="40,14 24,14 26.7,16 37.3,16 "/>
<rect x="24" y="26" fill="#D04139" width="4" height="2"/>
<rect x="30" y="26" opacity="0.5" fill="#D04139" width="10" height="2"/>
<rect x="26" y="20" fill="#D04139" width="12" height="2"/>
<rect x="24" y="30" fill="#D04139" width="4" height="2"/>
<rect x="30" y="30" opacity="0.5" fill="#D04139" width="10" height="2"/>
<rect x="24" y="34" fill="#D04139" width="4" height="2"/>
<rect x="30" y="34" opacity="0.5" fill="#D04139" width="10" height="2"/>
<rect x="24" y="38" fill="#D04139" width="4" height="2"/>
<rect x="30" y="38" opacity="0.5" fill="#D04139" width="10" height="2"/>
<rect x="24" y="42" fill="#D04139" width="4" height="2"/>
<rect x="30" y="42" opacity="0.5" fill="#D04139" width="10" height="2"/>
</svg>