<?xml version="1.0" encoding="utf-8"?>
<!-- Generator: Adobe Illustrator 19.1.1, SVG Export Plug-In . SVG Version: 6.00 Build 0)  -->
<svg version="1.1" xmlns="http://www.w3.org/2000/svg" xmlns:xlink="http://www.w3.org/1999/xlink" x="0px" y="0px"
	 viewBox="0 0 64 64" enable-background="new 0 0 64 64" xml:space="preserve">
<rect fill="#5D6364" width="64" height="64"/>
<path fill="#FFFFFF" d="M44,20h-4v-4c0-1.105-0.895-2-2-2H26c-1.105,0-2,0.895-2,2v4h-4h-2v2h2v24c0,1.105,0.895,2,2,2h20
	c1.105,0,2-0.895,2-2V22h2v-2H44z M26,16h12v4H26V16z M42,46H22V22h20V46z"/>
<rect x="28" y="26" fill="#FFFFFF" width="2" height="16"/>
<rect x="34" y="26" fill="#FFFFFF" width="2" height="16"/>
</svg>
