<svg xmlns="http://www.w3.org/2000/svg" version="1.1" viewBox="0 0 64 64">
<rect y="0" fill="#E91E63" width="64" height="64"/>
<path fill="#FFFFFF" d="M43.0023193,37c-1.8618164,0-3.4125977,1.277832-3.8586426,3.0001831H29.175293
	c-0.1629639-1.4983521-0.664978-2.8942261-1.4559326-4.0911255l-1.4926758,2.487854
	C26.5630493,39.1984863,26.75,40.0776978,26.75,41c0,3.7219849-3.0280151,6.75-6.75,6.75s-6.75-3.0280151-6.75-6.75
	c0-3.5079956,2.6906128-6.3970337,6.1160278-6.7178955l1.4932251-2.4887695C20.5759888,31.7672119,20.2901001,31.75,20,31.75
	c-5.1086426,0-9.25,4.1413574-9.25,9.25s4.1413574,9.25,9.25,9.25c4.7704468,0,8.6948853-3.6119385,9.1939697-8.2498169h9.9498291
	C39.5899658,43.722229,41.140686,45,43.0023193,45c2.2091064,0,4-1.7908325,4-4S45.2114258,37,43.0023193,37z M43.0023193,43
	c-1.1028442,0-2-0.8972168-2-2s0.8971558-2,2-2c1.1027832,0,2,0.8972168,2,2S44.1051025,43,43.0023193,43z"/>
<path fill="#FFFFFF" d="M41.2512207,20.9979858c0-5.1086426-4.1413574-9.25-9.25-9.25s-9.25,4.1413574-9.25,9.25
	c0,3.0083008,1.4425049,5.6730347,3.6665039,7.3623657l-5.2920532,8.8200684C20.7663574,37.0744629,20.3936768,37,20,37
	c-2.2091675,0-4,1.7908325-4,4s1.7908325,4,4,4s4-1.7908325,4-4c0-1.0931396-0.4406128-2.0819092-1.1513062-2.803894
	l5.2828369-8.8046875c1.1785278,0.5443726,2.4862061,0.8565674,3.8696899,0.8565674
	c0.1707764,0,0.3374023-0.0163574,0.5059204-0.0255127l-1.3972168-2.5403442
	c-3.3011475-0.4385376-5.8587036-3.2650146-5.8587036-6.6841431c0-3.7219238,3.0280151-6.75,6.75-6.75
	c3.7219238,0,6.75,3.0280762,6.75,6.75c0,1.0115967-0.2300415,1.9683228-0.6304932,2.8305054l1.3991699,2.5439453
	C40.6054688,24.8566284,41.2512207,23.0046387,41.2512207,20.9979858z M20,43c-1.1027832,0-2-0.8972168-2-2s0.8972168-2,2-2
	s2,0.8972168,2,2S21.1027832,43,20,43z"/>
<path fill="#FFFFFF" d="M43.0023193,31.75c-1.2614746,0-2.4549561,0.2687378-3.5491943,0.7268066l-4.7157593-8.5742188
	c0.7741699-0.7294312,1.263855-1.756958,1.263855-2.9046021c0-2.2091064-1.7908936-4-4-4c-2.2091675,0-4,1.7908936-4,4
	c0,2.2091675,1.7908325,4,4,4c0.3407593,0,0.6660156-0.055603,0.9818726-0.1358032l4.7213135,8.5839844
	c-1.2869873,0.9078369-2.34375,2.1217041-3.0328369,3.5540161h2.9060669C38.8081665,35.3358765,40.7783203,34.25,43.0023193,34.25
	c3.7219238,0,6.75,3.0280151,6.75,6.75s-3.0280762,6.75-6.75,6.75c-2.2238159,0-4.1939697-1.0857544-5.4244385-2.7498169h-2.9061279
	C36.1646729,48.1030273,39.3286743,50.25,43.0023193,50.25c5.1086426,0,9.25-4.1413574,9.25-9.25S48.1109619,31.75,43.0023193,31.75
	z M32.0012207,22.9979858c-1.1028442,0-2-0.8972168-2-2s0.8971558-2,2-2c1.1027832,0,2,0.8972168,2,2
	S33.1040039,22.9979858,32.0012207,22.9979858z"/>
</svg>
