<?xml version="1.0" encoding="utf-8"?>
<!-- Generator: Adobe Illustrator 19.1.0, SVG Export Plug-In . SVG Version: 6.00 Build 0)  -->
<svg version="1.1" id="Ebene_1" xmlns="http://www.w3.org/2000/svg" xmlns:xlink="http://www.w3.org/1999/xlink" x="0px" y="0px"
	 viewBox="24 -24 64 64" enable-background="new 24 -24 64 64" xml:space="preserve">
<g id="Background">
	<rect x="24" y="-24" fill="#5599FF" width="64" height="64"/>
</g>
<g id="Icon">
	<path fill="#FFFFFF" d="M70.625,17.226c-3.268-0.932-5.686-2.162-7.983-3.135c0.034,0.452-0.071,0.902-0.508,1.339
		c-1.427,1.546-3.649,2.432-6.097,2.432c-2.47,0-4.779-0.91-6.146-2.403c-0.462-0.462-0.557-0.928-0.509-1.378
		c-2.304,0.973-4.728,2.209-8.007,3.145c0,0-3.149,1.8-3.375,8.774h18.002H74C73.774,18.8,70.625,17.226,70.625,17.226z"/>
	<path fill="#FFFFFF" d="M55.998,10.252c-1.594,0-3.175-0.926-4.494-2.235l0,0l0,0c-0.101,5.449-1.731,5.911-0.907,6.735
		c2.474,2.7,8.101,2.926,10.801,0c0.828-0.828-0.625-1.289-0.864-6.781C59.206,9.306,57.612,10.252,55.998,10.252z"/>
	<path fill="#FFFFFF" d="M55.998,10.252c-3.826,0-7.652-5.174-7.652-8.774v-4.952c0-3.6,3.152-6.526,6.752-6.526h1.8
		c3.826,0,6.752,2.926,6.752,6.526v4.952C63.647,5.074,59.825,10.252,55.998,10.252L55.998,10.252z"/>
</g>
</svg>
