<?xml version="1.0" encoding="UTF-8" standalone="no"?>
<svg width="64px" height="64px" viewBox="0 0 64 64" version="1.1" xmlns="http://www.w3.org/2000/svg" xmlns:xlink="http://www.w3.org/1999/xlink" xmlns:sketch="http://www.bohemiancoding.com/sketch/ns">
    <!-- Generator: Sketch 3.3.3 (12072) - http://www.bohemiancoding.com/sketch -->
    <title>module-extensionmanager</title>
    <desc>Created with Sketch.</desc>
    <defs></defs>
    <g id="modules" stroke="none" stroke-width="1" fill="none" fill-rule="evenodd" sketch:type="MSPage">
        <g id="module-extensionmanager-v2" sketch:type="MSLayerGroup">
            <g id="Background" fill="#F08D34" sketch:type="MSShapeGroup">
                <rect id="Rectangle-path" x="0" y="0" width="64" height="64"></rect>
            </g>
            <path d="M33.0184491,27.927904 L43.9154855,24.1278807 C44.4325727,23.9338723 45.0090296,24.1957795 45.203038,24.7128667 C45.3970463,25.229954 45.1351392,25.8064108 44.6180519,26.0004192 L34,29.7031548 L34,42.9298272 C34,43.5189309 33.5522847,43.9964939 33,43.9964939 C32.4477153,43.9964939 32,43.5189309 32,42.9298272 L32,29.6874901 L21.3300291,25.8719643 C20.8129088,25.6780442 20.5509032,25.101632 20.7448234,24.5845117 C20.9387435,24.0673914 21.5151556,23.8053858 22.032276,23.9993059 L33.0184491,27.927904 Z M33.4724203,15.9281493 C33.2115098,15.8449263 32.7850572,15.8460213 32.5275797,15.9281493 L16.4724203,21.049285 C16.2115098,21.132508 16,21.413923 16,21.6920869 L16,42.3246971 C16,42.5964837 16.2149428,42.885371 16.4724203,42.9674989 L32.5275797,48.0886344 C32.7884902,48.1718574 33.2149428,48.1707623 33.4724203,48.0886344 L49.5275797,42.9674989 C49.7884902,42.8842759 50,42.6028609 50,42.3246971 L50,21.6920869 C50,21.4203002 49.7850572,21.131413 49.5275797,21.049285 L33.4724203,15.9281493 Z" id="Icon" fill="#FFFFFF" sketch:type="MSShapeGroup"></path>
        </g>
    </g>
</svg>