<?xml version="1.0" ?>
<svg xmlns="http://www.w3.org/2000/svg" id="a" viewBox="0 0 64 64">
  <path d="M42,36c-1.48,0-2.75.81-3.45,2h-8.55c-1.1,0-2,.9-2,2,0,3.31-2.69,6-6,6s-6-2.69-6-6c0-2.74,1.85-5.13,4.5-5.81,1.07-.27,1.71-1.37,1.44-2.43-.27-1.07-1.36-1.71-2.43-1.44-4.42,1.14-7.5,5.12-7.5,9.68,0,5.51,4.49,10,10,10,4.83,0,8.87-3.44,9.8-8h6.76c.69,1.19,1.97,2,3.45,2,2.21,0,4-1.79,4-4s-1.79-4-4-4Z" fill="currentColor"/>
  <path d="M50.77,35.2c-2.32-4.24-7.28-6.13-11.72-4.75l-3.56-6.51c.32-.58.52-1.23.52-1.93,0-2.21-1.79-4-4-4s-4,1.79-4,4,1.79,4,4,4c.02,0,.03,0,.05,0l4.35,7.95c.25.46.68.81,1.19.96.51.15,1.06.09,1.52-.17,2.9-1.59,6.56-.52,8.14,2.38,1.59,2.9.52,6.55-2.38,8.14-2.4,1.32-5.39.84-7.26-1.16-.76-.81-2.02-.85-2.83-.09-.81.76-.85,2.02-.09,2.83,1.94,2.07,4.6,3.16,7.29,3.16,1.64,0,3.29-.4,4.8-1.23,4.84-2.65,6.62-8.74,3.97-13.57Z" fill="currentColor"/>
  <path d="M36.8,13.23c-4.84-2.65-10.93-.87-13.57,3.97-2.32,4.24-1.24,9.43,2.31,12.44l-3.49,6.37s-.03,0-.05,0c-2.21,0-4,1.79-4,4s1.79,4,4,4,4-1.79,4-4c0-.71-.2-1.36-.52-1.93l4.43-8.09c.53-.97.18-2.18-.79-2.71-2.9-1.59-3.97-5.24-2.38-8.14.77-1.41,2.04-2.43,3.58-2.88,1.54-.45,3.16-.27,4.56.5,2.4,1.32,3.61,4.09,2.94,6.74-.27,1.07.38,2.16,1.45,2.43,1.08.27,2.16-.38,2.43-1.45,1.12-4.42-.89-9.04-4.89-11.23Z" fill="var(--icon-color-accent, #ff8700)"/>
</svg>
