<svg xmlns="http://www.w3.org/2000/svg" version="1.1" viewBox="0 0 64 64">
  <path fill="currentColor" d="M41.8994942,13.6152239l-28.2842712,28.2842703c-.7810373.7810364-.7810373,2.04739,0,2.8284264l5.6568546,5.6568527c.7810364.7810364,2.04739.7810364,2.8284264,0l28.2842693-28.2842712c.7810364-.7810364.7810364-2.04739,0-2.8284264l-5.6568527-5.6568546c-.7810364-.7810373-2.04739-.7810373-2.8284264.0000029ZM20.6862907,46.1421356l-2.8284264-2.8284264,16.970562-16.970562,2.8284264,2.8284264-16.970562,16.970562ZM46.1421356,20.6862907l-5.6568527,5.6568546-2.8284264-2.8284264,5.6568527-5.6568546,2.8284264,2.8284264Z"/>
  <path fill="var(--icon-color-accent, #ff8700)" d="M50,43h-3v-3c0-1.1045532-.8954468-2-2-2s-2,.8954468-2,2v3h-3c-1.1045532,0-2,.8954468-2,2s.8954468,2,2,2h3v3c0,1.1045532.8954468,2,2,2s2-.8954468,2-2v-3h3c1.1045532,0,2-.8954468,2-2s-.8954468-2-2-2Z"/>
  <path fill="currentColor" opacity=".4" d="M26.5,16h-1.5v-1.5c0-1.1046143-.8954468-2-2-2s-2,.8953857-2,2v1.5h-1.5c-1.1045532,0-2,.8953857-2,2,0,1.1045532.8954468,2,2,2h1.5v1.5c0,1.1045532.8954468,2,2,2s2-.8954468,2-2v-1.5h1.5c1.1045532,0,2-.8954468,2-2,0-1.1046143-.8954468-2-2-2Z"/>
</svg>
