<?xml version="1.0" ?>
<svg xmlns="http://www.w3.org/2000/svg" id="a" viewBox="0 0 64 64">
  <g opacity=".6">
    <rect x="11.82" y="46" width="40.18" height="6" rx="2" ry="2" fill="currentColor"/>
  </g>
  <path d="M38,42h-12c-1.1,0-2-.9-2-2v-8h-4c-1.83,0-3.91,0-4.64-1.77-.71-1.71.75-3.17,1.23-3.65l13.9-14c.37-.38.88-.59,1.41-.59h0c.53,0,1.04.21,1.41.58l14.09,14c.48.48,1.94,1.94,1.23,3.65-.73,1.77-2.81,1.77-4.64,1.77h-4v8c0,1.1-.9,2-2,2ZM28,38h8v-8c0-1.1.9-2,2-2h5.16l-11.24-11.17-11.1,11.17h5.18c1.1,0,2,.9,2,2v8Z" fill="var(--icon-color-accent, #ff8700)"/>
</svg>
