<?xml version="1.0" ?>
<svg xmlns="http://www.w3.org/2000/svg" id="a" viewBox="0 0 64 64">
  <path d="M42,24h2v4h-2c-1.1,0-2-.9-2-2h0c0-1.1.9-2,2-2Z" transform="translate(84 52) rotate(-180)" fill="var(--icon-color-accent, #ff8700)"/>
  <g opacity=".4">
    <path d="M22,28h18v-4h-18c-1.1,0-2,.9-2,2h0c0,1.1.9,2,2,2Z" fill="currentColor"/>
  </g>
  <path d="M48,16v16H16v-16h32M50,12H14c-1.1,0-2,.9-2,2v20c0,1.1.9,2,2,2h36c1.1,0,2-.9,2-2V14c0-1.1-.9-2-2-2h0Z" fill="var(--icon-color-accent, #ff8700)"/>
  <path d="M50,46h-12c0-1.1-.9-2-2-2h-2v-8h-4v8h-2c-1.1,0-2,.9-2,2h-12c-1.1,0-2,.9-2,2s.9,2,2,2h12c0,1.1.9,2,2,2h8c1.1,0,2-.9,2-2h12c1.1,0,2-.9,2-2s-.9-2-2-2Z" fill="currentColor"/>
</svg>
