<?xml version="1.0" ?>
<svg xmlns="http://www.w3.org/2000/svg" viewBox="0 0 64 64">
  <circle cx="27" cy="37" r="3" fill="var(--icon-color-accent, #ff8700)"/>
  <circle cx="37" cy="37" r="3" fill="var(--icon-color-accent, #ff8700)"/>
  <path d="M32,24c-3.31,0-6-2.69-6-6s2.69-6,6-6,6,2.69,6,6-2.69,6-6,6ZM32,16c-1.1,0-2,.9-2,2s.9,2,2,2,2-.9,2-2-.9-2-2-2Z" fill="var(--icon-color-accent, #ff8700)"/>
  <path d="M38,46h-12c-1.1,0-2-.9-2-2s.9-2,2-2h12c1.1,0,2,.9,2,2s-.9,2-2,2Z" fill="currentColor"/>
  <path d="M50,32h-2v14h2c1.1,0,2-.9,2-2v-10c0-1.1-.9-2-2-2Z" fill="currentColor" opacity=".4"/>
  <path d="M14,46h2v-14h-2c-1.1,0-2,.9-2,2v10c0,1.1.9,2,2,2Z" fill="currentColor" opacity=".4"/>
  <path d="M44,26h-10v-2.35c-.63.22-1.3.35-2,.35s-1.37-.13-2-.35v2.35h-10c-2.21,0-4,1.79-4,4v18c0,2.21,1.79,4,4,4h24c2.21,0,4-1.79,4-4v-18c0-2.21-1.79-4-4-4ZM20,48v-18h24v18s-24,0-24,0Z" fill="currentColor"/>
</svg>
