<?xml version="1.0" ?>
<svg xmlns="http://www.w3.org/2000/svg" id="a" viewBox="0 0 64 64">
  <path d="M26,48h-10c-2.21,0-4-1.79-4-4v-28c0-2.21,1.79-4,4-4h32c2.21,0,4,1.79,4,4v12c0,1.1-.9,2-2,2s-2-.9-2-2v-12H16v28h10c1.1,0,2,.9,2,2s-.9,2-2,2Z" fill="currentColor"/>
  <path d="M51.41,48.59l-5.54-5.54c.8-1.3,1.27-2.83,1.27-4.47,0-4.73-3.84-8.57-8.57-8.57s-8.57,3.84-8.57,8.57,3.84,8.57,8.57,8.57c1.64,0,3.17-.47,4.47-1.27l5.54,5.54c.39.39.9.59,1.41.59s1.02-.2,1.41-.59c.78-.78.78-2.05,0-2.83ZM38.57,43.14c-2.52,0-4.57-2.05-4.57-4.57s2.05-4.57,4.57-4.57,4.57,2.05,4.57,4.57-2.05,4.57-4.57,4.57Z" fill="var(--icon-color-accent, #ff8700)"/>
  <g opacity=".4">
    <rect x="16" y="16" width="32" height="8" fill="currentColor"/>
  </g>
</svg>
