<?xml version="1.0" encoding="UTF-8"?>
<svg xmlns="http://www.w3.org/2000/svg" version="1.1" xmlns:inkscape="http://www.inkscape.org/namespaces/inkscape" xmlns:sodipodi="http://sodipodi.sourceforge.net/DTD/sodipodi-0.dtd" xmlns:svg="http://www.w3.org/2000/svg" viewBox="0 0 64 64">
  <!-- Generator: Adobe Illustrator 30.1.0, SVG Export Plug-In . SVG Version: 2.1.1 Build 136)  -->
  <path d="M0-.0000043h64V63.9999957H0V-.0000043Z" fill="#a72e25"/>
  <g>
    <path d="M26,20v6h-6v-6h6M28,18h-10v10h10v-10h0Z" fill="#fff"/>
    <path d="M44,20v6h-6v-6h6M46,18h-10v10h10v-10h0Z" fill="#fff"/>
    <path d="M26,38v6h-6v-6h6M28,36h-10v10h10v-10h0Z" fill="#fff"/>
    <polygon points="42 40 36 40 36 42 42 42 42 40" fill="#fff"/>
    <polygon points="22 30 18 30 18 34 20 34 20 32 22 32 22 30" fill="#fff"/>
    <polygon points="26 30 24 30 24 34 26 34 26 30" fill="#fff"/>
    <polygon points="32 44 30 44 30 46 32 46 32 44" fill="#fff"/>
    <polygon points="38 44 34 44 34 46 38 46 38 44" fill="#fff"/>
    <polygon points="42 44 40 44 40 46 42 46 42 44" fill="#fff"/>
    <path d="M32,38h.0100002-.0100002M32,34h-2v8h2v-2h2v-2h2v-2h-4v-2h0Z" fill="#fff"/>
    <polygon points="46 40 44 40 44 46 46 46 46 40" fill="#fff"/>
    <polygon points="46 30 44 30 44 34 38 34 38 38 46 38 46 30" fill="#fff"/>
    <polygon points="40 30 36 30 34 30 34 32 34 34 36 34 36 32 40 32 40 30" fill="#fff"/>
    <polygon points="34 26 30 26 30 30 28 30 28 32 32 32 32 28 34 28 34 26" fill="#fff"/>
    <path d="M32,22h.0100002-.0100002M32,18h-2v6h4v-4h-2v-2h0Z" fill="#fff"/>
  </g>
</svg>