<?xml version="1.0" encoding="UTF-8" standalone="no"?>
<svg width="64px" height="64px" viewBox="0 0 64 64" version="1.1" xmlns="http://www.w3.org/2000/svg" xmlns:xlink="http://www.w3.org/1999/xlink" xmlns:sketch="http://www.bohemiancoding.com/sketch/ns">
    <!-- Generator: Sketch 3.3.3 (12072) - http://www.bohemiancoding.com/sketch -->
    <title>module-cshmanual</title>
    <desc>Created with Sketch.</desc>
    <defs></defs>
    <g id="modules" stroke="none" stroke-width="1" fill="none" fill-rule="evenodd" sketch:type="MSPage">
        <g id="module-cshmanual" sketch:type="MSLayerGroup">
            <g id="Background" fill="#E49139" sketch:type="MSShapeGroup">
                <rect id="Rectangle-path" x="0" y="0" width="64" height="64"></rect>
            </g>
            <g id="Icon" transform="translate(20.000000, 18.000000)" fill="#FFFFFF" sketch:type="MSShapeGroup">
                <path d="M23,0 L1,0 C0.458,0 0,0.446 0,0.996 L0,27.004 C0,27.56 0.448,28 1,28 L23,28 C23.542,28 24,27.554 24,27.004 L24,0.996 C24,0.44 23.552,0 23,0 L23,0 Z M2,2 L4,2 L4,26 L2,26 L2,2 Z M8,4 L20,4 L20,6 L8,6 L8,4 Z" id="Shape"></path>
            </g>
        </g>
    </g>
</svg>