<?xml version="1.0" ?>
<svg xmlns="http://www.w3.org/2000/svg" id="a" viewBox="0 0 64 64">
  <path d="M40,20.05c.55,0,1.02.11,1.41.32s.59.62.59,1.2-.2.98-.59,1.2-.86.33-1.41.33-1.03-.11-1.42-.33-.58-.62-.58-1.2.19-.99.58-1.2.86-.32,1.42-.32ZM41.83,25.13v10.87h-3.67v-10.87h3.67Z" fill="var(--icon-color-accent, #ff8700)"/>
  <path d="M48,16c-.43,0-1.09-.27-1.86-.59-1.43-.59-3.4-1.41-6.14-1.41-3.87,0-6.25,1.92-8,3.41-1.75-1.48-4.13-3.41-8-3.41-2.74,0-4.7.81-6.14,1.41-.77.32-1.43.59-1.86.59-1.1,0-2,.9-2,2v24c0,1.1.9,2,2,2,1.23,0,2.32-.44,3.47-.91,1.33-.54,2.7-1.09,4.53-1.09,3.17,0,4.68,1.51,6.59,3.41.03.03.06.05.09.08.03.03.07.06.11.09.14.11.28.2.44.26,0,0,0,0,.01,0,0,0,0,0,0,0,.24.1.5.15.76.15s.52-.05.76-.15c0,0,0,0,0,0,0,0,0,0,.01,0,.16-.07.3-.16.44-.26.04-.03.07-.06.11-.09.03-.03.07-.05.09-.08,1.91-1.91,3.41-3.41,6.59-3.41,1.83,0,3.2.56,4.53,1.09,1.15.47,2.24.91,3.47.91,1.1,0,2-.9,2-2v-24c0-1.1-.9-2-2-2ZM18,39.37v-19.73c.46-.15.92-.34,1.39-.54,1.31-.54,2.66-1.1,4.61-1.1,2.52,0,4.01,1.26,5.58,2.6.14.12.28.24.42.35v18.72c-1.54-.97-3.45-1.68-6-1.68s-4.56.79-6,1.37ZM46,39.37c-1.44-.58-3.41-1.37-6-1.37s-4.46.71-6,1.68v-18.72c.14-.12.28-.23.42-.35,1.57-1.34,3.06-2.6,5.58-2.6,1.95,0,3.3.56,4.61,1.1.47.19.93.38,1.39.54v19.73Z" fill="currentColor"/>
  <g opacity=".6">
    <path d="M50,22v20c0,1.1-.9,2-2,2-1.23,0-2.32-.44-3.47-.91-1.33-.54-2.7-1.09-4.53-1.09-3.17,0-4.68,1.51-6.59,3.41-.03.03-.06.05-.09.08-.03.03-.07.06-.11.09-.14.11-.28.2-.44.26,0,0,0,0-.01,0,0,0,0,0,0,0-.24.1-.5.15-.76.15s-.52-.05-.76-.15c0,0,0,0,0,0,0,0,0,0-.01,0-.16-.07-.3-.16-.44-.26-.04-.03-.07-.06-.11-.09-.03-.03-.07-.05-.09-.08-1.91-1.91-3.41-3.41-6.59-3.41-1.83,0-3.2.56-4.53,1.09-1.15.47-2.24.91-3.47.91-1.1,0-2-.9-2-2v-20c-1.1,0-2,.9-2,2v22c0,1.1.9,2,2,2h14c0,2,2,4,4,4s4-2,4-4h14c1.1,0,2-.9,2-2v-22c0-1.1-.9-2-2-2Z" fill="currentColor"/>
  </g>
</svg>
