<?xml version="1.0" ?>
<svg xmlns="http://www.w3.org/2000/svg" id="a" viewBox="0 0 64 64">
  <path d="M50,40H14c-1.1,0-2,.9-2,2v8c0,1.1.9,2,2,2h36c1.1,0,2-.9,2-2v-8c0-1.1-.9-2-2-2ZM46,48c-1.1,0-2-.9-2-2s.9-2,2-2,2,.9,2,2-.9,2-2,2ZM38,48c-1.1,0-2-.9-2-2s.9-2,2-2,2,.9,2,2-.9,2-2,2Z" fill="var(--icon-color-accent, #ff8700)"/>
  <g opacity=".4">
    <path d="M50,12H14c-1.1,0-2,.9-2,2v8c0,1.1.9,2,2,2h36c1.1,0,2-.9,2-2v-8c0-1.1-.9-2-2-2ZM46,20c-1.1,0-2-.9-2-2s.9-2,2-2,2,.9,2,2-.9,2-2,2ZM38,20c-1.1,0-2-.9-2-2s.9-2,2-2,2,.9,2,2-.9,2-2,2Z" fill="currentColor"/>
  </g>
  <path d="M50,26H14c-1.1,0-2,.9-2,2v8c0,1.1.9,2,2,2h36c1.1,0,2-.9,2-2v-8c0-1.1-.9-2-2-2ZM46,34c-1.1,0-2-.9-2-2s.9-2,2-2,2,.9,2,2-.9,2-2,2ZM38,34c-1.1,0-2-.9-2-2s.9-2,2-2,2,.9,2,2-.9,2-2,2Z" fill="currentColor"/>
</svg>
