<?xml version="1.0" encoding="utf-8"?>
<!-- Generator: Adobe Illustrator 16.0.0, SVG Export Plug-In . SVG Version: 6.00 Build 0)  -->
<!DOCTYPE svg PUBLIC "-//W3C//DTD SVG 1.1//EN" "http://www.w3.org/Graphics/SVG/1.1/DTD/svg11.dtd">
<svg version="1.1" id="Layer_1" xmlns="http://www.w3.org/2000/svg" xmlns:xlink="http://www.w3.org/1999/xlink" x="0px" y="0px"
	 width="595.28px" height="594.708px" viewBox="0 0 595.28 594.708" enable-background="new 0 0 595.28 594.708"
	 xml:space="preserve">
<g id="settings_1_">
	<rect id="setting-background" fill="#1D588E" width="595.279" height="594.708"/>
	<path id="setting-icon" fill="#FFFFFF" d="M364.864,318.26c0,2.427-1.867,5.228-4.294,5.601l-28.939,4.481
		c-1.494,4.854-3.548,9.521-5.975,14.189c5.228,7.468,10.829,14.376,16.804,21.472c0.746,1.12,1.307,2.24,1.307,3.733
		c0,1.308-0.374,2.614-1.307,3.548c-3.734,5.041-24.646,27.819-30.061,27.819c-1.493,0-2.801-0.561-3.921-1.308l-21.471-16.803
		c-4.668,2.427-9.335,4.294-14.376,5.787c-0.934,9.522-1.867,19.791-4.294,28.939c-0.747,2.614-2.987,4.481-5.601,4.481h-34.728
		c-2.614,0-5.228-2.054-5.601-4.668l-4.294-28.565c-4.854-1.494-9.522-3.548-14.003-5.788l-22.031,16.616
		c-0.934,0.934-2.427,1.308-3.734,1.308c-1.494,0-2.8-0.561-3.92-1.494c-4.854-4.48-26.886-24.458-26.886-29.873
		c0-1.307,0.56-2.427,1.307-3.547c5.415-7.095,11.016-14.003,16.43-21.285c-2.614-5.041-4.854-10.082-6.535-15.31l-28.379-4.48
		c-2.614-0.374-4.481-2.801-4.481-5.415v-34.541c0-2.427,1.867-5.228,4.294-5.601l28.939-4.481
		c1.494-4.854,3.547-9.522,5.975-14.189c-5.228-7.468-10.829-14.376-16.804-21.471c-0.747-1.12-1.307-2.427-1.307-3.734
		c0-1.307,0.374-2.614,1.307-3.734c3.734-5.041,24.645-27.633,30.06-27.633c1.494,0,2.801,0.561,3.921,1.307l21.471,16.804
		c4.668-2.427,9.335-4.294,14.376-5.975c0.934-9.335,1.867-19.604,4.294-28.753c0.747-2.614,2.987-4.481,5.601-4.481h34.728
		c2.614,0,5.228,2.054,5.601,4.667l4.294,28.566c4.854,1.494,9.522,3.547,14.003,5.788l22.032-16.617
		c1.12-0.934,2.427-1.307,3.733-1.307c1.494,0,2.801,0.561,3.921,1.494c4.854,4.481,26.886,24.646,26.886,29.873
		c0,1.307-0.56,2.427-1.307,3.547c-5.414,7.282-11.016,14.003-16.243,21.285c2.427,5.041,4.667,10.083,6.348,15.31l28.38,4.294
		c2.613,0.56,4.48,2.987,4.48,5.601V318.26z M245.372,252.913c-26.326,0-47.797,21.471-47.797,47.797
		c0,26.325,21.471,47.797,47.797,47.797s47.797-21.472,47.797-47.797C293.169,274.384,271.698,252.913,245.372,252.913z
		 M484.356,218.185c0,2.801-24.085,5.415-27.819,5.788c-1.493,3.547-3.36,6.721-5.602,9.708c1.681,3.734,9.522,22.405,9.522,25.766
		c0,0.56-0.187,0.934-0.747,1.307c-2.24,1.307-22.218,13.256-23.151,13.256c-2.427,0-16.43-18.67-18.297-21.471
		c-1.867,0.187-3.734,0.374-5.602,0.374s-3.734-0.187-5.602-0.374c-1.867,2.801-15.87,21.471-18.297,21.471
		c-0.934,0-20.911-11.949-23.151-13.256c-0.561-0.374-0.747-0.934-0.747-1.307c0-3.174,7.842-22.031,9.522-25.766
		c-2.241-2.987-4.108-6.161-5.602-9.708c-3.734-0.374-27.819-2.987-27.819-5.788v-26.139c0-2.801,24.085-5.415,27.819-5.788
		c1.493-3.361,3.36-6.721,5.602-9.708c-1.681-3.734-9.522-22.592-9.522-25.766c0-0.374,0.187-0.934,0.747-1.307
		c2.24-1.12,22.218-13.069,23.151-13.069c2.427,0,16.43,18.484,18.298,21.284c1.866-0.187,3.733-0.373,5.601-0.373
		s3.734,0.187,5.602,0.374c5.228-7.282,10.828-14.563,17.177-20.911l1.12-0.374c0.934,0,20.911,11.763,23.151,13.069
		c0.561,0.374,0.747,0.934,0.747,1.307c0,3.361-7.842,22.031-9.522,25.766c2.241,2.987,4.108,6.348,5.602,9.708
		c3.734,0.374,27.819,2.987,27.819,5.788V218.185z M484.356,409.373c0,2.801-24.085,5.415-27.819,5.788
		c-1.493,3.548-3.36,6.722-5.602,9.709c1.681,3.733,9.522,22.404,9.522,25.766c0,0.56-0.187,0.933-0.747,1.307
		c-2.24,1.307-22.218,13.256-23.151,13.256c-2.427,0-16.43-18.671-18.297-21.471c-1.867,0.187-3.734,0.373-5.602,0.373
		s-3.734-0.187-5.602-0.373c-1.867,2.8-15.87,21.471-18.297,21.471c-0.934,0-20.911-11.949-23.151-13.256
		c-0.561-0.374-0.747-0.934-0.747-1.307c0-3.175,7.842-22.032,9.522-25.766c-2.241-2.987-4.108-6.161-5.602-9.709
		c-3.734-0.373-27.819-2.987-27.819-5.788v-26.139c0-2.801,24.085-5.415,27.819-5.788c1.493-3.36,3.36-6.722,5.602-9.709
		c-1.681-3.733-9.522-22.591-9.522-25.766c0-0.373,0.187-0.933,0.747-1.307c2.24-1.12,22.218-13.069,23.151-13.069
		c2.427,0,16.43,18.484,18.298,21.284c1.866-0.187,3.733-0.373,5.601-0.373s3.734,0.187,5.602,0.373
		c5.228-7.281,10.828-14.562,17.177-20.911l1.12-0.373c0.934,0,20.911,11.763,23.151,13.069c0.561,0.374,0.747,0.934,0.747,1.307
		c0,3.361-7.842,22.032-9.522,25.766c2.241,2.987,4.108,6.349,5.602,9.709c3.734,0.373,27.819,2.987,27.819,5.788V409.373z
		 M412.661,181.217c-13.069,0-23.898,10.829-23.898,23.898c0,13.256,10.829,23.898,23.898,23.898
		c13.256,0,23.898-10.829,23.898-23.898S425.73,181.217,412.661,181.217z M412.661,372.405c-13.069,0-23.898,10.829-23.898,23.898
		c0,13.256,10.829,23.898,23.898,23.898c13.256,0,23.898-10.829,23.898-23.898S425.73,372.405,412.661,372.405z"/>
</g>
</svg>
