<?xml version="1.0" ?>
<svg xmlns="http://www.w3.org/2000/svg" id="a" viewBox="0 0 64 64">
  <path d="M20,44v4h-4v-4h4M22,40h-8c-1.1,0-2,.9-2,2v8c0,1.1.9,2,2,2h8c1.1,0,2-.9,2-2v-8c0-1.1-.9-2-2-2h0Z" fill="currentColor"/>
  <path d="M48,16v4h-4v-4h4M50,12h-8c-1.1,0-2,.9-2,2v8c0,1.1.9,2,2,2h8c1.1,0,2-.9,2-2v-8c0-1.1-.9-2-2-2h0Z" fill="currentColor"/>
  <path d="M20,16v4h-4v-4h4M22,12h-8c-1.1,0-2,.9-2,2v8c0,1.1.9,2,2,2h8c1.1,0,2-.9,2-2v-8c0-1.1-.9-2-2-2h0Z" fill="var(--icon-color-accent, #ff8700)"/>
  <g opacity=".6">
    <path d="M14,38c-1.1,0-2-.9-2-2v-8c0-1.1.9-2,2-2h2c1.1,0,2,.9,2,2s-.9,2-2,2v6c0,1.1-.9,2-2,2Z" fill="currentColor"/>
  </g>
  <g opacity=".6">
    <path d="M22,38c-1.1,0-2-.9-2-2v-8c0-1.1.9-2,2-2s2,.9,2,2v8c0,1.1-.9,2-2,2Z" fill="currentColor"/>
  </g>
  <g opacity=".6">
    <path d="M28,30c-1.1,0-2-.9-2-2v-8c0-1.1.9-2,2-2h8c1.1,0,2,.9,2,2v2c0,1.1-.9,2-2,2s-2-.9-2-2h-4v6c0,1.1-.9,2-2,2Z" fill="currentColor"/>
  </g>
  <g opacity=".6">
    <path d="M36,16h-8c-1.1,0-2-.9-2-2s.9-2,2-2h8c1.1,0,2,.9,2,2s-.9,2-2,2Z" fill="currentColor"/>
  </g>
  <g opacity=".6">
    <path d="M50,30h-16c-1.1,0-2-.9-2-2s.9-2,2-2h16c1.1,0,2,.9,2,2s-.9,2-2,2Z" fill="currentColor"/>
  </g>
  <g opacity=".6">
    <path d="M28,46c-1.1,0-2-.9-2-2v-10c0-1.1.9-2,2-2h6c1.1,0,2,.9,2,2s-.9,2-2,2h-4v8c0,1.1-.9,2-2,2Z" fill="currentColor"/>
  </g>
  <g opacity=".6">
    <path d="M50,42h-6c-1.1,0-2-.9-2-2v-4h-2c-1.1,0-2-.9-2-2s.9-2,2-2h4c1.1,0,2,.9,2,2v4h4c1.1,0,2,.9,2,2s-.9,2-2,2Z" fill="currentColor"/>
  </g>
  <g opacity=".6">
    <path d="M34,52h-6c-1.1,0-2-.9-2-2s.9-2,2-2h4v-2c0-1.1.9-2,2-2s2,.9,2,2v4c0,1.1-.9,2-2,2Z" fill="currentColor"/>
  </g>
  <g opacity=".6">
    <path d="M50,32c-1.1,0-2,.9-2,2s.9,2,2,2,2-.9,2-2-.9-2-2-2h0Z" fill="currentColor"/>
  </g>
  <g opacity=".6">
    <path d="M38,42h-4c-1.1,0-2-.9-2-2s.9-2,2-2h4c1.1,0,2,.9,2,2s-.9,2-2,2Z" fill="currentColor"/>
  </g>
  <g opacity=".6">
    <path d="M50,52c-1.1,0-2-.9-2-2v-4c0-1.1.9-2,2-2s2,.9,2,2v4c0,1.1-.9,2-2,2Z" fill="currentColor"/>
  </g>
  <g opacity=".6">
    <path d="M44,48v-2c0-1.1-.9-2-2-2s-2,.9-2,2v2c-1.1,0-2,.9-2,2s.9,2,2,2h4c1.1,0,2-.9,2-2s-.9-2-2-2Z" fill="currentColor"/>
  </g>
</svg>
