<?xml version="1.0" encoding="utf-8"?>
<!-- Generator: Adobe Illustrator 19.1.1, SVG Export Plug-In . SVG Version: 6.00 Build 0)  -->
<svg version="1.1" id="Ebene_1" xmlns="http://www.w3.org/2000/svg" xmlns:xlink="http://www.w3.org/1999/xlink" x="0px" y="0px"
	 viewBox="0 0 64 64" enable-background="new 0 0 64 64" xml:space="preserve">
<rect fill="#D04139" width="64" height="64"/>
<path fill="#FFFFFF" d="M19,14h26c0.552,0,1,0.448,1,1v34c0,0.552-0.448,1-1,1H19c-0.552,0-1-0.448-1-1V15
	C18,14.448,18.448,14,19,14z"/>
<polygon fill="#FFFFFF" points="40,14 24,14 26.667,12 37.333,12 "/>
<polygon opacity="0.5" fill="#D04139" points="40,14 24,14 26.667,16 37.333,16 "/>
<rect x="24" y="26" fill="#D04139" width="4" height="2"/>
<rect x="30" y="26" fill="#D04139" width="10" height="2"/>
<rect x="26" y="20" fill="#D04139" width="12" height="2"/>
<rect x="24" y="30" fill="#D04139" width="4" height="2"/>
<rect x="30" y="30" fill="#D04139" width="10" height="2"/>
<rect x="24" y="34" fill="#D04139" width="4" height="2"/>
<rect x="30" y="34" fill="#D04139" width="10" height="2"/>
<rect x="24" y="38" fill="#D04139" width="4" height="2"/>
<rect x="30" y="38" fill="#D04139" width="10" height="2"/>
<rect x="24" y="42" fill="#D04139" width="4" height="2"/>
<rect x="30" y="42" fill="#D04139" width="10" height="2"/>
</svg>
