<?xml version="1.0" ?>
<svg xmlns="http://www.w3.org/2000/svg" id="a" viewBox="0 0 64 64">
  <path d="M48,16v28H16v-28h32M50,12H14c-1.1,0-2,.9-2,2v32c0,1.1.9,2,2,2h36c1.1,0,2-.9,2-2V14c0-1.1-.9-2-2-2h0Z" fill="currentColor"/>
  <path d="M22,20h2v4h-2c-1.1,0-2-.9-2-2h0c0-1.1.9-2,2-2Z" fill="var(--icon-color-accent, #ff8700)"/>
  <g opacity=".6">
    <path d="M42,24h-18v-4h18c1.1,0,2,.9,2,2h0c0,1.1-.9,2-2,2Z" fill="currentColor"/>
  </g>
  <path d="M22,28h2v4h-2c-1.1,0-2-.9-2-2h0c0-1.1.9-2,2-2Z" fill="var(--icon-color-accent, #ff8700)"/>
  <g opacity=".6">
    <path d="M42,32h-18v-4h18c1.1,0,2,.9,2,2h0c0,1.1-.9,2-2,2Z" fill="currentColor"/>
  </g>
  <path d="M22,36h2v4h-2c-1.1,0-2-.9-2-2h0c0-1.1.9-2,2-2Z" fill="var(--icon-color-accent, #ff8700)"/>
  <g opacity=".6">
    <path d="M42,40h-18v-4h18c1.1,0,2,.9,2,2h0c0,1.1-.9,2-2,2Z" fill="currentColor"/>
  </g>
</svg>
