<svg xmlns="http://www.w3.org/2000/svg" version="1.1" viewBox="0 0 64 64">
<rect fill="#9933CC" width="64" height="64"/>
<path fill="#FFFFFF" d="M44,14H20v27.0002441c0,0.5522881,0.4477234,1.0000076,1.0000134,1L28,42.0001564V47
	c0,1.6568527,1.3431454,3,3,3h2c1.6568527,0,3-1.3431473,3-3v-4.9997444h7c0.5522842,0,1-0.4477158,1-1V14z"/>
<rect x="22" y="16" fill="#9933CC" width="20" height="20"/>
<path fill="#9933CC" d="M32.0000038,48h-0.0000057C30.8954296,48,30,47.1045723,30,46.0000038v-0.0000076
	C30,44.8954277,30.8954296,44,31.9999981,44h0.0000057C33.1045723,44,34,44.8954277,34,45.9999962v0.0000076
	C34,47.1045723,33.1045723,48,32.0000038,48z"/>
<polygon opacity="0.25" fill="#FFFFFF" points="42.0009995,15.9989996 22,36.0009995 22,16 "/>
<polygon fill="#FFFFFF" points="26,32.0007935 26,16 24,16 24,34.0008545 "/>
<polygon opacity="0.75" fill="#FFFFFF" points="29.9995728,28.0010376 29.9995728,16 27.9995728,16 27.9995728,30.0010986 "/>
<polygon opacity="0.5" fill="#FFFFFF" points="34,24.0003662 34,16 32,16 32,26.0004883 "/>
<polygon opacity="0.25" fill="#FFFFFF" points="38.0004272,19.9997559 38.0004272,16 36.0004272,16 36.0004272,21.9998779 "/>
<polygon opacity="0.15" fill="#FFFFFF" points="42,16 40.0007935,16 40.0007935,17.9993286 "/>
</svg>
