<?xml version="1.0" ?>
<svg xmlns="http://www.w3.org/2000/svg" id="a" viewBox="0 0 64 64">
  <circle cx="46" cy="22" r="6" fill="currentColor"/>
  <path d="M30,52.45c-.38,0-.76-.11-1.09-.33l-16.01-10.45c-.57-.37-.91-1-.91-1.67v-16c0-.68.35-1.32.93-1.69l16.01-10.17c.64-.41,1.46-.42,2.11-.02l6.42,3.88c.95.57,1.25,1.8.68,2.75-.57.95-1.8,1.25-2.75.68l-5.36-3.24-14.03,8.92v13.82l14.01,9.15,14-9.14v-6.92c0-1.1.9-2,2-2s2,.9,2,2v8c0,.68-.34,1.3-.91,1.67l-16,10.45c-.33.22-.71.33-1.09.33Z" fill="var(--icon-color-accent, #ff8700)"/>
  <g opacity=".6">
    <path d="M36,30h-12c-1.1,0-2-.9-2-2s.9-2,2-2h12c1.1,0,2,.9,2,2s-.9,2-2,2Z" fill="currentColor"/>
  </g>
  <g opacity=".6">
    <path d="M32,37.93h-8c-1.1,0-2-.9-2-2s.9-2,2-2h8c1.1,0,2,.9,2,2s-.9,2-2,2Z" fill="currentColor"/>
  </g>
</svg>
