<?xml version="1.0" ?>
<svg xmlns="http://www.w3.org/2000/svg" id="a" viewBox="0 0 64 64">
  <path d="M20.85,49.75h-4.68c-2.3,0-4.17-1.79-4.17-3.99V15.99c0-2.2,1.87-3.99,4.17-3.99h31.67c2.3,0,4.17,1.79,4.17,3.99v10.11c0,1.1-.9,2-2,2s-2-.9-2-2v-10.07s-.07-.02-.17-.02h-31.67c-.13,0-.19.06-.19.06l.02,29.67s.07.02.17.02h4.68c1.1,0,2,.9,2,2s-.9,2-2,2Z" fill="currentColor"/>
  <g opacity=".6">
    <path d="M30.33,32.91c.33-.5.87-.83,1.47-.9.6-.07,1.2.15,1.62.58l2.36,2.36,3.85-5.19c-1.23-1.09-2.85-1.75-4.62-1.75-3.87,0-7,3.13-7,7,0,.44.05.86.12,1.28l2.2-3.37Z" fill="currentColor"/>
  </g>
  <g opacity=".6">
    <path d="M37.61,39.19c-.35.47-.88.76-1.46.8-.58.04-1.15-.17-1.56-.58l-2.26-2.26-1.99,3.05c1.24,1.11,2.87,1.79,4.66,1.79,3.87,0,7-3.13,7-7,0-.52-.06-1.02-.17-1.51l-4.23,5.7Z" fill="currentColor"/>
  </g>
  <path d="M51.41,48.59l-7.35-7.35c1.22-1.77,1.94-3.92,1.94-6.23,0-6.08-4.92-11-11-11s-11,4.92-11,11,4.92,11,11,11c2.31,0,4.46-.72,6.23-1.94l7.35,7.35c.39.39.9.59,1.41.59s1.02-.2,1.41-.59c.78-.78.78-2.05,0-2.83ZM35,42c-3.86,0-7-3.14-7-7s3.14-7,7-7,7,3.14,7,7-3.14,7-7,7Z" fill="var(--icon-color-accent, #ff8700)"/>
</svg>
