<?xml version="1.0" encoding="utf-8"?>
<!-- Generator: Adobe Illustrator 19.1.1, SVG Export Plug-In . SVG Version: 6.00 Build 0)  -->
<svg version="1.1" xmlns="http://www.w3.org/2000/svg" xmlns:xlink="http://www.w3.org/1999/xlink" x="0px" y="0px"
	 viewBox="0 0 64 64" enable-background="new 0 0 64 64" xml:space="preserve">
<path fill="#FF5E49" d="M0,0h64v64H0V0z"/>
<path fill="#FFFFFF" d="M32,16c-7.124,0-12.904,10.137-13,20h26C44.904,26.137,39.124,16,32,16z"/>
<polygon fill="#FF5E49" points="31,24 33,24 34,26 34,34 30,34 30,26 "/>
<rect x="24" y="30" fill="#FF5E49" width="2" height="4"/>
<rect x="38" y="30" fill="#FF5E49" width="2" height="4"/>
<path fill="#FFFFFF" d="M19.059,38c0.31,4.239,1.742,7.621,3.889,10h18.105c2.147-2.379,3.579-5.761,3.889-10H19.059z"/>
<rect x="30" y="38" fill="#FF5E49" width="4" height="4"/>
</svg>
