<?xml version="1.0" ?>
<svg xmlns="http://www.w3.org/2000/svg" id="a" viewBox="0 0 64 64">
  <path d="M28,32h-14c-1.1,0-2,.9-2,2v8c0,1.1.9,2,2,2h14c1.1,0,2-.9,2-2v-8c0-1.1-.9-2-2-2ZM24,40c-1.1,0-2-.9-2-2s.9-2,2-2,2,.9,2,2-.9,2-2,2Z" fill="var(--icon-color-accent, #ff8700)"/>
  <g opacity=".4">
    <path d="M28,16h-14c-1.1,0-2,.9-2,2v8c0,1.1.9,2,2,2h14c1.1,0,2-.9,2-2v-8c0-1.1-.9-2-2-2ZM24,24c-1.1,0-2-.9-2-2s.9-2,2-2,2,.9,2,2-.9,2-2,2Z" fill="currentColor"/>
  </g>
  <g opacity=".4">
    <path d="M50,16h-14c-1.1,0-2,.9-2,2v8c0,1.1.9,2,2,2h14c1.1,0,2-.9,2-2v-8c0-1.1-.9-2-2-2ZM46,24c-1.1,0-2-.9-2-2s.9-2,2-2,2,.9,2,2-.9,2-2,2Z" fill="currentColor"/>
  </g>
  <path d="M50,32h-14c-1.1,0-2,.9-2,2v8c0,1.1.9,2,2,2h14c1.1,0,2-.9,2-2v-8c0-1.1-.9-2-2-2ZM46,40c-1.1,0-2-.9-2-2s.9-2,2-2,2,.9,2,2-.9,2-2,2Z" fill="var(--icon-color-accent, #ff8700)"/>
  <path d="M40,44v4h-16v-4h-4v4.8c0,1.82,1.72,3.2,4,3.2h16c2.28,0,4-1.38,4-3.2v-4.8h-4Z" fill="currentColor"/>
</svg>
