<?xml version="1.0" encoding="utf-8"?>
<!-- Generator: Adobe Illustrator 19.1.0, SVG Export Plug-In . SVG Version: 6.00 Build 0)  -->
<svg version="1.1" id="Ebene_1" xmlns="http://www.w3.org/2000/svg" xmlns:xlink="http://www.w3.org/1999/xlink" x="0px" y="0px"
	 viewBox="0 0 64 64" enable-background="new 0 0 64 64" xml:space="preserve">
<rect fill="#5599FF" width="64" height="64"/>
<path fill="#FFFFFF" d="M48.6,47c-0.4,0-0.8,0-1.2-0.1L44.2,50H50c0-1.2-0.2-2.2-0.3-3.1C49.3,47,48.9,47,48.6,47z"/>
<path fill="#FFFFFF" d="M32.2,50c0.2-0.5,0.5-1,0.9-1.4l8.1-8.2c0-0.3-0.1-0.6-0.1-0.9c0-0.1,0-0.2,0-0.3c-0.9-0.4-1.7-0.7-2.5-1.1
	c0,0.5-0.1,0.9-0.5,1.3c-1.4,1.5-3.6,2.4-6.1,2.4c-2.5,0-4.8-0.9-6.1-2.4c-0.5-0.5-0.6-0.9-0.5-1.4c-2.3,1-4.7,2.2-8,3.1
	c0,0-3.1,1.8-3.4,8.8h18H32.2z"/>
<path fill="#FFFFFF" d="M32,34.3c-1.6,0-3.2-0.9-4.5-2.2l0,0l0,0c-0.1,5.4-1.7,5.9-0.9,6.7c2.5,2.7,8.1,2.9,10.8,0
	c0.8-0.8-0.6-1.3-0.9-6.8C35.2,33.3,33.6,34.3,32,34.3z"/>
<path fill="#FFFFFF" d="M32,34.3c-3.8,0-7.7-5.2-7.7-8.8v-5c0-3.6,3.2-6.5,6.8-6.5h1.8c3.8,0,6.8,2.9,6.8,6.5v5
	C39.6,29.1,35.8,34.3,32,34.3L32,34.3z"/>
<path fill="#FFFFFF" d="M37.7,51.1c-0.2,0-0.4-0.1-0.5-0.2C37,50.7,37,50.6,37,50.4s0.1-0.4,0.2-0.5c0.2-0.2,0.3-0.2,0.5-0.2
	s0.4,0.1,0.5,0.2c0.2,0.2,0.2,0.3,0.2,0.5s-0.1,0.4-0.2,0.5C38.1,51.1,37.9,51.1,37.7,51.1z M44.1,43.8c-0.6-0.6-1.1-1.3-1.4-2.1
	L34.5,50c-0.3,0.3-0.5,0.7-0.5,1.1c0,0.4,0.2,0.8,0.5,1.1l1.3,1.3c0.3,0.3,0.7,0.5,1.1,0.5c0.4,0,0.8-0.2,1.1-0.5l8.2-8.3
	C45.4,44.9,44.7,44.5,44.1,43.8z M53.8,39.6c-0.1-0.1-0.2-0.1-0.3-0.1c-0.1,0-0.4,0.1-0.9,0.4c-0.5,0.3-1.1,0.6-1.7,1
	c-0.6,0.4-0.9,0.6-1,0.6l-2.2-1.3v-2.7l3.6-2.1c0.1-0.1,0.2-0.2,0.2-0.3s-0.1-0.3-0.2-0.3c-0.4-0.2-0.8-0.4-1.3-0.6
	c-0.5-0.1-1-0.2-1.5-0.2c-1.5,0-2.8,0.5-3.9,1.6c-1.1,1.1-1.6,2.4-1.6,3.9s0.5,2.8,1.6,3.9c1.1,1.1,2.4,1.6,3.9,1.6
	c1.1,0,2.2-0.3,3.2-1c1-0.7,1.6-1.6,2-2.6c0.2-0.5,0.3-1,0.3-1.3C53.9,39.8,53.8,39.7,53.8,39.6z"/>
</svg>
