<?xml version="1.0" encoding="utf-8"?>
<!-- Generator: Adobe Illustrator 21.0.2, SVG Export Plug-In . SVG Version: 6.00 Build 0)  -->
<svg version="1.1" id="Capa_1" xmlns="http://www.w3.org/2000/svg" xmlns:xlink="http://www.w3.org/1999/xlink" x="0px" y="0px"
	 viewBox="0 0 64 64" style="enable-background:new 0 0 64 64;" xml:space="preserve">
<style type="text/css">
	.st0{fill:#222222;}
	.st1{fill:#FFFFFF;}
</style>
<path class="st0" d="M0,0h64v64H0V0z"/>
<path class="st1" d="M14,50.1c0,0-0.6-4.4,1.2-7.7c-0.8,0.5-1.5,1.1-2.3,1.8c-3.2,3.2-2.4,9.3-2.4,9.3s6.1,0.8,9.3-2.4
	c0.7-0.7,1.3-1.5,1.8-2.3C18.4,50.7,14,50.1,14,50.1z"/>
<path class="st1" d="M40.1,37.3c0.1-0.1,0.2-0.2,0.3-0.2l0.1,0.1v-0.3c2.1-1.8,3.9-3.4,5.4-4.9c3.3-3.3,5.6-6.6,7-10S55,14.7,55,10
	c0-0.2-0.1-0.4-0.3-0.6c-0.2-0.2-0.4-0.3-0.7-0.3c-4.8,0-8.8,0.7-12,2c-3.1,1.3-6.5,3.7-9.9,7.2c-1.5,1.5-3.1,3.3-4.9,5.4h-0.3
	l0.1,0.1c-0.1,0.1-0.2,0.2-0.2,0.3L17.6,26c0,0-8.6,13-8.5,12.9l12.8-3.1c0,0-0.3,2.5,1.9,4.6c2.4,2.4,4.6,1.9,4.6,1.9
	S25.4,55,25.5,55l12.8-8.4L40.1,37.3z M46.1,15.3c0.7,0,1.4,0.3,1.9,0.8s0.8,1.1,0.8,1.9c0,0.7-0.3,1.4-0.8,1.9s-1.1,0.8-1.9,0.8
	c-0.7,0-1.4-0.3-1.9-0.8s-0.8-1.1-0.8-1.9c0-0.7,0.3-1.4,0.8-1.9C44.7,15.5,45.4,15.3,46.1,15.3z"/>
</svg>
