<?xml version="1.0" ?>
<svg xmlns="http://www.w3.org/2000/svg" viewBox="0 0 64 64">
  <path d="M18,48h-2c-2.21,0-4-1.79-4-4v-28c0-2.21,1.79-4,4-4h32c2.21,0,4,1.79,4,4v10c0,1.1-.9,2-2,2s-2-.9-2-2v-10H16v28h2c1.1,0,2,.9,2,2s-.9,2-2,2Z" fill="var(--icon-color-accent, #ff8700)" />
  <path d="M30,52c-1.1,0-2-.9-2-2v-20c0-1.1.9-2,2-2s2,.9,2,2v20c0,1.1-.9,2-2,2Z" fill="currentColor" />
  <path d="M44,52c-1.1,0-2-.9-2-2v-20c0-1.1.9-2,2-2s2,.9,2,2v20c0,1.1-.9,2-2,2Z" fill="currentColor" />
  <rect x="24" y="40" width="12" height="6" rx="1.33" ry="1.33" fill="currentColor" />
  <rect x="38" y="34" width="12" height="6" rx="1.33" ry="1.33" fill="currentColor" />
  <path d="M34,24h-12c-1.1,0-2-.9-2-2s.9-2,2-2h12c1.1,0,2,.9,2,2s-.9,2-2,2Z" fill="currentColor" opacity=".4" />
</svg>
