<?xml version="1.0" encoding="utf-8"?>
<!-- Generator: Adobe Illustrator 19.1.1, SVG Export Plug-In . SVG Version: 6.00 Build 0)  -->
<svg version="1.1" xmlns="http://www.w3.org/2000/svg" xmlns:xlink="http://www.w3.org/1999/xlink" x="0px" y="0px"
	 viewBox="0 0 64 64" enable-background="new 0 0 64 64" xml:space="preserve">
<rect fill="#184F44" width="64" height="64"/>
<path fill="#FFFFFF" d="M45,48H19c-0.552,0-1-0.448-1-1V31c0-0.552,0.448-1,1-1h26c0.552,0,1,0.448,1,1v16
	C46,47.552,45.552,48,45,48z"/>
<path fill="#FFFFFF" d="M32,20c3.308,0,6,2.692,6,6h4c0-5.523-4.477-10-10-10s-10,4.477-10,10v8h4v-8C26,22.692,28.692,20,32,20z"/>
<circle fill="#184F44" cx="32" cy="38" r="4"/>
<rect x="30" y="38" fill="#184F44" width="4" height="6"/>
</svg>
