<?xml version="1.0" encoding="utf-8"?>
<!-- Generator: Adobe Illustrator 19.1.0, SVG Export Plug-In . SVG Version: 6.00 Build 0)  -->
<svg version="1.1" id="Ebene_1" xmlns="http://www.w3.org/2000/svg" xmlns:xlink="http://www.w3.org/1999/xlink" x="0px" y="0px"
	 viewBox="0 0 64 64" enable-background="new 0 0 64 64" xml:space="preserve">
<rect fill="#415697" width="64" height="64"/>
<g>
	<path fill="#FFFFFF" d="M53,24H35c-0.552,0-1-0.448-1-1v-4c0-0.552,0.448-1,1-1h18c0.552,0,1,0.448,1,1v4
		C54,23.552,53.552,24,53,24z"/>
</g>
<rect x="50" y="20" fill="#415697" width="2" height="2"/>
<rect x="46" y="20" fill="#415697" width="2" height="2"/>
<g>
	<path fill="#FFFFFF" d="M53,32H35c-0.552,0-1-0.448-1-1v-4c0-0.552,0.448-1,1-1h18c0.552,0,1,0.448,1,1v4
		C54,31.552,53.552,32,53,32z"/>
</g>
<rect x="50" y="28" fill="#415697" width="2" height="2"/>
<rect x="46" y="28" fill="#415697" width="2" height="2"/>
<g>
	<path fill="#FFFFFF" d="M53,44H35c-0.552,0-1-0.448-1-1v-8c0-0.552,0.448-1,1-1h18c0.552,0,1,0.448,1,1v8
		C54,43.552,53.552,44,53,44z"/>
</g>
<rect x="50" y="40" fill="#415697" width="2" height="2"/>
<rect x="46" y="40" fill="#415697" width="2" height="2"/>
<rect x="42" y="46" fill="#FFFFFF" width="4" height="4"/>
<g>
	<path fill="#FFFFFF" d="M29,24H11c-0.552,0-1-0.448-1-1v-4c0-0.552,0.448-1,1-1h18c0.552,0,1,0.448,1,1v4
		C30,23.552,29.552,24,29,24z"/>
</g>
<rect x="26" y="20" fill="#415697" width="2" height="2"/>
<rect x="22" y="20" fill="#415697" width="2" height="2"/>
<g>
	<path fill="#FFFFFF" d="M29,32H11c-0.552,0-1-0.448-1-1v-4c0-0.552,0.448-1,1-1h18c0.552,0,1,0.448,1,1v4
		C30,31.552,29.552,32,29,32z"/>
</g>
<rect x="26" y="28" fill="#415697" width="2" height="2"/>
<rect x="22" y="28" fill="#415697" width="2" height="2"/>
<g>
	<path fill="#FFFFFF" d="M29,44H11c-0.552,0-1-0.448-1-1v-8c0-0.552,0.448-1,1-1h18c0.552,0,1,0.448,1,1v8
		C30,43.552,29.552,44,29,44z"/>
</g>
<rect x="26" y="40" fill="#415697" width="2" height="2"/>
<rect x="22" y="40" fill="#415697" width="2" height="2"/>
<rect x="18" y="46" fill="#FFFFFF" width="4" height="4"/>
<rect x="42" y="44" opacity="0.5" fill="#FFFFFF" width="4" height="2"/>
<rect x="18" y="44" opacity="0.5" fill="#FFFFFF" width="4" height="2"/>
<rect x="18" y="48" fill="#FFFFFF" width="28" height="2"/>
</svg>
