<svg xmlns="http://www.w3.org/2000/svg" version="1.1" viewBox="0 0 64 64">
    <g id="modules" stroke="none" stroke-width="1" fill="none" fill-rule="evenodd">
        <g id="module-func">
            <g id="Group" fill="#08596C">
                <g id="Background">
                    <rect id="Rectangle-path" x="0" y="0" width="64" height="64"></rect>
                </g>
            </g>
            <path d="M38.0827732,22 L48,22 L48,26 L34,26 L34,24 L30,24 L30,26 L16,26 L16,22 L26.0019436,22 L26.0019436,18.990778 C26.0019436,18.4435864 26.4518923,18 27.0087891,18 L37.0759277,18 C37.6319931,18 38.0827732,18.4509752 38.0827732,18.990778 L38.0827732,22 Z M30,28 L16,28 L16,42 L48,42 L48,28 L34,28 L34,32 L30,32 L30,28 Z M28,20 L28,22 L36,22 L36,20 L28,20 Z" id="Rectangle-93" fill="#FFFFFF"></path>
        </g>
    </g>
</svg>
