<?xml version="1.0" encoding="utf-8"?>
<!-- Generator: Adobe Illustrator 16.0.0, SVG Export Plug-In . SVG Version: 6.00 Build 0)  -->
<!DOCTYPE svg PUBLIC "-//W3C//DTD SVG 1.1//EN" "http://www.w3.org/Graphics/SVG/1.1/DTD/svg11.dtd">
<svg version="1.1" id="Layer_1" xmlns="http://www.w3.org/2000/svg" xmlns:xlink="http://www.w3.org/1999/xlink" x="0px" y="0px"
	 width="595.28px" height="594.708px" viewBox="0 0 595.28 594.708" enable-background="new 0 0 595.28 594.708"
	 xml:space="preserve">
<g id="maintenance">
	<rect id="maintenance-background" x="0.011" fill="#D03F38" width="595.27" height="594.708"/>
	<path id="maintenance-icon" fill="#FFFFFF" d="M209.066,464.474c-4.294,4.294-10.455,6.907-16.802,6.907
		s-12.508-2.613-16.989-6.907l-19.79-20.163c-4.48-4.293-7.094-10.454-7.094-16.802s2.614-12.509,7.094-16.989l127.137-127.136
		c9.708,24.457,29.311,44.059,53.768,53.767L209.066,464.474z M204.212,403.613c-6.534,0-11.948,5.414-11.948,11.948
		s5.414,11.948,11.948,11.948s11.948-5.414,11.948-11.948S210.746,403.613,204.212,403.613z M450.458,275.729
		c-11.762,33.231-43.687,56.194-78.971,56.194c-46.112,0-83.638-37.525-83.638-83.638s37.525-83.638,83.638-83.638
		c13.629,0,31.364,4.107,42.752,11.762c1.867,1.307,2.987,2.987,2.987,5.227c0,2.054-1.307,4.107-2.987,5.228l-54.7,31.551v41.819
		l36.031,19.976c6.161-3.547,49.474-30.804,53.207-30.804c3.734,0,5.975,2.8,5.975,6.534
		C454.752,262.101,452.512,269.755,450.458,275.729z"/>
</g>
</svg>
