<svg xmlns="http://www.w3.org/2000/svg" viewBox="0 0 64 64">
<rect id="maintenance-background" fill="#D03F38" width="64" height="64"/>
<path id="maintenance-icon" fill="#FFF" d="M22.054,47.761c-0.462,0.462-1.124,0.743-1.806,0.743s-1.345-0.281-1.827-0.743
	l-2.128-2.17c-0.482-0.462-0.763-1.125-0.763-1.808c0-0.683,0.281-1.346,0.763-1.828l13.669-13.682
	c1.044,2.632,3.151,4.741,5.781,5.786L22.054,47.761z M21.532,41.212c-0.702,0-1.285,0.583-1.285,1.286
	c0,0.703,0.582,1.286,1.285,1.286s1.285-0.583,1.285-1.286C22.817,41.794,22.235,41.212,21.532,41.212z M48.007,27.449
	c-1.265,3.576-4.697,6.047-8.491,6.047c-4.958,0-8.992-4.038-8.992-9.001s4.034-9.001,8.992-9.001c1.465,0,3.372,0.442,4.596,1.266
	c0.201,0.141,0.321,0.321,0.321,0.563c0,0.221-0.141,0.442-0.321,0.563l-5.881,3.395v4.5l3.874,2.15
	c0.662-0.382,5.319-3.315,5.721-3.315c0.401,0,0.642,0.301,0.642,0.703C48.469,25.983,48.228,26.807,48.007,27.449z"/>
</svg>