<svg xmlns="http://www.w3.org/2000/svg" viewBox="0 0 64 64">
<rect fill="#DA6C39" width="64" height="64"/>
<path fill="#FFF" d="M43.6,51.6l-6.8-6.8c-0.3-0.3-0.1-0.9,0.4-0.9H42v-8h4v8h4.8c0.4,0,0.7,0.5,0.4,0.9l-6.8,6.8
	C44.2,51.8,43.8,51.8,43.6,51.6z"/>
<path fill="#FFF" d="M34,47.7c-1.3-1.3-1.7-3.2-1-4.9c0.7-1.7,2.3-2.8,4.2-2.8H38v-4v-4h4h4h0V15c0-0.6-0.4-1-1-1H19
	c-0.6,0-1,0.4-1,1v34c0,0.6,0.4,1,1,1h17.3L34,47.7z"/>
<rect x="20" y="16" fill="#DA6C39" width="2" height="32"/>
<rect x="26" y="18" fill="#DA6C39" width="16" height="2"/>
</svg>