<?xml version="1.0" encoding="utf-8"?>
<!-- Generator: Adobe Illustrator 19.1.0, SVG Export Plug-In . SVG Version: 6.00 Build 0)  -->
<svg version="1.1" xmlns="http://www.w3.org/2000/svg" xmlns:xlink="http://www.w3.org/1999/xlink" x="0px" y="0px"
	 viewBox="0 0 64 64" enable-background="new 0 0 64 64" xml:space="preserve">
<g>
	<rect fill="#D04139" width="64" height="64"/>
	<path fill="#FFFFFF" d="M47,52H17c-0.552,0-1-0.448-1-1V13c0-0.552,0.448-1,1-1h30c0.552,0,1,0.448,1,1v38
		C48,51.552,47.552,52,47,52z"/>
	<path fill="#D04139" d="M45.5,50h-27c-0.276,0-0.5-0.224-0.5-0.5v-35c0-0.276,0.224-0.5,0.5-0.5h27c0.276,0,0.5,0.224,0.5,0.5v35
		C46,49.776,45.776,50,45.5,50z"/>
	<polygon opacity="0.5" fill="#FFFFFF" points="42,46 22,46 22,42 28,38 36,42 42,38 	"/>
	<polygon fill="#FFFFFF" points="42,34 36,38 28,34 22,38 22,34 28,30 36,34 42,30 	"/>
	<rect x="22" y="22" fill="#FFFFFF" width="12" height="2"/>
	<rect x="22" y="18" fill="#FFFFFF" width="18" height="2"/>
</g>
</svg>
