<svg xmlns="http://www.w3.org/2000/svg" version="1.1" viewBox="0 0 64 64">
<path fill="#5599FF" d="M0,0h64v64H0V0z"/>
<path fill="#FFFFFF" d="M45.146,17.854l-3.61,3.61C39.01,19.168,35.675,17.75,32,17.75c-7.857,0-14.25,6.393-14.25,14.25
	S24.143,46.25,32,46.25c4.183,0,7.939-1.823,10.548-4.702l-2.827-2.827C37.84,40.878,35.08,42.25,32,42.25
	c-5.652,0-10.25-4.598-10.25-10.25S26.348,21.75,32,21.75c2.572,0,4.913,0.965,6.713,2.537l-2.86,2.86
	C35.539,27.461,35.762,28,36.207,28H45.5c0.276,0,0.5-0.224,0.5-0.5v-9.293C46,17.762,45.461,17.539,45.146,17.854z"/>
</svg>
