<?xml version="1.0" encoding="UTF-8" standalone="no"?>
<svg width="64px" height="64px" viewBox="0 0 64 64" version="1.1" xmlns="http://www.w3.org/2000/svg" xmlns:xlink="http://www.w3.org/1999/xlink" xmlns:sketch="http://www.bohemiancoding.com/sketch/ns">
    <!-- Generator: Sketch 3.3.3 (12072) - http://www.bohemiancoding.com/sketch -->
    <title>module-info</title>
    <desc>Created with Sketch.</desc>
    <defs></defs>
    <g id="modules" stroke="none" stroke-width="1" fill="none" fill-rule="evenodd" sketch:type="MSPage">
        <g id="module-info" sketch:type="MSLayerGroup">
            <g id="Background" fill="#6DAAE0" sketch:type="MSShapeGroup">
                <rect id="Rectangle-path" x="0" y="0" width="64" height="64"></rect>
            </g>
            <g id="Icon" transform="translate(23.000000, 16.000000)" fill="#FFFFFF" sketch:type="MSShapeGroup">
                <path d="M16.9505371,27.5000007 C16.9505371,26.7000007 16.2505371,26.0000007 15.4505371,26.0000007 L13,26 L13,13.5 C13,12.7 12.3,12 11.5,12 L3.49047852,11.9999999 C2.69047852,11.9999999 1.99047852,12.6999999 1.99047852,13.4999999 L1.99047852,16.5043943 C1.99047852,17.3043943 2.69047852,18.0043943 3.49047852,18.0043943 L5,18.0043944 L5,25.9999999 L2.5,25.9999999 C1.7,25.9999999 1,26.6999999 1,27.4999999 L0.899999619,30.5136711 C0.899999619,31.3136711 1.59999962,32.0136711 2.39999962,32.0136711 L15.4505367,32.0136718 C16.2505367,32.0136718 16.9505367,31.3136718 16.9505367,30.5136718 L17.0505371,27.5000007 L16.9505371,27.5000007 Z M11.5185185,-1.0658141e-14 L6.48148148,-1.0658141e-14 C5.69135802,-1.0658141e-14 5,0.691358025 5,1.48148148 L5,6.51851852 C5,7.30864198 5.69135802,8 6.48148148,8 L11.5185185,8 C12.308642,8 13,7.30864198 13,6.51851852 L13,1.48148148 C13,0.691358025 12.308642,-1.0658141e-14 11.5185185,-1.0658141e-14 Z" id="Shape"></path>
            </g>
        </g>
    </g>
</svg>