<svg xmlns="http://www.w3.org/2000/svg" version="1.1" viewBox="0 0 64 64">
    <g id="modules" stroke="none" stroke-width="1" fill="none" fill-rule="evenodd">
        <g id="module-list">
            <g id="Background" fill="#CA6434">
                <rect id="Rectangle-path" x="0" y="0" width="64" height="64"></rect>
            </g>
            <path d="M19,20 C19.5522847,20 20,19.5522847 20,19 C20,18.4477153 19.5522847,18 19,18 C18.4477153,18 18,18.4477153 18,19 C18,19.5522847 18.4477153,20 19,20 Z M22,19 C22,18.4477153 22.4474692,18 23.0006946,18 L44.9993054,18 C45.5519738,18 46,18.4438648 46,19 C46,19.5522847 45.5525308,20 44.9993054,20 L23.0006946,20 C22.4480262,20 22,19.5561352 22,19 Z M16,16 L48,16 L48,22 L16,22 L16,16 Z" id="Rectangle-64" fill="#FFFFFF"></path>
            <path d="M19,28 C19.5522847,28 20,27.5522847 20,27 C20,26.4477153 19.5522847,26 19,26 C18.4477153,26 18,26.4477153 18,27 C18,27.5522847 18.4477153,28 19,28 Z M22,27 C22,26.4477153 22.4474692,26 23.0006946,26 L44.9993054,26 C45.5519738,26 46,26.4438648 46,27 C46,27.5522847 45.5525308,28 44.9993054,28 L23.0006946,28 C22.4480262,28 22,27.5561352 22,27 Z M16,24 L48,24 L48,30 L16,30 L16,24 Z" id="Rectangle-64-Copy" fill="#FFFFFF"></path>
            <path d="M19,36 C19.5522847,36 20,35.5522847 20,35 C20,34.4477153 19.5522847,34 19,34 C18.4477153,34 18,34.4477153 18,35 C18,35.5522847 18.4477153,36 19,36 Z M22,35 C22,34.4477153 22.4474692,34 23.0006946,34 L44.9993054,34 C45.5519738,34 46,34.4438648 46,35 C46,35.5522847 45.5525308,36 44.9993054,36 L23.0006946,36 C22.4480262,36 22,35.5561352 22,35 Z M16,32 L48,32 L48,38 L16,38 L16,32 Z" id="Rectangle-64-Copy-2" fill="#FFFFFF"></path>
            <path d="M22,43 C22,42.4477153 22.4474692,42 23.0006946,42 L44.9993054,42 C45.5519738,42 46,42.4438648 46,43 C46,43.5522847 45.5525308,44 44.9993054,44 L23.0006946,44 C22.4480262,44 22,43.5561352 22,43 Z M19,44 C19.5522847,44 20,43.5522847 20,43 C20,42.4477153 19.5522847,42 19,42 C18.4477153,42 18,42.4477153 18,43 C18,43.5522847 18.4477153,44 19,44 Z M16,40 L48,40 L48,46 L16,46 L16,40 Z" id="Rectangle-64-Copy-3" fill="#FFFFFF"></path>
        </g>
    </g>
</svg>
