<?xml version="1.0" ?>
<svg xmlns="http://www.w3.org/2000/svg" id="a" viewBox="0 0 64 64">
  <rect x="20" y="24" width="4" height="4" rx="2" ry="2" fill="var(--icon-color-accent, #ff8700)"/>
  <g opacity=".6">
    <rect x="28" y="24" width="16" height="4" rx="2" ry="2" fill="currentColor"/>
  </g>
  <g opacity=".6">
    <rect x="28" y="32" width="16" height="4" rx="2" ry="2" fill="currentColor"/>
  </g>
  <g opacity=".6">
    <rect x="28" y="40" width="16" height="4" rx="2" ry="2" fill="currentColor"/>
  </g>
  <rect x="20" y="32" width="4" height="4" rx="2" ry="2" fill="var(--icon-color-accent, #ff8700)"/>
  <rect x="20" y="40" width="4" height="4" rx="2" ry="2" fill="var(--icon-color-accent, #ff8700)"/>
  <path d="M50,16h-10v-2c0-1.1-.9-2-2-2h-12c-1.1,0-2,.9-2,2v2h-10c-1.1,0-2,.9-2,2v32c0,1.1.9,2,2,2h36c1.1,0,2-.9,2-2V18c0-1.1-.9-2-2-2ZM48,48H16v-28h32v28Z" fill="currentColor"/>
</svg>
