<svg xmlns="http://www.w3.org/2000/svg" viewBox="0 0 64 64">
<rect fill="#4C7E3A" width="64" height="64"/>
<path fill="#FFF" d="M36,30h10c0-0.692-0.097-1.36-0.262-2H36V30z"/>
<path fill="#FFF" d="M36,26h8.921c-0.437-0.754-0.992-1.428-1.642-2H36V26z"/>
<path fill="#FFF" d="M36,34h14.648c-0.265-0.748-0.675-1.423-1.195-2H36V34z"/>
<path fill="#FFF" d="M34,40v-2v-2v-2v-2v-2v-2v-2v-2v-2v-0.135C32.196,20.094,29.727,19,27,19c-5.413,0-9.81,4.304-9.984,9.675
	C14.645,29.796,13,32.203,13,35c0,3.866,3.134,7,7,7h14V40z"/>
<path fill="#FFF" d="M36,38h14.651C50.873,37.374,51,36.702,51,36H36V38z"/>
<path fill="#FFF" d="M36,40v2h9c1.775,0,3.365-0.775,4.463-2H36z"/>
</svg>