<?xml version="1.0" encoding="UTF-8" standalone="no"?>
<svg width="64px" height="64px" viewBox="0 0 64 64" version="1.1" xmlns="http://www.w3.org/2000/svg" xmlns:xlink="http://www.w3.org/1999/xlink" xmlns:sketch="http://www.bohemiancoding.com/sketch/ns">
    <!-- Generator: Sketch 3.3.3 (12072) - http://www.bohemiancoding.com/sketch -->
    <title>module-viewpage</title>
    <desc>Created with Sketch.</desc>
    <defs></defs>
    <g id="modules" stroke="none" stroke-width="1" fill="none" fill-rule="evenodd" sketch:type="MSPage">
        <g id="module-viewpage" sketch:type="MSLayerGroup">
            <g id="Background" fill="#D04038" sketch:type="MSShapeGroup">
                <rect id="Rectangle-path" x="0" y="0" width="64" height="64"></rect>
            </g>
            <g id="Icon" transform="translate(16.000000, 21.000000)" fill="#FFFFFF" sketch:type="MSShapeGroup">
                <path d="M16,19 C10.2222222,18.6666667 5.33333333,15.3777778 2,10.5 C3.91111111,8 6.16947157,5.39915092 9.01391602,3.9769287 C8.3028049,5.22137315 8,6.93333333 8,8.35555556 C8,12.8 11.5555556,16.050293 16,16 C20.4444444,16.050293 24,12.8 24,8.35555556 C24,6.93333333 23.7672635,5.13248426 23.0561523,3.9769287 C25.8117079,5.39915092 28,8 30,10.5 C26.7555556,15.3777778 21.7777778,18.6666667 16,19 Z M16.8888889,3.82222222 C16.8888889,4.26666667 16.5333333,4.71111111 16,4.71111111 C13.9555556,4.71111111 12.2666667,6.4 12.2666667,8.44444444 C12.2666667,8.88888889 11.9111111,9.33333333 11.3777778,9.33333333 C10.8444444,9.33333333 10.4888889,8.97777778 10.4888889,8.44444444 C10.4888889,5.42222222 12.9777778,3.02222222 15.9111111,3.02222222 C16.4444444,2.93333333 16.8888889,3.37777778 16.8888889,3.82222222 L16.8888889,3.82222222 Z M31.6444444,9.07289224 C28.3555556,3.65067002 22.3111111,0.00622557733 16,0.00622557733 C9.68888889,0.00622557733 3.64444444,3.65067002 0.355555556,9.07289224 C0.0888888889,9.4284478 0,10.2222222 0,10.6666667 C0,11.1111111 0.177777778,11.5555556 0.355555556,11.9111111 C3.64444444,17.3333333 9.68888889,20.9777778 16,20.9777778 C22.3111111,20.9777778 28.3555556,17.3333333 31.6444444,11.9111111 C31.9111111,11.5555556 32,11.1111111 32,10.6666667 C32,10.2222222 31.8222222,9.4284478 31.6444444,9.07289224 Z" id="Shape"></path>
            </g>
        </g>
    </g>
</svg>