<?xml version="1.0" encoding="utf-8"?>
<!-- Generator: Adobe Illustrator 24.1.3, SVG Export Plug-In . SVG Version: 6.00 Build 0)  -->
<svg version="1.1" xmlns="http://www.w3.org/2000/svg" xmlns:xlink="http://www.w3.org/1999/xlink" x="0px" y="0px"
	 viewBox="0 0 64 64" enable-background="new 0 0 64 64">
<g>
	<path fill="#3471A9" d="M0,0h64v64H0V0z"/>
	<path fill="#FFFFFF" d="M47,18H17c-0.552,0-1,0.448-1,1v6c0,0.552,0.448,1,1,1h30c0.552,0,1-0.448,1-1v-6
		C48,18.448,47.552,18,47,18z"/>
	<rect x="38" y="20" fill="#3471A9" width="8" height="4"/>
	<path fill="#FFFFFF" d="M47,28H17c-0.552,0-1,0.448-1,1v6c0,0.552,0.448,1,1,1h30c0.552,0,1-0.448,1-1v-6
		C48,28.448,47.552,28,47,28z"/>
	<rect x="28" y="30" fill="#3471A9" width="18" height="4"/>
	<path fill="#FFFFFF" d="M47,38H17c-0.552,0-1,0.448-1,1v6c0,0.552,0.448,1,1,1h30c0.552,0,1-0.448,1-1v-6
		C48,38.448,47.552,38,47,38z"/>
	<rect x="34" y="40" fill="#3471A9" width="12" height="4"/>
</g>
</svg>
