<?xml version="1.0" encoding="utf-8"?>
<!-- Generator: Adobe Illustrator 19.1.1, SVG Export Plug-In . SVG Version: 6.00 Build 0)  -->
<svg version="1.1" id="Ebene_1" xmlns:sketch="http://www.bohemiancoding.com/sketch/ns"
	 xmlns="http://www.w3.org/2000/svg" xmlns:xlink="http://www.w3.org/1999/xlink" x="0px" y="0px" viewBox="0 0 64 64"
	 enable-background="new 0 0 64 64" xml:space="preserve">
<rect fill="#EF8534" width="64" height="64"/>
<rect x="16" y="16" fill="#FFFFFF" width="2" height="32"/>
<rect x="26" y="16" fill="#FFFFFF" width="2" height="32"/>
<rect x="36" y="16" fill="#FFFFFF" width="2" height="32"/>
<rect x="46" y="16" fill="#FFFFFF" width="2" height="32"/>
<g>
	<rect x="14" y="22" fill="#FFFFFF" width="6" height="14"/>
	<rect x="16" y="20" opacity="0.5" fill="#EF8534" width="2" height="2"/>
	<rect x="16" y="36" opacity="0.5" fill="#EF8534" width="2" height="2"/>
</g>
<g>
	<rect x="24" y="26" fill="#FFFFFF" width="6" height="14"/>
	<rect x="26" y="24" opacity="0.5" fill="#EF8534" width="2" height="2"/>
	<rect x="26" y="40" opacity="0.5" fill="#EF8534" width="2" height="2"/>
</g>
<g>
	<rect x="34" y="28" fill="#FFFFFF" width="6" height="14"/>
	<rect x="36" y="26" opacity="0.5" fill="#EF8534" width="2" height="2"/>
	<rect x="36" y="42" opacity="0.5" fill="#EF8534" width="2" height="2"/>
</g>
<g>
	<rect x="44" y="24" fill="#FFFFFF" width="6" height="14"/>
	<rect x="46" y="22" opacity="0.5" fill="#EF8534" width="2" height="2"/>
	<rect x="46" y="38" opacity="0.5" fill="#EF8534" width="2" height="2"/>
</g>
</svg>
