<?xml version="1.0" ?>
<svg xmlns="http://www.w3.org/2000/svg" id="a" viewBox="0 0 64 64">
  <path d="M44,16v16.9c0,2.38-1,4.63-2.76,6.19l-9.24,8.22-9.24-8.22c-1.75-1.56-2.76-3.82-2.76-6.19v-16.9h24M46,12h-28c-1.1,0-2,.91-2,2.03v18.86c0,3.52,1.49,6.87,4.1,9.18l10.59,9.42c.38.34.85.5,1.32.5s.94-.17,1.32-.5l10.59-9.42c2.6-2.32,4.1-5.66,4.1-9.18V14.03c0-1.12-.9-2.03-2-2.03h0Z" fill="var(--icon-color-accent, #ff8700)"/>
  <g opacity=".4">
    <path d="M44,32.9v-16.9h-12v31.31l9.24-8.22c1.75-1.56,2.76-3.82,2.76-6.19Z" fill="currentColor"/>
  </g>
</svg>
