<?xml version="1.0" encoding="UTF-8" standalone="no"?>
<svg width="64px" height="64px" viewBox="0 0 64 64" version="1.1" xmlns="http://www.w3.org/2000/svg" xmlns:xlink="http://www.w3.org/1999/xlink" xmlns:sketch="http://www.bohemiancoding.com/sketch/ns">
    <!-- Generator: Sketch 3.3.3 (12072) - http://www.bohemiancoding.com/sketch -->
    <title>module-config</title>
    <desc>Created with Sketch.</desc>
    <defs></defs>
    <g id="modules" stroke="none" stroke-width="1" fill="none" fill-rule="evenodd" sketch:type="MSPage">
        <g id="module-config" sketch:type="MSLayerGroup">
            <g id="Background" fill="#EF8534" sketch:type="MSShapeGroup">
                <rect id="Rectangle-path" x="0" y="0" width="64" height="64"></rect>
            </g>
            <g id="Icon" transform="translate(16.000000, 18.000000)" fill="#FFFFFF" sketch:type="MSShapeGroup">
                <path d="M22.6,19.5 C22.3,19.4 22,19.4 21.8,19.6 C21.7,19.7 21.6,19.9 21.6,20.1 C21.6,20.2 21.6,20.3 21.7,20.4 L28.7,34.5 C28.8,34.8 29.2,34.9 29.5,34.9 C29.8,34.9 30,34.5 30,34.2 L30,27.9 L36.3,27.9 C36.6,27.9 36.9,27.7 37,27.4 L37,27.2 C37,26.9 36.9,26.7 36.6,26.6 L22.6,19.5 L22.6,19.5 Z" id="Shape"></path>
                <path d="M5.4,12 L4.6,12 C4.3,12 4,11.7142857 4,11.4285714 L4,10.5714286 C4,10.2857143 4.3,10 4.6,10 L5.4,10 C5.7,10 6,10.2857143 6,10.5714286 L6,11.4285714 C6,11.7142857 5.7,12 5.4,12 L5.4,12 Z M5.4,16 L4.6,16 C4.3,16 4,15.7142857 4,15.4285714 L4,14.5714286 C4,14.2857143 4.3,14 4.6,14 L5.4,14 C5.7,14 6,14.2857143 6,14.5714286 L6,15.4285714 C6,15.7142857 5.7,16 5.4,16 L5.4,16 Z M5.4,20 L4.6,20 C4.3,20 4,19.7142857 4,19.4285714 L4,18.5714286 C4,18.2857143 4.3,18 4.6,18 L5.4,18 C5.7,18 6,18.2857143 6,18.5714286 L6,19.4285714 C6,19.7142857 5.7,20 5.4,20 L5.4,20 Z M30,6.61437988 C30,6.31437988 29.7,6.01437988 29.4,6.01437988 L2.6,6.01437988 C2.3,6.01437988 2,6.31437988 2,6.61437988 L2,23.4 C2,23.7 2.3,24 2.6,24 L19.8,24 L20.8,26 L2,26 C0.4,26 0,25.5 0,24 L0,2 C0,0.4 0.4,0 2,0 L30,0 C31.6,0 32,0.3 32,2 L32,19.8 L30,18.8 L30,6.61437988 Z M8.6,20 C8.3,20 8,19.7142857 8,19.4285714 L8,18.5714286 C8,18.2857143 8.3,18 8.6,18 L18.4,18 C18.3,18.2857143 18.3,18.5714286 18.3,18.952381 C18.3,19.3333333 18.4,19.6190476 18.5,20 L8.6,20 Z M8.6,12 C8.3,12 8,11.7142857 8,11.4285714 L8,10.5714286 C8,10.2857143 8.3,10 8.6,10 L27.5,10 C27.8,10 28.1,10.2857143 28.1,10.5714286 L28.1,11.4285714 C28.1,11.7142857 27.8,12 27.5,12 L8.6,12 Z M19.7403315,16 L8.59668508,16 C8.29834254,16 8,15.7142857 8,15.4285714 L8,14.5714286 C8,14.2857143 8.29834254,14 8.59668508,14 L27.4033149,14 C27.7016575,14 28,14.2857143 28,14.5714286 L28,15.4285714 C28,15.7142857 27.7016575,16 27.4033149,16 L24.2154696,16 L23.6187845,15.7142857 C23.121547,15.5238095 22.5248619,15.3333333 21.9281768,15.3333333 C21.1325967,15.3333333 20.4364641,15.6190476 19.7403315,16 Z" id="Shape"></path>
            </g>
        </g>
    </g>
</svg>