<?xml version="1.0" encoding="utf-8"?>
<!-- Generator: Adobe Illustrator 19.1.0, SVG Export Plug-In . SVG Version: 6.00 Build 0)  -->
<svg version="1.1" xmlns="http://www.w3.org/2000/svg" xmlns:xlink="http://www.w3.org/1999/xlink" x="0px" y="0px"
	 viewBox="0 0 64 64" enable-background="new 0 0 64 64" xml:space="preserve">
<g>
	<rect fill="#428859" width="64" height="64"/>
	<g>
		<path fill="#FFFFFF" d="M47,24H17c-0.552,0-1-0.448-1-1v-6c0-0.552,0.448-1,1-1h30c0.552,0,1,0.448,1,1v6
			C48,23.552,47.552,24,47,24z"/>
	</g>
	<rect x="44" y="20" fill="#428859" width="2" height="2"/>
	<rect x="40" y="20" fill="#428859" width="2" height="2"/>
	<g>
		<path fill="#FFFFFF" d="M47,34H17c-0.552,0-1-0.448-1-1v-6c0-0.552,0.448-1,1-1h30c0.552,0,1,0.448,1,1v6
			C48,33.552,47.552,34,47,34z"/>
	</g>
	<rect x="44" y="30" fill="#428859" width="2" height="2"/>
	<rect x="40" y="30" fill="#428859" width="2" height="2"/>
	<g>
		<path fill="#FFFFFF" d="M47,48H17c-0.552,0-1-0.448-1-1V37c0-0.552,0.448-1,1-1h30c0.552,0,1,0.448,1,1v10
			C48,47.552,47.552,48,47,48z"/>
	</g>
	<rect x="44" y="44" fill="#428859" width="2" height="2"/>
	<rect x="40" y="44" fill="#428859" width="2" height="2"/>
</g>
</svg>
