<?xml version="1.0" encoding="utf-8"?>
<!-- Generator: Adobe Illustrator 19.1.1, SVG Export Plug-In . SVG Version: 6.00 Build 0)  -->
<svg version="1.1" id="Ebene_1" xmlns="http://www.w3.org/2000/svg" xmlns:xlink="http://www.w3.org/1999/xlink" x="0px" y="0px"
	 viewBox="0 0 64 64" enable-background="new 0 0 64 64" xml:space="preserve">
<rect fill="#5599FF" width="64" height="64"/>
<path fill="#FFFFFF" d="M35,42h-6c-0.552,0-1,0.448-1,1v6c0,0.552,0.448,1,1,1h6c0.552,0,1-0.448,1-1v-6C36,42.448,35.552,42,35,42z
	"/>
<path fill="#FFFFFF" d="M43.78,23.811c-0.852-4.802-4.786-8.745-9.592-9.6c-7.225-1.288-13.555,3.899-14.159,10.728
	c-0.048,0.572,0.444,1.068,1.02,1.068h6.036c0.485,0,0.88-0.353,0.981-0.828c0.563-2.64,3.732-4.329,6.674-2.22
	c0.1,0.072,0.194,0.167,0.266,0.268c1.817,2.573,0.864,4.981-0.951,6.111c-3.623,2.055-6.07,4.93-6.07,9.396V39c0,0.552,0.448,1,1,1
	h5.998c0.552,0,1-0.448,1-1v-0.268c0-1.435,0.804-1.635,1.943-2.339C42.116,34.003,44.731,29.173,43.78,23.811z"/>
</svg>
