<?xml version="1.0" encoding="utf-8"?>
<!-- Generator: Adobe Illustrator 26.0.2, SVG Export Plug-In . SVG Version: 6.00 Build 0)  -->
<svg version="1.1" id="Ebene_1" xmlns:sketch="http://www.bohemiancoding.com/sketch/ns"
	 xmlns="http://www.w3.org/2000/svg" xmlns:xlink="http://www.w3.org/1999/xlink" x="0px" y="0px" viewBox="0 0 64 64"
	 enable-background="new 0 0 64 64" xml:space="preserve">
<rect fill="#663399" width="64" height="64"/>
<path opacity="0.25" fill="#FFFFFF" d="M45.4,22.8l-4.2-4.2c-0.6-0.6-1.4-0.9-2.1-0.9c-0.8,0-1.5,0.3-2.1,0.9l-8.5,8.5l-1.4,1.4
	l-8.5,8.5c-1.2,1.2-1.2,3.1,0,4.2l4.2,4.2c0.6,0.6,1.4,0.9,2.1,0.9s1.5-0.3,2.1-0.9l8.5-8.5l1.4-1.4l8.5-8.5
	C46.6,25.9,46.6,24,45.4,22.8z M25.6,44c-0.3,0.3-0.6,0.3-0.7,0.3c-0.2,0-0.5,0-0.7-0.3L20,39.8c-0.4-0.4-0.4-1,0-1.4l6.5-6.5
	c0.1,0.3,0.3,0.6,0.6,0.8l4.2,4.2c0.2,0.2,0.5,0.4,0.8,0.6L25.6,44z M34.1,35.5c-0.3,0.3-0.6,0.3-0.7,0.3c-0.2,0-0.5,0-0.7-0.3
	l-4.2-4.2c-0.4-0.4-0.4-1,0-1.4l1.4-1.4c0.3-0.3,0.6-0.3,0.7-0.3c0.2,0,0.5,0,0.7,0.3l4.2,4.2c0.4,0.4,0.4,1,0,1.4L34.1,35.5z
	 M44,25.6l-6.5,6.5c-0.1-0.3-0.3-0.6-0.6-0.8l-4.2-4.2c-0.2-0.2-0.5-0.4-0.8-0.6l6.5-6.5c0.3-0.3,0.6-0.3,0.7-0.3
	c0.2,0,0.5,0,0.7,0.3l4.2,4.2C44.4,24.6,44.4,25.2,44,25.6z"/>
<path fill="#FFFFFF" d="M39.1,17.7c-0.8,0-1.5,0.3-2.1,0.9l-9.9,9.9c-1.2,1.2-1.2,3.1,0,4.2l3.5,3.5l1.4-1.4l-3.5-3.5
	c-0.4-0.4-0.4-1,0-1.4l9.9-9.9c0.3-0.3,0.6-0.3,0.7-0.3c0.2,0,0.5,0,0.7,0.3l4.2,4.2c0.4,0.4,0.4,1,0,1.4l-5,5
	c0.4,0.6,0.7,1.3,0.8,2.1l5.7-5.7c1.2-1.2,1.2-3.1,0-4.2l-4.2-4.2C40.6,18,39.8,17.7,39.1,17.7z"/>
<path fill="#FFFFFF" d="M35.5,32.7c0.4,0.4,0.4,1,0,1.4L25.6,44c-0.3,0.3-0.6,0.3-0.7,0.3c-0.2,0-0.5,0-0.7-0.3L20,39.8
	c-0.4-0.4-0.4-1,0-1.4l5-5c-0.4-0.6-0.7-1.3-0.8-2.1l-5.7,5.7c-1.2,1.2-1.2,3.1,0,4.2l4.2,4.2c0.6,0.6,1.4,0.9,2.1,0.9
	c0.8,0,1.5-0.3,2.1-0.9l9.9-9.9c1.2-1.2,1.2-3.1,0-4.2l-3.5-3.5L32,29.2L35.5,32.7z"/>
<path fill="#FFFFFF" d="M47.3,38.8l-0.7-0.7c-0.2-0.2-0.5-0.2-0.7,0c0,0,0,0-5.4,5.4L38,40.9c-0.2-0.2-0.5-0.2-0.7,0l-0.6,0.7
	c-0.2,0.2-0.2,0.5,0,0.7l3.6,3.6c0.2,0.2,0.5,0.2,0.7,0c4.9-4.9,0,0,6.4-6.4C47.5,39.3,47.5,39,47.3,38.8z"/>
</svg>
