<?xml version="1.0" encoding="utf-8"?>
<!-- Generator: Adobe Illustrator 22.1.0, SVG Export Plug-In . SVG Version: 6.00 Build 0)  -->
<svg version="1.1" xmlns:sketch="http://www.bohemiancoding.com/sketch/ns"
	 xmlns="http://www.w3.org/2000/svg" xmlns:xlink="http://www.w3.org/1999/xlink" x="0px" y="0px" width="64px" height="64px"
	 viewBox="0 0 64 64" enable-background="new 0 0 64 64">
<rect id="background" y="0" fill="#5992BD" width="64" height="64"/>
<path fill="#FFFFFF" d="M49.4,48L48,49.4c-0.8,0.8-2.1,0.8-2.8,0l-8.5-8.5c-0.8-0.8-0.8-2.1,0-2.8l1.4-1.4c0.8-0.8,2.1-0.8,2.8,0
	l8.5,8.5C50.2,45.9,50.2,47.2,49.4,48z"/>
<path opacity="0.2" fill="#1D1D1B" d="M31,21c5.5,0,10,4.5,10,10s-4.5,10-10,10s-10-4.5-10-10S25.5,21,31,21 M31,17
	c-7.7,0-14,6.3-14,14s6.3,14,14,14s14-6.3,14-14S38.7,17,31,17L31,17z"/>
<path fill="#FFFFFF" d="M30,20c5.5,0,10,4.5,10,10s-4.5,10-10,10s-10-4.5-10-10S24.5,20,30,20 M30,16c-7.7,0-14,6.3-14,14
	s6.3,14,14,14s14-6.3,14-14S37.7,16,30,16L30,16z"/>
</svg>
